<svg width="19" height="27" viewBox="0 0 19 27" fill="none" xmlns="http://www.w3.org/2000/svg">
<path d="M9.55882 12.8291C8.67301 12.8291 7.82348 12.4772 7.19712 11.8508C6.57076 11.2245 6.21887 10.3749 6.21887 9.48912C6.21887 8.60331 6.57076 7.75378 7.19712 7.12742C7.82348 6.50106 8.67301 6.14917 9.55882 6.14917C10.4446 6.14917 11.2942 6.50106 11.9205 7.12742C12.5469 7.75378 12.8988 8.60331 12.8988 9.48912C12.8988 9.92773 12.8124 10.362 12.6445 10.7673C12.4767 11.1725 12.2307 11.5407 11.9205 11.8508C11.6104 12.161 11.2422 12.407 10.837 12.5748C10.4317 12.7427 9.99743 12.8291 9.55882 12.8291ZM9.55882 0.137268C7.07856 0.137268 4.69988 1.12255 2.94606 2.87636C1.19225 4.63017 0.20697 7.00885 0.20697 9.48912C0.20697 16.503 9.55882 26.8568 9.55882 26.8568C9.55882 26.8568 18.9107 16.503 18.9107 9.48912C18.9107 7.00885 17.9254 4.63017 16.1716 2.87636C14.4178 1.12255 12.0391 0.137268 9.55882 0.137268Z" fill="#FFC107"/>
</svg>
