<svg width="78" height="56" viewBox="0 0 78 56" fill="none" xmlns="http://www.w3.org/2000/svg">
<path d="M65.8998 5.92135C59.1622 3.50272 43.182 -0.902636 33.162 0.824955C27.3746 1.37203 14.4522 3.39907 9.0621 7.13066C5.69928 8.58867 0.21222 12.92 0.346916 19.9551C1.44025 23.2375 6.18374 30.4761 16.4111 33.1712L22.7964 34.9852C23.4852 35.2155 24.4496 35.6762 22.7964 35.6762C20.1209 35.2155 14.6317 34.3632 14.0788 34.6396C12.7543 34.5821 10.4509 35.3134 11.833 38.6995C13.2438 41.3197 17.6722 47.1647 24.0989 49.5833C25.5336 49.9211 27.4226 50.334 29.463 50.7329C34.752 51.767 41.0578 52.7072 43.1023 52.0019C44.3357 51.8731 46.8581 51.4292 49.7982 50.5303C51.4588 50.0226 53.2526 49.3698 55.0227 48.5467C57.6141 46.8767 63.0733 42.7939 64.179 39.8224C65.88 37.9221 67.985 34.2077 62.7969 34.5533L55.2819 35.2443C59.9464 33.8622 69.8973 30.4416 72.385 27.8157C74.1827 25.7609 77.7656 21.4827 77.8424 20.6671C77.8428 20.6601 77.8432 20.6531 77.8436 20.6462C78.1161 15.871 75.6916 9.93132 65.8998 5.92135Z" fill="#6A98C5"/>
<path d="M1.37433 25.0976C3.62019 31.3745 11.0488 45.1895 22.7964 50.234C25.1404 51.3357 26.4949 51.1143 29.463 50.7329C32.8502 50.2976 38.3389 49.6538 49.7982 50.5303C50.7472 50.6029 51.7371 50.6859 52.7701 50.7803C53.9598 50.2785 55.1429 49.6962 56.3117 49.0247C61.0338 46.347 71.6009 38.0718 76.0926 26.3933C76.9516 24.9835 77.7076 22.9603 77.8424 20.6671C77.7656 21.4827 74.1827 25.7609 72.385 27.8157C69.8973 30.4416 59.9464 33.8622 55.2819 35.2443L62.7969 34.5533C67.985 34.2077 65.88 37.9221 64.179 39.8224C63.0733 42.7939 57.6141 46.8767 55.0227 48.5467C53.2526 49.3698 51.4588 50.0226 49.7982 50.5303C46.8581 51.4292 44.3357 51.8731 43.1023 52.0019C41.0578 52.7072 34.752 51.767 29.463 50.7329C27.4226 50.334 25.5336 49.9211 24.0989 49.5833C17.6722 47.1647 13.2438 41.3197 11.833 38.6995C10.4509 35.3134 12.7543 34.5821 14.0788 34.6396C14.6317 34.3632 20.1209 35.2155 22.7964 35.6762C24.4496 35.6762 23.4852 35.2155 22.7964 34.9852L16.4111 33.1712C6.18374 30.4761 1.44025 23.2375 0.346916 19.9551C0.377142 21.5338 0.690438 23.2486 1.37433 25.0976Z" fill="#4672B1"/>
<path d="M29.463 50.7329C26.4949 51.1143 25.1404 51.3357 22.7964 50.234C27.2594 53.7367 39.5023 58.7496 52.7701 50.7803C51.7371 50.6859 50.7472 50.6029 49.7982 50.5303C46.8581 51.4292 44.3357 51.8731 43.1023 52.0019C41.0578 52.7072 34.752 51.767 29.463 50.7329Z" fill="#4672B1"/>
<path d="M8.20503 27.3448C8.82337 27.8034 9.49611 28.262 10.225 28.7144C8.53322 27.5201 8.65326 24.9269 8.97986 23.4966C9.0083 23.3721 9.03831 23.2563 9.06882 23.1511L8.20503 22.2009C7.23758 23.7212 7.80192 26.2636 8.20503 27.3448Z" fill="#C8A02E"/>
<path d="M9.06882 23.1511C9.03831 23.2563 9.0083 23.3721 8.97986 23.4966C9.38382 25.2475 10.8655 28.908 13.5606 29.5432C16.2556 30.1784 17.3325 30.1534 17.534 30.0615C13.1805 29.016 10.0766 25.0189 9.06882 23.1511Z" fill="#C8A02E"/>
<path d="M17.534 30.0615C18.1115 30.4934 19.5115 31.2881 20.4917 31.0117C20.4524 30.7925 20.4225 30.567 20.4046 30.3372C18.2094 30.0741 17.5762 28.0282 17.534 27.0382C16.5666 28.3512 17.1309 29.6008 17.534 30.0615Z" fill="#C8A02E"/>
<path d="M20.5978 28.3339C20.7072 27.9637 20.8633 27.5973 21.0756 27.2425C20.6437 26.3394 19.6244 24.8269 19.0025 26.0016C18.3805 27.1764 19.8069 28.046 20.5978 28.3339Z" fill="#C8A02E"/>
<path d="M28.8436 29.0249C30.0134 28.403 32.2681 28.9385 33.2492 29.2841C33.3108 28.9056 33.4045 28.5293 33.5216 28.1611C32.1454 27.0555 28.7395 27.2339 27.2085 27.4613C27.5084 27.7497 27.8126 28.0413 28.1187 28.3339C28.3595 28.564 28.6015 28.7947 28.8436 29.0249Z" fill="#C8A02E"/>
<path d="M31.5275 31.5455C31.7348 31.3507 32.7999 31.3963 33.3066 31.4436C33.1966 31.0075 33.1555 30.5582 33.1687 30.1057C32.3049 30.0732 30.5082 30.0741 30.2318 30.3372C30.673 30.7516 31.1073 31.1568 31.5275 31.5455Z" fill="#C8A02E"/>
<path d="M25.9992 22.0282C29.2471 25.7598 32.8868 26.4623 34.3007 26.3472C34.5019 25.9736 34.7149 25.625 34.9267 25.3106C30.8739 25.3106 27.8047 22.4313 26.7766 20.9916L25.9992 22.0282Z" fill="#C8A02E"/>
<path d="M27.7268 20.7325C29.3392 22.2009 33.1514 25.0169 35.501 24.5332C36.883 24.5908 39.8199 24.6023 40.511 24.1877C38.0635 23.1799 32.875 21.1989 31.7003 21.3371L28.1187 19.0913L27.2085 20.3006L27.7268 20.7325Z" fill="#C8A02E"/>
<path d="M40.511 24.1877H43.1887C43.3476 23.8092 43.5519 23.4594 43.7934 23.1364C41.3808 22.9109 36.0956 21.9381 34.2916 20.2105C33.3932 20.2842 32.4225 20.2289 31.4411 19.9551L31.7003 21.3371C32.875 21.1989 38.0635 23.1799 40.511 24.1877Z" fill="#C8A02E"/>
<path d="M27.7268 17.1909C28.9649 18.0259 32.8232 19.5405 38.3515 18.9185L39.3017 17.9377C37.8181 18.0941 36.4601 18.0963 35.2418 17.9981C34.9149 17.9718 34.5981 17.9382 34.2916 17.8985C31.3776 17.5205 29.3983 16.5834 28.5906 15.9816L27.7268 17.1909Z" fill="#C8A02E"/>
<path d="M31.2684 13.563C30.1627 14.8069 32.8232 16.9716 34.2916 17.8985C34.5981 17.9382 34.9149 17.9718 35.2418 17.9981C32.2013 14.2903 31.3259 13.4965 31.2684 13.563Z" fill="#C8A02E"/>
<path d="M42.9246 27.0912C42.9255 26.6706 42.9473 26.2357 42.9791 25.8289C40.2546 23.9631 37.4399 24.7059 36.3731 25.3106C36.8068 25.6161 37.3737 25.9663 38.039 26.3472C40.0694 25.4559 42.1421 26.4718 42.9246 27.0912Z" fill="#C8A02E"/>
<path d="M70.7438 21.6827C72.1259 21.4062 72.9458 24.0437 73.183 25.397C73.5504 25.0086 73.8922 24.6054 74.2032 24.1877C73.4464 20.7325 69.6237 19.6383 67.8069 19.5232L67.2022 20.6461C68.6534 20.6461 69.0162 21.3371 69.0162 21.6827C67.6341 23.894 64.4936 25.3682 63.0961 25.8289C63.1032 26.2419 63.0753 26.6658 63.0204 27.0912C65.687 27.2719 69.2804 23.5608 70.7438 21.6827Z" fill="#D4A33A"/>
<path d="M69.7073 23.4103C70.191 23.894 70.0816 26.7208 69.9664 28.0737C70.6299 27.627 71.2685 27.1491 71.8667 26.6404C72.7305 23.1329 69.1026 22.8056 69.7073 23.4103Z" fill="#D4A33A"/>
<path d="M67.2022 26.088C67.3405 26.6408 65.8778 29.3756 65.1291 30.6738C66.1582 30.2333 67.2114 29.7212 68.2388 29.1395C69.068 26.1906 68.7571 25.4158 68.4979 25.397C68.0085 25.397 67.064 25.5352 67.2022 26.088Z" fill="#D4A33A"/>
<path d="M62.4172 29.6296C62.1049 30.5626 61.7327 31.3971 61.4081 32.0079C61.6626 31.9348 61.9244 31.8555 62.1922 31.7701L66.0793 26.8654L64.2483 28.2475L62.4172 29.6296Z" fill="#DB9E4D"/>
<path fill-rule="evenodd" clip-rule="evenodd" d="M34.3057 20.2094L34.306 20.2093C34.415 20.2002 34.5229 20.1892 34.6296 20.1765C34.5228 20.1892 34.4148 20.2002 34.3057 20.2094Z" fill="#D9D9D9"/>
<path fill-rule="evenodd" clip-rule="evenodd" d="M46.8167 20.8693C47.2994 20.6332 43.1595 17.6276 41.0292 16.1544L39.3017 17.9377L38.3515 18.9185C37.6826 19.3524 36.3009 19.977 34.6296 20.1765C34.5229 20.1892 34.415 20.2002 34.306 20.2093L34.3057 20.2094L34.2916 20.2105C36.0956 21.9381 41.3808 22.9109 43.7934 23.1364C44.5316 22.1489 45.6175 21.4114 46.8167 20.8693ZM39.7336 19.264L36.9694 21.1644C38.553 21.769 41.8239 22.5119 42.2386 20.6461C42.6532 18.7803 40.7413 18.9473 39.7336 19.264Z" fill="#C8A02E"/>
<path d="M53.036 19.5232C56.9749 19.1777 60.6662 21.5675 62.0195 22.8056C62.7771 23.5869 63.0759 24.6645 63.0961 25.8289C64.4936 25.3682 67.6341 23.894 69.0162 21.6827C69.0162 21.3371 68.6534 20.6461 67.2022 20.6461L67.8069 19.5232C69.6237 19.6383 73.4464 20.7325 74.2032 24.1877C74.3921 23.9339 74.5697 23.6747 74.7347 23.4103C74.9613 21.8209 73.1475 20.3294 72.2123 19.7823C72.6833 19.0222 72.1782 17.2197 71.8667 16.4135H70.3119L71.1757 18.9185L68.8435 18.3139L67.8069 15.9816C68.7744 14.3684 65.8376 12.1998 64.2483 11.3171H63.5743C63.0351 12.0773 65.0197 13.1311 66.0793 13.563C66.8855 14.4268 68.2388 16.0334 67.2022 15.5497C66.1657 15.066 63.9825 14.5995 63.0204 14.4268L44.8299 9.33039C43.0333 6.94399 39.1865 7.64502 37.4877 8.29384C34.1707 6.28983 29.5984 9.12884 27.7268 10.7988C8.5851 9.5872 5.00898 19.8505 5.61364 25.1337C6.076 25.5927 6.59361 26.0621 7.16847 26.5353C7.49536 26.8043 7.84075 27.0746 8.20503 27.3448C7.80192 26.2636 7.23758 23.7212 8.20503 22.2009L9.06882 23.1511C10.0766 25.0189 13.1805 29.016 17.534 30.0615C17.1309 29.6008 16.5666 28.3512 17.534 27.0382C17.5762 28.0282 18.2094 30.0741 20.4046 30.3372C20.3844 30.077 20.3795 29.8114 20.3938 29.5432C20.415 29.1424 20.4789 28.7359 20.5978 28.3339C19.8069 28.046 18.3805 27.1764 19.0025 26.0016C19.6244 24.8269 20.6437 26.3394 21.0756 27.2425C21.298 26.8707 21.5823 26.5116 21.9394 26.1744L23.8397 24.1877C24.3056 24.6455 24.8307 25.1589 25.3946 25.7072C25.9663 26.2632 26.5781 26.8551 27.2085 27.4613C28.7395 27.2339 32.1454 27.0555 33.5216 28.1611C33.5585 28.0451 33.5978 27.9298 33.6391 27.8156C33.7283 27.5689 33.8273 27.3268 33.9332 27.0912C34.0485 26.8347 34.1722 26.5858 34.3007 26.3472C32.8868 26.4623 29.2471 25.7598 25.9992 22.0282L26.7766 20.9916C27.8047 22.4313 30.8739 25.3106 34.9267 25.3106C35.1227 25.0197 35.3176 24.758 35.501 24.5332C33.1514 25.0169 29.3392 22.2009 27.7268 20.7325L27.2085 20.3006L28.1187 19.0913L31.7003 21.3371L31.4411 19.9551C32.4225 20.2289 33.3932 20.2842 34.2916 20.2105L34.3057 20.2094L34.306 20.2093C34.415 20.2002 34.5229 20.1892 34.6296 20.1765C36.3009 19.977 37.6826 19.3524 38.3515 18.9185C32.8232 19.5405 28.9649 18.0259 27.7268 17.1909L28.5906 15.9816C29.3983 16.5834 31.3776 17.5205 34.2916 17.8985C32.8232 16.9716 30.1627 14.8069 31.2684 13.563C31.3259 13.4965 32.2013 14.2903 35.2418 17.9981C36.4601 18.0963 37.8181 18.0941 39.3017 17.9377L41.0292 16.1544C43.1595 17.6276 47.2994 20.6332 46.8167 20.8693C48.9791 19.8917 51.5101 19.5496 53.036 19.5232Z" fill="#E1C377"/>
<path d="M19.8663 7.77556C8.39506 9.64136 3.91036 17.9703 3.10192 21.9015C3.59327 22.8316 4.41902 23.9477 5.61364 25.1337C5.00898 19.8505 8.5851 9.5872 27.7268 10.7988C29.5984 9.12884 34.1707 6.28983 37.4877 8.29384C39.1865 7.64502 43.0333 6.94399 44.8299 9.33039L63.0204 14.4268C63.9825 14.5995 66.1657 15.066 67.2022 15.5497C68.2388 16.0334 66.8855 14.4268 66.0793 13.563C65.0197 13.1311 63.0351 12.0773 63.5743 11.3171H64.2483C65.8376 12.1998 68.7744 14.3684 67.8069 15.9816L68.8435 18.3139L71.1757 18.9185L70.3119 16.4135H71.8667C72.1782 17.2197 72.6833 19.0222 72.2123 19.7823C73.1475 20.3294 74.9613 21.8209 74.7347 23.4103C75.3374 22.4441 75.7726 21.4068 75.9826 20.3006C74.7144 16.1544 70.0037 12.584 67.8069 11.3171C65.5956 9.62175 59.6296 7.55864 56.9231 6.739H48.4579C46.9376 5.90976 42.6417 5.41452 40.6837 5.27055C35.501 4.06124 27.7268 5.52969 27.7268 5.96159C27.7268 6.30711 22.4864 7.31487 19.8663 7.77556Z" fill="#E5D5A7"/>
<path d="M21.9394 31.0117C20.8337 29.5605 21.4787 27.1822 21.9394 26.1744C21.5823 26.5116 21.298 26.8707 21.0756 27.2425C20.8633 27.5973 20.7072 27.9637 20.5978 28.3339C20.4789 28.7359 20.415 29.1424 20.3938 29.5432C20.3795 29.8114 20.3844 30.077 20.4046 30.3372C20.4225 30.567 20.4524 30.7925 20.4917 31.0117C20.5402 31.2818 20.6031 31.5422 20.6755 31.7891C20.8594 32.4153 21.1051 32.9541 21.3347 33.3419C22.3004 33.5959 23.3076 33.8305 24.3573 34.0423L21.9394 31.0117Z" fill="#D13C3B"/>
<path d="M23.8397 24.1877L21.9394 26.1744C21.4787 27.1822 20.8337 29.5605 21.9394 31.0117L24.3573 34.0423C24.5859 34.0884 24.8164 34.1334 25.049 34.1774L22.4576 30.6661C22.1697 30.263 21.7666 29.1286 22.4576 27.8156L23.8397 24.1877Z" fill="#E6A88B"/>
<path d="M22.4576 30.6661L25.049 34.1774C26.1015 34.3762 27.1953 34.5522 28.3315 34.7024C24.0853 32.3341 24.6043 29.6865 25.3946 28.6588C24.4291 28.46 26.1036 27.8053 27.2085 27.4613C26.5781 26.8551 25.9663 26.2632 25.3946 25.7072C24.8307 25.1589 24.3056 24.6455 23.8397 24.1877L22.4576 27.8156C21.7666 29.1286 22.1697 30.263 22.4576 30.6661Z" fill="#DD5B78"/>
<path d="M25.9992 28.7144C26.3447 28.7027 26.9321 28.8522 26.5175 29.5432C25.9992 29.9463 25.4464 30.8043 27.3813 31.0117C27.6404 32.077 28.6251 33.9313 30.4909 32.8256C30.7213 32.7192 31.2511 32.6734 31.5275 33.3419C31.7866 34.0336 32.4777 35.0888 33.1687 33.7758V33.0421C32.6607 32.5871 32.1074 32.082 31.5275 31.5455C31.1073 31.1568 30.673 30.7516 30.2318 30.3372C29.7739 29.9071 29.3086 29.467 28.8436 29.0249C28.6015 28.7947 28.3595 28.564 28.1187 28.3339C27.8126 28.0413 27.5084 27.7497 27.2085 27.4613C26.1036 27.8053 24.4291 28.46 25.3946 28.6588C25.536 28.6879 25.7342 28.7072 25.9992 28.7144Z" fill="#F0B27C"/>
<path d="M26.5175 29.5432C26.9321 28.8522 26.3447 28.7027 25.9992 28.7144C25.7342 28.7072 25.536 28.6879 25.3946 28.6588C24.6043 29.6865 24.0853 32.3341 28.3315 34.7024C30.6953 35.015 33.2423 35.2157 35.9808 35.2768C35.6947 35.2269 34.615 34.3375 33.1687 33.0421V33.7758C32.4777 35.0888 31.7866 34.0336 31.5275 33.3419C31.2511 32.6734 30.7213 32.7192 30.4909 32.8256C28.6251 33.9313 27.6404 32.077 27.3813 31.0117C25.4464 30.8043 25.9992 29.9463 26.5175 29.5432Z" fill="#C94331"/>
<path d="M36.7658 35.2904C37.4252 35.2985 38.0954 35.2986 38.7767 35.2904C39.6033 35.2532 40.5706 35.2003 41.6339 35.1311L39.1289 34.0423C37.189 33.3026 34.0956 31.7953 34.0325 30.407C33.8854 30.1191 33.6008 29.1977 33.6391 27.8156C33.5978 27.9298 33.5585 28.0451 33.5216 28.1611C33.4045 28.5293 33.3108 28.9056 33.2492 29.2841C33.2046 29.5576 33.1767 29.8322 33.1687 30.1057C33.1555 30.5582 33.1966 31.0075 33.3066 31.4436C33.495 32.1908 33.8856 32.8989 34.5508 33.5167C35.1636 34.1066 36.4646 35.2873 36.7658 35.2904Z" fill="#D13C3B"/>
<path d="M35.501 31.0117C34.4891 30.2515 35.0794 26.3759 35.501 24.5332C35.3176 24.758 35.1227 25.0197 34.9267 25.3106C34.7149 25.625 34.5019 25.9736 34.3007 26.3472C34.1722 26.5858 34.0485 26.8347 33.9332 27.0912C33.8273 27.3268 33.7283 27.5689 33.6391 27.8156C33.6008 29.1977 33.8854 30.1191 34.0325 30.407C34.0956 31.7953 37.189 33.3026 39.1289 34.0423C39.3133 34.1126 39.4872 34.1759 39.6472 34.2316C37.1594 32.8687 35.8465 31.5171 35.501 31.0117Z" fill="#E6A88B"/>
<path d="M51.222 34.2316C51.4984 34.1969 52.0282 33.5102 52.2586 33.1711C51.2031 32.7137 49.9225 32.1474 48.5443 31.5227C48.6825 32.8299 47.1622 33.5694 46.3848 33.7758C45.6937 33.9831 43.5055 33.6894 42.4977 33.5167C38.006 32.6594 37.2861 30.165 37.4877 29.0249C37.4742 28.917 37.4749 28.8135 37.4877 28.7144C37.6063 27.7979 38.7644 27.2572 39.388 27.0912C38.9058 26.8335 38.4533 26.5844 38.039 26.3472C37.3737 25.9663 36.8068 25.6161 36.3731 25.3106C35.9334 25.0009 35.6306 24.7369 35.501 24.5332C35.0794 26.3759 34.4891 30.2515 35.501 31.0117C35.8465 31.5171 37.1594 32.8687 39.6472 34.2316C39.4872 34.1759 39.3133 34.1126 39.1289 34.0423L41.6339 35.1311C44.4365 34.9488 47.9057 34.653 51.222 34.2316Z" fill="#DD5B78"/>
<path d="M37.4877 29.0249C37.2861 30.165 38.006 32.6594 42.4977 33.5167C43.5055 33.6894 45.6937 33.9831 46.3848 33.7758C47.1622 33.5694 48.6825 32.8299 48.5443 31.5227C47.8441 31.2053 47.1187 30.8729 46.3848 30.532L46.6439 31.5227C46.5057 33.1063 45.6649 32.3601 45.2618 31.7891C44.7781 31.0289 44.0813 31.1268 43.7934 31.2708C42.4804 33.0675 41.058 31.4436 40.511 30.407C38.7143 30.8216 38.841 29.6584 39.1289 29.0249C38.9216 28.3339 37.9484 28.53 37.4877 28.7144C37.4749 28.8135 37.4742 28.917 37.4877 29.0249Z" fill="#C94331"/>
<path d="M39.388 27.0912C38.7644 27.2572 37.6063 27.7979 37.4877 28.7144C37.9484 28.53 38.9216 28.3339 39.1289 29.0249C38.841 29.6584 38.7143 30.8216 40.511 30.407C41.058 31.4436 42.4804 33.0675 43.7934 31.2708C44.0813 31.1268 44.7781 31.0289 45.2618 31.7891C45.6649 32.3601 46.5057 33.1063 46.6439 31.5227L46.3848 30.532C46.3455 30.5142 46.3066 30.4961 46.2681 30.4778C45.2479 30.0032 44.2129 29.513 43.2077 29.0249C41.842 28.3617 40.5314 27.7023 39.388 27.0912Z" fill="#F0B27C"/>
<path fill-rule="evenodd" clip-rule="evenodd" d="M46.3848 30.532C47.1187 30.8729 47.8441 31.2053 48.5443 31.5227C52.5804 32.1363 61.1261 32.1091 63.0204 27.0912C63.0753 26.6658 63.1032 26.2419 63.0961 25.8289C63.0759 24.6645 62.7771 23.5869 62.0195 22.8056C60.6662 21.5675 56.9749 19.1777 53.036 19.5232C51.5101 19.5496 48.9791 19.8917 46.8167 20.8693C45.6175 21.4114 44.5316 22.1489 43.7934 23.1364C43.5519 23.4594 43.3476 23.8092 43.1887 24.1877C43.1639 24.2937 43.1417 24.4093 43.123 24.5332C43.1216 24.5425 43.1202 24.5519 43.1189 24.5613C42.8895 26.147 43.2511 29.0409 46.2681 30.4778L46.3848 30.532ZM55.8001 20.6461C55.3164 20.3006 53.6407 20.3294 52.8632 20.387L53.3815 25.397L55.8001 20.6461ZM60.0327 22.4601C59.1344 21.2853 57.2398 20.7613 56.4048 20.6461L53.8134 25.397L60.0327 22.4601ZM62.1922 26.3472C63.0906 24.6196 61.53 23.2663 60.6374 22.8056L53.8134 25.8289L62.1922 26.3472ZM52.4313 20.387C50.9802 20.4106 49.5232 20.7999 48.9762 20.9916L53.036 25.397L52.4313 20.387ZM48.2851 21.1644C47.1795 21.1644 45.0603 23.1799 44.1389 24.1877L52.8632 25.5697L48.2851 21.1644ZM52.8632 25.8289L43.7934 24.7059C43.1024 27.2628 44.4844 28.4436 45.2618 28.7144L52.8632 25.8289ZM49.2353 31.0117L53.036 26.0016L49.3649 27.5133L45.6937 29.0249C45.6937 30.1958 48.0548 30.8373 49.2353 31.0117ZM53.2088 26.3472L50.0127 31.0117C50.6347 31.7027 52.4025 31.4723 53.2088 31.2708V26.3472ZM58.2188 30.407L53.3815 26.0016L53.5543 31.2708C54.4526 31.6903 57.0383 30.8697 58.2188 30.407ZM58.3915 30.1479L53.8998 26.088L61.9331 26.8654C62.0022 28.7312 59.6008 29.8311 58.3915 30.1479Z" fill="#D6DFD0"/>
<path fill-rule="evenodd" clip-rule="evenodd" d="M44.1389 24.1877C45.0603 23.1799 47.1795 21.1644 48.2851 21.1644L52.8632 25.5697L44.1389 24.1877ZM50.531 24.7059C49.6384 23.8997 47.6459 22.3564 46.8167 22.6328C45.9874 22.9093 48.9474 24.1301 50.531 24.7059ZM50.0127 23.6694C49.6672 23.0359 48.838 21.8209 48.2851 22.0282C47.7323 22.2355 49.2065 23.2087 50.0127 23.6694ZM49.2353 24.7059C48.1412 24.5908 45.9529 24.2222 45.9529 23.6694C45.9529 23.1166 48.1412 24.1301 49.2353 24.7059Z" fill="#DBE174"/>
<path fill-rule="evenodd" clip-rule="evenodd" d="M48.9762 20.9916C49.5232 20.7999 50.9802 20.4106 52.4313 20.387L53.036 25.397L48.9762 20.9916ZM51.6539 22.9784C51.0781 22.5177 50.0127 21.4754 50.3582 20.9916C50.7038 20.5079 51.366 22.1146 51.6539 22.9784ZM52.2586 22.9784C51.9707 22.51 51.4466 21.4569 51.6539 20.9916C51.8612 20.5264 52.1434 22.1223 52.2586 22.9784Z" fill="#DBE174"/>
<path fill-rule="evenodd" clip-rule="evenodd" d="M52.8632 20.387C53.6407 20.3294 55.3164 20.3006 55.8001 20.6461L53.3815 25.397L52.8632 20.387ZM53.8134 23.6694C53.6695 23.0647 53.4679 21.6827 53.8134 20.9916C54.2453 20.1278 53.9862 23.6694 53.8134 23.6694Z" fill="#DBE174"/>
<path fill-rule="evenodd" clip-rule="evenodd" d="M56.4048 20.6461C57.2398 20.7613 59.1344 21.2853 60.0327 22.4601L53.8134 25.397L56.4048 20.6461ZM55.1955 23.6694C55.4546 23.0071 56.0593 21.6827 56.4048 21.6827C56.8367 21.6827 55.7138 23.5254 55.1955 23.6694ZM56.4048 23.4103C56.6927 22.9208 57.4241 21.9591 58.046 22.0282C58.8234 22.1146 56.6639 23.4103 56.4048 23.4103Z" fill="#DBE174"/>
<path fill-rule="evenodd" clip-rule="evenodd" d="M60.6374 22.8056C61.53 23.2663 63.0906 24.6196 62.1922 26.3472L53.8134 25.8289L60.6374 22.8056ZM56.8367 24.9651C57.8509 24.4468 60.1345 23.5657 61.1557 24.1877C62.4321 24.9651 57.2686 24.9651 56.8367 24.9651ZM59.4281 25.397C59.9707 25.253 61.1263 25.0515 61.4081 25.397C61.6899 25.7425 60.2055 25.5409 59.4281 25.397Z" fill="#DBE174"/>
<path fill-rule="evenodd" clip-rule="evenodd" d="M53.8998 26.088L58.3915 30.1479C59.6008 29.8311 62.0022 28.7312 61.9331 26.8654L53.8998 26.088ZM56.0593 27.0912C56.6064 27.7015 57.8905 28.8805 58.6507 28.7144C59.4108 28.5482 57.2398 27.563 56.0593 27.0912ZM57.7869 26.9518C58.6219 27.0094 60.3092 27.1937 60.3783 27.4701C60.4646 27.8156 58.2188 27.211 57.7869 26.9518Z" fill="#DBE174"/>
<path fill-rule="evenodd" clip-rule="evenodd" d="M53.3815 26.0016L58.2188 30.407C57.0383 30.8697 54.4526 31.6903 53.5543 31.2708L53.3815 26.0016ZM54.4181 27.8156C54.8212 28.6377 55.541 30.307 55.1955 30.407C54.85 30.507 54.5332 28.7211 54.4181 27.8156ZM55.541 28.5066C55.9729 28.9673 56.7503 29.9405 56.4048 30.1479C56.0593 30.3552 55.685 29.1401 55.541 28.5066Z" fill="#DBE174"/>
<path fill-rule="evenodd" clip-rule="evenodd" d="M53.036 26.0016L49.2353 31.0117C48.0548 30.8373 45.6937 30.1958 45.6937 29.0249L49.3649 27.5133L53.036 26.0016ZM51.4812 27.2973C50.4158 27.9596 48.4233 29.4568 48.9762 30.1479C49.529 30.8389 50.8765 28.5354 51.4812 27.2973ZM49.6672 27.8156C48.9762 28.0172 47.6632 28.5412 47.9396 29.0249C48.216 29.5086 49.2065 28.4203 49.6672 27.8156Z" fill="#DBE174"/>
<path fill-rule="evenodd" clip-rule="evenodd" d="M43.7934 24.7059L52.8632 25.8289L45.2618 28.7144C44.4844 28.4436 43.1024 27.2628 43.7934 24.7059ZM50.0127 26.0016C48.4291 25.8688 45.1755 25.7519 44.8299 26.3472C44.4844 26.9424 48.1412 26.3648 50.0127 26.0016ZM47.0758 26.9518C46.5287 27.0276 45.4864 27.3065 45.6937 27.8156C45.9011 28.3248 46.7015 27.4519 47.0758 26.9518Z" fill="#DBE174"/>
<path fill-rule="evenodd" clip-rule="evenodd" d="M50.0127 31.0117L53.2088 26.3472V31.2708C52.4025 31.4723 50.6347 31.7027 50.0127 31.0117ZM52.6905 27.8156C52.2874 28.7082 51.6367 30.5452 52.2586 30.7525C52.8805 30.9598 52.8057 28.881 52.6905 27.8156ZM51.4812 29.6296C51.1357 30.0039 50.5655 30.7525 51.0493 30.7525C51.533 30.7525 51.5388 30.0039 51.4812 29.6296Z" fill="#DBE174"/>
<path d="M47.0758 26.9518C46.5287 27.0276 45.4864 27.3065 45.6937 27.8156C45.9011 28.3248 46.7015 27.4519 47.0758 26.9518Z" fill="#D6DFD0"/>
<path d="M50.0127 26.0016C48.4291 25.8688 45.1755 25.7519 44.8299 26.3472C44.4844 26.9424 48.1412 26.3648 50.0127 26.0016Z" fill="#D9D9D9"/>
<path d="M49.2353 24.7059C48.1412 24.5908 45.9529 24.2222 45.9529 23.6694C45.9529 23.1166 48.1412 24.1301 49.2353 24.7059Z" fill="#D9D9D9"/>
<path d="M50.531 24.7059C49.6384 23.8997 47.6459 22.3564 46.8167 22.6328C45.9874 22.9093 48.9474 24.1301 50.531 24.7059Z" fill="#D9D9D9"/>
<path d="M50.0127 23.6694C49.6672 23.0359 48.838 21.8209 48.2851 22.0282C47.7323 22.2355 49.2065 23.2087 50.0127 23.6694Z" fill="#D9D9D9"/>
<path d="M51.6539 22.9784C51.0781 22.5177 50.0127 21.4754 50.3582 20.9916C50.7038 20.5079 51.366 22.1146 51.6539 22.9784Z" fill="#D9D9D9"/>
<path d="M52.2586 22.9784C51.9707 22.51 51.4466 21.4569 51.6539 20.9916C51.8612 20.5264 52.1434 22.1223 52.2586 22.9784Z" fill="#D9D9D9"/>
<path d="M53.8134 23.6694C53.6695 23.0647 53.4679 21.6827 53.8134 20.9916C54.2453 20.1278 53.9862 23.6694 53.8134 23.6694Z" fill="#D9D9D9"/>
<path d="M55.1955 23.6694C55.4546 23.0071 56.0593 21.6827 56.4048 21.6827C56.8367 21.6827 55.7138 23.5254 55.1955 23.6694Z" fill="#D9D9D9"/>
<path d="M56.4048 23.4103C56.6927 22.9208 57.4241 21.9591 58.046 22.0282C58.8234 22.1146 56.6639 23.4103 56.4048 23.4103Z" fill="#D9D9D9"/>
<path d="M56.8367 24.9651C57.8509 24.4468 60.1345 23.5657 61.1557 24.1877C62.4321 24.9651 57.2686 24.9651 56.8367 24.9651Z" fill="#D9D9D9"/>
<path d="M59.4281 25.397C59.9707 25.253 61.1263 25.0515 61.4081 25.397C61.6899 25.7425 60.2055 25.5409 59.4281 25.397Z" fill="#D9D9D9"/>
<path d="M57.7869 26.9518C58.6219 27.0094 60.3092 27.1937 60.3783 27.4701C60.4646 27.8156 58.2188 27.211 57.7869 26.9518Z" fill="#D9D9D9"/>
<path d="M56.0593 27.0912C56.6064 27.7015 57.8905 28.8805 58.6507 28.7144C59.4108 28.5482 57.2398 27.563 56.0593 27.0912Z" fill="#D9D9D9"/>
<path d="M55.541 28.5066C55.9729 28.9673 56.7503 29.9405 56.4048 30.1479C56.0593 30.3552 55.685 29.1401 55.541 28.5066Z" fill="#D9D9D9"/>
<path d="M54.4181 27.8156C54.8212 28.6377 55.541 30.307 55.1955 30.407C54.85 30.507 54.5332 28.7211 54.4181 27.8156Z" fill="#D9D9D9"/>
<path d="M52.6905 27.8156C52.2874 28.7082 51.6367 30.5452 52.2586 30.7525C52.8805 30.9598 52.8057 28.881 52.6905 27.8156Z" fill="#D9D9D9"/>
<path d="M51.4812 29.6296C51.1357 30.0039 50.5655 30.7525 51.0493 30.7525C51.533 30.7525 51.5388 30.0039 51.4812 29.6296Z" fill="#D9D9D9"/>
<path d="M51.4812 27.2973C50.4158 27.9596 48.4233 29.4568 48.9762 30.1479C49.529 30.8389 50.8765 28.5354 51.4812 27.2973Z" fill="#D9D9D9"/>
<path d="M49.6672 27.8156C48.9762 28.0172 47.6632 28.5412 47.9396 29.0249C48.216 29.5086 49.2065 28.4203 49.6672 27.8156Z" fill="#D9D9D9"/>
<path d="M42.9246 27.0912C42.9229 27.8782 42.994 28.6151 43.2077 29.0249C44.2129 29.513 45.2479 30.0032 46.2681 30.4778C43.2511 29.0409 42.8895 26.147 43.1189 24.5613C43.0699 24.8954 43.0173 25.3421 42.9791 25.8289C42.9473 26.2357 42.9255 26.6706 42.9246 27.0912Z" fill="#5DB731"/>
<path d="M51.222 34.2316C55.4129 33.6991 59.3596 32.9661 61.4081 32.0079C61.7327 31.3971 62.1049 30.5626 62.4172 29.6296C62.685 28.8296 62.9086 27.9572 63.0204 27.0912C61.1261 32.1091 52.5804 32.1363 48.5443 31.5227C49.9225 32.1474 51.2031 32.7137 52.2586 33.1711C52.0282 33.5102 51.4984 34.1969 51.222 34.2316Z" fill="#57A132"/>
<path d="M63.0204 27.0912C62.9086 27.9572 62.685 28.8296 62.4172 29.6296L64.2483 28.2475L66.0793 26.8654L62.1922 31.7701C63.115 31.4761 64.1102 31.1101 65.1291 30.6738C65.8778 29.3756 67.3405 26.6408 67.2022 26.088C67.064 25.5352 68.0085 25.397 68.4979 25.397C68.7571 25.4158 69.068 26.1906 68.2388 29.1395C68.8262 28.8069 69.4052 28.4515 69.9664 28.0737C70.0816 26.7208 70.191 23.894 69.7073 23.4103C69.1026 22.8056 72.7305 23.1329 71.8667 26.6404C72.3324 26.2444 72.7736 25.8299 73.183 25.397C72.9458 24.0437 72.1259 21.4062 70.7438 21.6827C69.2804 23.5608 65.687 27.2719 63.0204 27.0912Z" fill="#E1C377"/>
<path d="M74.4514 13.4363C72.1768 10.4994 64.034 4.24555 49.6605 2.72527C42.5774 2.00544 27.1154 1.20499 21.9327 3.76183C17.5849 4.91355 8.04282 8.23628 4.65675 12.3134C3.30347 13.9834 1.09791 18.239 3.10192 21.9015C3.91036 17.9703 8.39506 9.64136 19.8663 7.77556C22.4864 7.31487 27.7268 6.30711 27.7268 5.96159C27.7268 5.52969 35.501 4.06124 40.6837 5.27055C42.6417 5.41452 46.9376 5.90976 48.4579 6.739H56.9231C59.6296 7.55864 65.5956 9.62175 67.8069 11.3171C70.0037 12.584 74.7144 16.1544 75.9826 20.3006C76.3726 18.2455 75.9854 15.9527 74.4514 13.4363Z" fill="#4672B1"/>
<path d="M36.9694 21.1644L39.7336 19.264C40.7413 18.9473 42.6532 18.7803 42.2386 20.6461C41.8239 22.5119 38.553 21.769 36.9694 21.1644Z" fill="#E1C377"/>
<path d="M39.388 27.0912C40.5314 27.7023 41.842 28.3617 43.2077 29.0249C42.994 28.6151 42.9229 27.8782 42.9246 27.0912C42.1421 26.4718 40.0694 25.4559 38.039 26.3472C38.4533 26.5844 38.9058 26.8335 39.388 27.0912Z" fill="#E1C377"/>
<path d="M43.123 24.5332C43.1417 24.4093 43.1639 24.2937 43.1887 24.1877H40.511C39.8199 24.6023 36.883 24.5908 35.501 24.5332C35.6306 24.7369 35.9334 25.0009 36.3731 25.3106C37.4399 24.7059 40.2546 23.9631 42.9791 25.8289C43.0173 25.3421 43.0699 24.8954 43.1189 24.5613C43.1202 24.5519 43.1216 24.5425 43.123 24.5332Z" fill="#E1C377"/>
<path d="M30.2318 30.3372C30.5082 30.0741 32.3049 30.0732 33.1687 30.1057C33.1767 29.8322 33.2046 29.5576 33.2492 29.2841C32.2681 28.9385 30.0134 28.403 28.8436 29.0249C29.3086 29.467 29.7739 29.9071 30.2318 30.3372Z" fill="#E1C377"/>
<path d="M36.7658 35.2904C36.4646 35.2873 35.1636 34.1066 34.5508 33.5167C33.8856 32.8989 33.495 32.1908 33.3066 31.4436C32.7999 31.3963 31.7348 31.3507 31.5275 31.5455C32.1074 32.082 32.6607 32.5871 33.1687 33.0421C34.615 34.3375 35.6947 35.2269 35.9808 35.2768L36.0192 35.2776C36.2665 35.283 36.5154 35.2873 36.7658 35.2904Z" fill="#E1C377"/>
<path d="M10.225 28.7144C12.2257 29.9559 14.6496 31.1509 17.534 32.174C18.7219 32.5954 19.988 32.9876 21.3347 33.3419C21.1051 32.9541 20.8594 32.4153 20.6755 31.7891C20.6031 31.5422 20.5402 31.2818 20.4917 31.0117C19.5115 31.2881 18.1115 30.4934 17.534 30.0615C17.3325 30.1534 16.2556 30.1784 13.5606 29.5432C10.8655 28.908 9.38382 25.2475 8.97986 23.4966C8.65326 24.9269 8.53322 27.5201 10.225 28.7144Z" fill="#E1C377"/>
<path d="M23.0223 21.7061C19.1525 25.0921 13.866 24.2111 11.7066 23.3473C9.12847 21.9793 7.76218 20.5429 7.14922 19.2011C7.0847 21.3605 8.37231 25.6795 14.0388 25.6795C16.3135 25.7371 21.3983 25.4377 23.5406 23.7792C25.5014 22.1955 29.2464 18.13 28.5392 14.5366C28.4936 14.726 28.4396 14.9146 28.3778 15.1018C28.3308 15.6577 28.04 16.2393 27.5947 16.8172C26.364 18.9428 24.3784 20.7488 23.0223 21.7061Z" fill="#EACCA1"/>
<path fill-rule="evenodd" clip-rule="evenodd" d="M28.3778 15.1018C28.1842 15.689 27.915 16.2639 27.5947 16.8172C26.1834 18.6489 23.2209 20.4444 21.5538 21.2742C23.4887 20.1685 23.2799 17.7038 22.9336 16.6097C22.9718 17.8408 22.3751 18.9699 21.813 19.633C18.7033 22.0516 14.8738 21.6197 13.3478 21.1014C11.1997 20.2102 10.1214 19.2272 9.74112 18.2509C9.96437 19.1723 10.7391 21.1532 12.0521 21.7061C10.7877 21.604 8.17112 20.7701 7.81948 18.2509C7.81948 16.9264 8.59691 13.8628 11.7066 12.2043C13.2364 11.2253 17.5203 9.0601 22.4176 8.23086C19.1928 8.31724 11.8275 9.61293 8.165 14.1047C7.14859 15.0854 6.15205 17.0181 7.14922 19.2011C7.76218 20.5429 9.12847 21.9793 11.7066 23.3473C13.866 24.2111 19.1525 25.0921 23.0223 21.7061C24.3784 20.7488 26.364 18.9428 27.5947 16.8172C28.04 16.2393 28.3308 15.6577 28.3778 15.1018ZM22.7659 15.6432C22.7489 15.5911 22.7305 15.5389 22.7107 15.4867C22.7387 15.5363 22.7567 15.5886 22.7659 15.6432Z" fill="#EACCA1"/>
<path d="M28.3778 11.3405C28.0611 10.1888 26.4256 7.95444 22.4176 8.23086C17.5203 9.0601 13.2364 11.2253 11.7066 12.2043C8.59691 13.8628 7.81948 16.9264 7.81948 18.2509C8.17112 20.7701 10.7877 21.604 12.0521 21.7061C10.7391 21.1532 9.96437 19.1723 9.74112 18.2509C9.36759 17.292 9.66729 16.3395 10.2878 15.4867C11.044 14.4475 12.2765 13.5563 13.3478 12.9817C15.0754 11.4615 18.6745 12.3483 20.2581 12.9817C21.6352 13.7307 22.3767 14.607 22.7107 15.4867C22.7387 15.5363 22.7567 15.5886 22.7659 15.6432C22.8717 15.968 22.9237 16.2922 22.9336 16.6097C23.2799 17.7038 23.4887 20.1685 21.5538 21.2742C23.2209 20.4444 26.1834 18.6489 27.5947 16.8172C27.915 16.2639 28.1842 15.689 28.3778 15.1018C28.4396 14.9146 28.4936 14.726 28.5392 14.5366C28.7926 13.4833 28.7842 12.4006 28.3778 11.3405Z" fill="#E8E4D6"/>
<path d="M13.3478 21.1014C14.8738 21.6197 18.7033 22.0516 21.813 19.633C22.3751 18.9699 22.9718 17.8408 22.9336 16.6097C22.9237 16.2922 22.8717 15.968 22.7659 15.6432C22.8969 16.426 21.1891 17.6857 20.2581 18.2509C17.6322 15.7943 15.536 18.1487 14.8162 19.633C11.6375 19.633 10.4728 16.8688 10.2878 15.4867C9.66729 16.3395 9.36759 17.292 9.74112 18.2509C10.1214 19.2272 11.1997 20.2102 13.3478 21.1014Z" fill="#CB8E1B"/>
<path d="M20.2581 12.9817C18.6745 12.3483 15.0754 11.4615 13.3478 12.9817C12.2765 13.5563 11.044 14.4475 10.2878 15.4867C10.4728 16.8688 11.6375 19.633 14.8162 19.633C15.536 18.1487 17.6322 15.7943 20.2581 18.2509C21.1891 17.6857 22.8969 16.426 22.7659 15.6432C22.7489 15.5911 22.7305 15.5389 22.7107 15.4867C22.3767 14.607 21.6352 13.7307 20.2581 12.9817Z" fill="#DDAB1C"/>
<path d="M37.7469 18.3659C38.2306 17.8822 41.6339 17.7612 43.2752 17.7612C45.0026 18.5971 46.9585 19.1147 48.1645 19.3593C48.6443 18.7028 43.4924 17.3294 40.8565 16.7247C42.5265 16.955 45.521 17.1911 44.1389 16.2928C42.7569 15.3944 38.0924 15.1322 35.9329 15.1134C33.8764 16.2029 33.7149 18.2579 34.0326 19.4888C34.4356 19.2009 35.0026 18.973 35.5874 18.7988C36.4062 18.5549 37.2597 18.4163 37.7469 18.3659Z" fill="#CD9E4B"/>
<path d="M34.8963 11.0236C35.8465 11.0812 38.006 11.421 39.0426 12.3193C40.7701 12.2618 44.329 12.4057 44.7436 13.4423C46.0681 13.5027 48.838 13.7081 49.3217 14.0469C49.8054 14.3857 50.9053 14.4704 51.3948 14.4704C50.842 13.289 45.7514 11.2772 43.2752 10.419C42.1004 10.419 37.1998 10.8221 34.8963 11.0236Z" fill="#CD9E4B"/>
<path d="M51.3948 14.4704L50.3583 14.8941C51.7116 15.0436 54.5045 15.5845 54.85 16.5519C56.52 16.6092 59.9291 16.9312 60.2055 17.7612C61.2851 17.81 63.3724 17.9633 64.2654 18.2218C63.989 17.7602 61.4436 17.0314 60.2055 16.7247L64.4381 17.1566C63.7488 16.3965 59.0833 15.0904 56.8367 14.5324C55.6778 14.5015 54.4663 14.4841 53.3816 14.4758C52.6413 14.4702 51.9601 14.4689 51.3948 14.4704Z" fill="#CD9E4B"/>
<path d="M51.3948 14.4704C51.9601 14.4689 52.6413 14.4702 53.3816 14.4758C52.4968 11.5335 48.8454 10.5658 45.8665 10.3849C44.8901 10.3257 43.9859 10.351 43.2752 10.419C45.7514 11.2772 50.842 13.289 51.3948 14.4704Z" fill="#C06729"/>
<path fill-rule="evenodd" clip-rule="evenodd" d="M54.85 12.3193C53.3988 10.5525 49.1202 9.45246 47.1622 9.1233C48.401 8.67581 50.4023 8.20113 52.4314 8.20746C55.1667 9.38798 60.7411 11.9738 60.8102 12.3193C60.89 12.7186 56.3202 11.8184 55.3554 11.1755C55.2945 11.1201 55.241 11.0691 55.1955 11.0236C55.2217 11.072 55.2765 11.1229 55.3554 11.1755C55.9114 11.6808 57.0837 12.5503 58.3916 12.924C59.8427 13.3386 59.2842 13.8454 58.8235 14.0469L60.2055 14.6871C59.5954 14.6391 58.852 14.6009 58.0461 14.5707C57.8387 13.6906 55.829 12.7031 54.85 12.3193Z" fill="#CD9E4B"/>
<path d="M58.0461 10.3849C56.7039 8.74637 54.5525 8.21408 52.4314 8.20746C55.1667 9.38798 60.7411 11.9738 60.8102 12.3193C60.89 12.7186 56.3202 11.8184 55.3554 11.1755C55.9114 11.6808 57.0837 12.5503 58.3916 12.924C59.8427 13.3386 59.2842 13.8454 58.8235 14.0469L60.2055 14.6871C60.9069 14.7423 61.4322 14.8104 61.674 14.8941C62.5416 14.9111 63.9247 15.1159 65.2998 15.6709C65.3672 12.6165 60.4921 10.8743 58.0461 10.3849Z" fill="#C06729"/>
<path d="M46.2984 15.3426C45.331 15.3426 41.6915 14.7092 39.9927 14.3924C39.2843 14.3674 38.6534 14.3966 38.0924 14.4704C37.2092 14.5866 36.4992 14.8134 35.9329 15.1134C38.0924 15.1322 42.7569 15.3944 44.1389 16.2928C45.521 17.1911 42.5265 16.955 40.8565 16.7247C43.4924 17.3294 48.6443 18.7028 48.1645 19.3593C48.454 19.418 48.7003 19.461 48.8898 19.4888C50.341 19.1433 52.1434 19.8344 52.8633 20.2663L54.85 18.3659L52.8633 17.1566C51.0964 16.3994 49.5977 15.9385 48.4579 15.6709C47.4133 15.4256 46.6702 15.3426 46.2984 15.3426Z" fill="#C06729"/>
<path d="M64.6109 18.3659C65.9354 18.7114 68.6016 19.5925 68.6707 20.3526C68.8939 19.3492 68.7979 18.2564 68.0934 17.5079C67.302 16.6671 66.3031 16.0758 65.2998 15.6709C63.9247 15.1159 62.5416 14.9111 61.674 14.8941C61.4322 14.8104 60.9069 14.7423 60.2055 14.6871C59.5954 14.6391 58.852 14.6009 58.0461 14.5707C57.655 14.5561 57.2492 14.5434 56.8367 14.5324C59.0833 15.0904 63.7488 16.3965 64.4381 17.1566L60.2055 16.7247C61.4436 17.0314 63.989 17.7602 64.2654 18.2218C64.4204 18.2667 64.5394 18.3147 64.6109 18.3659Z" fill="#C06729"/>
<path d="M39.9927 14.3924C41.6915 14.7092 45.331 15.3426 46.2984 15.3426C46.6702 15.3426 47.4133 15.4256 48.4579 15.6709L50.3583 14.8941L51.3948 14.4704C50.9053 14.4704 49.8054 14.3857 49.3217 14.0469C48.838 13.7081 46.0681 13.5027 44.7436 13.4423C44.329 12.4057 40.7701 12.2618 39.0426 12.3193C38.006 11.421 35.8465 11.0812 34.8963 11.0236L32.996 11.5419C34.0613 12.4001 36.5721 14.1873 38.0924 14.4704C38.6534 14.3966 39.2843 14.3674 39.9927 14.3924Z" fill="#ECD3AF"/>
<path d="M45.8665 10.3849C48.8454 10.5658 52.4968 11.5335 53.3816 14.4758C54.4663 14.4841 55.6778 14.5015 56.8367 14.5324C57.2492 14.5434 57.655 14.5561 58.0461 14.5707C57.8387 13.6906 55.829 12.7031 54.85 12.3193C53.3988 10.5525 49.1202 9.45246 47.1622 9.1233L45.8665 10.3849Z" fill="#ECD3AF"/>
<path d="M52.8633 17.1566L54.85 18.3659V19.3593C55.541 18.9792 57.6717 19.2873 58.6507 19.4888C59.4799 20.8709 62.2786 20.6406 63.5743 20.3526C64.44 20.3526 65.5776 21.1656 66.3928 21.8929C66.7371 22.2 67.3038 22.0819 67.4614 21.6483L68.6707 20.3526C68.6016 19.5925 65.9354 18.7114 64.6109 18.3659C64.5394 18.3147 64.4204 18.2667 64.2654 18.2218C63.3724 17.9633 61.2851 17.81 60.2055 17.7612C59.9291 16.9312 56.52 16.6092 54.85 16.5519C54.5045 15.5845 51.7116 15.0436 50.3583 14.8941L48.4579 15.6709C49.5977 15.9385 51.0964 16.3994 52.8633 17.1566Z" fill="#EBC8AB"/>
<path d="M52.8633 20.2663C52.1434 19.8344 50.341 19.1433 48.8898 19.4888C48.7003 19.461 48.454 19.418 48.1645 19.3593C46.9585 19.1147 45.0026 18.5971 43.2752 17.7612C41.6339 17.7612 38.2306 17.8822 37.7469 18.3659C37.2597 18.4163 36.4062 18.5549 35.5874 18.7988H42.6705C44.1965 19.3167 47.5769 20.3526 48.8898 20.3526C49.4657 20.4102 50.652 20.5599 50.7902 20.6982L52.8633 20.2663Z" fill="#EBC8AB"/>
</svg>
