<svg width="750" height="628" viewBox="0 0 750 628" fill="none" xmlns="http://www.w3.org/2000/svg">
<path d="M381.34 595.525L366.516 593.312L489.576 5.19887L495.131 11.3729L381.34 595.525Z" fill="#1E1A1B" stroke="black" stroke-width="3.574"/>
<path d="M438.19 427.82C438.141 448.035 426.595 442.732 420.829 437.553C415.738 432.622 403.17 424.001 393.626 428.965C384.081 433.929 378.776 432.261 377.316 430.807C375.779 425.798 372.869 412.071 373.525 397.228C373.972 387.127 380.349 383.586 386.474 382.833C382.601 377.218 377.39 364.34 387.529 357.755C397.667 351.169 392.506 338.732 388.658 333.337C388.823 330.214 391.528 325.069 400.306 324.632C397.228 320.318 392.39 309.597 397.664 301.229C402.937 292.861 398.633 286.869 395.822 284.919C394.337 279.365 395.616 268.746 410.341 265.791C405.337 259.231 398.267 244.613 410.027 238.622C421.787 232.63 415.68 219.847 411.157 214.204C413.878 209.57 418.989 202.298 423.61 199.195C419.052 194.852 412.617 184.114 423.35 175.906C424.655 170.253 426.005 158.118 420.967 154.8C422.906 149.802 427.61 142.669 434.179 142.739C431.25 136.876 427.224 124.168 434.553 120.231C430.578 106.769 428.537 83.5788 445.783 82.015C441.653 76.9847 435.691 64.9156 444.889 56.8815C454.086 48.8475 453.6 39.3806 452.208 35.6514C453.079 26.1608 458.623 9.85965 473.825 20.5798C489.026 31.3 498.861 30.06 501.879 28.1C510.086 26.2108 523.993 27.7624 513.964 49.0824C503.935 70.4024 509.537 78.7213 513.593 80.2158C512.62 85.9472 508.914 97.2954 501.867 96.8367C512.389 98.7263 519.247 105.565 499.063 123.635C501.326 137.21 502.749 162.048 490.335 152.797C491.731 154.666 493.068 156.776 494.328 159.148C495.298 164.868 495.897 178.208 490.537 185.809C488.912 191.498 487.006 202.725 492.379 202.118C492.744 205.358 490.179 211.895 476.992 212.131C483.158 215.686 487.174 222.614 476.549 234.026C475.053 232.251 472.776 235.034 475.636 260.362C476.895 265.776 477.47 276.6 469.694 276.579C474.749 281.19 480.47 292.851 462.917 302.606C462.432 309.786 462.338 325.018 465.842 328.509C464.851 331.212 461.336 336.79 455.196 337.484C462.648 355.297 460.395 363.454 458.337 365.306C456.707 368.081 454.218 375.292 457.3 381.94C456.959 385.865 453.406 392.873 441.919 389.506C448.066 395.531 448.923 406.396 448.186 413.089C444.875 409.576 438.24 407.605 438.19 427.82Z" fill="#F9AA2A"/>
<path d="M386.474 382.833C389.348 382.48 392.167 382.74 394.291 383.225C397.386 384.818 408.372 387.464 427.56 385.298C434.115 384.558 438.729 386.38 441.919 389.506M386.474 382.833C380.349 383.586 373.972 387.127 373.525 397.228C372.869 412.071 375.779 425.798 377.316 430.807C378.776 432.261 384.081 433.929 393.626 428.965C403.17 424.001 415.738 432.622 420.829 437.553C426.595 442.732 438.141 448.035 438.19 427.82C438.24 407.605 444.875 409.576 448.186 413.089C448.923 406.396 448.066 395.531 441.919 389.506M386.474 382.833C382.601 377.218 377.39 364.34 387.529 357.755C397.667 351.169 392.506 338.732 388.658 333.337C388.823 330.214 391.528 325.069 400.306 324.632M455.196 337.484C447.743 319.67 432.593 318.013 425.95 319.41C426.311 322.608 423.258 328.265 408.155 325.306C405.116 324.711 402.518 324.522 400.306 324.632M455.196 337.484C462.648 355.297 460.395 363.454 458.337 365.306C456.707 368.081 454.218 375.292 457.3 381.94C456.959 385.865 453.406 392.873 441.919 389.506M455.196 337.484C461.336 336.79 464.851 331.212 465.842 328.509C462.338 325.018 462.432 309.786 462.917 302.606C480.47 292.851 474.749 281.19 469.694 276.579M400.306 324.632C397.228 320.318 392.39 309.597 397.664 301.229C402.937 292.861 398.633 286.869 395.822 284.919C394.337 279.365 395.616 268.746 410.341 265.791M469.694 276.579C455.879 278.139 451.848 273.412 451.559 270.853C448.712 268.584 437.793 264.246 416.898 265.051C414.462 265.145 412.284 265.401 410.341 265.791M469.694 276.579C477.469 276.6 476.895 265.776 475.636 260.362C472.776 235.034 475.053 232.251 476.549 234.026C487.174 222.614 483.158 215.686 476.992 212.131M410.341 265.791C405.337 259.231 398.267 244.613 410.027 238.622C421.787 232.63 415.68 219.847 411.157 214.204C413.878 209.57 418.989 202.298 423.61 199.195M423.61 199.195C425.908 197.653 428.085 197.141 429.787 198.498C435.487 205.951 451.488 218.589 469.895 209.515C472.133 209.962 474.71 210.816 476.992 212.131M423.61 199.195C419.052 194.852 412.617 184.114 423.35 175.906C424.655 170.253 426.005 158.118 420.967 154.8C422.906 149.802 427.61 142.669 434.179 142.739M476.992 212.131C490.179 211.895 492.744 205.358 492.379 202.119C487.006 202.725 488.912 191.498 490.537 185.809C495.897 178.208 495.298 164.868 494.328 159.148C493.068 156.776 491.731 154.666 490.335 152.797M434.179 142.739C436.958 142.768 440.071 144.087 443.45 147.403C453.322 140.363 475.323 132.712 490.335 152.797M434.179 142.739C431.25 136.876 427.224 124.168 434.553 120.231C430.578 106.769 428.537 83.5788 445.783 82.015M490.335 152.797C502.749 162.048 501.326 137.21 499.063 123.635C519.247 105.565 512.389 98.7263 501.867 96.8367M445.783 82.015C449.015 81.722 452.924 82.1883 457.624 83.6202C466.619 85.8432 485.913 91.5024 491.125 96.355C494.547 96.129 498.405 96.215 501.867 96.8367M445.783 82.015C441.653 76.9847 435.691 64.9156 444.889 56.8815C454.086 48.8475 453.6 39.3806 452.208 35.6514C453.079 26.1608 458.623 9.85965 473.825 20.5798C489.026 31.3 498.861 30.06 501.879 28.1C510.086 26.2108 523.993 27.7624 513.964 49.0824C503.935 70.4024 509.537 78.7213 513.593 80.2158C512.62 85.9472 508.914 97.2954 501.867 96.8367" stroke="#9E4A1C" stroke-width="0.965472"/>
<path d="M442.444 362.242C437.493 359.692 421.761 362.634 414.514 364.424C422.103 362.79 441.194 371.25 449.792 375.684L449.253 353.7L442.444 362.242Z" fill="#FFC77C"/>
<path d="M452.579 314.37C451.778 311.023 427.191 307.459 414.89 306.085C441.26 291.487 450.986 305.471 452.579 314.37C452.586 314.399 452.592 314.429 452.595 314.459C452.59 314.429 452.585 314.399 452.579 314.37Z" fill="#FFC77C"/>
<path d="M465.515 265.391C465.255 263.089 441.225 253.56 429.242 249.083C437.856 245.778 451.236 247.571 456.85 248.881C456.243 243.508 463.334 237.461 466.954 235.109C463.377 237.845 464.504 256.437 465.515 265.391Z" fill="#FFC77C"/>
<path d="M482.66 193.5C479.838 189.155 456.881 186.047 445.755 185.036C453.764 180.245 470.982 181.863 478.59 183.272L484.873 178.676L482.66 193.5Z" fill="#FFC77C"/>
<path d="M488.817 139.366C488.384 135.529 465.757 128.044 454.497 124.781C460.885 119.396 477.069 126.766 484.362 131.125L490.536 125.57L488.817 139.366Z" fill="#FFC77C"/>
<path d="M494.157 62.9781C478.93 47.597 463.291 57.3947 457.375 64.2161C487.32 67.8307 496.034 79.6073 496.648 85.0437C498.95 84.7837 505.921 78.1489 509.119 74.8639C508.286 72.344 507.993 68.8702 508.808 64.2387C509.17 61.0886 499.191 62.0857 494.157 62.9781Z" fill="#FFC77C"/>
<path d="M382.298 414.698C383.972 418.975 388.424 425.072 393.69 418.27M393.69 418.27C394.152 417.672 394.621 416.975 395.095 416.168L393.69 418.27ZM385.362 398.807C389.055 397.094 397.552 394.904 401.997 399.843C406.441 404.783 416.784 401.736 421.401 399.596C425.452 397.717 433.635 395.322 437.603 398.738M437.603 398.738C438.156 399.214 438.628 399.804 438.994 400.524L437.603 398.738ZM390.205 364.254C390.504 366.9 392.825 371.454 399.625 370.236M399.625 370.236C400.221 370.129 400.851 369.978 401.517 369.778L399.625 370.236ZM399.118 339.929C402.074 343.158 412.63 347.731 431.211 340.192C436.313 339.616 446.142 340.338 449.034 346.924M449.034 346.924C449.405 347.768 449.661 348.708 449.779 349.754L449.034 346.924ZM403.327 308.362C403.094 311.811 404.466 317.291 411.599 312.787M411.599 312.787C411.891 312.603 412.192 312.402 412.503 312.184L411.599 312.787ZM406.7 286.606C410.213 283.295 422.041 279.627 441.253 291.449C443.964 292.924 449.343 295.017 453.217 294.148M453.217 294.148C454.275 293.911 455.22 293.454 455.969 292.702L453.217 294.148ZM415.69 245.755C415.972 248.251 417.525 252.575 421.477 253.984M421.477 253.984C422.589 254.38 423.891 254.545 425.408 254.374L421.477 253.984ZM426.831 215.349C434.983 221.847 453.865 232.444 466.827 225.368M466.827 225.368C467.446 225.03 468.051 224.652 468.641 224.231L466.827 225.368ZM426.986 182.297C426.457 185.217 427.225 190.214 433.636 189.567M433.636 189.567C434.484 189.482 435.431 189.298 436.487 188.997L433.636 189.567ZM433.129 159.256C435.3 161.278 445.889 163.84 470.869 157.91C475.641 157.371 484.606 158.556 484.841 167.02M484.841 167.02C484.858 167.633 484.829 168.283 484.749 168.974L484.841 167.02ZM439.256 127.473C439.549 130.064 441.433 134.206 446.591 132.201M446.591 132.201C447.164 131.978 447.777 131.68 448.432 131.295L446.591 132.201ZM442.63 105.717C445.75 101.802 456.41 96.9711 474.088 108.966C476.537 110.919 482.309 113.839 488.051 112.164M488.051 112.164C488.983 111.893 489.914 111.5 490.83 110.962L488.051 112.164ZM452.471 63.7983C452.54 66.9746 454.033 72.6805 459.219 72.7525M459.219 72.7525C459.835 72.761 460.504 72.6899 461.229 72.5255L459.219 72.7525ZM463.72 34.3516C470.374 38.7823 485.024 47.4919 490.397 46.8853C493.526 46.1031 498.717 44.7187 501.842 43.6499M501.842 43.6499C503.436 43.1047 504.492 42.6416 504.463 42.3824L501.842 43.6499Z" stroke="#A14C1D" stroke-width="2.89641" stroke-linecap="round"/>
<path d="M344.551 593.891L330.728 597.754L226.565 2.90332L234.757 10.2566L344.551 593.891Z" fill="#171415" stroke="black" stroke-width="1.93094"/>
<ellipse cx="237.136" cy="58.8183" rx="41.5153" ry="43.4462" transform="rotate(4.03731 237.136 58.8183)" fill="url(#paint0_radial_315_5)"/>
<ellipse cx="257.44" cy="155.103" rx="41.5153" ry="43.4462" transform="rotate(4.03731 257.44 155.103)" fill="url(#paint1_radial_315_5)"/>
<ellipse cx="276.363" cy="243.547" rx="41.5153" ry="43.4462" transform="rotate(4.03731 276.363 243.547)" fill="url(#paint2_radial_315_5)"/>
<ellipse cx="287.58" cy="331.448" rx="41.5153" ry="43.4462" transform="rotate(4.03731 287.58 331.448)" fill="url(#paint3_radial_315_5)"/>
<ellipse cx="306.503" cy="419.892" rx="41.5153" ry="43.4462" transform="rotate(4.03731 306.503 419.892)" fill="url(#paint4_radial_315_5)"/>
<path d="M300.262 617.936L286.745 625.66L23.1714 84.0305H30.8952L300.262 617.936Z" fill="#171415" stroke="black" stroke-width="1.93094"/>
<path d="M73.3758 99.4781C45.5703 102.568 12.873 124.58 0 135.201C10.0409 168.413 29.9296 197.956 38.6189 208.576C69.5139 207.804 102.34 185.727 114.891 174.785L73.3758 99.4781Z" fill="#A83034"/>
<path d="M38.6191 208.576C69.5142 207.804 102.34 185.727 114.891 174.785L77.1018 106.236L100.409 168.027C87.8582 174.463 57.9286 191.584 38.6191 208.576Z" fill="#582723"/>
<path d="M119.718 197.956C91.9125 201.046 59.2152 223.058 46.3423 233.679C56.3832 266.891 76.2719 296.434 84.9611 307.054C115.856 306.282 148.682 284.205 161.233 273.263L119.718 197.956Z" fill="#A83034"/>
<path d="M84.9614 307.054C115.857 306.282 148.683 284.205 161.234 273.263L123.444 204.714L146.752 266.505C134.2 272.941 104.271 290.062 84.9614 307.054Z" fill="#582723"/>
<path d="M177.647 286.78C149.841 289.869 117.144 311.882 104.271 322.502C114.312 355.714 134.201 385.258 142.89 395.878C173.785 395.105 206.611 373.028 219.162 362.086L177.647 286.78Z" fill="#A83034"/>
<path d="M142.89 395.878C173.785 395.105 206.611 373.028 219.162 362.086L181.372 293.538L204.68 355.328C192.129 361.764 162.199 378.885 142.89 395.878Z" fill="#582723"/>
<path d="M223.99 383.327C196.184 386.416 163.487 408.429 150.614 419.049C160.655 452.261 180.543 481.805 189.233 492.425C220.128 491.653 252.954 469.575 265.505 458.633L223.99 383.327Z" fill="#A83034"/>
<path d="M189.232 492.425C220.128 491.652 252.954 469.575 265.505 458.633L227.715 390.085L251.023 451.875C238.471 458.312 208.542 475.433 189.232 492.425Z" fill="#582723"/>
<path d="M461.289 607.816L450.896 602.801L576.696 49.2139L582.625 54.9191L461.289 607.816Z" fill="#241F1C" stroke="black" stroke-width="1.93094"/>
<path d="M481.567 423.591C474.909 438.01 483.253 446.445 488.257 448.86C515.35 450.558 522.017 417.277 521.964 400.425C530.843 393.902 544.697 339.585 550.514 313.242C555.285 309.856 569.008 252.015 575.273 223.518C588.341 190.009 590.303 111.326 589.651 76.173C587.195 59.6306 577.091 60.3953 572.346 62.8454C548.135 68.7947 523.684 168.526 514.485 217.648C503.194 233.813 497.986 291.687 496.794 318.603C481.767 344.91 483.987 375.701 486.976 387.808C473.837 403.081 477.896 418.027 481.567 423.591Z" fill="#F8C47F"/>
<path d="M509.783 411.843C511.099 411.245 512.296 410.492 513.29 409.549L509.783 411.843Z" fill="#FFE5BE"/>
<path d="M516.983 375.271C518.223 374.683 519.388 373.893 520.449 372.866L516.983 375.271Z" fill="#FFE5BE"/>
<path d="M516.313 340.44C517.076 341.348 517.689 342.346 518.101 343.44L516.313 340.44Z" fill="#FFE5BE"/>
<path d="M521.952 316.539C520.744 316.644 519.586 316.687 518.498 316.654L521.952 316.539Z" fill="#FFE5BE"/>
<path d="M550.38 294.534C542.278 302.731 517.327 301.175 505.864 299.372C517.681 314.023 540.551 307.118 550.509 301.834L550.38 294.534Z" fill="#FFE5BE"/>
<path d="M561.957 262.615C546.123 278.136 522.024 268.787 511.953 262.173C533.2 265.187 553.855 258.321 561.526 254.511L561.957 262.615Z" fill="#FFE5BE"/>
<path d="M571.171 205.869L521.28 217.325L521.408 224.625L571.171 205.869Z" fill="#FFE5BE"/>
<path d="M531.213 174.085C540.39 173.688 560.431 171.34 567.18 165.122C558.004 165.519 537.963 167.867 531.213 174.085Z" fill="#FFE5BE"/>
<path d="M559.295 100.124L581.944 95.2616L581.913 104.458L559.295 100.124Z" fill="#FFE5BE"/>
<path d="M492.938 413.546C496.68 414.112 504.28 414.341 509.783 411.843M509.783 411.843C511.099 411.245 512.296 410.492 513.29 409.549L509.783 411.843ZM489.266 369.005C495.206 373.219 508.042 379.51 516.983 375.271M516.983 375.271C518.223 374.683 519.388 373.893 520.449 372.866L516.983 375.271ZM540.416 346.97C534.478 348.948 522.041 352.758 513.479 354.375C511.96 354.662 510.563 354.88 509.346 355.007M498.258 332.549C502.907 333.055 512.001 335.307 516.313 340.44M516.313 340.44C517.076 341.348 517.689 342.346 518.101 343.44L516.313 340.44ZM547.271 309.483C542.143 311.686 530.759 315.772 521.952 316.539M521.952 316.539C520.744 316.644 519.586 316.687 518.498 316.654L521.952 316.539ZM550.205 120.083L563.203 124.411L565.202 125.077L569.202 126.409L572.201 127.407M505.864 299.372C517.327 301.175 542.278 302.731 550.38 294.534L550.509 301.834C540.551 307.118 517.681 314.023 505.864 299.372ZM511.953 262.173C522.024 268.787 546.123 278.136 561.957 262.615L561.526 254.511C553.855 258.321 533.2 265.187 511.953 262.173ZM521.28 217.325L571.171 205.869L521.408 224.625L521.28 217.325ZM531.213 174.085C540.39 173.688 560.431 171.34 567.18 165.122C558.004 165.519 537.963 167.867 531.213 174.085ZM581.944 95.2616L559.295 100.124L581.913 104.458L581.944 95.2616Z" stroke="#FFE5BE" stroke-width="3.574" stroke-linecap="round"/>
<defs>
<radialGradient id="paint0_radial_315_5" cx="0" cy="0" r="1" gradientUnits="userSpaceOnUse" gradientTransform="translate(227.481 62.6802) rotate(-8.1301) scale(47.7884 45.6645)">
<stop offset="0.313697" stop-color="#C66B3C"/>
<stop offset="0.822245" stop-color="#8A3B1C"/>
</radialGradient>
<radialGradient id="paint1_radial_315_5" cx="0" cy="0" r="1" gradientUnits="userSpaceOnUse" gradientTransform="translate(247.785 158.965) rotate(-8.1301) scale(47.7884 45.6645)">
<stop offset="0.313697" stop-color="#C66B3C"/>
<stop offset="0.822245" stop-color="#8A3B1C"/>
</radialGradient>
<radialGradient id="paint2_radial_315_5" cx="0" cy="0" r="1" gradientUnits="userSpaceOnUse" gradientTransform="translate(266.708 247.409) rotate(-8.1301) scale(47.7884 45.6645)">
<stop offset="0.313697" stop-color="#C66B3C"/>
<stop offset="0.822245" stop-color="#8A3B1C"/>
</radialGradient>
<radialGradient id="paint3_radial_315_5" cx="0" cy="0" r="1" gradientUnits="userSpaceOnUse" gradientTransform="translate(277.926 335.309) rotate(-8.1301) scale(47.7884 45.6645)">
<stop offset="0.313697" stop-color="#C66B3C"/>
<stop offset="0.822245" stop-color="#8A3B1C"/>
</radialGradient>
<radialGradient id="paint4_radial_315_5" cx="0" cy="0" r="1" gradientUnits="userSpaceOnUse" gradientTransform="translate(296.848 423.754) rotate(-8.1301) scale(47.7884 45.6645)">
<stop offset="0.313697" stop-color="#C66B3C"/>
<stop offset="0.822245" stop-color="#8A3B1C"/>
</radialGradient>
</defs>
</svg>
