<svg width="82" height="18" viewBox="0 0 82 18" fill="none" xmlns="http://www.w3.org/2000/svg">
<path d="M8 0L6.20389 6.21885H0.391548L5.09383 10.0623L3.29772 16.2812L8 12.4377L12.7023 16.2812L10.9062 10.0623L15.6085 6.21885H9.79611L8 0Z" fill="#FFCE1F"/>
<path d="M24 0L22.2039 6.21885H16.3915L21.0938 10.0623L19.2977 16.2812L24 12.4377L28.7023 16.2812L26.9062 10.0623L31.6085 6.21885H25.7961L24 0Z" fill="#FFCE1F"/>
<path d="M40.5 0L38.5916 6.21885H32.416L37.4122 10.0623L35.5038 16.2812L40.5 12.4377L45.4962 16.2812L43.5878 10.0623L48.584 6.21885H42.4084L40.5 0Z" fill="#FFCE1F"/>
<path d="M57 0L55.2039 6.21885H49.3915L54.0938 10.0623L52.2977 16.2812L57 12.4377L61.7023 16.2812L59.9062 10.0623L64.6085 6.21885H58.7961L57 0Z" fill="#FFCE1F"/>
<path d="M73.5 0L71.5916 6.21885H65.416L70.4122 10.0623L68.5038 16.2812L73.5 12.4377L78.4962 16.2812L76.5878 10.0623L81.584 6.21885H75.4084L73.5 0Z" fill="#B3B4BB"/>
</svg>
