<svg width="15" height="16" viewBox="0 0 15 16" fill="none" xmlns="http://www.w3.org/2000/svg">
<path d="M13.5564 10.8751L11.4731 10.6401C11.2282 10.6117 10.9799 10.6385 10.7469 10.7185C10.5139 10.7985 10.3024 10.9296 10.1281 11.102L8.61894 12.5929C6.29063 11.423 4.39817 9.55344 3.21402 7.25327L4.73134 5.75429C5.08401 5.40588 5.25624 4.91973 5.19883 4.42547L4.96098 2.38362C4.91448 1.98836 4.72247 1.62379 4.42151 1.35933C4.12054 1.09487 3.73164 0.948991 3.32885 0.949464H1.90995C0.983162 0.949464 0.212203 1.71111 0.269614 2.6267C0.704304 9.5463 6.30606 15.0723 13.3021 15.5017C14.2289 15.5584 14.9999 14.7968 14.9999 13.8812V12.4794C15.0081 11.6611 14.3847 10.9724 13.5564 10.8751Z" fill="#565656"/>
</svg>
