<svg width="101" height="77" viewBox="0 0 101 77" fill="none" xmlns="http://www.w3.org/2000/svg">
<path d="M14.2823 22.3895C10.7375 21.4457 7.33855 24.5974 5.76309 26.8578V26.8578C-2.6496 35.2705 9.45613 47.8475 18.5518 55.5166C20.0095 56.7456 21.529 58.0032 23.076 59.2653C35.282 69.2241 50.8316 80.1337 62.7369 69.8174C63.0982 69.5043 63.4363 69.1983 63.7483 68.904C64.5863 68.066 65.0667 67.2321 65.2874 66.4307M14.2823 22.3895V22.3895C17.1472 23.1524 19.0241 25.8667 21.342 27.7153L56.4468 55.713M14.2823 22.3895C12.267 20.2148 9.44557 14.6562 14.2823 9.81948C18.496 5.5141 28.8473 -1.17299 36.542 6.52174C37.8608 7.45456 39.3438 8.51539 40.939 9.67029M73.9164 37.3006C74.2054 38.7456 74.1411 41.3301 72.2675 42.3579M73.9164 37.3006C75.6271 39.1825 78.3603 43.3967 76.5666 46.0946M73.9164 37.3006C71.3929 32.4477 52.9724 18.3823 40.939 9.67029M72.2675 42.3579C71.7655 42.6332 71.1336 42.7969 70.3438 42.7969C66.0384 43.0717 57.4826 45.49 57.7025 52.9649C59.198 53.9619 63.904 53.9642 71.4922 47.0659C73.126 45.5806 74.4727 42.4688 72.2675 42.3579V42.3579ZM56.4468 55.713L62.6491 60.6596C63.5812 61.3121 64.7599 62.5242 65.2298 64.0208M56.4468 55.713V55.713C59.9365 56.775 64.4202 55.6653 67.5026 53.7147C70.7059 51.6874 74.1655 48.5936 76.1149 46.6442C76.2895 46.4696 76.4395 46.2859 76.5666 46.0946M65.2874 66.4307C66.5198 67.4577 69.7193 68.7726 73.1825 66.4307M65.2874 66.4307C65.5218 65.5796 65.4634 64.765 65.2298 64.0208M76.5666 46.0946L82.1607 51.316C82.8467 51.806 83.3361 52.3688 83.6734 52.9649M73.1825 66.4307C73.426 66.266 73.6708 66.0832 73.9164 65.881C76.3897 64.507 81.776 61.1543 83.5348 58.7359C83.757 58.3161 83.9833 57.7432 84.1349 57.0871M73.1825 66.4307V66.4307C68.0721 66.8508 70.2825 60.6659 74.433 57.6549C76.8689 55.8878 79.2021 54.5436 80.237 54.8886C81.9255 55.7773 82.7691 58.8213 73.1825 64.0208M73.1825 64.0208C72.8875 64.1808 72.5826 64.3429 72.2675 64.507L73.1825 64.0208ZM40.939 9.67029C44.9695 7.52153 54.1299 4.26829 58.5269 8.44543C63.6831 13.1172 74.5097 22.7356 76.5666 23.8349C83.4696 28.0487 97.3853 38.1251 97.825 44.7206C98.1914 45.4534 98.5945 47.4687 97.2754 49.6672C95.9013 51.2733 92.1089 55.0058 87.9318 57.0871C87.0494 57.5451 85.0547 58.1863 84.1349 57.0871M84.1349 57.0871C84.4204 55.8519 84.4414 54.3222 83.6734 52.9649M83.6734 52.9649C85.6425 49.8504 90.3501 43.7312 93.428 44.1709C96.6539 43.971 99.9324 45.5337 87.9318 53.2638M87.9318 53.2638C87.6646 53.4359 87.3898 53.6111 87.1073 53.7893L87.9318 53.2638ZM65.2298 64.0208C62.2627 62.7172 54.9544 62.0886 49.4581 70.0032C47.6759 72.8548 47.4367 76.2959 60.1758 67.9804M60.1758 67.9804C60.532 67.7479 60.8983 67.5063 61.275 67.2551L60.1758 67.9804Z" stroke="#5F9837" stroke-width="4.82621"/>
<path d="M14.2824 22.3895C12.2671 20.2148 9.44572 14.6562 14.2824 9.81948C18.4962 5.5141 28.8474 -1.17299 36.5421 6.52174C37.861 7.45456 39.3439 8.51539 40.9391 9.67029C52.9726 18.3823 71.393 32.4477 73.9165 37.3006C75.6273 39.1825 78.3605 43.3967 76.5668 46.0946C76.4396 46.2859 76.2897 46.4696 76.115 46.6442C74.1657 48.5936 70.7061 51.6874 67.5027 53.7147C64.4204 55.6653 59.9367 56.775 56.447 55.713L21.3422 27.7153C19.0243 25.8667 17.1474 23.1524 14.2824 22.3895Z" fill="url(#paint0_radial_2_378)"/>
<path d="M73.9165 37.3006C74.2055 38.7456 74.1412 41.3301 72.2676 42.3579M73.9165 37.3006C75.6273 39.1825 78.3605 43.3967 76.5668 46.0946C76.4396 46.2859 76.2897 46.4696 76.115 46.6442C74.1657 48.5936 70.7061 51.6874 67.5027 53.7147C64.4204 55.6653 59.9367 56.775 56.447 55.713V55.713L21.3422 27.7153C19.0243 25.8667 17.1474 23.1524 14.2824 22.3895V22.3895C12.2671 20.2148 9.44572 14.6562 14.2824 9.81948C18.4962 5.5141 28.8474 -1.17299 36.5421 6.52174C37.8609 7.45456 39.3439 8.51539 40.9391 9.67029C52.9726 18.3823 71.393 32.4477 73.9165 37.3006ZM72.2676 42.3579C71.7656 42.6332 71.1337 42.7969 70.344 42.7969C66.0386 43.0717 57.4828 45.49 57.7026 52.9649C59.1982 53.9619 63.9041 53.9642 71.4924 47.0659C73.1262 45.5806 74.4729 42.4688 72.2676 42.3579V42.3579Z" stroke="#5F9837" stroke-width="4.82621"/>
<path d="M76.5669 46.0947C78.3606 43.3968 75.6274 39.1825 73.9166 37.3007C71.3931 32.4478 52.9726 18.3824 40.9392 9.67034C44.9698 7.52158 54.1302 4.26834 58.5271 8.44547C63.6833 13.1173 74.51 22.7357 76.5669 23.8349C83.4698 28.0487 97.3855 38.1251 97.8252 44.7206C98.1916 45.4534 98.5947 47.4687 97.2756 49.6672C95.9015 51.2733 92.1091 55.0058 87.932 57.0871C87.0496 57.5451 85.055 58.1864 84.1352 57.0871C84.4206 55.852 84.4416 54.3223 83.6736 52.965C83.3364 52.3689 82.8469 51.8061 82.1609 51.3161L76.5669 46.0947Z" fill="url(#paint1_radial_2_378)"/>
<path d="M83.6736 52.965C84.4416 54.3223 84.4206 55.852 84.1352 57.0871C85.055 58.1864 87.0496 57.5451 87.932 57.0871C92.1091 55.0058 95.9015 51.2733 97.2756 49.6672C98.5947 47.4687 98.1916 45.4534 97.8252 44.7206C97.3855 38.1251 83.4698 28.0487 76.5669 23.8349C74.51 22.7357 63.6833 13.1173 58.5271 8.44547C54.1302 4.26834 44.9698 7.52158 40.9392 9.67034C52.9726 18.3824 71.3931 32.4478 73.9166 37.3007C75.6274 39.1825 78.3606 43.3968 76.5669 46.0947L82.1609 51.3161C82.8469 51.8061 83.3364 52.3689 83.6736 52.965ZM83.6736 52.965C85.6427 49.8504 90.3503 43.7313 93.4282 44.171C96.6541 43.9711 99.9326 45.5337 87.932 53.2639M87.932 53.2639C87.6648 53.436 87.3901 53.6111 87.1076 53.7894L87.932 53.2639Z" stroke="#5F9837" stroke-width="4.82621"/>
<path d="M67.5025 53.7146C70.7059 51.6873 74.1655 48.5935 76.1148 46.6441C76.2895 46.4695 76.4394 46.2858 76.5666 46.0945L82.1607 51.3159C82.8467 51.8059 83.3361 52.3687 83.6734 52.9648C84.4414 54.3221 84.4204 55.8518 84.1349 57.087C83.9833 57.7431 83.757 58.316 83.5347 58.7358C81.7759 61.1542 76.3896 64.5069 73.9163 65.8809C73.6708 66.0831 73.426 66.2659 73.1825 66.4306C69.7192 68.7725 66.5198 67.4576 65.2873 66.4306C65.5217 65.5795 65.4634 64.7649 65.2297 64.0207C64.7599 62.5241 63.5812 61.312 62.6491 60.6595L56.4468 55.7129C59.9365 56.7749 64.4202 55.6652 67.5025 53.7146Z" fill="url(#paint2_linear_2_378)"/>
<path d="M73.1825 66.4306C69.7192 68.7725 66.5198 67.4576 65.2873 66.4306C65.5217 65.5795 65.4634 64.7649 65.2297 64.0207C64.7599 62.5241 63.5812 61.312 62.6491 60.6595L56.4468 55.7129V55.7129C59.9365 56.7749 64.4202 55.6652 67.5025 53.7146C70.7059 51.6873 74.1655 48.5935 76.1148 46.6441C76.2895 46.4695 76.4394 46.2858 76.5666 46.0945L82.1607 51.3159C82.8467 51.8059 83.3361 52.3687 83.6734 52.9648C84.4414 54.3221 84.4204 55.8518 84.1349 57.087C83.9833 57.7431 83.757 58.316 83.5347 58.7358C81.7759 61.1542 76.3896 64.5069 73.9163 65.8809C73.6708 66.0831 73.426 66.2659 73.1825 66.4306ZM73.1825 66.4306V66.4306C68.0721 66.8507 70.2825 60.6658 74.433 57.6548C76.8688 55.8877 79.202 54.5435 80.237 54.8885C81.9255 55.7772 82.7691 58.8212 73.1825 64.0207M73.1825 64.0207C72.8874 64.1807 72.5825 64.3428 72.2675 64.5069L73.1825 64.0207Z" stroke="#5F9837" stroke-width="4.82621"/>
<path d="M63.7483 68.9038C63.4363 69.1981 63.0982 69.5041 62.7369 69.8172C50.8316 80.1336 35.282 69.2239 23.076 59.2652C21.529 58.003 20.0095 56.7454 18.5518 55.5164C9.45613 47.8473 -2.6496 35.2703 5.76309 26.8576C7.33855 24.5972 10.7375 21.4455 14.2823 22.3894C17.1472 23.1522 19.0241 25.8665 21.342 27.7152L56.4468 55.7128L62.6491 60.6594C63.5812 61.3119 64.7599 62.524 65.2298 64.0206C65.4634 64.7648 65.5218 65.5794 65.2874 66.4305C65.0667 67.2319 64.5863 68.0658 63.7483 68.9038Z" fill="url(#paint3_radial_2_378)"/>
<path d="M65.2298 64.0206C64.7599 62.524 63.5812 61.3119 62.6491 60.6594L56.4468 55.7128L21.342 27.7152C19.0241 25.8665 17.1472 23.1522 14.2823 22.3894V22.3894C10.7375 21.4455 7.33855 24.5972 5.76309 26.8576V26.8576C-2.6496 35.2703 9.45613 47.8473 18.5518 55.5164C20.0095 56.7454 21.529 58.003 23.076 59.2652C35.282 69.2239 50.8316 80.1336 62.7369 69.8172C63.0982 69.5041 63.4363 69.1981 63.7483 68.9038C64.5863 68.0658 65.0667 67.2319 65.2874 66.4305C65.5218 65.5794 65.4634 64.7648 65.2298 64.0206ZM65.2298 64.0206C62.2627 62.717 54.9544 62.0885 49.4581 70.003C47.6759 72.8546 47.4367 76.2957 60.1758 67.9803M60.1758 67.9803C60.532 67.7478 60.8983 67.5061 61.275 67.2549L60.1758 67.9803Z" stroke="#5F9837" stroke-width="4.82621"/>
<circle cx="0.549623" cy="0.549623" r="0.549623" transform="matrix(1 0 0 -1 66.7715 37.8503)" fill="#A4BE59"/>
<circle cx="0.549623" cy="0.549623" r="0.549623" transform="matrix(1 0 0 -1 55.7791 42.2473)" fill="#A4BE59"/>
<circle cx="0.549623" cy="0.549623" r="0.549623" transform="matrix(1 0 0 -1 50.2827 26.3081)" fill="#A4BE59"/>
<circle cx="0.549623" cy="0.549623" r="0.549623" transform="matrix(1 0 0 -1 32.6946 30.1556)" fill="#A4BE59"/>
<circle cx="0.549623" cy="0.549623" r="0.549623" transform="matrix(1 0 0 -1 28.8474 57.6367)" fill="#A4BE59"/>
<circle cx="0.549623" cy="0.549623" r="0.549623" transform="matrix(1 0 0 -1 18.9541 46.6444)" fill="#A4BE59"/>
<circle cx="0.549623" cy="0.549623" r="0.549623" transform="matrix(1 0 0 -1 29.9465 45.5449)" fill="#A4BE59"/>
<circle cx="0.549623" cy="0.549623" r="0.549623" transform="matrix(1 0 0 -1 54.6799 51.5908)" fill="#A4BE59"/>
<circle cx="0.549623" cy="0.549623" r="0.549623" transform="matrix(1 0 0 -1 53.5803 60.9346)" fill="#A4BE59"/>
<circle cx="0.549623" cy="0.549623" r="0.549623" transform="matrix(1 0 0 -1 43.1375 64.7817)" fill="#A4BE59"/>
<circle cx="0.549623" cy="0.549623" r="0.549623" transform="matrix(1 0 0 -1 15.6565 31.8044)" fill="#5F9837"/>
<circle cx="0.549623" cy="0.549623" r="0.549623" transform="matrix(1 0 0 -1 83.8101 46.6444)" fill="#5F9837"/>
<circle cx="0.549623" cy="0.549623" r="0.549623" transform="matrix(1 0 0 -1 84.9089 38.3998)" fill="#5F9837"/>
<circle cx="0.549623" cy="0.549623" r="0.549623" transform="matrix(1 0 0 -1 77.2144 36.7511)" fill="#5F9837"/>
<circle cx="0.549623" cy="0.549623" r="0.549623" transform="matrix(1 0 0 -1 55.7791 12.5675)" fill="#5F9837"/>
<circle cx="0.549623" cy="0.549623" r="0.549623" transform="matrix(1 0 0 -1 16.2061 12.5675)" fill="#5F9837"/>
<circle cx="0.549623" cy="0.549623" r="0.549623" transform="matrix(1 0 0 -1 27.748 6.52164)" fill="#5F9837"/>
<defs>
<radialGradient id="paint0_radial_2_378" cx="0" cy="0" r="1" gradientUnits="userSpaceOnUse" gradientTransform="translate(44.3827 29.66) rotate(45.0881) scale(42.2207 51.8983)">
<stop offset="0.604351" stop-color="#C1D978"/>
<stop offset="0.821556" stop-color="#83B74C"/>
</radialGradient>
<radialGradient id="paint1_radial_2_378" cx="0" cy="0" r="1" gradientUnits="userSpaceOnUse" gradientTransform="translate(69.5196 26.583) rotate(-141.394) scale(45.3647 50.6511)">
<stop offset="0.6289" stop-color="#97C562"/>
<stop offset="1" stop-color="#7CB355"/>
</radialGradient>
<linearGradient id="paint2_linear_2_378" x1="77.4889" y1="57.087" x2="62.6491" y2="57.087" gradientUnits="userSpaceOnUse">
<stop offset="0.300565" stop-color="#8ECB51"/>
<stop offset="1" stop-color="#87B55B"/>
</linearGradient>
<radialGradient id="paint3_radial_2_378" cx="0" cy="0" r="1" gradientUnits="userSpaceOnUse" gradientTransform="translate(33.7184 49.4841) rotate(45.583) scale(45.6562 53.1107)">
<stop offset="0.531346" stop-color="#BCD96F"/>
<stop offset="1" stop-color="#539146"/>
</radialGradient>
</defs>
</svg>
