<svg width="70" height="109" viewBox="0 0 70 109" fill="none" xmlns="http://www.w3.org/2000/svg">
<g opacity="0.6">
<path d="M2.12655 95.7527C2.37372 94.5266 2.85759 92.7912 3.72035 90.4482C4.68951 87.8163 5.47551 85.1192 5.91831 82.3497C7.32214 73.5693 9.83758 60.9624 12.8611 53.3739C14.4235 49.4525 16.9038 45.8723 19.872 42.8709C21.7929 40.9286 24.2998 38.9236 27.2895 37.5285C28.8449 36.8063 32.089 34.9287 32.6222 33.1956C33.1222 32.0846 29.4559 28.2961 10.7912 22.0301C10.3485 21.4264 10.2849 20.1929 12.3114 19.0014C14.3148 17.8235 16.3157 16.6101 18.1536 15.1877C18.3008 15.0738 18.4449 14.9704 18.5833 14.8812C19.0783 14.5619 19.66 14.9029 20.01 15.3767C20.8587 16.5255 22.198 16.0913 23.3966 15.3146C23.8985 14.9894 24.4236 14.6655 24.9301 14.3782C26.7376 13.3526 27.7176 15.5214 29.7753 15.8128C29.9294 15.8346 30.0838 15.8136 30.2359 15.7392C31.261 15.2381 32.2599 14.3515 33.2956 13.8727C33.649 13.7093 33.9935 13.4593 34.2961 13.094C35.5312 11.6027 34.4281 9.71918 36.3495 9.95966L36.3567 9.96056C37.7194 10.1311 40.614 10.4934 41.9432 10.1703C42.1161 10.1283 42.2876 10.097 42.4545 10.0794C43.4518 9.97444 44.2876 10.3585 44.2876 11.8645C44.2389 12.1894 44.2101 12.6406 44.2338 13.1532C44.364 15.9725 46.5355 17.9213 46.4271 20.7416C46.3372 23.0828 44.9427 25.763 44.8521 28.1042C44.8473 28.228 44.8431 28.3515 44.8396 28.4742C44.774 30.7459 45.8629 32.7349 47.2999 34.4957C51.9399 40.1815 58.4976 48.6903 58.9527 51.1936C60.9525 54.7488 64.5188 67.6919 62.7857 91.0227C62.6178 93.5405 62.4753 98.2647 62.8754 101.345C63.0479 102.672 62.4372 104.082 61.1169 104.303C59.554 104.566 57.2374 104.783 54.0489 104.787C51.3233 104.791 48.5946 104.87 45.8712 104.979C45.2858 105.002 44.6852 105.019 44.0835 105.025C38.9412 105.076 33.8388 103.262 28.7171 102.799C26.6281 102.61 24.1907 102.448 21.4568 102.355C18.388 102.204 11.0091 101.288 4.09831 98.8383C2.73168 98.354 1.84002 97.174 2.12655 95.7527Z" fill="#EAF2F9" fill-opacity="0.6"/>
<path d="M10.7912 22.0301C29.4559 28.2961 33.1222 32.0846 32.6222 33.1956C32.089 34.9287 28.8449 36.8063 27.2895 37.5285C24.2998 38.9236 21.7929 40.9286 19.872 42.8709C16.9038 45.8723 14.4235 49.4525 12.8611 53.3739C9.83758 60.9624 7.32214 73.5693 5.91831 82.3497C5.47551 85.1192 4.68951 87.8163 3.72035 90.4482C2.85759 92.7912 2.37372 94.5266 2.12655 95.7527C1.84002 97.174 2.73168 98.354 4.09831 98.8383C11.0091 101.288 18.388 102.204 21.4568 102.355C24.1907 102.448 26.6281 102.61 28.7171 102.799C33.8388 103.262 38.9412 105.076 44.0835 105.025C44.6853 105.019 45.2858 105.002 45.8712 104.979C48.5946 104.87 51.3233 104.791 54.0489 104.787C57.2374 104.783 59.5539 104.566 61.1169 104.303C62.4372 104.082 63.0479 102.672 62.8754 101.345C62.4753 98.2647 62.6178 93.5405 62.7857 91.0227C64.5188 67.6919 60.9525 54.7488 58.9527 51.1936C58.4976 48.6903 51.9399 40.1815 47.2998 34.4957C45.8629 32.7349 44.774 30.7459 44.8396 28.4742C44.8431 28.3515 44.8473 28.228 44.8521 28.1042C44.9427 25.763 46.3372 23.0828 46.4271 20.7416V20.7416C46.5355 17.9213 44.364 15.9725 44.2338 13.1532C44.2101 12.6406 44.2389 12.1894 44.2876 11.8645C44.2876 10.3585 43.4518 9.97444 42.4545 10.0794M10.7912 22.0301C10.3485 21.4264 10.2849 20.1929 12.3114 19.0014C14.3148 17.8235 16.3157 16.6101 18.1536 15.1877C18.3008 15.0738 18.4449 14.9704 18.5833 14.8812C19.0783 14.5619 19.66 14.9029 20.01 15.3767V15.3767C20.8587 16.5255 22.198 16.0913 23.3966 15.3146C23.8985 14.9894 24.4236 14.6655 24.9301 14.3782C26.7376 13.3526 27.7176 15.5214 29.7753 15.8128C29.9294 15.8346 30.0838 15.8136 30.2359 15.7392C31.261 15.2381 32.2599 14.3515 33.2956 13.8727C33.649 13.7093 33.9935 13.4593 34.2961 13.094C35.5312 11.6027 34.4281 9.71918 36.3495 9.95966V9.95966C37.7092 10.1298 40.6117 10.494 41.9432 10.1703C42.1161 10.1283 42.2876 10.097 42.4545 10.0794M10.7912 22.0301C12.0773 21.7443 14.411 21.3299 16.4804 21.2123C18.3822 21.1042 19.715 21.2737 21.1728 20.0476V20.0476C22.788 18.6892 26.8271 18.5861 28.9167 18.2905C30.201 18.1089 31.8197 17.3431 33.8091 15.6316C35.9516 13.7885 40.49 14.6142 41.8493 12.1364C42.1164 11.6495 42.3271 10.9788 42.4545 10.0794" stroke="#691A15" stroke-width="2.42408"/>
</g>
<g filter="url(#filter0_f_2_280)">
<path d="M22.6232 22.3633C24.3953 22.6761 28.5934 24.1039 31.9682 27.3628M31.9682 27.3628C32.19 27.577 32.4083 27.7991 32.6221 28.0294L31.9682 27.3628ZM30.4556 19.697C31.8 21.3898 34.7508 24.9212 36.7883 26.7874M36.7883 26.7874C37.024 27.0033 37.2475 27.1969 37.4549 27.3628L36.7883 26.7874ZM37.4549 16.1973C37.8011 17.9776 38.6667 21.5806 39.6051 23.1966M39.6051 23.1966C39.7208 23.3958 39.8376 23.5648 39.9546 23.6965L39.6051 23.1966ZM18.2903 17.0306C18.5904 17.6307 19.2687 18.7713 19.7901 18.9926M19.7901 18.9926C19.8478 19.0171 19.9036 19.0304 19.9568 19.0304L19.7901 18.9926ZM26.956 14.8641L27.6226 15.5307L28.2892 16.1973M34.2886 36.6951C33.3146 37.9231 31.5983 40.3778 30.8373 42.3612M30.8373 42.3612C30.6 42.9797 30.4556 43.5523 30.4556 44.0277L30.8373 42.3612ZM37.4549 36.6951C37.8572 37.6003 38.4052 39.5434 37.7141 40.6947M37.7141 40.6947C37.6418 40.8152 37.5559 40.927 37.4549 41.028L37.7141 40.6947ZM41.1212 35.8619C42 36.9992 43.6678 39.6856 43.7875 41.8796M43.7875 41.8796C43.7965 42.0431 43.7968 42.2039 43.7875 42.3612V41.8796ZM45.954 38.195C47.0373 39.4667 49.183 42.2481 50.2982 44.5276M50.2982 44.5276C50.4983 44.9365 50.6651 45.3292 50.7868 45.6942L50.2982 44.5276Z" stroke="#C2A09E" stroke-width="2.42408" stroke-linecap="round"/>
</g>
<path d="M9.12495 74.5244C9.12495 77.4575 5.79198 89.6339 4.12549 95.3555C5.64486 97.2256 15.8989 98.7199 22.6719 99.4343C24.4129 99.6179 25.7723 99.6239 27.5215 99.5533C37.8172 99.1379 49.2608 103.198 58.7954 99.291C58.9892 99.2116 59.1783 99.1316 59.3622 99.0515C60.5517 98.5334 61.1089 97.043 60.9959 95.7504C60.6317 91.587 61.0986 83.402 61.4527 79.024C62.3297 74.4047 62.2772 69.98 61.8012 66.1771C60.9023 58.9966 58.2468 50.0717 51.0515 49.3005C49.2526 49.1077 47.6964 48.4866 45.9784 47.9192C44.203 47.333 42.2094 47.2029 40.4262 47.2881C37.7713 47.415 34.9626 49.1207 32.6224 47.8606C30.1604 46.9488 28.044 46.3618 26.2759 45.9996C22.133 45.151 17.9725 46.8499 15.9186 50.5467C12.1304 57.3653 9.88543 68.5251 9.12495 74.5244Z" fill="url(#paint0_radial_2_280)"/>
<g filter="url(#filter1_f_2_280)">
<path d="M35.6218 84.0234C31.7556 84.1568 28.1226 83.0791 26.7894 82.5236L24.4563 78.524C24.0419 77.8333 23.8939 77.0167 23.9051 76.191M35.6218 84.0234L34.7886 80.0239M35.6218 84.0234C36.6959 82.7428 38.6794 80.1594 39.9547 77.8774C40.3942 77.0909 40.7495 76.3402 40.9546 75.691C41.0826 75.0933 40.8564 73.5836 39.3529 71.5248M23.9051 76.191C23.9264 74.6258 24.5199 73.0277 24.9563 72.1914C24.9563 71.3914 27.2894 68.6362 28.4559 67.3586C31.2556 66.4253 35.7329 68.414 37.6216 69.525C38.3314 70.2348 38.9001 70.9047 39.3529 71.5248M23.9051 76.191C27.033 77.7463 33.5887 80.6905 34.7886 80.0239M34.7886 80.0239C36.4427 78.3018 39.6715 74.1912 39.3529 71.5248" stroke="#FBD3B9" stroke-width="7.27225"/>
</g>
<g filter="url(#filter2_f_2_280)">
<path d="M33.4554 95.3556H35.2886C35.6527 95.4162 35.9776 95.4148 36.265 95.3704C37.6588 95.1553 37.9244 93.4559 37.8657 92.0468V92.0468C37.8145 90.8195 37.6157 89.5529 36.864 88.5813C36.4629 88.0627 36.0429 87.721 35.6147 87.5231M33.4554 95.3556H31.6223C30.9001 95.1889 29.5225 94.1556 29.7891 91.356C30.9826 89.2983 33.4078 86.5027 35.6147 87.5231M33.4554 95.3556C34.2839 94.9112 35.8755 92.7225 35.6147 87.5231" stroke="#FFD6C0" stroke-width="7.27225"/>
</g>
<path d="M42.6212 96.8553L33.2888 1.19893C33.6221 0.754535 34.5553 0.0657198 35.6219 0.865634L45.1209 97.022C43.7877 98.2219 42.8989 97.4108 42.6212 96.8553Z" fill="#D0F5FD"/>
<path d="M33.2888 1.19893C33.6221 0.754535 34.5553 0.0657198 35.6219 0.865634C35.2331 1.25447 34.2221 1.86551 33.2888 1.19893Z" fill="#57AECC"/>
<path d="M45.1209 97.022C44.7876 96.6331 43.821 96.0554 42.6212 96.8553C42.8989 97.4108 43.7877 98.2219 45.1209 97.022Z" fill="#57AECC"/>
<path d="M33.2888 1.19888L42.6212 96.8553C42.9787 96.6169 43.3155 96.5009 43.621 96.4657L34.2887 1.49238C33.9668 1.51238 33.6229 1.43747 33.2888 1.19888Z" fill="#86CCE9"/>
<g filter="url(#filter3_f_2_280)">
<path d="M16.6239 59.5261L21.79 53.1934C22.5122 52.4713 24.3898 51.4603 26.1229 53.1934L30.2891 57.3597C30.3357 57.4167 30.383 57.4818 30.4288 57.5543L32.9555 60.1927C34.6887 62.1925 33.6777 64.47 32.9555 65.3588L28.7893 70.1916C26.9228 72.858 24.012 72.0803 22.7899 71.3582C18.8547 69.581 16.8177 64.3388 16.1977 61.5876C16.1568 61.4702 16.1272 61.3384 16.1149 61.1926C16.0784 60.7584 16.1953 60.1997 16.6239 59.5261Z" fill="#FFA66A"/>
<path d="M16.1149 61.1926C16.158 61.7037 16.4137 62.0423 16.6239 62.1925L21.4567 66.3587C22.6566 67.4253 24.0676 66.8031 24.6231 66.3587L29.6225 60.8593C31.1941 59.6504 30.8748 58.2589 30.4288 57.5543M16.1149 61.1926C16.0784 60.7584 16.1953 60.1997 16.6239 59.5261L21.79 53.1934C22.5122 52.4713 24.3898 51.4603 26.1229 53.1934L30.2891 57.3597C30.3357 57.4167 30.383 57.4818 30.4288 57.5543M16.1149 61.1926C16.6179 63.8034 18.657 69.4917 22.7899 71.3582C24.012 72.0803 26.9228 72.858 28.7893 70.1916L32.9555 65.3588C33.6777 64.47 34.6887 62.1925 32.9555 60.1927L30.4288 57.5543" stroke="#FFC7A9" stroke-width="7.27225"/>
</g>
<circle cx="56.9531" cy="57.193" r="0.833244" fill="url(#paint1_radial_2_280)"/>
<circle cx="59.6191" cy="65.1919" r="0.833244" fill="url(#paint2_radial_2_280)"/>
<circle cx="44.9543" cy="54.1934" r="0.833244" fill="url(#paint3_radial_2_280)"/>
<circle cx="28.9558" cy="50.1937" r="0.833244" fill="url(#paint4_radial_2_280)"/>
<circle cx="15.9571" cy="70.5248" r="1.16654" fill="url(#paint5_radial_2_280)"/>
<circle cx="11.6245" cy="90.8561" r="1.16654" fill="url(#paint6_radial_2_280)"/>
<circle cx="54.9529" cy="83.8568" r="1.16654" fill="url(#paint7_radial_2_280)"/>
<circle cx="57.4527" cy="72.3579" r="0.666595" fill="url(#paint8_radial_2_280)"/>
<circle cx="58.1197" cy="84.6902" r="0.666595" fill="url(#paint9_radial_2_280)"/>
<circle cx="56.1197" cy="96.022" r="0.666595" fill="url(#paint10_radial_2_280)"/>
<circle cx="50.7867" cy="88.0231" r="0.666595" fill="url(#paint11_radial_2_280)"/>
<circle cx="28.7892" cy="84.0235" r="0.666595" fill="url(#paint12_radial_2_280)"/>
<circle cx="14.1244" cy="93.3557" r="0.666595" fill="url(#paint13_radial_2_280)"/>
<circle cx="24.9565" cy="90.5228" r="0.499946" fill="url(#paint14_radial_2_280)"/>
<circle cx="31.9555" cy="97.1888" r="0.499946" fill="url(#paint15_radial_2_280)"/>
<circle cx="17.624" cy="72.1913" r="0.499946" fill="url(#paint16_radial_2_280)"/>
<circle cx="14.2907" cy="62.1923" r="0.499946" fill="url(#paint17_radial_2_280)"/>
<circle cx="50.9536" cy="52.1934" r="0.499946" fill="url(#paint18_radial_2_280)"/>
<circle cx="58.9526" cy="58.5259" r="0.499946" fill="url(#paint19_radial_2_280)"/>
<circle cx="57.1192" cy="80.3572" r="0.666595" fill="url(#paint20_radial_2_280)"/>
<circle cx="52.1199" cy="90.3562" r="0.333298" fill="url(#paint21_radial_2_280)"/>
<circle cx="47.7872" cy="89.0228" r="0.333298" fill="url(#paint22_radial_2_280)"/>
<circle cx="40.1211" cy="86.0231" r="0.333298" fill="url(#paint23_radial_2_280)"/>
<circle cx="40.1211" cy="93.3558" r="0.333298" fill="url(#paint24_radial_2_280)"/>
<g filter="url(#filter4_f_2_280)">
<path d="M56.1809 68.3584C56.2332 67.4374 56.0229 66.4971 55.7865 65.8587L51.287 58.6928C50.2204 56.693 48.2873 57.304 47.4541 57.8595L39.9549 62.1924C38.3662 63.1103 38.246 64.2914 38.5484 65.1921M56.1809 68.3584C56.1102 69.6011 55.5614 70.8086 53.9534 71.1914L47.4541 74.5244C46.3986 75.1354 43.8544 75.4909 42.1213 72.0247L39.1216 66.1919C38.9086 65.9497 38.6853 65.5996 38.5484 65.1921M56.1809 68.3584C56.4938 69.7471 55.7532 73.5245 50.2871 77.5241C48.454 78.3573 44.3544 79.3905 42.6213 76.8575L39.1216 71.1914C38.9617 70.9692 38.6232 69.4583 38.5484 65.1921" stroke="#FFC7A9" stroke-width="7.27225"/>
</g>
<g filter="url(#filter5_f_2_280)">
<path d="M40.85 76.6908L42.5373 75.6909L44.7871 74.3577L49.12 74.8576L52.2607 80.6903M40.85 76.6908V76.6908C40.4939 76.9018 40.2506 77.261 40.1867 77.67L39.5624 81.665C39.4943 82.1009 39.6337 82.5437 39.9393 82.862L43.3542 86.4192C43.4185 86.4861 43.5049 86.5276 43.5974 86.5357V86.5357L46.3587 86.7794L46.6051 86.8011C48.1468 86.9371 49.6334 86.1918 50.4467 84.875L52.2218 82.0011C52.4679 81.6025 52.4828 81.1028 52.2607 80.6903V80.6903M40.85 76.6908L47.2868 81.6902M47.2868 81.6902L44.4538 86.5231M47.2868 81.6902L52.2607 80.6903" stroke="#FDD1B8" stroke-width="7.27225"/>
</g>
<defs>
<filter id="filter0_f_2_280" x="14.6538" y="11.228" width="39.7068" height="37.3584" filterUnits="userSpaceOnUse" color-interpolation-filters="sRGB">
<feFlood flood-opacity="0" result="BackgroundImageFix"/>
<feBlend mode="normal" in="SourceGraphic" in2="BackgroundImageFix" result="shape"/>
<feGaussianBlur stdDeviation="1.21204" result="effect1_foregroundBlur_2_280"/>
</filter>
<filter id="filter1_f_2_280" x="10.572" y="53.7844" width="43.7457" height="43.5827" filterUnits="userSpaceOnUse" color-interpolation-filters="sRGB">
<feFlood flood-opacity="0" result="BackgroundImageFix"/>
<feBlend mode="normal" in="SourceGraphic" in2="BackgroundImageFix" result="shape"/>
<feGaussianBlur stdDeviation="4.84816" result="effect1_foregroundBlur_2_280"/>
</filter>
<filter id="filter2_f_2_280" x="16.425" y="73.9644" width="34.7806" height="34.7706" filterUnits="userSpaceOnUse" color-interpolation-filters="sRGB">
<feFlood flood-opacity="0" result="BackgroundImageFix"/>
<feBlend mode="normal" in="SourceGraphic" in2="BackgroundImageFix" result="shape"/>
<feGaussianBlur stdDeviation="4.84816" result="effect1_foregroundBlur_2_280"/>
</filter>
<filter id="filter3_f_2_280" x="2.77608" y="38.9042" width="44.4683" height="46.4781" filterUnits="userSpaceOnUse" color-interpolation-filters="sRGB">
<feFlood flood-opacity="0" result="BackgroundImageFix"/>
<feBlend mode="normal" in="SourceGraphic" in2="BackgroundImageFix" result="shape"/>
<feGaussianBlur stdDeviation="4.84816" result="effect1_foregroundBlur_2_280"/>
</filter>
<filter id="filter4_f_2_280" x="25.3264" y="44.226" width="44.0106" height="47.3206" filterUnits="userSpaceOnUse" color-interpolation-filters="sRGB">
<feFlood flood-opacity="0" result="BackgroundImageFix"/>
<feBlend mode="normal" in="SourceGraphic" in2="BackgroundImageFix" result="shape"/>
<feGaussianBlur stdDeviation="4.72696" result="effect1_foregroundBlur_2_280"/>
</filter>
<filter id="filter5_f_2_280" x="24.7046" y="60.9088" width="41.0452" height="39.2407" filterUnits="userSpaceOnUse" color-interpolation-filters="sRGB">
<feFlood flood-opacity="0" result="BackgroundImageFix"/>
<feBlend mode="normal" in="SourceGraphic" in2="BackgroundImageFix" result="shape"/>
<feGaussianBlur stdDeviation="4.84816" result="effect1_foregroundBlur_2_280"/>
</filter>
<radialGradient id="paint0_radial_2_280" cx="0" cy="0" r="1" gradientUnits="userSpaceOnUse" gradientTransform="translate(33.789 74.6911) rotate(-35.3217) scale(30.8413 31.4378)">
<stop offset="0.734661" stop-color="#FE9B64"/>
<stop offset="1" stop-color="#DC5B1E"/>
</radialGradient>
<radialGradient id="paint1_radial_2_280" cx="0" cy="0" r="1" gradientUnits="userSpaceOnUse" gradientTransform="translate(56.9531 57.193) rotate(90) scale(0.833244)">
<stop offset="0.495" stop-color="#FFC394"/>
<stop offset="1" stop-color="#FE9867"/>
</radialGradient>
<radialGradient id="paint2_radial_2_280" cx="0" cy="0" r="1" gradientUnits="userSpaceOnUse" gradientTransform="translate(59.6191 65.1919) rotate(90) scale(0.833244)">
<stop offset="0.495" stop-color="#FFC394"/>
<stop offset="1" stop-color="#FE9867"/>
</radialGradient>
<radialGradient id="paint3_radial_2_280" cx="0" cy="0" r="1" gradientUnits="userSpaceOnUse" gradientTransform="translate(44.9543 54.1934) rotate(90) scale(0.833244)">
<stop offset="0.495" stop-color="#FFC394"/>
<stop offset="1" stop-color="#FE9867"/>
</radialGradient>
<radialGradient id="paint4_radial_2_280" cx="0" cy="0" r="1" gradientUnits="userSpaceOnUse" gradientTransform="translate(28.9558 50.1937) rotate(90) scale(0.833244)">
<stop offset="0.495" stop-color="#FFC394"/>
<stop offset="1" stop-color="#FE9867"/>
</radialGradient>
<radialGradient id="paint5_radial_2_280" cx="0" cy="0" r="1" gradientUnits="userSpaceOnUse" gradientTransform="translate(15.9571 70.5248) rotate(90) scale(1.16654)">
<stop offset="0.495" stop-color="#FFC394"/>
<stop offset="1" stop-color="#FE9867"/>
</radialGradient>
<radialGradient id="paint6_radial_2_280" cx="0" cy="0" r="1" gradientUnits="userSpaceOnUse" gradientTransform="translate(11.6245 90.8561) rotate(90) scale(1.16654)">
<stop offset="0.495" stop-color="#FFC394"/>
<stop offset="1" stop-color="#FE9867"/>
</radialGradient>
<radialGradient id="paint7_radial_2_280" cx="0" cy="0" r="1" gradientUnits="userSpaceOnUse" gradientTransform="translate(54.9529 83.8568) rotate(90) scale(1.16654)">
<stop offset="0.495" stop-color="#FFC394"/>
<stop offset="1" stop-color="#FE9867"/>
</radialGradient>
<radialGradient id="paint8_radial_2_280" cx="0" cy="0" r="1" gradientUnits="userSpaceOnUse" gradientTransform="translate(57.4527 72.3579) rotate(90) scale(0.666595)">
<stop offset="0.495" stop-color="#FFC394"/>
<stop offset="1" stop-color="#FE9867"/>
</radialGradient>
<radialGradient id="paint9_radial_2_280" cx="0" cy="0" r="1" gradientUnits="userSpaceOnUse" gradientTransform="translate(58.1197 84.6902) rotate(90) scale(0.666595)">
<stop offset="0.495" stop-color="#FFC394"/>
<stop offset="1" stop-color="#FE9867"/>
</radialGradient>
<radialGradient id="paint10_radial_2_280" cx="0" cy="0" r="1" gradientUnits="userSpaceOnUse" gradientTransform="translate(56.1197 96.022) rotate(90) scale(0.666595)">
<stop offset="0.495" stop-color="#FFC394"/>
<stop offset="1" stop-color="#FE9867"/>
</radialGradient>
<radialGradient id="paint11_radial_2_280" cx="0" cy="0" r="1" gradientUnits="userSpaceOnUse" gradientTransform="translate(50.7867 88.0231) rotate(90) scale(0.666595)">
<stop offset="0.495" stop-color="#FFC394"/>
<stop offset="1" stop-color="#FE9867"/>
</radialGradient>
<radialGradient id="paint12_radial_2_280" cx="0" cy="0" r="1" gradientUnits="userSpaceOnUse" gradientTransform="translate(28.7892 84.0235) rotate(90) scale(0.666595)">
<stop offset="0.495" stop-color="#FFC394"/>
<stop offset="1" stop-color="#FE9867"/>
</radialGradient>
<radialGradient id="paint13_radial_2_280" cx="0" cy="0" r="1" gradientUnits="userSpaceOnUse" gradientTransform="translate(14.1244 93.3557) rotate(90) scale(0.666595)">
<stop offset="0.495" stop-color="#FFC394"/>
<stop offset="1" stop-color="#FE9867"/>
</radialGradient>
<radialGradient id="paint14_radial_2_280" cx="0" cy="0" r="1" gradientUnits="userSpaceOnUse" gradientTransform="translate(24.9565 90.5228) rotate(90) scale(0.499946)">
<stop offset="0.495" stop-color="#FFC394"/>
<stop offset="1" stop-color="#FE9867"/>
</radialGradient>
<radialGradient id="paint15_radial_2_280" cx="0" cy="0" r="1" gradientUnits="userSpaceOnUse" gradientTransform="translate(31.9555 97.1888) rotate(90) scale(0.499946)">
<stop offset="0.495" stop-color="#FFC394"/>
<stop offset="1" stop-color="#FE9867"/>
</radialGradient>
<radialGradient id="paint16_radial_2_280" cx="0" cy="0" r="1" gradientUnits="userSpaceOnUse" gradientTransform="translate(17.624 72.1913) rotate(90) scale(0.499946)">
<stop offset="0.495" stop-color="#FFC394"/>
<stop offset="1" stop-color="#FE9867"/>
</radialGradient>
<radialGradient id="paint17_radial_2_280" cx="0" cy="0" r="1" gradientUnits="userSpaceOnUse" gradientTransform="translate(14.2907 62.1923) rotate(90) scale(0.499946)">
<stop offset="0.495" stop-color="#FFC394"/>
<stop offset="1" stop-color="#FE9867"/>
</radialGradient>
<radialGradient id="paint18_radial_2_280" cx="0" cy="0" r="1" gradientUnits="userSpaceOnUse" gradientTransform="translate(50.9536 52.1934) rotate(90) scale(0.499946)">
<stop offset="0.495" stop-color="#FFC394"/>
<stop offset="1" stop-color="#FE9867"/>
</radialGradient>
<radialGradient id="paint19_radial_2_280" cx="0" cy="0" r="1" gradientUnits="userSpaceOnUse" gradientTransform="translate(58.9526 58.5259) rotate(90) scale(0.499946)">
<stop offset="0.495" stop-color="#FFC394"/>
<stop offset="1" stop-color="#FE9867"/>
</radialGradient>
<radialGradient id="paint20_radial_2_280" cx="0" cy="0" r="1" gradientUnits="userSpaceOnUse" gradientTransform="translate(57.1192 80.3572) rotate(90) scale(0.666595)">
<stop offset="0.495" stop-color="#FFC394"/>
<stop offset="1" stop-color="#FE9867"/>
</radialGradient>
<radialGradient id="paint21_radial_2_280" cx="0" cy="0" r="1" gradientUnits="userSpaceOnUse" gradientTransform="translate(52.1199 90.3562) rotate(90) scale(0.333298)">
<stop offset="0.495" stop-color="#FFC394"/>
<stop offset="1" stop-color="#FE9867"/>
</radialGradient>
<radialGradient id="paint22_radial_2_280" cx="0" cy="0" r="1" gradientUnits="userSpaceOnUse" gradientTransform="translate(47.7872 89.0228) rotate(90) scale(0.333298)">
<stop offset="0.495" stop-color="#FFC394"/>
<stop offset="1" stop-color="#FE9867"/>
</radialGradient>
<radialGradient id="paint23_radial_2_280" cx="0" cy="0" r="1" gradientUnits="userSpaceOnUse" gradientTransform="translate(40.1211 86.0231) rotate(90) scale(0.333298)">
<stop offset="0.495" stop-color="#FFC394"/>
<stop offset="1" stop-color="#FE9867"/>
</radialGradient>
<radialGradient id="paint24_radial_2_280" cx="0" cy="0" r="1" gradientUnits="userSpaceOnUse" gradientTransform="translate(40.1211 93.3558) rotate(90) scale(0.333298)">
<stop offset="0.495" stop-color="#FFC394"/>
<stop offset="1" stop-color="#FE9867"/>
</radialGradient>
</defs>
</svg>
