<svg width="332" height="253" viewBox="0 0 332 253" fill="none" xmlns="http://www.w3.org/2000/svg">
<path d="M35.6866 44.6337C67.8533 16.467 159.887 -26.7663 270.687 25.6337C301.961 43.5245 347.516 87.6916 325.754 141.134C300.207 228.734 214.731 251.3 175.187 251.634C85.9865 260.034 33.1998 194.134 17.9565 160.134C-1.53541 132.059 -13.5592 86.5246 35.6866 44.6337Z" fill="#DADFDF"/>
<path d="M17.9565 160.134C22.8463 167.177 28.2062 173.121 33.1866 177.634C59.1867 205.234 114.02 218.8 138.187 222.134C214.187 235.734 278.187 198.134 300.687 177.634C312.893 165.138 320.958 152.911 325.754 141.134M17.9565 160.134C-1.53541 132.058 -13.5592 86.5246 35.6866 44.6337C67.8533 16.467 159.887 -26.7663 270.687 25.6337C301.961 43.5245 347.516 87.6916 325.754 141.134M17.9565 160.134C33.1998 194.134 85.9865 260.034 175.187 251.634C214.731 251.3 300.207 228.734 325.754 141.134M157.187 90.6337C149.853 85.1337 138.587 68.2337 152.187 44.6337M157.187 90.6337C161.187 92.6337 168.853 92.467 172.187 92.1337M157.187 90.6337C145.658 88.2688 139.791 80.661 137.245 74.4294C135.729 70.7205 134.651 66.5436 135.773 62.6973C137.949 55.2372 146.925 47.9218 152.187 44.6337M152.187 44.6337C158.52 36.8003 177.987 24.0337 205.187 35.6337C210.52 37.8003 220.887 45.2337 219.687 57.6337M219.687 57.6337C215.788 57.6337 210.187 58.1129 204.187 59.4165M219.687 57.6337C226.712 57.3347 241.485 58.2154 249.652 63.594C251.465 64.7878 253.075 66.2605 254.763 67.6247C262.811 74.1282 274.28 85.9695 270.687 93.7736M172.187 92.1337C172.187 85.3337 174.52 78.6337 175.687 76.1337C181.575 66.6603 193.514 61.7348 204.187 59.4165M172.187 92.1337C169.853 99.467 170.987 115.534 194.187 121.134M194.187 121.134C194.744 120.037 195.414 118.808 196.187 117.488M194.187 121.134C193.234 125.967 193.314 137.734 201.257 146.134M229.187 88.1337C220.107 88.8003 202.722 100.234 205.817 140.634M229.187 88.1337C214.972 90.6213 202.335 106.974 196.187 117.488M229.187 88.1337C239.102 87.729 256.142 88.7738 270.687 93.7736M290.187 155.634C308.587 134.834 299.853 115.967 293.187 109.134C288.471 101.903 280.102 97.0099 270.687 93.7736M290.187 155.634C284.382 145.821 271.427 128.217 259.417 123.629C254.833 121.879 249.708 122.304 244.816 122.684C233.613 123.556 217.761 128.033 205.817 140.634M290.187 155.634C291.853 158.835 294.187 167.127 290.187 174.685M196.187 154.634C191.187 163.634 182.687 183.834 188.687 192.634C192.853 198.878 204.087 210.995 215.687 209.501M196.187 154.634C194.853 165.556 195.987 189.247 211.187 196.634C218.687 199.134 236.687 201.834 248.687 192.634C250.687 191.149 260.287 186.674 282.687 180.656M196.187 154.634C197.697 151.524 199.402 148.699 201.257 146.134M215.687 209.501C199.054 213.063 180.135 215.134 158.687 215.134C129.353 214.3 63.1867 203.334 33.1866 166.134C15.1866 144.967 -8.71348 92.5337 39.6865 52.1337C65.6865 28.8003 139.487 -10.8663 226.687 17.1337C262.853 27.467 332.687 63.7337 322.687 126.134C319.695 139.121 309.894 157.794 290.187 174.685M215.687 209.501C244.445 203.342 266.363 192.727 282.687 180.656M282.687 180.656C285.332 178.7 287.83 176.705 290.187 174.685M205.817 140.634C204.221 142.318 202.694 144.148 201.257 146.134M204.187 59.4165C198.654 61.4131 188.805 68.5793 186.529 82.6203C185.516 88.8734 185.282 95.3656 186.189 101.635C187.056 107.631 189.737 114.191 196.187 117.488" stroke="black" stroke-opacity="0.36"/>
<path d="M158.687 215.134C180.135 215.134 199.054 213.063 215.687 209.501C244.445 203.342 266.363 192.727 282.687 180.656C285.332 178.7 287.83 176.705 290.187 174.685C325.387 117.885 270.187 73.8003 234.687 60.6337C175.887 32.6337 103.52 52.3003 74.6866 65.6337C7.48657 108.434 29.0455 160.149 48.225 180.656C81.5273 206.289 133.589 214.421 158.687 215.134Z" fill="#FCD2E0"/>
<path d="M282.687 180.656C266.363 192.727 244.445 203.342 215.687 209.501C209.961 210.727 203.964 211.776 197.687 212.626C183.286 209.819 184.353 204.128 186.687 201.634L178.687 193.634C178.287 184.034 168.187 181.634 163.187 181.634C163.187 179.234 160.187 178.634 158.687 178.634C155.52 179.134 148.487 179.834 145.687 178.634C142.187 179.8 136.487 180.634 141.687 174.634C141.853 173.3 142.887 171.034 145.687 172.634C148.187 173.134 153.387 173.834 154.187 172.634C155.02 176.134 159.787 180.234 172.187 168.634C172.853 167.134 173.987 163.834 173.187 162.634L178.687 157.634L183.187 162.134C189.02 158.8 198.487 149.434 189.687 138.634C191.02 130.8 189.987 116.834 175.187 123.634C170.687 124.8 161.787 122.634 162.187 104.634C162.353 101.3 158.087 95.9337 139.687 101.134L124.187 69.1337C125.02 64.8003 124.287 56.8337 114.687 59.6337L113.687 52.7001C97.4954 56.4885 83.8787 61.3829 74.6866 65.6337C62.4091 73.4532 53.0943 81.5704 46.1865 89.7404C48.3532 93.5382 51.3865 101.734 46.1865 104.134C48.8532 107.967 51.5865 115.534 41.1865 115.134C38.6865 116.634 34.6865 121.334 38.6865 128.134C37.3037 131.634 33.503 138.834 29.3623 139.634C27.7902 124.279 31.6838 106.893 46.1865 89.7404C53.0943 81.5704 62.4091 73.4532 74.6866 65.6337C83.8787 61.3829 97.4954 56.4885 113.687 52.7001C148.283 44.6054 194.632 41.5602 234.687 60.6337C270.187 73.8003 325.387 117.885 290.187 174.685C287.83 176.705 285.332 178.7 282.687 180.656Z" fill="#F399AF"/>
<path d="M32.3683 153.634C36.0503 164.859 42.253 174.27 48.225 180.656L45.6865 167.134C50.0865 170.734 57.1865 171.3 60.1865 171.134C63.3865 170.334 71.1865 176.467 74.6865 179.634C81.8865 186.434 88.6865 186.8 91.1865 186.134C100.387 186.134 106.02 190.467 107.687 192.634L117.687 188.634C118.887 186.234 125.853 179.967 129.187 177.134H119.187C120.387 187.534 112.02 187.467 107.687 186.134C106.887 177.734 97.3532 177.634 92.6865 178.634C85.4865 182.234 81.0199 181.482 79.6865 180.656C82.8865 174.274 81.0199 171.649 79.6865 171.134C68.4865 177.134 65.6865 170.967 65.6865 167.134C48.8865 167.934 36.4743 158.467 32.3683 153.634Z" fill="#F399AF"/>
<path d="M92.6865 155.634C87.0865 153.634 83.6865 162.467 82.6865 167.134C88.2865 168.734 90.0199 164.134 90.1865 161.634C89.7865 159.234 91.6865 156.634 92.6865 155.634Z" fill="#F399AF"/>
<path d="M164.187 201.634C157.387 207.234 138.02 204.967 129.187 203.134C138.387 210.734 157.02 209.634 165.187 208.134C173.187 204.534 167.853 202.3 164.187 201.634Z" fill="#F399AF"/>
<path d="M68.6865 81.6337C68.2865 83.2337 59.1865 89.3003 54.6865 92.1337C62.2865 99.7337 64.1865 96.6337 64.1865 94.1337C69.3865 82.1337 77.3532 79.8003 80.6865 80.1337C92.2865 87.0949 95.5199 80.0342 95.6865 75.6337C98.8865 80.8337 106.687 74.1337 110.187 70.1337H92.6865C92.2865 73.7337 87.1865 75.3003 84.6865 75.6337C80.2865 75.2337 72.1865 79.467 68.6865 81.6337Z" fill="#F399AF"/>
<path d="M152.187 44.6337C158.52 36.8003 177.987 24.0337 205.187 35.6337C210.52 37.8003 220.887 45.2337 219.687 57.6337C226.712 57.3347 241.485 58.2154 249.652 63.5939C251.465 64.7878 253.075 66.2604 254.763 67.6247C262.811 74.1282 274.28 85.9695 270.687 93.7735C280.102 97.0099 288.471 101.903 293.187 109.134C299.853 115.967 308.587 134.834 290.187 155.634C291.853 158.835 294.187 167.127 290.187 174.685C287.83 176.705 285.332 178.7 282.687 180.656C266.363 192.727 244.445 203.342 215.687 209.501C204.087 210.995 192.853 198.878 188.687 192.634C182.687 183.834 191.187 163.634 196.187 154.634C197.697 151.524 199.402 148.699 201.257 146.134C193.314 137.734 193.234 125.967 194.187 121.134C170.987 115.534 169.853 99.467 172.187 92.1337C168.853 92.467 161.187 92.6337 157.187 90.6337C145.658 88.2688 139.791 80.661 137.245 74.4294C135.729 70.7205 134.652 66.5436 135.773 62.6973C137.949 55.2372 146.925 47.9218 152.187 44.6337Z" fill="#549D13"/>
<path d="M157.187 90.6337C149.853 85.1337 138.587 68.2337 152.187 44.6337M157.187 90.6337C161.187 92.6337 168.853 92.467 172.187 92.1337M157.187 90.6337C145.658 88.2688 139.791 80.661 137.245 74.4294C135.729 70.7205 134.652 66.5436 135.773 62.6973C137.949 55.2372 146.925 47.9218 152.187 44.6337M152.187 44.6337C158.52 36.8003 177.987 24.0337 205.187 35.6337C210.52 37.8003 220.887 45.2337 219.687 57.6337M219.687 57.6337C215.788 57.6337 210.187 58.1129 204.187 59.4165M219.687 57.6337C226.712 57.3347 241.485 58.2154 249.652 63.5939C251.465 64.7878 253.075 66.2604 254.763 67.6247C262.811 74.1282 274.28 85.9695 270.687 93.7735M172.187 92.1337C172.187 85.3337 174.52 78.6337 175.687 76.1337C181.575 66.6603 193.514 61.7348 204.187 59.4165M172.187 92.1337C169.853 99.467 170.987 115.534 194.187 121.134M194.187 121.134C194.744 120.037 195.414 118.808 196.187 117.488M194.187 121.134C193.234 125.967 193.314 137.734 201.257 146.134M229.187 88.1337C220.107 88.8003 202.722 100.234 205.817 140.634M229.187 88.1337C214.972 90.6213 202.336 106.974 196.187 117.488M229.187 88.1337C239.102 87.729 256.142 88.7737 270.687 93.7735M290.187 155.634C308.587 134.834 299.853 115.967 293.187 109.134C288.471 101.903 280.102 97.0099 270.687 93.7735M290.187 155.634C284.382 145.821 271.427 128.217 259.417 123.629C254.834 121.879 249.708 122.304 244.816 122.684C233.613 123.556 217.761 128.033 205.817 140.634M290.187 155.634C291.853 158.835 294.187 167.127 290.187 174.685C287.83 176.705 285.332 178.7 282.687 180.656M196.187 154.634C191.187 163.634 182.687 183.834 188.687 192.634C192.853 198.878 204.087 210.995 215.687 209.501C244.445 203.342 266.363 192.727 282.687 180.656M196.187 154.634C194.853 165.556 195.987 189.247 211.187 196.634C218.687 199.134 236.687 201.834 248.687 192.634C250.687 191.148 260.287 186.674 282.687 180.656M196.187 154.634C197.697 151.524 199.402 148.699 201.257 146.134M205.817 140.634C204.221 142.318 202.694 144.148 201.257 146.134M204.187 59.4165C198.654 61.413 188.805 68.5793 186.529 82.6202C185.516 88.8734 185.282 95.3656 186.189 101.635C187.056 107.631 189.737 114.191 196.187 117.488" stroke="#2F6F0E"/>
<path d="M175.686 76.1337C181.575 66.6603 193.514 61.7348 204.186 59.4165C205.72 59.0834 207.227 58.8041 208.686 58.5729C208.686 42.9243 184.353 41.4265 172.186 42.6337C146.586 60.2337 162.376 76.6337 173.47 82.6337C174.205 79.7445 175.095 77.4002 175.686 76.1337Z" fill="#E1BF16"/>
<path d="M229.186 88.1337C218.165 90.0624 208.093 100.326 201.257 109.741C197.9 106.539 192.586 95.7337 198.186 78.1337C199.353 71.3003 209.786 60.4337 242.186 71.6337C245.853 74.6571 252.586 82.3969 250.186 89.1688C242.109 88.123 234.59 87.9131 229.186 88.1337Z" fill="#E1BF16"/>
<path d="M221.186 129.269C229.499 125.072 238.013 123.214 244.814 122.685L244.982 122.671C249.823 122.294 254.889 121.899 259.419 123.63C263.728 125.277 268.158 128.598 272.336 132.634C277.255 132.234 278.286 122.37 278.186 117.488C276.586 104.571 263.52 100.536 257.186 100.134H232.686C217.086 104.134 218.52 121.224 221.186 129.269Z" fill="#E1BF16"/>
<path d="M223.186 139.134C207.986 143.134 208.853 160.467 211.186 168.634C229.186 189.434 259.453 179.634 272.336 172.134C284.455 158.906 271.619 143.622 263.686 137.634C250.086 129.634 231.02 135.3 223.186 139.134Z" fill="#E1BF16"/>
<path d="M205.818 140.634C217.761 128.033 233.613 123.556 244.817 122.684L244.988 122.671C249.828 122.294 254.89 121.9 259.42 123.631C261.826 124.55 264.27 125.992 266.687 127.789C216.287 122.312 198.687 153.323 196.187 169.513C195.556 163.821 195.721 158.449 196.187 154.634C197.697 151.524 199.402 148.699 201.258 146.134C202.694 144.148 204.221 142.318 205.818 140.634Z" fill="#AFC99B"/>
<path d="M204.187 59.4165C210.187 58.1129 215.788 57.6337 219.687 57.6337C223.815 57.458 230.62 57.6897 237.187 59.0023C202.787 52.4972 188.853 73.9051 186.187 85.4222C187.517 69.5248 198.297 61.5418 204.187 59.4165Z" fill="#AFC99B"/>
<path d="M229.187 88.1337C239.102 87.729 256.142 88.7737 270.687 93.7735C272.044 94.2402 273.38 94.7414 274.687 95.2791C225.665 81.9527 208.967 103.943 206.6 117.028C206.573 117.181 206.548 117.334 206.522 117.488C206.546 117.336 206.572 117.183 206.6 117.028C210.319 95.5215 222.207 88.6462 229.187 88.1337Z" fill="#AFC99B"/>
<path d="M152.187 44.6337C148.643 50.7829 146.788 56.4773 146.111 61.6337C149.136 50.5265 163.687 29.2444 197.687 32.973C174.425 26.4027 157.921 37.5406 152.187 44.6337Z" fill="#AFC99B"/>
<path d="M169.403 131.587C164.028 127.692 162.32 124.465 162.187 123.134C164.187 126.334 170.02 128.467 172.687 129.134C181.087 127.534 182.853 139.467 182.687 145.634L184.687 148.134C182.514 147.513 180.861 145.785 180.099 143.657C179.386 141.665 178.637 140.064 177.912 138.796C176.039 135.519 172.459 133.802 169.403 131.587Z" fill="#F399AF"/>
<path d="M162.187 134.634L165.687 136.634C164.087 139.434 159.02 137.8 156.687 136.634C155.887 131.434 151.353 129.467 149.187 129.134C140.703 129.134 138.985 125.134 139.187 123.134C141.587 125.134 146.853 123.967 149.187 123.134C156.787 121.934 161.02 130.3 162.187 134.634Z" fill="#F399AF"/>
<path d="M39.6865 136.634C40.0955 136.559 40.545 136.461 41.0188 136.336C43.5163 135.134 44.1865 130.579 44.1865 128.134C44.1865 124.534 47.1865 122.634 48.6865 122.134C53.4865 122.534 55.0199 115.967 55.1865 112.634C61.9865 119.434 53.6865 125.8 48.6865 128.134C50.1081 132.754 44.7935 135.348 41.0188 136.336C40.6223 136.527 40.1798 136.634 39.6865 136.634Z" fill="#F399AF"/>
<path d="M145.687 158.134C138.087 158.134 136.52 162.134 136.687 164.134L114.187 161.134L83.6865 121.134L114.187 135.634L127.687 148.134L118.687 129.634L114.187 97.6337L145.687 138.134V158.134Z" fill="#519A12" stroke="#155600"/>
<path d="M114.187 135.634L127.687 148.134L112.687 138.134L92.1865 125.175L114.187 135.634Z" fill="#B0F682"/>
<path d="M114.89 102.634L114.187 97.6337L136.687 126.562L114.89 102.634Z" fill="#B0F682"/>
<path d="M245.187 153.634L255.687 146.134" stroke="#F2D33B" stroke-linecap="round"/>
<path d="M243.936 152.842L244.104 143.634" stroke="#F2D33B" stroke-linecap="round"/>
<path d="M240.433 151.847L234.501 140.634" stroke="#F2D33B" stroke-linecap="round"/>
<path d="M237.873 153.847L218.686 150.829" stroke="#F2D33B" stroke-linecap="round"/>
<path d="M235.728 158.017L212.687 157.634" stroke="#F2D33B" stroke-linecap="round"/>
<path d="M229.687 167.134L240.187 159.634" stroke="#F2D33B" stroke-linecap="round"/>
<path d="M237.496 174.122L240.744 161.634" stroke="#F2D33B" stroke-linecap="round"/>
<path d="M244.032 170.584L243.963 159.634" stroke="#F2D33B" stroke-linecap="round"/>
<path d="M256.965 174.946L247.119 159.634" stroke="#F2D33B" stroke-linecap="round"/>
<path d="M269.139 162.403L248.686 157.763" stroke="#F2D33B" stroke-linecap="round"/>
<path d="M274.77 154.165L246.687 155.201" stroke="#F2D33B" stroke-linecap="round"/>
<circle cx="242.687" cy="154.634" r="1" fill="#542900"/>
<circle cx="244.687" cy="156.634" r="1" fill="#542900"/>
<circle cx="242.687" cy="158.634" r="1" fill="#542900"/>
<circle cx="240.687" cy="156.634" r="1" fill="#542900"/>
<path d="M222.87 81.8746L230.072 74.1503" stroke="#F2D33B" stroke-width="0.818435" stroke-linecap="round"/>
<path d="M221.738 81.4432L220.375 74.0296" stroke="#F2D33B" stroke-width="0.818435" stroke-linecap="round"/>
<path d="M218.767 81.2148L212.184 73.1859" stroke="#F2D33B" stroke-width="0.818435" stroke-linecap="round"/>
<path d="M217.039 83.2353L201.158 83.9365" stroke="#F2D33B" stroke-width="0.818435" stroke-linecap="round"/>
<path d="M215.996 86.9299L197.453 90.3711" stroke="#F2D33B" stroke-width="0.818435" stroke-linecap="round"/>
<path d="M212.634 95.225L219.836 87.5007" stroke="#F2D33B" stroke-width="0.818435" stroke-linecap="round"/>
<path d="M220.686 90.6337L220.608 89.0142" stroke="#F2D33B" stroke-width="0.818435" stroke-linecap="round"/>
<path d="M223.687 88.6337L222.865 86.8863" stroke="#F2D33B" stroke-width="0.818435" stroke-linecap="round"/>
<path d="M226.687 87.6336L225.396 86.3727" stroke="#F2D33B" stroke-width="0.818435" stroke-linecap="round"/>
<path d="M243.509 85.0112L226.349 84.6176" stroke="#F2D33B" stroke-width="0.818435" stroke-linecap="round"/>
<path d="M246.685 77.4872L224.328 82.8878" stroke="#F2D33B" stroke-width="0.818435" stroke-linecap="round"/>
<circle cx="221.028" cy="83.0834" r="0.818435" transform="rotate(-11.4674 221.028 83.0834)" fill="#542900"/>
<circle cx="222.957" cy="84.3622" r="0.818435" transform="rotate(-11.4674 222.957 84.3622)" fill="#542900"/>
<circle cx="221.678" cy="86.2918" r="0.818435" transform="rotate(-11.4674 221.678 86.2918)" fill="#542900"/>
<circle cx="219.749" cy="85.013" r="0.818435" transform="rotate(-11.4674 219.749 85.013)" fill="#542900"/>
<path d="M182.073 56.3215L187.25 48.2303" stroke="#F2D33B" stroke-width="0.744406" stroke-linecap="round"/>
<path d="M180.99 56.1212L178.555 49.7122" stroke="#F2D33B" stroke-width="0.744406" stroke-linecap="round"/>
<path d="M178.294 56.4042L171.089 50.3003" stroke="#F2D33B" stroke-width="0.744406" stroke-linecap="round"/>
<path d="M177.079 58.495L162.987 61.7261" stroke="#F2D33B" stroke-width="0.744406" stroke-linecap="round"/>
<path d="M176.753 61.9712L160.727 68.0903" stroke="#F2D33B" stroke-width="0.744406" stroke-linecap="round"/>
<path d="M175.105 69.9437L180.281 61.8525" stroke="#F2D33B" stroke-width="0.744406" stroke-linecap="round"/>
<path d="M181.687 67.6337L181.221 63.0799" stroke="#F2D33B" stroke-width="0.744406" stroke-linecap="round"/>
<path d="M185.686 64.6337L182.89 60.8061" stroke="#F2D33B" stroke-width="0.744406" stroke-linecap="round"/>
<path d="M190.686 63.6337L185.071 59.9317" stroke="#F2D33B" stroke-width="0.744406" stroke-linecap="round"/>
<path d="M201.053 55.7438L185.636 58.2051" stroke="#F2D33B" stroke-width="0.744406" stroke-linecap="round"/>
<path d="M202.66 48.4917L183.544 56.9889" stroke="#F2D33B" stroke-width="0.744406" stroke-linecap="round"/>
<circle cx="180.623" cy="57.7052" r="0.744406" transform="rotate(-21.8524 180.623 57.7052)" fill="#542900"/>
<circle cx="182.559" cy="58.5328" r="0.744406" transform="rotate(-21.8524 182.559 58.5328)" fill="#542900"/>
<circle cx="181.732" cy="60.4689" r="0.744406" transform="rotate(-21.8524 181.732 60.4689)" fill="#542900"/>
<circle cx="179.796" cy="59.6411" r="0.744406" transform="rotate(-21.8524 179.796 59.6411)" fill="#542900"/>
<path d="M251.451 112.739L260.421 106.332" stroke="#F2D33B" stroke-width="0.854279" stroke-linecap="round"/>
<path d="M250.382 112.063L250.526 104.196" stroke="#F2D33B" stroke-width="0.854279" stroke-linecap="round"/>
<path d="M247.39 111.213L242.322 101.634" stroke="#F2D33B" stroke-width="0.854279" stroke-linecap="round"/>
<path d="M245.203 112.921L228.812 110.343" stroke="#F2D33B" stroke-width="0.854279" stroke-linecap="round"/>
<path d="M243.37 116.484L223.687 116.156" stroke="#F2D33B" stroke-width="0.854279" stroke-linecap="round"/>
<path d="M240.687 122.634L246.687 117.634" stroke="#F2D33B" stroke-width="0.854279" stroke-linecap="round"/>
<path d="M246.687 121.634L247.655 119.574" stroke="#F2D33B" stroke-width="0.854279" stroke-linecap="round"/>
<path d="M250.687 121.634L250.405 117.865" stroke="#F2D33B" stroke-width="0.854279" stroke-linecap="round"/>
<path d="M255.686 121.634L253.101 117.865" stroke="#F2D33B" stroke-width="0.854279" stroke-linecap="round"/>
<path d="M271.913 120.231L254.44 116.267" stroke="#F2D33B" stroke-width="0.854279" stroke-linecap="round"/>
<path d="M276.723 113.193L252.732 114.078" stroke="#F2D33B" stroke-width="0.854279" stroke-linecap="round"/>
<circle cx="249.315" cy="113.594" r="0.854279" fill="#542900"/>
<circle cx="251.023" cy="115.302" r="0.854279" fill="#542900"/>
<circle cx="249.315" cy="117.011" r="0.854279" fill="#542900"/>
<circle cx="247.606" cy="115.302" r="0.854279" fill="#542900"/>
</svg>
