<svg width="503" height="255" viewBox="0 0 503 255" fill="none" xmlns="http://www.w3.org/2000/svg">
<path d="M236.278 63.5456C231.558 63.3557 222.587 64.5751 224.462 70.9725C226.337 77.3699 233.12 68.6868 236.278 63.5456Z" fill="#EFF0EC" stroke="#EFF0EC"/>
<path d="M121.278 160.357H126.278C125.078 172.357 137.778 182.024 144.278 185.357C148.278 194.557 160.945 203.191 166.778 206.357C172.111 206.524 183.478 206.557 186.278 205.357C189.078 204.157 193.111 208.191 194.778 210.357C198.778 214.357 205.778 213.357 208.778 212.357C214.611 207.524 227.978 198.457 234.778 200.857C239.978 206.057 256.945 204.357 264.778 202.857C271.278 208.191 286.078 218.357 293.278 216.357C305.278 211.857 324.278 210.857 331.278 209.857C336.878 209.057 340.278 201.191 341.278 197.357C341.111 199.857 347.678 204.757 375.278 204.357C402.878 203.957 417.111 187.857 420.778 179.857C436.778 181.857 453.111 164.691 459.278 155.857L449.778 150.857C456.178 134.057 449.778 125.524 445.778 123.357C444.578 116.557 440.611 114.191 438.778 113.857C435.445 112.857 427.578 109.557 422.778 104.357C415.578 89.1575 403.445 87.0241 398.278 87.8575C395.445 90.0241 387.078 91.6575 376.278 80.8575C377.878 69.6575 370.278 64.5241 366.278 63.3575C365.078 49.3575 357.111 46.1908 353.278 46.3575C347.945 46.8575 334.978 46.5575 325.778 41.3575C316.578 36.1575 308.945 39.1908 306.278 41.3575C303.445 45.1908 295.078 52.6575 284.278 51.8575C273.478 51.0575 267.778 58.5241 266.278 62.3575C264.611 62.8575 260.778 62.7575 258.778 58.3575C256.778 53.9575 249.945 45.8575 246.778 42.3575C242.778 36.7575 227.778 35.3575 220.778 35.3575C211.178 25.3575 203.111 25.5241 200.278 26.8575L188.778 35.3575C158.378 38.1575 154.778 52.1908 156.778 58.8575C150.778 64.0575 150.611 72.6908 151.278 76.3575C147.278 70.7575 136.611 67.0241 131.778 65.8575C132.611 64.8575 131.378 60.9574 119.778 53.3574C108.178 45.7574 96.6115 48.8574 92.2781 51.3574C83.7781 51.3574 78.2781 46.3574 77.2781 51.3574C76.4781 55.3574 67.9448 67.0241 63.7781 72.3574C56.4448 77.8574 43.1781 90.7574 48.7781 98.3574C57.1781 104.357 55.6115 110.191 53.7781 112.357C49.9448 114.857 43.8781 121.257 50.2781 126.857C63.4781 129.257 68.4448 131.524 69.2781 132.357L86.2781 147.857C85.4781 151.457 104.611 152.691 114.278 152.857L121.278 160.357Z" stroke="#EFF0EC"/>
<path d="M338.465 77.8378C336.081 78.6051 331.525 80.9747 332.369 84.3144C333.212 87.654 336.784 81.3882 338.465 77.8378Z" fill="#EFF0EC" stroke="#EFF0EC"/>
<path d="M395.386 185.8C398.463 185.954 405.047 185.318 406.77 181.539C408.492 177.76 399.898 182.805 395.386 185.8Z" fill="#EFF0EC" stroke="#EFF0EC"/>
<path d="M469.278 85.3575C456.478 63.7575 391.611 34.3575 360.778 22.3575C404.378 28.7575 448.945 59.3575 465.778 73.8575C476.111 82.0241 495.178 103.657 488.778 124.857C486.378 132.057 484.778 129.524 484.278 127.357C484.611 122.357 482.078 106.957 469.278 85.3575Z" fill="#EFF0EC" stroke="#EFF0EC"/>
<path d="M79.2781 215.857C146.478 245.057 224.278 253.357 254.778 253.857C323.445 252.191 468.778 225.657 500.778 132.857C439.778 253.857 167.211 251.67 69.7781 196.357C43.353 183.369 15.3534 165.165 4.38565 136.714C12.6935 159.24 34.9784 195.411 79.2781 215.857Z" fill="#CABA6E"/>
<path d="M500.778 132.857C514.378 73.6575 433.111 32.1908 390.778 18.8575C332.778 2.52412 188.278 -17.3425 74.2781 33.8575C10.2781 58.6575 -1.05523 105.857 1.27811 126.357C1.91979 129.294 2.94157 132.798 4.38565 136.714C15.3534 165.165 43.353 183.369 69.7781 196.357C167.211 251.67 439.778 253.857 500.778 132.857Z" fill="#D8D8C4"/>
<path d="M1.27811 126.357C-1.05523 105.857 10.2781 58.6575 74.2781 33.8575C188.278 -17.3425 332.778 2.52412 390.778 18.8575C433.111 32.1908 514.378 73.6575 500.778 132.857M1.27811 126.357C1.91979 129.294 2.94157 132.798 4.38565 136.714M1.27811 126.357C2.0638 129.954 3.10942 133.403 4.38565 136.714M500.778 132.857C468.778 225.657 323.445 252.191 254.778 253.857C224.278 253.357 146.478 245.057 79.2781 215.857C34.9784 195.411 12.6935 159.24 4.38565 136.714M500.778 132.857C439.778 253.857 167.211 251.67 69.7781 196.357C43.353 183.369 15.3534 165.165 4.38565 136.714" stroke="#F3DDD4"/>
<path d="M31.7782 68.3575C31.608 68.5066 31.4368 68.658 31.2645 68.8115C25.438 74.1355 14.443 89.8967 13.2782 114.357C12.0782 139.557 41.1115 166.191 55.7782 176.357L43.7782 170.357C36.1115 166.357 18.6782 152.357 10.2782 128.357C1.89706 101.242 19.1179 79.6359 31.2645 68.8115C31.4406 68.6506 31.6119 68.4992 31.7782 68.3575Z" fill="#F2EADC"/>
<path d="M236.278 63.5456C231.558 63.3557 222.587 64.5751 224.462 70.9725C226.337 77.3699 233.12 68.6868 236.278 63.5456Z" fill="#EFF0EC" stroke="#EFF0EC"/>
<path d="M234.778 200.857C239.978 206.057 256.945 204.357 264.778 202.857L274.278 196.607L283.778 190.357L274.278 192.085L267.278 193.357C251.678 195.357 239.111 184.857 234.778 179.357C232.095 176.809 226.67 173.634 222.778 177.08C222.379 177.433 221.995 177.857 221.633 178.357C221.139 179.04 220.683 179.867 220.278 180.857C216.678 189.657 228.445 197.857 234.778 200.857Z" fill="#4BC11E"/>
<path d="M213.278 168.857C211.597 172.857 217.244 178.524 220.278 180.857C220.683 179.867 221.139 179.04 221.633 178.357H221.278C215.278 176.357 213.445 171.191 213.278 168.857Z" fill="#4BC11E"/>
<path d="M69.2781 132.357L86.2781 147.857C85.9243 149.449 89.4689 150.579 94.3692 151.357C94.3388 146.857 96.7781 138.757 106.778 142.357C111.978 138.757 108.945 131.524 106.778 128.357L117.778 110.357C116.76 109.921 117.563 108.456 119.278 106.561C122.278 103.247 128.067 98.6144 131.778 95.8575C135.484 93.3376 146.836 89.9213 164.778 93.9797L151.278 76.3575C147.278 70.7575 136.611 67.0241 131.778 65.8575C132.611 64.8575 131.378 60.9574 119.778 53.3574C108.178 45.7574 96.6115 48.8574 92.2781 51.3574C83.7781 51.3574 78.2781 46.3574 77.2781 51.3574C76.4781 55.3574 67.9448 67.0241 63.7781 72.3574C56.4448 77.8574 43.1781 90.7574 48.7781 98.3574C57.1781 104.357 55.6115 110.191 53.7781 112.357C49.9448 114.857 43.8781 121.257 50.2781 126.857C63.4781 129.257 68.4448 131.524 69.2781 132.357Z" fill="#E78C49"/>
<path d="M214.278 118.857C209.445 115.024 194.178 105.057 171.778 95.8575C169.344 95.1051 167.01 94.4846 164.778 93.9797C146.836 89.9213 135.484 93.3376 131.778 95.8575C128.067 98.6144 122.278 103.247 119.278 106.561C124.945 109.327 134.978 116.057 129.778 120.857C123.278 126.857 125.778 128.857 127.778 132.357C129.378 135.157 135.445 138.524 138.278 139.857C139.445 142.691 143.078 149.557 148.278 154.357C155.078 154.357 159.111 148.024 160.278 144.857C164.611 142.191 173.678 137.957 175.278 142.357C171.278 151.357 164.578 170.257 169.778 173.857C174.978 177.457 181.278 175.357 183.778 173.857C186.111 173.191 191.178 173.357 192.778 179.357C194.378 185.357 198.445 169.191 200.278 160.357L212.778 154.357V144.857V139.857C208.778 136.956 203.478 128.694 214.278 118.857Z" fill="#E78C49"/>
<path d="M284.278 51.8575C273.478 51.0575 267.778 58.5241 266.278 62.3575L260.278 71.3575C259.697 73.2577 259.397 77.026 260.382 82.1642L274.778 93.3575L280.778 91.3575L283.278 98.3575L289.778 109.357L298.778 103.857L301.278 121.357L305.278 134.977L313.778 137.357C311.778 132.524 308.578 122.557 311.778 121.357C311.778 116.957 316.111 117.191 318.278 117.857C318.709 116.518 319.238 114.99 319.851 113.357C323.505 103.619 330.112 90.1723 336.278 90.8575C341.878 89.6575 351.945 82.6908 356.278 79.3575C358.945 76.5241 366.678 72.8575 376.278 80.8575C377.878 69.6575 370.278 64.5241 366.278 63.3575C365.078 49.3575 357.111 46.1908 353.278 46.3575C347.945 46.8575 334.978 46.5575 325.778 41.3575C316.578 36.1575 308.945 39.1908 306.278 41.3575C303.445 45.1908 295.078 52.6575 284.278 51.8575Z" fill="#E78C49"/>
<path d="M331.278 209.857C336.878 209.057 340.278 200.742 341.278 196.909V184.409V181.357V172.357C342.078 169.557 338.611 163.191 336.778 160.357L323.278 146.857L313.778 137.357L305.278 134.977L301.278 133.857C300.778 134.524 297.178 131.657 286.778 114.857C282.147 107.376 275.294 103.319 268.278 101.326C259.54 98.8433 250.548 99.5632 245.278 100.857L227.778 112.857L220.278 114.857L214.278 118.857C203.478 128.694 208.778 136.956 212.778 139.857V144.857C218.611 156.191 232.678 177.857 242.278 173.857C244.111 181.691 252.578 194.057 271.778 180.857L274.278 192.085L283.778 190.357L274.278 196.607C275.278 199.357 279.178 204.457 286.778 202.857C289.111 206.357 296.678 212.657 308.278 209.857C319.878 207.057 328.445 208.691 331.278 209.857Z" fill="#E78C49"/>
<path d="M188.778 35.3575C158.378 38.1575 154.778 52.1908 156.778 58.8575C153.725 61.5039 152.182 65.0397 151.491 68.3575C152.92 72.0241 156.678 79.1575 160.278 78.3575C163.878 77.5575 171.778 78.6908 175.278 79.3575C177.111 83.0241 182.878 90.3575 191.278 90.3575C199.678 90.3575 203.445 98.3575 204.278 102.357C209.111 100.691 220.878 97.9575 229.278 100.357C225.778 101.691 219.678 104.957 223.278 107.357C226.878 109.757 227.778 112.024 227.778 112.857L245.278 100.857C250.548 99.5632 259.54 98.8433 268.278 101.326C263.664 93.8902 261.372 87.3339 260.382 82.1642C259.397 77.026 259.697 73.2577 260.278 71.3575L266.278 62.3575C264.611 62.8575 260.778 62.7575 258.778 58.3575C256.778 53.9575 249.945 45.8575 246.778 42.3575C242.778 36.7575 227.778 35.3575 220.778 35.3575C211.178 25.3575 203.111 25.5241 200.278 26.8575L188.778 35.3575Z" fill="#E78C49"/>
<path d="M398.278 87.8575C395.445 90.0241 387.078 91.6575 376.278 80.8575C366.678 72.8575 358.945 76.5241 356.278 79.3575C351.945 82.6908 341.878 89.6575 336.278 90.8575C330.112 90.1723 323.505 103.619 319.851 113.357L320.278 113.857C321.611 119.191 324.578 129.957 325.778 130.357C327.278 130.857 343.778 99.8575 350.778 100.857C349.111 109.524 346.378 127.557 348.778 130.357C351.178 133.157 355.111 127.446 356.778 124.241C359.602 118.408 363.756 112.511 366.278 109.357L368.278 110.351L372.778 112.588C378.278 106.844 390.478 95.7575 395.278 97.3575C401.278 99.3575 395.278 108.474 398.278 116.357C400.678 122.664 408.945 123.652 412.778 123.357C414.977 123.346 419.066 125.653 417.827 134.977L433.778 142.905C437.378 133.344 444.611 126.887 447.778 124.854C447.092 124.193 446.405 123.697 445.778 123.357C444.578 116.557 440.611 114.191 438.778 113.857C435.445 112.857 427.578 109.557 422.778 104.357C415.578 89.1575 403.445 87.0241 398.278 87.8575Z" fill="#E78C49"/>
<path d="M121.278 160.357H126.278V144.857C120.945 141.357 112.878 131.257 123.278 118.857C128.778 113.857 121.278 111.857 117.778 110.357L106.778 128.357C108.945 131.524 111.978 138.757 106.778 142.357C96.7781 138.757 94.3388 146.857 94.3692 151.357C100.55 152.34 108.886 152.764 114.278 152.857L121.278 160.357Z" fill="#A1480B"/>
<path d="M171.778 95.8575C194.178 105.057 209.445 115.024 214.278 118.857L220.278 114.857L227.778 112.857C227.778 112.024 226.878 109.757 223.278 107.357C219.678 104.957 225.778 101.691 229.278 100.357C220.878 97.9575 209.111 100.691 204.278 102.357C203.445 98.3575 199.678 90.3575 191.278 90.3575C182.878 90.3575 177.111 83.0241 175.278 79.3575C171.778 78.6908 163.878 77.5575 160.278 78.3575C156.678 79.1575 152.92 72.0241 151.491 68.3575C150.824 71.5587 150.951 74.5569 151.278 76.3575L164.778 93.9797C167.01 94.4846 169.344 95.1051 171.778 95.8575Z" fill="#A1480B"/>
<path d="M208.778 212.357C214.611 207.524 227.978 198.457 234.778 200.857C228.445 197.857 216.678 189.657 220.278 180.857C217.244 178.524 211.597 172.857 213.278 168.857V167.857L216.278 166.528C214.765 162.255 213.513 157.581 212.778 154.357L200.278 160.357C198.445 169.191 194.378 185.357 192.778 179.357C191.178 173.357 186.111 173.191 183.778 173.857C181.278 175.357 174.978 177.457 169.778 173.857C164.578 170.257 171.278 151.357 175.278 142.357C173.678 137.957 164.611 142.191 160.278 144.857C159.111 148.024 155.078 154.357 148.278 154.357C143.078 149.557 139.445 142.691 138.278 139.857C135.445 138.524 129.378 135.157 127.778 132.357C125.778 128.857 123.278 126.857 129.778 120.857C134.978 116.057 124.945 109.327 119.278 106.561C117.563 108.456 116.76 109.921 117.778 110.357C121.278 111.857 128.778 113.857 123.278 118.857C112.878 131.257 120.945 141.357 126.278 144.857V160.357C125.078 172.357 137.778 182.024 144.278 185.357C148.278 194.557 160.945 203.191 166.778 206.357C172.111 206.524 183.478 206.557 186.278 205.357C189.078 204.157 193.111 208.191 194.778 210.357C198.778 214.357 205.778 213.357 208.778 212.357Z" fill="#A1480B"/>
<path d="M286.778 114.857C297.178 131.657 300.778 134.524 301.278 133.857L305.278 134.977L301.278 121.357L298.778 103.857L289.778 109.357L283.278 98.3575L280.778 91.3575L274.778 93.3575L260.382 82.1642C261.372 87.3339 263.664 93.8902 268.278 101.326C275.294 103.319 282.147 107.376 286.778 114.857Z" fill="#A1480B"/>
<path d="M234.778 179.357C239.111 184.857 251.678 195.357 267.278 193.357L274.278 192.085L271.778 180.857C252.578 194.057 244.111 181.691 242.278 173.857C232.678 177.857 218.611 156.191 212.778 144.857V154.357C213.513 157.581 214.765 162.255 216.278 166.528C218.199 171.953 220.541 176.732 222.778 177.08C226.67 173.634 232.095 176.809 234.778 179.357Z" fill="#A1480B"/>
<path d="M293.278 216.357C305.278 211.857 324.278 210.857 331.278 209.857C328.445 208.691 319.878 207.057 308.278 209.857C296.678 212.657 289.111 206.357 286.778 202.857C279.178 204.457 275.278 199.357 274.278 196.607L264.778 202.857C271.278 208.191 286.078 218.357 293.278 216.357Z" fill="#A1480B"/>
<path d="M213.278 168.857C213.445 171.191 215.278 176.357 221.278 178.357H221.633C221.995 177.857 222.379 177.433 222.778 177.08C220.541 176.732 218.199 171.953 216.278 166.528L213.278 167.857V168.857Z" fill="#A1480B"/>
<path d="M311.778 121.357C308.578 122.557 311.778 132.524 313.778 137.357L323.278 146.857L325.778 142.357C330.341 144.607 338.538 148.007 349.778 151.771C352.883 152.81 356.221 153.878 359.778 154.957C357.611 151.09 353.378 141.457 353.778 133.857C353.926 131.05 355.124 127.657 356.778 124.241C355.111 127.446 351.178 133.157 348.778 130.357C346.378 127.557 349.111 109.524 350.778 100.857C343.778 99.8575 327.278 130.857 325.778 130.357C324.578 129.957 321.611 119.191 320.278 113.857L319.851 113.357C319.238 114.99 318.709 116.518 318.278 117.857C316.111 117.191 311.778 116.957 311.778 121.357Z" fill="#A1480B"/>
<path d="M372.778 112.588L390.423 121.357L417.827 134.977C419.066 125.653 414.977 123.346 412.778 123.357C408.945 123.652 400.678 122.664 398.278 116.357C395.278 108.474 401.278 99.3575 395.278 97.3575C390.478 95.7575 378.278 106.844 372.778 112.588Z" fill="#A1480B"/>
<path d="M441.278 146.633L449.778 150.857C455.175 136.692 451.47 128.403 447.778 124.854C444.611 126.887 437.378 133.344 433.778 142.905L434.278 143.154L441.278 146.633Z" fill="#A1480B"/>
<path d="M433.778 143.357C431.611 143.691 427.378 146.057 427.778 152.857C424.111 152.524 416.678 150.557 416.278 145.357C416.278 143.757 410.278 147.691 407.278 149.857C404.778 150.857 398.878 150.457 395.278 140.857C391.111 141.857 383.478 142.057 386.278 134.857C389.078 127.657 382.778 129.857 379.278 131.857C378.611 136.691 380.378 147.857 392.778 153.857C405.178 159.857 417.611 160.357 422.278 159.857C425.778 159.374 434.478 156.053 441.278 146.633L434.278 143.154L433.778 143.357Z" fill="#CD3B1F"/>
<path d="M353.778 133.857C353.378 141.457 357.611 151.09 359.778 154.957C366.789 157.084 374.655 159.254 383.278 161.341C377.778 157.513 365.778 148.957 361.778 145.357C357.778 141.757 356.778 129.78 356.778 124.241C355.124 127.657 353.926 131.05 353.778 133.857Z" fill="#CD3B1F"/>
<path d="M350.778 160.409L347.778 159.409C346.248 161.581 343.687 164.631 342.278 164.655C342.945 169.906 350.078 180.809 373.278 182.409C396.478 184.009 403.611 171.779 404.278 165.464C400.33 164.698 396.494 163.902 392.778 163.085C392.778 166.026 394.445 168.193 395.278 168.909C393.66 171.742 389.794 176.109 387.278 170.909C384.762 165.709 380.897 167.409 379.278 168.909C377.278 170.909 372.478 174.909 369.278 174.909C366.078 174.909 361.278 170.242 359.278 167.909C358.278 168.576 355.778 169.709 353.778 168.909C348.978 166.509 349.778 162.242 350.778 160.409Z" fill="#CD3B1F"/>
<path d="M375.278 203.909C402.878 203.509 417.111 187.409 420.778 179.409L424.278 168.909C411.34 195.087 382.5 195.933 360.278 190.773C352.959 189.073 346.357 186.722 341.278 184.409V196.909C341.111 199.409 347.678 204.309 375.278 203.909Z" fill="#CD3B1F"/>
<path d="M336.778 160.357C338.611 163.191 342.078 169.557 341.278 172.357V181.357L360.278 190.773C382.5 195.933 411.34 195.087 424.278 168.909C417.334 167.862 410.659 166.702 404.278 165.464C403.611 171.779 396.478 184.009 373.278 182.409C350.078 180.809 342.945 169.906 342.278 164.655C341.633 164.666 341.23 164.491 341.278 162.857C341.432 157.657 347.009 153.299 349.778 151.771C338.538 148.007 330.341 144.607 325.778 142.357L323.278 146.857L336.778 160.357Z" fill="#DB6766"/>
<path d="M459.278 155.857L449.778 150.857L441.278 146.633C434.478 156.053 425.778 159.374 422.278 159.857C417.611 160.357 405.178 159.857 392.778 153.857C380.378 147.857 378.611 136.691 379.278 131.857C375.945 131.857 371.678 130.657 381.278 125.857L390.423 121.357L372.778 112.588L368.278 110.351C365.611 116.52 361.078 131.557 364.278 142.357L383.278 161.341C386.35 162.084 389.518 162.369 392.778 163.085C396.494 163.902 400.33 164.698 404.278 165.464C410.659 166.702 417.334 167.862 424.278 168.909L420.778 179.409C436.778 181.409 453.111 164.691 459.278 155.857Z" fill="#DB6766"/>
<path d="M383.278 161.341C374.655 159.254 366.789 157.084 359.778 154.957C356.221 153.878 352.883 152.81 349.778 151.771C347.009 153.299 341.432 157.657 341.278 162.857C341.23 164.491 341.633 164.666 342.278 164.655C343.687 164.631 346.248 161.581 347.778 159.409L350.778 160.409C349.778 162.242 348.978 166.509 353.778 168.909C355.778 169.709 358.278 168.576 359.278 167.909C361.278 170.242 366.078 174.909 369.278 174.909C372.478 174.909 377.278 170.909 379.278 168.909C380.897 167.409 384.762 165.709 387.278 170.909C389.794 176.109 393.66 171.742 395.278 168.909C394.445 168.193 392.778 166.026 392.778 163.085C389.518 162.369 386.35 162.084 383.278 161.341Z" fill="#EBBD81"/>
<path d="M427.778 152.857C427.378 146.057 431.611 143.691 433.778 143.357L434.278 143.154L433.778 142.905L417.827 134.977L390.423 121.357L381.278 125.857C371.678 130.657 375.945 131.857 379.278 131.857C382.778 129.857 389.078 127.657 386.278 134.857C383.478 142.057 391.111 141.857 395.278 140.857C398.878 150.457 404.778 150.857 407.278 149.857C410.278 147.691 416.278 143.757 416.278 145.357C416.678 150.557 424.111 152.524 427.778 152.857Z" fill="#EBBD81"/>
<path d="M366.278 109.357C363.756 112.511 359.602 118.408 356.778 124.241C356.778 129.78 357.778 141.757 361.778 145.357C365.778 148.957 377.778 157.513 383.278 161.341L364.278 142.357C361.078 131.557 365.611 116.52 368.278 110.351L366.278 109.357Z" fill="#EBBD81"/>
<path d="M341.278 181.357V184.409C346.357 186.722 352.959 189.073 360.278 190.773L341.278 181.357Z" fill="#DB6766"/>
<path d="M126.278 160.357H121.278L114.278 152.857C108.886 152.764 100.55 152.34 94.3692 151.357M126.278 160.357C125.078 172.357 137.778 182.024 144.278 185.357C148.278 194.557 160.945 203.191 166.778 206.357C172.111 206.524 183.478 206.557 186.278 205.357C189.078 204.157 193.111 208.191 194.778 210.357C198.778 214.357 205.778 213.357 208.778 212.357C214.611 207.524 227.978 198.457 234.778 200.857M126.278 160.357V144.857C120.945 141.357 112.878 131.257 123.278 118.857C128.778 113.857 121.278 111.857 117.778 110.357M151.278 76.3575C147.278 70.7575 136.611 67.0241 131.778 65.8575C132.611 64.8575 131.378 60.9574 119.778 53.3574C108.178 45.7574 96.6115 48.8574 92.2781 51.3574C83.7781 51.3574 78.2781 46.3574 77.2781 51.3574C76.4781 55.3574 67.9448 67.0241 63.7781 72.3574C56.4448 77.8574 43.1781 90.7574 48.7781 98.3574C57.1781 104.357 55.6115 110.191 53.7781 112.357C49.9448 114.857 43.8781 121.257 50.2781 126.857C63.4781 129.257 68.4448 131.524 69.2781 132.357L86.2781 147.857C85.9243 149.449 89.4689 150.579 94.3692 151.357M151.278 76.3575L164.778 93.9797M151.278 76.3575C150.951 74.5569 150.824 71.5587 151.491 68.3575M266.278 62.3575C264.611 62.8575 260.778 62.7575 258.778 58.3575C256.778 53.9575 249.945 45.8575 246.778 42.3575C242.778 36.7575 227.778 35.3575 220.778 35.3575C211.178 25.3575 203.111 25.5241 200.278 26.8575L188.778 35.3575C158.378 38.1575 154.778 52.1908 156.778 58.8575C153.725 61.5039 152.182 65.0397 151.491 68.3575M266.278 62.3575C267.778 58.5241 273.478 51.0575 284.278 51.8575C295.078 52.6575 303.445 45.1908 306.278 41.3575C308.945 39.1908 316.578 36.1575 325.778 41.3575C334.978 46.5575 347.945 46.8575 353.278 46.3575C357.111 46.1908 365.078 49.3575 366.278 63.3575C370.278 64.5241 377.878 69.6575 376.278 80.8575M266.278 62.3575L260.278 71.3575C259.697 73.2577 259.397 77.026 260.382 82.1642M376.278 80.8575C387.078 91.6575 395.445 90.0241 398.278 87.8575C403.445 87.0241 415.578 89.1575 422.778 104.357C427.578 109.557 435.445 112.857 438.778 113.857C440.611 114.191 444.578 116.557 445.778 123.357C446.405 123.697 447.092 124.193 447.778 124.854M376.278 80.8575C366.678 72.8575 358.945 76.5241 356.278 79.3575C351.945 82.6908 341.878 89.6575 336.278 90.8575C330.112 90.1723 323.505 103.619 319.851 113.357M449.778 150.857L459.278 155.857C453.111 164.691 436.778 181.409 420.778 179.409M449.778 150.857L441.278 146.633M449.778 150.857C455.175 136.692 451.47 128.403 447.778 124.854M420.778 179.409C417.111 187.409 402.878 203.509 375.278 203.909C347.678 204.309 341.111 199.409 341.278 196.909M420.778 179.409L424.278 168.909M341.278 196.909C340.278 200.742 336.878 209.057 331.278 209.857M341.278 196.909V184.409M331.278 209.857C324.278 210.857 305.278 211.857 293.278 216.357C286.078 218.357 271.278 208.191 264.778 202.857M331.278 209.857C328.445 208.691 319.878 207.057 308.278 209.857C296.678 212.657 289.111 206.357 286.778 202.857C279.178 204.457 275.278 199.357 274.278 196.607M264.778 202.857C256.945 204.357 239.978 206.057 234.778 200.857M264.778 202.857L274.278 196.607M234.778 200.857C228.445 197.857 216.678 189.657 220.278 180.857M117.778 110.357L106.778 128.357C108.945 131.524 111.978 138.757 106.778 142.357C96.7781 138.757 94.3388 146.857 94.3692 151.357M117.778 110.357C116.76 109.921 117.563 108.456 119.278 106.561M214.278 118.857C209.445 115.024 194.178 105.057 171.778 95.8575C169.344 95.1051 167.01 94.4846 164.778 93.9797M214.278 118.857L220.278 114.857L227.778 112.857M214.278 118.857C203.478 128.694 208.778 136.956 212.778 139.857V144.857M227.778 112.857L245.278 100.857C250.548 99.5632 259.54 98.8433 268.278 101.326M227.778 112.857C227.778 112.024 226.878 109.757 223.278 107.357C219.678 104.957 225.778 101.691 229.278 100.357C220.878 97.9575 209.111 100.691 204.278 102.357C203.445 98.3575 199.678 90.3575 191.278 90.3575C182.878 90.3575 177.111 83.0241 175.278 79.3575C171.778 78.6908 163.878 77.5575 160.278 78.3575C156.678 79.1575 152.92 72.0241 151.491 68.3575M313.778 137.357C311.778 132.524 308.578 122.557 311.778 121.357C311.778 116.957 316.111 117.191 318.278 117.857C318.709 116.518 319.238 114.99 319.851 113.357M313.778 137.357L305.278 134.977M313.778 137.357L323.278 146.857M220.278 180.857C217.244 178.524 211.597 172.857 213.278 168.857M220.278 180.857C220.683 179.867 221.139 179.04 221.633 178.357M119.278 106.561C122.278 103.247 128.067 98.6144 131.778 95.8575C135.484 93.3376 146.836 89.9213 164.778 93.9797M119.278 106.561C124.945 109.327 134.978 116.057 129.778 120.857C123.278 126.857 125.778 128.857 127.778 132.357C129.378 135.157 135.445 138.524 138.278 139.857C139.445 142.691 143.078 149.557 148.278 154.357C155.078 154.357 159.111 148.024 160.278 144.857C164.611 142.191 173.678 137.957 175.278 142.357C171.278 151.357 164.578 170.257 169.778 173.857C174.978 177.457 181.278 175.357 183.778 173.857C186.111 173.191 191.178 173.357 192.778 179.357C194.378 185.357 198.445 169.191 200.278 160.357L212.778 154.357M212.778 154.357V144.857M212.778 154.357C213.513 157.581 214.765 162.255 216.278 166.528M222.778 177.08C226.67 173.634 232.095 176.809 234.778 179.357C239.111 184.857 251.678 195.357 267.278 193.357L274.278 192.085M222.778 177.08C222.379 177.433 221.995 177.857 221.633 178.357M222.778 177.08C220.541 176.732 218.199 171.953 216.278 166.528M212.778 144.857C218.611 156.191 232.678 177.857 242.278 173.857C244.111 181.691 252.578 194.057 271.778 180.857L274.278 192.085M274.278 192.085L283.778 190.357L274.278 196.607M268.278 101.326C275.294 103.319 282.147 107.376 286.778 114.857C297.178 131.657 300.778 134.524 301.278 133.857L305.278 134.977M268.278 101.326C263.664 93.8902 261.372 87.3339 260.382 82.1642M260.382 82.1642L274.778 93.3575L280.778 91.3575L283.278 98.3575L289.778 109.357L298.778 103.857L301.278 121.357L305.278 134.977M323.278 146.857L336.778 160.357C338.611 163.191 342.078 169.557 341.278 172.357V181.357M323.278 146.857L325.778 142.357C330.341 144.607 338.538 148.007 349.778 151.771M424.278 168.909C417.334 167.862 410.659 166.702 404.278 165.464M424.278 168.909C411.34 195.087 382.5 195.933 360.278 190.773M359.778 154.957C357.611 151.09 353.378 141.457 353.778 133.857C353.926 131.05 355.124 127.657 356.778 124.241M359.778 154.957C366.789 157.084 374.655 159.254 383.278 161.341M359.778 154.957C356.221 153.878 352.883 152.81 349.778 151.771M379.278 131.857C382.778 129.857 389.078 127.657 386.278 134.857C383.478 142.057 391.111 141.857 395.278 140.857C398.878 150.457 404.778 150.857 407.278 149.857C410.278 147.691 416.278 143.757 416.278 145.357C416.678 150.557 424.111 152.524 427.778 152.857C427.378 146.057 431.611 143.691 433.778 143.357L434.278 143.154M379.278 131.857C375.945 131.857 371.678 130.657 381.278 125.857L390.423 121.357M379.278 131.857C378.611 136.691 380.378 147.857 392.778 153.857C405.178 159.857 417.611 160.357 422.278 159.857C425.778 159.374 434.478 156.053 441.278 146.633M390.423 121.357L372.778 112.588M390.423 121.357L417.827 134.977M441.278 146.633L434.278 143.154M356.778 124.241C359.602 118.408 363.756 112.511 366.278 109.357L368.278 110.351M356.778 124.241C356.778 129.78 357.778 141.757 361.778 145.357C365.778 148.957 377.778 157.513 383.278 161.341M356.778 124.241C355.111 127.446 351.178 133.157 348.778 130.357C346.378 127.557 349.111 109.524 350.778 100.857C343.778 99.8575 327.278 130.857 325.778 130.357C324.578 129.957 321.611 119.191 320.278 113.857L319.851 113.357M383.278 161.341L364.278 142.357C361.078 131.557 365.611 116.52 368.278 110.351M383.278 161.341C386.35 162.084 389.518 162.369 392.778 163.085M368.278 110.351L372.778 112.588M349.778 151.771C347.009 153.299 341.432 157.657 341.278 162.857C341.23 164.491 341.633 164.666 342.278 164.655M392.778 163.085C392.778 166.026 394.445 168.193 395.278 168.909C393.66 171.742 389.794 176.109 387.278 170.909C384.762 165.709 380.897 167.409 379.278 168.909C377.278 170.909 372.478 174.909 369.278 174.909C366.078 174.909 361.278 170.242 359.278 167.909C358.278 168.576 355.778 169.709 353.778 168.909C348.978 166.509 349.778 162.242 350.778 160.409L347.778 159.409C346.248 161.581 343.687 164.631 342.278 164.655M392.778 163.085C396.494 163.902 400.33 164.698 404.278 165.464M342.278 164.655C342.945 169.906 350.078 180.809 373.278 182.409C396.478 184.009 403.611 171.779 404.278 165.464M341.278 184.409V181.357M341.278 184.409C346.357 186.722 352.959 189.073 360.278 190.773M341.278 181.357L360.278 190.773M213.278 168.857C213.445 171.191 215.278 176.357 221.278 178.357H221.633M213.278 168.857V167.857M150.278 193.357C154.611 195.857 166.578 199.057 179.778 191.857C184.178 188.657 189.611 193.857 191.778 196.857C195.445 199.191 202.678 200.957 202.278 189.357C201.878 177.757 209.445 170.191 213.278 167.857M213.278 167.857L216.278 166.528M372.778 112.588C378.278 106.844 390.478 95.7575 395.278 97.3575C401.278 99.3575 395.278 108.474 398.278 116.357C400.678 122.664 408.945 123.652 412.778 123.357C414.977 123.346 419.066 125.653 417.827 134.977M417.827 134.977L433.778 142.905M447.778 124.854C444.611 126.887 437.378 133.344 433.778 142.905M433.778 142.905L434.278 143.154" stroke="#454545" stroke-width="0.5"/>
<path d="M193.778 137.857C191.611 140.024 188.078 145.057 191.278 147.857C194.478 150.657 194.278 142.357 193.778 137.857Z" fill="#EFF0EC" stroke="#EFF0EC"/>
<path d="M160.375 125.872C157.442 124.988 151.336 124.255 150.382 128.398C149.428 132.542 156.647 128.441 160.375 125.872Z" fill="#EFF0EC" stroke="#EFF0EC"/>
<path d="M354.802 63.2616C350.625 61.3161 341.329 58.68 337.558 63.6996C333.787 68.7192 347.482 65.4991 354.802 63.2616Z" fill="#EFF0EC" stroke="#EFF0EC"/>
<path d="M423.331 117.511C423.477 120.01 424.63 125.014 428.075 125.034C431.519 125.054 426.347 120.027 423.331 117.511Z" fill="#EFF0EC" stroke="#EFF0EC"/>
<path d="M87.2781 78.5393C81.2781 78.5393 77.4447 74.8726 76.2781 73.0393C80.2781 74.6393 90.2781 71.3726 94.7781 69.5393C100.778 68.3393 108.611 73.3726 111.778 76.0393C101.778 70.8393 96.9447 72.5393 95.7781 74.0393C95.4447 75.5393 93.2781 78.5393 87.2781 78.5393Z" fill="#EFF0EC" stroke="#EFF0EC"/>
<path d="M149.278 112.721C143.278 112.721 139.445 109.054 138.278 107.221C142.278 108.821 152.278 105.554 156.778 103.721C162.778 102.521 169.611 104.554 172.778 107.221C171.778 108.039 172.778 110.221 160.278 110.221C159.945 111.721 155.278 112.721 149.278 112.721Z" fill="#EFF0EC" stroke="#EFF0EC"/>
<path d="M247.105 120.137C241.745 122.634 239.313 126.361 238.768 127.913C241.908 125.318 251.726 123.056 256.243 122.249C261.928 120.45 267.481 116.424 269.588 113.556C268.473 113.496 268.775 111.811 257.609 117.013C256.904 116.279 252.465 117.64 247.105 120.137Z" fill="#EFF0EC" stroke="#EFF0EC"/>
<path d="M268.326 128.39C266.663 129.165 266.029 130.578 265.92 131.188C266.841 130.271 269.993 129.799 271.454 129.677C273.256 129.204 274.912 127.812 275.478 126.735C275.105 126.66 275.128 125.984 271.665 127.597C271.397 127.264 269.988 127.616 268.326 128.39Z" fill="#EFF0EC" stroke="#EFF0EC"/>
<path d="M262.955 155.392C262.586 157.189 263.343 158.54 263.767 158.992C263.58 157.705 265.08 154.893 265.854 153.648C266.548 151.919 266.418 149.76 265.891 148.664C265.608 148.918 265.079 148.497 264.31 152.239C263.883 152.255 263.325 153.596 262.955 155.392Z" fill="#EFF0EC" stroke="#EFF0EC"/>
<path d="M297.561 159.865C296.612 164.155 298.328 167.411 299.305 168.502C298.924 165.417 302.576 158.724 304.45 155.763C306.15 151.664 304.469 147.9 308.214 145.4C308.238 145.388 308.26 145.374 308.278 145.357C308.257 145.372 308.235 145.386 308.214 145.4C307.346 145.828 302.81 143.654 300.886 152.349C299.883 152.377 298.511 155.574 297.561 159.865Z" fill="#EFF0EC" stroke="#EFF0EC"/>
<path d="M242.589 194.955C246.405 197.243 249.43 197.724 250.466 197.679C247.666 196.582 241.829 191.896 239.261 189.691C235.657 187.097 232.175 186.384 230.122 183.408C230.113 183.391 230.101 183.374 230.087 183.357C230.099 183.374 230.11 183.391 230.122 183.408C230.461 184.034 228.26 185.457 235.994 190.093C235.965 190.621 238.773 192.667 242.589 194.955Z" fill="#EFF0EC" stroke="#EFF0EC"/>
<path d="M307.278 62.1034C308.611 57.7701 314.778 49.9034 328.778 53.1034C323.445 52.9368 311.678 54.5034 307.278 62.1034Z" fill="#EFF0EC" stroke="#EFF0EC"/>
<path d="M333.217 117.005C332.186 110.835 331.998 99.1777 339.485 101.91C337.028 102.328 332.335 105.933 333.217 117.005Z" fill="#EFF0EC" stroke="#EFF0EC"/>
<path d="M359.942 102.486C358.911 96.3162 358.722 84.6591 366.21 87.3917C363.753 87.8098 359.06 91.414 359.942 102.486Z" fill="#EFF0EC" stroke="#EFF0EC"/>
<path d="M406.278 104.304C407.907 109.456 411.473 118.645 412.703 114.18C411.892 114.615 409.47 113.249 406.278 104.304Z" fill="#EFF0EC" stroke="#EFF0EC"/>
<path d="M217.007 42.1035C209.017 40.3851 190.95 38.6716 182.594 45.5647C174.239 52.4579 202.055 46.1294 217.007 42.1035Z" fill="#EFF0EC" stroke="#EFF0EC"/>
<path d="M228.092 49.4981C224.806 49.8886 217.219 51.0071 213.156 52.357C209.092 53.7069 221.42 51.0135 228.092 49.4981Z" fill="#EFF0EC" stroke="#EFF0EC"/>
<path d="M240.062 49.7309C238.034 48.8479 234.45 47.7379 236.348 50.3614C238.245 52.9849 239.615 51.0342 240.062 49.7309Z" fill="#EFF0EC" stroke="#EFF0EC"/>
<path d="M371.337 124.61C370.582 127.597 369.916 134.179 373.284 136.608C376.652 139.038 373.389 129.621 371.337 124.61Z" fill="#EFF0EC" stroke="#EFF0EC"/>
<path d="M398.266 185.771C401.344 185.061 408.054 182.758 410.265 179.23C412.476 175.702 403.187 182.121 398.266 185.771Z" fill="#EFF0EC" stroke="#EFF0EC"/>
</svg>
