<svg width="100" height="68" viewBox="0 0 100 68" fill="none" xmlns="http://www.w3.org/2000/svg">
<path d="M10.0596 49.5648C-6.97098 33.7654 5.0154 19.6416 13.1374 14.5547C49.1479 -11.9145 82.3455 7.45861 94.443 20.4538C105.626 35.1248 92.2629 49.0519 84.1837 54.1816C51.8666 72.9562 21.3022 58.9265 10.0596 49.5648Z" fill="#E9E3CD" stroke="#511C00" stroke-width="2.33217"/>
<path d="M84.1839 54.1815C51.8668 72.9562 21.3024 58.9265 10.0598 49.5648C5.9051 45.7104 3.47732 41.9558 2.29907 38.4077C2.74862 46.1023 12.7273 62.4147 49.0455 66.1081C64.1871 65.8088 95.2242 59.4138 98.2399 36.2276C96.3425 44.337 89.2319 50.9765 84.1839 54.1815Z" fill="#C3B171"/>
<path d="M48.6608 55.464C24.5512 55.5665 16.9849 41.9985 16.2155 35.2017L23.6535 20.4538C42.1204 14.3409 80.0801 7.42439 84.1839 28.6613C88.2876 49.8982 62.2117 55.3785 48.6608 55.464Z" fill="#C3B171"/>
<path d="M84.1839 54.1815C51.8668 72.9562 21.3024 58.9265 10.0598 49.5648C5.9051 45.7104 3.47732 41.9558 2.29907 38.4077C2.74862 46.1023 12.7273 62.4147 49.0455 66.1081C64.1871 65.8088 95.2242 59.4138 98.2399 36.2276C96.3425 44.337 89.2319 50.9765 84.1839 54.1815Z" stroke="#53190D" stroke-width="2.33217"/>
<path d="M48.6608 55.464C24.5512 55.5665 16.9849 41.9985 16.2155 35.2017L23.6535 20.4538C42.1204 14.3409 80.0801 7.42439 84.1839 28.6613C88.2876 49.8982 62.2117 55.3785 48.6608 55.464Z" stroke="#53190D" stroke-width="2.33217"/>
<path d="M14.6762 8.42496C23.6019 4.93677 31.2526 8.11481 33.9622 10.1399C34.599 8.68105 35.7287 7.01366 37.5033 5.53365C40.3802 3.13447 44.9519 1.22766 51.8665 1.49989C52.1694 1.49989 52.5134 1.51447 52.8924 1.54644C52.9321 1.54812 52.9742 1.55188 53.0186 1.55761C56.3395 1.86534 62.1928 3.47846 66.7498 8.16848C71.4928 5.82294 80.5375 3.44744 87.1331 7.50535C87.2189 7.5172 87.3106 7.57819 87.4061 7.67792C89.5502 9.07011 91.4199 11.1664 92.7758 14.1959C92.7873 18.7886 90.0858 26.5717 80.721 30.1703C77.1225 31.553 72.5401 32.3179 66.7498 32.0465C67.8218 33.0948 68.6724 34.2392 69.3338 35.3558C69.7879 36.1225 70.1528 36.876 70.4391 37.5763C70.8677 38.6248 71.12 39.554 71.2311 40.229C71.5176 41.3602 71.5121 42.4294 71.275 43.4351C70.2475 47.7933 64.8717 50.9586 60.074 52.7984C58.4474 53.4222 56.8872 53.8936 55.5855 54.2075C39.3159 55.236 32.747 48.1049 31.0634 43.4351C30.8998 42.9811 30.7823 42.5504 30.7065 42.1527C30.2422 41.0694 30.1682 39.9428 30.3718 38.8184C30.5007 38.1067 30.7407 37.3959 31.0634 36.6974C31.6355 35.4592 32.4673 34.2599 33.3996 33.1638C23.9609 35.9594 15.5312 30.1473 12.4961 26.8919C8.89169 23.2499 7.5705 20.0694 7.58087 17.4019C7.59379 14.077 9.67554 11.549 11.9831 9.91795C12.8829 9.28196 13.817 8.78232 14.6762 8.42496Z" fill="#E7E5CC"/>
<path d="M58.9509 27.1598C52.9032 28.3935 40.9036 27.7602 33.3996 16.5042V20.4797C33.3996 20.9032 33.4789 21.3235 33.6499 21.711C34.0765 22.6777 34.6808 23.8743 35.4236 25.0964C36.2084 26.3879 37.148 27.7079 38.1959 28.8155C37.6027 29.2263 36.9224 29.7474 36.2149 30.3544C35.0627 29.6277 31.912 28.1229 28.5264 27.9178C31.0726 27.8323 36.0168 27.1483 35.4236 25.0964C34.6808 23.8743 34.0765 22.6777 33.6499 21.711C33.4789 21.3235 33.3996 20.9032 33.3996 20.4797V16.5042V15.4782V11.8875C33.5027 11.3657 33.6862 10.7723 33.9622 10.1398C34.599 8.68101 35.7287 7.01362 37.5033 5.53361C36.9904 6.60971 36.1183 8.8997 36.7339 9.45086C35.5284 10.605 34.1332 13.6316 38.1959 16.5042C39.3329 16.9317 42.2996 18.3252 45.0696 20.4797C42.9323 19.6248 38.1959 17.8379 36.3492 17.5301C36.4057 17.6082 36.4658 17.6915 36.529 17.7793C38.2872 20.2231 41.5911 22.7478 44.3154 24.029C46.8455 25.2188 48.8983 26.1247 51.6729 26.469C54.1235 26.7732 56.6491 26.8683 57.6374 26.2506C59.5416 25.6297 63.3381 24.4555 63.7624 24.5682C63.0878 24.2344 61.8363 23.7271 61.3791 23.9234C61.3251 23.9748 61.2745 24.0241 61.2282 24.0705C61.2556 24.002 61.3076 23.9541 61.3791 23.9234C62.0226 23.3115 63.1579 22.4095 63.5365 22.7881C62.9808 22.1896 60.6383 21.0696 55.7137 21.3774C58.9246 20.437 65.627 18.6843 66.7498 19.1973C66.8756 20.437 67.3581 22.0699 68.2815 18.6843C68.5738 17.1905 68.4072 14.5025 66.2411 13.117C64.8071 12.1998 63.5823 11.7335 62.5557 10.3759C61.5705 9.07313 60.1763 6.96245 58.9705 5.86071C58.1109 5.07526 56.6571 4.47303 54.3031 4.57765C55.4145 4.32117 57.8169 3.88514 58.5351 4.19293C57.174 3.3609 54.237 1.715 53.0186 1.55757C52.9761 1.55364 52.934 1.54992 52.8924 1.5464C52.9321 1.54808 52.9742 1.55184 53.0186 1.55757C56.3395 1.8653 62.1928 3.47842 66.7498 8.16844C67.1426 8.57268 67.5257 8.99977 67.8968 9.45086C69.0817 11.0835 70.5586 14.1695 70.4391 17.4019C70.5685 18.3112 70.5309 19.2122 70.3604 20.095C70.2515 20.659 70.0884 21.2155 69.8799 21.7621C68.8512 24.459 66.7192 26.9126 64.5539 28.8155C66.5232 29.0537 69.3331 29.7153 64.8189 30.4553C65.5303 30.9448 66.1722 31.4817 66.7498 32.0465C72.5401 32.3179 77.1225 31.553 80.721 30.1702C82.2382 28.5217 85.5677 25.2247 86.7484 25.2247C87.7562 23.629 89.8529 20.4164 90.3158 20.1087C89.3599 20.6688 87.0145 21.7621 85.0812 21.7621C88.0735 19.3683 93.0579 13.965 89.0567 11.5027C88.7256 10.3865 87.9956 8.29372 87.4061 7.67788C87.3156 7.61911 87.2246 7.56159 87.1331 7.50531C87.2189 7.51717 87.3106 7.57815 87.4061 7.67788C89.5502 9.07007 91.4199 11.1663 92.7758 14.1958C92.7873 18.7886 90.0858 26.5717 80.721 30.1702C77.1225 31.553 72.5401 32.3179 66.7498 32.0465C67.8218 33.0948 68.6724 34.2392 69.3338 35.3558C69.7879 36.1225 70.1528 36.876 70.4391 37.5763C70.8677 38.6248 71.12 39.554 71.2311 40.229C71.5176 41.3601 71.5121 42.4294 71.275 43.4351C70.2475 47.7932 64.8717 50.9585 60.074 52.7984C58.4474 53.4221 56.8872 53.8935 55.5855 54.2074C39.3159 55.236 32.747 48.1048 31.0634 43.4351C30.8998 42.9811 30.7823 42.5504 30.7065 42.1527C30.2422 41.0694 30.1682 39.9428 30.3718 38.8184C30.5007 38.1067 30.7407 37.3958 31.0634 36.6974C31.6355 35.4592 32.4673 34.2599 33.3996 33.1637C23.9609 35.9593 15.5312 30.1473 12.4961 26.8918C8.89169 23.2499 7.5705 20.0694 7.58087 17.4019C7.59379 14.0769 9.67554 11.549 11.9831 9.91791C11.6839 10.6599 11.265 12.1952 11.9831 12.4004C10.2732 13.8111 7.98196 17.3762 12.4961 20.3515C13.2228 20.8217 15.0609 22.2238 16.5998 24.0705C15.903 23.6904 14.5914 23.0428 13.6664 22.7745C13.1615 22.628 12.715 22.6119 12.2247 22.4222C11.9816 22.3281 11.441 23.4779 11.5834 23.6962C12.3874 24.9286 13.2637 25.8159 14.4879 26.6323C15.381 27.228 16.361 27.9107 17.2439 28.5819C18.8415 29.7964 20.5825 30.8907 22.4897 31.5154C24.0299 32.0199 25.4549 32.5472 25.5768 32.791C28.1358 32.962 33.3478 33.2013 33.7239 32.791C33.9122 32.5792 34.1038 32.3718 34.2973 32.1692C33.744 33.6161 32.8548 36.6382 33.7239 37.1512C32.6753 38.6474 31.6042 42.1783 35.708 44.3328C36.7339 44.5893 39.5552 45.5382 42.633 47.2823C39.9739 46.3847 34.584 44.9227 34.2973 46.2564C35.2719 47.1114 37.4162 49.0521 38.1959 49.9754C40.7009 50.6733 45.916 52.2659 46.7368 53.0532H55.7137C56.9107 52.4548 59.4584 51.3348 60.074 51.6426L64.9472 49.206L61.9976 48.4365C63.622 47.9663 65.8962 46.872 61.9976 46.2564C60.2877 46.3419 56.6114 46.5898 55.5855 46.8976C57.8511 45.6579 62.7414 43.3325 64.1777 43.948C65.6739 43.0931 68.5123 41.9731 67.8968 44.3328C68.8372 43.6061 70.3847 42.0757 69.0509 41.7679C69.4784 40.0153 68.6662 36.3817 61.9976 35.8688C61.616 34.545 60.3772 31.9517 58.4756 32.1692C59.7043 32.0045 60.8909 31.5894 61.9099 30.8833C62.4306 30.5225 62.979 30.116 63.5365 29.6692C63.8737 29.399 64.2142 29.114 64.5539 28.8155C66.7192 26.9126 68.8512 24.459 69.8799 21.7621C70.0884 21.2155 70.2515 20.659 70.3604 20.095C70.5309 19.2122 70.5685 18.3112 70.4391 17.4019C70.3645 19.4169 69.6696 21.4888 67.8968 23.301C67.1969 24.5063 64.9483 26.744 61.2282 26.9076C60.4645 26.9412 59.6998 27.007 58.9509 27.1598Z" fill="#C4C2B3"/>
<path d="M34.0408 18.9408C34.052 18.9848 34.0637 19.0297 34.0757 19.0756C34.053 19.014 34.0408 18.9682 34.0408 18.9408Z" fill="#C4C2B3"/>
<path d="M33.3998 16.5042C40.9038 27.7602 52.9034 28.3935 58.9511 27.1598C59.7 27.007 60.4648 26.9412 61.2284 26.9077C64.9486 26.744 67.1972 24.5063 67.897 23.3011C69.6698 21.4888 70.3647 19.4169 70.4393 17.4019C70.5687 18.3113 70.5311 19.2122 70.3606 20.095C70.2517 20.659 70.0886 21.2156 69.8801 21.7621C68.8515 24.459 66.7194 26.9126 64.5542 28.8155C64.2145 29.114 63.8739 29.399 63.5367 29.6692C63.9873 29.9135 64.4145 30.1768 64.8192 30.4553C65.5305 30.9449 66.1724 31.4817 66.75 32.0465C72.5404 32.3179 77.1227 31.553 80.7212 30.1702C90.086 26.5717 92.7876 18.7886 92.776 14.1958L93.6737 23.3011C93.6737 28.4719 89.6479 33.3264 84.8888 35.3484C82.5131 36.3578 79.7478 36.957 77.1304 37.2817C74.5999 37.5956 72.2076 37.6529 70.4393 37.5763C70.153 36.876 69.7881 36.1225 69.334 35.3558C68.6726 34.2392 67.8221 33.0948 66.75 32.0465C66.1724 31.4817 65.5305 30.9449 64.8192 30.4553C64.4145 30.1768 63.9873 29.9135 63.5367 29.6692C62.9792 30.116 62.4308 30.5225 61.9101 30.8833C60.8911 31.5894 59.7046 32.0045 58.4758 32.1692C56.341 32.4553 54.3917 32.6061 52.6362 32.659C51.8251 32.6834 51.0554 32.6869 50.3278 32.6733C47.1502 32.6136 44.7766 32.2257 43.2745 31.8168C42.894 31.7132 42.5694 31.6083 42.3018 31.507C42.0934 31.428 41.8833 31.3531 41.673 31.2793C40.4346 30.8447 39.2595 29.9395 38.1961 28.8155C37.1482 27.7079 36.2087 26.3879 35.4238 25.0964C34.681 23.8743 34.0767 22.6777 33.6501 21.711C33.4791 21.3235 33.3998 20.9032 33.3998 20.4797V16.5042Z" fill="#DC880D"/>
<path d="M12.4963 26.8918C8.89191 23.2499 7.57072 20.0694 7.58109 17.4019C7.25311 18.6843 6.59717 21.8904 6.59717 24.4552C6.63838 24.8592 6.72666 25.3753 6.87246 25.9719C8.61653 33.1076 15.926 37.0835 23.1404 38.4666C25.8607 38.9882 28.4835 39.2194 30.372 38.8184C30.5009 38.1067 30.7409 37.3958 31.0637 36.6974C31.6357 35.4592 32.4675 34.2599 33.3998 33.1637C23.9612 35.9594 15.5314 30.1473 12.4963 26.8918Z" fill="#DC880D"/>
<path d="M55.5857 54.2074C39.3161 55.236 32.7472 48.1048 31.0637 43.4351C31.2166 47.1716 33.1618 54.5593 39.3904 58.3405C41.7255 59.758 44.5183 60.1281 47.25 60.1417C49.1329 60.1511 51.2255 60.077 53.2864 59.8637C60.6149 59.1055 67.6654 54.5963 70.539 47.8122C71.1468 46.3772 71.4596 44.889 71.2752 43.4351C70.2477 47.7932 64.872 50.9585 60.0742 52.7984C58.4476 53.4221 56.8875 53.8936 55.5857 54.2074Z" fill="#DC880D"/>
<path d="M63.5366 29.6692C62.9791 30.116 62.4307 30.5224 61.91 30.8832C60.891 31.5894 59.7045 32.0045 58.4757 32.1692C56.3409 32.4552 54.3916 32.606 52.636 32.6589C52.3283 31.6299 49.772 30.7611 48.5323 30.4553C53.2516 31.0841 58.9627 29.9661 61.2283 29.3284L58.9199 28.8154C59.9459 28.8154 61.8267 28.046 62.6389 27.6612H59.5611L61.2283 26.9076C67.0761 26.3047 69.8055 20.7467 70.4392 18.0431C70.9341 22.5572 66.722 27.1055 64.5541 28.8154C64.2144 29.114 63.8738 29.3989 63.5366 29.6692Z" fill="#C27410"/>
<path d="M71.2751 43.4351C71.4595 44.889 71.1467 46.3772 70.5389 47.8122C67.6653 54.5963 60.6148 59.1055 53.2863 59.8637C51.2834 60.0709 49.2505 60.1468 47.4093 60.1423C47.3551 60.143 47.3019 60.1428 47.2499 60.1417C47.3029 60.1419 47.356 60.1421 47.4093 60.1423C49.0675 60.1206 51.7335 59.2637 52.8925 58.8241L48.7888 58.1829C52.1744 58.4907 59.4329 56.1738 62.6389 54.9769L60.0741 54.2074C61.7156 54.2074 63.4939 53.438 64.1779 53.0532L60.0741 52.7983C64.8718 50.9585 70.2476 47.7932 71.2751 43.4351Z" fill="#C27410"/>
<path d="M30.3719 38.8183C28.4834 39.2194 25.8606 38.9881 23.1403 38.4666L20.0625 35.997C23.592 36.5001 30.7335 37.3445 31.0635 36.6973C30.7408 37.3958 30.5008 38.1066 30.3719 38.8183Z" fill="#C27410"/>
<path d="M69.3339 35.3558C69.788 36.1224 70.1529 36.876 70.4392 37.5762C72.2075 37.6529 74.5998 37.5956 77.1303 37.2816C78.2589 37.161 79.4814 35.4345 79.9517 34.5863C78.3102 35.7707 72.1892 35.5928 69.3339 35.3558Z" fill="#C27410"/>
<path d="M9.80327 28.9437C8.26437 28.6359 7.87964 24.9682 7.87964 23.1728C7.87964 23.7884 8.64909 25.5667 9.03382 26.3789L9.41855 25.3529C10.4445 28.4308 16.9421 32.8765 20.0627 34.7146C13.4967 33.7913 10.4872 29.5422 9.80327 27.5331V28.9437Z" fill="#FCA95D"/>
<path d="M34.0411 18.9408C34.0523 18.9848 34.0639 19.0298 34.0759 19.0756C34.3086 19.7075 35.6484 22.0044 36.3494 23.1728L36.4777 22.0186C37.6062 24.9939 44.9844 28.1315 48.5324 29.3285C41.7613 30.0466 38.1021 26.1224 37.1189 24.0705V25.0965C35.9147 24.9961 34.6124 21.1251 34.0759 19.0756C34.0532 19.014 34.0411 18.9682 34.0411 18.9408Z" fill="#FCA95D"/>
<path d="M32.8869 48.4366C32.9049 48.4791 32.9234 48.5226 32.9425 48.567C33.3072 49.3005 34.9063 51.1453 35.7082 52.0273V51.1296C38.9912 54.417 46.2241 56.2612 49.4301 56.7723C44.1979 59.132 38.615 55.2761 36.4777 53.0533L37.1189 54.2075C35.7143 54.2075 33.7866 50.5285 32.9425 48.567C32.9184 48.5184 32.8996 48.4748 32.8869 48.4366Z" fill="#FCA95D"/>
<path d="M90.5959 27.5331C92.0322 26.6097 92.3058 23.3011 92.2631 21.7622C92.2631 22.5829 91.4936 24.4125 91.1089 25.2247L90.8524 23.9423C90.5446 26.4868 83.4571 31.1581 79.9518 33.1757C85.7997 33.5861 89.3135 28.8155 90.3394 26.3789L90.5959 27.5331Z" fill="#FCA95D"/>
<path d="M18.1599 19.104C17.5921 18.5541 17.0126 18.1459 16.6 17.9149C15.2761 16.889 16.5614 16.6325 17.3695 16.6325C19.6265 19.0947 25.9189 20.9927 28.783 21.6339C32.7142 23.1349 32.2259 23.4781 30.7441 23.4182C29.5736 23.3708 27.6005 23.4484 26.4443 23.26C26.1582 23.2134 25.8482 23.0696 25.6154 22.8969C23.7935 21.5456 22.869 22.4882 22.6274 23.1728C22.9888 25.8233 20.0816 20.9648 18.1599 19.104Z" fill="#FFFDE6"/>
<path d="M20.0625 9.4509C17.2925 8.63015 18.0534 10.1349 18.7801 10.9898C19.2937 11.8473 18.3102 12.8005 17.7542 13.1699C18.8709 13.0136 19.8012 12.9111 20.5729 12.8496C22.5345 12.6932 26.9229 12.9384 25.577 11.5028C24.8588 10.7846 21.6014 9.83563 20.0625 9.4509Z" fill="#FFFDE6"/>
<path d="M33.3997 15.4783V16.5042V20.4797C33.3997 19.7616 32.7158 18.2141 32.3738 17.5302C30.4465 14.4523 32.2547 14.8798 33.3997 15.4783Z" fill="#FFFDE6"/>
<path d="M46.3462 4.69484C45.459 4.62701 44.5752 4.59072 43.9156 4.57769C43.5677 4.56292 43.3224 4.59715 43.1562 4.66423C42.2964 5.01113 43.9156 6.0872 43.9156 7.01429C42.1715 8.45061 43.1889 8.72419 43.9156 8.68144C45.7623 7.34772 48.1904 7.35627 49.1735 7.52726C51.6013 7.61718 48.7686 4.88004 46.3462 4.69484Z" fill="#FFFDE6"/>
<path d="M58.92 14.3241C59.2277 12.6826 57.7658 10.5623 56.9963 9.70738C56.2782 8.27107 57.3811 8.33947 58.0223 8.5532C59.9539 8.85819 61.4573 11.623 61.9836 13.0041C61.9929 13.0179 61.9978 13.0305 61.9978 13.0417C61.9931 13.0293 61.9884 13.0168 61.9836 13.0041C61.8224 12.7664 60.3289 12.1704 59.5612 11.8875C59.7664 12.6057 59.2192 13.8111 58.92 14.3241Z" fill="#FFFDE6"/>
<path d="M51.7384 15.35C50.5073 15.4526 45.5828 13.3409 43.2744 12.2722C40.8121 11.9644 42.2485 13.0844 43.2744 13.6829C45.1211 14.1959 45.8392 15.7775 45.9675 16.5042C46.6856 18.8639 48.4041 18.9408 49.1735 18.6843C48.558 16.9402 49.43 16.5042 49.943 16.5042L50.0032 16.5311C52.3283 17.5617 55.9325 16.5042 58.4757 16.5042C58.1203 15.4783 53.8361 15.3073 51.7384 15.35Z" fill="#FFFDE6"/>
<path d="M42.4959 40.8839C42.3103 40.6141 42.1351 40.3913 41.992 40.229C41.6072 39.7588 40.6839 38.7158 40.0683 38.3054C39.7691 37.7924 39.7349 36.9717 41.992 37.7924C43.2514 38.5333 45.0614 39.6144 46.7167 40.6352C49.1968 42.1646 53.6365 42.4235 55.5857 44.5893C56.0559 45.0168 56.7398 45.8717 55.7139 45.8717C55.6215 45.6913 55.2413 45.5659 54.7083 45.4808C51.8614 45.0263 47.0238 41.9772 46.7369 44.8458C46.7369 47.5913 44.0522 43.1458 42.4959 40.8839Z" fill="#FFFDE6"/>
<path d="M61.2283 42.1527C60.6128 39.9982 58.1505 37.5787 56.9963 36.6383C55.8735 37.1373 57.1493 38.6341 57.3045 39.853C57.3913 40.5351 57.4008 41.2739 57.3811 41.768C57.2785 43.9224 57.8513 43.6061 58.1505 43.1786C58.3557 41.1404 58.8345 41.1324 59.0482 41.3832C60.8949 43.1273 61.2711 42.6229 61.2283 42.1527Z" fill="#FFFDE6"/>
<path d="M41.7355 33.6887C43.377 33.0731 43.4454 32.1843 43.2744 31.8168C44.7765 32.2258 47.1501 32.6136 50.3277 32.6733C51.9692 33.9129 50.9262 34.4652 50.1995 34.5864C49.9943 33.663 44.4713 33.6032 41.7355 33.6887Z" fill="#FFFDE6"/>
<path d="M82.773 15.2218C77.7459 19.3256 72.4034 20.1805 70.3606 20.095C70.2517 20.659 70.0885 21.2156 69.88 21.7622C70.3388 21.9995 70.8631 22.1282 71.4004 22.1829C73.6852 22.4156 77.4672 18.9594 77.6433 21.2492C77.6433 23.9166 79.1822 22.7026 79.9517 21.7622C80.2595 20.531 81.1059 18.8553 81.4906 18.1714C85.5944 15.5039 84.0555 15.0936 82.773 15.2218Z" fill="#FFFDE6"/>
<path d="M74.4373 10.8616C74.5073 10.7952 74.5862 10.7234 74.6729 10.6475C76.9794 8.62984 83.217 6.91891 81.4906 9.4509C81.3293 9.97527 81.3354 11.0629 82.5433 11.4426C82.6275 11.4629 82.7043 11.4831 82.773 11.5028C82.692 11.4854 82.6155 11.4652 82.5433 11.4426C81.5278 11.197 79.4434 10.9343 77.6433 11.5028C76.2754 12.0157 73.7191 12.6057 74.4373 10.8616Z" fill="#FFFDE6"/>
<path d="M55.714 7.78369C54.8932 7.78369 54.7735 12.8279 54.8163 15.35C53.5852 14.7344 48.5752 13.9821 46.224 13.6828L44.5569 10.2203C49.8918 12.9903 52.4224 13.1699 53.0209 12.9134C51.5886 11.2719 52.4241 6.67226 53.0209 4.57764L55.714 7.78369Z" fill="#4C7B37"/>
<path d="M53.021 8.29666C53.8418 8.91222 54.5953 10.8615 54.8694 11.7592C54.9376 10.3467 55.0716 9.00238 55.3121 8.29666H53.021Z" fill="#8BD77D"/>
<path d="M51.7386 13.9393C50.9691 13.5546 47.2928 12.4004 45.7112 11.5027L46.7371 13.1699L51.7386 13.9393Z" fill="#8BD77D"/>
<path d="M29.9713 13.3493C29.1727 13.16 27.8924 18.0404 27.3521 20.5044C26.2962 19.6213 21.595 17.7333 19.3763 16.8997L18.5531 13.1459C23.1049 17.0721 25.5258 17.8307 26.1673 17.7192C25.1524 15.7916 27.0266 11.5088 28.0906 9.60841L29.9713 13.3493Z" fill="#4C7B37"/>
<path d="M27.2325 13.2271C27.8891 14.0154 28.1725 16.086 28.2321 17.0227C28.6243 15.664 29.0649 14.3869 29.4617 13.7557L27.2325 13.2271Z" fill="#8BD77D"/>
<path d="M24.6827 18.4216C24.0228 17.8697 20.712 15.8985 19.3801 14.66L19.9937 16.5189L24.6827 18.4216Z" fill="#8BD77D"/>
<path d="M56.9942 35.8661C56.1831 35.7409 55.2953 40.7078 54.9528 43.2069C53.83 42.4108 48.9934 40.903 46.7154 40.2486L45.596 36.5722C50.4459 40.1237 52.9195 40.6871 53.5501 40.525C52.385 38.6842 53.9124 34.2658 54.8217 32.2868L56.9942 35.8661Z" fill="#4C7B37"/>
<path d="M54.2543 35.9622C54.9716 36.6958 55.4189 38.7372 55.5529 39.6662C55.8357 38.2806 56.1732 36.9725 56.5186 36.3117L54.2543 35.9622Z" fill="#8BD77D"/>
<path d="M52.1261 41.3432C51.4243 40.8456 47.9671 39.1441 46.541 38.0156L47.3006 39.8198L52.1261 41.3432Z" fill="#8BD77D"/>
<path d="M82.0289 16.7066C81.4165 16.1602 77.9687 19.8441 76.3214 21.7544C75.8127 20.4754 72.5755 16.5783 71.0205 14.7897L72.082 11.0962C74.2182 16.715 75.9868 18.5339 76.6041 18.741C76.6283 16.5626 80.3142 13.6869 82.1541 12.5214L82.0289 16.7066Z" fill="#4C7B37"/>
<path d="M79.6779 15.2963C79.8805 16.302 79.1448 18.2581 78.7517 19.1104C79.743 18.1019 80.7381 17.1881 81.3874 16.8217L79.6779 15.2963Z" fill="#8BD77D"/>
<path d="M74.9642 18.6525C74.6462 17.8532 72.6717 14.5443 72.0893 12.8215L71.7448 14.7484L74.9642 18.6525Z" fill="#8BD77D"/>
</svg>
