<svg width="67" height="82" viewBox="0 0 67 82" fill="none" xmlns="http://www.w3.org/2000/svg">
<path d="M20.8193 9.38208C22.2081 5.96351 27.6778 -0.232648 38.4463 2.33128C44.7493 4.36105 57.9322 9.25387 60.2397 12.587C63.2309 14.9372 67.9956 22.0735 63.1241 31.8164C62.5358 33.3511 61.867 35.0814 61.1405 36.9443C59.9151 40.0867 58.5255 43.6063 57.0817 47.2C54.8582 52.7345 52.5059 58.4449 50.426 63.2245C48.414 67.848 46.6568 71.6004 45.5174 73.4803C45.2655 73.8959 45.0437 74.22 44.8561 74.4417C43.681 77.3261 38.1258 82.1335 25.3062 78.2876C24.913 78.1454 24.4836 77.9858 24.0242 77.8104C18.617 75.7455 9.06453 71.4925 5.75615 67.7114C3.83336 66.0771 0.90696 61.4145 2.95662 54.8918C3.18454 54.1664 3.474 53.4181 3.83321 52.6484C5.11032 48.817 6.93169 43.5226 8.95463 37.9058C10.7683 32.8699 12.7441 27.5748 14.6349 22.8427C16.0426 19.3194 17.4033 16.1083 18.615 13.5484C19.4269 11.8332 20.1719 10.4103 20.8193 9.38208Z" fill="url(#paint0_linear_2_401)"/>
<path d="M24.0242 77.8104C24.4836 77.9858 24.913 78.1454 25.3062 78.2876C38.1258 82.1335 43.681 77.3261 44.8561 74.4417C45.0437 74.22 45.2655 73.8959 45.5174 73.4803M24.0242 77.8104C18.617 75.7455 9.06453 71.4925 5.75615 67.7114C3.83336 66.0771 0.90696 61.4145 2.95662 54.8918M24.0242 77.8104C25.0983 75.3719 26.4196 72.3367 27.8701 68.958M43.6042 29.2525C43.7079 28.9186 43.8049 28.5978 43.8947 28.291C43.8198 28.029 43.8085 27.7349 43.8947 27.4376M43.6042 29.2525C43.3719 27.2014 33.018 20.0651 27.8701 16.7534C17.1016 7.01043 27.6564 4.5747 34.2799 4.5747C34.6823 4.53638 35.1111 4.52765 35.5619 4.54534M43.6042 29.2525C42.9504 31.3576 42.0274 33.9862 40.9253 36.9443M2.95662 54.8918C3.18454 54.1664 3.474 53.4181 3.83321 52.6484C5.11032 48.817 6.93169 43.5226 8.95463 37.9058M2.95662 54.8918C7.41522 59.9961 18.64 69.9553 27.8701 68.958M27.8701 68.958C28.5908 67.2793 29.3434 65.5158 30.1135 63.6985M8.95463 37.9058C10.0251 43.6751 16.0119 56.3034 31.3955 60.6614M8.95463 37.9058C10.7683 32.8699 12.7441 27.5748 14.6349 22.8427M31.3955 60.6614C32.5 58.0343 33.6234 55.3344 34.7255 52.6484M31.3955 60.6614C30.9645 61.6866 30.5364 62.7006 30.1135 63.6985M14.6349 22.8427C15.9711 29.4908 22.0272 44.35 35.5619 50.6021M14.6349 22.8427C16.0426 19.3194 17.4033 16.1083 18.615 13.5484M35.5619 50.6021C37.2788 46.3854 38.917 42.2578 40.3187 38.5586M35.5619 50.6021C35.2849 51.2823 35.0059 51.9649 34.7255 52.6484M18.615 13.5484C19.4269 11.8332 20.1719 10.4103 20.8193 9.38208C22.2081 5.96351 27.6778 -0.232648 38.4463 2.33128C44.7493 4.36105 57.9322 9.25387 60.2397 12.587C63.2309 14.9372 67.9956 22.0735 63.1241 31.8164C62.5358 33.3511 61.867 35.0814 61.1405 36.9443M18.615 13.5484C19.5069 16.0601 22.5981 22.5209 28.081 29.2525M28.081 29.2525C28.4284 29.6791 28.7854 30.1067 29.1521 30.5345L28.081 29.2525ZM40.9253 36.9443C40.034 36.9443 37.5751 36.3374 34.2799 34.0456M40.9253 36.9443C40.7287 37.4722 40.5263 38.0107 40.3187 38.5586M34.2799 34.0456C33.8654 33.7572 33.4375 33.4422 32.998 33.0984L34.2799 34.0456ZM43.8947 27.4376C44.3001 26.0377 46.8642 24.5673 55.1118 26.0476C60.8807 25.0861 68.7647 20.7915 54.1504 11.305C53.4337 10.903 52.5638 10.4387 51.5864 9.94538M43.8947 27.4376C45.884 30.6065 52.1183 36.9443 61.1405 36.9443M61.1405 36.9443C59.9151 40.0867 58.5255 43.6063 57.0817 47.2M40.3187 38.5586C43.3581 43.8961 50.9658 53.097 57.0817 47.2M57.0817 47.2C54.8582 52.7345 52.5059 58.4449 50.426 63.2245M34.7255 52.6484C37.3287 57.0281 44.1133 65.275 50.426 63.2245M50.426 63.2245C48.414 67.848 46.6568 71.6004 45.5174 73.4803M30.1135 63.6985C32.05 68.4665 37.8419 77.098 45.5174 73.4803M35.5619 4.54534C34.0851 6.228 31.302 10.4411 31.075 14.7037M35.5619 4.54534C38.9881 4.67976 43.686 6.33998 47.7405 8.12795M31.075 14.7037C31.0557 15.0666 31.0549 15.4298 31.075 15.7919V14.7037ZM40.3187 5.85667C38.864 7.96558 36.3959 12.6936 36.545 16.7534M36.545 16.7534C36.5694 17.417 36.6637 18.0628 36.8439 18.6763L36.545 16.7534ZM47.7405 8.12795C47.5302 10.8905 46.8604 15.775 45.6151 18.6763M47.7405 8.12795C49.1225 8.73737 50.4298 9.36164 51.5864 9.94538M45.6151 18.6763C45.1309 19.8044 44.5597 20.6326 43.8947 20.9197L45.6151 18.6763ZM51.5864 9.94538C51.9674 11.5663 52.3323 14.6542 51.5864 16.8551M51.5864 16.8551C51.3372 17.5905 50.964 18.2268 50.426 18.6763L51.5864 16.8551Z" stroke="#12602C" stroke-width="2.94995"/>
<path d="M54.1506 11.3049C68.765 20.7914 60.8809 25.086 55.112 26.0475C46.8644 24.5672 44.3003 26.0376 43.8949 27.4375C43.8087 27.7348 43.82 28.0289 43.8949 28.2909C43.8051 28.5977 43.7081 28.9185 43.6044 29.2524C43.3721 27.2013 33.0182 20.065 27.8703 16.7533C19.2169 8.92394 24.3331 5.8133 30.1137 4.8934C26.6795 7.67155 23.5382 14.5098 38.4465 19.6377C41.9943 20.9196 50.6789 23.2272 57.035 22.2016C58.9512 21.5606 61.0569 18.4839 54.1506 11.3049Z" fill="#224A25" stroke="#224A25" stroke-width="5.8999"/>
<path d="M20.8193 9.38208C22.2081 5.96351 27.6778 -0.232648 38.4463 2.33128C37.0575 2.54494 34.2799 3.29274 34.2799 4.5747C27.6564 4.5747 17.1016 7.01044 27.8701 16.7534C33.018 20.0651 43.3719 27.2014 43.6042 29.2525C42.9504 31.3576 42.0274 33.9862 40.9253 36.9443C40.7286 37.4723 40.5263 38.0107 40.3187 38.5586C38.917 42.2578 37.2788 46.3854 35.5619 50.6021C35.2849 51.2823 35.0059 51.9649 34.7255 52.6484C33.6234 55.3344 32.5 58.0343 31.3955 60.6614C30.9645 61.6866 30.5364 62.7006 30.1135 63.6985C29.3434 65.5158 28.5908 67.2793 27.8701 68.958C26.4196 72.3367 25.0983 75.3719 24.0242 77.8104C18.617 75.7455 9.06453 71.4925 5.75615 67.7114C3.83336 66.0771 0.90696 61.4145 2.95661 54.8918C3.18454 54.1664 3.474 53.4181 3.83321 52.6484C5.11032 48.817 6.93169 43.5226 8.95463 37.9058C10.7683 32.8699 12.7441 27.5748 14.6349 22.8427C16.0426 19.3194 17.4033 16.1083 18.615 13.5485C19.4269 11.8332 20.1719 10.4103 20.8193 9.38208Z" fill="url(#paint1_linear_2_401)"/>
<path d="M25.3062 78.2876C24.913 78.1454 24.4836 77.9858 24.0242 77.8104M24.0242 77.8104C18.617 75.7455 9.06453 71.4925 5.75615 67.7114C3.83336 66.0771 0.90696 61.4145 2.95661 54.8918M24.0242 77.8104C25.0983 75.3719 26.4196 72.3367 27.8701 68.958M43.6042 29.2525C43.7079 28.9186 43.8049 28.5978 43.8946 28.291C43.8198 28.029 43.8085 27.7349 43.8946 27.4376M43.6042 29.2525C43.3719 27.2014 33.018 20.0651 27.8701 16.7534C17.1016 7.01043 27.6564 4.5747 34.2799 4.5747C34.2799 3.29274 37.0575 2.54494 38.4463 2.33128C27.6778 -0.232648 22.2081 5.96351 20.8193 9.38208C20.1719 10.4103 19.4269 11.8332 18.615 13.5485M43.6042 29.2525C42.9504 31.3576 42.0274 33.9862 40.9253 36.9443M2.95661 54.8918C3.18454 54.1664 3.474 53.4181 3.83321 52.6484C5.11032 48.817 6.93169 43.5226 8.95463 37.9058M2.95661 54.8918C7.41522 59.9961 18.64 69.9553 27.8701 68.958M27.8701 68.958C28.5908 67.2793 29.3434 65.5158 30.1135 63.6985C30.5364 62.7006 30.9645 61.6866 31.3955 60.6614M8.95463 37.9058C10.0251 43.6751 16.0119 56.3034 31.3955 60.6614M8.95463 37.9058C10.7683 32.8699 12.7441 27.5748 14.6349 22.8427M31.3955 60.6614C32.5 58.0343 33.6234 55.3344 34.7255 52.6484C35.0059 51.9649 35.2849 51.2823 35.5619 50.6021M14.6349 22.8427C15.9711 29.4908 22.0272 44.35 35.5619 50.6021M14.6349 22.8427C16.0426 19.3194 17.4033 16.1083 18.615 13.5485M35.5619 50.6021C37.2788 46.3854 38.917 42.2578 40.3187 38.5586C40.5263 38.0107 40.7286 37.4723 40.9253 36.9443M18.615 13.5485C19.5069 16.0601 22.5981 22.5209 28.081 29.2525M28.081 29.2525C28.4284 29.6791 28.7854 30.1067 29.1521 30.5345L28.081 29.2525ZM40.9253 36.9443C40.034 36.9443 37.5751 36.3374 34.2799 34.0456M34.2799 34.0456C33.8653 33.7572 33.4375 33.4422 32.998 33.0984L34.2799 34.0456Z" stroke="#065923" stroke-width="2.94995"/>
<defs>
<linearGradient id="paint0_linear_2_401" x1="39.7283" y1="55.8532" x2="57.3553" y2="62.5836" gradientUnits="userSpaceOnUse">
<stop offset="0.364372" stop-color="#32A847"/>
<stop offset="1" stop-color="#338145"/>
</linearGradient>
<linearGradient id="paint1_linear_2_401" x1="6.39721" y1="21.5607" x2="23.0627" y2="43.0336" gradientUnits="userSpaceOnUse">
<stop stop-color="#225D31"/>
<stop offset="0.687855" stop-color="#15773C"/>
</linearGradient>
</defs>
</svg>
