<svg width="14" height="14" viewBox="0 0 14 14" fill="none" xmlns="http://www.w3.org/2000/svg">
<path d="M7 6.70842C6.61323 6.70842 6.24229 6.55477 5.9688 6.28128C5.69531 6.00779 5.54167 5.63686 5.54167 5.25008C5.54167 4.86331 5.69531 4.49237 5.9688 4.21888C6.24229 3.94539 6.61323 3.79175 7 3.79175C7.38677 3.79175 7.75771 3.94539 8.0312 4.21888C8.30469 4.49237 8.45833 4.86331 8.45833 5.25008C8.45833 5.44159 8.42061 5.63123 8.34732 5.80816C8.27404 5.9851 8.16662 6.14586 8.0312 6.28128C7.89578 6.4167 7.73501 6.52412 7.55808 6.59741C7.38115 6.67069 7.19151 6.70842 7 6.70842ZM7 1.16675C5.91703 1.16675 4.87842 1.59696 4.11265 2.36273C3.34687 3.1285 2.91667 4.16711 2.91667 5.25008C2.91667 8.31258 7 12.8334 7 12.8334C7 12.8334 11.0833 8.31258 11.0833 5.25008C11.0833 4.16711 10.6531 3.1285 9.88735 2.36273C9.12158 1.59696 8.08297 1.16675 7 1.16675Z" fill="#00880C"/>
</svg>
