<svg width="12" height="16" viewBox="0 0 12 16" fill="none" xmlns="http://www.w3.org/2000/svg">
<path d="M6.09506 7.57074C5.58091 7.57074 5.08783 7.37906 4.72427 7.03785C4.36071 6.69665 4.15647 6.23387 4.15647 5.75133C4.15647 5.2688 4.36071 4.80602 4.72427 4.46482C5.08783 4.12361 5.58091 3.93192 6.09506 3.93192C6.60921 3.93192 7.1023 4.12361 7.46586 4.46482C7.82941 4.80602 8.03366 5.2688 8.03366 5.75133C8.03366 5.99026 7.98352 6.22685 7.88609 6.44759C7.78867 6.66833 7.64587 6.8689 7.46586 7.03785C7.28584 7.2068 7.07213 7.34082 6.83693 7.43225C6.60173 7.52368 6.34964 7.57074 6.09506 7.57074ZM6.09506 0.656982C4.65545 0.656982 3.2748 1.19371 2.25684 2.14908C1.23888 3.10446 0.666992 4.40023 0.666992 5.75133C0.666992 9.5721 6.09506 15.2123 6.09506 15.2123C6.09506 15.2123 11.5231 9.5721 11.5231 5.75133C11.5231 4.40023 10.9512 3.10446 9.93329 2.14908C8.91533 1.19371 7.53468 0.656982 6.09506 0.656982Z" fill="#565656"/>
</svg>
