<svg width="189" height="50" viewBox="0 0 189 50" fill="none" xmlns="http://www.w3.org/2000/svg">
<circle cx="17.8082" cy="20.3265" r="0.685169" fill="#E0852B"/>
<circle cx="28.7711" cy="20.7833" r="0.685169" fill="#E0852B"/>
<circle cx="3.7213" cy="28.0917" r="0.685169" fill="#E0852B"/>
<path d="M23.4708 18.5828L24.6601 17.1292C26.2909 21.2965 23.115 23.1131 21.2802 23.5143C21.2636 23.5207 21.2482 23.5241 21.2343 23.5241C21.2495 23.5209 21.2648 23.5176 21.2802 23.5143C21.6879 23.3555 22.8694 21.3063 23.4717 20.1852C23.1814 20.5698 21.6048 21.9211 20.7775 22.6105C20.5608 21.7438 20.9758 20.9949 21.5083 20.4494C22.1381 19.8042 22.8998 19.2807 23.4708 18.5828Z" fill="#E0852B"/>
<path d="M17.0365 22.1966C18.1236 22.6037 18.8604 23.2976 19.1788 23.7524C18.8133 23.387 15.9814 23.1434 14.6111 23.0673C14.7939 23.7981 17.8847 24.8944 19.4073 25.3512C19.0636 25.6948 18.1035 25.817 17.1911 25.8416C16.2346 25.8674 15.2482 25.736 14.4501 25.2082C12.4657 23.8957 12.0347 21.3782 12.0987 20.0982C12.1205 20.2073 12.1599 20.3131 12.2135 20.4153C13.0375 21.985 15.3763 21.5749 17.0365 22.1966Z" fill="#E0852B"/>
<path d="M47.9545 0.232994L2.99371 7.86784C1.65992 8.09433 0.39793 8.85025 0.149617 10.1802C-0.166705 11.8743 0.0651707 13.9019 0.412555 15.5142C0.676886 16.7411 1.34708 17.8666 2.3743 18.5877C6.15373 21.2407 7.39525 17.6822 7.53126 15.3021C12.099 20.2353 14.4591 16.7486 15.0681 14.3885C19.4532 19.8699 22.2243 16.0634 23.0617 13.475C27.6295 18.9563 30.9031 15.1498 31.9689 12.5614C34.8923 18.0428 39.5819 14.8453 41.5613 12.5614C43.3771 14.8614 45.761 15.2834 47.6502 15.0627C49.2671 14.8738 50.6157 13.7803 51.4478 12.3812C54.4343 7.35977 52.4493 3.15294 50.3553 0.934419C49.746 0.288948 48.8295 0.0843976 47.9545 0.232994Z" fill="#BA6B1C"/>
<path d="M49.3261 2.74058C51.2293 1.21798 45.8089 0.182619 8.90114 8.22193C21.8432 6.39481 48.0471 2.74058 49.3261 2.74058Z" fill="#E0872D"/>
<path d="M50.468 6.85159C49.0977 8.75484 46.0373 12.5613 44.7583 12.5613C46.9661 13.1704 51.1989 12.8811 50.468 6.85159Z" fill="#E0872D"/>
<path d="M39.5053 8.67871C38.4821 10.2774 36.0448 13.4749 34.4808 13.4749C36.6885 14.2362 40.7843 14.3428 39.5053 8.67871Z" fill="#E0872D"/>
<path d="M30.3698 10.049C29.6085 11.4955 27.5834 14.3884 25.5736 14.3884C27.4007 15.1799 30.9179 15.4201 30.3698 10.049Z" fill="#E0872D"/>
<path d="M21.2342 11.6478C20.8535 12.5613 19.5898 14.6168 17.5799 15.5304C19.2548 15.9872 22.3304 15.8501 21.2342 11.6478Z" fill="#E0872D"/>
<path d="M13.4689 13.2465C12.6315 14.3123 10.8196 16.444 10.2715 16.444C11.6418 16.9007 14.1998 16.9007 13.4689 13.2465Z" fill="#E0872D"/>
<path d="M5.93208 14.3884C5.4753 15.2259 4.28768 16.9464 3.19141 17.1291C4.48561 17.5098 6.84564 17.4945 5.93208 14.3884Z" fill="#E0872D"/>
<path d="M52.7295 5.25327L0.0142905 12.5617C-0.00401709 12.1615 -0.00549558 11.7613 0.0142905 11.3689L52.1807 3.65454C52.4054 4.15353 52.5936 4.68771 52.7295 5.25327Z" fill="#FDFBFA"/>
<path d="M45.9009 48.875L12.556 49.7886L9.35855 38.1407H8.21661L7.53144 36.0852H5.70432L4.33398 31.9742H10.2721L7.53144 17.814L10.2721 18.956L13.2412 31.9742L43.617 29.4619L44.5305 15.3018H47.2712L46.586 28.5484L52.5242 28.0916L51.3822 31.9742H50.2403V34.7149H48.6415L45.9009 48.875Z" fill="#784512"/>
<path d="M7.53194 36.0857H5.70483L5.24805 34.7153H48.6421L47.979 38.1412L10.7384 43.1657L9.35906 38.1412H8.21711L7.53194 36.0857Z" fill="#A96019"/>
<path d="M45.9001 48.8752L12.5553 49.7888L11.4268 45.6778L47.2705 41.7952L45.9001 48.8752Z" fill="#A96019"/>
<path d="M15.5246 29.0052L14.1543 27.8633L24.8886 25.1226L24.2034 26.4929L15.5246 29.0052Z" fill="#FFBB70"/>
<path d="M15.753 31.0607L14.6111 29.9188L25.5738 28.3201L24.8886 29.9188L15.753 31.0607Z" fill="#FFBB70"/>
<path d="M26.0306 23.5239L28.0861 25.5794V28.3201C27.7206 28.3201 27.1725 28.9291 26.9441 29.2336H30.1416C30.1416 29.0509 29.228 28.5484 28.7712 28.3201V25.5794L30.37 23.5239H26.0306Z" fill="#FFBB70"/>
<path d="M31.2835 21.0116L31.9687 24.209C31.2941 24.7572 31.9921 27.9394 32.4255 29.462L35.1661 28.5484C34.618 25.4424 33.4151 24.0568 32.8822 23.7523L31.9687 20.7832L31.2835 21.0116Z" fill="#FFBB70"/>
<path d="M41.5318 13.843C36.8031 12.6273 34.422 18.6748 33.7958 22.1535C34.9459 20.5853 36.2505 19.7898 37.3416 19.4247C38.5792 19.0106 39.9585 19.1693 41.2027 18.7755C43.4821 18.0539 43.8835 16.7938 43.6165 15.7116C43.3792 14.7494 42.4916 14.0898 41.5318 13.843Z" fill="#FFBB70"/>
<path d="M41.4591 21.3553C38.7883 19.2387 35.9237 21.1936 34.7094 22.6103C35.4124 22.2588 36.0929 22.1891 36.6989 22.2711C38.2739 22.4841 39.4555 23.9708 41.0305 24.1843C41.6762 24.2718 42.0666 24.0848 42.2858 23.777C42.8366 23.0037 42.2031 21.9449 41.4591 21.3553Z" fill="#FFBB70"/>
<path d="M82.4897 29.9825L84.0387 22.5783C84.9991 18.0243 87.2606 16.1655 90.1727 16.1655L85.154 37.3247C85.0611 37.6654 84.8442 37.8513 84.4725 37.8513H81.2815C80.9408 37.8513 80.6929 37.6654 80.6 37.3247L76.712 24.4371L72.7621 37.3247C72.6692 37.6654 72.4213 37.8513 72.0805 37.8513H68.8896C68.5179 37.8513 68.301 37.6654 68.2081 37.3247L63.4682 17.4666C63.3752 17.0639 63.5921 16.7851 64.0258 16.7851H67.5575C67.9293 16.7851 68.1771 16.971 68.2391 17.3427L70.8723 29.9515L73.1958 22.2375C74.5589 17.7454 76.1079 16.7231 78.2145 16.1655L82.4897 29.9825ZM102.054 26.4043C102.813 24.9018 104.114 24.0653 105.911 23.8794V38.1611C104.114 37.9752 102.813 37.1388 102.054 35.6208C100.846 37.3247 98.9248 38.347 96.5858 38.347C92.5584 38.347 89.7702 35.342 89.7702 31.0048C89.7702 26.6986 92.5584 23.6936 96.5858 23.6936C98.9248 23.6936 100.846 24.7159 102.054 26.4043ZM98.0109 34.6294C99.9006 34.6294 101.264 33.1424 101.264 31.0358C101.264 28.9291 99.9006 27.4421 98.0109 27.4421C96.1211 27.4421 94.758 28.9291 94.758 31.0358C94.758 33.1424 96.1211 34.6294 98.0109 34.6294ZM118.012 24.0034C118.353 24.0963 118.508 24.3751 118.508 24.7159V27.7829C118.508 28.2166 118.229 28.4025 117.796 28.2786C117.269 28.1547 116.804 28.0927 116.37 28.0927C114.698 28.0927 113.737 29.084 113.551 30.9738V37.2317C113.551 37.6345 113.334 37.8513 112.932 37.8513H109.524C109.121 37.8513 108.904 37.6345 108.904 37.2317V23.8794C110.763 24.2667 112.095 25.1961 112.839 26.6057C113.815 24.623 115.348 23.8794 116.99 23.8794C117.331 23.8794 117.703 23.9414 118.012 24.0034ZM122.04 45.5963L124.735 38.8427L119.437 24.9018C119.283 24.4681 119.468 24.1892 119.933 24.1892H123.341C123.682 24.1892 123.93 24.3441 124.053 24.6849L127.089 33.9479L128.762 28.8982C129.909 25.4594 132.015 23.8794 135.206 23.8794L128.731 40.7015C127.43 44.0473 125.355 45.5963 122.04 45.5963ZM146.677 24.1892H150.085C150.488 24.1892 150.705 24.4061 150.705 24.8088V38.1611C148.892 37.9752 147.591 37.1233 146.817 35.5898C145.81 37.4486 144.261 38.347 142.061 38.347C138.622 38.347 136.733 36.1474 136.733 32.1201V24.8088C136.733 24.4061 136.95 24.1892 137.352 24.1892H140.76C141.163 24.1892 141.38 24.4061 141.38 24.8088V32.1201C141.38 33.7 142.123 34.6294 143.362 34.6294C144.911 34.6294 146.058 33.2353 146.058 31.3146V24.8088C146.058 24.4061 146.274 24.1892 146.677 24.1892ZM162.478 23.6936C166.134 23.6936 167.621 26.2029 167.621 29.9205V37.2317C167.621 37.6345 167.404 37.8513 167.001 37.8513H163.593C163.191 37.8513 162.974 37.6345 162.974 37.2317V29.9205C162.974 28.3095 162.354 27.4111 160.898 27.4111C159.581 27.4111 158.513 28.449 158.327 30.1528V37.2317C158.327 37.6345 158.11 37.8513 157.707 37.8513H154.299C153.897 37.8513 153.68 37.6345 153.68 37.2317V23.8794C155.508 24.2512 156.84 25.1806 157.599 26.5592C159.008 24.4835 160.681 23.6936 162.478 23.6936ZM181.981 26.2494C182.725 24.7004 184.072 23.8794 185.962 23.8794V39.0595C185.962 43.5516 182.709 45.5963 178.062 45.5963C174.252 45.5963 170.658 44.2022 170.131 40.2368C170.069 39.834 170.317 39.5862 170.72 39.5862H174.128C174.499 39.5862 174.716 39.7721 174.809 40.1748C175.119 41.5069 176.265 42.1575 178.124 42.1575C180.169 42.1575 181.315 41.2281 181.315 39.0285V36.5502C180.138 37.6964 178.527 38.347 176.637 38.347C172.61 38.347 169.821 35.342 169.821 31.0048C169.821 26.6986 172.61 23.6936 176.637 23.6936C178.899 23.6936 180.773 24.6384 181.981 26.2494ZM178.062 34.6294C179.952 34.6294 181.315 33.1424 181.315 31.0358C181.315 28.9291 179.952 27.4421 178.062 27.4421C176.172 27.4421 174.809 28.9291 174.809 31.0358C174.809 33.1424 176.172 34.6294 178.062 34.6294Z" fill="black"/>
</svg>
