<svg width="17" height="14" viewBox="0 0 17 14" fill="none" xmlns="http://www.w3.org/2000/svg">
<path d="M16.1498 0.976232C16.0774 0.96886 16.0044 0.96886 15.932 0.976232H1.05695C0.961617 0.977683 0.866913 0.991805 0.775391 1.01822L8.45195 8.57052L16.1498 0.976232Z" fill="#565656"/>
<path d="M16.9363 1.70581L9.20125 9.31585C9.00218 9.51135 8.73288 9.62108 8.45219 9.62108C8.17149 9.62108 7.9022 9.51135 7.70312 9.31585L0.0371875 1.76354C0.0136209 1.84911 0.00112555 1.93728 0 2.02596V12.5226C0 12.8009 0.111942 13.0679 0.311199 13.2648C0.510456 13.4616 0.780707 13.5722 1.0625 13.5722H15.9375C16.2193 13.5722 16.4895 13.4616 16.6888 13.2648C16.8881 13.0679 17 12.8009 17 12.5226V2.02596C16.9958 1.91661 16.9743 1.80859 16.9363 1.70581ZM1.79031 12.5226H1.05188V11.7721L4.91406 7.98803L5.66312 8.72804L1.79031 12.5226ZM15.9269 12.5226H15.1831L11.3103 8.72804L12.0594 7.98803L15.9216 11.7721L15.9269 12.5226Z" fill="#565656"/>
</svg>
