<svg width="126" height="64" viewBox="0 0 126 64" fill="none" xmlns="http://www.w3.org/2000/svg">
<path d="M9.22647 23.9795L15.7097 35.3735C31.106 32.8372 60.927 28.5527 69.1365 29.5833C70.0815 29.702 70.7402 29.8911 71.0574 30.1613L73.5787 26.6462C70.9821 25.5439 61.1972 23.194 40.6822 20.7529C33.3732 19.8832 24.7023 19.0018 14.5091 18.1612C12.7482 18.04 9.22647 19.034 9.22647 23.9795Z" fill="#9C5B2C"/>
<path d="M104.314 0.827779C78.5732 2.18536 47.4856 7.85814 35.1595 10.5248L38.5211 15.3733C39.1832 15.211 39.9054 15.0713 40.6822 14.9529C55.6847 12.6652 91.0861 18.2899 107.676 21.5552L114.519 7.4945C116.248 0.803536 108.436 0.262118 104.314 0.827779Z" fill="#9C5B2C"/>
<path d="M59.7718 57.4343C68.5122 54.8161 70.217 51.9797 69.9769 50.8888L68.7763 49.9191C67.2956 51.212 63.8778 53.7736 62.0529 53.6767C60.228 53.5797 57.8508 54.5252 56.8903 55.01C54.6492 55.4545 49.5907 56.3191 47.2855 56.2221C44.9804 56.1252 39.6817 56.9898 37.3205 57.4343C32.4381 58.606 21.7848 60.8767 18.231 60.5858L13.3216 61.5555C13.3548 62.1431 13.3185 62.6075 13.1885 62.8889C12.268 62.404 10.1869 60.9737 9.22647 59.1313C8.26599 60.4888 9.62667 62.5252 10.4271 63.3737C10.8113 65.2161 29.3165 62.0404 38.5211 60.2222C40.5382 59.0585 53.5287 57.8787 59.7718 57.4343Z" fill="#9C5B2C"/>
<path d="M116.15 50.8888C114.262 52.9985 112.324 54.6108 111.037 55.4949C110.908 55.1682 110.837 54.7573 110.813 54.2827C108.927 54.0403 105.082 53.41 104.794 52.8282C104.434 52.1009 104.914 55.3736 87.0254 50.8888C81.4997 49.8383 70.077 47.7372 68.5918 47.7372C68.6703 48.5552 68.7348 49.3463 68.7763 49.9191L69.9769 50.8888C81.7428 52.7474 106.427 56.6585 111.037 57.4343C115.648 58.21 116.367 53.3938 116.15 50.8888Z" fill="#9C5B2C"/>
<path d="M0.822266 36.222C3.03137 49.7009 7.34553 57.111 9.22647 59.1313C10.1869 60.9737 12.268 62.404 13.1885 62.8889C13.3185 62.6075 13.3548 62.1431 13.3216 61.5555C13.2194 59.7525 12.4622 56.7889 11.7477 54.3882C11.4914 53.5267 11.2405 52.7377 11.0274 52.1009C11.2092 49.2741 11.7294 46.5434 12.3796 44.1076C12.3802 44.1053 12.3808 44.1031 12.3814 44.1008C13.4484 40.1056 14.8646 36.9042 15.7097 35.3735L9.22647 23.9795C8.26599 27.2765 6.58515 35.7775 5.86479 39.616C5.00036 38.3553 3.82377 36.8281 3.34353 36.222C2.95934 29.531 1.50261 33.4341 0.822266 36.222Z" fill="#B6743D"/>
<path d="M114.519 7.4945L107.676 21.5552C108.86 23.5716 110.716 27.4847 112.027 32.1007C112.091 32.1608 112.107 32.2323 112.086 32.3101C113.003 35.5937 113.638 39.2209 113.559 42.7675C113.325 43.3772 113.055 44.1234 112.778 44.9493C111.784 47.912 110.696 51.8994 110.813 54.2827C110.837 54.7573 110.908 55.1682 111.037 55.4949C112.324 54.6108 114.262 52.9985 116.15 50.8888C118.489 48.2739 120.752 44.8949 121.603 41.1917L125.925 22.8886C125.525 19.6158 124.412 15.0339 123.164 22.8886C122.483 23.4946 120.906 25.0946 120.042 26.6462C119.362 21.7168 117.305 10.9854 114.519 7.4945Z" fill="#B6743D"/>
<path d="M69.1365 29.5833C60.927 28.5527 31.106 32.8372 15.7097 35.3735C14.8646 36.9042 13.4484 40.1056 12.3814 44.1008L12.3796 44.1076C12.3269 44.3126 12.4758 44.4709 12.7372 44.5918C14.0509 45.1994 15.0559 42.7953 16.4864 43.0158C16.8281 43.0685 17.2463 43.3818 17.7507 44.1008C18.4782 45.1377 19.6776 45.3309 20.9433 45.1155C23.4262 44.693 27.0009 44.8433 29.4503 44.2565C29.653 44.2079 29.8376 44.1544 29.9969 44.1008C30.4771 43.1311 31.8778 43.6968 32.5181 44.1008C33.4887 44.6662 34.4665 44.7493 35.3558 44.5781C36.6444 44.3298 40.546 43.4173 41.7854 42.9857C41.9949 42.9128 42.1906 42.8382 42.3631 42.7675C44.5781 42.9191 46.0949 42.9275 47.1113 42.8622C48.1994 42.7922 50.5052 41.7091 50.7673 42.7675V42.7675C50.8873 44.3433 54.4891 42.2826 54.0089 41.7978C53.5287 41.3129 56.8903 40.3432 56.8903 41.1917C56.8903 41.8705 57.4506 41.8786 57.7308 41.7978V41.7978C59.4423 40.2138 62.1243 39.9241 64.4395 39.6445C64.7312 39.6093 65.014 39.5637 65.2813 39.5119C66.086 39.3561 67.0699 40.1045 67.8449 39.8376C67.9251 39.81 67.9971 39.7743 68.0559 39.7372C68.937 38.2816 69.1557 34.0407 69.1576 31.131C69.158 30.5515 69.1498 30.0247 69.1365 29.5833Z" fill="#FCDD66"/>
<path d="M16.0699 50.6463C13.9568 50.7433 12.308 53.1813 11.7477 54.3882C12.4622 56.7889 13.2194 59.7525 13.3216 61.5555L18.231 60.5858C21.7848 60.8767 32.4381 58.606 37.3205 57.4343C39.6817 56.9898 44.9804 56.1252 47.2855 56.2221C49.5907 56.3191 54.6492 55.4545 56.8903 55.01C57.8508 54.5252 60.228 53.5797 62.0529 53.6767C63.8778 53.7736 67.2956 51.212 68.7763 49.9191C68.7348 49.3463 68.6703 48.5552 68.5918 47.7372C68.4433 46.1893 68.2445 44.5449 68.0559 44.1008C67.7678 43.422 67.0554 43.818 66.7353 44.1008C66.7353 44.5453 66.3991 45.1675 65.0544 44.1008C63.7098 43.0342 63.0534 44.5453 62.8933 45.4342C62.133 46.2019 60.4441 47.1796 59.7718 44.9493C59.0994 42.719 58.131 44.3433 57.7308 45.4342C57.3466 47.1796 56.21 46.8079 55.6897 46.4039C54.3451 43.5917 54.0089 45.717 54.0089 47.1312C53.6087 47.616 52.6162 48.2948 51.8478 47.1312C51.0794 45.9675 50.0069 47.0504 49.5667 47.7372C48.6062 52.9736 46.7653 49.9191 45.9649 47.7372C45.1965 45.4099 44.284 46.7675 43.9238 47.7372C43.4036 48.2625 42.243 48.9978 41.7628 47.7372C41.2825 46.4766 40.3621 47.212 39.9619 47.7372C38.0409 49.9675 35.8798 49.717 35.0394 49.313C33.3105 47.8584 32.9584 49.111 32.9984 49.9191C32.5982 50.4039 31.5096 51.0827 30.3571 49.9191C29.2045 48.7554 27.5557 49.4342 26.8753 49.9191C25.5947 50.8484 23.0094 52.2948 22.9133 50.6463C22.8173 48.9978 21.7527 48.5857 21.2325 48.5857C20.8723 48.1009 20.0319 47.1312 19.5516 47.1312C19.0714 47.1312 17.0304 49.4746 16.0699 50.6463Z" fill="#FCDD66"/>
<path d="M68.0559 39.7372V44.1008C68.2445 44.5449 68.4433 46.1893 68.5918 47.7372C70.077 47.7372 81.4997 49.8383 87.0254 50.8888C104.914 55.3736 104.434 52.1009 104.794 52.8282C105.082 53.41 108.927 54.0403 110.813 54.2827C110.696 51.8994 111.784 47.912 112.778 44.9493C112.318 43.4948 110.653 40.5857 107.676 40.5857C107.075 40.3836 105.659 39.4705 104.794 37.4341C103.93 35.3977 102.513 36.1008 101.913 36.7068C101.713 37.1513 101.072 38.0402 100.112 38.0402C99.1515 38.0402 98.8313 39.7372 98.7913 40.5857C97.7508 40.8685 95.4537 41.0948 94.5892 39.7372C93.7248 38.3796 91.0274 38.7675 89.7868 39.1311C88.9064 40.1412 86.9294 41.5554 86.065 39.1311C86.105 38.4038 85.8008 37.1674 84.2641 38.0402C82.3431 39.1311 80.5422 39.616 78.141 37.4341C76.22 35.6886 75.4997 36.222 75.3796 36.7068C74.8193 37.5149 73.4346 38.6462 72.3781 36.7068C71.0574 34.2826 70.217 36.3432 69.1365 38.0402L68.0559 39.7372Z" fill="#FCDD66"/>
<path d="M73.5787 26.6462L71.0574 30.1613C70.7402 29.8911 70.0815 29.702 69.1365 29.5833C69.1498 30.0247 69.158 30.5515 69.1576 31.131C70.8314 30.6462 74.2991 29.8219 74.7793 30.4038C75.3796 31.131 77.0604 31.8583 78.141 31.131C79.0054 30.5492 80.3421 31.2927 80.9024 31.7371C82.3831 32.626 85.8248 33.8705 87.7458 31.7371C88.4261 31.5755 89.9069 31.4219 90.3871 32.1007C90.9874 32.9492 94.7093 33.4341 95.0695 32.1007C95.3096 31.8583 96.2941 31.6644 98.3111 32.828C100.328 33.9917 103.474 33.5553 104.794 33.1917C105.235 32.5452 106.307 31.4947 107.075 32.4644C108.036 33.6765 111.037 33.9189 111.037 33.1917C111.402 32.9993 112.007 32.6086 112.086 32.3101C112.067 32.2401 112.047 32.1704 112.027 32.1007C110.716 27.4847 108.86 23.5716 107.676 21.5552C91.0861 18.2899 55.6847 12.6652 40.6822 14.9529V20.7529C61.1972 23.194 70.9821 25.5439 73.5787 26.6462Z" fill="#FCDD66"/>
<path d="M68.0559 39.7372C67.9971 39.7743 67.9251 39.81 67.8449 39.8376C67.0699 40.1045 66.086 39.3561 65.2813 39.5119C65.014 39.5637 64.7312 39.6093 64.4395 39.6445C62.1243 39.9241 59.4423 40.2138 57.7308 41.7978V41.7978C57.4506 41.8786 56.8903 41.8705 56.8903 41.1917C56.8903 40.3432 53.5287 41.3129 54.0089 41.7978C54.4891 42.2826 50.8873 44.3433 50.7673 42.7675V42.7675C50.5052 41.7091 48.1994 42.7922 47.1113 42.8622C46.0949 42.9275 44.5781 42.9191 42.3631 42.7675C42.1906 42.8382 41.9949 42.9128 41.7854 42.9857C40.546 43.4173 36.6444 44.3298 35.3558 44.5781C34.4665 44.7493 33.4887 44.6662 32.5181 44.1008C31.8778 43.6968 30.4771 43.1311 29.9969 44.1008C29.8376 44.1544 29.653 44.2079 29.4503 44.2565C27.0009 44.8433 23.4262 44.693 20.9433 45.1155C19.6776 45.3309 18.4782 45.1377 17.7507 44.1008C17.2463 43.3818 16.8281 43.0685 16.4864 43.0158C15.0559 42.7953 14.0509 45.1994 12.7372 44.5918C12.4758 44.4709 12.3269 44.3126 12.3796 44.1076C11.7294 46.5434 11.2092 49.2741 11.0274 52.1009C11.2405 52.7377 11.4914 53.5267 11.7477 54.3882C12.308 53.1813 13.9568 50.7433 16.0699 50.6463C17.0304 49.4746 19.0714 47.1312 19.5516 47.1312C20.0319 47.1312 20.8723 48.1009 21.2325 48.5857C21.7527 48.5857 22.8173 48.9978 22.9133 50.6463C23.0094 52.2948 25.5947 50.8484 26.8753 49.9191C27.5557 49.4342 29.2045 48.7554 30.3571 49.9191C31.5096 51.0827 32.5982 50.4039 32.9984 49.9191C32.9584 49.111 33.3105 47.8584 35.0394 49.313C35.8798 49.717 38.0409 49.9675 39.9619 47.7372C40.3621 47.212 41.2825 46.4766 41.7628 47.7372C42.243 48.9978 43.4036 48.2625 43.9238 47.7372C44.284 46.7675 45.1965 45.4099 45.9649 47.7372C46.7653 49.9191 48.6062 52.9736 49.5667 47.7372C50.0069 47.0504 51.0794 45.9675 51.8478 47.1312C52.6162 48.2948 53.6087 47.616 54.0089 47.1312C54.0089 45.717 54.3451 43.5917 55.6897 46.4039C56.21 46.8079 57.3466 47.1796 57.7308 45.4342C58.131 44.3433 59.0994 42.719 59.7718 44.9493C60.4441 47.1796 62.133 46.2019 62.8933 45.4342C63.0534 44.5453 63.7098 43.0342 65.0544 44.1008C66.3991 45.1675 66.7353 44.5453 66.7353 44.1008C67.0554 43.818 67.7678 43.422 68.0559 44.1008V39.7372Z" fill="#4D1D1D"/>
<path d="M112.778 44.9493C113.055 44.1234 113.325 43.3772 113.559 42.7675C113.638 39.2209 113.003 35.5937 112.086 32.3101C112.007 32.6086 111.402 32.9993 111.037 33.1917C111.037 33.9189 108.036 33.6765 107.075 32.4644C106.307 31.4947 105.235 32.5452 104.794 33.1917C103.474 33.5553 100.328 33.9917 98.3111 32.828C96.2941 31.6644 95.3096 31.8583 95.0695 32.1007C94.7093 33.4341 90.9874 32.9492 90.3871 32.1007C89.9069 31.4219 88.4261 31.5755 87.7458 31.7371C85.8248 33.8705 82.3831 32.626 80.9024 31.7371C80.3421 31.2927 79.0054 30.5492 78.141 31.131C77.0604 31.8583 75.3796 31.131 74.7793 30.4038C74.2991 29.8219 70.8314 30.6462 69.1576 31.131C69.1557 34.0407 68.937 38.2816 68.0559 39.7372L69.1365 38.0402C70.217 36.3432 71.0574 34.2826 72.3781 36.7068C73.4346 38.6462 74.8193 37.5149 75.3796 36.7068C75.4997 36.222 76.22 35.6886 78.141 37.4341C80.5422 39.616 82.3431 39.1311 84.2641 38.0402C85.8008 37.1674 86.105 38.4038 86.065 39.1311C86.9294 41.5554 88.9064 40.1412 89.7868 39.1311C91.0274 38.7675 93.7248 38.3796 94.5892 39.7372C95.4537 41.0948 97.7508 40.8685 98.7913 40.5857C98.8313 39.7372 99.1515 38.0402 100.112 38.0402C101.072 38.0402 101.713 37.1513 101.913 36.7068C102.513 36.1008 103.93 35.3977 104.794 37.4341C105.659 39.4705 107.075 40.3836 107.676 40.5857C110.653 40.5857 112.318 43.4948 112.778 44.9493Z" fill="#4D1D1D"/>
</svg>
