<svg width="475" height="288" viewBox="0 0 475 288" fill="none" xmlns="http://www.w3.org/2000/svg">
<path d="M1.535 160.671C-7.4652 65.6712 99.0347 14.1712 174.535 5.17129C214.035 0.462853 255.868 0.171253 283.535 2.17117C318.535 4.83784 400.035 23.2712 446.035 75.6712C492.035 128.071 471.868 179.838 456.035 199.171C429.535 234.004 341.335 299.971 200.535 285.171C59.7347 270.371 9.20156 196.005 1.535 160.671Z" fill="#D9D9D9" stroke="black"/>
<path d="M27.5345 88.6713C73.1345 28.2713 160.535 9.17132 198.535 7.17132C294.535 -0.828683 365.535 25.5047 389.035 39.6713C429.201 62.338 497.135 124.071 447.535 189.671C397.935 255.271 298.535 273.671 255.035 274.671C227.201 275.671 157.135 271.571 99.5345 247.171C41.9345 222.771 18.2012 180.005 13.5345 161.671C10.2012 147.338 8.33454 112.671 27.5345 88.6713Z" fill="#E2E3CE" stroke="black"/>
<path d="M157.639 189.671V200.671C161.239 196.271 168.139 196.505 171.139 197.171C174.472 199.505 182.839 203.871 189.639 202.671C202.039 195.871 215.472 203.171 220.639 207.671L194.639 178.671C173.039 191.871 164.639 185.171 163.139 180.171C156.339 179.371 150.305 175.505 148.139 173.671L147.639 175.671L147.139 177.671C148.905 180.852 152.564 185.549 157.639 188.905V189.671Z" fill="#C14A20"/>
<path d="M137.035 223.171C135.701 227.338 139.135 235.271 163.535 233.671C167.362 232.643 173.04 231.474 179.592 230.671L174.535 223.171C147.335 237.171 146.535 223.005 149.535 214.171C138.335 215.771 136.201 206.216 136.535 201.239C135.211 202.189 134.303 203.471 134.035 205.171C134.035 210.771 137.035 213.505 138.535 214.171L137.035 223.171Z" fill="#C14A20"/>
<path d="M220.035 233.671C234.435 248.071 249.701 245.338 255.535 242.171L258.035 232.171C246.035 244.571 217.701 228.005 205.035 218.171L220.035 233.671Z" fill="#C14A20"/>
<path d="M269.639 144.171C262.039 138.971 258.472 139.671 257.639 140.671C255.773 142.032 253.872 143.191 251.961 144.171C247.687 149.171 236.239 159.471 224.639 160.671C225.972 162.671 229.139 166.671 231.139 166.671C233.639 166.671 239.316 164.171 245.639 166.671C248.972 163.005 258.639 156.971 270.639 162.171C277.439 165.771 281.805 160.338 283.139 157.171L302.139 160.671L308.639 158.671L319.139 164.671C321.142 163.671 327.047 162.971 334.639 168.171C339.31 171.371 340.846 172.084 341.035 171.849C340.762 171.487 340.498 171.095 340.247 170.671C339.593 169.566 339.031 168.243 338.639 166.671C337.039 155.871 320.639 149.171 312.639 147.171C303.039 138.771 291.639 138.671 287.139 139.671C283.139 142.171 274.039 146.571 269.639 144.171Z" fill="#C14A20"/>
<path d="M322.639 245.661C329.909 243.413 335.101 239.794 337.639 237.171C338.632 235.185 339.285 232.979 339.678 230.674C339.769 230.138 339.847 229.596 339.911 229.051C340.903 220.613 338.753 211.265 337.139 206.671C348.739 197.871 341.639 191.005 336.639 188.671C343.839 199.071 331.305 199.671 324.139 198.671C338.939 218.271 329.305 238.164 322.639 245.661Z" fill="#C14A20"/>
<path d="M299.035 224.171C296.701 216.671 290.135 201.771 282.535 202.171C274.935 202.571 273.701 200.671 274.035 199.671C272.261 196.671 266.877 191.071 259.535 192.671C254.735 191.471 255.201 186.505 256.035 184.171C256.868 182.171 256.635 178.771 249.035 181.171L240.035 176.671H250.358C254.917 175.005 265.035 172.271 269.035 174.671C270.994 179.671 276.036 190.471 280.535 193.671C285.033 196.871 288.409 195.005 289.535 193.671L308.535 202.171L299.035 224.171Z" fill="#C14A20"/>
<path fill-rule="evenodd" clip-rule="evenodd" d="M255.535 242.171C259.368 236.505 272.535 229.171 294.535 245.171C304.974 247.732 315.586 247.841 322.639 245.661C329.305 238.164 338.939 218.271 324.139 198.671C331.305 199.671 343.839 199.071 336.639 188.671C341.639 191.005 348.739 197.871 337.139 206.671C338.753 211.265 340.903 220.613 339.911 229.051C340.605 227.053 341.03 223.749 341.277 220.171C341.594 215.558 341.616 210.489 341.535 207.171C348.735 201.171 347.535 191.671 346.035 187.671L345.035 174.671L344.927 174.653C343.671 174.446 342.898 174.318 341.035 171.849C340.846 172.084 339.31 171.371 334.639 168.171C327.047 162.971 321.142 163.671 319.139 164.671L308.639 158.671L302.139 160.671L283.139 157.171C281.805 160.338 277.439 165.771 270.639 162.171C258.639 156.971 248.972 163.005 245.639 166.671C239.316 164.171 233.639 166.671 231.139 166.671C229.139 166.671 225.972 162.671 224.639 160.671C236.239 159.471 247.687 149.171 251.961 144.171C238.71 150.97 223.361 148.211 217.535 146.171C209.535 141.771 194.535 140.005 188.035 139.671L183.535 137.671L167.035 145.171C163.845 147.515 159.502 150.971 155.535 154.624C152.369 157.54 149.442 160.58 147.535 163.279C145.713 165.857 144.82 168.123 145.535 169.671L148.139 173.671C150.305 175.505 156.339 179.371 163.139 180.171C164.639 185.171 173.039 191.871 194.639 178.671L220.639 207.671C215.472 203.171 202.039 195.871 189.639 202.671C182.839 203.871 174.472 199.505 171.139 197.171C168.139 196.505 161.239 196.271 157.639 200.671C152.334 199.636 141.128 197.943 136.535 201.239C136.201 206.216 138.335 215.771 149.535 214.171C146.535 223.005 147.335 237.171 174.535 223.171L179.592 230.671C192.16 229.131 207.941 228.939 220.035 233.671L205.035 218.171C217.701 228.005 246.035 244.571 258.035 232.171L255.535 242.171ZM282.535 202.171C290.135 201.771 296.701 216.671 299.035 224.171L308.535 202.171L289.535 193.671C288.409 195.005 285.033 196.871 280.535 193.671C276.036 190.471 270.994 179.671 269.035 174.671C265.035 172.271 254.917 175.005 250.358 176.671H240.035L249.035 181.171C256.635 178.771 256.868 182.171 256.035 184.171C255.201 186.505 254.735 191.471 259.535 192.671C266.877 191.071 272.261 196.671 274.035 199.671C273.701 200.671 274.935 202.571 282.535 202.171Z" fill="#E89F1C"/>
<path d="M79.0348 142.171L73.5348 146.171C66.3681 145.671 50.9348 145.871 46.5348 150.671C42.1348 155.471 43.3681 158.338 44.5348 159.171C50.1451 166.076 62.8327 180.282 73.917 188.671C78.4563 186.005 89.1348 183.271 95.5348 193.671C96.7348 195.671 103.035 194.505 106.035 193.671C111.535 198.005 123.035 205.971 125.035 203.171C127.035 200.371 128.535 195.671 129.035 193.671C133.309 193.546 138.246 190.652 132.693 181.171C130.883 178.082 127.959 174.292 123.535 169.671C125.535 163.171 125.635 149.371 110.035 146.171L103.535 147.671C103.368 145.005 100.235 141.271 89.0348 147.671C77.8348 154.071 86.7015 153.671 92.5348 152.671C94.9348 156.271 105.201 157.838 110.035 158.171C112.435 164.571 102.368 163.171 97.0348 161.671C95.0348 159.322 89.8348 155.534 85.0348 159.171C68.2348 162.809 72.3681 155.02 76.5348 150.671C77.7015 147.171 82.2348 140.071 91.0348 139.671C99.8348 139.271 88.0348 134.838 81.0348 132.671L79.0348 142.171Z" fill="#896A16"/>
<path d="M79.0348 192.171C78.0348 198.838 79.3348 212.471 92.5348 213.671C105.735 214.871 118.701 220.505 123.535 223.171C126.368 224.005 133.035 225.171 137.035 223.171L138.535 214.171C137.035 213.505 134.035 210.771 134.035 205.171C134.303 203.471 135.211 202.189 136.535 201.239C141.128 197.943 152.334 199.636 157.639 200.671V189.671V188.905C152.564 185.549 148.905 180.852 147.139 177.671C145.539 180.871 136.307 181.005 132.693 181.171C138.246 190.652 133.309 193.546 129.035 193.671C128.535 195.671 127.035 200.371 125.035 203.171C123.035 205.971 111.535 198.005 106.035 193.671C103.035 194.505 96.7348 195.671 95.5348 193.671C89.1348 183.271 78.4563 186.005 73.917 188.671C75.6748 190.002 77.3923 191.186 79.0348 192.171Z" fill="#896A16"/>
<path d="M97.0348 127.171L81.0348 132.671C88.0348 134.838 99.8348 139.271 91.0348 139.671C82.2348 140.071 77.7015 147.171 76.5348 150.671C72.3681 155.02 68.2348 162.809 85.0348 159.171C89.8348 155.534 95.0348 159.322 97.0348 161.671C102.368 163.171 112.435 164.571 110.035 158.171C105.201 157.838 94.9348 156.271 92.5348 152.671C86.7015 153.671 77.8348 154.071 89.0348 147.671C100.235 141.271 103.368 145.005 103.535 147.671L110.035 146.171C125.635 149.371 125.535 163.171 123.535 169.671C126.701 168.171 133.735 165.871 136.535 168.671C138.054 170.191 140.134 171.583 142.037 172.671C138.87 164.838 133.735 148.571 138.535 146.171C143.335 143.771 146.535 156.577 147.535 163.279C149.442 160.58 152.369 157.54 155.535 154.624C159.502 150.971 163.845 147.515 167.035 145.171C167.602 140.918 157.313 134.57 147.535 129.691C143.52 127.688 139.591 125.933 136.535 124.671C135.701 123.005 133.035 119.271 129.035 117.671C125.035 116.071 119.368 117.671 117.035 118.671C116.21 119.161 113.656 122.05 110.035 129.691C106.413 137.332 101.193 131.528 99.0348 127.671L97.0348 127.171Z" fill="#30571D"/>
<path d="M148.139 173.671L145.535 169.671C144.82 168.123 145.713 165.857 147.535 163.279C146.535 156.577 143.335 143.771 138.535 146.171C133.735 148.571 138.87 164.838 142.037 172.671C143.641 173.588 146.724 175.29 147.639 175.671L148.139 173.671Z" fill="#896A16"/>
<path d="M117.035 118.671L101.035 128.171L99.0348 127.671C101.193 131.528 106.413 137.332 110.035 129.691C113.656 122.05 116.21 119.161 117.035 118.671Z" fill="#896A16"/>
<path d="M147.139 177.671L147.639 175.671C146.724 175.29 143.641 173.588 142.037 172.671C140.134 171.583 138.054 170.191 136.535 168.671C133.735 165.871 126.701 168.171 123.535 169.671C127.959 174.292 130.883 178.082 132.693 181.171C136.307 181.005 145.539 180.871 147.139 177.671Z" fill="#30571D"/>
<path d="M328.035 132.671C310.835 128.671 311.139 141.005 312.639 147.171C320.639 149.171 337.039 155.871 338.639 166.671C339.031 168.243 339.593 169.566 340.247 170.671C340.745 171.184 341.153 171.702 341.035 171.849C342.898 174.318 343.671 174.446 344.927 174.653L345.035 174.671L346.035 187.671C347.535 191.671 348.735 201.171 341.535 207.171C341.616 210.489 341.594 215.558 341.277 220.171L356.035 196.641C358.46 195.469 360.905 194.671 363.035 194.671C369.035 194.671 372.868 188.005 374.035 184.671C374.868 183.171 379.135 179.771 389.535 178.171C392.035 172.171 398.635 159.971 405.035 159.171C406.434 158.996 407.588 158.595 408.535 158.047C403.849 152.748 397.249 153.589 394.535 154.671C394.368 153.671 393.435 151.428 391.035 150.455C388.635 149.481 384.701 150.049 383.035 150.455C382.43 148.693 380.682 145.471 378.535 146.671C376.387 147.871 372.64 144.838 371.035 143.171C370.161 143.28 369.272 144 368.379 143.898C362.734 143.255 356.981 138.845 354.535 136.398C353.455 135.723 350.253 135.354 345.035 138.003L346.035 136.398C348.868 133.898 352.635 128.198 345.035 125.398C337.435 122.598 330.278 126.565 327.649 128.898C329.228 131.361 329.932 132.671 328.035 132.671Z" fill="#57691E"/>
<path d="M435.035 124.671C434.535 116.338 427.635 99.2713 404.035 97.6713H394.035C386.701 100.171 371.335 101.771 368.535 88.1713C365.735 74.5713 357.035 71.5046 353.035 71.6713C351.868 72.6713 348.635 74.4713 345.035 73.6713C340.962 72.3138 337.822 71.9983 335.535 72.1665C337.368 75.3348 341.835 82.0713 345.035 83.6713C348.235 85.2713 350.701 87.3379 351.535 88.1713C352.163 89.6046 350.843 92.6114 340.535 93.1713L333.035 90.6713C325.035 90.6713 325.701 103.065 327.035 108.898C329.535 113.398 336.835 119.298 346.035 106.898C349.868 106.382 358.635 104.756 363.035 102.375C366.929 105.383 369.864 106.638 371.035 106.898H385.535L392.035 111.065L403.035 100.398C406.106 99.3979 412.677 99.2979 414.392 106.898C416.106 114.498 413.201 118.398 411.535 119.398H416.535L422.535 118.671L426.535 122.171C428.201 121.505 432.235 121.071 435.035 124.671Z" fill="#57691E"/>
<path d="M393.035 195.398C391.435 192.598 400.368 187.838 405.035 186.171C405.38 186.151 405.766 186.149 406.177 186.171L415.035 176.171L422.535 177.171C423.868 174.671 427.135 169.871 429.535 170.671C436.735 175.871 440.201 170.505 441.035 167.171C438.868 166.838 433.835 162.971 431.035 150.171C425.835 147.371 421.868 147.671 420.535 148.171C419.83 148.62 418.78 149.196 417.642 149.668C418.382 150.061 420.736 151.481 426.535 155.171C435.335 160.771 427.535 167.171 422.535 169.671C420.201 169.171 415.535 167.671 415.535 165.671C415.535 163.671 420.201 160.505 422.535 159.171L417.535 159.671L415.535 151.671L415.035 150.455C414.075 150.61 413.189 150.564 412.535 150.171C412.665 152.255 411.92 156.089 408.535 158.047C407.588 158.595 406.434 158.996 405.035 159.171C398.635 159.971 392.035 172.171 389.535 178.171L383.535 186.171L387.035 192.671L378.035 198.671L385.535 205.288L393.035 195.398Z" fill="#57691E"/>
<path d="M394.035 144.171C397.635 140.971 404.868 139.505 408.035 139.171C408.191 138.08 408.766 137.623 409.636 136.398L405.035 133.398C383.926 122.105 380.043 127.584 381.219 134.398C381.536 136.235 382.221 138.169 383.035 139.898L384.035 141.085C389.021 141.37 392.485 142.621 394.035 144.171Z" fill="#57691E"/>
<path d="M407.035 149.171C398.635 150.771 394.868 146.505 394.035 144.171C392.485 142.621 389.021 141.37 384.035 141.085C381.691 140.951 379.011 141.191 376.035 142.025C374.45 142.47 372.781 142.356 371.035 143.171C372.64 144.838 376.387 147.871 378.535 146.671C380.682 145.471 382.43 148.693 383.035 150.455C384.701 150.049 388.635 149.481 391.035 150.455C393.435 151.428 394.368 153.671 394.535 154.671C397.249 153.589 403.849 152.748 408.535 158.047C411.92 156.089 412.665 152.255 412.535 150.171C410.935 147.371 408.201 148.338 407.035 149.171Z" fill="#57691E"/>
<path d="M327.035 108.898C321.435 116.898 321.701 121.231 322.535 122.398C324.111 124.132 326.233 126.687 327.649 128.898C330.278 126.565 337.435 122.598 345.035 125.398C352.635 128.198 348.868 133.898 346.035 136.398L345.035 138.003C350.253 135.354 353.455 135.723 354.535 136.398C356.981 138.845 362.734 143.255 368.379 143.898C367.098 141.15 366.835 136.927 376.035 142.025C379.011 141.191 381.691 140.951 384.035 141.085L383.035 139.898C382.221 138.169 381.536 136.235 381.219 134.398C376.158 125.731 373.835 113.398 405.035 133.398L409.636 136.398C410.797 134.761 412.483 133.052 414.392 131.398C412.273 129.565 409.735 124.598 416.535 119.398H411.535H405.035L392.035 111.065L385.535 106.898H371.035C369.864 106.638 366.929 105.383 363.035 102.375C358.635 104.756 349.868 106.382 346.035 106.898C336.835 119.298 329.535 113.398 327.035 108.898Z" fill="#406118"/>
<path d="M392.035 111.065L405.035 119.398H411.535C413.201 118.398 416.106 114.498 414.392 106.898C412.677 99.2979 406.106 99.3979 403.035 100.398L392.035 111.065Z" fill="#406118"/>
<path d="M381.219 134.398C380.043 127.584 383.926 122.105 405.035 133.398C373.835 113.398 376.158 125.731 381.219 134.398Z" fill="#406118"/>
<path d="M426.535 122.171L422.535 118.671L416.535 119.398C409.735 124.598 412.273 129.565 414.392 131.398C418.387 127.936 423.356 123.988 426.535 122.171Z" fill="#406118"/>
<path d="M458.535 140.171C459.368 138.171 457.835 134.071 445.035 133.671C439.435 133.671 436.035 127.671 435.035 124.671C432.235 121.071 428.201 121.505 426.535 122.171C423.356 123.988 418.387 127.936 414.392 131.398C412.483 133.052 410.797 134.761 409.636 136.398C408.766 137.623 408.191 138.08 408.035 139.171C404.868 139.505 397.635 140.971 394.035 144.171C394.868 146.505 398.635 150.771 407.035 149.171C408.201 148.338 410.935 147.371 412.535 150.171C413.189 150.564 414.075 150.61 415.035 150.455C415.847 150.323 416.712 150.046 417.535 149.712C417.307 149.537 417.258 149.465 417.642 149.668C418.78 149.196 419.83 148.62 420.535 148.171C421.868 147.671 425.835 147.371 431.035 150.171C436.235 152.971 444.201 148.671 447.535 146.171C450.035 145.145 456.435 143.599 462.035 145.631C461.414 143.84 460.324 141.96 458.535 140.171Z" fill="#406118"/>
<path d="M415.535 151.671L417.535 159.671L422.535 159.171C420.201 160.505 415.535 163.671 415.535 165.671C415.535 167.671 420.201 169.171 422.535 169.671C427.535 167.171 435.335 160.771 426.535 155.171C420.736 151.481 418.382 150.061 417.642 149.668C417.606 149.683 417.571 149.697 417.535 149.712C416.712 150.046 415.847 150.323 415.035 150.455L415.535 151.671Z" fill="#406118"/>
<path d="M413.035 192.671C417.035 192.27 426.035 192.108 430.035 194.671C437.925 194.671 443.322 187.338 445.035 183.671C443.701 176.505 445.235 160.471 462.035 153.671C462.691 152.141 463.218 149.047 462.035 145.631C456.435 143.599 450.035 145.145 447.535 146.171C444.201 148.671 436.235 152.971 431.035 150.171C433.835 162.971 438.868 166.838 441.035 167.171C440.201 170.505 436.735 175.871 429.535 170.671C427.135 169.871 423.868 174.671 422.535 177.171L415.035 176.171L406.177 186.171C409.136 186.332 413.386 187.754 413.035 192.671Z" fill="#406118"/>
<path d="M401.035 211.398C407.368 212.898 417.735 212.798 408.535 200.398C404.035 199.898 394.635 198.198 393.035 195.398L385.535 205.288C389.904 204.977 397.356 208.992 401.035 211.398Z" fill="#406118"/>
<path d="M368.379 143.898C369.272 144 370.161 143.28 371.035 143.171C372.781 142.356 374.45 142.47 376.035 142.025C366.835 136.927 367.098 141.15 368.379 143.898Z" fill="#406118"/>
<path d="M339.678 230.674C343.02 230.537 350.052 228.146 356.035 219.171C362.868 219.171 377.935 216.371 383.535 205.171C384.078 204.809 384.758 205.343 385.535 205.288L378.035 198.671L387.035 192.671L383.535 186.171L389.535 178.171C379.135 179.771 374.868 183.171 374.035 184.671C372.868 188.005 369.035 194.671 363.035 194.671C360.905 194.671 358.46 195.469 356.035 196.641L341.277 220.171C341.03 223.749 340.605 227.053 339.911 229.051C339.847 229.596 339.769 230.138 339.678 230.674Z" fill="#406118"/>
<path d="M318.843 38.6713C315.238 33.8642 310.959 29.0958 306.126 25.1713C314.604 25.6713 329.016 29.0713 318.843 38.6713Z" fill="#4D262D"/>
<path d="M330.035 57.6713L331.035 73.6713C331.636 73.0702 333.104 72.3453 335.535 72.1665C337.822 71.9983 340.962 72.3138 345.035 73.6713C348.635 74.4713 351.868 72.6713 353.035 71.6713C357.035 71.5046 365.735 74.5713 368.535 88.1713C371.335 101.771 386.701 100.171 394.035 97.6713C397.852 91.9456 404.799 79.7017 405.579 71.6713C404.065 69.6713 400.535 65.4713 398.535 64.6713C396.535 63.8713 393.701 66.3379 392.535 67.6713L389.535 60.6713L384.535 67.6713V71.6713C383.701 73.8379 380.735 77.7713 375.535 76.1713C374.735 72.1713 372.535 71.5046 371.535 71.6713C368.535 72.3379 362.735 72.4713 363.535 67.6713C364.335 62.8713 361.201 60.3379 359.535 59.6713C360.701 62.6713 361.535 67.8713 355.535 64.6713C353.135 59.0713 347.535 59.0046 345.035 59.6713C347.035 48.4713 344.201 48.6713 342.535 50.1713C336.135 61.3713 333.535 58.5046 333.035 55.6713C333.701 54.3379 334.235 51.3713 331.035 50.1713C327.835 48.9713 326.55 49.6713 326.307 50.1713C327.896 53.0178 329.15 55.5943 330.035 57.6713Z" fill="#4D262D"/>
<path d="M405.535 68.6713C405.535 52.2713 390.868 42.838 383.535 40.1713L369.035 34.6713H364.535C363.368 33.1713 360.335 30.0713 357.535 29.6713C354.735 29.2713 351.035 30.5047 349.535 31.1713C347.868 28.338 343.235 22.3714 338.035 21.1714C332.835 19.9714 326.868 22.0047 324.535 23.1714C321.368 23.1713 313.935 22.1713 309.535 18.1713C306.735 16.5713 298.368 17.5047 294.535 18.1713C298.67 19.8253 302.55 22.2673 306.126 25.1713C314.604 25.6713 329.016 29.0713 318.843 38.6713C319.593 39.672 320.314 40.6744 321.005 41.6713C323.046 44.6157 324.823 47.5114 326.307 50.1713C326.55 49.6713 327.835 48.9713 331.035 50.1713C334.235 51.3713 333.701 54.3379 333.035 55.6713C333.535 58.5046 336.135 61.3713 342.535 50.1713C344.201 48.6713 347.035 48.4713 345.035 59.6713C347.535 59.0046 353.135 59.0713 355.535 64.6713C361.535 67.8713 360.701 62.6713 359.535 59.6713C361.201 60.3379 364.335 62.8713 363.535 67.6713C362.735 72.4713 368.535 72.3379 371.535 71.6713C372.535 71.5046 374.735 72.1713 375.535 76.1713C380.735 77.7713 383.701 73.8379 384.535 71.6713V67.6713L389.535 60.6713L392.535 67.6713C393.701 66.3379 396.535 63.8713 398.535 64.6713C400.535 65.4713 404.065 69.6713 405.579 71.6713C405.685 70.5854 405.678 69.5766 405.535 68.6713Z" fill="#823931"/>
<path fill-rule="evenodd" clip-rule="evenodd" d="M294.535 18.1713C288.868 14.6713 275.135 8.4713 265.535 11.6713C258.729 8.85494 243.313 5.88986 224.035 9.54765C222.201 10.5889 218.735 13.7714 219.535 18.1713C214.368 21.1713 203.435 26.9713 201.035 26.1713L193.035 37.1713C180.368 41.0046 157.135 53.4713 165.535 72.6713C167.035 73.1713 171.035 73.2713 175.035 69.6713C177.368 72.3379 183.635 76.2713 190.035 70.6713C192.035 75.3379 199.635 80.7713 214.035 65.1713C218.435 65.9713 221.201 63.5046 222.035 62.1713L230.035 65.1713L240.035 62.1713C243.201 65.6713 250.535 72.6713 254.535 72.6713C258.535 72.6713 264.868 69.3379 267.535 67.6713C275.035 69.1713 287.235 69.0713 276.035 56.6713C273.235 52.6713 279.535 53.3379 283.035 54.1713C286.035 55.3379 290.835 55.7713 286.035 48.1713C283.035 41.1713 289.535 44.1713 292.035 43.6713C294.035 43.2713 295.535 37.5046 296.035 34.6713C298.225 34.8379 303.192 34.3713 305.535 31.1713C307.878 27.9713 311.511 34.8379 313.035 38.6713L321.005 41.6713C320.314 40.6744 319.593 39.672 318.843 38.6713C315.238 33.8642 310.959 29.0958 306.126 25.1713C302.55 22.2673 298.67 19.8253 294.535 18.1713ZM200.535 35.6713C212.201 41.3379 238.535 38.6713 249.535 22.6713C251.201 20.8379 255.335 18.2713 258.535 22.6713C260.633 21.5094 264.618 18.5552 265.4 15.2822C265.467 14.8578 265.511 14.4828 265.535 14.1713C265.535 14.5442 265.487 14.9152 265.4 15.2822C264.999 17.8092 263.775 22.0889 261.035 25.1713C261.868 27.1713 262.635 32.1713 259.035 36.1713C251.201 45.0046 228.535 57.2713 200.535 35.6713Z" fill="#E89F1C"/>
<path d="M224.035 9.54765C215.933 11.0849 207.149 13.7919 198.035 18.1713C177.635 26.9588 166.572 42.8871 161.706 54.1713C160.37 57.2693 159.501 60.0172 159.035 62.1713C156.421 63.0424 155.369 66.2256 155.087 69.6713C154.852 72.5544 155.155 75.6213 155.535 77.6713C153.553 77.9543 152.791 83.2614 152.573 88.1713C152.483 90.1999 152.486 92.1607 152.535 93.6713C151.885 94.5382 151.367 95.7671 150.957 97.1713C152.983 102.338 156.735 113.671 155.535 117.671C159.035 120.838 166.235 128.071 167.035 131.671C167.835 135.271 181.368 125.838 188.035 120.671L196.535 121.671C199.868 115.671 208.235 107.271 215.035 121.671C215.701 122.005 217.435 122.471 219.035 121.671C222.535 127.838 232.635 137.771 245.035 128.171C247.035 124.571 252.201 127.685 254.535 129.691C261.035 128.351 274.435 126.871 276.035 131.671C277.635 136.471 298.368 125.338 308.535 119.171C308.035 114.171 308.735 103.071 315.535 98.6713C315.535 93.1713 317.535 80.4713 325.535 73.6713L330.035 57.6713C329.15 55.5943 327.896 53.0178 326.307 50.1713C324.823 47.5114 323.046 44.6157 321.005 41.6713L313.035 38.6713C311.511 34.8379 307.878 27.9713 305.535 31.1713C303.192 34.3713 298.225 34.8379 296.035 34.6713C295.535 37.5046 294.035 43.2713 292.035 43.6713C289.535 44.1713 283.035 41.1713 286.035 48.1713C290.835 55.7713 286.035 55.3379 283.035 54.1713C279.535 53.3379 273.235 52.6713 276.035 56.6713C287.235 69.0713 275.035 69.1713 267.535 67.6713C264.868 69.3379 258.535 72.6713 254.535 72.6713C250.535 72.6713 243.201 65.6713 240.035 62.1713L230.035 65.1713L222.035 62.1713C221.201 63.5046 218.435 65.9713 214.035 65.1713C199.635 80.7713 192.035 75.3379 190.035 70.6713C183.635 76.2713 177.368 72.3379 175.035 69.6713C171.035 73.2713 167.035 73.1713 165.535 72.6713C157.135 53.4713 180.368 41.0046 193.035 37.1713L201.035 26.1713C203.435 26.9713 214.368 21.1713 219.535 18.1713C218.735 13.7714 222.201 10.5889 224.035 9.54765Z" fill="#DFDFDC"/>
<path d="M167.035 145.171L183.535 137.671L188.035 139.671C194.535 140.005 209.535 141.771 217.535 146.171C223.361 148.211 238.71 150.97 251.961 144.171C253.872 143.191 255.773 142.032 257.639 140.671C258.472 139.671 262.039 138.971 269.639 144.171C274.039 146.571 283.139 142.171 287.139 139.671C291.639 138.671 303.039 138.771 312.639 147.171C311.139 141.005 310.835 128.671 328.035 132.671C329.932 132.671 329.228 131.361 327.649 128.898C326.233 126.687 324.111 124.132 322.535 122.398C321.701 121.231 321.435 116.898 327.035 108.898C325.701 103.065 325.035 90.6713 333.035 90.6713C333.368 89.0046 333.235 83.9712 330.035 77.1713C328.435 73.5713 330.035 73.3379 331.035 73.6713L330.035 57.6713L325.535 73.6713C317.535 80.4713 315.535 93.1713 315.535 98.6713C308.735 103.071 308.035 114.171 308.535 119.171C298.368 125.338 277.635 136.471 276.035 131.671C274.435 126.871 261.035 128.351 254.535 129.691C252.201 127.685 247.035 124.571 245.035 128.171C232.635 137.771 222.535 127.838 219.035 121.671C217.435 122.471 215.701 122.005 215.035 121.671C208.235 107.271 199.868 115.671 196.535 121.671L188.035 120.671C181.368 125.838 167.835 135.271 167.035 131.671C166.235 128.071 159.035 120.838 155.535 117.671C156.735 113.671 152.983 102.338 150.957 97.1713C149.854 100.95 149.535 105.998 149.535 108.671C145.935 109.871 146.701 123.185 147.535 129.691C157.313 134.57 167.602 140.918 167.035 145.171Z" fill="#DCE594"/>
<path d="M198.035 18.1713C194.201 17.0046 184.735 16.7713 177.535 25.1713C173.935 26.3713 170.035 22.6713 168.535 20.6713C167.535 18.8379 162.635 17.8713 151.035 28.6713C147.868 29.3379 140.035 30.2713 134.035 28.6713C128.035 27.0713 123.868 33.6713 122.535 37.1713C114.035 35.5046 99.4348 34.3713 109.035 43.1713C111.835 47.1713 107.535 50.5046 105.035 51.6713C101.535 51.1712 94.6348 52.1712 95.0348 60.1713C89.2015 62.6713 78.2348 68.1714 81.0348 70.1713C85.2015 68.5046 96.1348 65.1713 106.535 65.1713C116.935 65.1713 130.868 54.8379 136.535 49.6713C141.482 50.6713 153.443 52.9713 161.706 54.1713C166.572 42.8871 177.635 26.9588 198.035 18.1713Z" fill="#C44B35"/>
<path d="M249.535 22.6713C238.535 38.6713 212.201 41.3379 200.535 35.6713C228.535 57.2713 251.201 45.0046 259.035 36.1713C262.635 32.1713 261.868 27.1713 261.035 25.1713L258.535 22.6713C255.335 18.2713 251.201 20.8379 249.535 22.6713Z" fill="#C44B35"/>
<path d="M258.535 22.6713L261.035 25.1713C263.775 22.0889 264.999 17.8092 265.4 15.2822C264.618 18.5552 260.633 21.5094 258.535 22.6713Z" fill="#406118"/>
<path d="M46.5348 123.171H55.0348C60.8681 123.338 75.0348 123.071 85.0348 120.671C95.0348 118.271 98.5348 119.671 99.0348 120.671C91.3681 125.838 74.4348 135.971 68.0348 135.171C69.2348 139.571 75.8681 141.671 79.0348 142.171L81.0348 132.671L97.0348 127.171L99.0348 127.671L101.035 128.171L117.035 118.671C119.368 117.671 125.035 116.071 129.035 117.671C133.035 119.271 135.701 123.005 136.535 124.671C139.591 125.933 143.52 127.688 147.535 129.691C146.701 123.185 145.935 109.871 149.535 108.671C149.535 105.998 149.854 100.95 150.957 97.1713C151.367 95.7671 151.885 94.5382 152.535 93.6713C152.486 92.1607 152.483 90.1999 152.573 88.1713C143.894 94.1713 122.835 106.671 108.035 108.671C79.2348 107.871 47.3681 115.984 35.0348 120.14C39.2391 121.352 43.5188 122.45 46.5348 123.171Z" fill="#B34E37"/>
<path d="M81.0348 70.1713C72.3681 71.0047 52.2348 77.3713 41.0348 96.1713C31.8348 105.371 26.5348 106.671 25.0348 106.171C22.8681 108.005 19.0348 112.271 21.0348 114.671C22.248 116.127 28.5517 118.27 35.0348 120.14C47.3681 115.984 79.2348 107.871 108.035 108.671C122.835 106.671 143.894 94.1713 152.573 88.1713C152.791 83.2614 153.553 77.9543 155.535 77.6713C155.155 75.6213 154.852 72.5544 155.087 69.6713C155.369 66.2256 156.421 63.0424 159.035 62.1713C159.501 60.0172 160.37 57.2693 161.706 54.1713C153.443 52.9713 141.482 50.6713 136.535 49.6713C130.868 54.8379 116.935 65.1713 106.535 65.1713C96.1348 65.1713 85.2015 68.5046 81.0348 70.1713Z" fill="#E89320"/>
<path d="M55.0348 123.171C59.0348 124.671 67.2348 129.171 68.0348 135.171C74.4348 135.971 91.3681 125.838 99.0348 120.671C98.5348 119.671 95.0348 118.271 85.0348 120.671C75.0348 123.071 60.8681 123.338 55.0348 123.171Z" fill="#E89320"/>
<path d="M44.5348 159.171C49.0348 165.338 57.9348 179.471 57.5348 186.671C57.1348 193.871 64.3681 196.671 68.0348 197.171C70.8681 198.171 77.0348 203.671 79.0348 217.671C92.6348 226.071 109.701 229.171 116.535 229.671C121.535 228.338 133.635 229.871 142.035 246.671C148.835 256.271 165.201 253.005 172.535 250.171C185.535 244.171 217.235 238.171 240.035 262.171C251.235 266.571 266.701 261.005 273.035 257.671C278.868 254.838 297.235 250.271 324.035 254.671C334.435 257.071 343.701 247.005 347.035 241.671C349.868 237.005 359.035 227.871 373.035 228.671C387.035 229.471 394.868 220.671 397.035 216.171C404.368 217.171 419.835 215.771 423.035 202.171C433.701 200.838 456.435 189.271 462.035 153.671C445.235 160.471 443.701 176.505 445.035 183.671C443.322 187.338 437.925 194.671 430.035 194.671C426.035 192.108 417.035 192.27 413.035 192.671C413.386 187.754 409.136 186.332 406.177 186.171C405.766 186.149 405.38 186.151 405.035 186.171C400.368 187.838 391.435 192.598 393.035 195.398C394.635 198.198 404.035 199.898 408.535 200.398C417.735 212.798 407.368 212.898 401.035 211.398C397.356 208.992 389.904 204.977 385.535 205.288C384.758 205.343 384.078 204.809 383.535 205.171C377.935 216.371 362.868 219.171 356.035 219.171C350.052 228.146 343.02 230.537 339.678 230.674C339.285 232.979 338.632 235.185 337.639 237.171C335.101 239.794 329.909 243.413 322.639 245.661C315.586 247.841 304.974 247.732 294.535 245.171C272.535 229.171 259.368 236.505 255.535 242.171C249.701 245.338 234.435 248.071 220.035 233.671C207.941 228.939 192.16 229.131 179.592 230.671C173.04 231.474 167.362 232.643 163.535 233.671C139.135 235.271 135.701 227.338 137.035 223.171C133.035 225.171 126.368 224.005 123.535 223.171C118.701 220.505 105.735 214.871 92.5348 213.671C79.3348 212.471 78.0348 198.838 79.0348 192.171C77.3923 191.186 75.6748 190.002 73.917 188.671C62.8327 180.282 50.1451 166.076 44.5348 159.171Z" fill="#C5B398"/>
<path d="M81.0348 70.1713C72.3681 71.0047 52.2348 77.3713 41.0348 96.1713C31.8348 105.371 26.5348 106.671 25.0348 106.171C22.8681 108.005 19.0348 112.271 21.0348 114.671C22.248 116.127 28.5517 118.27 35.0348 120.14M81.0348 70.1713C78.2348 68.1714 89.2015 62.6713 95.0348 60.1713C94.6348 52.1712 101.535 51.1712 105.035 51.6713C107.535 50.5046 111.835 47.1713 109.035 43.1713C99.4348 34.3713 114.035 35.5046 122.535 37.1713C123.868 33.6713 128.035 27.0713 134.035 28.6713C140.035 30.2713 147.868 29.3379 151.035 28.6713C162.635 17.8713 167.535 18.8379 168.535 20.6713C170.035 22.6713 173.935 26.3713 177.535 25.1713C184.735 16.7713 194.201 17.0046 198.035 18.1713M81.0348 70.1713C85.2015 68.5046 96.1348 65.1713 106.535 65.1713C116.935 65.1713 130.868 54.8379 136.535 49.6713C141.482 50.6713 153.443 52.9713 161.706 54.1713M55.0348 123.171H46.5348C43.5188 122.45 39.2391 121.352 35.0348 120.14M55.0348 123.171C59.0348 124.671 67.2348 129.171 68.0348 135.171M55.0348 123.171C60.8681 123.338 75.0348 123.071 85.0348 120.671C95.0348 118.271 98.5348 119.671 99.0348 120.671C91.3681 125.838 74.4348 135.971 68.0348 135.171M68.0348 135.171C69.2348 139.571 75.8681 141.671 79.0348 142.171M79.0348 142.171L73.5348 146.171C66.3681 145.671 50.9348 145.871 46.5348 150.671C42.1348 155.471 43.3681 158.338 44.5348 159.171M79.0348 142.171L81.0348 132.671M44.5348 159.171C49.0348 165.338 57.9348 179.471 57.5348 186.671C57.1348 193.871 64.3681 196.671 68.0348 197.171C70.8681 198.171 77.0348 203.671 79.0348 217.671C92.6348 226.071 109.701 229.171 116.535 229.671C121.535 228.338 133.635 229.871 142.035 246.671C148.835 256.271 165.201 253.005 172.535 250.171C185.535 244.171 217.235 238.171 240.035 262.171C251.235 266.571 266.701 261.005 273.035 257.671C278.868 254.838 297.235 250.271 324.035 254.671C334.435 257.071 343.701 247.005 347.035 241.671C349.868 237.005 359.035 227.871 373.035 228.671C387.035 229.471 394.868 220.671 397.035 216.171C404.368 217.171 419.835 215.771 423.035 202.171C433.701 200.838 456.435 189.271 462.035 153.671M44.5348 159.171C50.1451 166.076 62.8327 180.282 73.917 188.671M462.035 153.671C445.235 160.471 443.701 176.505 445.035 183.671C443.322 187.338 437.925 194.671 430.035 194.671C426.035 192.108 417.035 192.27 413.035 192.671C413.386 187.754 409.136 186.332 406.177 186.171M462.035 153.671C462.691 152.141 463.218 149.047 462.035 145.631M435.035 124.671C436.035 127.671 439.435 133.671 445.035 133.671C457.835 134.071 459.368 138.171 458.535 140.171C460.324 141.96 461.414 143.84 462.035 145.631M435.035 124.671C434.535 116.338 427.635 99.2713 404.035 97.6713H394.035M435.035 124.671C432.235 121.071 428.201 121.505 426.535 122.171M394.035 97.6713C386.701 100.171 371.335 101.771 368.535 88.1713C365.735 74.5713 357.035 71.5046 353.035 71.6713C351.868 72.6713 348.635 74.4713 345.035 73.6713C340.962 72.3138 337.822 71.9983 335.535 72.1665M394.035 97.6713C397.852 91.9456 404.799 79.7017 405.579 71.6713M294.535 18.1713C298.368 17.5047 306.735 16.5713 309.535 18.1713C313.935 22.1713 321.368 23.1713 324.535 23.1714C326.868 22.0047 332.835 19.9714 338.035 21.1714C343.235 22.3714 347.868 28.338 349.535 31.1713C351.035 30.5047 354.735 29.2713 357.535 29.6713C360.335 30.0713 363.368 33.1713 364.535 34.6713H369.035L383.535 40.1713C390.868 42.838 405.535 52.2713 405.535 68.6713C405.678 69.5766 405.685 70.5854 405.579 71.6713M294.535 18.1713C288.868 14.6713 275.135 8.4713 265.535 11.6713C258.729 8.85494 243.313 5.88986 224.035 9.54765M294.535 18.1713C298.67 19.8253 302.55 22.2673 306.126 25.1713M198.035 18.1713C207.149 13.7919 215.933 11.0849 224.035 9.54765M198.035 18.1713C177.635 26.9588 166.572 42.8871 161.706 54.1713M137.035 223.171C133.035 225.171 126.368 224.005 123.535 223.171C118.701 220.505 105.735 214.871 92.5348 213.671C79.3348 212.471 78.0348 198.838 79.0348 192.171C77.3923 191.186 75.6748 190.002 73.917 188.671M137.035 223.171C135.701 227.338 139.135 235.271 163.535 233.671C167.362 232.643 173.04 231.474 179.592 230.671M137.035 223.171L138.535 214.171C137.035 213.505 134.035 210.771 134.035 205.171C134.303 203.471 135.211 202.189 136.535 201.239M220.035 233.671C234.435 248.071 249.701 245.338 255.535 242.171M220.035 233.671L205.035 218.171C217.701 228.005 246.035 244.571 258.035 232.171L255.535 242.171M220.035 233.671C207.941 228.939 192.16 229.131 179.592 230.671M255.535 242.171C259.368 236.505 272.535 229.171 294.535 245.171C304.974 247.732 315.586 247.841 322.639 245.661M337.639 237.171L339.035 230.671M337.639 237.171C335.101 239.794 329.909 243.413 322.639 245.661M337.639 237.171C338.632 235.185 339.285 232.979 339.678 230.674M339.035 230.671C339.366 230.34 339.656 229.783 339.911 229.051M339.035 230.671C339.23 230.682 339.445 230.683 339.678 230.674M393.035 195.398C394.635 198.198 404.035 199.898 408.535 200.398C417.735 212.798 407.368 212.898 401.035 211.398C397.356 208.992 389.904 204.977 385.535 205.288M393.035 195.398C391.435 192.598 400.368 187.838 405.035 186.171C405.38 186.151 405.766 186.149 406.177 186.171M393.035 195.398L385.535 205.288M81.0348 132.671L97.0348 127.171L99.0348 127.671M81.0348 132.671C88.0348 134.838 99.8348 139.271 91.0348 139.671C82.2348 140.071 77.7015 147.171 76.5348 150.671C72.3681 155.02 68.2348 162.809 85.0348 159.171C89.8348 155.534 95.0348 159.322 97.0348 161.671C102.368 163.171 112.435 164.571 110.035 158.171C105.201 157.838 94.9348 156.271 92.5348 152.671C86.7015 153.671 77.8348 154.071 89.0348 147.671C100.235 141.271 103.368 145.005 103.535 147.671L110.035 146.171M117.035 118.671L101.035 128.171L99.0348 127.671M117.035 118.671C119.368 117.671 125.035 116.071 129.035 117.671C133.035 119.271 135.701 123.005 136.535 124.671C139.591 125.933 143.52 127.688 147.535 129.691M117.035 118.671C116.21 119.161 113.656 122.05 110.035 129.691C106.413 137.332 101.193 131.528 99.0348 127.671M167.035 145.171L183.535 137.671L188.035 139.671C194.535 140.005 209.535 141.771 217.535 146.171C223.361 148.211 238.71 150.97 251.961 144.171M167.035 145.171C167.602 140.918 157.313 134.57 147.535 129.691M167.035 145.171C163.845 147.515 159.502 150.971 155.535 154.624M148.139 173.671L145.535 169.671C144.82 168.123 145.713 165.857 147.535 163.279M148.139 173.671C150.305 175.505 156.339 179.371 163.139 180.171C164.639 185.171 173.039 191.871 194.639 178.671L220.639 207.671C215.472 203.171 202.039 195.871 189.639 202.671C182.839 203.871 174.472 199.505 171.139 197.171C168.139 196.505 161.239 196.271 157.639 200.671M148.139 173.671L147.639 175.671M147.139 177.671L147.639 175.671M147.139 177.671C145.539 180.871 136.307 181.005 132.693 181.171M147.139 177.671C148.905 180.852 152.564 185.549 157.639 188.905M208.535 198.171C204.135 190.571 196.368 191.338 193.035 192.671C187.435 187.071 177.035 189.671 172.535 191.671C166.144 192.799 162.137 191.879 157.639 188.905M157.639 200.671V189.671V188.905M157.639 200.671C152.334 199.636 141.128 197.943 136.535 201.239M312.639 147.171C303.039 138.771 291.639 138.671 287.139 139.671C283.139 142.171 274.039 146.571 269.639 144.171C262.039 138.971 258.472 139.671 257.639 140.671C255.773 142.032 253.872 143.191 251.961 144.171M312.639 147.171C311.139 141.005 310.835 128.671 328.035 132.671C329.932 132.671 329.228 131.361 327.649 128.898M312.639 147.171C320.639 149.171 337.039 155.871 338.639 166.671C339.031 168.243 339.593 169.566 340.247 170.671M327.035 108.898C321.435 116.898 321.701 121.231 322.535 122.398C324.111 124.132 326.233 126.687 327.649 128.898M327.035 108.898C325.701 103.065 325.035 90.6713 333.035 90.6713M327.035 108.898C329.535 113.398 336.835 119.298 346.035 106.898C349.868 106.382 358.635 104.756 363.035 102.375M333.035 90.6713C333.368 89.0046 333.235 83.9712 330.035 77.1713C328.435 73.5713 330.035 73.3379 331.035 73.6713M333.035 90.6713L340.535 93.1713C350.843 92.6114 352.163 89.6046 351.535 88.1713C350.701 87.3379 348.235 85.2713 345.035 83.6713C341.835 82.0713 337.368 75.3348 335.535 72.1665M331.035 73.6713L330.035 57.6713M331.035 73.6713C331.636 73.0702 333.104 72.3453 335.535 72.1665M330.035 57.6713L325.535 73.6713C317.535 80.4713 315.535 93.1713 315.535 98.6713C308.735 103.071 308.035 114.171 308.535 119.171C298.368 125.338 277.635 136.471 276.035 131.671C274.435 126.871 261.035 128.351 254.535 129.691C252.201 127.685 247.035 124.571 245.035 128.171C232.635 137.771 222.535 127.838 219.035 121.671C217.435 122.471 215.701 122.005 215.035 121.671C208.235 107.271 199.868 115.671 196.535 121.671L188.035 120.671C181.368 125.838 167.835 135.271 167.035 131.671C166.235 128.071 159.035 120.838 155.535 117.671C156.735 113.671 152.983 102.338 150.957 97.1713M330.035 57.6713C329.15 55.5943 327.896 53.0178 326.307 50.1713M341.035 98.6713C344.868 96.5046 353.935 93.4713 359.535 98.6713C360.765 99.814 361.938 101.527 363.035 102.375M426.535 122.171L422.535 118.671L416.535 119.398M426.535 122.171C423.356 123.988 418.387 127.936 414.392 131.398M394.035 144.171C397.635 140.971 404.868 139.505 408.035 139.171C408.191 138.08 408.766 137.623 409.636 136.398M394.035 144.171C394.868 146.505 398.635 150.771 407.035 149.171C408.201 148.338 410.935 147.371 412.535 150.171M394.035 144.171C392.485 142.621 389.021 141.37 384.035 141.085M412.535 150.171C413.189 150.564 414.075 150.61 415.035 150.455M412.535 150.171C412.665 152.255 411.92 156.089 408.535 158.047M431.035 150.171C425.835 147.371 421.868 147.671 420.535 148.171C419.83 148.62 418.78 149.196 417.642 149.668M431.035 150.171C436.235 152.971 444.201 148.671 447.535 146.171C450.035 145.145 456.435 143.599 462.035 145.631M431.035 150.171C433.835 162.971 438.868 166.838 441.035 167.171C440.201 170.505 436.735 175.871 429.535 170.671C427.135 169.871 423.868 174.671 422.535 177.171L415.035 176.171L406.177 186.171M345.035 174.671L346.035 187.671C347.535 191.671 348.735 201.171 341.535 207.171C341.616 210.489 341.594 215.558 341.277 220.171M345.035 174.671L344.927 174.653M345.035 174.671C344.998 174.665 344.962 174.659 344.927 174.653M345.035 204.171C347.292 202.129 351.63 198.769 356.035 196.641M389.535 178.171C379.135 179.771 374.868 183.171 374.035 184.671C372.868 188.005 369.035 194.671 363.035 194.671C360.905 194.671 358.459 195.469 356.035 196.641M389.535 178.171C392.035 172.171 398.635 159.971 405.035 159.171C406.434 158.996 407.588 158.595 408.535 158.047M389.535 178.171L383.535 186.171L387.035 192.671L378.035 198.671L385.535 205.288M371.035 143.171C370.161 143.28 369.272 144 368.379 143.898M371.035 143.171C372.781 142.356 374.45 142.47 376.035 142.025M371.035 143.171C372.64 144.838 376.387 147.871 378.535 146.671C380.682 145.471 382.43 148.693 383.035 150.455C384.701 150.049 388.635 149.481 391.035 150.455C393.435 151.428 394.368 153.671 394.535 154.671C397.249 153.589 403.849 152.748 408.535 158.047M329.535 139.671C331.535 136.871 338.035 138.505 341.035 139.671C342.478 138.684 343.812 138.624 345.035 138.003M147.535 129.691C146.701 123.185 145.935 109.871 149.535 108.671C149.535 105.998 149.854 100.95 150.957 97.1713M224.035 9.54765C222.201 10.5889 218.735 13.7714 219.535 18.1713C214.368 21.1713 203.435 26.9713 201.035 26.1713L193.035 37.1713C180.368 41.0046 157.135 53.4713 165.535 72.6713C167.035 73.1713 171.035 73.2713 175.035 69.6713C177.368 72.3379 183.635 76.2713 190.035 70.6713C192.035 75.3379 199.635 80.7713 214.035 65.1713C218.435 65.9713 221.201 63.5046 222.035 62.1713L230.035 65.1713L240.035 62.1713C243.201 65.6713 250.535 72.6713 254.535 72.6713C258.535 72.6713 264.868 69.3379 267.535 67.6713C275.035 69.1713 287.235 69.0713 276.035 56.6713C273.235 52.6713 279.535 53.3379 283.035 54.1713C286.035 55.3379 290.835 55.7713 286.035 48.1713C283.035 41.1713 289.535 44.1713 292.035 43.6713C294.035 43.2713 295.535 37.5046 296.035 34.6713C298.225 34.8379 303.192 34.3713 305.535 31.1713C307.878 27.9713 311.511 34.8379 313.035 38.6713L321.005 41.6713M321.005 41.6713C320.314 40.6744 319.593 39.672 318.843 38.6713M321.005 41.6713C323.046 44.6157 324.823 47.5114 326.307 50.1713M150.957 97.1713C151.367 95.7671 151.885 94.5382 152.535 93.6713C152.486 92.1607 152.483 90.1999 152.573 88.1713M322.639 245.661C329.305 238.164 338.939 218.271 324.139 198.671C331.305 199.671 343.839 199.071 336.639 188.671C341.639 191.005 348.739 197.871 337.139 206.671C338.753 211.265 340.903 220.613 339.911 229.051M161.706 54.1713C160.37 57.2693 159.502 60.0172 159.035 62.1713C156.421 63.0424 155.369 66.2256 155.087 69.6713M155.087 69.6713C154.852 72.5544 155.155 75.6213 155.535 77.6713C153.553 77.9543 152.791 83.2614 152.573 88.1713M155.087 69.6713H134.035L106.535 79.6713M35.0348 120.14C47.3681 115.984 79.2348 107.871 108.035 108.671C122.835 106.671 143.894 94.1713 152.573 88.1713M306.126 25.1713C310.959 29.0959 315.238 33.8642 318.843 38.6713M306.126 25.1713C314.604 25.6713 329.016 29.0713 318.843 38.6713M326.307 50.1713C326.55 49.6713 327.835 48.9713 331.035 50.1713C334.235 51.3713 333.701 54.3379 333.035 55.6713C333.535 58.5046 336.135 61.3713 342.535 50.1713C344.201 48.6713 347.035 48.4713 345.035 59.6713C347.535 59.0046 353.135 59.0713 355.535 64.6713C361.535 67.8713 360.701 62.6713 359.535 59.6713C361.201 60.3379 364.335 62.8713 363.535 67.6713C362.735 72.4713 368.535 72.3379 371.535 71.6713C372.535 71.5046 374.735 72.1713 375.535 76.1713C380.735 77.7713 383.701 73.8379 384.535 71.6713V67.6713L389.535 60.6713L392.535 67.6713C393.701 66.3379 396.535 63.8713 398.535 64.6713C400.535 65.4713 404.065 69.6713 405.579 71.6713M258.535 22.6713C255.335 18.2713 251.201 20.8379 249.535 22.6713C238.535 38.6713 212.201 41.3379 200.535 35.6713C228.535 57.2713 251.201 45.0046 259.035 36.1713C262.635 32.1713 261.868 27.1713 261.035 25.1713M258.535 22.6713L261.035 25.1713M258.535 22.6713C260.633 21.5094 264.618 18.5552 265.4 15.2822M261.035 25.1713C263.775 22.0889 264.999 17.8092 265.4 15.2822M73.917 188.671C78.4563 186.005 89.1348 183.271 95.5348 193.671C96.7348 195.671 103.035 194.505 106.035 193.671C111.535 198.005 123.035 205.971 125.035 203.171C127.035 200.371 128.535 195.671 129.035 193.671C133.309 193.546 138.246 190.652 132.693 181.171M123.535 169.671C125.535 163.171 125.635 149.371 110.035 146.171M123.535 169.671C126.701 168.171 133.735 165.871 136.535 168.671C138.054 170.191 140.134 171.583 142.037 172.671M123.535 169.671C127.959 174.292 130.883 178.082 132.693 181.171M110.035 146.171L106.035 139.671M147.639 175.671C146.724 175.29 143.641 173.588 142.037 172.671M128.535 122.671C130.701 123.838 135.435 127.371 137.035 132.171C138.635 136.971 146.035 138.838 149.535 139.171C150.535 140.171 151.935 143.771 149.535 150.171L155.535 154.624M155.535 154.624C152.369 157.54 149.442 160.58 147.535 163.279M251.961 144.171C247.687 149.171 236.239 159.471 224.639 160.671C225.972 162.671 229.139 166.671 231.139 166.671C233.639 166.671 239.316 164.171 245.639 166.671C248.972 163.005 258.639 156.971 270.639 162.171C277.439 165.771 281.805 160.338 283.139 157.171L302.139 160.671L308.639 158.671L319.139 164.671C321.142 163.671 327.047 162.971 334.639 168.171C339.31 171.371 340.846 172.084 341.035 171.849M340.247 170.671C340.498 171.095 340.762 171.487 341.035 171.849M340.247 170.671C340.745 171.184 341.153 171.702 341.035 171.849M142.037 172.671C138.87 164.838 133.735 148.571 138.535 146.171C143.335 143.771 146.535 156.577 147.535 163.279M363.035 102.375C366.929 105.383 369.864 106.638 371.035 106.898H385.535L392.035 111.065M327.649 128.898C330.278 126.565 337.435 122.598 345.035 125.398C352.635 128.198 348.868 133.898 346.035 136.398L345.035 138.003M345.035 138.003C350.253 135.354 353.455 135.723 354.535 136.398C356.981 138.845 362.734 143.255 368.379 143.898M405.035 133.398L409.636 136.398M405.035 133.398C383.926 122.105 380.043 127.584 381.219 134.398M405.035 133.398C373.835 113.398 376.158 125.731 381.219 134.398M409.636 136.398C410.797 134.761 412.483 133.052 414.392 131.398M385.535 205.288C384.758 205.343 384.078 204.809 383.535 205.171C377.935 216.371 362.868 219.171 356.035 219.171C350.052 228.146 343.02 230.537 339.678 230.674M417.535 149.712C416.712 150.046 415.847 150.323 415.035 150.455M417.535 149.712C417.307 149.537 417.258 149.465 417.642 149.668M417.535 149.712C417.571 149.697 417.606 149.683 417.642 149.668M415.035 150.455L415.535 151.671L417.535 159.671L422.535 159.171C420.201 160.505 415.535 163.671 415.535 165.671C415.535 167.671 420.201 169.171 422.535 169.671C427.535 167.171 435.335 160.771 426.535 155.171C420.736 151.481 418.382 150.061 417.642 149.668M368.379 143.898C367.098 141.15 366.835 136.927 376.035 142.025M376.035 142.025C379.011 141.191 381.691 140.951 384.035 141.085M381.219 134.398C381.536 136.235 382.221 138.169 383.035 139.898L384.035 141.085M414.392 131.398C412.273 129.565 409.735 124.598 416.535 119.398M416.535 119.398H411.535M392.035 111.065L405.035 119.398H411.535M392.035 111.065L403.035 100.398C406.106 99.3979 412.677 99.2979 414.392 106.898C416.106 114.498 413.201 118.398 411.535 119.398M341.277 220.171L356.035 196.641M341.277 220.171C341.03 223.749 340.605 227.053 339.911 229.051M263.535 184.171C268.868 190.671 280.735 202.571 285.535 198.171C290.335 193.771 296.535 201.338 299.035 205.671C297.368 208.671 295.035 214.871 299.035 215.671M136.535 201.239C136.201 206.216 138.335 215.771 149.535 214.171C146.535 223.005 147.335 237.171 174.535 223.171L179.592 230.671M341.035 171.849C342.898 174.318 343.671 174.446 344.927 174.653M339.911 229.051C339.847 229.596 339.769 230.138 339.678 230.674M265.4 15.2822C265.467 14.8578 265.511 14.4828 265.535 14.1713C265.535 14.5442 265.487 14.9152 265.4 15.2822ZM299.035 224.171C296.701 216.671 290.135 201.771 282.535 202.171C274.935 202.571 273.701 200.671 274.035 199.671C272.261 196.671 266.877 191.071 259.535 192.671C254.735 191.471 255.201 186.505 256.035 184.171C256.868 182.171 256.635 178.771 249.035 181.171L240.035 176.671H250.358C254.917 175.005 265.035 172.271 269.035 174.671C270.994 179.671 276.036 190.471 280.535 193.671C285.033 196.871 288.409 195.005 289.535 193.671L308.535 202.171L299.035 224.171Z" stroke="#3D3D3D" stroke-width="0.5"/>
<path d="M217.983 41.2105C224.637 40.7163 239.161 38.8167 244.035 35.1713C241.323 37.8824 232.317 42.8857 217.983 41.2105Z" fill="white" stroke="white"/>
<path d="M259.535 45.1713L254.035 49.6713L265.035 45.1713L259.535 37.6713V45.1713Z" fill="#EEF3E4" stroke="#EEF3E4"/>
<path d="M229.073 104.77L221.035 100.726L229.728 109.779L241.38 103.162L229.073 104.77Z" fill="#DC9529" stroke="#DC9529"/>
<path d="M86.1045 98.449L78.0346 96.3202L86.8916 102.134L98.2423 95.8559L86.1045 98.449Z" fill="#DC9529" stroke="#DC9529"/>
<path d="M80.1045 79.449L72.0346 77.3202L80.8916 83.1336L92.2423 76.8559L80.1045 79.449Z" fill="#DC9529" stroke="#DC9529"/>
<path d="M274.883 94.4984L270.035 93.4207L275.553 96.7946L281.849 92.4675L274.883 94.4984Z" fill="#DC9529" stroke="#DC9529"/>
<path d="M298.883 77.4984L294.035 76.4207L299.553 79.7946L305.849 75.4675L298.883 77.4984Z" fill="#DC9529" stroke="#DC9529"/>
<path d="M282.883 115.498L278.035 114.421L283.553 117.795L289.849 113.467L282.883 115.498Z" fill="#DC9529" stroke="#DC9529"/>
<path d="M170.552 119.365L168.035 117.608L171.221 121.662L173.631 118.467L170.552 119.365Z" fill="#DC9529" stroke="#DC9529"/>
<path d="M197.535 52.1713C197.868 54.5046 199.935 59.1713 205.535 59.1713C211.135 59.1713 202.535 54.5046 197.535 52.1713Z" fill="#EEF3E4" stroke="#EEF3E4"/>
<path d="M183.035 152.441C186.043 152.69 192.104 154.612 192.275 160.308C192.446 166.004 186.186 157.437 183.035 152.441Z" fill="#EEF3E4" stroke="#EEF3E4"/>
<path d="M128.035 59.9417C129.841 57.5227 134.684 53.4036 139.604 56.2789C144.524 59.1542 133.941 59.9188 128.035 59.9417Z" fill="#DC9529"/>
<path d="M198.302 155.932C199.245 155.723 201.391 155.941 202.429 158.483C203.467 161.025 200.11 157.841 198.302 155.932Z" fill="#EEF3E4" stroke="#EEF3E4"/>
<path d="M206.035 152.251C206.978 152.043 209.124 152.261 210.162 154.802C211.2 157.344 207.843 154.161 206.035 152.251Z" fill="#EEF3E4" stroke="#EEF3E4"/>
<path d="M232.035 219.251C232.978 219.043 235.124 219.261 236.162 221.802C237.2 224.344 233.843 221.161 232.035 219.251Z" fill="#EEF3E4" stroke="#EEF3E4"/>
<path d="M240.035 213.251C240.978 213.043 243.124 213.261 244.162 215.802C245.2 218.344 241.843 215.161 240.035 213.251Z" fill="#EEF3E4" stroke="#EEF3E4"/>
<path d="M304.035 183.468C302.138 183.993 297.978 184.147 296.513 180.559C295.047 176.971 300.917 181.003 304.035 183.468Z" fill="#EEF3E4" stroke="#EEF3E4"/>
<path d="M312.035 178.468C310.138 178.993 305.978 179.147 304.513 175.559C303.047 171.971 308.917 176.003 312.035 178.468Z" fill="#EEF3E4" stroke="#EEF3E4"/>
<path d="M322.035 216.441C323.157 216.229 325.764 216.689 327.211 220.232C328.658 223.775 324.363 219.181 322.035 216.441Z" fill="#EEF3E4" stroke="#EEF3E4"/>
<path d="M317.49 221.171C316.424 221.852 314.655 224.1 316.101 227.643C317.548 231.186 317.63 224.805 317.49 221.171Z" fill="#EEF3E4" stroke="#EEF3E4"/>
<path d="M269.035 17.1713C275.132 15.7258 288.39 15.743 292.646 27.3759C296.902 39.0089 278.678 25.4199 269.035 17.1713Z" fill="#EEF3E4" stroke="#EEF3E4"/>
<path d="M186.933 48.4714C185.388 48.5232 182.255 49.2643 182.089 51.8149C181.923 54.3654 185.249 50.6486 186.933 48.4714Z" fill="#EEF3E4" stroke="#EEF3E4"/>
<path d="M186.803 59.7788C187.278 61.2505 188.852 64.0583 191.35 63.5164C193.848 62.9744 189.359 60.7989 186.803 59.7788Z" fill="#EEF3E4" stroke="#EEF3E4"/>
<path d="M20.8408 124.954C31.2222 154.908 58.6861 218.901 85.4902 235.247C66.5838 227.316 13.0345 176.671 20.8408 124.954Z" fill="white" stroke="white"/>
</svg>
