<svg width="11" height="10" viewBox="0 0 11 10" fill="none" xmlns="http://www.w3.org/2000/svg">
<path d="M0.268672 5.03377C-0.0206644 4.73721 -0.0148016 4.26147 0.281755 3.97213L4.07768 0.268627C4.37424 -0.0207097 4.84998 -0.014847 5.13932 0.28171C5.42865 0.578266 5.42279 1.05401 5.12623 1.34335L2.62333 3.783L9.81341 3.87161C10.2282 3.87672 10.5592 4.21598 10.5541 4.63079C10.549 5.04561 10.2097 5.37661 9.79492 5.3715L2.60484 5.28289L5.04453 7.78346C5.33386 8.08001 5.328 8.55576 5.03144 8.84509C4.73489 9.13443 4.25914 9.12857 3.96981 8.83201L0.2663 5.03609L0.268672 5.03377Z" fill="white"/>
</svg>
