<svg width="11" height="10" viewBox="0 0 11 10" fill="none" xmlns="http://www.w3.org/2000/svg">
<path d="M10.3409 5.03377C10.6303 4.73721 10.6244 4.26147 10.3279 3.97213L6.53194 0.268627C6.23538 -0.0207097 5.75964 -0.014847 5.4703 0.28171C5.18097 0.578266 5.18683 1.05401 5.48338 1.34335L7.98629 3.783L0.796214 3.87161C0.381402 3.87672 0.0504009 4.21598 0.0555128 4.63079C0.0606247 5.04561 0.399886 5.37661 0.814698 5.3715L8.00478 5.28289L5.56509 7.78346C5.27576 8.08001 5.28162 8.55576 5.57818 8.84509C5.87473 9.13443 6.35048 9.12857 6.63981 8.83201L10.3433 5.03609L10.3409 5.03377Z" fill="white"/>
</svg>
