<svg width="516" height="337" viewBox="0 0 516 337" fill="none" xmlns="http://www.w3.org/2000/svg">
<path d="M188 74.0137C188 68.5418 179.667 55.627 175.5 49.8536C175.833 47.1869 175.2 41.8536 170 41.8536C168.667 39.1869 167.2 33.0536 172 29.8536C178 25.8536 171.5 19.8536 168.5 20.3536C167.028 20.5989 165.195 19.0384 164.241 16.8536C162.258 19.1869 159.334 25.0536 163.5 29.8536C164.259 33.0202 165.05 39.3536 162.139 39.3536C160.093 42.9448 159.2 51.7726 172 58.3536C175.928 62.8702 183.528 72.1986 182.5 73.3786C184.33 73.5935 186.165 73.8055 188 74.0137Z" fill="#68B269"/>
<path d="M130 66.3536C130.489 66.4277 130.989 66.5031 131.5 66.5797C138.752 67.668 148.121 69.0014 158.5 70.3751C161.268 70.7415 164.109 71.1108 167 71.4791C165.8 61.0417 152.167 60.7132 145.5 61.8536C145.667 57.8536 145 49.8536 141 49.8536C137 49.8536 135.212 42.8536 134.818 39.3536C134.148 42.142 132.428 44.8246 130 43.8536C126 42.2536 126.775 47.1869 127.663 49.8536C125.775 49.8536 122 49.0536 122 45.8536C122 42.6536 116.667 45.5202 114 47.3536C117.753 54.193 126.034 67.92 129.13 68.1127C129.379 67.1897 129.668 66.5752 130 66.3536Z" fill="#68B269"/>
<path d="M105.5 89.3536C111.755 92.6186 119.423 96.5867 127.758 100.854C127.706 98.6346 127.669 95.9442 127.663 93.055C127.662 92.541 127.662 92.0207 127.663 91.4956L110.5 80.8536L108.5 84.8536L97.2898 77.2007C95.3555 79.9472 92.3453 85.1356 91.5726 89.3536L99.5337 98.8536C101.174 95.0604 103.15 91.7036 105.5 89.3536Z" fill="#68B269"/>
<path d="M90.5 107.234C85.0682 101.138 79.2367 104.694 77 107.234C76.2625 107.075 75.598 107.008 75 107.018C73.6667 110.209 71.8 116.717 75 117.222C78.2 117.727 74.3333 122.067 72 124.174L87 125.374C78.5317 120.835 80.3084 115.564 84.3037 111.633C86.1587 109.809 88.4919 108.273 90.5 107.234Z" fill="#68B269"/>
<path d="M87 125.374L93 125.854C93.0988 124.807 93.2374 123.607 93.4182 122.294L84.3037 111.633C80.3084 115.564 78.5317 120.835 87 125.374Z" fill="#68B269"/>
<path d="M186.037 53.3536C185.858 51.6869 183.5 48.6536 175.5 49.8536C179.667 55.627 188 68.5418 188 74.0137C196.303 74.9557 204.617 75.8205 212.5 76.5269L188.529 53.3536C187.869 53.9898 187.05 54.0887 186.037 53.3536Z" fill="#68B269"/>
<path d="M227.671 113.854L249 125.95V112.354C248.501 102.729 252.412 85.6955 269.006 78.3669C269.961 77.9449 270.959 77.5551 272 77.2007C271.582 76.0626 271.189 74.7768 270.851 73.3786C266.384 74.9986 259.6 68.0369 256.766 64.3536C257.108 66.4779 255.989 69.4737 255 71.3536C251.4 75.1726 252.5 79.2782 253.5 80.8536C254.7 87.2536 248.602 86.1869 245.403 84.8536C242.451 95.1457 236.507 109.329 227.671 113.854Z" fill="#68B269"/>
<path d="M249 125.95C249.902 129.923 252.268 137.193 255.922 142.539C257.45 144.775 259.203 146.674 261.169 147.854C264.067 146.106 266.982 144.525 269.5 143.453C262.667 139.92 249 128.754 249 112.354V125.95Z" fill="#68B269"/>
<path d="M342.074 122.354C335.857 115.296 329.199 105.132 326.538 94.8536C326.993 102.687 329.322 119.754 334.99 125.354C337.379 124.335 339.745 123.333 342.074 122.354Z" fill="#68B269"/>
<path d="M260 38.3536C261 34.8536 255.922 31.8536 252 31.8536C253.5 39.1869 257.2 53.4536 260 51.8536L270.073 58.8536C270.64 54.9242 271.93 50.9585 274.282 47.3536C269.188 45.5202 259.2 41.1536 260 38.3536Z" fill="#68B269"/>
<path d="M220.727 37.3536C221.004 38.0183 221.05 38.6904 220.923 39.3536L232 49.8536L224.5 32.039C220.424 31.2566 219.346 34.0328 220.727 37.3536Z" fill="#68B269"/>
<path d="M240.5 78.3097C242.5 68.7658 226 61.8536 224.5 56.5957L214.135 46.2246L203.77 35.8536C203.307 35.4363 202.751 34.9253 202.144 34.3536L211 58.3536L230 77.8546C233.749 78.0753 237.272 78.2313 240.5 78.3097Z" fill="#68B269"/>
<path d="M114 47.3536C110.667 44.9448 103.7 42.7726 102.5 53.3536C101.3 63.9345 99.6667 63.429 99 61.8536C96.6932 65.7517 93.1216 74.2785 97.2898 77.2007L108.5 84.8536L110.5 80.8536L127.663 91.4956C127.681 82.5596 128.014 72.2446 129.13 68.1127C126.034 67.92 117.753 54.193 114 47.3536Z" fill="#BEE858"/>
<path d="M165.5 9.35357C170 4.85357 162 -5.64643 154.5 3.85357C148.5 11.4536 143 10.6869 141 9.35357C138.667 10.8536 134.9 14.7536 138.5 18.3536C143 22.8536 133.5 31.3536 130 25.8536C126.5 20.3536 122.516 29.8536 127.758 29.8536C128.172 32.0202 129.8 35.9536 133 34.3536C135.058 33.3246 135.528 36.3986 134.818 39.3536C135.212 42.8536 137 49.8536 141 49.8536C145 49.8536 145.667 57.8536 145.5 61.8536C152.167 60.7132 165.8 61.0417 167 71.4791C172.049 72.1223 177.253 72.7623 182.5 73.3786C183.528 72.1986 175.928 62.8702 172 58.3536C159.2 51.7726 160.093 42.9448 162.139 39.3536C165.05 39.3536 164.259 33.0202 163.5 29.8536C159.334 25.0536 162.258 19.1869 164.241 16.8536C163.251 14.5858 163.208 11.6455 165.5 9.35357Z" fill="#BEE858"/>
<path d="M65 117.854C61.4 116.254 60.1667 120.76 60 123.214L72 124.174C74.3333 122.067 78.2 117.727 75 117.222C71.8 116.717 73.6667 110.209 75 107.018C70.7333 107.088 69.8538 111.068 70 113.322C69.8333 115.499 68.6 119.454 65 117.854Z" fill="#BEE858"/>
<path d="M92 93.8536C94.3335 97.8536 91.9723 104.441 90.5 107.234C88.4919 108.273 86.1587 109.809 84.3037 111.633L93.4182 122.294C93.7606 119.807 94.2545 116.909 94.9169 113.854C95.9898 108.906 97.5048 103.546 99.5337 98.8536L91.5726 89.3536C91.2525 91.101 91.3164 92.6819 92 93.8536Z" fill="#BEE858"/>
<path d="M212.5 76.5269C216.64 76.8978 220.661 77.225 224.5 77.4967C226.379 77.6298 228.215 77.7495 230 77.8546L211 58.3536L202.144 34.3536C199.357 31.7283 195.485 27.8244 194.5 25.8536C193 22.8536 184.078 23.8536 185.057 29.8536C186.037 35.8536 175.23 35.8536 189.5 41.8536C190.033 42.0777 190.529 42.2852 190.989 42.4771C190.995 42.263 190.998 42.0548 191 41.8536C195.058 43.7602 200.391 46.3938 190.989 42.4771C190.898 46.1859 190.279 51.6641 188.529 53.3536L212.5 76.5269Z" fill="#BEE858"/>
<path d="M247 56.5957C247 61.3378 247 61.8536 253.5 61.8536C255.613 61.8536 256.532 62.8994 256.766 64.3536C259.6 68.0369 266.384 74.9986 270.851 73.3786C269.845 69.2207 269.322 64.0693 270.073 58.8536L260 51.8536C257.2 53.4536 253.5 39.1869 252 31.8536C248.863 31.8536 244.693 27.8536 243 25.8536C228 15.8536 232.5 25.8536 236.015 29.8536C236.633 30.5574 237.111 31.3076 237.432 32.039L248.5 48.8536L236.015 36.3141C234.73 36.4929 232.758 35.9761 230 34.3536C227.773 33.0433 225.947 32.3168 224.5 32.039L232 49.8536L220.923 39.3536C220.363 42.2818 216.435 45.0367 214.135 46.2246L224.5 56.5957C223 51.3378 229 55.3536 230 56.5957C231 57.8378 236 58.8536 238.5 55.3536C241 51.8536 247 51.8536 247 56.5957Z" fill="#BEE858"/>
<path d="M244.5 78.3669C245.361 78.3696 246.195 78.3652 247 78.3536C246.638 80.1787 246.105 82.4061 245.403 84.8536C248.602 86.1869 254.7 87.2536 253.5 80.8536C252.5 79.2782 251.4 75.1726 255 71.3536C255.989 69.4737 257.108 66.4779 256.766 64.3536C256.532 62.8994 255.613 61.8536 253.5 61.8536C247 61.8536 247 61.3378 247 56.5957C247 51.8536 241 51.8536 238.5 55.3536C236 58.8536 231 57.8378 230 56.5957C229 55.3536 223 51.3378 224.5 56.5957C226 61.8536 242.5 68.7658 240.5 78.3097C241.89 78.3435 243.225 78.3629 244.5 78.3669Z" fill="#BEE858"/>
<path fill-rule="evenodd" clip-rule="evenodd" d="M287.5 74.8536C298.282 74.1869 320.961 75.0536 325.423 83.8536C325.627 81.272 326.205 78.7547 327.235 76.3536C324.803 73.8679 322.152 69.1924 331.006 70.3751C335.899 64.7395 343.409 60.3364 356.65 57.8312C357.255 57.7168 357.871 57.6064 358.5 57.5C359.563 57.2347 361.641 56.8483 362.892 56.6159C362.928 56.609 362.965 56.6023 363 56.5957C348.6 24.7894 308.333 29.515 290 35.8536C282.374 38.4388 277.396 42.5797 274.282 47.3536C271.93 50.9585 270.64 54.9242 270.073 58.8536C269.322 64.0693 269.845 69.2207 270.851 73.3786C271.189 74.7768 271.582 76.0626 272 77.2007C276.362 75.7161 281.49 74.8536 287.5 74.8536ZM325.423 53.3536C329.282 48.9525 336.2 43.4395 333 56.5957C327.949 62.3511 319.361 69.7602 325.423 53.3536ZM304 65.8536C312.4 66.2536 308.833 61.3536 306 58.8536L299.5 55.3536C291.5 54.1114 295.5 58.8536 296 61.8536C296.4 64.2536 301.5 65.5202 304 65.8536Z" fill="#E4EE8E"/>
<path d="M281 98.8536C276.29 97.1072 268.783 96.3384 276.435 107.234C281.79 108.774 291.5 110.154 287.5 103.354L281 98.8536Z" fill="#F4EEDB"/>
<path d="M284.5 116.354C287.5 114.52 292.9 112.854 290.5 120.854C288.1 128.854 283.167 129.759 281 129.211C278.5 128.925 275.7 125.954 284.5 116.354Z" fill="#F4EEDB"/>
<path d="M311.5 113.854C307 112.02 299.5 111.154 305.5 122.354C310.5 125.687 320.1 130.354 318.5 122.354L311.5 113.854Z" fill="#F4EEDB"/>
<path d="M304 97.3536C302.081 102.745 300.594 111.193 310 101.854C313 94.1869 316 82.5536 304 97.3536Z" fill="#F4EEDB"/>
<path d="M306 58.8536C308.833 61.3536 312.4 66.2536 304 65.8536C301.5 65.5202 296.4 64.2536 296 61.8536C295.5 58.8536 291.5 54.1114 299.5 55.3536L306 58.8536Z" fill="#F4EEDB"/>
<path d="M325.423 53.3536C329.282 48.9525 336.2 43.4395 333 56.5957C327.949 62.3511 319.361 69.7602 325.423 53.3536Z" fill="#F4EEDB"/>
<path d="M363 98.8536C366.166 96.6869 371.748 94.5536 368.749 103.354C365 114.354 353 110.854 355.5 105.854L363 98.8536Z" fill="#F4EEDB"/>
<path d="M359.5 80.3536C364.167 83.6288 371.4 90.1793 363 90.1793C354.6 90.1793 352.5 85.9622 352.5 83.8536C351 81.5202 350.3 77.5536 359.5 80.3536Z" fill="#F4EEDB"/>
<path d="M384 76.3536C381.667 79.6869 378.4 86.3536 384 86.3536C389.6 86.3536 391.667 78.6869 392 74.8536C391.667 72.8536 389.6 70.3536 384 76.3536Z" fill="#F4EEDB"/>
<path d="M385.5 94.8536C380.3 96.4536 385 102.854 388 105.854C390.051 104.457 392.88 102.694 396.19 100.854C396.341 98.8536 389.126 96.0202 385.5 94.8536Z" fill="#F4EEDB"/>
<path d="M131.5 66.5797C131.5 80.0043 136.7 107.254 157.5 108.854L172 113.322L176.971 114.854C178.25 111.143 179.714 107.164 181.215 103.532C159.386 103.973 154.31 91.045 154.5 84.5259C148.662 85.8652 154.385 76.1009 158.5 70.3751C148.121 69.0014 138.752 67.668 131.5 66.5797Z" fill="#D85E66"/>
<path d="M203.77 100.298L216 107.234L218.856 108.854C225.404 106.529 239.7 97.1775 244.5 78.3669C243.225 78.3629 241.89 78.3435 240.5 78.3097C237.272 78.2313 233.749 78.0753 230 77.8546C228.215 77.7495 226.379 77.6298 224.5 77.4967C224.9 89.2113 210.847 97.5785 203.77 100.298Z" fill="#D85E66"/>
<path d="M110.5 133.682C114.102 134.493 117.125 134.34 118.5 132.354C120.3 131.679 123.234 131.206 126.5 131.802C118.9 127.553 119.745 118.066 121.118 113.854C117.612 108.254 127.579 104.639 133 103.532C131.229 102.629 129.479 101.735 127.758 100.854C119.423 96.5867 111.755 92.6186 105.5 89.3536C103.627 103.239 102.006 131.544 110.5 133.682Z" fill="#D85E66"/>
<path d="M162.139 146.354C162.61 146.822 163.065 147.321 163.5 147.854C169.271 151.757 177.899 156.306 188 159.689L211 140.354C207.825 139.587 200.756 136.605 191.54 132.354C185.572 145.954 169.453 147.354 162.139 146.354Z" fill="#D85E66"/>
<path d="M191.54 132.354C200.756 136.605 207.825 139.587 211 140.354L204.754 147.854C212.846 152.682 230.427 162.242 236.015 161.854C242.046 159.971 247.941 157.058 253.5 152.854C202.649 145.654 199.979 126.099 205 117.222C197.165 115.021 208.526 109.811 216 107.234L203.77 100.298L191.54 93.3614L191 93.055C187.511 101.775 181.634 121.33 186.037 129.785C187.941 130.683 189.78 131.541 191.54 132.354Z" fill="#D85E66"/>
<path d="M218.856 108.854L227.671 113.854C236.507 109.329 242.451 95.1457 245.403 84.8536C246.105 82.4061 246.638 80.1787 247 78.3536C246.195 78.3652 245.361 78.3696 244.5 78.3669C239.7 97.1775 225.404 106.529 218.856 108.854Z" fill="#CA3720"/>
<path d="M199 84.8536C194.397 84.8536 192.109 90.5255 191.54 93.3614L203.77 100.298C210.847 97.5785 224.9 89.2113 224.5 77.4967C220.661 77.225 216.64 76.8978 212.5 76.5269L211 78.3536C215.5 92.8536 204.754 84.8536 199 84.8536Z" fill="#CA3720"/>
<path d="M162.139 84.8536C162.139 79.6536 159.046 81.6869 157.5 83.3536C156.271 83.9678 155.282 84.3465 154.5 84.5259C154.31 91.045 159.386 103.973 181.215 103.532C182.499 100.424 183.81 97.5701 185.057 95.3536C182.703 95.3536 177.705 91.3536 175.5 89.3536C174.333 88.5202 171.6 87.3536 170 89.3536C168 91.8536 162.139 91.3536 162.139 84.8536Z" fill="#CA3720"/>
<path d="M204.754 147.854L193.5 161.368C206.66 164.992 221.72 166.316 236.015 161.854C230.427 162.242 212.846 152.682 204.754 147.854Z" fill="#CA3720"/>
<path d="M253.5 152.854C255.825 151.226 258.49 149.469 261.169 147.854C259.203 146.674 257.45 144.775 255.922 142.539C254.259 143.087 252.614 141.31 252 140.354C251 135.552 247.3 128.031 240.5 136.354C232 146.757 222 132.354 222.5 129.785C222.9 127.73 221.485 128.546 220.727 129.211C213.955 134.069 208.5 125.95 211 122.354C213 119.476 210.167 118.155 208.5 117.854C207.056 117.689 205.901 117.475 205 117.222C199.979 126.099 202.649 145.654 253.5 152.854Z" fill="#CA3720"/>
<path d="M93 125.854C94.6463 126.873 96.7295 128.06 99 129.211L94.9169 113.854C94.2545 116.909 93.7606 119.807 93.4182 122.294C93.2374 123.607 93.0988 124.807 93 125.854Z" fill="#CA3720"/>
<path d="M126.5 131.802C130.492 132.53 134.98 134.854 138.5 140.354C143.511 139.257 154.819 139.073 162.139 146.354C169.453 147.354 185.572 145.954 191.54 132.354C189.78 131.541 187.941 130.683 186.037 129.785C183.468 128.574 180.779 127.29 178 125.95V129.211C178 137.098 171.667 134.224 168.5 131.802C165.833 129.986 160.1 127.454 158.5 131.854C156.5 137.354 142.5 133.682 143 129.211C143.4 125.635 140.167 124.483 138.5 124.354C132.5 125.354 129 123.854 130 117.854C130.8 113.054 124.118 112.854 121.118 113.854C119.745 118.066 118.9 127.553 126.5 131.802Z" fill="#CA3720"/>
<path d="M110.5 133.682C102.006 131.544 103.627 103.239 105.5 89.3536C103.15 91.7036 101.174 95.0604 99.5337 98.8536C97.5048 103.546 95.9898 108.906 94.9169 113.854L99 129.211C102.696 131.086 106.889 132.868 110.5 133.682Z" fill="#F6C78D"/>
<path d="M133 103.532C127.579 104.639 117.612 108.254 121.118 113.854C124.118 112.854 130.8 113.054 130 117.854C129 123.854 132.5 125.354 138.5 124.354C140.167 124.483 143.4 125.635 143 129.211C142.5 133.682 156.5 137.354 158.5 131.854C160.1 127.454 165.833 129.986 168.5 131.802C171.667 134.224 178 137.098 178 129.211V125.95C176.686 125.317 175.351 124.671 174 124.014C166.043 120.147 157.495 115.903 149 111.633C143.957 109.098 138.932 106.554 134.061 104.072L133 103.532Z" fill="#F6C78D"/>
<path d="M191 93.055L188 91.3536C187.1 92.0898 186.101 93.4983 185.057 95.3536C183.81 97.5701 182.499 100.424 181.215 103.532C179.714 107.164 178.25 111.143 176.971 114.854L178 125.95C180.779 127.29 183.468 128.574 186.037 129.785C181.634 121.33 187.511 101.775 191 93.055Z" fill="#F6C78D"/>
<path d="M208.5 117.854C210.167 118.155 213 119.476 211 122.354C208.5 125.95 213.955 134.069 220.727 129.211C221.485 128.546 222.9 127.73 222.5 129.785C222 132.354 232 146.757 240.5 136.354C247.3 128.031 251 135.552 252 140.354C252.614 141.31 254.259 143.087 255.922 142.539C252.268 137.193 249.902 129.923 249 125.95L227.671 113.854L218.856 108.854L216 107.234C208.526 109.811 197.165 115.021 205 117.222C205.901 117.475 207.056 117.689 208.5 117.854Z" fill="#F6C78D"/>
<path d="M131.5 66.5797C130.989 66.5031 130.489 66.4277 130 66.3536C129.668 66.5752 129.379 67.1897 129.13 68.1127C128.014 72.2446 127.681 82.5596 127.663 91.4956C127.662 92.0207 127.662 92.541 127.663 93.055L134.061 104.072C138.932 106.554 143.957 109.098 149 111.633C156.667 112.759 172 114.672 172 113.322L157.5 108.854C136.7 107.254 131.5 80.0043 131.5 66.5797Z" fill="#F6C78D"/>
<path d="M188 91.3536L191 93.055L191.54 93.3614C192.109 90.5255 194.397 84.8536 199 84.8536C204.754 84.8536 215.5 92.8536 211 78.3536L212.5 76.5269C204.617 75.8205 196.303 74.9557 188 74.0137C186.165 73.8055 184.33 73.5935 182.5 73.3786C177.253 72.7623 172.049 72.1223 167 71.4791C164.109 71.1108 161.268 70.7415 158.5 70.3751C154.385 76.1009 148.662 85.8652 154.5 84.5259C155.282 84.3465 156.271 83.9678 157.5 83.3536C159.046 81.6869 162.139 79.6536 162.139 84.8536C162.139 91.3536 168 91.8536 170 89.3536C171.6 87.3536 174.333 88.5202 175.5 89.3536C177.705 91.3536 182.703 95.3536 185.057 95.3536C186.101 93.4983 187.1 92.0898 188 91.3536Z" fill="#F6C78D"/>
<path d="M79 142.104L90.5 140.354C92.1112 141.221 94.5322 142.463 97.2898 143.854C100.693 143.52 109.1 143.854 115.5 147.854C120.667 146.354 133 145.954 141 156.354C149.667 159.354 163.8 170.654 151 191.854C164.333 182.52 192.6 164.654 199 167.854C198.36 169.247 197.447 170.981 196.303 172.854C210.145 166.854 211.868 170.354 211 172.854L203 180.648C209.489 182.137 224.846 182.787 236.653 174.285C237.289 173.79 237.905 173.312 238.5 172.854L243 170.354C251.156 164.855 258.943 165.849 255.922 170.354C255.459 184.354 276.781 170.52 287.5 161.854C284.535 170.354 277.484 188.154 273 191.354C268.516 194.554 267.394 201.354 267.394 204.354C265.93 210.854 261.9 223.854 257.5 223.854C253.1 223.854 250.667 227.803 250 229.778C260.466 227.915 268 225.165 268 222.354C271.834 218.686 277.885 213.261 283.577 208.902L293.5 160.354C293.667 159.52 294.6 158.354 297 160.354C300 162.854 303.5 170.854 311 161.854C312.005 155.623 315.563 143.782 321.757 146.258C323.55 142.489 325.259 141.392 325.5 149.354C328.333 147.52 334.9 145.654 338.5 152.854C340.995 157.844 342.994 157.358 344.264 155.59C344.697 154.607 345.113 153.689 345.5 152.854L349.5 136.354L351 147.354C352.5 142.52 357.7 133.554 366.5 136.354L368.749 125.354C371.332 129.02 375.8 138.554 373 147.354C370.2 156.154 371.833 163.195 373 165.615C382.512 160.676 390.414 157.064 395.182 155.817L394 125.354C394.167 120.854 395.3 113.554 398.5 120.354L414.5 114.354C420.47 106.854 432.268 90.7536 431.705 86.3536C430.711 87.6432 429.798 88.8244 429 89.8536C427.549 89.8536 426.043 89.9681 424.5 90.1793C415.05 91.4729 404.208 96.3934 396.19 100.854C392.88 102.694 390.051 104.457 388 105.854C383.9 105.463 364.704 112.839 342.074 122.354C339.745 123.333 337.379 124.335 334.99 125.354C317.029 133.01 297.731 141.6 282.5 148.516C279.112 150.054 275.926 151.51 273 152.854C274.77 150.056 275.875 147.891 276.435 146.258C278.171 141.196 274.67 141.251 269.5 143.453C266.982 144.525 264.067 146.106 261.169 147.854C258.49 149.469 255.825 151.226 253.5 152.854C247.941 157.058 242.046 159.971 236.015 161.854C221.72 166.316 206.66 164.992 193.5 161.368C191.626 160.852 189.79 160.289 188 159.689C177.899 156.306 169.271 151.757 163.5 147.854C163.065 147.321 162.61 146.822 162.139 146.354C154.819 139.073 143.511 139.257 138.5 140.354C134.98 134.854 130.492 132.53 126.5 131.802C123.234 131.206 120.3 131.679 118.5 132.354C117.125 134.34 114.102 134.493 110.5 133.682C106.889 132.868 102.696 131.086 99 129.211C96.7295 128.06 94.6463 126.873 93 125.854L87 125.374L72 124.174L60 123.214L48.5 122.294L79 142.104Z" fill="#8D5926"/>
<path d="M178 188.854C174 194.096 166.5 205.136 168.5 207.354L174 208.902L188.5 194.775L203 180.648L211 172.854C211.868 170.354 210.145 166.854 196.303 172.854C192.382 179.267 185.74 187.306 178 188.854Z" fill="#8D5926"/>
<path d="M297 201.854L294.5 211.854C301.83 207.196 311.1 201.42 321.09 195.354L323.295 172.354L325.5 149.354C325.259 141.392 323.55 142.489 321.757 146.258C320.577 148.739 319.36 152.377 318.5 155.354C319.267 161.354 304.486 188.854 297 201.854Z" fill="#8D5926"/>
<path d="M209 211.854C209 216.254 197 223.02 191 225.854C194.173 228.233 199.115 229.846 205 230.84C220.167 226.902 249.6 214.792 246 197.854C245.833 191.687 247.1 178.054 253.5 172.854C254.632 171.934 255.424 171.096 255.922 170.354C258.943 165.849 251.156 164.855 243 170.354C242.5 173.785 240.9 180.648 238.5 180.648C236.1 180.648 232.167 187.785 230.5 191.354C227.242 192.52 220.727 195.454 220.727 197.854C220.727 200.254 217.576 205.187 216 207.354C213.667 207.02 209 207.454 209 211.854Z" fill="#8D5926"/>
<path d="M141 211.854C137.4 213.454 129.833 212.52 126.5 211.854C125.416 210.336 123.486 209.195 121.118 208.347C118.024 207.241 114.182 206.637 110.5 206.354C107.192 206.099 92.3625 207.269 78 208.347C75.4634 208.538 72.9414 208.726 70.5 208.902C74.6667 212.053 85 218.354 93 218.354C96.9406 218.354 102.512 218.431 108 218.739C111.715 218.948 115.392 219.262 118.5 219.73C122.452 220.324 125.482 221.166 126.5 222.354C128.9 225.154 143.833 225.854 151 225.854C158.667 227.02 174.8 231.754 178 241.354C181.2 250.954 180 262.02 179 266.354C189.833 255.02 213.7 233.054 222.5 235.854C222.194 237.295 221.616 239.211 220.727 241.354C226.075 238.29 230.715 238.159 233.5 238.716C234.351 238.885 235.028 239.12 235.5 239.354C233.649 242.145 231.431 245.409 229.019 248.854C234.513 250.354 248.7 249.854 261.5 235.854C264.812 231.354 266.569 231.77 267.394 233.354C272.43 228.354 281.9 221.754 279.5 235.354C282.333 238.02 289.8 240.854 297 230.854C304.2 220.854 310.667 215.687 313 214.354C304.2 245.954 297 256.52 294.5 257.854V269.854C294 270.187 292.9 272.054 292.5 276.854C292.1 281.654 283.06 286.52 278.59 288.354C278.148 291.353 279.663 293.478 287.5 288.354C300.5 279.854 309 277.354 311 261.854C312.6 249.454 315 227.687 316 218.354C316.833 216.854 320 215.554 326 222.354C327.582 223.013 330.415 223.38 331.53 220.932C331.825 220.285 332 219.441 332 218.354C332.861 212.18 335.652 200.837 340.5 198.323C341.28 197.919 342.113 197.743 343 197.854C349.4 198.654 348.667 200.52 347.5 201.354C350 200.354 355.7 199.554 358.5 204.354C361.3 209.154 365 204.687 366.5 201.854C367 195.02 368.3 182.554 369.5 187.354C371 193.354 370 205.854 369.5 214.354C369.1 221.154 367.333 231.854 366.5 236.354L359.479 248.854C358.939 252.392 358.5 255.532 358.5 256.354C358.5 257.954 368.167 245.687 373 239.354C371.833 232.687 370.2 217.854 373 211.854C375.8 205.854 374.167 198.354 373 195.354C373 191.354 375.2 183.254 384 182.854L385.5 173.354L393.266 184.354C393.424 181.648 394.374 179.354 397 179.354C402.167 177.187 412.6 172.254 413 169.854V162.854L416 165.854C416.333 163.687 419.4 159.154 429 158.354C431.167 152.687 436.6 141.054 441 139.854C442.833 139.02 446.5 135.654 446.5 128.854C442.1 127.654 412.667 146.02 398.5 155.354C398.276 155.337 398.029 155.337 397.761 155.354C397.049 155.397 396.185 155.555 395.182 155.817C390.414 157.064 382.512 160.676 373 165.615C371.615 166.334 370.197 167.082 368.749 167.854C362.728 171.063 356.199 174.704 349.5 178.546C345.207 181.008 340.844 183.552 336.5 186.119C331.285 189.2 326.097 192.313 321.09 195.354C311.1 201.42 301.83 207.196 294.5 211.854L297 201.854C295.971 201.596 294.404 202.054 292.5 203.004C289.963 204.271 286.828 206.412 283.577 208.902C277.885 213.261 271.834 218.686 268 222.354C268 225.165 260.466 227.915 250 229.778C248.708 230.008 247.372 230.224 246 230.426C233.124 232.315 217.077 232.88 205 230.84C199.115 229.846 194.173 228.233 191 225.854C189.266 224.553 187.61 223.391 186.037 222.354C175.996 215.735 169.305 214.209 167 214.354H159.5C154 210.354 145.5 209.854 141 211.854Z" fill="#8D5926"/>
<path d="M213.5 296.354C208.5 299.354 234.5 300.354 264.5 279.854C267.333 279.187 273 274.954 273 263.354C273 251.754 277.333 239.854 279.5 235.354C281.9 221.754 272.43 228.354 267.394 233.354C267.765 234.065 267.948 235.011 268 235.854C266.8 241.054 254.167 256.354 248 263.354C247.5 266.187 245.5 272.054 241.5 272.854C237.5 273.654 237.833 277.854 238.5 279.854C237.3 287.854 221.333 294.187 213.5 296.354Z" fill="#8D5926"/>
<path d="M347.5 201.354C348.667 200.52 349.4 198.654 343 197.854C342.113 197.743 341.28 197.919 340.5 198.323C340.9 204.299 339.333 215.886 338.5 220.932C336.9 222.995 331.833 240.406 329.5 248.854C325.9 250.854 325.667 259.354 326 263.354C327.2 270.554 320.861 278.354 317.541 281.354C316.64 287.938 320.24 285.396 322.5 282.854C322 276.354 342 253.854 345.5 252.354C348.3 251.154 348 217.854 347.5 201.354Z" fill="#8D5926"/>
<path d="M200.5 279.854C203.445 283.452 218.186 264.327 229.019 248.854C231.431 245.409 233.649 242.145 235.5 239.354C235.028 239.12 234.351 238.885 233.5 238.716L216 256.854C212.218 260.054 204.091 273.52 200.5 279.854Z" fill="#8D5926"/>
<path d="M41 132.354L67.5 143.854L79 142.104L48.5 122.294L30.5 120.854C26.5886 120.714 23.661 121.587 21.5 122.952L41 132.354Z" fill="#4D3429"/>
<path d="M126.5 211.854C129.833 212.52 137.4 213.454 141 211.854C145.5 209.854 154 210.354 159.5 214.354H167C169.305 214.209 175.996 215.735 186.037 222.354C187.994 213.868 219.484 187.654 236.653 174.285C224.846 182.787 209.489 182.137 203 180.648L188.5 194.775L174 208.902L168.5 207.354C166.5 205.136 174 194.096 178 188.854C185.74 187.306 192.382 179.267 196.303 172.854C197.447 170.981 198.36 169.247 199 167.854C192.6 164.654 164.333 182.52 151 191.854C163.8 170.654 149.667 159.354 141 156.354C133 145.954 120.667 146.354 115.5 147.854C109.1 143.854 100.693 143.52 97.2898 143.854C103.432 146.95 111.244 150.783 115.5 152.854C124.7 152.854 136.333 161.854 141 166.354C134.6 166.354 133 177.354 133 182.854C108.6 187.254 114.912 201.683 121.118 208.347C123.486 209.195 125.416 210.336 126.5 211.854Z" fill="#4D3429"/>
<path d="M246 197.854C249.6 214.792 220.167 226.902 205 230.84C217.077 232.88 233.124 232.315 246 230.426L255.25 210.64L264.5 190.854L287.5 161.854C276.781 170.52 255.459 184.354 255.922 170.354C255.424 171.096 254.632 171.934 253.5 172.854C247.1 178.054 245.833 191.687 246 197.854Z" fill="#4D3429"/>
<path d="M293.5 160.354L283.577 208.902C286.828 206.412 289.963 204.271 292.5 203.004C291.7 198.286 304.5 173.605 311 161.854C303.5 170.854 300 162.854 297 160.354C294.6 158.354 293.667 159.52 293.5 160.354Z" fill="#4D3429"/>
<path d="M325.5 149.354L323.295 172.354L321.09 195.354C326.097 192.313 331.285 189.2 336.5 186.119C333.586 182.306 339.849 165.601 344.264 155.59C342.994 157.358 340.995 157.844 338.5 152.854C334.9 145.654 328.333 147.52 325.5 149.354Z" fill="#4D3429"/>
<path d="M352.5 158.354C350.5 164.384 347.1 176.865 349.5 178.546C356.199 174.704 362.728 171.063 368.749 167.854C362.148 165.854 364.499 146.02 366.5 136.354C357.7 133.554 352.5 142.52 351 147.354L352.5 158.354Z" fill="#4D3429"/>
<path d="M398.5 155.354C412.667 146.02 442.1 127.654 446.5 128.854C449.566 123.664 454.235 115.76 458.606 108.354L452.5 100.854C461.7 77.2728 471.333 62.6949 475 58.3536C483.8 53.5536 478.667 50.3536 475 49.3536C477 42.1536 460.833 52.3536 452.5 58.3536C449.354 63.2478 438.595 77.4099 431.705 86.3536C432.268 90.7536 420.47 106.854 414.5 114.354L398.5 120.354C399.752 131.675 401.356 154.526 397.761 155.354C398.029 155.337 398.276 155.337 398.5 155.354Z" fill="#4D3429"/>
<path d="M70.5 208.902C59.5991 209.69 50.3057 210.255 48.5 209.854C47.3062 209.588 45.9013 209.71 44.5 210.126C59.5 219.292 93.2 233.848 108 218.739C102.512 218.431 96.9406 218.354 93 218.354C85 218.354 74.6667 212.053 70.5 208.902Z" fill="#4D3429"/>
<path d="M484.5 82.8536C480.667 83.1869 472.3 85.0536 469.5 89.8536C468.021 92.3892 463.5 100.06 458.606 108.354C454.235 115.76 449.566 123.664 446.5 128.854C446.5 135.654 442.833 139.02 441 139.854C436.6 141.054 431.167 152.687 429 158.354C419.4 159.154 416.333 163.687 416 165.854C422.4 180.654 420 197.687 418 204.354C416.5 191.854 413.4 167.454 413 169.854C412.6 172.254 402.167 177.187 397 179.354C394.374 179.354 393.424 181.648 393.266 184.354C393.135 186.594 393.547 189.117 394 190.854C392.8 201.654 393.5 204.354 394 204.354C395.2 221.554 390.5 226.52 388 226.854C390 219.654 387.167 208.854 385.5 204.354C385.5 193.154 384.5 185.354 384 182.854C375.2 183.254 373 191.354 373 195.354C374.167 198.354 375.8 205.854 373 211.854C370.2 217.854 371.833 232.687 373 239.354C368.167 245.687 358.5 257.954 358.5 256.354C358.5 255.532 358.939 252.392 359.479 248.854C359.992 245.499 360.594 241.787 361 239.354C359.4 228.954 364 210.02 366.5 201.854C365 204.687 361.3 209.154 358.5 204.354C355.7 199.554 350 200.354 347.5 201.354C348 217.854 348.3 251.154 345.5 252.354C342 253.854 322 276.354 322.5 282.854C320.24 285.396 316.64 287.938 317.541 281.354C317.703 280.167 318.012 278.685 318.5 276.854C318.667 266.187 319.7 244.854 322.5 244.854C325.498 236.906 331.502 220.995 331.53 220.932C330.415 223.38 327.582 223.013 326 222.354C320 215.554 316.833 216.854 316 218.354C315 227.687 312.6 249.454 311 261.854C309 277.354 300.5 279.854 287.5 288.354C279.663 293.478 278.148 291.353 278.59 288.354C278.735 287.373 279.089 286.298 279.5 285.354L287.5 263.354C285.5 256.954 303.667 228.02 313 214.354C310.667 215.687 304.2 220.854 297 230.854C289.8 240.854 282.333 238.02 279.5 235.354C277.333 239.854 273 251.754 273 263.354C273 274.954 267.333 279.187 264.5 279.854C234.5 300.354 208.5 299.354 213.5 296.354C217.5 293.954 229.833 273.354 235.5 263.354C245.9 256.954 257.167 242.354 261.5 235.854C248.7 249.854 234.513 250.354 229.019 248.854C218.186 264.327 203.445 283.452 200.5 279.854C196.9 275.454 192.667 278.02 191 279.854C191 275.354 193.8 264.954 205 259.354C213.264 255.221 218.226 247.387 220.727 241.354C221.616 239.211 222.194 237.295 222.5 235.854C213.7 233.054 189.833 255.02 179 266.354C180 262.02 181.2 250.954 178 241.354C174.8 231.754 158.667 227.02 151 225.854C143.833 225.854 128.9 225.154 126.5 222.354C125.482 221.166 122.452 220.324 118.5 219.73L125.5 226.854C129.5 232.282 141.167 230.115 146.5 228.354L163.5 241.354C157.5 245.754 161 253.52 163.5 256.854C162.167 258.52 156.9 262.154 146.5 263.354C136.1 264.554 138.5 272.854 141 276.854C146.5 280.687 157.5 289.229 157.5 292.732C157.5 296.235 131.5 294.191 118.5 292.732C129.598 295.786 139.688 298.053 146.5 299.354C149.939 310.314 156.706 313.682 163.5 313.6C169.351 313.529 175.221 310.899 179 308.354H197.5C215.5 307.52 252.9 306.854 258.5 310.854C264.1 314.854 273.5 312.52 277.5 310.854C296.7 307.254 330.833 292.354 345.5 285.354C353.9 284.154 384.333 258.854 398.5 246.354L457 190.854C459.667 184.187 467 169.254 475 162.854C483 156.454 473.333 144.854 467.5 139.854C469.353 132.308 471.878 124.811 474.614 117.854C475.215 116.326 475.826 114.824 476.443 113.354C481.501 101.285 486.919 91.3236 490 86.3536H484.5V82.8536Z" fill="#4D3429"/>
<path d="M186.037 222.354C187.61 223.391 189.266 224.553 191 225.854C197 223.02 209 216.254 209 211.854C209 207.454 213.667 207.02 216 207.354C217.576 205.187 220.727 200.254 220.727 197.854C220.727 195.454 227.242 192.52 230.5 191.354C232.167 187.785 236.1 180.648 238.5 180.648C240.9 180.648 242.5 173.785 243 170.354L238.5 172.854C237.895 173.357 237.279 173.834 236.653 174.285C219.484 187.654 187.994 213.868 186.037 222.354Z" fill="#8E3714"/>
<path d="M264.5 190.854L255.25 210.64L246 230.426C247.372 230.224 248.708 230.008 250 229.778C250.667 227.803 253.1 223.854 257.5 223.854C261.9 223.854 265.93 210.854 267.394 204.354C267.394 201.354 268.516 194.554 273 191.354C277.484 188.154 284.535 170.354 287.5 161.854L264.5 190.854Z" fill="#8E3714"/>
<path d="M292.5 203.004C294.404 202.054 295.971 201.596 297 201.854C304.486 188.854 319.267 161.354 318.5 155.354C319.36 152.377 320.577 148.739 321.757 146.258C315.563 143.782 312.005 155.623 311 161.854C304.5 173.605 291.7 198.286 292.5 203.004Z" fill="#8E3714"/>
<path d="M349.5 136.354L345.5 152.854C345.244 153.774 344.825 154.808 344.264 155.59C339.849 165.601 333.586 182.306 336.5 186.119C340.844 183.552 345.207 181.008 349.5 178.546C347.1 176.865 350.5 164.384 352.5 158.354L351 147.354L349.5 136.354Z" fill="#8E3714"/>
<path d="M366.5 136.354C364.499 146.02 362.148 165.854 368.749 167.854C370.197 167.082 371.615 166.334 373 165.615C371.833 163.195 370.2 156.154 373 147.354C375.8 138.554 371.332 129.02 368.749 125.354L366.5 136.354Z" fill="#8E3714"/>
<path d="M394 125.354L395.182 155.817C396.185 155.555 397.049 155.397 397.761 155.354C401.356 154.526 399.752 131.675 398.5 120.354C395.3 113.554 394.167 120.854 394 125.354Z" fill="#8E3714"/>
<path d="M413 169.854C413.4 167.454 416.5 191.854 418 204.354C420 197.687 422.4 180.654 416 165.854L413 162.854V169.854Z" fill="#8E3714"/>
<path d="M384 182.854C384.5 185.354 385.5 193.154 385.5 204.354C387.167 208.854 390 219.654 388 226.854C390.5 226.52 395.2 221.554 394 204.354C393.5 204.354 392.8 201.654 394 190.854C393.547 189.117 393.135 186.594 393.266 184.354L385.5 173.354L384 182.854Z" fill="#8E3714"/>
<path d="M366.5 201.854C364 210.02 359.4 228.954 361 239.354C360.594 241.787 359.992 245.499 359.479 248.854L366.5 236.354C367.333 231.854 369.1 221.154 369.5 214.354C370 205.854 371 193.354 369.5 187.354C368.3 182.554 367 195.02 366.5 201.854Z" fill="#8E3714"/>
<path d="M322.5 244.854C319.7 244.854 318.667 266.187 318.5 276.854C318.012 278.685 317.703 280.167 317.541 281.354C320.861 278.354 327.2 270.554 326 263.354C325.667 259.354 325.9 250.854 329.5 248.854C331.833 240.406 336.9 222.995 338.5 220.932C339.333 215.886 340.9 204.299 340.5 198.323C335.652 200.837 332.861 212.18 332 218.354C332 219.441 331.825 220.285 331.53 220.932C331.502 220.995 325.498 236.906 322.5 244.854Z" fill="#8E3714"/>
<path d="M313 214.354C303.667 228.02 285.5 256.954 287.5 263.354L279.5 285.354C279.089 286.298 278.735 287.373 278.59 288.354C283.06 286.52 292.1 281.654 292.5 276.854C292.9 272.054 294 270.187 294.5 269.854V257.854C297 256.52 304.2 245.954 313 214.354Z" fill="#8E3714"/>
<path d="M205 259.354C193.8 264.954 191 275.354 191 279.854C192.667 278.02 196.9 275.454 200.5 279.854C204.091 273.52 212.218 260.054 216 256.854L233.5 238.716C230.715 238.159 226.075 238.29 220.727 241.354C218.226 247.387 213.264 255.221 205 259.354Z" fill="#8E3714"/>
<path d="M261.5 235.854C257.167 242.354 245.9 256.954 235.5 263.354C229.833 273.354 217.5 293.954 213.5 296.354C221.333 294.187 237.3 287.854 238.5 279.854C237.833 277.854 237.5 273.654 241.5 272.854C245.5 272.054 247.5 266.187 248 263.354C254.167 256.354 266.8 241.054 268 235.854C267.948 235.011 267.765 234.065 267.394 233.354C266.569 231.77 264.812 231.354 261.5 235.854Z" fill="#8E3714"/>
<path d="M78 208.347C92.3625 207.269 107.192 206.099 110.5 206.354C114.182 206.637 118.024 207.241 121.118 208.347C114.912 201.683 108.6 187.254 133 182.854C133 177.354 134.6 166.354 141 166.354C136.333 161.854 124.7 152.854 115.5 152.854C111.244 150.783 103.432 146.95 97.2898 143.854C94.5322 142.463 92.1112 141.221 90.5 140.354L79 142.104L67.5 143.854L41 132.354L21.5 122.952C17.4733 125.496 16.1085 129.751 16 132.354C11.6 132.354 8.83332 137.687 8 140.354C0 143.354 5 150.854 2.5 152.854C0.5 154.454 0 160.187 0 162.854L13.4375 170.354L21.5 174.854C40.3001 190.454 67 203.683 78 208.347Z" fill="#655648"/>
<path d="M37.5 218.354C38.3 222.354 33.1667 225.02 30.5 225.854C28.4781 229.897 24.8307 237.802 25.3274 239.165C25.3847 239.228 25.4422 239.291 25.5 239.354C26.7 239.754 26 248.854 25.5 253.354C27.9637 253.456 33.9937 254.95 43.3093 259.354C49.118 262.099 56.2042 265.977 64.5 271.354C70.0614 274.958 76.9795 278.331 84.5 281.412C95.3351 285.85 107.42 289.683 118.5 292.732C131.5 294.191 157.5 296.235 157.5 292.732C157.5 289.229 146.5 280.687 141 276.854C138.5 272.854 136.1 264.554 146.5 263.354C156.9 262.154 162.167 258.52 163.5 256.854C161 253.52 157.5 245.754 163.5 241.354L146.5 228.354C141.167 230.115 129.5 232.282 125.5 226.854L118.5 219.73C115.392 219.262 111.715 218.948 108 218.739C93.2 233.848 59.5 219.292 44.5 210.126C40.6189 211.276 36.7653 214.68 37.5 218.354Z" fill="#655648"/>
<path d="M467.5 139.854C473.333 144.854 483 156.454 475 162.854C467 169.254 459.667 184.187 457 190.854L398.5 246.354C384.333 258.854 353.9 284.154 345.5 285.354C330.833 292.354 296.7 307.254 277.5 310.854C273.5 312.52 264.1 314.854 258.5 310.854C252.9 306.854 215.5 307.52 197.5 308.354H179C175.221 310.899 169.351 313.529 163.5 313.6C180.769 318.724 209.695 324.332 244.342 326.104C261.395 322.679 304.5 316.632 340.5 319.841C346.49 318.683 352.497 317.357 358.5 315.85C377.167 294.684 415.7 252.354 420.5 252.354C425.3 252.354 446.833 232.354 457 222.354C462.167 215.354 473 201.354 475 201.354C477.5 201.354 486.5 177.255 484.5 160.354C482.543 150.164 479.958 129.785 485.27 129.785C481.037 123.988 477.063 119.23 474.614 117.854C471.878 124.811 469.353 132.308 467.5 139.854Z" fill="#C6B390"/>
<path d="M78 208.347C67 203.683 40.3001 190.454 21.5 174.854C21.1116 178.495 20.8307 183.426 20.8847 188.854L44.5 210.126C45.9013 209.71 47.3062 209.588 48.5 209.854C50.3057 210.255 59.5991 209.69 70.5 208.902C72.9414 208.726 75.4634 208.538 78 208.347Z" fill="#C6B390"/>
<path d="M30.5 225.854C33.1667 225.02 38.3 222.354 37.5 218.354C36.7653 214.68 40.6189 211.276 44.5 210.126L20.8847 188.854C21.0161 202.058 23.1296 218.2 30.5 225.854Z" fill="#C5BDB2"/>
<path d="M21.5 174.854L13.4375 170.354C11.1338 186.436 10.3063 222.621 25.3274 239.165C24.8307 237.802 28.4781 229.897 30.5 225.854C23.1296 218.2 21.0161 202.058 20.8847 188.854C20.8307 183.426 21.1116 178.495 21.5 174.854Z" fill="#C5BDB2"/>
<path d="M146.5 299.354C139.688 298.053 129.598 295.786 118.5 292.732C107.42 289.683 95.3351 285.85 84.5 281.412C76.9795 278.331 70.0614 274.958 64.5 271.354C56.2042 265.977 49.118 262.099 43.3093 259.354C68.8729 286.854 149.6 340.754 268 336.354C316.333 335.697 426.4 320.778 480 266.354C498.167 250.187 529.5 205.954 509.5 158.354C503.128 146.187 487.597 120.154 476.443 113.354C475.826 114.824 475.215 116.326 474.614 117.854C477.063 119.23 481.037 123.988 485.27 129.785C490.876 137.463 496.935 146.966 500.5 152.854C534.016 231.793 446.465 285.745 398.5 302.854C385.333 308.201 371.926 312.479 358.5 315.85C352.497 317.357 346.49 318.683 340.5 319.841C306.754 326.369 273.519 327.596 244.342 326.104C209.695 324.332 180.769 318.724 163.5 313.6C156.706 313.682 149.939 310.314 146.5 299.354Z" fill="#C5BDB2"/>
<path d="M244.342 326.104C273.519 327.596 306.754 326.369 340.5 319.841C304.5 316.632 261.395 322.679 244.342 326.104Z" fill="#C5BDB2"/>
<path d="M398.5 302.854C446.465 285.745 534.016 231.793 500.5 152.854C496.935 146.966 490.876 137.463 485.27 129.785C479.958 129.785 482.543 150.164 484.5 160.354C486.5 177.255 477.5 201.354 475 201.354C473 201.354 462.167 215.354 457 222.354C446.833 232.354 425.3 252.354 420.5 252.354C415.7 252.354 377.167 294.684 358.5 315.85C371.926 312.479 385.333 308.201 398.5 302.854Z" fill="#C5BDB2"/>
<path fill-rule="evenodd" clip-rule="evenodd" d="M326.538 94.8536C326.993 102.687 329.322 119.754 334.99 125.354C317.029 133.01 297.731 141.6 282.5 148.516L276.435 146.258C278.171 141.196 274.67 141.251 269.5 143.453C262.667 139.92 249 128.754 249 112.354C248.501 102.729 252.412 85.6955 269.006 78.3669C283.079 75.8624 320 70.5 326.538 94.8536C326.504 95.6448 325.33 86.4414 325.363 87.2419C325.464 89.756 325.878 92.3083 326.538 94.8536ZM281 98.8536C276.29 97.1072 268.783 96.3384 276.435 107.234C281.79 108.774 291.5 110.154 287.5 103.354L281 98.8536ZM304 97.3536C302.081 102.745 300.594 111.193 310 101.854C313 94.1869 316 82.5536 304 97.3536ZM284.5 116.354C287.5 114.52 292.9 112.854 290.5 120.854C288.1 128.854 283.167 129.759 281 129.211C278.5 128.925 275.7 125.954 284.5 116.354ZM311.5 113.854C307 112.02 299.5 111.154 305.5 122.354C310.5 125.687 320.1 130.354 318.5 122.354L311.5 113.854Z" fill="#E4EE8E"/>
<path d="M325.423 83.8536C320.961 75.0536 298.282 74.1869 287.5 74.8536C281.49 74.8536 276.362 75.7161 272 77.2007C270.959 77.5551 269.961 77.9449 269.006 78.3669C283.079 75.8624 320 70.5 326.538 94.8536C326.552 94.5192 325.397 84.1859 325.423 83.8536Z" fill="#68B269"/>
<path fill-rule="evenodd" clip-rule="evenodd" d="M388 105.854C383.9 105.463 364.704 112.839 342.074 122.354C335.857 115.296 329.199 105.132 326.538 94.8536C325.878 92.3083 325.464 89.756 325.363 87.2419C325.33 86.4414 326.504 95.6448 326.538 94.8536C327.631 87.7361 334.305 63.4161 356.65 57.8312C357.255 57.7168 357.871 57.6064 358.5 57.5C359.563 57.2347 361.641 56.8483 362.892 56.6159L363 56.5957C363.49 56.5045 363.99 56.4174 364.5 56.3347C383.632 53.2307 416.089 56.407 424.5 90.1793C415.05 91.4729 404.208 96.3934 396.19 100.854C396.341 98.8536 389.126 96.0202 385.5 94.8536C380.3 96.4536 385 102.854 388 105.854ZM359.5 80.3536C364.167 83.6288 371.4 90.1793 363 90.1793C354.6 90.1793 352.5 85.9622 352.5 83.8536C351 81.5202 350.3 77.5536 359.5 80.3536ZM384 76.3536C381.667 79.6869 378.4 86.3536 384 86.3536C389.6 86.3536 391.667 78.6869 392 74.8536C391.667 72.8536 389.6 70.3536 384 76.3536ZM363 98.8536C366.166 96.6869 371.748 94.5536 368.749 103.354C365 114.354 353 110.854 355.5 105.854L363 98.8536Z" fill="#E4EE8E"/>
<path d="M327.235 76.3536C326.205 78.7547 325.627 81.272 325.423 83.8536C325.397 84.1859 326.552 94.5192 326.538 94.8536C327.631 87.7361 334.305 63.4161 356.65 57.8312C343.409 60.3364 335.899 64.7395 331.006 70.3751C329.372 72.2569 328.132 74.2611 327.235 76.3536Z" fill="#68B269"/>
</svg>
