<svg width="126" height="62" viewBox="0 0 126 62" fill="none" xmlns="http://www.w3.org/2000/svg">
<path d="M0.688347 21.5536C1.61552 30.4133 10.2691 41.9514 24.3828 48.7507C25.7158 49.7178 27.7345 50.9462 30.3579 52.2572L36.8481 50.6876C20.875 45.3919 11.288 38.0746 6.00937 31.6495C2.79143 27.7326 1.17465 24.1473 0.688347 21.5536Z" fill="#CE965F"/>
<path d="M67.1357 61.4221C87.6572 62.3286 104.394 55.55 110.198 52.0473C113.368 50.5123 119.949 45.579 121.604 37.8902C116.772 45.5968 96.6199 59.8355 54.6704 55.1379C47.996 53.9395 42.0795 52.422 36.8481 50.6876L30.3579 52.2572C38.0742 56.1133 51.0214 60.684 67.1357 61.4221Z" fill="#CB6D3C"/>
<path d="M106.592 19.4932C97.8011 15.7845 78.7769 8.98525 63.9422 7.33695C59.8214 6.61581 34.4787 4.04033 16.0382 8.47018C0.68835 10.9426 0.203196 16.9177 0.688347 21.5536C1.17465 24.1473 2.79143 27.7326 6.00937 31.6495C3.34286 24.6785 3.55228 11.0456 25.722 12.2819C47.8918 13.5181 82.4856 17.3298 97.0113 19.0811C104.182 21.0728 119.205 27.096 121.933 35.2552C121.869 27.5471 111.95 21.6175 106.592 19.4932Z" fill="#CB6D3C"/>
<path d="M121.604 37.8902C121.652 37.6666 121.696 37.4407 121.736 37.2125C121.875 36.5486 121.938 35.8957 121.933 35.2552C119.205 27.096 104.182 21.0728 97.0113 19.0811C82.4856 17.3298 47.8918 13.5181 25.722 12.2819C3.55228 11.0456 3.34286 24.6785 6.00937 31.6495C11.288 38.0746 20.875 45.3919 36.8481 50.6876C42.0795 52.422 47.996 53.9395 54.6704 55.1379C96.6199 59.8355 116.772 45.5968 121.604 37.8902Z" fill="#CE965F"/>
<path d="M0.688347 21.5536C1.61552 30.4133 10.2691 41.9514 24.3828 48.7507C25.7158 49.7178 27.7345 50.9462 30.3579 52.2572M0.688347 21.5536C0.203196 16.9177 0.68835 10.9426 16.0382 8.47018C34.4787 4.04033 59.8214 6.61581 63.9422 7.33695C78.7769 8.98525 97.8011 15.7845 106.592 19.4932C111.95 21.6175 121.869 27.5471 121.933 35.2552M0.688347 21.5536C1.17465 24.1473 2.79143 27.7326 6.00937 31.6495M121.604 37.8902C119.949 45.579 113.368 50.5123 110.198 52.0473C104.394 55.55 87.6572 62.3286 67.1357 61.4221C51.0214 60.684 38.0742 56.1133 30.3579 52.2572M121.604 37.8902C121.652 37.6666 121.696 37.4407 121.736 37.2125C121.875 36.5486 121.938 35.8957 121.933 35.2552M121.604 37.8902C116.772 45.5968 96.6199 59.8355 54.6704 55.1379C47.996 53.9395 42.0795 52.422 36.8481 50.6876M6.00937 31.6495C3.34286 24.6785 3.55228 11.0456 25.722 12.2819C47.8918 13.5181 82.4856 17.3298 97.0113 19.0811C104.182 21.0728 119.205 27.096 121.933 35.2552M6.00937 31.6495C11.288 38.0746 20.875 45.3919 36.8481 50.6876M30.3579 52.2572L36.8481 50.6876" stroke="#6A200F" stroke-width="1.00657"/>
<path d="M8.5178 19.5966C8.5178 20.5856 9.96007 22.4811 10.6812 23.3053C11.1042 23.0909 11.6272 22.862 12.224 22.6444C11.2148 22.6228 9.40641 20.7029 8.5178 19.5966Z" fill="#4BAB27"/>
<path d="M21.9103 22.4945C22.3745 22.7151 22.8231 22.9833 23.2495 23.3053C24.6617 21.9977 26.4563 19.1088 25.1206 16.0218C25.866 18.4863 23.4587 21.2515 21.9103 22.4945Z" fill="#4BAB27"/>
<path d="M11.2993 33.8132C13.1125 36.4505 19.1288 35.5989 21.9103 34.8434C22.0588 34.411 22.3265 33.8122 22.7057 33.1951C22.4406 33.1608 21.1067 33.3187 17.8925 34.2253C13.1949 34.8022 10.3721 31.5811 9.54799 29.8985C9.23893 30.4136 9.15652 31.9177 11.2993 33.8132Z" fill="#4BAB27"/>
<path d="M23.7646 41.5397C28.1945 46.1755 36.3673 43.0163 38.7024 40.7155L38.541 39.1702C32.6243 45.2484 23.7646 42.3638 22.3224 38.037C22.3567 38.9299 22.6932 40.8803 23.7646 41.5397Z" fill="#4BAB27"/>
<path d="M25.928 30.5166C26.1794 29.4797 26.0195 28.3698 25.6606 27.323C25.8159 28.2773 25.9425 30.3014 25.2069 30.7634C25.4367 30.6571 25.6772 30.5731 25.928 30.5166Z" fill="#4BAB27"/>
<path d="M8.92987 27.117C9.67161 27.9411 9.65101 29.3147 9.54799 29.8985C10.3721 31.5811 13.1949 34.8022 17.8925 34.2253C21.1067 33.3187 22.4406 33.1608 22.7057 33.1951C23.2866 32.2497 24.1294 31.2616 25.2069 30.7634C25.9425 30.3014 25.8159 28.2773 25.6606 27.323C25.0782 25.6242 23.9719 24.0914 23.2495 23.3053C22.8231 22.9833 22.3745 22.7151 21.9103 22.4945C18.8873 21.0579 15.2005 21.6378 12.6386 22.4991C12.5253 22.603 12.3848 22.6478 12.224 22.6444C11.6272 22.862 11.1042 23.0909 10.6812 23.3053C9.96007 24.0264 8.60021 25.7983 8.92987 27.117Z" fill="#DAD89F"/>
<path d="M22.8375 13.1064C15.8322 7.95541 9.27327 12.9003 8.31176 15.9909L8.20874 16.609C8.31176 16.8494 8.5178 17.7834 8.5178 19.5966C9.40641 20.7029 11.2148 22.6228 12.224 22.6444C12.3585 22.5953 12.4968 22.5468 12.6386 22.4991C15.2005 21.6378 18.8873 21.0579 21.9103 22.4945C23.4587 21.2515 25.866 18.4863 25.1206 16.0218C24.9242 15.5679 24.6601 15.1097 24.3172 14.6517C23.9299 14.1343 23.442 13.6171 22.8375 13.1064Z" fill="#DAD89F"/>
<path d="M34.3756 30.2076C32.9334 29.8298 29.2247 29.3628 25.928 30.5166C25.6772 30.5731 25.4367 30.6571 25.2069 30.7634C24.1294 31.2616 23.2866 32.2497 22.7057 33.1951C22.3265 33.8122 22.0588 34.411 21.9103 34.8434C22.0477 35.1181 22.3224 35.7706 22.3224 36.1827V38.037C23.7646 42.3638 32.6243 45.2484 38.541 39.1702L37.9813 33.8132C37.9813 32.1649 35.5775 30.7227 34.3756 30.2076Z" fill="#DAD89F"/>
<path d="M29.1213 35.5645C28.7779 34.7747 27.8026 33.3805 26.6488 34.1222C25.8247 35.2761 27.9537 35.5645 29.1213 35.5645Z" fill="#E5D7EA" stroke="#E5D7EA" stroke-width="1.43796"/>
<path d="M31.5632 35.2074C31.6809 33.9976 32.1811 31.8235 33.2401 32.806C34.1185 34.4353 32.4881 35.0858 31.5632 35.2074Z" fill="#E5D7EA" stroke="#E5D7EA" stroke-width="1.43796"/>
<path d="M29.6711 36.8881C29.5474 37.8423 28.971 39.6123 27.6548 39.0594C26.5492 37.9737 28.5384 37.1595 29.6711 36.8881Z" fill="#E5D7EA" stroke="#E5D7EA" stroke-width="1.43796"/>
<path d="M31.6969 36.7583C32.6577 36.8091 34.4665 37.2493 34.0153 38.6037C33.0167 39.7886 32.0536 37.8672 31.6969 36.7583Z" fill="#E5D7EA" stroke="#E5D7EA" stroke-width="1.43796"/>
<path d="M18.7167 28.3114C19.6775 28.3621 21.4863 28.8023 21.035 30.1567C20.0365 31.3417 19.0734 29.4202 18.7167 28.3114Z" fill="#E5D7EA" stroke="#E5D7EA" stroke-width="1.43796"/>
<path d="M16.0383 27.1168C14.9058 27.1687 12.8086 26.9561 13.4807 25.6901C14.7835 24.5211 15.7286 26.1541 16.0383 27.1168Z" fill="#E5D7EA" stroke="#E5D7EA" stroke-width="1.43796"/>
<path d="M16.4175 28.765C15.4515 29.054 13.7494 29.8641 14.669 30.7922C16.0913 31.4472 16.4273 29.7136 16.4175 28.765Z" fill="#E5D7EA" stroke="#E5D7EA" stroke-width="1.43796"/>
<path d="M18.478 26.9106C19.3885 26.5842 20.9922 25.6674 20.123 24.6114C18.7802 23.8646 18.4668 25.833 18.478 26.9106Z" fill="#E5D7EA" stroke="#E5D7EA" stroke-width="1.43796"/>
<path d="M18.0346 15.9907C18.9451 15.6643 20.5489 14.7476 19.6797 13.6915C18.3369 12.9447 18.0235 14.9131 18.0346 15.9907Z" fill="#E5D7EA" stroke="#E5D7EA" stroke-width="1.43796"/>
<path d="M15.42 16.1969C14.2575 16.2415 12.1111 16.0132 12.8254 14.7431C14.1847 13.575 15.1215 15.2256 15.42 16.1969Z" fill="#E5D7EA" stroke="#E5D7EA" stroke-width="1.43796"/>
<path d="M17.8925 17.3141C18.9188 17.3334 20.8315 17.6963 20.2718 18.993C19.1354 20.1457 18.2121 18.354 17.8925 17.3141Z" fill="#E5D7EA" stroke="#E5D7EA" stroke-width="1.43796"/>
<path d="M15.669 17.7215C14.5184 18.2186 12.5425 19.373 13.8437 20.0139C15.7228 20.2826 15.8435 18.5976 15.669 17.7215Z" fill="#E5D7EA" stroke="#E5D7EA" stroke-width="1.43796"/>
<path d="M25.7219 13.1637C26.134 14.0565 27.3702 16.11 29.0185 17.1814C27.123 15.6155 26.5521 13.9878 26.5036 13.3697V10.4852C26.4045 10.3802 26.3106 10.2771 26.222 10.1761C26.0307 9.95834 25.8638 9.75091 25.7219 9.55801V13.1637Z" fill="#F0F8F6"/>
<path d="M55.9066 9.14593C56.0096 7.25725 54.2789 3.15021 46.5318 1.83157C38.7848 0.51292 31.9031 2.24364 29.4306 3.68591C28.3317 4.37271 25.9692 6.24079 25.7219 8.21876V9.55801C25.8638 9.75091 26.0307 9.95834 26.222 10.1761C26.4674 8.2531 28.5653 4.05678 34.9937 2.65572C41.4221 1.25466 48.7982 3.44553 51.6828 4.71611C53.0907 5.67762 55.6387 8.25997 54.5673 10.8973L54.2582 11.5714C54.6758 11.1668 55.0116 10.7643 55.2737 10.3822C55.5824 9.93206 55.7889 9.51011 55.9066 9.14593Z" fill="#F0F8F6"/>
<path d="M55.9066 14.1939V9.14593C55.7889 9.51011 55.5824 9.93206 55.2737 10.3822L55.1854 16.6245C55.2882 16.5873 55.3912 16.5498 55.4945 16.5118L55.9066 14.1939Z" fill="#F0F8F6"/>
<path d="M29.0185 17.1814C30.0144 18.6924 32.2121 21.7349 33.0363 21.8173L32.879 21.6113L30.8346 18.9328L29.9697 17.7995C29.5918 17.5925 29.2747 17.3836 29.0185 17.1814Z" fill="#F0F8F6"/>
<path d="M26.222 10.1761C26.3106 10.2771 26.4045 10.3802 26.5036 10.4852C28.7781 12.8952 33.7768 16.2576 40.6597 15.5331C43.2282 15.5938 45.4108 15.3745 47.2529 14.9759C48.4892 14.5302 50.1718 12.8266 50.8586 12.0305C53.0014 9.85233 52.3009 7.8263 51.6828 7.08555C50.7899 6.19271 49.0455 4.59248 49.2103 5.33422C50.0345 6.65287 50.0345 8.0814 49.9314 8.63084C49.9658 10.0388 48.7364 12.6898 43.5442 12.0305C38.5169 10.7118 37.3974 8.18442 37.4661 7.08555C37.5691 6.70781 37.1571 6.01415 34.6846 6.26139C32.2121 6.50864 32.2808 8.21876 32.6242 9.04291C33.0706 9.83273 35.1585 11.6596 39.9386 12.6486C37.3837 13.6376 33.517 12.2365 31.9031 11.4124C31.1476 11.0003 29.7033 9.70224 29.9697 7.80668C28.1758 7.64185 26.7237 9.31763 26.222 10.1761Z" fill="#DEB081"/>
<path d="M26.5036 13.3697C26.5521 13.9878 27.123 15.6155 29.0185 17.1814C29.2747 17.3836 29.5918 17.5925 29.9697 17.7995C31.4152 18.5916 33.7488 19.3576 36.951 19.6254C40.6597 19.7675 42.8918 18.2613 43.5442 17.4905C34.9731 19.0564 28.6125 15.3958 26.5036 13.3697Z" fill="#DEB081"/>
<path d="M40.2476 20.5811C36.951 20.9931 32.5987 19.6539 30.8346 18.9328L32.879 21.6113C33.4809 21.97 35.0761 22.6165 36.642 22.3324C38.2079 22.0482 39.6982 21.0464 40.2476 20.5811Z" fill="#DEB081"/>
<path d="M34.9937 2.65572C28.5653 4.05678 26.4674 8.2531 26.222 10.1761C26.7237 9.31763 28.1758 7.64185 29.9697 7.80668C29.7033 9.70224 31.1476 11.0003 31.9031 11.4124C33.517 12.2365 37.3837 13.6376 39.9386 12.6486C35.1585 11.6596 33.0706 9.83273 32.6242 9.04291C32.2808 8.21876 32.2121 6.50864 34.6846 6.26139C37.1571 6.01415 37.5691 6.70781 37.4661 7.08555C37.3974 8.18442 38.5169 10.7118 43.5442 12.0305C48.7364 12.6898 49.9658 10.0388 49.9314 8.63084C50.0345 8.0814 50.0345 6.65287 49.2103 5.33422C49.0455 4.59248 50.7899 6.19271 51.6828 7.08555C52.3009 7.8263 53.0014 9.85233 50.8586 12.0305C50.1718 12.8266 48.4892 14.5302 47.2529 14.9759C50.6529 14.2404 52.8929 12.8943 54.2582 11.5714L54.5673 10.8973C55.6387 8.25997 53.0907 5.67762 51.6828 4.71611C48.7982 3.44553 41.4221 1.25466 34.9937 2.65572Z" fill="#CA783A"/>
<path d="M33.0363 21.8173C34.5129 22.7445 38.1872 24.434 41.0718 23.7747L55.0824 18.8297L55.4945 16.5118C55.3912 16.5498 55.2882 16.5873 55.1854 16.6245C47.4783 19.4129 41.3828 19.9962 36.951 19.6254C33.7488 19.3576 31.4152 18.5916 29.9697 17.7995L30.8346 18.9328C32.5987 19.6539 36.951 20.9931 40.2476 20.5811C39.6982 21.0464 38.2079 22.0482 36.642 22.3324C35.0761 22.6165 33.4809 21.97 32.879 21.6113L33.0363 21.8173Z" fill="#CA783A"/>
<path d="M40.6597 15.5331C33.7768 16.2576 28.7781 12.8952 26.5036 10.4852V13.3697C28.6125 15.3958 34.9731 19.0564 43.5442 17.4905C42.8918 18.2613 40.6597 19.7675 36.951 19.6254C41.3828 19.9962 47.4783 19.4129 55.1854 16.6245L55.2737 10.3822C55.0116 10.7643 54.6758 11.1668 54.2582 11.5714C52.8929 12.8943 50.6529 14.2404 47.2529 14.9759C45.4108 15.3745 43.2282 15.5938 40.6597 15.5331Z" fill="#CA783A"/>
<path d="M29.0185 17.1814C27.3702 16.11 26.134 14.0565 25.7219 13.1637V9.55801M29.0185 17.1814C30.0144 18.6924 32.2121 21.7349 33.0363 21.8173M29.0185 17.1814C27.123 15.6155 26.5521 13.9878 26.5036 13.3697M29.0185 17.1814C29.2747 17.3836 29.5918 17.5925 29.9697 17.7995M33.0363 21.8173C34.5129 22.7445 38.1872 24.434 41.0718 23.7747L55.0824 18.8297L55.4945 16.5118M33.0363 21.8173L32.879 21.6113M55.9066 9.14593V14.1939L55.4945 16.5118M55.9066 9.14593C56.0096 7.25725 54.2789 3.15021 46.5318 1.83157C38.7848 0.51292 31.9031 2.24364 29.4306 3.68591C28.3317 4.37271 25.9692 6.24079 25.7219 8.21876V9.55801M55.9066 9.14593C55.7889 9.51011 55.5824 9.93206 55.2737 10.3822M25.7219 9.55801C25.8638 9.75091 26.0307 9.95834 26.222 10.1761M55.4945 16.5118C55.3912 16.5498 55.2882 16.5873 55.1854 16.6245M26.222 10.1761C26.4674 8.2531 28.5653 4.05678 34.9937 2.65572C41.4221 1.25466 48.7982 3.44553 51.6828 4.71611C53.0907 5.67762 55.6387 8.25997 54.5673 10.8973L54.2582 11.5714M26.222 10.1761C26.3106 10.2771 26.4045 10.3802 26.5036 10.4852M26.222 10.1761C26.7237 9.31763 28.1758 7.64185 29.9697 7.80668C29.7033 9.70224 31.1476 11.0003 31.9031 11.4124C33.517 12.2365 37.3837 13.6376 39.9386 12.6486C35.1585 11.6596 33.0706 9.83273 32.6242 9.04291C32.2808 8.21876 32.2121 6.50864 34.6846 6.26139C37.1571 6.01415 37.5691 6.70781 37.4661 7.08555C37.3974 8.18442 38.5169 10.7118 43.5442 12.0305C48.7364 12.6898 49.9658 10.0388 49.9314 8.63084C50.0345 8.0814 50.0345 6.65287 49.2103 5.33422C49.0455 4.59248 50.7899 6.19271 51.6828 7.08555C52.3009 7.8263 53.0014 9.85233 50.8586 12.0305C50.1718 12.8266 48.4892 14.5302 47.2529 14.9759M54.2582 11.5714C52.8929 12.8943 50.6529 14.2404 47.2529 14.9759M54.2582 11.5714C54.6758 11.1668 55.0116 10.7643 55.2737 10.3822M26.5036 10.4852C28.7781 12.8952 33.7768 16.2576 40.6597 15.5331C43.2282 15.5938 45.4108 15.3745 47.2529 14.9759M26.5036 10.4852V13.3697M26.5036 13.3697C28.6125 15.3958 34.9731 19.0564 43.5442 17.4905C42.8918 18.2613 40.6597 19.7675 36.951 19.6254M29.9697 17.7995C31.4152 18.5916 33.7488 19.3576 36.951 19.6254M29.9697 17.7995L30.8346 18.9328M36.951 19.6254C41.3828 19.9962 47.4783 19.4129 55.1854 16.6245M30.8346 18.9328C32.5987 19.6539 36.951 20.9931 40.2476 20.5811C39.6982 21.0464 38.2079 22.0482 36.642 22.3324C35.0761 22.6165 33.4809 21.97 32.879 21.6113M30.8346 18.9328L32.879 21.6113M55.2737 10.3822L55.1854 16.6245" stroke="#98372C" stroke-width="1.43796"/>
<path d="M27.8852 10.4284C27.638 11.4174 31.2162 12.9695 33.0362 13.622C31.4703 13.0451 30.5294 12.2828 30.2547 11.9737C29.6366 11.1495 28.2973 9.68667 27.8852 10.4284Z" fill="#F3DDD4" stroke="#F3DDD4" stroke-width="1.43796"/>
<path d="M47.2529 8.78006C46.5318 9.70723 44.7804 9.94761 43.8533 10.0163C44.025 10.2223 44.492 10.6344 44.9865 10.6344C45.6046 10.6344 46.6348 10.3253 47.2529 8.78006Z" fill="#F3DDD4" stroke="#F3DDD4" stroke-width="1.43796"/>
<ellipse cx="48.2229" cy="8.09205" rx="0.515096" ry="0.412077" transform="rotate(-85.0927 48.2229 8.09205)" fill="#F3DDD4"/>
<path d="M96.6687 17.51L96.4774 18.2012L102.503 17.8833L102.696 17.2121L96.6687 17.51Z" fill="#E37F2D"/>
<path d="M124.934 16.6998L124.86 16.1168L102.696 17.2121L102.503 17.8833L124.934 16.6998Z" fill="#EBD7CD"/>
<path d="M52.0888 20.5068C53.3223 20.292 54.2589 21.2527 54.573 21.7599L86.2973 23.5113L88.5813 22.7901H90.8942L94.3207 21.1334C96.5823 21.6346 96.9763 20.3875 96.8906 19.7013C97.1339 19.424 97.2231 19.1144 97.2171 18.8062H96.8906L95.8627 19.7013L94.3207 19.4327L93.9781 18.1796H90.8942L89.9519 16.4789C89.2952 16.1806 88.1016 15.7629 88.5813 16.4789C89.061 17.195 88.3814 18.5675 87.9817 19.1642C87.382 19.7311 85.7373 20.6679 83.9555 19.8803C83.4758 18.3765 82.4992 18.5376 82.0709 18.8062C81.9852 19.2835 81.3856 20.1667 79.6723 19.8803C78.5758 20.4531 78.9299 17.9707 79.244 16.658C79.2155 16.1806 78.7472 15.4764 77.1024 16.4789C76.2801 18.842 74.0186 19.015 72.9906 18.8062C72.6194 18.5973 71.9455 18.0364 72.2196 17.4635C72.4937 16.8907 71.6485 16.6878 71.1917 16.658C70.335 16.7773 68.3476 17.2487 67.2512 18.1796C66.1547 19.1105 65.081 18.5675 64.6813 18.1796C64.4814 17.7917 63.8589 16.9444 62.968 16.658C62.0771 16.3715 61.7973 17.553 61.7687 18.1796C61.0548 18.4481 59.6271 18.6809 59.6271 17.4635C59.9012 15.8166 58.7705 15.6435 58.1708 15.7629C57.6569 16.1806 56.4747 16.9086 55.8579 16.4789C55.3782 15.4048 54.8014 15.196 54.573 15.2258L52.4314 17.016C50.3755 18.0185 49.5189 17.195 49.3475 16.658C49.2619 16.7176 49.0049 16.9623 48.6622 17.4635C48.3196 17.9648 49.319 19.2835 49.8615 19.8803C50.0899 20.1786 50.8552 20.7216 52.0888 20.5068Z" fill="#B04C0F"/>
<path d="M49.5189 15.2258L49.3475 16.658C49.5189 17.195 50.3755 18.0185 52.4314 17.016L54.573 15.2258C54.8014 15.196 55.3782 15.4048 55.8579 16.4789C56.4747 16.9086 57.6569 16.1806 58.1708 15.7629C58.7705 15.6435 59.9012 15.8166 59.6271 17.4635C59.6271 18.6809 61.0548 18.4481 61.7687 18.1796C61.7973 17.553 62.0771 16.3715 62.968 16.658C63.8589 16.9444 64.4814 17.7917 64.6813 18.1796C65.081 18.5675 66.1547 19.1105 67.2512 18.1796C68.3476 17.2487 70.335 16.7773 71.1917 16.658C71.6485 16.6878 72.4937 16.8907 72.2196 17.4635C71.9455 18.0364 72.6194 18.5973 72.9906 18.8062C74.0186 19.015 76.2801 18.842 77.1024 16.4789C78.7472 15.4764 79.2155 16.1806 79.244 16.658C78.9299 17.9707 78.5758 20.4531 79.6723 19.8803C81.3856 20.1667 81.9852 19.2835 82.0709 18.8062C82.4992 18.5376 83.4758 18.3765 83.9555 19.8803C85.7373 20.6679 87.382 19.7311 87.9817 19.1642C88.3814 18.5675 89.061 17.195 88.5813 16.4789C88.1016 15.7629 89.2952 16.1806 89.9519 16.4789L90.8942 18.1796H93.9781L94.3207 19.4327L95.8627 19.7013L96.8906 18.8062H97.2171C97.2043 18.1592 96.7718 17.5183 96.4623 17.195C96.4623 16.1209 95.0346 15.9121 94.3207 15.9419C93.841 15.011 92.4076 14.8976 91.7508 14.9573L90.7229 13.7937C90.3802 13.9727 89.2666 14.0801 87.5533 13.0776C87.2792 11.7887 85.8401 11.7648 85.1548 11.914C84.6065 11.0547 83.4986 11.556 83.0132 11.914C82.8761 10.9831 81.357 11.1084 80.6146 11.2874C79.9579 11.7052 78.4045 12.5764 77.4451 12.7196C76.4857 12.8628 75.0465 12.4809 74.4469 12.272C73.3047 12.4511 70.592 12.6301 68.8788 11.914C66.9599 12.2004 65.9662 11.6156 65.7092 11.2874L60.9121 10.8399L58.9418 11.0189L57.2286 11.2874C56.7488 11.2874 56.2291 11.9438 56.0293 12.272H55.0013L52.7741 13.9727C51.1979 13.4714 50.5754 14.1816 50.4612 14.5993C49.7073 14.8141 49.5189 15.1065 49.5189 15.2258Z" fill="#EEB70B"/>
<path d="M58.3994 14.4415C58.1522 14.025 57.5753 13.7751 57.2456 13.6085C57.8775 13.4419 58.8939 13.4419 58.8939 14.1916C58.8939 15.0807 58.4818 14.7192 58.3994 14.4415Z" fill="#F6EFD5" stroke="#DAEDE7" stroke-width="1.43796"/>
<path d="M67.0357 14.8523C66.5583 14.4646 65.5298 14.5292 65.0752 14.61L65.8423 14.6907C66.0981 15.0946 66.8481 15.8215 67.8028 15.4984C68.4165 14.9815 68.1154 14.7984 67.888 14.7715C67.8028 14.8523 67.513 14.9815 67.0357 14.8523Z" fill="#F6EFD5" stroke="#EAE5DF" stroke-width="1.43796"/>
<path d="M74.8486 15.9376C74.9217 15.4279 73.7206 14.9365 73.1108 14.7545C75.379 14.9001 75.5193 15.5432 75.3059 15.8465C75.1229 16.0892 74.7754 16.4472 74.8486 15.9376Z" fill="#F6EFD5" stroke="#EAD8E0" stroke-width="1.43796"/>
<path d="M81.1465 14.3424C81.7402 15.0733 82.9811 16.4586 83.1948 16.1536C84.0498 15.391 82.1855 14.6284 81.1465 14.3424Z" fill="#F6EFD5" stroke="#F6EFD5" stroke-width="1.43796"/>
<path d="M62.671 12.0762C60.5643 12.7115 60.6039 14.0466 60.8871 14.6348C61.023 14.8465 61.4534 14.723 61.6516 14.6348C62.0481 15.0465 62.9089 15.7994 63.1807 15.5171C63.4525 15.2347 62.2746 14.3407 61.6516 13.929C61.4534 13.8114 61.3798 13.2761 62.671 12.0762Z" fill="#98372C" stroke="#98372C" stroke-width="1.43796"/>
<path d="M78.3803 13.1918C77.8858 14.0743 79.0573 14.5401 79.7049 14.6626C79.5283 15.9496 83.0606 17.3284 82.2658 16.9607C81.63 16.6666 80.8235 15.061 80.4997 14.2949C80.4408 13.9272 80.3054 13.1918 80.2347 13.1918C80.1464 13.1918 80.0581 13.5595 79.7049 13.9272C79.3517 14.2949 79.175 12.7322 78.3803 13.1918Z" fill="#98372C" stroke="#98372C" stroke-width="1.43796"/>
<path d="M87.1611 16.5916C87.0458 16.7141 86.9625 16.1637 86.9214 15.7293C86.9066 15.5728 86.8565 15.4215 86.7701 15.2903L86.6369 15.0881C86.4463 14.7989 86.5146 14.4112 86.7925 14.2046C87.0137 14.0401 87.3159 14.0299 87.5355 14.1964C87.7219 14.3376 87.8985 14.4879 87.9384 14.5728C88.2453 15.2248 87.655 16.0669 87.1611 16.5916Z" fill="#98372C" stroke="#98372C" stroke-width="1.43796"/>
<path d="M92.2724 45.6602L91.9634 46.5874L98.6596 47.2199L98.9687 46.321L92.2724 45.6602Z" fill="#E37F2D"/>
<path d="M123.59 49.5749V48.7508L98.9687 46.321L98.6596 47.2199L123.59 49.5749Z" fill="#EBD7CD"/>
<path d="M93.8037 36.3067L93.612 37.2651L100.335 37.0625L100.53 36.1322L93.8037 36.3067Z" fill="#E37F2D"/>
<path d="M125.365 36.3085L125.263 35.4907L100.53 36.1322L100.335 37.0625L125.365 36.3085Z" fill="#EBD7CD"/>
<path d="M94.435 28.4694L94.2036 29.4189L100.929 29.4958L101.163 28.5745L94.435 28.4694Z" fill="#E37F2D"/>
<path d="M125.969 29.7823L125.901 28.9609L101.163 28.5745L100.929 29.4958L125.969 29.7823Z" fill="#EBD7CD"/>
<path d="M94.435 28.4694L94.2036 29.4189L100.929 29.4958L101.163 28.5745L94.435 28.4694Z" fill="#E37F2D"/>
<path d="M125.969 29.7823L125.901 28.9609L101.163 28.5745L100.929 29.4958L125.969 29.7823Z" fill="#EBD7CD"/>
<path d="M40.3509 31.1349C41.8344 30.8876 42.9607 31.9933 43.3384 32.5771L88.6669 32.3711L91.1394 31.856C93.8591 32.4329 94.333 30.9975 94.2299 30.2077C94.5225 29.8886 94.6298 29.5322 94.6225 29.1775H94.2299L92.9937 30.2077L91.1394 29.8986L90.7273 28.4564H87.0186L85.8854 26.499C85.0956 26.1556 83.6602 25.6748 84.2371 26.499C84.814 27.3232 83.9967 28.9028 83.5159 29.5896C82.7948 30.242 80.8168 31.3203 78.674 30.4137C78.0971 28.683 76.9227 28.8684 76.4076 29.1775C76.3046 29.7269 75.5835 30.7434 73.5231 30.4137C72.2044 31.073 72.6302 28.216 73.008 26.705C72.9736 26.1556 72.4105 25.3452 70.4325 26.499C69.4435 29.2187 66.7238 29.4179 65.4876 29.1775C65.0412 28.9371 64.2307 28.2915 64.5604 27.6322C64.8901 26.9729 63.8736 26.7394 63.3242 26.705C62.294 26.8424 59.9039 27.385 58.5853 28.4564C57.2666 29.5278 55.9755 28.9028 55.4947 28.4564C55.2543 28.0099 54.5057 27.0347 53.4343 26.705C52.3629 26.3754 52.0264 27.7352 51.9921 28.4564C51.1336 28.7654 49.4166 29.0333 49.4166 27.6322C49.7462 25.7366 48.3864 25.5375 47.6652 25.6748C47.0471 26.1556 45.6255 26.9935 44.8837 26.499C44.3068 25.2628 43.6132 25.0224 43.3384 25.0567L40.763 27.1171C38.2905 28.2709 37.2603 27.3231 37.0543 26.705C36.9512 26.7737 36.6422 27.0553 36.2301 27.6322C35.818 28.2091 37.0199 29.7269 37.6724 30.4137C37.9471 30.7571 38.8674 31.3821 40.3509 31.1349Z" fill="#B04C0F"/>
<path d="M37.2603 25.0567L37.0543 26.705C37.2603 27.3231 38.2905 28.2709 40.763 27.1171L43.3384 25.0567C43.6132 25.0224 44.3068 25.2628 44.8837 26.499C45.6255 26.9935 47.0471 26.1556 47.6652 25.6748C48.3864 25.5375 49.7462 25.7366 49.4166 27.6322C49.4166 29.0333 51.1336 28.7654 51.9921 28.4564C52.0264 27.7352 52.3629 26.3754 53.4343 26.705C54.5057 27.0347 55.2543 28.0099 55.4947 28.4564C55.9755 28.9028 57.2666 29.5278 58.5853 28.4564C59.9039 27.385 62.294 26.8424 63.3242 26.705C63.8736 26.7394 64.8901 26.9729 64.5604 27.6322C64.2307 28.2915 65.0412 28.9371 65.4876 29.1775C66.7238 29.4179 69.4435 29.2187 70.4325 26.499C72.4105 25.3452 72.9736 26.1556 73.008 26.705C72.6302 28.216 72.2044 31.073 73.5231 30.4137C75.5835 30.7434 76.3046 29.7269 76.4076 29.1775C76.9227 28.8684 78.0971 28.683 78.674 30.4137C80.8168 31.3203 82.7948 30.242 83.5159 29.5896C83.9967 28.9028 84.814 27.3232 84.2371 26.499C83.6602 25.6748 85.0956 26.1556 85.8854 26.499L87.0186 28.4564H90.7273L91.1394 29.8986L92.9937 30.2077L94.2299 29.1775H94.6225C94.6072 28.4329 94.087 27.6953 93.7148 27.3232C93.7148 26.0869 91.9979 25.8465 91.1394 25.8809C90.5624 24.8095 88.8386 24.679 88.0488 24.7477L86.8125 23.4084C86.4005 23.6145 85.0612 23.7381 83.0008 22.5843C82.6712 21.1008 80.9405 21.0733 80.1163 21.245C79.457 20.256 78.1246 20.8329 77.5408 21.245C77.376 20.1736 75.5491 20.3178 74.6563 20.5239C73.8665 21.0046 71.9984 22.0074 70.8446 22.1722C69.6908 22.337 67.96 21.8975 67.2389 21.6571C65.8653 21.8631 62.603 22.0692 60.5426 21.245C58.235 21.5747 57.04 20.9016 56.7309 20.5239L50.9619 20.0088L48.5924 20.2148L46.532 20.5239C45.9551 20.5239 45.3301 21.2794 45.0898 21.6571H43.8535L41.175 23.6145C39.2795 23.0375 38.5309 23.8548 38.3935 24.3356C37.4869 24.5828 37.2603 24.9194 37.2603 25.0567Z" fill="#EEB70B"/>
<path d="M47.974 24.1296C47.6649 23.6145 46.9438 23.3054 46.5317 23.0994C47.3216 22.8933 48.5921 22.8933 48.5921 23.8205C48.5921 24.9201 48.077 24.473 47.974 24.1296Z" fill="#F6EFD5" stroke="#DAEDE7" stroke-width="1.43796"/>
<path d="M58.3792 24.6444C57.8023 24.1499 56.5592 24.2324 56.0098 24.3354L56.9369 24.4384C57.246 24.9535 58.1526 25.8807 59.3064 25.4686C60.0481 24.8093 59.6841 24.5758 59.4094 24.5414C59.3064 24.6444 58.9561 24.8093 58.3792 24.6444Z" fill="#F6EFD5" stroke="#EAE5DF" stroke-width="1.43796"/>
<path d="M67.6507 25.7775C67.7331 25.2006 66.3802 24.6443 65.6934 24.4383C68.2482 24.6031 68.4062 25.3311 68.1658 25.6745C67.9598 25.9492 67.5683 26.3545 67.6507 25.7775Z" fill="#F6EFD5" stroke="#EAD8E0" stroke-width="1.43796"/>
<path d="M75.3772 24.1296C76.064 24.9195 77.4994 26.4167 77.7466 26.087C78.7356 25.2629 76.5791 24.4387 75.3772 24.1296Z" fill="#F6EFD5" stroke="#F6EFD5" stroke-width="1.43796"/>
<path d="M53.0222 21.3477C50.4673 22.0895 50.5154 23.6485 50.8588 24.3353C51.0236 24.5825 51.5456 24.4383 51.7859 24.3353C52.2667 24.816 53.3106 25.6951 53.6403 25.3655C53.97 25.0358 52.5414 23.9919 51.7859 23.5111C51.5456 23.3738 51.4563 22.7488 53.0222 21.3477Z" fill="#98372C" stroke="#98372C" stroke-width="1.43796"/>
<path d="M72.0807 22.7904C71.5038 23.7793 72.8705 24.3013 73.626 24.4387C73.4199 25.8809 77.5407 27.4262 76.6135 27.0141C75.8718 26.6845 74.9309 24.8851 74.5532 24.0266C74.4845 23.6145 74.3265 22.7904 74.2441 22.7904C74.1411 22.7904 74.0381 23.2024 73.626 23.6145C73.2139 24.0266 73.0079 22.2753 72.0807 22.7904Z" fill="#98372C" stroke="#98372C" stroke-width="1.43796"/>
<path d="M82.4858 26.6019C82.3485 26.7391 82.2494 26.1241 82.2002 25.6369C82.1823 25.4596 82.1227 25.2886 82.0205 25.1426L81.8895 24.9554C81.6498 24.613 81.7331 24.1412 82.0755 23.9015C82.3242 23.7274 82.6546 23.7166 82.9026 23.8918C83.1356 24.0563 83.3632 24.236 83.4129 24.3355C83.4153 24.3403 83.4172 24.3454 83.4186 24.3508C83.6178 25.1387 83.0604 26.0273 82.4858 26.6019Z" fill="#98372C" stroke="#98372C" stroke-width="1.43796"/>
<path d="M39.2323 40.8268C40.8003 40.5634 41.9909 41.7416 42.3902 42.3637L90.3035 42.1441L92.917 41.5952C95.7918 42.21 96.2927 40.6805 96.1838 39.8389C96.493 39.4988 96.6065 39.1191 96.5988 38.7411H96.1838L94.8771 39.8389L92.917 39.5095L92.4814 37.9727H88.5612L87.3634 35.887C86.5285 35.5211 85.0113 35.0088 85.6211 35.887C86.2309 36.7652 85.367 38.4484 84.8588 39.1802C84.0966 39.8754 82.0058 41.0244 79.7408 40.0584C79.131 38.2142 77.8896 38.4118 77.3452 38.7411C77.2363 39.3266 76.474 40.4097 74.2961 40.0584C72.9023 40.7609 73.3524 37.7165 73.7517 36.1065C73.7154 35.521 73.1201 34.6575 71.0293 35.887C69.9839 38.785 67.1091 38.9972 65.8024 38.7411C65.3305 38.485 64.4739 37.797 64.8223 37.0945C65.1708 36.3919 64.0964 36.1431 63.5156 36.1065C62.4267 36.2529 59.9003 36.831 58.5065 37.9727C57.1127 39.1143 55.7479 38.4484 55.2397 37.9727C54.9856 37.497 54.1943 36.4578 53.0618 36.1065C51.9293 35.7552 51.5736 37.2043 51.5373 37.9727C50.6298 38.302 48.8149 38.5874 48.8149 37.0945C49.1634 35.0746 47.726 34.8624 46.9637 35.0088C46.3104 35.5211 44.8076 36.4139 44.0236 35.887C43.4138 34.5697 42.6806 34.3135 42.3902 34.3501L39.6678 36.5456C37.0544 37.7751 35.9654 36.7652 35.7477 36.1065C35.6388 36.1797 35.3121 36.4797 34.8765 37.0945C34.4409 37.7092 35.7114 39.3266 36.401 40.0584C36.6914 40.4243 37.6642 41.0903 39.2323 40.8268Z" fill="#B04C0F"/>
<path d="M35.9654 34.3501L35.7477 36.1065C35.9654 36.7652 37.0544 37.7751 39.6678 36.5456L42.3902 34.3501C42.6806 34.3135 43.4138 34.5697 44.0236 35.887C44.8076 36.4139 46.3104 35.5211 46.9637 35.0088C47.726 34.8624 49.1634 35.0746 48.8149 37.0945C48.8149 38.5874 50.6298 38.302 51.5373 37.9727C51.5736 37.2043 51.9293 35.7552 53.0618 36.1065C54.1943 36.4578 54.9856 37.497 55.2397 37.9727C55.7479 38.4484 57.1127 39.1143 58.5065 37.9727C59.9003 36.831 62.4267 36.2529 63.5156 36.1065C64.0964 36.1431 65.1708 36.3919 64.8223 37.0945C64.4739 37.797 65.3305 38.485 65.8024 38.7411C67.1091 38.9972 69.9839 38.785 71.0293 35.887C73.1201 34.6575 73.7154 35.521 73.7517 36.1065C73.3524 37.7165 72.9023 40.7609 74.2961 40.0584C76.474 40.4097 77.2363 39.3266 77.3452 38.7411C77.8896 38.4118 79.131 38.2142 79.7408 40.0584C82.0058 41.0244 84.0966 39.8754 84.8588 39.1802C85.367 38.4484 86.2309 36.7652 85.6211 35.887C85.0113 35.0088 86.5285 35.5211 87.3634 35.887L88.5612 37.9727H92.4814L92.917 39.5095L94.8771 39.8389L96.1838 38.7411H96.5988C96.5826 37.9477 96.0327 37.1617 95.6393 36.7652C95.6393 35.4479 93.8244 35.1917 92.917 35.2283C92.3072 34.0867 90.485 33.9476 89.6502 34.0208L88.3434 32.5937C87.9079 32.8133 86.4922 32.945 84.3144 31.7155C83.9659 30.1348 82.1365 30.1055 81.2653 30.2885C80.5684 29.2346 79.1601 29.8494 78.543 30.2885C78.3688 29.1468 76.4377 29.3005 75.494 29.52C74.6591 30.0323 72.6845 31.1008 71.4649 31.2764C70.2453 31.4521 68.4158 30.9837 67.6536 30.7276C66.2017 30.9471 62.7534 31.1667 60.5755 30.2885C58.1363 30.6397 56.8731 29.9225 56.5464 29.52L50.4483 28.9712L47.9438 29.1907L45.7659 29.52C45.1561 29.52 44.4955 30.325 44.2414 30.7276H42.9347L40.1034 32.8133C38.0998 32.1985 37.3085 33.0694 37.1633 33.5817C36.205 33.8451 35.9654 34.2037 35.9654 34.3501Z" fill="#EEB70B"/>
<path d="M47.294 33.292C46.9541 32.7366 46.1608 32.4034 45.7075 32.1813C46.5763 31.9592 47.9739 31.9592 47.9739 32.9588C47.9739 34.1442 47.4073 33.6622 47.294 33.292Z" fill="#F6EFD5" stroke="#DAEDE7" stroke-width="1.43796"/>
<path d="M58.2867 33.9294C57.6821 33.3866 56.3793 33.4771 55.8035 33.5901L56.7752 33.7032C57.0991 34.2686 58.0492 35.2862 59.2584 34.8339C60.0358 34.1103 59.6543 33.854 59.3664 33.8163C59.2584 33.9293 58.8914 34.1103 58.2867 33.9294Z" fill="#F6EFD5" stroke="#EAE5DF" stroke-width="1.43796"/>
<path d="M68.1591 35.0627C68.2456 34.4803 66.8261 33.9186 66.1055 33.7106C68.786 33.877 68.9518 34.612 68.6996 34.9587C68.4834 35.2361 68.0727 35.6452 68.1591 35.0627Z" fill="#F6EFD5" stroke="#EAD8E0" stroke-width="1.43796"/>
<path d="M76.2014 33.2982C76.9571 34.1914 78.5364 35.8846 78.8084 35.5118C79.8965 34.5798 77.5238 33.6477 76.2014 33.2982Z" fill="#F6EFD5" stroke="#F6EFD5" stroke-width="1.43796"/>
<path d="M52.6439 30.4138C50.0105 31.1985 50.06 32.8478 50.414 33.5743C50.5839 33.8359 51.1219 33.6833 51.3697 33.5743C51.8652 34.0829 52.9412 35.013 53.281 34.6642C53.6208 34.3154 52.1483 33.2111 51.3697 32.7025C51.1219 32.5571 51.0299 31.896 52.6439 30.4138Z" fill="#98372C" stroke="#98372C" stroke-width="1.43796"/>
<path d="M72.841 31.9594C72.2476 33.0277 73.6534 33.5915 74.4305 33.7398C74.2186 35.2977 78.4574 36.9669 77.5036 36.5218C76.7407 36.1657 75.7728 34.222 75.3843 33.2947C75.3136 32.8496 75.1511 31.9594 75.0664 31.9594C74.9604 31.9594 74.8544 32.4045 74.4305 32.8496C74.0067 33.2947 73.7947 31.403 72.841 31.9594Z" fill="#98372C" stroke="#98372C" stroke-width="1.43796"/>
<path d="M83.7762 35.9563C83.6187 36.0967 83.5047 35.4707 83.4478 34.971C83.4266 34.7852 83.3584 34.6073 83.2429 34.4602L83.1538 34.3467C82.852 33.9624 82.9504 33.4012 83.365 33.1424C83.6187 32.9841 83.9397 32.9743 84.194 33.1317C84.4833 33.3107 84.7833 33.5167 84.8451 33.6269C84.8549 33.6444 84.8572 33.6664 84.8531 33.6923C84.7239 34.5172 84.3995 35.4006 83.7762 35.9563Z" fill="#98372C" stroke="#98372C" stroke-width="1.43796"/>
<path d="M42.6878 49.8929C44.0938 49.6294 45.1614 50.8077 45.5194 51.4297L88.4817 51.2102L90.8251 50.6613C93.4028 51.276 93.852 49.7465 93.7543 48.9049C94.0316 48.5648 94.0306 48.1852 94.0237 47.8072H93.6516L92.4799 48.9049L90.7224 48.5756L90.3318 47.0388H86.8167L85.7427 44.953C84.9941 44.5871 83.6336 44.0748 84.1804 44.953C84.7272 45.8312 83.9526 47.5144 83.4969 48.2463C82.8134 48.9415 80.9387 50.0905 78.9078 49.1245C78.361 47.2802 77.2479 47.4778 76.7596 47.8072C76.662 48.3926 75.9785 49.4758 74.0257 49.1245C72.7759 49.827 73.1794 46.7826 73.5375 45.1726C73.5049 44.5871 72.9711 43.7236 71.0964 44.953C70.1591 47.8511 67.5813 48.0633 66.4096 47.8072C65.9865 47.551 65.2184 46.8631 65.5309 46.1605C65.8433 45.458 64.8799 45.2092 64.3592 45.1726C63.3827 45.3189 61.1175 45.8971 59.8676 47.0388C58.6178 48.1804 57.3941 47.5144 56.9384 47.0388C56.7106 46.5631 56.001 45.5239 54.9856 45.1726C53.9701 44.8213 53.6511 46.2703 53.6186 47.0388C52.8049 47.3681 51.1775 47.6535 51.1775 46.1605C51.49 44.1407 50.2011 43.9285 49.5176 44.0748C48.9318 44.5871 47.5843 45.48 46.8813 44.953C46.3345 43.6357 45.6771 43.3796 45.4167 43.4162L42.9757 45.6117C40.6323 46.8412 39.6558 45.8312 39.4606 45.1726C39.3629 45.2458 39.1727 45.5458 38.7821 46.1605C38.3915 46.7753 39.5307 48.3926 40.1491 49.1244C40.4095 49.4904 41.2817 50.1563 42.6878 49.8929Z" fill="#B04C0F"/>
<path d="M39.6558 43.4162L39.4606 45.1726C39.6558 45.8312 40.6323 46.8412 42.9757 45.6117L45.4167 43.4162C45.6771 43.3796 46.3345 43.6357 46.8813 44.953C47.5843 45.48 48.9318 44.5871 49.5176 44.0748C50.2011 43.9285 51.49 44.1407 51.1775 46.1605C51.1775 47.6535 52.8049 47.3681 53.6186 47.0388C53.6511 46.2703 53.9701 44.8213 54.9856 45.1726C56.001 45.5239 56.7106 46.5631 56.9384 47.0388C57.3941 47.5144 58.6178 48.1804 59.8676 47.0388C61.1175 45.8971 63.3827 45.3189 64.3592 45.1726C64.8799 45.2092 65.8433 45.458 65.5309 46.1605C65.2184 46.8631 65.9865 47.551 66.4096 47.8072C67.5813 48.0633 70.1591 47.8511 71.0964 44.953C72.9711 43.7236 73.5049 44.5871 73.5375 45.1726C73.1794 46.7826 72.7759 49.827 74.0257 49.1245C75.9785 49.4758 76.662 48.3926 76.7596 47.8072C77.2479 47.4778 78.361 47.2802 78.9078 49.1245C80.9387 50.0905 82.8134 48.9415 83.4969 48.2463C83.9526 47.5144 84.7272 45.8312 84.1804 44.953C83.6336 44.0748 84.9941 44.5871 85.7427 44.953L86.8167 47.0388H90.3318L90.7224 48.5756L92.4799 48.9049L93.6516 47.8072H94.0237C94.0092 47.0138 93.5161 46.2278 93.1634 45.8312C93.1634 44.5139 91.5361 44.2578 90.7224 44.2944C90.1756 43.1527 88.5417 43.0137 87.7931 43.0869L86.6214 41.6598C86.2309 41.8793 84.9615 42.0111 83.0087 40.7816C82.6963 39.2008 81.0559 39.1716 80.2747 39.3545C79.6498 38.3007 78.387 38.9154 77.8337 39.3545C77.6775 38.2129 75.946 38.3666 75.0997 38.5861C74.3511 39.0984 72.5806 40.1669 71.487 40.3425C70.3934 40.5181 68.753 40.0498 68.0695 39.7936C66.7677 40.0132 63.6757 40.2327 61.7228 39.3545C59.5357 39.7058 58.403 38.9886 58.1101 38.5861L52.6422 38.0372L50.3964 38.2568L48.4436 38.5861C47.8968 38.5861 47.3044 39.3911 47.0766 39.7936H45.9049L43.3662 41.8793C41.5696 41.2646 40.8601 42.1355 40.7299 42.6478C39.8706 42.9112 39.6558 43.2698 39.6558 43.4162Z" fill="#EEB70B"/>
<path d="M49.8903 41.7395C49.6122 41.1841 48.9632 40.8509 48.5923 40.6288C49.3031 40.4066 50.4466 40.4066 50.4466 41.4063C50.4466 42.5917 49.983 42.1097 49.8903 41.7395Z" fill="#F6EFD5" stroke="#DAEDE7" stroke-width="1.43796"/>
<path d="M59.674 42.3768C59.133 41.8341 57.9674 41.9245 57.4521 42.0376L58.3216 42.1507C58.6114 42.716 59.4615 43.7337 60.5434 43.2814C61.239 42.5577 60.8977 42.3014 60.64 42.2638C60.5434 42.3768 60.215 42.5577 59.674 42.3768Z" fill="#F6EFD5" stroke="#EAE5DF" stroke-width="1.43796"/>
<path d="M68.6193 43.5101C68.6991 42.9277 67.3888 42.366 66.7236 42.158C69.198 42.3244 69.351 43.0594 69.1182 43.4061C68.9186 43.6835 68.5395 44.0926 68.6193 43.5101Z" fill="#F6EFD5" stroke="#EAD8E0" stroke-width="1.43796"/>
<path d="M75.7896 41.7456C76.4912 42.6388 77.9577 44.3321 78.2103 43.9592C79.2207 43.0272 77.0175 42.0951 75.7896 41.7456Z" fill="#F6EFD5" stroke="#F6EFD5" stroke-width="1.43796"/>
<path d="M54.75 38.8612C52.2922 39.6459 52.3384 41.2952 52.6688 42.0218C52.8274 42.2834 53.3295 42.1308 53.5607 42.0218C54.0232 42.5304 55.0275 43.4604 55.3446 43.1117C55.6618 42.7629 54.2875 41.6585 53.5607 41.1499C53.3295 41.0046 53.2436 40.3434 54.75 38.8612Z" fill="#98372C" stroke="#98372C" stroke-width="1.43796"/>
<path d="M72.8291 40.4068C72.2852 41.4751 73.5739 42.0389 74.2862 42.1873C74.0919 43.7451 77.9775 45.4143 77.1032 44.9692C76.4038 44.6131 75.5166 42.6695 75.1605 41.7422C75.0957 41.297 74.9468 40.4068 74.8691 40.4068C74.7719 40.4068 74.6748 40.8519 74.2862 41.297C73.8977 41.7422 73.7034 39.8504 72.8291 40.4068Z" fill="#98372C" stroke="#98372C" stroke-width="1.43796"/>
<path d="M82.638 44.4042C82.4943 44.5451 82.3904 43.914 82.3388 43.4134C82.32 43.2306 82.2576 43.0545 82.1508 42.9049L82.023 42.7258C81.7678 42.3682 81.8556 41.8708 82.2178 41.6221C82.4734 41.4467 82.8099 41.4358 83.065 41.6119C83.3126 41.7829 83.5568 41.9711 83.6097 42.0748C83.6133 42.0819 83.6158 42.0897 83.6172 42.0982C83.7566 42.9216 83.2343 43.8194 82.638 44.4042Z" fill="#98372C" stroke="#98372C" stroke-width="1.43796"/>
<path d="M42.3481 47.8517C41.6064 48.099 40.8028 47.2679 40.4938 46.8215C39.9993 47.3984 40.9058 48.1608 41.4209 48.4698C41.0089 49.7885 42.9662 50.9423 43.9964 51.3544C43.9964 52.0137 45.0953 52.3846 45.6447 52.4876C46.1942 52.2129 47.3548 51.787 47.6021 52.2815C47.8493 52.776 48.9413 52.831 49.4564 52.7966L50.6927 52.0755H52.341L53.4742 51.3544C53.9893 51.5947 55.1637 52.0549 55.7406 51.9725C56.3175 51.8901 57.7323 51.9038 58.2131 51.3544C58.4191 51.6978 58.7488 51.1689 59.6553 50.8393C60.4795 51.7664 62.0248 52.0755 62.5 51.7664L63.158 51.0453C63.5701 51.7046 65.7279 51.4574 66.8268 51.3544C67.6166 51.8351 69.5658 52.2403 71.7086 51.2513C72.3679 51.2513 72.8761 51.9381 73.0478 52.2815C73.769 52.728 75.5203 53.3941 76.7565 52.4876C77.251 52.8172 79.0916 53.037 79.9501 53.1057L82.8347 51.7664C83.4528 51.9381 84.8538 52.2403 85.5132 52.0755C86.1725 51.9107 86.7494 51.1827 86.9554 50.8393H89.84C91.0762 50.1799 91.7973 48.6415 92.0034 47.9547L90.149 48.1608L89.0158 47.6457C88.8785 47.6457 88.3359 47.8723 87.2645 48.7789C86.6876 48.6141 86.2 48.2981 86.0283 48.1608C85.6849 47.8174 84.5654 47.5633 82.8347 49.294C82.0105 49.8709 81.3924 49.3283 81.1864 48.9849C80.9803 48.4698 80.3622 47.4808 79.538 47.6457C78.7139 47.8105 78.6452 49.0193 78.7139 49.603C78.6452 50.0495 78.343 50.8805 77.6837 50.6332C77.0244 50.386 76.5848 49.8434 76.4475 49.603C76.0697 49.397 75.1288 49.1086 74.3871 49.603C73.2539 49.7061 73.0478 49.294 72.8418 48.9849C72.6358 48.6759 72.5327 47.3366 71.5026 47.9547C70.9256 48.6141 70.3007 48.3668 70.0603 48.1608C69.9916 47.8861 69.6482 47.2954 68.824 47.1306C67.9999 46.9657 67.7939 48.2981 67.7939 48.9849C66.0631 47.2542 63.9821 46.8902 63.158 46.9245C63.0756 44.6169 62.0935 44.3147 61.6127 44.4521C61.2693 44.5894 60.5619 45.2762 60.4795 46.9245C59.5729 48.2432 58.5908 48.2981 58.2131 48.1608C57.8697 47.9891 57.1005 47.6457 56.7708 47.6457C56.4411 47.6457 55.1912 48.5385 54.6074 48.9849C53.9893 49.2596 52.65 49.5824 52.238 48.6759C52.5676 47.5221 51.8946 47.3023 51.5168 47.3366C51.1391 47.3023 50.3836 47.6457 50.3836 49.294C49.6419 50.4478 48.5636 49.9121 48.1172 49.5C48.0142 48.9506 47.7051 47.9753 47.293 48.4698C46.881 48.9643 47.4647 49.5687 47.8081 49.8091C47.7394 50.3242 47.3548 51.272 46.3659 50.9423C45.1296 50.5302 46.1598 50.0151 45.3357 49.8091C44.6763 49.6443 43.9621 49.7404 43.6874 49.8091C43.7217 49.1566 43.5019 47.8517 42.3481 47.8517Z" fill="#B04C0F"/>
<path d="M40.4938 46.8215C40.8028 47.2679 41.6064 48.099 42.3481 47.8517C43.5019 47.8517 43.7217 49.1566 43.6874 49.8091C43.9621 49.7404 44.6763 49.6443 45.3357 49.8091C46.1598 50.0151 45.1296 50.5302 46.3659 50.9423C47.3548 51.272 47.7394 50.3242 47.8081 49.8091C47.4647 49.5687 46.881 48.9643 47.293 48.4698C47.7051 47.9753 48.0142 48.9506 48.1172 49.5C48.5636 49.9121 49.6419 50.4478 50.3836 49.294C50.3836 47.6457 51.1391 47.3023 51.5168 47.3366C51.8946 47.3023 52.5676 47.5221 52.238 48.6759C52.65 49.5824 53.9893 49.2596 54.6074 48.9849C55.1912 48.5385 56.4411 47.6457 56.7708 47.6457C57.1005 47.6457 57.8697 47.9891 58.2131 48.1608C58.5908 48.2981 59.5729 48.2432 60.4795 46.9245C60.5619 45.2762 61.2693 44.5894 61.6127 44.4521C62.0935 44.3147 63.0756 44.6169 63.158 46.9245C63.9821 46.8902 66.0631 47.2542 67.7939 48.9849C67.7939 48.2981 67.9999 46.9657 68.824 47.1306C69.6482 47.2954 69.9916 47.8861 70.0603 48.1608C70.3007 48.3668 70.9256 48.6141 71.5025 47.9547C72.5327 47.3366 72.6358 48.6759 72.8418 48.9849C73.0478 49.294 73.2539 49.7061 74.3871 49.603C75.1288 49.1086 76.0697 49.397 76.4475 49.603C76.5848 49.8434 77.0244 50.386 77.6837 50.6332C78.343 50.8805 78.6452 50.0495 78.7139 49.603C78.6452 49.0193 78.7139 47.8105 79.538 47.6457C80.3622 47.4808 80.9803 48.4698 81.1864 48.9849C81.3924 49.3283 82.0105 49.8709 82.8347 49.294C84.5654 47.5633 85.6849 47.8174 86.0283 48.1608C86.2 48.2981 86.6876 48.6141 87.2645 48.7789C88.3359 47.8723 88.8785 47.6457 89.0158 47.6457L90.149 48.1608L92.0034 47.9547C91.7973 48.6415 91.0762 50.1799 89.84 50.8393H86.9554C86.7494 51.1827 86.1725 51.9107 85.5132 52.0755C84.8538 52.2403 83.4528 51.9381 82.8347 51.7664L79.9501 53.1057C79.0916 53.037 77.251 52.8172 76.7565 52.4876C75.5203 53.3941 73.769 52.728 73.0478 52.2815C72.8761 51.9381 72.3679 51.2513 71.7086 51.2513C69.5658 52.2403 67.6166 51.8351 66.8268 51.3544C65.7279 51.4574 63.5701 51.7046 63.158 51.0453L62.5 51.7664C62.0248 52.0755 60.4795 51.7664 59.6553 50.8393C58.7488 51.1689 58.4191 51.6978 58.2131 51.3544C57.7323 51.9038 56.3175 51.8901 55.7406 51.9725C55.1637 52.0549 53.9893 51.5947 53.4742 51.3544L52.341 52.0755H50.6927L49.4564 52.7966C48.9413 52.831 47.8493 52.776 47.6021 52.2815C47.3548 51.787 46.1942 52.2129 45.6447 52.4876C45.0953 52.3846 43.9964 52.0137 43.9964 51.3544C42.9662 50.9423 41.0089 49.7885 41.4209 48.4698C40.9058 48.1608 39.9993 47.3984 40.4938 46.8215ZM40.4938 46.8215C40.5968 46.6155 40.9264 46.2652 41.4209 46.5125" stroke="#B74124" stroke-width="1.43796"/>
</svg>
