<svg width="126" height="80" viewBox="0 0 126 80" fill="none" xmlns="http://www.w3.org/2000/svg">
<path d="M14.257 16.1323C6.7999 22.0511 -4.35712 38.5854 10.6719 57.3728C16.9313 63.6793 30.5448 72.3804 49.2994 75.3307C48.8658 74.9461 48.493 74.492 48.2444 74.1267C47.5957 73.5715 47.1857 73.0577 46.9584 72.5867C43.7063 72.6704 36.7432 71.9215 34.9076 68.2557C33.072 64.5898 31.7526 63.0051 31.3224 62.671C30.0795 61.8118 27.5365 59.6353 27.307 57.8024C27.0776 55.9694 24.5345 53.994 23.2916 53.2354C16.2934 49.0091 17.489 41.3451 18.9616 38.0413C19.0763 37.6017 19.2204 37.1716 19.3891 36.7526C20.2549 34.6021 21.7693 32.745 23.2916 31.4127C22.957 30.3765 22.9761 28.2181 25.7295 27.8744C26.351 27.7789 27.6799 27.3589 28.024 26.4424C28.4543 25.4401 29.9744 23.5785 32.613 24.1513C33.2791 24.2959 33.8495 24.3827 34.3339 24.4278C32.1541 22.8161 32.9477 19.6579 33.6169 18.2803C33.4888 17.9714 33.3412 17.5443 33.2527 17.1347C33.1099 16.4739 33.1211 15.8587 33.6169 15.8587C34.42 15.8587 34.4295 14.4182 34.3339 13.698C34.2861 13.0298 34.5347 11.6646 35.9114 11.5501C37.2881 11.4355 37.5367 9.97491 37.4889 9.25893C38.1772 6.28046 41.313 6.39501 42.7949 6.8246C43.3685 7.44512 45.0588 8.45703 47.231 7.54058C49.4031 6.62413 53.9743 8.85189 55.9883 10.0803C56.6858 9.40033 57.6203 8.73051 58.8564 8.11336C59.6691 7.92244 62.0687 7.76969 65.1663 8.68615C65.9029 8.60969 66.8728 8.6323 67.891 8.84628C70.309 9.35439 72.9994 10.9416 73.4839 14.8436L73.5652 15.8587L74.0575 22.0034C74.8606 21.5451 75.3482 19.8077 75.4916 18.9963C75.3769 15.7887 77.8339 14.8913 79.0767 14.8436C79.507 15.13 80.855 15.3018 82.8053 13.698C84.7556 12.0942 87.2509 13.5071 88.2548 14.414C88.9013 14.9128 89.8477 15.924 90.241 17.1347C90.4875 17.8934 90.5168 18.7305 90.119 19.569C89.0865 21.7456 87.7767 20.8578 87.2509 20.1418C87.0597 19.569 86.3044 18.4808 84.813 18.7099C83.3216 18.939 83.3311 21.001 83.5223 22.0034C83.6096 22.0905 83.7055 22.1816 83.8092 22.2751C85.1821 23.514 87.9121 25.1763 89.8322 23.5785C91.8973 21.8602 92.3179 23.9127 92.2701 25.1537C91.8112 26.872 92.9394 28.0653 93.5608 28.4472C94.6082 28.6954 96.092 29.0199 97.6142 29.3064C98.4232 29.4586 99.2431 29.6002 100.014 29.7138C101.698 29.9619 103.149 30.0768 103.743 29.8791C105.464 29.3064 109.336 33.1727 107.471 34.7478C107.328 36.0843 107.385 38.8719 108.762 39.3301C110.483 39.9029 109.705 46.6365 107.471 46.7064C107.665 46.7439 107.857 46.78 108.045 46.8146C108.976 46.9853 109.829 47.118 110.483 47.2059C115.072 48.9242 113.351 49.0674 113.064 52.7905C113.047 53.0129 113.005 53.2276 112.942 53.4347C111.674 58.9284 105.492 59.7463 102.452 59.4448C98.9624 61.6658 91.2376 65.9359 88.2548 65.2485C85.2719 64.5612 84.0482 66.2725 83.8092 67.2141C81.5587 68.4682 76.5725 70.6614 74.6311 69.4012C72.6898 68.1411 69.2332 68.3989 67.7476 68.6852C65.1663 71.2301 59.2867 75.9958 56.4185 74.6995C53.5504 73.4031 52.2597 74.8311 51.9729 75.7071C64.4443 77.2587 79.0339 76.2312 95.1383 70.4036C109.67 65.5827 134.374 49.3538 116.936 23.0057C102.548 9.068 61.868 -11.8195 14.257 16.1323Z" fill="#D4CAC0"/>
<path fill-rule="evenodd" clip-rule="evenodd" d="M89.6888 76.1314C102.739 72.3129 128.036 59.0052 124.823 36.3229C123.867 30.1178 116.592 15.4163 95.1383 6.2518C85.1954 2.57644 60.7494 -3.34233 42.5081 2.38551C35.4812 3.67429 18.4445 9.25894 6.51308 21.2874C0.394404 27.9221 -6.88108 45.6021 12.9664 63.2438C23.6263 71.3105 53.8946 85.1814 89.6888 76.1314ZM10.6719 57.3728C-4.35712 38.5854 6.7999 22.0511 14.257 16.1323C61.868 -11.8195 102.548 9.068 116.936 23.0057C134.374 49.3538 109.67 65.5827 95.1383 70.4036C79.0339 76.2312 64.4443 77.2587 51.9729 75.7071C51.1486 76.533 50.1161 76.0551 49.2994 75.3307C30.5448 72.3804 16.9313 63.6793 10.6719 57.3728Z" fill="#CDB0A8"/>
<path d="M49.3916 69.1148C47.5927 68.8582 45.0225 68.2452 42.7949 67.2141C42.7949 68.8932 39.64 68.8284 39.4966 68.2557C39.3818 67.7974 38.7973 67.6829 38.5194 67.6829C37.1243 67.301 34.3626 66.1936 34.4773 64.819C34.5095 64.4339 34.5048 64.0772 34.4773 63.756C34.4066 62.9305 34.1848 62.3388 34.0471 62.0982C31.2937 60.9527 30.8922 55.7124 31.0356 53.2354C19.852 48.4806 17.7394 42.7256 18.9616 38.0413C17.489 41.3451 16.2934 49.0091 23.2916 53.2354C24.5345 53.994 27.0776 55.9694 27.307 57.8024C27.5365 59.6353 30.0795 61.8118 31.3224 62.671C31.7526 63.0051 33.072 64.5898 34.9076 68.2557C36.7432 71.9215 43.7063 72.6704 46.9584 72.5867C46.5353 71.7097 46.746 70.9814 47.231 70.4126C47.7754 69.7741 48.6652 69.3365 49.3916 69.1148Z" fill="#CA9E95"/>
<path d="M70.4724 65.2485L67.7476 68.6852C69.2332 68.3989 72.6898 68.1411 74.6311 69.4012C76.5725 70.6614 81.5587 68.4682 83.8092 67.2141C84.0482 66.2725 85.2719 64.5612 88.2548 65.2485C91.2376 65.9359 98.9624 61.6658 102.452 59.4448C99.335 60.3573 94.811 61.2932 91.9833 61.8118C86.9354 64.5612 82.5185 61.136 80.941 59.0797C80.7349 59.4412 80.4551 59.6639 80.0806 59.6639C78.2163 59.6639 79.507 61.3823 80.0806 61.3823C80.6542 61.3823 83.2355 62.671 81.3712 65.2485C80.7189 66.1505 79.5216 66.5322 78.2163 66.5575C75.7912 66.6044 72.9931 65.4206 72.6235 64.0553C71.9351 64.6342 71.114 65.035 70.4724 65.2485Z" fill="#CA9E95"/>
<path d="M105.894 57.8024C105.939 58.2565 104.499 58.8456 102.452 59.4448C105.492 59.7463 111.674 58.9284 112.942 53.4347C112.154 56.0019 108.017 57.4048 105.894 57.8024Z" fill="#CA9E95"/>
<path d="M29.1713 48.2082C24.9265 47.5209 20.8812 40.2847 19.3891 36.7526C19.2204 37.1716 19.0763 37.6017 18.9616 38.0413C17.7394 42.7256 19.852 48.4806 31.0356 53.2354C31.3624 53.3744 31.697 53.5125 32.0394 53.6497C32.4917 53.6876 32.9723 53.713 33.4735 53.7231C37.9704 53.814 44.1272 52.6739 46.3801 48.2845C46.619 47.8191 46.8139 47.3172 46.9584 46.7763C47.1968 45.8836 47.2976 44.8848 47.231 43.7692C46.7645 45.9457 43.9532 46.9672 42.6058 47.2059C42.0405 48.7787 40.6043 50.1295 37.4889 49.9266C35.1944 50.3084 29.7736 48.9815 26.4466 40.6188C25.9877 43.0245 28.0718 46.6808 29.1713 48.2082Z" fill="#E9CEAA"/>
<path d="M19.3891 36.7526C20.8812 40.2847 24.9265 47.5209 29.1713 48.2082C28.0718 46.6808 25.9877 43.0245 26.4466 40.6188C26.4944 37.0389 29.286 31.0534 40.0702 35.7502C41.5999 36.323 44.2863 38.7859 42.7949 44.0555C42.9712 44.9159 42.9982 46.1144 42.6058 47.2059C43.9532 46.9672 46.7645 45.9457 47.231 43.7692C47.1736 42.8081 46.9919 41.7603 46.6669 40.6188C46.3745 39.8263 45.967 38.9475 45.4422 38.0413C44.9504 37.1923 44.3554 36.3193 43.6553 35.4708C42.7724 34.4005 41.7221 33.3693 40.5004 32.4742C38.9946 31.3709 37.2285 30.4746 35.1944 29.9672C31.9953 29.1692 28.1332 29.3334 23.5784 31.1679C23.4829 31.2474 23.3873 31.329 23.2916 31.4127C21.7693 32.745 20.2549 34.6021 19.3891 36.7526Z" fill="#F5F1F0"/>
<path fill-rule="evenodd" clip-rule="evenodd" d="M40.0702 35.7502C29.286 31.0534 26.4944 37.0389 26.4466 40.6188C29.7736 48.9815 35.1944 50.3084 37.4889 49.9266C40.6043 50.1295 42.0405 48.7787 42.6058 47.2059C42.9982 46.1144 42.9712 44.9159 42.7949 44.0555C44.2863 38.7859 41.5999 36.323 40.0702 35.7502ZM35.9114 47.2059C27.307 45.3729 28.2153 39.1869 29.7449 36.323C31.0069 34.6046 36.7718 36.2752 39.4966 37.3253C42.8236 37.4399 42.3169 41.8599 41.6477 44.0555C40.9593 46.1176 40.8828 44.9147 40.9306 44.0555C42.1926 41.7644 40.118 40.237 38.9229 39.7597C30.2038 39.0723 33.7603 43.0054 36.6284 45.0579C40.8733 47.9218 37.9191 47.6832 35.9114 47.2059Z" fill="#DD9729"/>
<path d="M29.7449 36.323C28.2153 39.1869 27.307 45.3729 35.9114 47.2059C37.9191 47.6832 40.8733 47.9218 36.6284 45.0579C33.7603 43.0054 30.2038 39.0723 38.9229 39.7597C40.118 40.237 42.1926 41.7644 40.9306 44.0555C40.8828 44.9147 40.9593 46.1176 41.6477 44.0555C42.3169 41.8599 42.8236 37.4399 39.4966 37.3253C36.7718 36.2752 31.0069 34.6046 29.7449 36.323Z" fill="#D6A13B"/>
<path fill-rule="evenodd" clip-rule="evenodd" d="M68.4647 53.6497C67.7954 53.2201 66.6864 51.874 67.6042 49.9266C66.9828 48.5424 65.195 45.9744 63.0152 46.7763C62.6806 46.9195 61.8966 46.9195 61.4377 45.7739C60.9788 44.6283 59.5257 45.1056 58.8564 45.4875C58.01 45.9608 56.4777 46.3815 55.4111 45.4875C55.0777 45.8216 54.038 47.8646 52.5465 53.3633C51.7276 53.7929 49.5179 54.4516 47.231 53.6497C45.4218 53.0153 44.3869 54.9082 43.9151 56.5774C43.891 56.8705 43.8289 57.1661 43.7131 57.4453C43.6903 57.5699 43.6711 57.6894 43.6553 57.8024C43.9422 58.7093 44.5445 60.6949 44.6592 61.3823C42.0301 60.9049 37.4889 60.8667 40.357 64.5326C40.7209 65.212 41.665 66.6358 42.6454 67.144C42.695 67.1676 42.7449 67.1909 42.7949 67.2141C45.0225 68.2452 47.5927 68.8582 49.3916 69.1148C48.6652 69.3365 47.7754 69.7741 47.231 70.4126C48.6682 71.6506 52.0303 73.3248 53.9806 70.1172C54.3152 69.3505 55.5007 68.0766 57.5658 69.1148C59.6308 70.153 63.0152 68.6882 64.4493 67.8261C65.0707 67.301 66.3709 65.2199 66.6004 61.0959C67.3686 59.3298 69.5349 55.9981 72.0549 56.8C71.0779 55.2058 69.7907 53.7194 68.4647 53.6497ZM63.0152 64.103C62.7858 66.3941 59.8603 67.1317 58.4262 67.2141C61.2943 67.5264 62.9674 66.6066 63.4454 66.1077C64.3059 65.1053 65.8547 62.7569 65.1663 61.3823C64.478 60.0076 66.5048 57.2773 67.6042 56.084C67.1453 55.8549 65.7877 57.1341 65.1663 57.8024C62.7284 60.0935 63.302 61.2391 63.0152 64.103ZM57.5658 63.5302C56.5332 57.5732 52.0685 56.5613 49.9652 56.8C53.8659 57.7164 55.8927 61.0959 56.4185 62.671C56.7627 64.3894 57.3268 63.9598 57.5658 63.5302ZM61.4377 51.7881C59.9463 53.5065 58.6174 51.8359 58.1394 50.7858C57.2216 50.7858 57.0878 51.2631 57.1356 51.5017C57.7092 52.2177 59.1146 53.7356 60.1471 54.0793C61.1796 54.4229 60.2905 57.3728 59.7169 58.8047C60.4339 58.2797 61.7819 56.9145 61.4377 55.6544C61.0936 54.3943 63.7801 53.6019 65.1663 53.3633C65.6443 53.6019 66.6004 53.7929 66.6004 52.6473C66.6004 51.5017 65.6443 50.929 65.1663 50.7858C64.478 52.3895 62.3938 52.1223 61.4377 51.7881ZM45.5196 66.5373C46.208 67.5683 48.7702 67.4181 49.9652 67.2141C49.9652 65.6935 47.0015 64.1246 45.5196 63.5302L47.231 65.2485C47.9117 66.6232 46.3737 66.6805 45.5196 66.5373Z" fill="#C8CF47"/>
<path d="M40.357 57.8024C40.3554 56.5613 41.0129 53.7929 43.6553 52.6473C46.2978 51.5017 46.5729 49.2615 46.3801 48.2845C44.1272 52.6739 37.9704 53.814 33.4735 53.7231C31.7526 55.9446 34.3339 57.8024 35.9114 59.0911C37.1734 60.1221 36.4372 61.43 35.9114 61.955C35.5768 62.0028 34.9649 62.1842 35.1944 62.5278C35.4238 62.8715 34.8119 63.4898 34.4773 63.756C34.5048 64.0772 34.5095 64.4339 34.4773 64.819C34.3626 66.1936 37.1243 67.301 38.5194 67.6829C38.7973 67.6829 39.3818 67.7974 39.4966 68.2557C39.64 68.8284 42.7949 68.8932 42.7949 67.2141C42.745 67.1932 42.6952 67.1698 42.6454 67.144C39.9701 65.8738 37.8329 63.9897 38.2059 61.3823C38.225 61.0776 38.3155 60.6105 38.5194 60.0935C38.8268 59.3144 39.3915 58.4221 40.357 57.8024Z" fill="#F1D592"/>
<path d="M54.4108 43.626C53.9328 42.2895 52.6326 40.447 51.2559 43.7692C51.2152 43.8674 51.1738 43.9629 51.1319 44.0555C51.6064 44.2847 51.6035 45.1056 51.5427 45.4875C51.1603 46.3944 50.5675 48.6092 51.2559 50.213C51.9442 51.8168 51.7339 51.9313 51.5427 51.7881C51.8295 52.5041 47.231 53.6497 45.5196 53.3633C44.1505 53.1342 43.7063 54.2225 43.6553 54.7952C43.8181 55.2131 43.9718 55.8885 43.9151 56.5774C44.3869 54.9082 45.4218 53.0153 47.231 53.6497C49.5179 54.4516 51.7276 53.7929 52.5465 53.3633C54.038 47.8646 55.0777 45.8216 55.4111 45.4875C54.9719 45.1193 54.6116 44.5282 54.4108 43.626Z" fill="#F1D592"/>
<path d="M51.9729 75.7071C52.2597 74.8311 53.5504 73.4031 56.4185 74.6995C59.2867 75.9958 65.1663 71.2301 67.7476 68.6852L70.4724 65.2485C71.114 65.035 71.9351 64.6342 72.6235 64.0553C73.7811 63.0815 74.5631 61.6036 73.4839 59.6639C73.1843 58.8974 72.6839 57.8264 72.0549 56.8C69.5349 55.9981 67.3686 59.3298 66.6004 61.0959C66.3709 65.2199 65.0707 67.301 64.4493 67.8261C63.0152 68.6882 59.6308 70.153 57.5658 69.1148C55.5007 68.0766 54.3152 69.3505 53.9806 70.1172C52.0303 73.3248 48.6682 71.6506 47.231 70.4126C46.746 70.9814 46.5353 71.7097 46.9584 72.5867C47.1857 73.0577 47.5957 73.5715 48.2444 74.1267C48.493 74.492 48.8658 74.9461 49.2994 75.3307C50.1793 75.4691 51.0706 75.5948 51.9729 75.7071Z" fill="#F1D592"/>
<path d="M46.6669 40.6188C46.9919 41.7603 47.1736 42.8081 47.231 43.7692C47.2976 44.8848 47.1968 45.8836 46.9584 46.7763C47.7919 47.1468 49.7582 47.0949 51.1319 44.0555C51.1738 43.9629 51.2152 43.8674 51.2559 43.7692C52.6326 40.447 53.9328 42.2895 54.4108 43.626C54.6116 44.5282 54.9719 45.1193 55.4111 45.4875C56.4777 46.3815 58.01 45.9608 58.8564 45.4875C59.5257 45.1056 60.9788 44.6283 61.4377 45.7739C61.8966 46.9195 62.6806 46.9195 63.0152 46.7763C65.195 45.9744 66.9828 48.5424 67.6042 49.9266C66.6864 51.874 67.7954 53.2201 68.4647 53.6497C69.7907 53.7194 71.0779 55.2058 72.0549 56.8C72.6839 57.8264 73.1843 58.8974 73.4839 59.6639C74.5631 61.6036 73.7811 63.0815 72.6235 64.0553C72.9931 65.4206 75.7912 66.6044 78.2163 66.5575C78.2641 66.1371 78.1876 65.1721 77.4993 64.6758C76.6388 64.0553 74.4877 63.387 77.4993 62.671C79.9085 62.0982 78.9811 61.3823 78.2163 61.0959C77.9773 59.998 77.8434 57.8024 79.2202 57.8024C79.4114 57.7069 79.4783 57.2296 78.2163 56.084C76.9543 54.9384 77.6905 53.0292 78.2163 52.2177C77.9773 51.5972 77.7574 50.2702 78.7899 49.9266C77.9295 49.3538 76.4094 48.065 77.2125 47.4922C76.4459 46.7285 74.6271 45.6021 73.4839 47.2059C72.7191 49.2106 71.0747 52.0459 70.6158 47.3491C69.9465 46.2512 68.2926 44.0555 67.0306 44.0555C65.7686 44.0555 62.4894 42.1463 61.0075 41.1916C60.0993 39.6642 57.6805 37.0103 55.2713 38.6141C54.2674 39.6165 51.9156 40.9052 50.5389 38.0413C49.4356 37.3253 46.8716 36.323 45.4422 38.0413C45.967 38.9475 46.3745 39.8263 46.6669 40.6188Z" fill="#BB5C08"/>
<path d="M50.5389 35.7502C47.9002 33.9173 44.8504 34.8002 43.6553 35.4708C44.3554 36.3193 44.9504 37.1923 45.4422 38.0413C46.8716 36.323 49.4356 37.3253 50.5389 38.0413C51.9156 40.9052 54.2674 39.6165 55.2713 38.6141C57.6805 37.0103 60.0993 39.6642 61.0075 41.1916C62.4894 42.1463 65.7686 44.0555 67.0306 44.0555C68.2926 44.0555 69.9465 46.2512 70.6158 47.3491C71.0747 52.0459 72.7191 49.2106 73.4839 47.2059C74.6271 45.6021 76.4459 46.7285 77.2125 47.4922C76.4094 48.065 77.9295 49.3538 78.7899 49.9266C77.7574 50.2702 77.9773 51.5972 78.2163 52.2177C77.6905 53.0292 76.9543 54.9384 78.2163 56.084C79.4783 57.2296 79.4114 57.7069 79.2202 57.8024C77.8434 57.8024 77.9773 59.998 78.2163 61.0959C78.9811 61.3823 79.9085 62.0982 77.4993 62.671C74.4877 63.387 76.6388 64.0553 77.4993 64.6758C78.1876 65.1721 78.2641 66.1371 78.2163 66.5575C79.5216 66.5322 80.7189 66.1505 81.3712 65.2485C83.2355 62.671 80.6542 61.3823 80.0806 61.3823C79.507 61.3823 78.2163 59.6639 80.0806 59.6639C80.4551 59.6639 80.7349 59.4412 80.941 59.0797C81.5558 58.0015 81.5144 55.6883 81.3712 54.3657C82.4038 54.2511 83.4267 52.886 83.8092 52.2177C83.5701 51.9791 83.4363 51.3585 84.813 50.7858C85.1945 50.627 85.4674 50.428 85.6584 50.213C86.1568 49.6522 86.0985 48.9829 85.9603 48.6378C85.6534 48.285 85.3521 47.9512 85.0568 47.6354C81.7083 44.0548 79.1388 42.799 78.2163 42.6236C77.6427 42.9577 76.2086 43.4255 75.0614 42.6236C73.9141 41.8217 72.9581 42.2895 72.6235 42.6236C72.722 43.3121 71.418 43.0646 70.4724 42.7694C70.3166 42.7208 70.1706 42.6708 70.0421 42.6236C68.8949 41.0484 66.3136 37.9268 65.1663 38.0413C64.0191 38.1559 61.9158 36.9435 61.0075 36.323C58.5983 34.6046 56.6575 35.607 55.9883 36.323C55.2713 36.8957 53.1775 37.5831 50.5389 35.7502Z" fill="#B54616"/>
<path d="M84.813 50.7858C83.4363 51.3585 83.5701 51.9791 83.8092 52.2177C83.4267 52.886 82.4038 54.2511 81.3712 54.3657C81.5144 55.6883 81.5558 58.0015 80.941 59.0797C82.5185 61.136 86.9354 64.5612 91.9833 61.8118C94.811 61.2932 99.335 60.3573 102.452 59.4448C104.499 58.8456 105.939 58.2565 105.894 57.8024C108.017 57.4048 112.154 56.0019 112.942 53.4347C112.99 53.2267 113.031 53.0121 113.064 52.7905C113.351 49.0674 115.072 48.9242 110.483 47.2059C109.829 47.118 108.976 46.9853 108.045 46.8146C111.142 48.3344 110.196 49.3316 109.336 49.6402C107.567 49.497 103.714 49.7547 102.452 51.9313C101.19 54.1079 97.5128 54.652 95.8319 54.652C95.2692 55.7026 93.3026 56.1909 91.9833 55.2248C89.8322 53.6497 86.8207 57.8024 86.2471 58.3751C85.6734 58.9479 80.7976 56.8 84.5262 54.652C87.509 52.9337 86.5239 50.9767 85.6584 50.213C85.4674 50.428 85.1945 50.627 84.813 50.7858Z" fill="#D6B053"/>
<path d="M93.274 50.213C92.1267 50.9003 93.752 51.8359 94.708 52.2177C95.9835 53.1037 96.1868 53.9896 95.8319 54.652C97.5128 54.652 101.19 54.1079 102.452 51.9313C103.714 49.7547 107.567 49.497 109.336 49.6402C110.196 49.3316 111.142 48.3344 108.045 46.8146C107.857 46.78 107.665 46.7439 107.471 46.7064C106.625 46.5423 105.737 46.3496 104.89 46.1329C105.53 46.3056 105.157 47.302 104.89 47.7786C104.077 47.9218 102.223 48.1223 101.305 47.7786C100.387 47.435 98.1498 48.3992 97.146 48.9242C95.2817 49.2106 94.708 48.3514 96.1421 46.8146C97.2894 45.5851 97.2894 44.2914 97.146 43.7983C95.4367 43.7855 93.6251 44.0011 92.5022 44.1987C91.4882 44.9334 90.5214 45.6664 89.8322 46.2035C90.0617 47.0054 90.5971 47.5877 90.8361 47.7786C93.0159 48.9242 93.3696 49.8788 93.274 50.213Z" fill="#E1C79C"/>
<path d="M85.9603 48.6378C86.0985 48.9829 86.1568 49.6522 85.6584 50.213C86.5239 50.9767 87.509 52.9337 84.5262 54.652C80.7976 56.8 85.6734 58.9479 86.2471 58.3751C86.8207 57.8024 89.8322 53.6497 91.9833 55.2248C93.3026 56.1909 95.2692 55.7026 95.8319 54.652C96.1868 53.9896 95.9835 53.1037 94.708 52.2177C93.752 51.8359 92.1267 50.9003 93.274 50.213C93.3696 49.8788 93.0159 48.9242 90.8361 47.7786C90.5971 47.5877 90.0617 47.0054 89.8322 46.2035C89.0387 46.9195 86.9728 48.2082 85.0568 47.6354C85.3521 47.9512 85.6534 48.285 85.9603 48.6378Z" fill="#BB5C08"/>
<path d="M102.022 45.1975C101.612 45.0155 101.269 44.8253 101.018 44.6283C100.243 44.0204 98.739 43.8102 97.146 43.7983C97.2894 44.2914 97.2894 45.5851 96.1421 46.8146C94.708 48.3514 95.2817 49.2106 97.146 48.9242C98.1498 48.3992 100.387 47.435 101.305 47.7786C102.223 48.1223 104.077 47.9218 104.89 47.7786C105.157 47.302 105.53 46.3056 104.89 46.1329C103.81 45.8568 102.797 45.5418 102.022 45.1975Z" fill="#BB5C08"/>
<path d="M70.4724 32.1703C70.9673 33.1907 71.5904 35.363 71.471 38.0413C73.2892 38.1368 76.9543 37.7549 77.0691 35.4638C77.0629 35.3779 77.0588 35.2811 77.0578 35.1774C77.051 34.4742 77.1862 33.459 77.7861 33.459C78.3045 33.459 78.8229 32.4195 78.7768 31.3111C78.7463 30.5798 78.4701 29.8187 77.7861 29.3064C77.2168 29.7198 76.2552 30.2451 75.2048 30.7343C73.3446 31.6005 71.2056 32.3533 70.4724 32.1703Z" fill="#BB5C08"/>
<path d="M59.4301 25.0105C59.0476 24.2945 58.082 22.8912 57.279 23.0057C56.854 23.0664 55.7093 23.358 54.4108 23.5981C52.6422 23.9251 50.5881 24.1565 49.6784 23.5785C48.1009 22.5762 42.1052 21.1442 39.5819 25.0105C40.1068 25.4559 40.587 26.1002 40.9306 27.0152C41.2445 27.851 41.3808 28.6207 41.4024 29.3064C41.8665 30.261 43.5119 31.5975 46.3801 29.3064C49.2482 27.0152 52.2597 29.4018 53.407 30.8815C54.6498 32.1226 57.1356 33.86 57.1356 30.8815C57.1356 27.903 59.4301 27.8136 60.5773 28.1412C59.8317 27.5413 59.2293 26.547 59.4301 25.0105Z" fill="#E1C79C"/>
<path d="M77.7861 33.459C77.1862 33.459 77.051 34.4742 77.0578 35.1774C78.1132 34.5569 80.6829 33.9459 82.5185 36.4662C84.3541 38.9864 87.1075 39.8074 88.2548 39.9029C88.7328 39.8551 89.9183 39.5592 90.8361 38.7573C91.9833 37.7549 91.4097 35.7502 89.2586 35.1774C87.1075 34.6046 86.3045 34.4614 85.0568 32.8863C83.8092 31.3111 79.7674 30.4519 78.7768 31.3111C78.8229 32.4195 78.3045 33.459 77.7861 33.459Z" fill="#E1C79C"/>
<path d="M106.324 38.3277C106.085 37.6595 105.98 36.0079 107.471 34.7478C109.336 33.1727 105.464 29.3064 103.743 29.8791C103.149 30.0768 101.698 29.9619 100.014 29.7138C99.7737 30.302 99.1682 31.3129 98.2932 31.8356C101.974 32.329 108.446 34.0891 104.89 37.1821C104.125 37.5163 102.71 38.5282 103.169 39.9029C103.66 41.3725 104.255 43.5581 103.789 44.2569C105.54 43.0674 107.254 41.0303 106.324 38.3277Z" fill="#E1C79C"/>
<path d="M42.5081 13.698C40.7872 17.5643 41.6477 15.4164 38.9229 16.7051C37.0096 17.6101 35.8403 21.2443 35.3567 23.5785C36.7366 22.0511 40.0989 19.2254 42.5081 20.1418C43.0339 20.1896 43.9995 19.97 43.6553 18.7099C43.2251 17.1347 42.7834 13.8412 45.4422 16.7051C48.1009 19.569 48.5312 20.285 48.5312 18.7099C48.1423 17.2779 47.7412 14.8722 49.2482 16.7051C50.7552 18.538 51.4058 17.7552 51.5427 17.1347C51.5905 15.9891 51.8582 13.698 52.5465 13.698C53.2349 13.698 53.3114 11.1259 53.2636 9.83986C52.4779 9.73021 51.7075 9.90175 51.2559 10.6909C50.3381 12.2947 48.1902 11.3591 47.231 10.6909C46.2303 10.4045 43.8848 10.605 42.5081 13.698Z" fill="#E1C79C"/>
<path d="M73.4839 14.8436C73.2449 15.3686 72.3366 15.8746 70.6158 13.698C68.8949 11.5214 65.3097 12.7911 63.7323 13.698C62.0782 14.6388 58.6235 16.1203 55.9883 15.8587C55.8449 18.2888 56.2178 22.3184 58.8564 18.9963C61.4951 15.6741 69.7617 15.5203 73.5652 15.8587L73.4839 14.8436Z" fill="#E1C79C"/>
<path d="M72.6235 42.6236C72.9581 42.2895 73.9141 41.8217 75.0614 42.6236C76.2086 43.4255 77.6427 42.9577 78.2163 42.6236C79.1388 42.799 81.7083 44.0548 85.0568 47.6354C86.9728 48.2082 89.0387 46.9195 89.8322 46.2035C90.5214 45.6664 91.4882 44.9334 92.5022 44.1987C94.3721 42.844 96.4021 41.4834 97.146 41.3348C98.58 41.0484 102.022 38.9005 99.0102 35.4638C98.5294 35.197 97.5199 34.7633 96.1421 34.3925C95.0547 34.0999 93.7377 33.8465 92.2701 33.7454C88.9431 33.5163 85.2432 31.0724 83.8092 29.8791C83.6726 29.8264 83.5208 29.7707 83.3567 29.7138C82.1927 29.31 80.4109 28.8451 79.0767 28.927C78.558 28.9589 78.1069 29.0734 77.7861 29.3064C78.4701 29.8187 78.7463 30.5798 78.7768 31.3111C79.7674 30.4519 83.8092 31.3111 85.0568 32.8863C86.3045 34.4614 87.1075 34.6046 89.2586 35.1774C91.4097 35.7502 91.9833 37.7549 90.8361 38.7573C89.9183 39.5592 88.7328 39.8551 88.2548 39.9029C87.1075 39.8074 84.3541 38.9864 82.5185 36.4662C80.6829 33.9459 78.1132 34.5569 77.0578 35.1774C77.0588 35.2811 77.0629 35.3779 77.0691 35.4638C76.9543 37.7549 73.2892 38.1368 71.471 38.0413C71.4059 39.5018 71.1201 41.1127 70.4724 42.7694C71.418 43.0646 72.722 43.3121 72.6235 42.6236Z" fill="#D6B053"/>
<path d="M99.0102 35.4638C102.022 38.9005 98.58 41.0484 97.146 41.3348C96.4021 41.4834 94.3721 42.844 92.5022 44.1987C93.6251 44.0011 95.4367 43.7855 97.146 43.7983C98.739 43.8102 100.243 44.0204 101.018 44.6283C101.269 44.8253 101.612 45.0155 102.022 45.1975C102.445 45.0329 102.945 44.7899 103.456 44.4733C103.567 44.4046 103.678 44.3325 103.789 44.2569C104.255 43.5581 103.66 41.3725 103.169 39.9029C102.71 38.5282 104.125 37.5163 104.89 37.1821C108.446 34.0891 101.974 32.329 98.2932 31.8356C97.9503 32.0404 97.5659 32.1703 97.146 32.1703C95.6545 32.1703 95.8553 33.6518 96.1421 34.3925C97.5199 34.7633 98.5294 35.197 99.0102 35.4638Z" fill="#D6B053"/>
<path d="M79.0767 26.4424C79.0767 25.1537 77.7861 24.7241 75.4916 25.1537C74.8553 25.2728 74.3844 25.1276 74.0575 24.8434C72.6808 27.1154 74.2487 29.7173 75.2048 30.7343C76.2552 30.2451 77.2168 29.7198 77.7861 29.3064C78.1069 29.0734 78.558 28.9589 79.0767 28.927C78.3597 27.9749 79.0767 27.7312 79.0767 26.4424Z" fill="#D6B053"/>
<path d="M40.5004 32.4742C41.7221 33.3693 42.7724 34.4005 43.6553 35.4708C44.8504 34.8002 47.9002 33.9173 50.5389 35.7502C53.1775 37.5831 55.2713 36.8957 55.9883 36.323C56.6575 35.607 58.5983 34.6046 61.0075 36.323C61.9158 36.9435 64.0191 38.1559 65.1663 38.0413C66.3136 37.9268 68.8949 41.0484 70.0421 42.6236C70.1706 42.6708 70.3166 42.7208 70.4724 42.7694C71.1201 41.1127 71.4059 39.5018 71.471 38.0413C71.5904 35.363 70.9673 33.1907 70.4724 32.1703C69.3251 31.8839 66.1702 32.7431 65.4531 30.8815C65.2626 30.387 64.9298 30.005 64.5386 29.7138C63.752 29.1279 62.7295 28.9087 62.1548 28.8768C61.7164 28.7972 61.1103 28.57 60.5773 28.1412C59.4301 27.8136 57.1356 27.903 57.1356 30.8815C57.1356 33.86 54.6498 32.1226 53.407 30.8815C52.2597 29.4018 49.2482 27.0152 46.3801 29.3064C43.5119 31.5975 41.8665 30.261 41.4024 29.3064C41.4518 30.8763 40.8997 32.005 40.5004 32.4742Z" fill="#D6B053"/>
<path d="M36.6284 24.1513C37.2982 24.0239 38.5297 24.1175 39.5819 25.0105C42.1052 21.1442 48.1009 22.5762 49.6784 23.5785C50.5881 24.1565 52.6422 23.9251 54.4108 23.5981C53.5026 22.3028 52.2311 18.8531 54.4108 15.4164C54.0839 14.688 53.9342 13.402 54.6012 11.9797C54.7961 11.564 55.0608 11.1367 55.4111 10.7083C54.9018 10.3659 54.0746 9.95306 53.2636 9.83986C53.3114 11.1259 53.2349 13.698 52.5465 13.698C51.8582 13.698 51.5905 15.9891 51.5427 17.1347C51.4058 17.7552 50.7552 18.538 49.2482 16.7051C47.7412 14.8722 48.1423 17.2779 48.5312 18.7099C48.5312 20.285 48.1009 19.569 45.4422 16.7051C42.7834 13.8412 43.2251 17.1347 43.6553 18.7099C43.9995 19.97 43.0339 20.1896 42.5081 20.1418C40.0989 19.2254 36.7366 22.0511 35.3567 23.5785C35.2893 23.9036 35.2353 24.2035 35.1944 24.4673C36.051 24.4594 36.4901 24.2894 36.6284 24.1513Z" fill="#D6B053"/>
<path d="M74.0575 24.8434C73.2058 24.1026 73.3321 22.4173 74.0575 22.0034L73.5652 15.8587C69.7617 15.5203 61.4951 15.6741 58.8564 18.9963C56.2178 22.3184 55.8449 18.2888 55.9883 15.8587C55.4146 15.8017 54.8798 15.6621 54.4108 15.4164C52.2311 18.8531 53.5026 22.3028 54.4108 23.5981C55.7093 23.358 56.854 23.0664 57.279 23.0057C58.5502 21.7916 60.3752 21.6013 62.1548 21.9397C61.7724 20.8631 61.5525 18.7671 63.7323 18.9963C65.912 19.2254 68.2735 18.6144 69.1817 18.2803C69.7482 18.1919 70.2218 18.2092 70.6158 18.309C72.7749 18.8563 72.5386 21.8831 72.0549 23.5785C69.5349 23.1203 68.229 24.7241 67.891 25.5833C67.9654 26.0977 68.1821 26.8091 68.4673 27.588L74.0575 24.8434Z" fill="#D6B053"/>
<path d="M67.891 25.5833C68.229 24.7241 69.5349 23.1203 72.0549 23.5785C72.5386 21.8831 72.7749 18.8563 70.6158 18.309C70.4246 20.095 69.4398 23.3342 67.0306 22.0034C64.6214 20.6725 62.7762 21.4064 62.1548 21.9397C64.9926 22.4793 67.7148 24.3632 67.891 25.5833Z" fill="#D6B053"/>
<path d="M38.9229 16.7051C41.6477 15.4164 40.7872 17.5643 42.5081 13.698C43.8848 10.605 46.2303 10.4045 47.231 10.6909C48.1902 11.3591 50.3381 12.2947 51.2559 10.6909C51.7075 9.90175 52.4779 9.73021 53.2636 9.83986C54.0746 9.95306 54.9018 10.3659 55.4111 10.7083C55.5824 10.4988 55.7742 10.2891 55.9883 10.0803C53.9743 8.85189 49.4031 6.62413 47.231 7.54058C45.0588 8.45703 43.3685 7.44512 42.7949 6.8246C42.6993 8.11916 42.1066 10.7083 40.5004 10.7083C38.4927 10.7083 38.9229 11.9797 38.9229 13.698C38.9229 15.0727 35.1428 16.5619 33.2527 17.1347C33.3412 17.5443 33.4888 17.9714 33.6169 18.2803C32.9477 19.6579 32.1541 22.8161 34.3339 24.4278C34.6583 24.458 34.9441 24.4696 35.1944 24.4673C35.2353 24.2035 35.2893 23.9036 35.3567 23.5785C35.8403 21.2443 37.0096 17.6101 38.9229 16.7051Z" fill="#B54616"/>
<path d="M70.6158 13.698C72.3366 15.8746 73.2449 15.3686 73.4839 14.8436C72.9994 10.9416 70.309 9.35439 67.891 8.84628C69.0383 9.89083 68.1779 10.5228 67.6042 10.7083C66.0746 10.7025 62.5276 10.8627 60.5773 11.5501C58.627 12.2374 55.7806 12.1229 54.6012 11.9797C53.9342 13.402 54.0839 14.688 54.4108 15.4164C54.8798 15.6621 55.4146 15.8017 55.9883 15.8587C58.6235 16.1203 62.0782 14.6388 63.7323 13.698C65.3097 12.7911 68.8949 11.5214 70.6158 13.698Z" fill="#B54616"/>
<path d="M65.4531 30.8815C66.1702 32.7431 69.3251 31.8839 70.4724 32.1703C69.9553 31.1332 69.0624 29.2136 68.4673 27.588C68.1821 26.8091 67.9654 26.0977 67.891 25.5833C67.7148 24.3632 64.9926 22.4793 62.1548 21.9397C60.3752 21.6013 58.5502 21.7916 57.279 23.0057C58.082 22.8912 59.0476 24.2945 59.4301 25.0105C61.1031 25.2014 64.7648 25.7551 66.0268 26.4424C67.6042 27.3016 66.9225 29.5484 64.5386 29.7138C64.9298 30.005 65.2626 30.387 65.4531 30.8815Z" fill="#B54616"/>
<path d="M83.5223 22.0034C83.3311 21.001 83.3216 18.939 84.813 18.7099C86.3044 18.4808 87.0597 19.569 87.2509 20.1418C87.7767 20.8578 89.0865 21.7456 90.119 19.569C90.5168 18.7305 90.4875 17.8934 90.241 17.1347C89.7701 17.9462 88.4268 19.1681 86.8207 17.5643C85.2145 15.9605 83.0921 17.3734 82.2317 18.2803C81.3712 19.6645 79.2775 22.2038 77.7861 21.2874C75.9218 20.1418 76.4954 21.1442 75.4916 18.9963C75.3482 19.8077 74.8606 21.5451 74.0575 22.0034C73.3321 22.4173 73.2058 24.1026 74.0575 24.8434C74.3844 25.1276 74.8553 25.2728 75.4916 25.1537C77.7861 24.7241 79.0767 25.1537 79.0767 26.4424C79.0767 27.7312 78.3597 27.9749 79.0767 28.927C80.4109 28.8451 82.1927 29.31 83.3567 29.7138C83.4801 29.7589 83.4165 29.5342 82.4468 28.4472C82.2313 28.2056 81.971 27.9213 81.6581 27.588C79.9372 25.7551 82.3751 23.2824 83.8092 22.2751C83.7055 22.1816 83.6096 22.0905 83.5223 22.0034Z" fill="#B54616"/>
<path d="M92.2701 33.7454C93.7377 33.8465 95.0547 34.0999 96.1421 34.3925C95.8553 33.6518 95.6545 32.1703 97.146 32.1703C97.5659 32.1703 97.9503 32.0404 98.2932 31.8356C99.1682 31.3129 99.7737 30.302 100.014 29.7138C99.2431 29.6002 98.4232 29.4586 97.6142 29.3064C96.3586 29.4496 93.7902 30.051 93.5608 31.3111C93.3313 32.5712 92.6048 33.459 92.2701 33.7454Z" fill="#B54616"/>
<path d="M32.613 24.1513C29.9744 23.5785 28.4543 25.4401 28.024 26.4424C28.8845 26.1561 30.8922 25.6692 32.0394 26.0129C33.4735 26.4424 35.3378 27.588 36.1982 27.3016C37.0587 27.0152 37.3455 30.0552 35.1944 29.9672C37.2285 30.4746 38.9946 31.3709 40.5004 32.4742C40.8997 32.005 41.4518 30.8763 41.4024 29.3064C41.3808 28.6207 41.2445 27.851 40.9306 27.0152C40.587 26.1002 40.1068 25.4559 39.5819 25.0105C38.5297 24.1175 37.2982 24.0239 36.6284 24.1513C36.4901 24.2894 36.051 24.4594 35.1944 24.4673C34.9441 24.4696 34.6583 24.458 34.3339 24.4278C33.8495 24.3827 33.2791 24.2959 32.613 24.1513Z" fill="#B54616"/>
<path d="M42.7949 6.8246C41.313 6.39501 38.1772 6.28046 37.4889 9.25893C37.5367 9.97491 37.2881 11.4355 35.9114 11.5501C34.5347 11.6646 34.2861 13.0298 34.3339 13.698C34.4295 14.4182 34.42 15.8587 33.6169 15.8587C33.1211 15.8587 33.1099 16.4739 33.2527 17.1347C35.1428 16.5619 38.9229 15.0727 38.9229 13.698C38.9229 11.9797 38.4927 10.7083 40.5004 10.7083C42.1066 10.7083 42.6993 8.11916 42.7949 6.8246Z" fill="#BB5C08"/>
<path d="M65.1663 8.68615C62.0687 7.76969 59.6691 7.92244 58.8564 8.11336C57.6203 8.73051 56.6858 9.40033 55.9883 10.0803C55.7742 10.2891 55.5824 10.4988 55.4111 10.7083C55.0608 11.1367 54.7961 11.564 54.6012 11.9797C55.7806 12.1229 58.627 12.2374 60.5773 11.5501C62.5276 10.8627 66.0746 10.7025 67.6042 10.7083C68.1779 10.5228 69.0383 9.89083 67.891 8.84628C66.8728 8.6323 65.9029 8.60969 65.1663 8.68615Z" fill="#BB5C08"/>
<path d="M69.1817 18.2803C68.2735 18.6144 65.912 19.2254 63.7323 18.9963C61.5525 18.7671 61.7724 20.8631 62.1548 21.9397C62.7762 21.4064 64.6214 20.6725 67.0306 22.0034C69.4398 23.3342 70.4246 20.095 70.6158 18.309C70.2218 18.2092 69.7482 18.1919 69.1817 18.2803Z" fill="#BB5C08"/>
<path d="M60.5773 28.1412C61.1103 28.57 61.7164 28.7972 62.1548 28.8768C62.7295 28.9087 63.752 29.1279 64.5386 29.7138C66.9225 29.5484 67.6042 27.3016 66.0268 26.4424C64.7648 25.7551 61.1031 25.2014 59.4301 25.0105C59.2293 26.547 59.8317 27.5413 60.5773 28.1412Z" fill="#BB5C08"/>
<path d="M88.2548 14.414C87.2509 13.5071 84.7556 12.0942 82.8053 13.698C80.855 15.3018 79.507 15.13 79.0767 14.8436C77.8339 14.8913 75.3769 15.7887 75.4916 18.9963C76.4954 21.1442 75.9218 20.1418 77.7861 21.2874C79.2775 22.2038 81.3712 19.6645 82.2317 18.2803C83.0921 17.3734 85.2145 15.9605 86.8207 17.5643C88.4268 19.1681 89.7701 17.9462 90.241 17.1347C89.8477 15.924 88.9013 14.9128 88.2548 14.414Z" fill="#BB5C08"/>
<path d="M89.2586 29.8791C91.8973 31.5975 93.2262 29.6405 93.5608 28.4472C92.9394 28.0653 91.8112 26.872 92.2701 25.1537C92.3179 23.9127 91.8973 21.8602 89.8322 23.5785C87.9121 25.1763 85.1821 23.514 83.8092 22.2751C82.3751 23.2824 79.9372 25.7551 81.6581 27.588C81.971 27.9213 82.2313 28.2056 82.4468 28.4472C83.4165 29.5342 83.4801 29.7589 83.3567 29.7138C83.5208 29.7707 83.6726 29.8264 83.8092 29.8791C84.5262 29.1632 86.6199 28.1608 89.2586 29.8791Z" fill="#BB5C08"/>
<path d="M83.8092 29.8791C85.2432 31.0724 88.9431 33.5163 92.2701 33.7454C92.6048 33.459 93.3313 32.5712 93.5608 31.3111C93.7902 30.051 96.3586 29.4496 97.6142 29.3064C96.092 29.0199 94.6082 28.6954 93.5608 28.4472C93.2262 29.6405 91.8973 31.5975 89.2586 29.8791C86.6199 28.1608 84.5262 29.1632 83.8092 29.8791Z" fill="#BB5C08"/>
<path d="M23.2916 31.4127C23.3873 31.329 23.4829 31.2474 23.5784 31.1679C28.1332 29.3334 31.9953 29.1692 35.1944 29.9672C37.3455 30.0552 37.0587 27.0152 36.1982 27.3016C35.3378 27.588 33.4735 26.4424 32.0394 26.0129C30.8922 25.6692 28.8845 26.1561 28.024 26.4424C27.6799 27.3589 26.351 27.7789 25.7295 27.8744C22.9761 28.2181 22.957 30.3765 23.2916 31.4127Z" fill="#BB5C08"/>
<path d="M70.4724 32.1703C71.2056 32.3533 73.3446 31.6005 75.2048 30.7343C74.2487 29.7173 72.6808 27.1154 74.0575 24.8434L68.4673 27.588C69.0624 29.2136 69.9553 31.1332 70.4724 32.1703Z" fill="#D4CAC0"/>
<path d="M107.471 34.7478C105.98 36.0079 106.085 37.6595 106.324 38.3277C107.254 41.0303 105.54 43.0674 103.789 44.2569C103.71 44.3752 103.601 44.4509 103.456 44.4733C102.945 44.7899 102.445 45.0329 102.022 45.1975C102.797 45.5418 103.81 45.8568 104.89 46.1329C105.737 46.3496 106.625 46.5423 107.471 46.7064C109.705 46.6365 110.483 39.9029 108.762 39.3301C107.385 38.8719 107.328 36.0843 107.471 34.7478Z" fill="#E0E1DB"/>
<path d="M43.6553 52.6473C41.0129 53.7929 40.3554 56.5613 40.357 57.8024C39.3915 58.4221 38.8268 59.3144 38.5194 60.0935C39.3232 59.9503 41.3035 59.4348 42.7949 58.5183C43.2523 58.2373 43.5416 57.8592 43.7131 57.4453C43.7629 57.1742 43.8298 56.8795 43.9151 56.5774C43.9718 55.8885 43.8181 55.2131 43.6553 54.7952C43.7063 54.2225 44.1505 53.1342 45.5196 53.3633C47.231 53.6497 51.8295 52.5041 51.5427 51.7881C51.7339 51.9313 51.9442 51.8168 51.2559 50.213C50.5675 48.6092 51.1603 46.3944 51.5427 45.4875C51.6035 45.1056 51.6064 44.2847 51.1319 44.0555C49.7582 47.0949 47.7919 47.1468 46.9584 46.7763C46.8139 47.3172 46.619 47.8191 46.3801 48.2845C46.5729 49.2615 46.2978 51.5017 43.6553 52.6473Z" fill="#F5F1F0"/>
<path d="M32.0394 53.6497C31.697 53.5125 31.3624 53.3744 31.0356 53.2354C30.8922 55.7124 31.2937 60.9527 34.0471 62.0982C34.1848 62.3388 34.4066 62.9305 34.4773 63.756C34.8119 63.4898 35.4238 62.8715 35.1944 62.5278C34.9649 62.1842 35.5768 62.0028 35.9114 61.955C36.4372 61.43 37.1734 60.1221 35.9114 59.0911C34.3339 57.8024 31.7526 55.9446 33.4735 53.7231C32.9723 53.713 32.4917 53.6876 32.0394 53.6497Z" fill="#F5F1F0"/>
<path d="M44.6592 61.3823C44.5445 60.6949 43.9422 58.7093 43.6553 57.8024C43.6711 57.6894 43.6903 57.5699 43.7131 57.4453C43.5416 57.8592 43.2523 58.2373 42.7949 58.5183C41.3035 59.4348 39.3232 59.9503 38.5194 60.0935C38.3155 60.6105 38.225 61.0776 38.2059 61.3823C37.8329 63.9897 39.9701 65.8738 42.6454 67.144C41.665 66.6358 40.7209 65.212 40.357 64.5326C37.4889 60.8667 42.0301 60.9049 44.6592 61.3823Z" fill="#F1D592"/>
<path d="M49.9652 67.2141C48.7702 67.4181 46.208 67.5683 45.5196 66.5373C46.3737 66.6805 47.9117 66.6232 47.231 65.2485L45.5196 63.5302C47.0015 64.1246 49.9652 65.6935 49.9652 67.2141Z" fill="#F5F1F0"/>
<path d="M49.9652 56.8C52.0685 56.5613 56.5332 57.5732 57.5658 63.5302C57.3268 63.9598 56.7627 64.3894 56.4185 62.671C55.8927 61.0959 53.8659 57.7164 49.9652 56.8Z" fill="#F5F1F0"/>
<path d="M58.1394 50.7858C58.6174 51.8359 59.9463 53.5065 61.4377 51.7881C62.3938 52.1223 64.478 52.3895 65.1663 50.7858C65.6443 50.929 66.6004 51.5017 66.6004 52.6473C66.6004 53.7929 65.6443 53.6019 65.1663 53.3633C63.7801 53.6019 61.0936 54.3943 61.4377 55.6544C61.7819 56.9145 60.4339 58.2797 59.7169 58.8047C60.2905 57.3728 61.1796 54.4229 60.1471 54.0793C59.1146 53.7356 57.7092 52.2177 57.1356 51.5017C57.0878 51.2631 57.2216 50.7858 58.1394 50.7858Z" fill="#F5F1F0"/>
<path d="M58.4262 67.2141C59.8603 67.1317 62.7858 66.3941 63.0152 64.103C63.302 61.2391 62.7284 60.0935 65.1663 57.8024C65.7877 57.1341 67.1453 55.8549 67.6042 56.084C66.5048 57.2773 64.478 60.0076 65.1663 61.3823C65.8547 62.7569 64.3059 65.1053 63.4454 66.1077C62.9674 66.6066 61.2943 67.5264 58.4262 67.2141Z" fill="#F5F1F0"/>
</svg>
