<svg width="743" height="308" viewBox="0 0 743 308" fill="none" xmlns="http://www.w3.org/2000/svg">
<rect x="1.28144" y="1.28241" width="739.815" height="304.982" rx="38.0159" stroke="#A6A6A6" stroke-width="2.56287"/>
<rect x="14.5229" y="12.8154" width="712.478" height="278.499" rx="29.0459" fill="#FFE06F"/>
<path d="M30.0029 64.4997C29.1486 52.3973 33.2492 28.1924 56.4859 28.1924" stroke="white" stroke-width="3.41716"/>
<path d="M711.564 241.495C712.151 253.613 707.517 277.722 684.286 277.209" stroke="white" stroke-width="3.41716"/>
<path d="M260.515 73.1593V75.7292H255.403V92.3643H252.253V75.7292H247.113V73.1593H260.515ZM277.494 77.1385V92.3643H274.344V90.5681C273.847 91.1945 273.193 91.6919 272.382 92.0603C271.59 92.4103 270.743 92.5853 269.84 92.5853C268.643 92.5853 267.565 92.3366 266.607 91.8392C265.668 91.3418 264.921 90.605 264.369 89.6286C263.835 88.6522 263.567 87.4732 263.567 86.0916V77.1385H266.69V85.6218C266.69 86.985 267.031 88.0351 267.712 88.772C268.394 89.4904 269.324 89.8497 270.503 89.8497C271.682 89.8497 272.613 89.4904 273.294 88.772C273.994 88.0351 274.344 86.985 274.344 85.6218V77.1385H277.494ZM289.333 76.8898C290.53 76.8898 291.599 77.1385 292.538 77.6359C293.496 78.1333 294.242 78.8701 294.776 79.8465C295.311 80.8229 295.578 82.0019 295.578 83.3835V92.3643H292.455V83.8533C292.455 82.4901 292.115 81.4492 291.433 80.7308C290.751 79.9939 289.821 79.6254 288.642 79.6254C287.463 79.6254 286.523 79.9939 285.823 80.7308C285.142 81.4492 284.801 82.4901 284.801 83.8533V92.3643H281.651V77.1385H284.801V78.8794C285.317 78.253 285.971 77.7648 286.763 77.4148C287.573 77.0648 288.43 76.8898 289.333 76.8898ZM305.731 76.8898C306.91 76.8898 307.95 77.1293 308.853 77.6082C309.774 78.0688 310.493 78.6491 311.009 79.3491V77.1385H314.186V92.613C314.186 94.013 313.892 95.2565 313.302 96.3434C312.713 97.4487 311.856 98.3146 310.732 98.9409C309.627 99.5673 308.3 99.8804 306.753 99.8804C304.69 99.8804 302.977 99.3923 301.613 98.4159C300.25 97.4579 299.476 96.15 299.292 94.492H302.415C302.654 95.2841 303.161 95.9197 303.934 96.3987C304.727 96.8961 305.666 97.1448 306.753 97.1448C308.024 97.1448 309.047 96.7579 309.82 95.9842C310.612 95.2105 311.009 94.0867 311.009 92.613V90.0707C310.474 90.7892 309.747 91.3971 308.826 91.8945C307.923 92.3735 306.891 92.613 305.731 92.613C304.404 92.613 303.188 92.2814 302.083 91.6182C300.996 90.9366 300.13 89.997 299.486 88.7996C298.859 87.5837 298.546 86.2113 298.546 84.6823C298.546 83.1533 298.859 81.7992 299.486 80.6202C300.13 79.4412 300.996 78.5293 302.083 77.8846C303.188 77.2214 304.404 76.8898 305.731 76.8898ZM311.009 84.7375C311.009 83.6875 310.787 82.7756 310.345 82.0019C309.922 81.2282 309.36 80.6387 308.66 80.2334C307.96 79.8281 307.204 79.6254 306.394 79.6254C305.583 79.6254 304.828 79.8281 304.128 80.2334C303.428 80.6202 302.857 81.2005 302.415 81.9742C301.991 82.7296 301.779 83.6322 301.779 84.6823C301.779 85.7323 301.991 86.6534 302.415 87.4456C302.857 88.2377 303.428 88.8457 304.128 89.2694C304.846 89.6746 305.602 89.8773 306.394 89.8773C307.204 89.8773 307.96 89.6746 308.66 89.2694C309.36 88.8641 309.922 88.2746 310.345 87.5008C310.787 86.7087 311.009 85.7876 311.009 84.7375ZM324.458 76.8898C325.637 76.8898 326.678 77.1293 327.581 77.6082C328.502 78.0688 329.221 78.6491 329.736 79.3491V77.1385H332.914V92.613C332.914 94.013 332.619 95.2565 332.03 96.3434C331.44 97.4487 330.584 98.3146 329.46 98.9409C328.355 99.5673 327.028 99.8804 325.481 99.8804C323.418 99.8804 321.704 99.3923 320.341 98.4159C318.978 97.4579 318.204 96.15 318.02 94.492H321.142C321.382 95.2841 321.889 95.9197 322.662 96.3987C323.454 96.8961 324.394 97.1448 325.481 97.1448C326.752 97.1448 327.774 96.7579 328.548 95.9842C329.34 95.2105 329.736 94.0867 329.736 92.613V90.0707C329.202 90.7892 328.474 91.3971 327.553 91.8945C326.651 92.3735 325.619 92.613 324.458 92.613C323.132 92.613 321.916 92.2814 320.811 91.6182C319.724 90.9366 318.858 89.997 318.213 88.7996C317.587 87.5837 317.274 86.2113 317.274 84.6823C317.274 83.1533 317.587 81.7992 318.213 80.6202C318.858 79.4412 319.724 78.5293 320.811 77.8846C321.916 77.2214 323.132 76.8898 324.458 76.8898ZM329.736 84.7375C329.736 83.6875 329.515 82.7756 329.073 82.0019C328.649 81.2282 328.088 80.6387 327.388 80.2334C326.688 79.8281 325.932 79.6254 325.122 79.6254C324.311 79.6254 323.556 79.8281 322.856 80.2334C322.156 80.6202 321.585 81.2005 321.142 81.9742C320.719 82.7296 320.507 83.6322 320.507 84.6823C320.507 85.7323 320.719 86.6534 321.142 87.4456C321.585 88.2377 322.156 88.8457 322.856 89.2694C323.574 89.6746 324.329 89.8773 325.122 89.8773C325.932 89.8773 326.688 89.6746 327.388 89.2694C328.088 88.8641 328.649 88.2746 329.073 87.5008C329.515 86.7087 329.736 85.7876 329.736 84.7375ZM350.841 77.1385V92.3643H347.69V90.5681C347.193 91.1945 346.539 91.6919 345.729 92.0603C344.936 92.4103 344.089 92.5853 343.186 92.5853C341.989 92.5853 340.911 92.3366 339.953 91.8392C339.014 91.3418 338.268 90.605 337.715 89.6286C337.181 88.6522 336.914 87.4732 336.914 86.0916V77.1385H340.036V85.6218C340.036 86.985 340.377 88.0351 341.059 88.772C341.74 89.4904 342.67 89.8497 343.849 89.8497C345.028 89.8497 345.959 89.4904 346.64 88.772C347.34 88.0351 347.69 86.985 347.69 85.6218V77.1385H350.841ZM373.753 88.4404H365.712L364.33 92.3643H361.042L367.923 73.1317H371.57L378.451 92.3643H375.135L373.753 88.4404ZM372.869 85.8705L369.747 76.945L366.596 85.8705H372.869ZM384.593 79.3767C385.127 78.6767 385.855 78.0872 386.776 77.6082C387.697 77.1293 388.738 76.8898 389.898 76.8898C391.225 76.8898 392.431 77.2214 393.518 77.8846C394.624 78.5293 395.489 79.4412 396.116 80.6202C396.742 81.7992 397.055 83.1533 397.055 84.6823C397.055 86.2113 396.742 87.5837 396.116 88.7996C395.489 89.997 394.624 90.9366 393.518 91.6182C392.431 92.2814 391.225 92.613 389.898 92.613C388.738 92.613 387.706 92.3827 386.803 91.9221C385.901 91.4432 385.164 90.8537 384.593 90.1536V99.6041H381.443V77.1385H384.593V79.3767ZM393.85 84.6823C393.85 83.6322 393.629 82.7296 393.187 81.9742C392.763 81.2005 392.192 80.6202 391.473 80.2334C390.773 79.8281 390.018 79.6254 389.208 79.6254C388.415 79.6254 387.66 79.8281 386.942 80.2334C386.242 80.6387 385.671 81.2282 385.228 82.0019C384.805 82.7756 384.593 83.6875 384.593 84.7375C384.593 85.7876 384.805 86.7087 385.228 87.5008C385.671 88.2746 386.242 88.8641 386.942 89.2694C387.66 89.6746 388.415 89.8773 389.208 89.8773C390.018 89.8773 390.773 89.6746 391.473 89.2694C392.192 88.8457 392.763 88.2377 393.187 87.4456C393.629 86.6534 393.85 85.7323 393.85 84.6823ZM399.12 84.6823C399.12 83.1533 399.434 81.7992 400.06 80.6202C400.705 79.4412 401.571 78.5293 402.657 77.8846C403.763 77.2214 404.979 76.8898 406.305 76.8898C407.502 76.8898 408.543 77.1293 409.428 77.6082C410.33 78.0688 411.049 78.6491 411.583 79.3491V77.1385H414.761V92.3643H411.583V90.0984C411.049 90.8168 410.321 91.4155 409.4 91.8945C408.479 92.3735 407.429 92.613 406.25 92.613C404.942 92.613 403.744 92.2814 402.657 91.6182C401.571 90.9366 400.705 89.997 400.06 88.7996C399.434 87.5837 399.12 86.2113 399.12 84.6823ZM411.583 84.7375C411.583 83.6875 411.362 82.7756 410.92 82.0019C410.496 81.2282 409.934 80.6387 409.234 80.2334C408.534 79.8281 407.779 79.6254 406.968 79.6254C406.158 79.6254 405.402 79.8281 404.702 80.2334C404.002 80.6202 403.431 81.2005 402.989 81.9742C402.565 82.7296 402.353 83.6322 402.353 84.6823C402.353 85.7323 402.565 86.6534 402.989 87.4456C403.431 88.2377 404.002 88.8457 404.702 89.2694C405.421 89.6746 406.176 89.8773 406.968 89.8773C407.779 89.8773 408.534 89.6746 409.234 89.2694C409.934 88.8641 410.496 88.2746 410.92 87.5008C411.362 86.7087 411.583 85.7876 411.583 84.7375ZM429.227 89.822H435.72V92.3643H426.076V73.1593H429.227V89.822ZM437.305 84.6823C437.305 83.1533 437.618 81.7992 438.244 80.6202C438.889 79.4412 439.755 78.5293 440.842 77.8846C441.947 77.2214 443.163 76.8898 444.489 76.8898C445.687 76.8898 446.728 77.1293 447.612 77.6082C448.514 78.0688 449.233 78.6491 449.767 79.3491V77.1385H452.945V92.3643H449.767V90.0984C449.233 90.8168 448.505 91.4155 447.584 91.8945C446.663 92.3735 445.613 92.613 444.434 92.613C443.126 92.613 441.929 92.2814 440.842 91.6182C439.755 90.9366 438.889 89.997 438.244 88.7996C437.618 87.5837 437.305 86.2113 437.305 84.6823ZM449.767 84.7375C449.767 83.6875 449.546 82.7756 449.104 82.0019C448.68 81.2282 448.118 80.6387 447.418 80.2334C446.718 79.8281 445.963 79.6254 445.152 79.6254C444.342 79.6254 443.587 79.8281 442.887 80.2334C442.187 80.6202 441.615 81.2005 441.173 81.9742C440.75 82.7296 440.538 83.6322 440.538 84.6823C440.538 85.7323 440.75 86.6534 441.173 87.4456C441.615 88.2377 442.187 88.8457 442.887 89.2694C443.605 89.6746 444.36 89.8773 445.152 89.8773C445.963 89.8773 446.718 89.6746 447.418 89.2694C448.118 88.8641 448.68 88.2746 449.104 87.5008C449.546 86.7087 449.767 85.7876 449.767 84.7375ZM463.217 76.8898C464.396 76.8898 465.437 77.1293 466.34 77.6082C467.261 78.0688 467.979 78.6491 468.495 79.3491V77.1385H471.673V92.613C471.673 94.013 471.378 95.2565 470.789 96.3434C470.199 97.4487 469.342 98.3146 468.219 98.9409C467.113 99.5673 465.787 99.8804 464.24 99.8804C462.176 99.8804 460.463 99.3923 459.1 98.4159C457.737 97.4579 456.963 96.15 456.779 94.492H459.901C460.141 95.2841 460.647 95.9197 461.421 96.3987C462.213 96.8961 463.153 97.1448 464.24 97.1448C465.511 97.1448 466.533 96.7579 467.307 95.9842C468.099 95.2105 468.495 94.0867 468.495 92.613V90.0707C467.961 90.7892 467.233 91.3971 466.312 91.8945C465.409 92.3735 464.378 92.613 463.217 92.613C461.891 92.613 460.675 92.2814 459.57 91.6182C458.483 90.9366 457.617 89.997 456.972 88.7996C456.346 87.5837 456.033 86.2113 456.033 84.6823C456.033 83.1533 456.346 81.7992 456.972 80.6202C457.617 79.4412 458.483 78.5293 459.57 77.8846C460.675 77.2214 461.891 76.8898 463.217 76.8898ZM468.495 84.7375C468.495 83.6875 468.274 82.7756 467.832 82.0019C467.408 81.2282 466.846 80.6387 466.146 80.2334C465.446 79.8281 464.691 79.6254 463.88 79.6254C463.07 79.6254 462.314 79.8281 461.614 80.2334C460.914 80.6202 460.343 81.2005 459.901 81.9742C459.477 82.7296 459.266 83.6322 459.266 84.6823C459.266 85.7323 459.477 86.6534 459.901 87.4456C460.343 88.2377 460.914 88.8457 461.614 89.2694C462.333 89.6746 463.088 89.8773 463.88 89.8773C464.691 89.8773 465.446 89.6746 466.146 89.2694C466.846 88.8641 467.408 88.2746 467.832 87.5008C468.274 86.7087 468.495 85.7876 468.495 84.7375ZM477.413 75.1213C476.842 75.1213 476.363 74.9278 475.976 74.541C475.589 74.1541 475.396 73.6751 475.396 73.1041C475.396 72.533 475.589 72.054 475.976 71.6671C476.363 71.2803 476.842 71.0868 477.413 71.0868C477.966 71.0868 478.436 71.2803 478.822 71.6671C479.209 72.054 479.403 72.533 479.403 73.1041C479.403 73.6751 479.209 74.1541 478.822 74.541C478.436 74.9278 477.966 75.1213 477.413 75.1213ZM478.961 77.1385V92.3643H475.81V77.1385H478.961ZM488.264 72.883C490.143 72.883 491.644 73.3988 492.768 74.4304C493.91 75.4621 494.481 76.8714 494.481 78.6583C494.481 80.5189 493.892 81.919 492.713 82.8585C491.534 83.798 489.968 84.2678 488.015 84.2678L487.905 86.4508H485.169L485.031 82.1124H485.943C487.73 82.1124 489.093 81.8729 490.032 81.394C490.99 80.915 491.469 80.0031 491.469 78.6583C491.469 77.6819 491.184 76.9174 490.613 76.3647C490.06 75.8121 489.286 75.5358 488.291 75.5358C487.297 75.5358 486.514 75.8029 485.943 76.3371C485.372 76.8714 485.086 77.6174 485.086 78.5754H482.129C482.129 77.4701 482.378 76.4845 482.875 75.6187C483.373 74.7528 484.082 74.0804 485.003 73.6014C485.943 73.1225 487.03 72.883 488.264 72.883ZM486.495 92.5577C485.924 92.5577 485.445 92.3643 485.058 91.9774C484.672 91.5905 484.478 91.1116 484.478 90.5405C484.478 89.9694 484.672 89.4904 485.058 89.1036C485.445 88.7167 485.924 88.5233 486.495 88.5233C487.048 88.5233 487.518 88.7167 487.905 89.1036C488.291 89.4904 488.485 89.9694 488.485 90.5405C488.485 91.1116 488.291 91.5905 487.905 91.9774C487.518 92.3643 487.048 92.5577 486.495 92.5577Z" fill="#3B4F2E"/>
<path d="M158.441 136.352V153.77C158.441 156.188 157.742 158.072 156.343 159.423C154.945 160.75 153.073 161.413 150.727 161.413C148.357 161.413 146.437 160.726 144.968 159.352C143.522 157.977 142.799 156.057 142.799 153.593H147.776C147.8 154.659 148.049 155.489 148.523 156.081C149.02 156.674 149.731 156.97 150.656 156.97C151.556 156.97 152.243 156.685 152.717 156.117C153.191 155.548 153.428 154.766 153.428 153.77V136.352H158.441ZM182.554 150.891C182.554 151.602 182.506 152.242 182.411 152.811H168.014C168.133 154.233 168.63 155.346 169.507 156.152C170.384 156.958 171.463 157.361 172.742 157.361C174.591 157.361 175.906 156.567 176.688 154.979H182.056C181.487 156.875 180.397 158.439 178.785 159.672C177.174 160.88 175.195 161.484 172.849 161.484C170.953 161.484 169.247 161.07 167.73 160.24C166.237 159.387 165.064 158.19 164.211 156.65C163.381 155.109 162.966 153.332 162.966 151.318C162.966 149.28 163.381 147.49 164.211 145.95C165.04 144.409 166.201 143.224 167.694 142.395C169.187 141.566 170.906 141.151 172.849 141.151C174.721 141.151 176.392 141.554 177.861 142.359C179.354 143.165 180.504 144.315 181.309 145.808C182.139 147.277 182.554 148.971 182.554 150.891ZM177.399 149.469C177.375 148.189 176.913 147.17 176.013 146.412C175.112 145.63 174.01 145.239 172.707 145.239C171.474 145.239 170.432 145.618 169.578 146.376C168.749 147.111 168.239 148.142 168.05 149.469H177.399ZM191.163 134.859V161.165H186.186V134.859H191.163ZM194.8 151.247C194.8 149.256 195.191 147.49 195.973 145.95C196.779 144.409 197.857 143.224 199.208 142.395C200.583 141.566 202.111 141.151 203.794 141.151C205.263 141.151 206.543 141.447 207.633 142.04C208.747 142.632 209.636 143.379 210.299 144.279V141.471H215.312V161.165H210.299V158.285C209.659 159.209 208.771 159.98 207.633 160.596C206.519 161.188 205.228 161.484 203.758 161.484C202.1 161.484 200.583 161.058 199.208 160.205C197.857 159.352 196.779 158.155 195.973 156.614C195.191 155.05 194.8 153.261 194.8 151.247ZM210.299 151.318C210.299 150.109 210.062 149.078 209.588 148.225C209.114 147.348 208.475 146.685 207.669 146.234C206.863 145.76 205.998 145.523 205.074 145.523C204.149 145.523 203.296 145.748 202.514 146.199C201.732 146.649 201.092 147.313 200.595 148.189C200.121 149.043 199.884 150.062 199.884 151.247C199.884 152.432 200.121 153.474 200.595 154.375C201.092 155.252 201.732 155.927 202.514 156.401C203.32 156.875 204.173 157.112 205.074 157.112C205.998 157.112 206.863 156.887 207.669 156.437C208.475 155.963 209.114 155.299 209.588 154.446C210.062 153.569 210.299 152.526 210.299 151.318ZM222.696 139.125C221.796 139.125 221.049 138.852 220.457 138.307C219.888 137.738 219.604 137.039 219.604 136.21C219.604 135.38 219.888 134.693 220.457 134.148C221.049 133.579 221.796 133.295 222.696 133.295C223.573 133.295 224.296 133.579 224.865 134.148C225.433 134.693 225.718 135.38 225.718 136.21C225.718 137.039 225.433 137.738 224.865 138.307C224.296 138.852 223.573 139.125 222.696 139.125ZM225.149 164.399C225.149 166.58 224.604 168.144 223.514 169.092C222.447 170.063 220.907 170.549 218.893 170.549H216.689V166.319H218.111C218.869 166.319 219.402 166.165 219.71 165.857C220.018 165.573 220.172 165.099 220.172 164.435V141.471H225.149V164.399ZM228.786 151.247C228.786 149.256 229.177 147.49 229.96 145.95C230.765 144.409 231.844 143.224 233.194 142.395C234.569 141.566 236.098 141.151 237.78 141.151C239.249 141.151 240.529 141.447 241.619 142.04C242.733 142.632 243.622 143.379 244.285 144.279V141.471H249.298V161.165H244.285V158.285C243.646 159.209 242.757 159.98 241.619 160.596C240.506 161.188 239.214 161.484 237.745 161.484C236.086 161.484 234.569 161.058 233.194 160.205C231.844 159.352 230.765 158.155 229.96 156.614C229.177 155.05 228.786 153.261 228.786 151.247ZM244.285 151.318C244.285 150.109 244.048 149.078 243.575 148.225C243.101 147.348 242.461 146.685 241.655 146.234C240.849 145.76 239.984 145.523 239.06 145.523C238.136 145.523 237.282 145.748 236.5 146.199C235.718 146.649 235.078 147.313 234.581 148.189C234.107 149.043 233.87 150.062 233.87 151.247C233.87 152.432 234.107 153.474 234.581 154.375C235.078 155.252 235.718 155.927 236.5 156.401C237.306 156.875 238.159 157.112 239.06 157.112C239.984 157.112 240.849 156.887 241.655 156.437C242.461 155.963 243.101 155.299 243.575 154.446C244.048 153.569 244.285 152.526 244.285 151.318ZM265.25 141.186C266.743 141.186 268.07 141.518 269.231 142.182C270.392 142.822 271.293 143.781 271.933 145.061C272.596 146.317 272.928 147.834 272.928 149.611V161.165H267.951V150.287C267.951 148.723 267.56 147.526 266.778 146.696C265.996 145.843 264.93 145.417 263.579 145.417C262.204 145.417 261.114 145.843 260.308 146.696C259.526 147.526 259.135 148.723 259.135 150.287V161.165H254.158V134.859H259.135V143.924C259.775 143.07 260.628 142.407 261.695 141.933C262.761 141.435 263.946 141.186 265.25 141.186ZM280.185 139.125C279.308 139.125 278.573 138.852 277.981 138.307C277.412 137.738 277.127 137.039 277.127 136.21C277.127 135.38 277.412 134.693 277.981 134.148C278.573 133.579 279.308 133.295 280.185 133.295C281.061 133.295 281.784 133.579 282.353 134.148C282.945 134.693 283.242 135.38 283.242 136.21C283.242 137.039 282.945 137.738 282.353 138.307C281.784 138.852 281.061 139.125 280.185 139.125ZM282.637 141.471V161.165H277.661V141.471H282.637ZM329.192 136.352L322.26 161.165H316.394L311.737 143.497L306.867 161.165L301.037 161.2L294.354 136.352H299.686L304.059 155.619L309.107 136.352H314.652L319.416 155.512L323.824 136.352H329.192ZM331.161 151.247C331.161 149.256 331.552 147.49 332.335 145.95C333.14 144.409 334.219 143.224 335.569 142.395C336.944 141.566 338.473 141.151 340.155 141.151C341.624 141.151 342.904 141.447 343.994 142.04C345.108 142.632 345.997 143.379 346.66 144.279V141.471H351.673V161.165H346.66V158.285C346.021 159.209 345.132 159.98 343.994 160.596C342.881 161.188 341.589 161.484 340.12 161.484C338.461 161.484 336.944 161.058 335.569 160.205C334.219 159.352 333.14 158.155 332.335 156.614C331.552 155.05 331.161 153.261 331.161 151.247ZM346.66 151.318C346.66 150.109 346.423 149.078 345.95 148.225C345.476 147.348 344.836 146.685 344.03 146.234C343.224 145.76 342.359 145.523 341.435 145.523C340.511 145.523 339.657 145.748 338.875 146.199C338.093 146.649 337.453 147.313 336.956 148.189C336.482 149.043 336.245 150.062 336.245 151.247C336.245 152.432 336.482 153.474 336.956 154.375C337.453 155.252 338.093 155.927 338.875 156.401C339.681 156.875 340.534 157.112 341.435 157.112C342.359 157.112 343.224 156.887 344.03 156.437C344.836 155.963 345.476 155.299 345.95 154.446C346.423 153.569 346.66 152.526 346.66 151.318ZM361.51 144.528C362.15 143.485 362.98 142.668 363.999 142.075C365.041 141.483 366.226 141.186 367.553 141.186V146.412H366.238C364.674 146.412 363.489 146.779 362.683 147.514C361.901 148.249 361.51 149.528 361.51 151.353V161.165H356.533V141.471H361.51V144.528ZM389.497 141.471V161.165H384.485V158.676C383.845 159.529 383.004 160.205 381.961 160.702C380.942 161.176 379.828 161.413 378.62 161.413C377.079 161.413 375.716 161.093 374.531 160.454C373.347 159.79 372.41 158.83 371.723 157.574C371.06 156.294 370.728 154.778 370.728 153.024V141.471H375.705V152.313C375.705 153.877 376.096 155.086 376.878 155.939C377.66 156.768 378.726 157.183 380.077 157.183C381.452 157.183 382.53 156.768 383.312 155.939C384.094 155.086 384.485 153.877 384.485 152.313V141.471H389.497ZM405.321 141.186C407.667 141.186 409.563 141.933 411.009 143.426C412.454 144.895 413.177 146.957 413.177 149.611V161.165H408.2V150.287C408.2 148.723 407.809 147.526 407.027 146.696C406.245 145.843 405.179 145.417 403.828 145.417C402.453 145.417 401.363 145.843 400.558 146.696C399.775 147.526 399.384 148.723 399.384 150.287V161.165H394.408V141.471H399.384V143.924C400.048 143.07 400.889 142.407 401.908 141.933C402.951 141.435 404.089 141.186 405.321 141.186ZM425.624 141.151C427.093 141.151 428.385 141.447 429.499 142.04C430.612 142.608 431.489 143.355 432.129 144.279V141.471H437.142V161.307C437.142 163.132 436.774 164.755 436.04 166.177C435.305 167.622 434.203 168.76 432.734 169.59C431.264 170.443 429.487 170.869 427.401 170.869C424.605 170.869 422.306 170.218 420.505 168.914C418.727 167.611 417.72 165.833 417.483 163.582H422.425C422.685 164.482 423.242 165.193 424.095 165.715C424.972 166.26 426.027 166.532 427.259 166.532C428.705 166.532 429.878 166.094 430.778 165.217C431.679 164.364 432.129 163.06 432.129 161.307V158.25C431.489 159.174 430.601 159.944 429.463 160.56C428.349 161.176 427.069 161.484 425.624 161.484C423.965 161.484 422.448 161.058 421.074 160.205C419.699 159.352 418.609 158.155 417.803 156.614C417.021 155.05 416.63 153.261 416.63 151.247C416.63 149.256 417.021 147.49 417.803 145.95C418.609 144.409 419.687 143.224 421.038 142.395C422.413 141.566 423.941 141.151 425.624 141.151ZM432.129 151.318C432.129 150.109 431.892 149.078 431.418 148.225C430.944 147.348 430.304 146.685 429.499 146.234C428.693 145.76 427.828 145.523 426.904 145.523C425.979 145.523 425.126 145.748 424.344 146.199C423.562 146.649 422.922 147.313 422.425 148.189C421.951 149.043 421.714 150.062 421.714 151.247C421.714 152.432 421.951 153.474 422.425 154.375C422.922 155.252 423.562 155.927 424.344 156.401C425.15 156.875 426.003 157.112 426.904 157.112C427.828 157.112 428.693 156.887 429.499 156.437C430.304 155.963 430.944 155.299 431.418 154.446C431.892 153.569 432.129 152.526 432.129 151.318ZM457.146 146.376V150.571H442.073V146.376H457.146ZM490.028 141.471L484.269 161.165H478.902L475.311 147.407L471.721 161.165H466.318L460.523 141.471H465.571L469.055 156.472L472.823 141.471H478.084L481.781 156.437L485.265 141.471H490.028ZM491.441 151.247C491.441 149.256 491.832 147.49 492.614 145.95C493.42 144.409 494.498 143.224 495.849 142.395C497.224 141.566 498.752 141.151 500.435 141.151C501.904 141.151 503.184 141.447 504.274 142.04C505.388 142.632 506.277 143.379 506.94 144.279V141.471H511.953V161.165H506.94V158.285C506.3 159.209 505.412 159.98 504.274 160.596C503.16 161.188 501.869 161.484 500.399 161.484C498.741 161.484 497.224 161.058 495.849 160.205C494.498 159.352 493.42 158.155 492.614 156.614C491.832 155.05 491.441 153.261 491.441 151.247ZM506.94 151.318C506.94 150.109 506.703 149.078 506.229 148.225C505.755 147.348 505.116 146.685 504.31 146.234C503.504 145.76 502.639 145.523 501.715 145.523C500.79 145.523 499.937 145.748 499.155 146.199C498.373 146.649 497.733 147.313 497.236 148.189C496.762 149.043 496.525 150.062 496.525 151.247C496.525 152.432 496.762 153.474 497.236 154.375C497.733 155.252 498.373 155.927 499.155 156.401C499.961 156.875 500.814 157.112 501.715 157.112C502.639 157.112 503.504 156.887 504.31 156.437C505.116 155.963 505.755 155.299 506.229 154.446C506.703 153.569 506.94 152.526 506.94 151.318ZM521.79 144.528C522.43 143.485 523.259 142.668 524.278 142.075C525.321 141.483 526.506 141.186 527.833 141.186V146.412H526.518C524.954 146.412 523.769 146.779 522.963 147.514C522.181 148.249 521.79 149.528 521.79 151.353V161.165H516.813V141.471H521.79V144.528ZM549.777 141.471V161.165H544.765V158.676C544.125 159.529 543.284 160.205 542.241 160.702C541.222 161.176 540.108 161.413 538.899 161.413C537.359 161.413 535.996 161.093 534.811 160.454C533.626 159.79 532.69 158.83 532.003 157.574C531.339 156.294 531.008 154.778 531.008 153.024V141.471H535.984V152.313C535.984 153.877 536.375 155.086 537.158 155.939C537.94 156.768 539.006 157.183 540.357 157.183C541.731 157.183 542.81 156.768 543.592 155.939C544.374 155.086 544.765 153.877 544.765 152.313V141.471H549.777ZM565.601 141.186C567.947 141.186 569.843 141.933 571.289 143.426C572.734 144.895 573.457 146.957 573.457 149.611V161.165H568.48V150.287C568.48 148.723 568.089 147.526 567.307 146.696C566.525 145.843 565.459 145.417 564.108 145.417C562.733 145.417 561.643 145.843 560.837 146.696C560.055 147.526 559.664 148.723 559.664 150.287V161.165H554.688V141.471H559.664V143.924C560.328 143.07 561.169 142.407 562.188 141.933C563.231 141.435 564.369 141.186 565.601 141.186ZM585.904 141.151C587.373 141.151 588.665 141.447 589.778 142.04C590.892 142.608 591.769 143.355 592.409 144.279V141.471H597.421V161.307C597.421 163.132 597.054 164.755 596.319 166.177C595.585 167.622 594.483 168.76 593.013 169.59C591.544 170.443 589.767 170.869 587.681 170.869C584.885 170.869 582.586 170.218 580.785 168.914C579.007 167.611 578 165.833 577.763 163.582H582.704C582.965 164.482 583.522 165.193 584.375 165.715C585.252 166.26 586.307 166.532 587.539 166.532C588.985 166.532 590.158 166.094 591.058 165.217C591.959 164.364 592.409 163.06 592.409 161.307V158.25C591.769 159.174 590.88 159.944 589.743 160.56C588.629 161.176 587.349 161.484 585.904 161.484C584.245 161.484 582.728 161.058 581.354 160.205C579.979 159.352 578.889 158.155 578.083 156.614C577.301 155.05 576.91 153.261 576.91 151.247C576.91 149.256 577.301 147.49 578.083 145.95C578.889 144.409 579.967 143.224 581.318 142.395C582.693 141.566 584.221 141.151 585.904 141.151ZM592.409 151.318C592.409 150.109 592.172 149.078 591.698 148.225C591.224 147.348 590.584 146.685 589.778 146.234C588.973 145.76 588.108 145.523 587.183 145.523C586.259 145.523 585.406 145.748 584.624 146.199C583.842 146.649 583.202 147.313 582.704 148.189C582.23 149.043 581.993 150.062 581.993 151.247C581.993 152.432 582.23 153.474 582.704 154.375C583.202 155.252 583.842 155.927 584.624 156.401C585.43 156.875 586.283 157.112 587.183 157.112C588.108 157.112 588.973 156.887 589.778 156.437C590.584 155.963 591.224 155.299 591.698 154.446C592.172 153.569 592.409 152.526 592.409 151.318ZM125.305 189.352V206.77C125.305 209.188 124.606 211.072 123.208 212.423C121.81 213.75 119.937 214.413 117.591 214.413C115.221 214.413 113.302 213.726 111.832 212.352C110.387 210.977 109.664 209.057 109.664 206.593H114.641C114.664 207.659 114.913 208.489 115.387 209.081C115.885 209.674 116.596 209.97 117.52 209.97C118.421 209.97 119.108 209.685 119.582 209.117C120.056 208.548 120.293 207.766 120.293 206.77V189.352H125.305ZM129.831 204.247C129.831 202.256 130.222 200.49 131.004 198.95C131.81 197.409 132.888 196.224 134.239 195.395C135.613 194.566 137.142 194.151 138.825 194.151C140.294 194.151 141.574 194.447 142.664 195.04C143.778 195.632 144.666 196.379 145.33 197.279V194.471H150.342V214.165H145.33V211.285C144.69 212.209 143.801 212.98 142.664 213.596C141.55 214.188 140.258 214.484 138.789 214.484C137.13 214.484 135.613 214.058 134.239 213.205C132.888 212.352 131.81 211.155 131.004 209.614C130.222 208.05 129.831 206.261 129.831 204.247ZM145.33 204.318C145.33 203.109 145.093 202.078 144.619 201.225C144.145 200.348 143.505 199.685 142.699 199.234C141.894 198.76 141.029 198.523 140.104 198.523C139.18 198.523 138.327 198.748 137.545 199.199C136.763 199.649 136.123 200.313 135.625 201.189C135.151 202.043 134.914 203.062 134.914 204.247C134.914 205.432 135.151 206.474 135.625 207.375C136.123 208.252 136.763 208.927 137.545 209.401C138.351 209.875 139.204 210.112 140.104 210.112C141.029 210.112 141.894 209.887 142.699 209.437C143.505 208.963 144.145 208.299 144.619 207.446C145.093 206.569 145.33 205.526 145.33 204.318ZM157.727 192.125C156.826 192.125 156.08 191.852 155.487 191.307C154.919 190.738 154.634 190.039 154.634 189.21C154.634 188.38 154.919 187.693 155.487 187.148C156.08 186.579 156.826 186.295 157.727 186.295C158.604 186.295 159.327 186.579 159.895 187.148C160.464 187.693 160.748 188.38 160.748 189.21C160.748 190.039 160.464 190.738 159.895 191.307C159.327 191.852 158.604 192.125 157.727 192.125ZM160.18 217.399C160.18 219.58 159.635 221.144 158.544 222.092C157.478 223.063 155.938 223.549 153.923 223.549H151.719V219.319H153.141C153.899 219.319 154.433 219.165 154.741 218.857C155.049 218.573 155.203 218.099 155.203 217.435V194.471H160.18V217.399ZM163.817 204.247C163.817 202.256 164.208 200.49 164.99 198.95C165.796 197.409 166.874 196.224 168.225 195.395C169.6 194.566 171.128 194.151 172.811 194.151C174.28 194.151 175.56 194.447 176.65 195.04C177.764 195.632 178.652 196.379 179.316 197.279V194.471H184.328V214.165H179.316V211.285C178.676 212.209 177.787 212.98 176.65 213.596C175.536 214.188 174.244 214.484 172.775 214.484C171.116 214.484 169.6 214.058 168.225 213.205C166.874 212.352 165.796 211.155 164.99 209.614C164.208 208.05 163.817 206.261 163.817 204.247ZM179.316 204.318C179.316 203.109 179.079 202.078 178.605 201.225C178.131 200.348 177.491 199.685 176.685 199.234C175.88 198.76 175.015 198.523 174.09 198.523C173.166 198.523 172.313 198.748 171.531 199.199C170.749 199.649 170.109 200.313 169.611 201.189C169.137 202.043 168.9 203.062 168.9 204.247C168.9 205.432 169.137 206.474 169.611 207.375C170.109 208.252 170.749 208.927 171.531 209.401C172.337 209.875 173.19 210.112 174.09 210.112C175.015 210.112 175.88 209.887 176.685 209.437C177.491 208.963 178.131 208.299 178.605 207.446C179.079 206.569 179.316 205.526 179.316 204.318ZM200.102 194.186C202.449 194.186 204.344 194.933 205.79 196.426C207.236 197.895 207.959 199.957 207.959 202.611V214.165H202.982V203.287C202.982 201.723 202.591 200.526 201.809 199.696C201.027 198.843 199.96 198.417 198.609 198.417C197.235 198.417 196.145 198.843 195.339 199.696C194.557 200.526 194.166 201.723 194.166 203.287V214.165H189.189V194.471H194.166V196.924C194.829 196.07 195.671 195.407 196.69 194.933C197.732 194.435 198.87 194.186 200.102 194.186ZM211.411 204.247C211.411 202.256 211.802 200.49 212.585 198.95C213.39 197.409 214.469 196.224 215.819 195.395C217.194 194.566 218.723 194.151 220.405 194.151C221.875 194.151 223.154 194.447 224.244 195.04C225.358 195.632 226.247 196.379 226.911 197.279V194.471H231.923V214.165H226.911V211.285C226.271 212.209 225.382 212.98 224.244 213.596C223.131 214.188 221.839 214.484 220.37 214.484C218.711 214.484 217.194 214.058 215.819 213.205C214.469 212.352 213.39 211.155 212.585 209.614C211.802 208.05 211.411 206.261 211.411 204.247ZM226.911 204.318C226.911 203.109 226.674 202.078 226.2 201.225C225.726 200.348 225.086 199.685 224.28 199.234C223.474 198.76 222.609 198.523 221.685 198.523C220.761 198.523 219.908 198.748 219.125 199.199C218.343 199.649 217.704 200.313 217.206 201.189C216.732 202.043 216.495 203.062 216.495 204.247C216.495 205.432 216.732 206.474 217.206 207.375C217.704 208.252 218.343 208.927 219.125 209.401C219.931 209.875 220.784 210.112 221.685 210.112C222.609 210.112 223.474 209.887 224.28 209.437C225.086 208.963 225.726 208.299 226.2 207.446C226.674 206.569 226.911 205.526 226.911 204.318ZM247.697 194.186C250.043 194.186 251.939 194.933 253.385 196.426C254.83 197.895 255.553 199.957 255.553 202.611V214.165H250.576V203.287C250.576 201.723 250.185 200.526 249.403 199.696C248.621 198.843 247.555 198.417 246.204 198.417C244.829 198.417 243.739 198.843 242.933 199.696C242.151 200.526 241.76 201.723 241.76 203.287V214.165H236.784V194.471H241.76V196.924C242.424 196.07 243.265 195.407 244.284 194.933C245.327 194.435 246.465 194.186 247.697 194.186ZM285.642 189.352V193.369H279.03V214.165H274.053V193.369H267.441V189.352H285.642ZM307.58 203.891C307.58 204.602 307.533 205.242 307.438 205.811H293.041C293.159 207.233 293.657 208.346 294.534 209.152C295.411 209.958 296.489 210.361 297.769 210.361C299.617 210.361 300.933 209.567 301.715 207.979H307.083C306.514 209.875 305.424 211.439 303.812 212.672C302.201 213.88 300.222 214.484 297.876 214.484C295.98 214.484 294.273 214.07 292.757 213.24C291.264 212.387 290.09 211.19 289.237 209.65C288.408 208.109 287.993 206.332 287.993 204.318C287.993 202.28 288.408 200.49 289.237 198.95C290.067 197.409 291.228 196.224 292.721 195.395C294.214 194.566 295.932 194.151 297.876 194.151C299.748 194.151 301.419 194.554 302.888 195.359C304.381 196.165 305.53 197.315 306.336 198.808C307.165 200.277 307.58 201.971 307.58 203.891ZM302.426 202.469C302.402 201.189 301.94 200.17 301.039 199.412C300.139 198.63 299.037 198.239 297.733 198.239C296.501 198.239 295.458 198.618 294.605 199.376C293.776 200.111 293.266 201.142 293.077 202.469H302.426ZM316.19 197.528C316.829 196.485 317.659 195.668 318.678 195.075C319.721 194.483 320.906 194.186 322.233 194.186V199.412H320.918C319.353 199.412 318.168 199.779 317.363 200.514C316.581 201.249 316.19 202.528 316.19 204.353V214.165H311.213V194.471H316.19V197.528ZM330.562 197.35C331.202 196.402 332.078 195.632 333.192 195.04C334.33 194.447 335.621 194.151 337.067 194.151C338.75 194.151 340.266 194.566 341.617 195.395C342.992 196.224 344.07 197.409 344.852 198.95C345.658 200.467 346.061 202.232 346.061 204.247C346.061 206.261 345.658 208.05 344.852 209.614C344.07 211.155 342.992 212.352 341.617 213.205C340.266 214.058 338.75 214.484 337.067 214.484C335.598 214.484 334.306 214.2 333.192 213.631C332.102 213.039 331.225 212.28 330.562 211.356V214.165H325.585V187.859H330.562V197.35ZM340.977 204.247C340.977 203.062 340.728 202.043 340.231 201.189C339.757 200.313 339.117 199.649 338.311 199.199C337.529 198.748 336.676 198.523 335.752 198.523C334.851 198.523 333.998 198.76 333.192 199.234C332.41 199.685 331.77 200.348 331.273 201.225C330.799 202.102 330.562 203.133 330.562 204.318C330.562 205.503 330.799 206.534 331.273 207.41C331.77 208.287 332.41 208.963 333.192 209.437C333.998 209.887 334.851 210.112 335.752 210.112C336.676 210.112 337.529 209.875 338.311 209.401C339.117 208.927 339.757 208.252 340.231 207.375C340.728 206.498 340.977 205.455 340.977 204.247ZM348.397 204.247C348.397 202.256 348.789 200.49 349.571 198.95C350.376 197.409 351.455 196.224 352.805 195.395C354.18 194.566 355.709 194.151 357.391 194.151C358.861 194.151 360.14 194.447 361.23 195.04C362.344 195.632 363.233 196.379 363.897 197.279V194.471H368.909V214.165H363.897V211.285C363.257 212.209 362.368 212.98 361.23 213.596C360.117 214.188 358.825 214.484 357.356 214.484C355.697 214.484 354.18 214.058 352.805 213.205C351.455 212.352 350.376 211.155 349.571 209.614C348.789 208.05 348.397 206.261 348.397 204.247ZM363.897 204.318C363.897 203.109 363.66 202.078 363.186 201.225C362.712 200.348 362.072 199.685 361.266 199.234C360.46 198.76 359.595 198.523 358.671 198.523C357.747 198.523 356.894 198.748 356.111 199.199C355.329 199.649 354.69 200.313 354.192 201.189C353.718 202.043 353.481 203.062 353.481 204.247C353.481 205.432 353.718 206.474 354.192 207.375C354.69 208.252 355.329 208.927 356.111 209.401C356.917 209.875 357.77 210.112 358.671 210.112C359.595 210.112 360.46 209.887 361.266 209.437C362.072 208.963 362.712 208.299 363.186 207.446C363.66 206.569 363.897 205.526 363.897 204.318ZM376.293 192.125C375.417 192.125 374.682 191.852 374.089 191.307C373.521 190.738 373.236 190.039 373.236 189.21C373.236 188.38 373.521 187.693 374.089 187.148C374.682 186.579 375.417 186.295 376.293 186.295C377.17 186.295 377.893 186.579 378.462 187.148C379.054 187.693 379.351 188.38 379.351 189.21C379.351 190.039 379.054 190.738 378.462 191.307C377.893 191.852 377.17 192.125 376.293 192.125ZM378.746 194.471V214.165H373.77V194.471H378.746ZM395.323 214.165L388.64 205.775V214.165H383.663V187.859H388.64V202.825L395.252 194.471H401.722L393.048 204.353L401.793 214.165H395.323ZM411.614 204.247C411.614 202.256 412.005 200.49 412.787 198.95C413.593 197.409 414.683 196.224 416.057 195.395C417.432 194.566 418.96 194.151 420.643 194.151C421.923 194.151 423.143 194.435 424.305 195.004C425.466 195.549 426.39 196.284 427.077 197.208V187.859H432.125V214.165H427.077V211.25C426.461 212.221 425.596 213.003 424.482 213.596C423.368 214.188 422.077 214.484 420.607 214.484C418.949 214.484 417.432 214.058 416.057 213.205C414.683 212.352 413.593 211.155 412.787 209.614C412.005 208.05 411.614 206.261 411.614 204.247ZM427.113 204.318C427.113 203.109 426.876 202.078 426.402 201.225C425.928 200.348 425.288 199.685 424.482 199.234C423.676 198.76 422.811 198.523 421.887 198.523C420.963 198.523 420.11 198.748 419.328 199.199C418.546 199.649 417.906 200.313 417.408 201.189C416.934 202.043 416.697 203.062 416.697 204.247C416.697 205.432 416.934 206.474 417.408 207.375C417.906 208.252 418.546 208.927 419.328 209.401C420.134 209.875 420.987 210.112 421.887 210.112C422.811 210.112 423.676 209.887 424.482 209.437C425.288 208.963 425.928 208.299 426.402 207.446C426.876 206.569 427.113 205.526 427.113 204.318ZM439.51 192.125C438.633 192.125 437.898 191.852 437.306 191.307C436.737 190.738 436.453 190.039 436.453 189.21C436.453 188.38 436.737 187.693 437.306 187.148C437.898 186.579 438.633 186.295 439.51 186.295C440.387 186.295 441.109 186.579 441.678 187.148C442.271 187.693 442.567 188.38 442.567 189.21C442.567 190.039 442.271 190.738 441.678 191.307C441.109 191.852 440.387 192.125 439.51 192.125ZM441.963 194.471V214.165H436.986V194.471H441.963ZM488.517 189.352L481.585 214.165H475.719L471.063 196.497L466.192 214.165L460.362 214.2L453.679 189.352H459.012L463.384 208.619L468.432 189.352H473.977L478.741 208.512L483.149 189.352H488.517ZM490.487 204.247C490.487 202.256 490.878 200.49 491.66 198.95C492.465 197.409 493.544 196.224 494.895 195.395C496.269 194.566 497.798 194.151 499.48 194.151C500.95 194.151 502.229 194.447 503.32 195.04C504.433 195.632 505.322 196.379 505.986 197.279V194.471H510.998V214.165H505.986V211.285C505.346 212.209 504.457 212.98 503.32 213.596C502.206 214.188 500.914 214.484 499.445 214.484C497.786 214.484 496.269 214.058 494.895 213.205C493.544 212.352 492.465 211.155 491.66 209.614C490.878 208.05 490.487 206.261 490.487 204.247ZM505.986 204.318C505.986 203.109 505.749 202.078 505.275 201.225C504.801 200.348 504.161 199.685 503.355 199.234C502.549 198.76 501.684 198.523 500.76 198.523C499.836 198.523 498.983 198.748 498.201 199.199C497.419 199.649 496.779 200.313 496.281 201.189C495.807 202.043 495.57 203.062 495.57 204.247C495.57 205.432 495.807 206.474 496.281 207.375C496.779 208.252 497.419 208.927 498.201 209.401C499.006 209.875 499.86 210.112 500.76 210.112C501.684 210.112 502.549 209.887 503.355 209.437C504.161 208.963 504.801 208.299 505.275 207.446C505.749 206.569 505.986 205.526 505.986 204.318ZM520.835 197.528C521.475 196.485 522.305 195.668 523.324 195.075C524.367 194.483 525.551 194.186 526.879 194.186V199.412H525.563C523.999 199.412 522.814 199.779 522.009 200.514C521.226 201.249 520.835 202.528 520.835 204.353V214.165H515.859V194.471H520.835V197.528ZM549.071 194.471L536.878 223.478H531.582L535.847 213.667L527.956 194.471H533.537L538.62 208.228L543.775 194.471H549.071ZM570.346 194.471V214.165H565.334V211.676C564.694 212.529 563.852 213.205 562.81 213.702C561.791 214.176 560.677 214.413 559.468 214.413C557.928 214.413 556.565 214.093 555.38 213.454C554.195 212.79 553.259 211.83 552.572 210.574C551.908 209.294 551.576 207.778 551.576 206.024V194.471H556.553V205.313C556.553 206.877 556.944 208.086 557.726 208.939C558.508 209.768 559.575 210.183 560.926 210.183C562.3 210.183 563.378 209.768 564.16 208.939C564.943 208.086 565.334 206.877 565.334 205.313V194.471H570.346ZM586.17 194.186C588.516 194.186 590.412 194.933 591.857 196.426C593.303 197.895 594.026 199.957 594.026 202.611V214.165H589.049V203.287C589.049 201.723 588.658 200.526 587.876 199.696C587.094 198.843 586.027 198.417 584.677 198.417C583.302 198.417 582.212 198.843 581.406 199.696C580.624 200.526 580.233 201.723 580.233 203.287V214.165H575.256V194.471H580.233V196.924C580.897 196.07 581.738 195.407 582.757 194.933C583.8 194.435 584.937 194.186 586.17 194.186ZM606.472 194.151C607.942 194.151 609.233 194.447 610.347 195.04C611.461 195.608 612.338 196.355 612.978 197.279V194.471H617.99V214.307C617.99 216.132 617.623 217.755 616.888 219.177C616.153 220.622 615.051 221.76 613.582 222.59C612.113 223.443 610.335 223.869 608.25 223.869C605.453 223.869 603.155 223.218 601.353 221.914C599.576 220.611 598.569 218.833 598.332 216.582H603.273C603.534 217.482 604.091 218.193 604.944 218.715C605.821 219.26 606.875 219.532 608.108 219.532C609.553 219.532 610.726 219.094 611.627 218.217C612.528 217.364 612.978 216.06 612.978 214.307V211.25C612.338 212.174 611.449 212.944 610.312 213.56C609.198 214.176 607.918 214.484 606.472 214.484C604.814 214.484 603.297 214.058 601.922 213.205C600.548 212.352 599.458 211.155 598.652 209.614C597.87 208.05 597.479 206.261 597.479 204.247C597.479 202.256 597.87 200.49 598.652 198.95C599.458 197.409 600.536 196.224 601.887 195.395C603.261 194.566 604.79 194.151 606.472 194.151ZM612.978 204.318C612.978 203.109 612.741 202.078 612.267 201.225C611.793 200.348 611.153 199.685 610.347 199.234C609.541 198.76 608.676 198.523 607.752 198.523C606.828 198.523 605.975 198.748 605.193 199.199C604.411 199.649 603.771 200.313 603.273 201.189C602.799 202.043 602.562 203.062 602.562 204.247C602.562 205.432 602.799 206.474 603.273 207.375C603.771 208.252 604.411 208.927 605.193 209.401C605.998 209.875 606.852 210.112 607.752 210.112C608.676 210.112 609.541 209.887 610.347 209.437C611.153 208.963 611.793 208.299 612.267 207.446C612.741 206.569 612.978 205.526 612.978 204.318ZM629.285 188.925L628.716 206.095H624.522L623.917 188.925H629.285ZM626.726 214.413C625.825 214.413 625.079 214.141 624.486 213.596C623.917 213.027 623.633 212.328 623.633 211.498C623.633 210.669 623.917 209.982 624.486 209.437C625.079 208.868 625.825 208.583 626.726 208.583C627.602 208.583 628.325 208.868 628.894 209.437C629.463 209.982 629.747 210.669 629.747 211.498C629.747 212.328 629.463 213.027 628.894 213.596C628.325 214.141 627.602 214.413 626.726 214.413Z" fill="#286100"/>
</svg>
