<svg width="112" height="80" viewBox="0 0 112 80" fill="none" xmlns="http://www.w3.org/2000/svg">
<path d="M94.6657 8.54622C84.9773 5.06833 61.9984 -1.2664 47.59 1.21781C39.2679 2.00447 20.686 4.91928 12.9353 10.2852C8.09965 12.3817 0.20947 18.61 0.403158 28.7263C1.97532 33.4462 8.79628 43.8551 23.5028 47.7304L32.6847 50.3389C33.6752 50.6701 35.0618 51.3325 32.6847 51.3325C28.8374 50.6701 20.9441 49.4446 20.1491 49.842C18.2446 49.7592 14.9323 50.8109 16.9196 55.6799C18.9484 59.4476 25.3163 67.8525 34.5575 71.3304C36.6206 71.8162 39.337 72.4099 42.2709 72.9835C49.8764 74.4705 58.9439 75.8224 61.8838 74.8083C63.6574 74.6231 67.2844 73.9847 71.5122 72.6922C73.9 71.9622 76.4795 71.0235 79.0249 69.8399C82.7512 67.4385 90.6013 61.5675 92.1912 57.2947C94.6372 54.562 97.6642 49.221 90.2038 49.7178L79.3975 50.7115C86.1049 48.7241 100.414 43.8054 103.991 40.0294C106.576 37.0747 111.728 30.9228 111.839 29.7501C111.839 29.74 111.84 29.73 111.84 29.7199C112.232 22.8534 108.746 14.3124 94.6657 8.54622Z" fill="#6A98C5"/>
<path d="M1.88053 36.1209C5.11 45.1469 15.7921 65.0123 32.6847 72.2662C36.0553 73.8503 38.003 73.532 42.2709 72.9835C47.1416 72.3575 55.0342 71.4318 71.5122 72.6922C72.8768 72.7965 74.3003 72.9159 75.7858 73.0517C77.4964 72.3301 79.1977 71.4927 80.8784 70.5272C87.6685 66.6767 102.864 54.7773 109.323 37.9841C110.558 35.9568 111.645 33.0476 111.839 29.7501C111.728 30.9228 106.576 37.0747 103.991 40.0294C100.414 43.8054 86.1049 48.7241 79.3975 50.7115L90.2038 49.7178C97.6642 49.221 94.6372 54.562 92.1912 57.2947C90.6013 61.5675 82.7512 67.4385 79.0249 69.8399C76.4795 71.0235 73.9 71.9622 71.5122 72.6922C67.2844 73.9847 63.6574 74.6231 61.8838 74.8083C58.9439 75.8224 49.8764 74.4705 42.2709 72.9835C39.337 72.4099 36.6206 71.8162 34.5575 71.3304C25.3163 67.8525 18.9484 59.4476 16.9196 55.6799C14.9323 50.8109 18.2446 49.7592 20.1491 49.842C20.9441 49.4446 28.8374 50.6701 32.6847 51.3325C35.0618 51.3325 33.6752 50.6701 32.6847 50.3389L23.5028 47.7304C8.79628 43.8551 1.97532 33.4462 0.403158 28.7263C0.446621 30.9963 0.897129 33.4621 1.88053 36.1209Z" fill="#4672B1"/>
<path d="M42.2709 72.9835C38.003 73.532 36.0553 73.8503 32.6847 72.2662C39.1023 77.3028 56.707 84.5112 75.7858 73.0517C74.3003 72.9159 72.8768 72.7965 71.5122 72.6922C67.2844 73.9847 63.6574 74.6231 61.8838 74.8083C58.9439 75.8224 49.8764 74.4705 42.2709 72.9835Z" fill="#4672B1"/>
<path d="M11.703 39.3523C12.5922 40.0118 13.5595 40.6712 14.6077 41.3217C12.175 39.6044 12.3476 35.8754 12.8172 33.8188C12.8581 33.6397 12.9012 33.4733 12.9451 33.322L11.703 31.9556C10.3119 34.1417 11.1234 37.7976 11.703 39.3523Z" fill="#C8A02E"/>
<path d="M12.9451 33.322C12.9012 33.4733 12.8581 33.6397 12.8172 33.8188C13.3981 36.3365 15.5287 41.6001 19.4041 42.5135C23.2794 43.4269 24.8279 43.3909 25.1177 43.2588C18.8575 41.7554 14.3942 36.0078 12.9451 33.322Z" fill="#C8A02E"/>
<path d="M25.1177 43.2588C25.9481 43.8798 27.9612 45.0226 29.3708 44.6251C29.3142 44.31 29.2713 43.9857 29.2456 43.6553C26.0889 43.2769 25.1784 40.335 25.1177 38.9114C23.7266 40.7994 24.5381 42.5963 25.1177 43.2588Z" fill="#C8A02E"/>
<path d="M29.5233 40.7746C29.6807 40.2423 29.9051 39.7154 30.2104 39.2052C29.5893 37.9066 28.1236 35.7316 27.2293 37.4209C26.335 39.1102 28.386 40.3605 29.5233 40.7746Z" fill="#C8A02E"/>
<path d="M41.3804 41.7683C43.0626 40.8739 46.3047 41.6441 47.7155 42.1409C47.8042 41.5967 47.9388 41.0556 48.1073 40.5262C46.1284 38.9363 41.2308 39.1928 39.0293 39.5198C39.4606 39.9345 39.8979 40.3539 40.3381 40.7746C40.6843 41.1055 41.0323 41.4373 41.3804 41.7683Z" fill="#C8A02E"/>
<path d="M45.2398 45.3928C45.5379 45.1126 47.0695 45.1783 47.7981 45.2462C47.64 44.6192 47.5808 43.973 47.5998 43.3224C46.3577 43.2757 43.7742 43.2769 43.3767 43.6553C44.0111 44.2512 44.6356 44.8338 45.2398 45.3928Z" fill="#C8A02E"/>
<path d="M37.2904 31.7072C41.9607 37.0731 47.1945 38.0834 49.2276 37.9177C49.5168 37.3806 49.8232 36.8793 50.1278 36.4272C44.3 36.4272 39.8865 32.2869 38.4083 30.2167L37.2904 31.7072Z" fill="#C8A02E"/>
<path d="M39.7746 29.8441C42.0932 31.9556 47.575 36.0049 50.9535 35.3093C52.9409 35.3921 57.164 35.4087 58.1577 34.8125C54.6384 33.3634 47.1775 30.5148 45.4883 30.7135L40.3381 27.4841L39.0293 29.223L39.7746 29.8441Z" fill="#C8A02E"/>
<path d="M58.1577 34.8125H62.0082C62.2367 34.2683 62.5305 33.7653 62.8777 33.3008C59.4085 32.9766 51.8086 31.5777 49.2146 29.0935C47.9227 29.1995 46.5268 29.12 45.1156 28.7262L45.4883 30.7135C47.1775 30.5148 54.6384 33.3634 58.1577 34.8125Z" fill="#C8A02E"/>
<path d="M39.7746 24.7514C41.5549 25.9521 47.103 28.13 55.0525 27.2356L56.4188 25.8253C54.2855 26.0502 52.3327 26.0533 50.5809 25.9121C50.1108 25.8743 49.6553 25.826 49.2146 25.7688C45.0243 25.2253 42.1782 23.8778 41.0167 23.0125L39.7746 24.7514Z" fill="#C8A02E"/>
<path d="M44.8672 19.5346C43.2773 21.3232 47.103 24.436 49.2146 25.7688C49.6553 25.826 50.1108 25.8743 50.5809 25.9121C46.2087 20.5805 44.95 19.4389 44.8672 19.5346Z" fill="#C8A02E"/>
<path d="M61.6285 38.9877C61.6298 38.3829 61.661 37.7575 61.7068 37.1725C57.7891 34.4895 53.7416 35.5577 52.2076 36.4272C52.8312 36.8666 53.6464 37.37 54.6031 37.9177C57.5227 36.6361 60.5032 38.097 61.6285 38.9877Z" fill="#C8A02E"/>
<path d="M101.631 31.2104C103.619 30.8129 104.798 34.6055 105.139 36.5514C105.667 35.9929 106.159 35.4132 106.606 34.8125C105.518 29.8441 100.021 28.2707 97.4082 28.1051L96.5387 29.7199C98.6255 29.7199 99.1472 30.7135 99.1472 31.2104C97.1598 34.3902 92.6438 36.51 90.6342 37.1725C90.6445 37.7664 90.6044 38.3759 90.5254 38.9877C94.3598 39.2475 99.5271 33.9111 101.631 31.2104Z" fill="#D4A33A"/>
<path d="M100.141 33.6946C100.836 34.3902 100.679 38.455 100.513 40.4005C101.468 39.7582 102.386 39.0709 103.246 38.3394C104.488 33.2957 99.2714 32.8251 100.141 33.6946Z" fill="#D4A33A"/>
<path d="M96.5387 37.5451C96.7375 38.3401 94.6342 42.2725 93.5577 44.1393C95.0374 43.5059 96.5519 42.7695 98.0293 41.933C99.2217 37.6926 98.7745 36.5784 98.4019 36.5514C97.698 36.5514 96.34 36.7502 96.5387 37.5451Z" fill="#D4A33A"/>
<path d="M89.6581 42.6377C89.209 43.9794 88.6738 45.1794 88.207 46.0577C88.5729 45.9525 88.9494 45.8385 89.3345 45.7158L94.924 38.663L92.291 40.6504L89.6581 42.6377Z" fill="#DB9E4D"/>
<path fill-rule="evenodd" clip-rule="evenodd" d="M49.2348 29.0918L49.2352 29.0918C49.3919 29.0787 49.5471 29.0629 49.7006 29.0445C49.547 29.0629 49.3917 29.0787 49.2348 29.0918Z" fill="#D9D9D9"/>
<path fill-rule="evenodd" clip-rule="evenodd" d="M67.2251 30.0407C67.9192 29.7012 61.9662 25.3794 58.903 23.2609L56.4188 25.8253L55.0525 27.2356C54.0906 27.8595 52.1037 28.7577 49.7006 29.0445C49.5471 29.0629 49.3919 29.0787 49.2352 29.0918L49.2348 29.0918L49.2146 29.0935C51.8086 31.5777 59.4085 32.9766 62.8777 33.3008C63.9392 31.8808 65.5006 30.8203 67.2251 30.0407ZM57.0398 27.7325L53.0651 30.4651C55.3423 31.3346 60.0457 32.4028 60.6419 29.7199C61.2381 27.0369 58.4889 27.277 57.0398 27.7325Z" fill="#C8A02E"/>
<path d="M76.1682 28.1051C81.8322 27.6083 87.1402 31.0448 89.0861 32.8251C90.1756 33.9486 90.6052 35.4982 90.6342 37.1725C92.6438 36.51 97.1598 34.3902 99.1472 31.2104C99.1472 30.7135 98.6255 29.7199 96.5387 29.7199L97.4082 28.1051C100.021 28.2707 105.518 29.8441 106.606 34.8125C106.878 34.4476 107.133 34.0749 107.37 33.6946C107.696 31.4091 105.088 29.2644 103.743 28.4777C104.42 27.3847 103.694 24.7928 103.246 23.6335H101.01L102.252 27.2356L98.8987 26.3662L97.4082 23.0125C98.7994 20.6928 94.5764 17.5744 92.291 16.3051H91.3219C90.5466 17.3982 93.4003 18.9135 94.924 19.5346C96.0833 20.7767 98.0293 23.087 96.5387 22.3914C95.0482 21.6959 91.9088 21.0251 90.5254 20.7767L64.3682 13.4483C61.7847 10.0167 56.2532 11.0248 53.8104 11.9578C49.0407 9.07608 42.4658 13.1585 39.7746 15.5599C12.2495 13.8176 7.10723 28.5759 7.9767 36.1728C8.64155 36.8328 9.38586 37.5079 10.2125 38.1882C10.6825 38.5751 11.1792 38.9637 11.703 39.3523C11.1234 37.7976 10.3119 34.1417 11.703 31.9556L12.9451 33.322C14.3942 36.0078 18.8575 41.7554 25.1177 43.2588C24.5381 42.5963 23.7266 40.7994 25.1177 38.9114C25.1784 40.335 26.0889 43.2769 29.2456 43.6553C29.2165 43.2812 29.2095 42.8992 29.23 42.5135C29.2605 41.9371 29.3524 41.3527 29.5233 40.7746C28.386 40.3605 26.335 39.1102 27.2293 37.4209C28.1236 35.7316 29.5893 37.9066 30.2104 39.2052C30.5303 38.6706 30.939 38.1543 31.4525 37.6693L34.1851 34.8125C34.855 35.4709 35.61 36.2091 36.4209 36.9976C37.2431 37.797 38.1227 38.6481 39.0293 39.5198C41.2308 39.1928 46.1284 38.9363 48.1073 40.5262C48.1604 40.3593 48.2168 40.1936 48.2762 40.0293C48.4046 39.6745 48.5468 39.3264 48.6991 38.9877C48.865 38.6188 49.0428 38.2609 49.2276 37.9177C47.1945 38.0834 41.9607 37.0731 37.2904 31.7072L38.4083 30.2167C39.8865 32.2869 44.3 36.4272 50.1278 36.4272C50.4096 36.0088 50.6899 35.6327 50.9535 35.3093C47.575 36.0049 42.0932 31.9556 39.7746 29.8441L39.0293 29.223L40.3381 27.4841L45.4883 30.7135L45.1156 28.7262C46.5268 29.12 47.9227 29.1995 49.2146 29.0935L49.2348 29.0918L49.2352 29.0918C49.3919 29.0787 49.5471 29.0629 49.7006 29.0445C52.1037 28.7577 54.0906 27.8595 55.0525 27.2356C47.103 28.13 41.5549 25.9521 39.7746 24.7514L41.0167 23.0125C42.1782 23.8778 45.0243 25.2253 49.2146 25.7688C47.103 24.436 43.2773 21.3232 44.8672 19.5346C44.95 19.4389 46.2087 20.5805 50.5809 25.9121C52.3327 26.0533 54.2855 26.0502 56.4188 25.8253L58.903 23.2609C61.9662 25.3794 67.9192 29.7012 67.2251 30.0407C70.3346 28.6351 73.974 28.1432 76.1682 28.1051Z" fill="#E1C377"/>
<path d="M28.4714 11.2125C11.9763 13.8954 5.52746 25.8721 4.36494 31.5251C5.07149 32.8625 6.25888 34.4675 7.9767 36.1728C7.10723 28.5759 12.2495 13.8176 39.7746 15.5599C42.4658 13.1585 49.0407 9.07608 53.8104 11.9578C56.2532 11.0248 61.7847 10.0167 64.3682 13.4483L90.5254 20.7767C91.9088 21.0251 95.0482 21.6959 96.5387 22.3914C98.0293 23.087 96.0833 20.7767 94.924 19.5346C93.4003 18.9135 90.5466 17.3982 91.3219 16.3051H92.291C94.5764 17.5744 98.7994 20.6928 97.4082 23.0125L98.8987 26.3662L102.252 27.2356L101.01 23.6335H103.246C103.694 24.7928 104.42 27.3847 103.743 28.4777C105.088 29.2644 107.696 31.4091 107.37 33.6946C108.237 32.3052 108.863 30.8136 109.164 29.223C107.341 23.2609 100.567 18.1269 97.4082 16.3051C94.2284 13.8672 85.6496 10.9006 81.7577 9.72197H69.5851C67.399 8.52955 61.2216 7.81741 58.4061 7.61039C50.9535 5.87145 39.7746 7.98302 39.7746 8.60408C39.7746 9.10092 32.2391 10.55 28.4714 11.2125Z" fill="#E5D5A7"/>
<path d="M31.4525 44.6251C29.8626 42.5384 30.79 39.1184 31.4525 37.6693C30.939 38.1543 30.5303 38.6706 30.2104 39.2052C29.9051 39.7154 29.6807 40.2423 29.5233 40.7746C29.3524 41.3527 29.2605 41.9371 29.23 42.5135C29.2095 42.8992 29.2165 43.2812 29.2456 43.6553C29.2713 43.9857 29.3142 44.31 29.3708 44.6251C29.4405 45.0136 29.5309 45.388 29.6351 45.743C29.8995 46.6436 30.2529 47.4183 30.583 47.9759C31.9717 48.3412 33.42 48.6784 34.9293 48.983L31.4525 44.6251Z" fill="#D13C3B"/>
<path d="M34.1851 34.8125L31.4525 37.6693C30.79 39.1184 29.8626 42.5384 31.4525 44.6251L34.9293 48.983C35.258 49.0493 35.5896 49.1141 35.9241 49.1773L32.1977 44.1283C31.7837 43.5486 31.2041 41.9173 32.1977 40.0293L34.1851 34.8125Z" fill="#E6A88B"/>
<path d="M32.1977 44.1283L35.9241 49.1773C37.4374 49.4631 39.0103 49.7163 40.644 49.9323C34.5383 46.5267 35.2846 42.7196 36.4209 41.2417C35.0326 40.9559 37.4404 40.0145 39.0293 39.5198C38.1227 38.6481 37.2431 37.797 36.4209 36.9976C35.61 36.2091 34.855 35.4709 34.1851 34.8125L32.1977 40.0293C31.2041 41.9173 31.7837 43.5486 32.1977 44.1283Z" fill="#DD5B78"/>
<path d="M37.2904 41.3217C37.7872 41.3049 38.6318 41.5198 38.0356 42.5135C37.2904 43.0932 36.4954 44.327 39.2777 44.6251C39.6504 46.157 41.0664 48.8234 43.7493 47.2335C44.0805 47.0805 44.8424 47.0147 45.2398 47.9759C45.6125 48.9705 46.6061 50.4878 47.5998 48.5998V47.5448C46.8693 46.8905 46.0738 46.1642 45.2398 45.3928C44.6356 44.8338 44.0111 44.2512 43.3767 43.6553C42.7183 43.0368 42.0491 42.404 41.3804 41.7683C41.0323 41.4373 40.6843 41.1055 40.3381 40.7746C39.8979 40.3539 39.4606 39.9345 39.0293 39.5198C37.4404 40.0145 35.0326 40.9559 36.4209 41.2417C36.6243 41.2836 36.9093 41.3114 37.2904 41.3217Z" fill="#F0B27C"/>
<path d="M38.0356 42.5135C38.6318 41.5198 37.7872 41.3049 37.2904 41.3217C36.9093 41.3114 36.6243 41.2836 36.4209 41.2417C35.2846 42.7196 34.5383 46.5267 40.644 49.9323C44.0431 50.3817 47.7056 50.6703 51.6435 50.7582C51.2322 50.6864 49.6795 49.4076 47.5998 47.5448V48.5998C46.6061 50.4878 45.6125 48.9705 45.2398 47.9759C44.8424 47.0147 44.0805 47.0805 43.7493 47.2335C41.0664 48.8234 39.6504 46.157 39.2777 44.6251C36.4954 44.327 37.2904 43.0932 38.0356 42.5135Z" fill="#C94331"/>
<path d="M52.7723 50.7777C53.7205 50.7894 54.6843 50.7896 55.6638 50.7777C56.8525 50.7242 58.2435 50.6482 59.7725 50.5487L56.1704 48.983C53.3809 47.9194 48.9327 45.752 48.8419 43.7556C48.6304 43.3416 48.2211 42.0167 48.2762 40.0293C48.2168 40.1936 48.1604 40.3593 48.1073 40.5262C47.9388 41.0556 47.8042 41.5967 47.7155 42.1409C47.6514 42.5342 47.6113 42.9291 47.5998 43.3224C47.5808 43.973 47.64 44.6192 47.7981 45.2462C48.0691 46.3207 48.6306 47.339 49.5872 48.2272C50.4685 49.0756 52.3393 50.7734 52.7723 50.7777Z" fill="#D13C3B"/>
<path d="M50.9535 44.6251C49.4985 43.5321 50.3473 37.9591 50.9535 35.3093C50.6899 35.6327 50.4096 36.0088 50.1278 36.4272C49.8232 36.8793 49.5168 37.3806 49.2276 37.9177C49.0428 38.2609 48.865 38.6188 48.6991 38.9877C48.5468 39.3264 48.4046 39.6745 48.2762 40.0293C48.2211 42.0167 48.6304 43.3416 48.8419 43.7556C48.9327 45.752 53.3809 47.9194 56.1704 48.983C56.4355 49.0841 56.6856 49.1752 56.9156 49.2553C53.3384 47.2954 51.4504 45.3519 50.9535 44.6251Z" fill="#E6A88B"/>
<path d="M73.5598 49.2553C73.9573 49.2054 74.7191 48.2179 75.0503 47.7304C73.5325 47.0726 71.6912 46.2583 69.7093 45.36C69.908 47.2396 67.7219 48.3031 66.604 48.5998C65.6103 48.8979 62.4637 48.4756 61.0146 48.2272C54.5556 46.9945 53.5205 43.4076 53.8104 41.7683C53.791 41.6131 53.7919 41.4642 53.8104 41.3217C53.9809 40.0039 55.6463 39.2263 56.543 38.9877C55.8495 38.6171 55.1989 38.2588 54.6031 37.9177C53.6464 37.37 52.8312 36.8666 52.2076 36.4272C51.5753 35.9818 51.14 35.6023 50.9535 35.3093C50.3473 37.9591 49.4985 43.5321 50.9535 44.6251C51.4504 45.3519 53.3384 47.2954 56.9156 49.2553C56.6856 49.1752 56.4355 49.0841 56.1704 48.983L59.7725 50.5487C63.8024 50.2865 68.7911 49.8612 73.5598 49.2553Z" fill="#DD5B78"/>
<path d="M53.8104 41.7683C53.5205 43.4076 54.5556 46.9945 61.0146 48.2272C62.4637 48.4756 65.6103 48.8979 66.604 48.5998C67.7219 48.3031 69.908 47.2396 69.7093 45.36C68.7025 44.9036 67.6594 44.4256 66.604 43.9354L66.9767 45.36C66.7779 47.6371 65.5689 46.5641 64.9893 45.743C64.2937 44.6499 63.2918 44.7907 62.8777 44.9977C60.9897 47.5813 58.9444 45.2462 58.1577 43.7556C55.5741 44.3518 55.7563 42.6791 56.1704 41.7683C55.8722 40.7746 54.4728 41.0565 53.8104 41.3217C53.7919 41.4642 53.791 41.6131 53.8104 41.7683Z" fill="#C94331"/>
<path d="M56.543 38.9877C55.6463 39.2263 53.9809 40.0039 53.8104 41.3217C54.4728 41.0565 55.8722 40.7746 56.1704 41.7683C55.7563 42.6791 55.5741 44.3518 58.1577 43.7556C58.9444 45.2462 60.9897 47.5813 62.8777 44.9977C63.2918 44.7907 64.2937 44.6499 64.9893 45.743C65.5689 46.5641 66.7779 47.6371 66.9767 45.36L66.604 43.9354C66.5475 43.9097 66.4916 43.8837 66.4363 43.8574C64.9692 43.175 63.4809 42.4701 62.0356 41.7683C60.0716 40.8146 58.1871 39.8664 56.543 38.9877Z" fill="#F0B27C"/>
<path fill-rule="evenodd" clip-rule="evenodd" d="M66.604 43.9354C67.6594 44.4256 68.7025 44.9036 69.7093 45.36C75.513 46.2424 87.8015 46.2033 90.5254 38.9877C90.6044 38.3759 90.6445 37.7664 90.6342 37.1725C90.6052 35.4982 90.1756 33.9486 89.0861 32.8251C87.1402 31.0448 81.8322 27.6083 76.1682 28.1051C73.974 28.1432 70.3346 28.6351 67.2251 30.0407C65.5006 30.8203 63.9392 31.8808 62.8777 33.3008C62.5305 33.7653 62.2367 34.2683 62.0082 34.8125C61.9725 34.9649 61.9405 35.1312 61.9137 35.3093C61.9117 35.3227 61.9097 35.3362 61.9078 35.3498C61.5779 37.6299 62.098 41.7913 66.4363 43.8574L66.604 43.9354ZM80.143 29.7199C79.4474 29.223 77.0377 29.2644 75.9198 29.3472L76.6651 36.5514L80.143 29.7199ZM86.2293 32.3283C84.9375 30.639 82.2131 29.8855 81.0124 29.7199L77.2861 36.5514L86.2293 32.3283ZM89.3345 37.9177C90.6263 35.4335 88.3823 33.4876 87.0988 32.8251L77.2861 37.1725L89.3345 37.9177ZM75.2988 29.3472C73.212 29.3811 71.117 29.941 70.3303 30.2167L76.1682 36.5514L75.2988 29.3472ZM69.3367 30.4651C67.7468 30.4651 64.6995 33.3634 63.3746 34.8125L75.9198 36.7998L69.3367 30.4651ZM75.9198 37.1725L62.8777 35.5577C61.884 39.2344 63.8714 40.9323 64.9893 41.3217L75.9198 37.1725ZM70.703 44.6251L76.1682 37.4209L70.8893 39.5946L65.6103 41.7683C65.6103 43.4519 69.0054 44.3743 70.703 44.6251ZM76.4167 37.9177L71.8209 44.6251C72.7152 45.6188 75.2574 45.2876 76.4167 44.9977V37.9177ZM83.6209 43.7556L76.6651 37.4209L76.9135 44.9977C78.2053 45.6009 81.9233 44.421 83.6209 43.7556ZM83.8693 43.383L77.4103 37.5451L88.9619 38.663C89.0613 41.3459 85.6082 42.9276 83.8693 43.383Z" fill="#D6DFD0"/>
<path fill-rule="evenodd" clip-rule="evenodd" d="M63.3746 34.8125C64.6995 33.3634 67.7468 30.4651 69.3367 30.4651L75.9198 36.7998L63.3746 34.8125ZM72.5661 35.5577C71.2826 34.3984 68.4175 32.1792 67.2251 32.5767C66.0327 32.9742 70.2889 34.7297 72.5661 35.5577ZM71.8209 34.0672C71.324 33.1563 70.1316 31.4091 69.3367 31.7072C68.5417 32.0053 70.6616 33.4048 71.8209 34.0672ZM70.703 35.5577C69.1296 35.3921 65.983 34.8622 65.983 34.0672C65.983 33.2723 69.1296 34.7297 70.703 35.5577Z" fill="#DBE174"/>
<path fill-rule="evenodd" clip-rule="evenodd" d="M70.3303 30.2167C71.117 29.941 73.212 29.3811 75.2988 29.3472L76.1682 36.5514L70.3303 30.2167ZM74.1809 33.0735C73.3528 32.4111 71.8209 30.9123 72.3177 30.2167C72.8146 29.5211 73.7668 31.8314 74.1809 33.0735ZM75.0503 33.0735C74.6363 32.4 73.8828 30.8857 74.1809 30.2167C74.479 29.5477 74.8847 31.8425 75.0503 33.0735Z" fill="#DBE174"/>
<path fill-rule="evenodd" clip-rule="evenodd" d="M75.9198 29.3472C77.0377 29.2644 79.4474 29.223 80.143 29.7199L76.6651 36.5514L75.9198 29.3472ZM77.2861 34.0672C77.0791 33.1977 76.7893 31.2104 77.2861 30.2167C77.9072 28.9746 77.5345 34.0672 77.2861 34.0672Z" fill="#DBE174"/>
<path fill-rule="evenodd" clip-rule="evenodd" d="M81.0124 29.7199C82.2131 29.8855 84.9375 30.639 86.2293 32.3283L77.2861 36.5514L81.0124 29.7199ZM79.2735 34.0672C79.6461 33.1149 80.5156 31.2104 81.0124 31.2104C81.6335 31.2104 80.0188 33.8602 79.2735 34.0672ZM81.0124 33.6946C81.4265 32.9907 82.4781 31.6078 83.3724 31.7072C84.4903 31.8314 81.3851 33.6946 81.0124 33.6946Z" fill="#DBE174"/>
<path fill-rule="evenodd" clip-rule="evenodd" d="M87.0988 32.8251C88.3823 33.4876 90.6263 35.4335 89.3345 37.9177L77.2861 37.1725L87.0988 32.8251ZM81.6335 35.9304C83.0918 35.1851 86.3756 33.9182 87.844 34.8125C89.6795 35.9304 82.2545 35.9304 81.6335 35.9304ZM85.3598 36.5514C86.14 36.3444 87.8018 36.0546 88.207 36.5514C88.6122 37.0483 86.4777 36.7584 85.3598 36.5514Z" fill="#DBE174"/>
<path fill-rule="evenodd" clip-rule="evenodd" d="M77.4103 37.5451L83.8693 43.383C85.6082 42.9276 89.0613 41.3459 88.9619 38.663L77.4103 37.5451ZM80.5156 38.9877C81.3023 39.8653 83.1489 41.5607 84.2419 41.3217C85.335 41.0827 82.2131 39.6661 80.5156 38.9877ZM82.9998 38.7872C84.2005 38.87 86.6268 39.135 86.7261 39.5325C86.8503 40.0293 83.6209 39.1598 82.9998 38.7872Z" fill="#DBE174"/>
<path fill-rule="evenodd" clip-rule="evenodd" d="M76.6651 37.4209L83.6209 43.7556C81.9233 44.421 78.2053 45.6009 76.9135 44.9977L76.6651 37.4209ZM78.1556 40.0293C78.7353 41.2115 79.7703 43.6118 79.2735 43.7556C78.7767 43.8994 78.3212 41.3313 78.1556 40.0293ZM79.7703 41.023C80.3914 41.6855 81.5093 43.0849 81.0124 43.383C80.5156 43.6811 79.9774 41.9339 79.7703 41.023Z" fill="#DBE174"/>
<path fill-rule="evenodd" clip-rule="evenodd" d="M76.1682 37.4209L70.703 44.6251C69.0054 44.3743 65.6103 43.4519 65.6103 41.7683L70.8893 39.5946L76.1682 37.4209ZM73.9324 39.2841C72.4005 40.2363 69.5354 42.3893 70.3303 43.383C71.1253 44.3767 73.063 41.0644 73.9324 39.2841ZM71.324 40.0293C70.3303 40.3191 68.4423 41.0727 68.8398 41.7683C69.2373 42.4638 70.6616 40.8988 71.324 40.0293Z" fill="#DBE174"/>
<path fill-rule="evenodd" clip-rule="evenodd" d="M62.8777 35.5577L75.9198 37.1725L64.9893 41.3217C63.8714 40.9323 61.884 39.2344 62.8777 35.5577ZM71.8209 37.4209C69.5437 37.2299 64.8651 37.0618 64.3682 37.9177C63.8714 38.7737 69.1296 37.9432 71.8209 37.4209ZM67.5977 38.7872C66.811 38.8962 65.3122 39.2972 65.6103 40.0293C65.9085 40.7615 67.0595 39.5063 67.5977 38.7872Z" fill="#DBE174"/>
<path fill-rule="evenodd" clip-rule="evenodd" d="M71.8209 44.6251L76.4167 37.9177V44.9977C75.2574 45.2876 72.7152 45.6188 71.8209 44.6251ZM75.6714 40.0293C75.0917 41.3128 74.156 43.9544 75.0503 44.2525C75.9447 44.5506 75.837 41.5612 75.6714 40.0293ZM73.9324 42.6377C73.4356 43.176 72.6158 44.2525 73.3114 44.2525C74.007 44.2525 74.0153 43.176 73.9324 42.6377Z" fill="#DBE174"/>
<path d="M67.5977 38.7872C66.811 38.8962 65.3122 39.2972 65.6103 40.0293C65.9085 40.7615 67.0595 39.5063 67.5977 38.7872Z" fill="#D6DFD0"/>
<path d="M71.8209 37.4209C69.5437 37.2299 64.8651 37.0618 64.3682 37.9177C63.8714 38.7737 69.1296 37.9432 71.8209 37.4209Z" fill="#D9D9D9"/>
<path d="M70.703 35.5577C69.1296 35.3921 65.983 34.8622 65.983 34.0672C65.983 33.2723 69.1296 34.7297 70.703 35.5577Z" fill="#D9D9D9"/>
<path d="M72.5661 35.5577C71.2826 34.3984 68.4175 32.1792 67.2251 32.5767C66.0327 32.9742 70.2889 34.7297 72.5661 35.5577Z" fill="#D9D9D9"/>
<path d="M71.8209 34.0672C71.324 33.1563 70.1316 31.4091 69.3367 31.7072C68.5417 32.0053 70.6616 33.4048 71.8209 34.0672Z" fill="#D9D9D9"/>
<path d="M74.1809 33.0735C73.3528 32.4111 71.8209 30.9123 72.3177 30.2167C72.8146 29.5211 73.7668 31.8314 74.1809 33.0735Z" fill="#D9D9D9"/>
<path d="M75.0503 33.0735C74.6363 32.4 73.8828 30.8857 74.1809 30.2167C74.479 29.5477 74.8847 31.8425 75.0503 33.0735Z" fill="#D9D9D9"/>
<path d="M77.2861 34.0672C77.0791 33.1977 76.7893 31.2104 77.2861 30.2167C77.9072 28.9746 77.5345 34.0672 77.2861 34.0672Z" fill="#D9D9D9"/>
<path d="M79.2735 34.0672C79.6461 33.1149 80.5156 31.2104 81.0124 31.2104C81.6335 31.2104 80.0188 33.8602 79.2735 34.0672Z" fill="#D9D9D9"/>
<path d="M81.0124 33.6946C81.4265 32.9907 82.4781 31.6078 83.3724 31.7072C84.4903 31.8314 81.3851 33.6946 81.0124 33.6946Z" fill="#D9D9D9"/>
<path d="M81.6335 35.9304C83.0918 35.1851 86.3756 33.9182 87.844 34.8125C89.6795 35.9304 82.2545 35.9304 81.6335 35.9304Z" fill="#D9D9D9"/>
<path d="M85.3598 36.5514C86.14 36.3444 87.8018 36.0546 88.207 36.5514C88.6122 37.0483 86.4777 36.7584 85.3598 36.5514Z" fill="#D9D9D9"/>
<path d="M82.9998 38.7872C84.2005 38.87 86.6268 39.135 86.7261 39.5325C86.8503 40.0293 83.6209 39.1598 82.9998 38.7872Z" fill="#D9D9D9"/>
<path d="M80.5156 38.9877C81.3023 39.8653 83.1489 41.5607 84.2419 41.3217C85.335 41.0827 82.2131 39.6661 80.5156 38.9877Z" fill="#D9D9D9"/>
<path d="M79.7703 41.023C80.3914 41.6855 81.5093 43.0849 81.0124 43.383C80.5156 43.6811 79.9774 41.9339 79.7703 41.023Z" fill="#D9D9D9"/>
<path d="M78.1556 40.0293C78.7353 41.2115 79.7703 43.6118 79.2735 43.7556C78.7767 43.8994 78.3212 41.3313 78.1556 40.0293Z" fill="#D9D9D9"/>
<path d="M75.6714 40.0293C75.0917 41.3128 74.156 43.9544 75.0503 44.2525C75.9447 44.5506 75.837 41.5612 75.6714 40.0293Z" fill="#D9D9D9"/>
<path d="M73.9324 42.6377C73.4356 43.176 72.6158 44.2525 73.3114 44.2525C74.007 44.2525 74.0153 43.176 73.9324 42.6377Z" fill="#D9D9D9"/>
<path d="M73.9324 39.2841C72.4005 40.2363 69.5354 42.3893 70.3303 43.383C71.1253 44.3767 73.063 41.0644 73.9324 39.2841Z" fill="#D9D9D9"/>
<path d="M71.324 40.0293C70.3303 40.3191 68.4423 41.0727 68.8398 41.7683C69.2373 42.4638 70.6616 40.8988 71.324 40.0293Z" fill="#D9D9D9"/>
<path d="M61.6285 38.9877C61.626 40.1193 61.7283 41.179 62.0356 41.7683C63.4809 42.4701 64.9692 43.175 66.4363 43.8574C62.098 41.7913 61.5779 37.6299 61.9078 35.3498C61.8374 35.8301 61.7617 36.4724 61.7068 37.1725C61.661 37.7575 61.6298 38.3829 61.6285 38.9877Z" fill="#5DB731"/>
<path d="M73.5598 49.2553C79.5862 48.4896 85.2614 47.4355 88.207 46.0577C88.6738 45.1794 89.209 43.9794 89.6581 42.6377C90.0431 41.4874 90.3647 40.2329 90.5254 38.9877C87.8015 46.2033 75.513 46.2424 69.7093 45.36C71.6912 46.2583 73.5325 47.0726 75.0503 47.7304C74.7191 48.2179 73.9573 49.2054 73.5598 49.2553Z" fill="#57A132"/>
<path d="M90.5254 38.9877C90.3647 40.2329 90.0431 41.4874 89.6581 42.6377L92.291 40.6504L94.924 38.663L89.3345 45.7158C90.6615 45.293 92.0925 44.7666 93.5577 44.1393C94.6342 42.2725 96.7375 38.3401 96.5387 37.5451C96.34 36.7502 97.698 36.5514 98.4019 36.5514C98.7745 36.5784 99.2217 37.6926 98.0293 41.933C98.874 41.4547 99.7065 40.9437 100.513 40.4005C100.679 38.455 100.836 34.3902 100.141 33.6946C99.2714 32.8251 104.488 33.2957 103.246 38.3394C103.916 37.77 104.55 37.1739 105.139 36.5514C104.798 34.6055 103.619 30.8129 101.631 31.2104C99.5271 33.9111 94.3598 39.2475 90.5254 38.9877Z" fill="#E1C377"/>
<path d="M106.963 19.3525C103.692 15.1293 91.983 6.13648 71.3144 3.95038C61.1291 2.91529 38.8954 1.76427 31.4428 5.4409C25.1909 7.09704 11.4698 11.875 6.60073 17.7377C4.65476 20.1391 1.48326 26.2586 4.36494 31.5251C5.52746 25.8721 11.9763 13.8954 28.4714 11.2125C32.2391 10.55 39.7746 9.10092 39.7746 8.60408C39.7746 7.98302 50.9535 5.87145 58.4061 7.61039C61.2216 7.81741 67.399 8.52955 69.5851 9.72197H81.7577C85.6496 10.9006 94.2284 13.8672 97.4082 16.3051C100.567 18.1269 107.341 23.2609 109.164 29.223C109.725 26.2679 109.169 22.9709 106.963 19.3525Z" fill="#4672B1"/>
<path d="M53.0651 30.4651L57.0398 27.7325C58.4889 27.277 61.2381 27.0369 60.6419 29.7199C60.0457 32.4028 55.3423 31.3346 53.0651 30.4651Z" fill="#E1C377"/>
<path d="M56.543 38.9877C58.1871 39.8664 60.0716 40.8146 62.0356 41.7683C61.7283 41.179 61.626 40.1193 61.6285 38.9877C60.5032 38.097 57.5227 36.6361 54.6031 37.9177C55.1989 38.2588 55.8495 38.6171 56.543 38.9877Z" fill="#E1C377"/>
<path d="M61.9137 35.3093C61.9405 35.1312 61.9725 34.9649 62.0082 34.8125H58.1577C57.164 35.4087 52.9409 35.3921 50.9535 35.3093C51.14 35.6023 51.5753 35.9818 52.2076 36.4272C53.7416 35.5577 57.7891 34.4895 61.7068 37.1725C61.7617 36.4724 61.8374 35.8301 61.9078 35.3498C61.9097 35.3362 61.9117 35.3227 61.9137 35.3093Z" fill="#E1C377"/>
<path d="M43.3767 43.6553C43.7742 43.2769 46.3577 43.2757 47.5998 43.3224C47.6113 42.9291 47.6514 42.5342 47.7155 42.1409C46.3047 41.6441 43.0626 40.8739 41.3804 41.7683C42.0491 42.404 42.7183 43.0368 43.3767 43.6553Z" fill="#E1C377"/>
<path d="M52.7723 50.7777C52.3393 50.7734 50.4685 49.0756 49.5872 48.2272C48.6306 47.339 48.0691 46.3207 47.7981 45.2462C47.0695 45.1783 45.5379 45.1126 45.2398 45.3928C46.0738 46.1642 46.8693 46.8905 47.5998 47.5448C49.6795 49.4076 51.2322 50.6864 51.6435 50.7582L51.6988 50.7594C52.0544 50.7671 52.4122 50.7733 52.7723 50.7777Z" fill="#E1C377"/>
<path d="M14.6077 41.3217C17.4846 43.107 20.9701 44.8254 25.1177 46.2966C26.8259 46.9025 28.6465 47.4664 30.583 47.9759C30.2529 47.4183 29.8995 46.6436 29.6351 45.743C29.5309 45.388 29.4405 45.0136 29.3708 44.6251C27.9612 45.0226 25.9481 43.8798 25.1177 43.2588C24.8279 43.3909 23.2794 43.4269 19.4041 42.5135C15.5287 41.6001 13.3981 36.3365 12.8172 33.8188C12.3476 35.8754 12.175 39.6044 14.6077 41.3217Z" fill="#E1C377"/>
<path d="M33.0096 31.244C27.445 36.1131 19.8433 34.8461 16.738 33.604C13.0308 31.6369 11.0662 29.5715 10.1847 27.6419C10.092 30.7472 11.9435 36.9577 20.0917 36.9577C23.3626 37.0405 30.6744 36.6099 33.7548 34.2251C36.5745 31.9479 41.9596 26.1017 40.9427 20.9346C40.8772 21.207 40.7994 21.4781 40.7106 21.7474C40.643 22.5468 40.2248 23.383 39.5846 24.214C37.8149 27.2705 34.9597 29.8675 33.0096 31.244Z" fill="#EACCA1"/>
<path fill-rule="evenodd" clip-rule="evenodd" d="M40.7106 21.7474C40.4322 22.5918 40.0452 23.4184 39.5846 24.214C37.5552 26.8479 33.2951 29.4297 30.898 30.623C33.6803 29.0331 33.38 25.4889 32.8821 23.9156C32.9371 25.686 32.079 27.3096 31.2706 28.263C26.7991 31.7409 21.2924 31.1198 19.098 30.3746C16.0091 29.093 14.4587 27.6795 13.9118 26.2756C14.2328 27.6005 15.3469 30.4491 17.2349 31.244C15.4168 31.0973 11.6542 29.8982 11.1485 26.2756C11.1486 24.3711 12.2665 19.9657 16.738 17.5809C18.9379 16.1732 25.098 13.0596 32.1401 11.8672C27.5029 11.9914 16.9119 13.8546 11.6454 20.3135C10.1838 21.7238 8.75085 24.503 10.1847 27.6419C11.0662 29.5715 13.0308 31.6369 16.738 33.604C19.8433 34.8461 27.445 36.1131 33.0096 31.244C34.9597 29.8675 37.8149 27.2705 39.5846 24.214C40.2248 23.383 40.643 22.5468 40.7106 21.7474ZM32.6409 22.5259C32.6165 22.4509 32.5901 22.3759 32.5616 22.3009C32.6018 22.3722 32.6278 22.4473 32.6409 22.5259Z" fill="#EACCA1"/>
<path d="M40.7106 16.3388C40.2552 14.6826 37.9035 11.4697 32.1401 11.8672C25.098 13.0596 18.9379 16.1732 16.738 17.5809C12.2665 19.9657 11.1486 24.3711 11.1485 26.2756C11.6542 29.8982 15.4168 31.0973 17.2349 31.244C15.3469 30.4491 14.2328 27.6005 13.9118 26.2756C13.3747 24.8968 13.8056 23.5272 14.6979 22.3009C15.7852 20.8065 17.5576 19.5249 19.098 18.6988C21.5822 16.5127 26.7577 17.7879 29.0349 18.6988C31.0151 19.7757 32.0813 21.0359 32.5616 22.3009C32.6018 22.3722 32.6278 22.4473 32.6409 22.5259C32.793 22.9929 32.8679 23.4591 32.8821 23.9156C33.38 25.4889 33.6803 29.0331 30.898 30.623C33.2951 29.4297 37.5552 26.8479 39.5846 24.214C40.0452 23.4184 40.4322 22.5918 40.7106 21.7474C40.7994 21.4781 40.8772 21.207 40.9427 20.9346C41.3071 19.42 41.295 17.8631 40.7106 16.3388Z" fill="#E8E4D6"/>
<path d="M19.098 30.3746C21.2924 31.1198 26.7991 31.7409 31.2706 28.263C32.079 27.3096 32.9371 25.686 32.8821 23.9156C32.8679 23.4591 32.793 22.9929 32.6409 22.5259C32.8293 23.6515 30.3736 25.4628 29.0349 26.2756C25.2589 22.7431 22.2447 26.1287 21.2096 28.263C16.6386 28.263 14.9639 24.2882 14.6979 22.3009C13.8056 23.5272 13.3747 24.8968 13.9118 26.2756C14.4587 27.6795 16.0091 29.093 19.098 30.3746Z" fill="#CB8E1B"/>
<path d="M29.0349 18.6988C26.7577 17.7879 21.5822 16.5127 19.098 18.6988C17.5576 19.5249 15.7852 20.8065 14.6979 22.3009C14.9639 24.2882 16.6386 28.263 21.2096 28.263C22.2447 26.1287 25.2589 22.7431 29.0349 26.2756C30.3736 25.4628 32.8293 23.6515 32.6409 22.5259C32.6165 22.4509 32.5901 22.3759 32.5616 22.3009C32.0813 21.0359 31.0151 19.7757 29.0349 18.6988Z" fill="#DDAB1C"/>
<path d="M54.1829 26.441C54.8785 25.7454 59.7724 25.5715 62.1324 25.5715C64.6164 26.7735 67.4289 27.5177 69.163 27.8694C69.8529 26.9254 62.4448 24.9505 58.6545 24.081C61.0559 24.4122 65.3618 24.7517 63.3745 23.46C61.3871 22.1682 54.6797 21.7911 51.5745 21.7641C48.6173 23.3307 48.3851 26.2857 48.8419 28.0557C49.4215 27.6417 50.2368 27.314 51.0776 27.0635C52.255 26.7127 53.4824 26.5135 54.1829 26.441Z" fill="#CD9E4B"/>
<path d="M50.0839 15.8831C51.4503 15.9659 54.5555 16.4545 56.046 17.7463C58.5303 17.6635 63.6477 17.8705 64.2439 19.361C66.1485 19.4478 70.1315 19.7433 70.8271 20.2305C71.5227 20.7177 73.1043 20.8395 73.8081 20.8395C73.0132 19.1406 65.6931 16.2477 62.1324 15.0136C60.4431 15.0136 53.3962 15.5933 50.0839 15.8831Z" fill="#CD9E4B"/>
<path d="M73.8081 20.8395L72.3176 21.4487C74.2636 21.6637 78.2797 22.4414 78.7766 23.8326C81.178 23.9149 86.0801 24.378 86.4776 25.5715C88.03 25.6417 91.0314 25.862 92.3155 26.2338C91.918 25.57 88.258 24.522 86.4776 24.081L92.5639 24.7021C91.5727 23.609 84.8639 21.731 81.6334 20.9286C79.9669 20.8841 78.2248 20.8591 76.665 20.8472C75.6006 20.8392 74.621 20.8372 73.8081 20.8395Z" fill="#CD9E4B"/>
<path d="M73.8081 20.8395C74.621 20.8372 75.6006 20.8392 76.665 20.8472C75.3927 16.6163 70.1422 15.2247 65.8587 14.9647C64.4546 14.8795 63.1545 14.9158 62.1324 15.0136C65.6931 16.2477 73.0132 19.1406 73.8081 20.8395Z" fill="#C06729"/>
<path fill-rule="evenodd" clip-rule="evenodd" d="M78.7766 17.7463C76.6898 15.2056 70.5373 13.6238 67.7218 13.1505C69.5031 12.507 72.381 11.8245 75.2987 11.8336C79.232 13.5311 87.2477 17.2494 87.3471 17.7463C87.4619 18.3203 80.8906 17.0259 79.5033 16.1014C79.4158 16.0218 79.3388 15.9485 79.2734 15.8831C79.311 15.9526 79.3898 16.0258 79.5033 16.1014C80.3028 16.8281 81.9885 18.0784 83.8692 18.6157C85.9559 19.212 85.1527 19.9407 84.4902 20.2305L86.4776 21.151C85.6003 21.082 84.5313 21.027 83.3723 20.9837C83.0742 19.7181 80.1843 18.2981 78.7766 17.7463Z" fill="#CD9E4B"/>
<path d="M83.3723 14.9647C81.4424 12.6085 78.3488 11.8431 75.2987 11.8336C79.232 13.5311 87.2477 17.2494 87.3471 17.7463C87.4619 18.3203 80.8906 17.0259 79.5033 16.1014C80.3028 16.8281 81.9885 18.0784 83.8692 18.6157C85.9559 19.212 85.1527 19.9407 84.4902 20.2305L86.4776 21.151C87.4862 21.2304 88.2415 21.3284 88.5892 21.4487C89.8368 21.4732 91.8257 21.7676 93.803 22.5656C93.8999 18.1736 86.8896 15.6683 83.3723 14.9647Z" fill="#C06729"/>
<path d="M66.4797 22.0936C65.0886 22.0936 59.8552 21.1828 57.4124 20.7273C56.3937 20.6914 55.4865 20.7334 54.6797 20.8395C53.4097 21.0066 52.3888 21.3327 51.5745 21.7641C54.6797 21.7911 61.3871 22.1682 63.3745 23.46C65.3618 24.7517 61.0559 24.4122 58.6545 24.081C62.4448 24.9505 69.8529 26.9254 69.163 27.8694C69.5793 27.9539 69.9335 28.0157 70.206 28.0557C72.2928 27.5589 74.8846 28.5526 75.9197 29.1736L78.7766 26.441L75.9197 24.7021C73.3791 23.6132 71.224 22.9505 69.585 22.5656C68.0829 22.2129 67.0143 22.0936 66.4797 22.0936Z" fill="#C06729"/>
<path d="M92.8123 26.441C94.7169 26.9378 98.5509 28.2048 98.6502 29.2978V29.2978C98.9711 27.8549 98.8331 26.2836 97.82 25.2072C96.6821 23.9982 95.2456 23.1479 93.803 22.5656C91.8257 21.7676 89.8368 21.4732 88.5892 21.4487C88.2415 21.3284 87.4862 21.2304 86.4776 21.151C85.6003 21.082 84.5313 21.027 83.3723 20.9837C82.81 20.9627 82.2265 20.9444 81.6334 20.9286C84.8639 21.731 91.5727 23.609 92.5639 24.7021L86.4776 24.081C88.258 24.522 91.918 25.57 92.3155 26.2338C92.5383 26.2983 92.7095 26.3674 92.8123 26.441Z" fill="#C06729"/>
<path d="M57.4124 20.7273C59.8552 21.1828 65.0886 22.0936 66.4797 22.0936C67.0143 22.0936 68.0829 22.2129 69.585 22.5656L72.3176 21.4487L73.8081 20.8395C73.1043 20.8395 71.5227 20.7177 70.8271 20.2305C70.1315 19.7433 66.1485 19.4478 64.2439 19.361C63.6477 17.8705 58.5303 17.6635 56.046 17.7463C54.5555 16.4545 51.4503 15.9659 50.0839 15.8831L47.3513 16.6284C48.8832 17.8625 52.4936 20.4324 54.6797 20.8395C55.4865 20.7334 56.3937 20.6914 57.4124 20.7273Z" fill="#ECD3AF"/>
<path d="M65.8587 14.9647C70.1422 15.2247 75.3927 16.6163 76.665 20.8472C78.2248 20.8591 79.9669 20.8841 81.6334 20.9286C82.2265 20.9444 82.81 20.9627 83.3723 20.9837C83.0742 19.7181 80.1843 18.2981 78.7766 17.7463C76.6898 15.2056 70.5373 13.6238 67.7218 13.1505L65.8587 14.9647Z" fill="#ECD3AF"/>
<path d="M75.9197 24.7021L78.7766 26.441V27.8694C79.7702 27.3229 82.8341 27.7659 84.2418 28.0557C85.4342 30.0431 89.4587 29.7119 91.3218 29.2978C92.5665 29.2978 94.2024 30.4668 95.3747 31.5127C95.8697 31.9543 96.6846 31.7844 96.9113 31.161V31.161L98.6502 29.2978C98.5509 28.2048 94.7169 26.9378 92.8123 26.441C92.7095 26.3674 92.5383 26.2983 92.3155 26.2338C91.0314 25.862 88.03 25.6417 86.4776 25.5715C86.0801 24.378 81.178 23.9149 78.7766 23.8326C78.2797 22.4414 74.2636 21.6637 72.3176 21.4487L69.585 22.5656C71.224 22.9505 73.3791 23.6132 75.9197 24.7021Z" fill="#EBC8AB"/>
<path d="M75.9197 29.1736C74.8846 28.5526 72.2928 27.5589 70.206 28.0557C69.9335 28.0157 69.5793 27.9539 69.163 27.8694C67.4289 27.5177 64.6164 26.7735 62.1324 25.5715C59.7724 25.5715 54.8785 25.7454 54.1829 26.441C53.4824 26.5135 52.255 26.7127 51.0776 27.0635H61.2629C63.4573 27.8083 68.318 29.2978 70.206 29.2978C71.0341 29.3807 72.7399 29.5959 72.9387 29.7947L75.9197 29.1736Z" fill="#EBC8AB"/>
</svg>
