<svg width="73" height="90" viewBox="0 0 73 90" fill="none" xmlns="http://www.w3.org/2000/svg">
<path d="M30.8517 53.823C30.1724 55.3069 31.1597 56.8918 31.7383 57.4988C32.1094 60.9925 33.3186 61.2823 33.8769 60.9905C35.6345 60.8495 36.2381 58.8888 36.3202 57.926C35.6477 55.9195 36.8215 54.4656 37.4924 53.9894C37.5171 53.7006 37.3083 52.7373 37.2009 52.2917C37.4745 51.4714 37.6429 50.3778 37.693 49.9336C37.9236 48.935 37.2033 46.4371 36.8143 45.3129C38.5876 43.2823 38.1377 41.0256 37.691 40.1511C38.536 40.1359 37.9872 37.958 37.6072 36.871C39.3868 34.0845 38.6514 32.7295 38.0612 32.4004C37.0784 30.2801 36.7742 27.8783 36.7449 26.9424C38.1801 25.4647 37.9143 24.4602 37.602 24.1426C37.181 23.9612 36.7713 22.6535 36.6191 22.0223C37.5071 22.1853 36.7209 18.6974 36.2168 16.9331C37.2311 15.2741 36.86 14.2242 36.5477 13.9067C35.534 12.831 34.8813 11.5583 34.6816 11.0564C34.7587 9.81202 34.1201 8.40232 33.7912 7.85302C32.7774 6.77739 32.3117 5.30245 32.2056 4.69943C29.8248 2.25622 28.9784 2.88466 28.8528 3.50429C28.9508 5.08364 28.3607 5.86244 28.0534 6.05442C27.1806 6.73638 27.2516 7.78007 27.3962 8.21667C27.7217 9.17539 27.6646 10.47 27.5954 10.9974C26.4736 12.2109 26.82 15.1133 27.1334 16.4129C26.4111 17.7186 26.4454 18.9362 26.5529 19.3817C27.3821 21.2562 27.2514 22.2778 27.0823 22.5543C25.4935 23.7861 26.2993 26.4756 26.9008 27.6664C27.7301 29.5408 27.7989 31.0644 27.7297 31.5918C26.491 33.4936 26.8239 34.6784 27.1452 35.0331C27.824 36.2838 27.9421 38.3376 27.9164 39.2082C26.9728 40.3787 27.6966 43.3472 28.1765 44.6852C28.3573 46.9989 29.122 47.9539 29.4817 48.1422C29.0361 48.2496 29.5594 49.9307 29.8768 50.7578C30.5986 52.1868 30.8275 53.3967 30.8517 53.823Z" fill="#E8AB2E"/>
<path d="M34.8611 60.6726C34.9047 60.6943 34.9022 60.7197 34.867 60.7469L37.117 89.0866L36.0031 89.3552L33.5214 61.0762C33.6335 61.0765 34.6855 60.887 34.867 60.7469L34.8611 60.6726Z" fill="#EEBCA1"/>
<path d="M27.1453 35.0331C27.8241 36.2838 27.9423 38.3376 27.9165 39.2082C27.3066 39.9648 27.3934 41.4727 27.6606 42.8059C29.4404 47.6571 30.7302 48.1161 31.1526 47.7392C32.2529 46.4366 33.9974 47.6425 34.7321 48.4082C32.9871 47.0375 31.8179 50.1718 31.4514 51.9104C31.8996 54.1596 32.8337 53.8951 33.2447 53.4816C33.0791 52.0129 34.062 51.0057 34.5742 50.6858C34.6483 51.7287 35.0638 53.7973 36.133 53.728C36.2918 53.5718 36.5072 52.8362 36.0989 51.1431C36.1207 50.745 36.2321 49.838 36.5025 49.3956C36.4886 48.849 36.2901 47.5374 35.6082 46.6647C35.3419 46.3753 35.1637 45.3103 36.5805 43.3656C36.7535 42.6167 36.4379 41.797 33.7919 44.5096C32.8547 44.6964 30.733 44.7287 29.7439 43.3643C31.2341 43.5156 34.7708 43.0949 36.9959 40.2009C37.1421 39.3406 37.054 37.9002 35.5328 39.0215C35.328 39.1494 34.7193 39.2648 33.9236 38.7024C33.4654 38.1057 32.1557 36.7478 30.5826 36.09C30.1602 35.6418 29.3808 34.2346 29.6424 32.1914C30.0866 32.2414 31.1148 32.9206 31.6736 35.2375C31.9948 35.5922 32.8717 36.1979 33.8089 35.7833C34.2898 35.9853 35.3102 36.6323 35.5446 37.6042C36.1297 37.4238 37.3493 36.4853 37.5463 34.1748C37.608 33.3741 37.6808 31.5964 37.4786 30.8908C36.9514 29.238 36.7675 27.6597 36.745 26.9424C38.1802 25.4647 37.9144 24.4602 37.6021 24.1426C37.1812 23.9612 36.7715 22.6535 36.6192 22.0223C37.5072 22.1853 36.721 18.6975 36.2169 16.9331C37.2312 15.2741 36.8602 14.2242 36.5478 13.9067C35.5341 12.831 34.8814 11.5583 34.6818 11.0564C34.7588 9.81202 34.1202 8.40233 33.7913 7.85303C33.4969 7.26398 31.5282 6.55223 30.5807 6.26999C31.8905 4.53971 30.8936 4.58368 30.2315 4.82194C28.3785 5.7403 28.1097 7.10169 28.2068 7.66758C28.8395 9.11798 31.1717 8.72053 32.2588 8.34051C32.1204 8.93965 30.6954 9.18902 30.0002 9.23882C28.5724 8.40147 27.8168 8.95872 27.6174 9.34201C27.6787 10.015 27.6396 10.6617 27.5955 10.9974C27.4955 11.1057 27.4071 11.2273 27.3294 11.3601C27.9646 11.257 28.2371 13.0061 28.294 13.8935C29.5662 13.3038 32.5929 14.9391 33.9472 15.8304C35.0779 16.2178 34.4668 16.8445 34.02 17.1094C33.1718 17.5025 30.2306 16.0588 28.866 15.2879C26.5334 17.7363 27.4965 19.547 28.2697 20.1464C29.2195 18.22 29.8051 18.2045 29.9792 18.4375C29.9787 21.1722 32.0552 21.6693 33.0935 21.5761C32.6909 21.8617 32.9 22.5657 33.0548 22.8819C32.7414 23.1461 32.1047 23.504 31.8256 23.6499C30.034 25.2135 28.7749 22.8926 28.3693 21.5367L27.2017 22.0715C27.1846 22.3078 27.1354 22.4677 27.0824 22.5543C26.4359 23.0556 26.1859 23.7982 26.1573 24.583C26.5112 25.6593 27.4356 26.4624 27.8536 26.7294C29.6384 28.6563 31.1706 27.776 31.7136 27.095C33.5697 25.7987 34.5457 26.2941 34.8016 26.7039C34.4913 26.5901 33.5916 27.3886 33.1806 27.802C32.0987 29.5716 30.1102 29.4069 29.2512 29.1033C28.4953 29.097 27.9355 30.4898 27.75 31.187C27.7511 31.3551 27.7429 31.4915 27.7298 31.5918C26.4911 33.4936 26.824 34.6784 27.1453 35.0331Z" fill="#E9D235"/>
<path d="M37.6021 24.1426C37.1812 23.9612 36.7715 22.6535 36.6192 22.0223C37.4058 22.1667 36.8787 19.4462 36.3977 17.5967C35.6587 17.775 34.8471 17.8579 34.1563 18.1755C33.8785 18.3032 33.6101 18.4445 33.4244 18.5496L31.7922 17.6466C30.3911 17.7017 31.8304 18.6197 32.7253 19.0718L32.1565 20.6233C33.6253 20.0666 34.5839 20.425 34.8796 20.6738L33.9499 22.1946C35.5507 22.1857 35.3311 23.1973 35.0211 23.7042C33.7337 23.449 32.1622 24.3937 31.5373 24.898C31.4728 24.6307 29.8999 24.625 29.1215 24.6556L28.3228 23.7874C26.9122 24.9763 28.1649 26.065 28.9675 26.4607C29.1558 26.101 29.9479 25.5407 31.6101 26.177C32.4961 25.4526 34.6484 24.407 36.1691 26.0204C36.8006 25.5931 37.9713 24.6193 37.6021 24.1426Z" fill="#F5DA58"/>
<path d="M29.2112 37.2458C29.033 37.2887 29.2134 39.2097 29.3259 40.1648C30.2903 41.8181 31.9988 41.7989 32.7324 41.5827C35.8974 40.6308 34.9501 40.0263 34.0809 39.8431C32.8548 40.2331 30.3236 38.274 29.2112 37.2458Z" fill="#F5DA58"/>
<path d="M34.6169 28.87C34.6352 29.3371 31.928 30.265 30.5721 30.6706C30.9286 30.5846 31.3811 31.4184 31.5629 31.846C32.3486 36.2769 32.9399 34.4606 33.1373 32.9986C36.3113 33.6475 36.3163 32.8213 35.9221 32.327C35.5656 32.413 34.5396 31.4817 34.0711 31.0054C35.0115 30.2128 34.8268 29.2516 34.6169 28.87Z" fill="#F5DA58"/>
<path d="M34.2513 12.6925C34.2495 12.6886 34.2478 12.6847 34.246 12.6807C34.1819 12.5809 33.614 12.3796 32.9459 12.1728C31.7944 11.8163 29.6555 12.5625 29.0415 11.5251C28.7326 11.0032 29.4105 10.9404 29.9903 10.7623C31.1118 10.4176 32.4962 9.70013 33.1958 9.29319C33.2322 10.2224 33.9076 11.9306 34.246 12.6807C34.2486 12.6848 34.2504 12.6887 34.2513 12.6925Z" fill="#F5DA58"/>
<path d="M19.4973 54.168C18.961 55.7095 20.0933 57.1942 20.7265 57.7439C21.4255 61.187 22.6567 61.3615 23.1849 61.0183C24.9214 60.7122 25.3374 58.7033 25.3284 57.7371C24.4696 55.8029 25.5011 54.2448 26.1241 53.7075C26.1214 53.4176 25.8227 52.4783 25.6738 52.0449C25.8688 51.2024 25.9334 50.0978 25.9413 49.6508C26.0767 48.635 25.124 46.2161 24.6308 45.1336C26.2047 42.9448 25.5439 40.7406 25.0168 39.9121C25.8566 39.8173 25.1048 37.7009 24.624 36.6546C26.1329 33.7126 25.273 32.4331 24.6545 32.1611C23.476 30.1429 22.9467 27.7804 22.8293 26.8515C24.1187 25.2451 23.7593 24.2701 23.4185 23.9834C22.9823 23.8425 22.4511 22.5792 22.2401 21.9652C23.1394 22.0437 22.0279 18.6456 21.3596 16.9367C22.213 15.1894 21.7445 14.1792 21.4036 13.8925C20.293 12.9172 19.5232 11.7117 19.2771 11.2309C19.2365 9.98477 18.4678 8.64158 18.0885 8.12575C16.9779 7.15051 16.3751 5.72606 16.2126 5.13574C13.612 2.92794 12.8286 3.6334 12.762 4.26211C13.0085 5.82518 12.4945 6.65616 12.2067 6.87626C11.4021 7.63748 11.5712 8.66983 11.7563 9.09084C12.1708 10.0146 12.236 11.3088 12.2169 11.8404C11.2145 13.1543 11.8331 16.0111 12.2677 17.2753C11.6717 18.6433 11.8207 19.8522 11.9697 20.2857C12.972 22.0736 12.9382 23.103 12.7959 23.3942C11.3304 24.7704 12.3862 27.3719 13.0973 28.5006C14.0996 30.2885 14.3118 31.7988 14.2927 32.3304C13.2389 34.3405 13.682 35.4886 14.0353 35.8114C14.829 36.9925 15.1404 39.0261 15.1968 39.8952C14.3679 41.1494 15.3684 44.0365 15.9723 45.3233C16.3705 47.6096 17.2218 48.4883 17.5976 48.6418C17.1642 48.7908 17.8437 50.415 18.2376 51.2085C19.091 52.563 19.433 53.7459 19.4973 54.168Z" fill="#E8AB2E"/>
<path d="M24.1348 60.6091C24.1802 60.6266 24.1801 60.6521 24.1476 60.6825L29.0601 88.6837L27.9766 89.0562L22.8391 61.1373C22.9507 61.127 23.9802 60.8391 24.1476 60.6825L24.1348 60.6091Z" fill="#EEBCA1"/>
<path d="M14.0352 35.8115C14.8289 36.9926 15.1403 39.0261 15.1967 39.8952C14.6609 40.706 14.8895 42.199 15.2812 43.5011C17.5106 48.1628 18.8379 48.4981 19.2229 48.0831C20.1954 46.6825 22.0459 47.7185 22.8495 48.4115C20.9831 47.2115 20.1146 50.4421 19.9137 52.2075C20.572 54.4044 21.477 54.053 21.8472 53.6026C21.5438 52.156 22.4274 51.0607 22.9071 50.6938C23.0792 51.7251 23.688 53.7453 24.7458 53.5755C24.8892 53.4051 25.0343 52.6524 24.4682 51.0054C24.4524 50.6069 24.4776 49.6935 24.7052 49.2276C24.6397 48.6847 24.3185 47.3977 23.5573 46.5931C23.2649 46.3301 22.987 45.2867 24.2142 43.2171C24.3158 42.4552 23.9243 41.6689 21.5458 44.619C20.6304 44.8933 18.5213 45.1256 17.4079 43.8605C18.9057 43.8706 22.387 43.1182 24.3293 40.0273C24.3936 39.157 24.1701 37.7314 22.7615 38.9911C22.5696 39.1378 21.9745 39.3101 21.1293 38.8252C20.6169 38.2743 19.185 37.0461 17.5569 36.5395C17.0941 36.1331 16.1855 34.8058 16.2532 32.7469C16.7002 32.7548 17.7878 33.3341 18.5626 35.588C18.9159 35.9108 19.8459 36.4311 20.7399 35.93C21.2377 36.0857 22.3146 36.6336 22.6396 37.579C23.2051 37.3443 24.3306 36.295 24.309 33.9761C24.2948 33.1732 24.1996 31.3966 23.9318 30.7132C23.2511 29.1175 22.9191 27.5635 22.8292 26.8515C24.1186 25.2451 23.7593 24.2701 23.4184 23.9834C22.9822 23.8425 22.451 22.5793 22.24 21.9652C23.1393 22.0438 22.0278 18.6456 21.3595 16.9367C22.2129 15.1894 21.7444 14.1792 21.4036 13.8925C20.2929 12.9173 19.5231 11.7118 19.277 11.2309C19.2364 9.98482 18.4677 8.64163 18.0884 8.1258C17.7398 7.56714 15.7128 7.04422 14.7429 6.85259C15.8836 5.00651 14.8953 5.14428 14.2586 5.44393C12.5005 6.53294 12.3612 7.91361 12.5114 8.46782C13.278 9.85209 15.5623 9.23648 16.6087 8.75564C16.5274 9.36516 15.1323 9.7478 14.4449 9.86293C12.9445 9.16396 12.2448 9.78999 12.0824 10.1904C12.207 10.8546 12.229 11.5021 12.2168 11.8405C12.1274 11.9577 12.0509 12.0871 11.986 12.2266C12.6087 12.0641 13.0449 13.7797 13.1852 14.6578C14.3961 13.9508 17.5636 15.2933 18.996 16.0529C20.1581 16.3319 19.6089 17.0135 19.189 17.3194C18.3817 17.7907 15.3174 16.6308 13.8862 15.992C11.7949 18.6495 12.9245 20.3613 13.7507 20.885C14.5147 18.8777 15.0962 18.807 15.2915 19.0226C15.5488 21.7451 17.6629 22.0443 18.6878 21.8535C18.314 22.1759 18.5885 22.8569 18.7725 23.1572C18.4853 23.4498 17.8853 23.866 17.6212 24.0376C15.985 25.7632 14.5126 23.5714 13.981 22.2598L12.8691 22.9023C12.8743 23.1392 12.8404 23.303 12.7958 23.3942C12.1995 23.9542 12.0206 24.7172 12.0661 25.5012C12.5199 26.5392 13.516 27.2516 13.9573 27.478C15.9159 29.228 17.3582 28.2072 17.8345 27.478C19.5601 26.0124 20.5785 26.4136 20.8719 26.7974C20.5523 26.7134 19.7319 27.5931 19.3617 28.0435C18.4515 29.9073 16.4563 29.9307 15.5725 29.7095C14.8194 29.7745 14.3934 31.2139 14.2745 31.9255C14.2915 32.0927 14.2962 32.2293 14.2926 32.3304C13.2388 34.3405 13.6819 35.4887 14.0352 35.8115Z" fill="#E9D235"/>
<path d="M23.4185 23.9833C22.9824 23.8425 22.4512 22.5792 22.2401 21.9652C23.0368 22.0348 22.2555 19.3761 21.6022 17.5803C20.8832 17.8274 20.0831 17.9865 19.4254 18.3678C19.1609 18.5212 18.907 18.6871 18.732 18.8092L17.0219 18.0643C15.6322 18.2512 17.1518 19.0293 18.0852 19.395L17.6653 20.9933C19.075 20.3006 20.0632 20.567 20.3811 20.7868L19.5989 22.3885C21.1917 22.2286 21.0685 23.2565 20.8077 23.7903C19.502 23.6576 18.0265 24.7464 17.452 25.3074C17.3626 25.0473 15.7961 25.19 15.0241 25.2938L14.1471 24.5048C12.8549 25.8214 14.2046 26.7871 15.041 27.1054C15.1946 26.7296 15.9303 26.097 17.645 26.5738C18.4588 25.769 20.503 24.5251 22.169 25.988C22.7574 25.503 23.831 24.4231 23.4185 23.9833Z" fill="#F5DA58"/>
<path d="M16.3007 37.8194C16.1273 37.879 16.4881 39.7744 16.6901 40.7146C17.8062 42.2696 19.5052 42.0894 20.2152 41.805C23.2763 40.5588 22.2763 40.0464 21.3936 39.9459C20.2098 40.4498 17.5051 38.7382 16.3007 37.8194Z" fill="#F5DA58"/>
<path d="M20.8924 28.9712C20.9547 29.4345 18.3471 30.6136 17.0355 31.1452C17.3822 31.026 17.9114 31.8134 18.1327 32.222C19.3327 36.5591 19.7501 34.6951 19.8088 33.2209C23.0298 33.5677 22.9569 32.7446 22.5178 32.2897C22.1711 32.4089 21.0617 31.5786 20.5504 31.1486C21.4119 30.2709 21.1374 29.3313 20.8924 28.9712Z" fill="#F5DA58"/>
<path d="M19.0029 12.9003C19.0008 12.8966 18.9986 12.8928 18.9965 12.8891C18.9232 12.7957 18.3389 12.6489 17.6542 12.506C16.4742 12.2597 14.4153 13.2043 13.7062 12.2294C13.3495 11.7389 14.0184 11.6125 14.5788 11.3805C15.6628 10.9316 16.9734 10.0868 17.6315 9.61567C17.7554 10.5373 18.5889 12.1742 18.9965 12.8891C18.9995 12.8929 19.0016 12.8966 19.0029 12.9003Z" fill="#F5DA58"/>
<path d="M57.0822 53.7482C56.0739 55.0315 56.6621 56.8037 57.0822 57.5294C56.6239 61.0127 57.7315 61.578 58.3426 61.4252C60.0843 61.7002 61.1308 59.9356 61.4364 59.019C61.253 56.9107 62.735 55.7725 63.4988 55.4669C63.5905 55.1919 63.6134 54.2065 63.6134 53.7482C64.0717 53.0149 64.4919 51.9913 64.6447 51.5711C65.103 50.6545 64.9884 48.0573 64.8738 46.8733C67.0738 45.315 67.1655 43.0157 66.9363 42.0608C67.7613 42.2442 67.7384 39.9983 67.6238 38.8525C70.0071 36.5609 69.6099 35.0713 69.1134 34.613C68.655 32.3213 68.9224 29.9151 69.1134 28.9985C70.855 27.8985 70.8321 26.8596 70.6029 26.4777C70.2363 26.2027 70.1446 24.8353 70.1446 24.186C70.9696 24.5527 71.0231 20.9777 70.9467 19.1444C72.3217 17.7694 72.2071 16.6618 71.9779 16.2799C71.2446 14.9965 70.9085 13.6063 70.8321 13.0716C71.1987 11.8799 70.9085 10.3598 70.7175 9.74868C69.9842 8.46535 69.8772 6.92233 69.9154 6.31123C68.1738 3.37793 67.2037 3.79042 66.9363 4.36333C66.6613 5.92165 65.9051 6.54039 65.5613 6.65498C64.553 7.1133 64.3773 8.14454 64.4155 8.60287C64.5072 9.61119 64.1481 10.8563 63.9572 11.3528C62.5822 12.2695 62.2384 15.1722 62.2384 16.509C61.2301 17.609 60.978 18.8007 60.978 19.259C61.3447 21.2756 60.978 22.2381 60.7489 22.4673C58.9156 23.2923 59.0683 26.0957 59.3739 27.3943C59.7405 29.411 59.4503 30.9082 59.2593 31.4047C57.6093 32.963 57.6551 34.1929 57.8843 34.613C58.251 35.988 57.8843 38.0123 57.6551 38.8525C56.4635 39.7692 56.4711 42.8247 56.6239 44.2379C56.2572 46.5295 56.7767 47.6372 57.0822 47.9045C56.6239 47.9045 56.7385 49.6614 56.8531 50.5399C57.2197 52.0982 57.1586 53.3281 57.0822 53.7482Z" fill="#E8AB2E"/>
<path d="M59.3738 61.347C59.411 61.3783 59.4027 61.4024 59.3621 61.4205L54.9051 89.4979H53.7593L57.9768 61.4253C58.0857 61.4518 59.1528 61.5143 59.3621 61.4205L59.3738 61.347Z" fill="#EEBCA1"/>
<path d="M57.8844 34.6131C58.2511 35.988 57.8844 38.0123 57.6552 38.8526C56.8849 39.4451 56.6158 40.9314 56.563 42.2901C57.1558 47.4233 58.3021 48.1719 58.8011 47.9046C60.176 46.8962 61.5892 48.4775 62.1239 49.3941C60.749 47.6525 58.8775 50.4254 58.1136 52.0295C58.0219 54.3212 58.992 54.283 59.4886 53.9774C59.6719 52.5108 60.8635 51.7622 61.4365 51.5712C61.264 52.6024 61.1829 54.7107 62.2385 54.8941C62.4295 54.7795 62.8114 54.1149 62.8114 52.3733C62.926 51.9913 63.2468 51.1358 63.6135 50.7691C63.7281 50.2344 63.8427 48.9129 63.3843 47.9046C63.1934 47.5608 63.2698 46.4838 65.1031 44.9254C65.4468 44.2379 65.3322 43.3671 62.1239 45.3838C61.1691 45.3456 59.099 44.8796 58.4573 43.3213C59.8705 43.8178 63.4073 44.2379 66.2489 41.9463C66.5926 41.1442 66.8447 39.7234 65.1031 40.4567C64.8739 40.5331 64.2552 40.5026 63.6135 39.7692C63.308 39.0818 62.3531 37.4547 60.9781 36.4464C60.6726 35.9116 60.2448 34.361 60.9781 32.436C61.3983 32.5888 62.2385 33.4901 62.2385 35.8735C62.4677 36.2936 63.1781 37.088 64.1864 36.9047C64.6066 37.2138 65.4468 38.082 65.4468 39.0818C66.0579 39.0436 67.4635 38.4172 68.1968 36.2172C68.4444 35.4533 68.9319 33.7422 68.9008 33.0089C68.7759 31.2786 68.9671 29.7011 69.1135 28.9985C70.8551 27.8985 70.8322 26.8597 70.603 26.4777C70.2364 26.2027 70.1447 24.8354 70.1447 24.1861C70.9697 24.5527 71.0232 20.9778 70.9468 19.1445C72.3217 17.7695 72.2072 16.6619 71.978 16.2799C71.2447 14.9966 70.9086 13.6063 70.8322 13.0716C71.1988 11.88 70.9086 10.3599 70.7176 9.74875C70.5695 9.10709 68.8226 7.95363 67.9676 7.45711C69.6465 6.08212 68.6672 5.89115 67.9676 5.96754C65.951 6.42587 65.3704 7.68627 65.3322 8.25918C65.6072 9.81749 67.9676 9.97791 69.1135 9.86333C68.8385 10.4133 67.3947 10.3217 66.7072 10.2071C65.5156 9.05832 64.6503 9.42288 64.3667 9.74875C64.2685 10.4174 64.0788 11.0368 63.9573 11.3529C63.8346 11.4347 63.7202 11.5322 63.6135 11.643C64.2552 11.6918 64.11 13.456 63.9573 14.332C65.3322 14.057 67.8912 16.3563 68.9989 17.5403C70.0072 18.182 69.2662 18.648 68.7697 18.8007C67.853 18.9841 65.3322 16.891 64.1864 15.8216C61.3448 17.6549 61.8566 19.641 62.4677 20.4049C63.8427 18.7549 64.4156 18.8771 64.5302 19.1445C63.8885 21.8028 65.7906 22.7729 66.8218 22.9257C66.3635 23.109 66.4017 23.8423 66.4781 24.1861C66.1114 24.3694 65.4086 24.568 65.1031 24.6444C62.9948 25.7444 62.3149 23.193 62.2385 21.7799L60.9781 22.026C60.9061 22.2517 60.8208 22.3955 60.749 22.4674C60.0029 22.8031 59.5858 23.4664 59.374 24.2226C59.4656 25.3519 60.176 26.3493 60.5198 26.7069C61.8031 28.9985 63.4989 28.502 64.1864 27.9673C66.2947 27.1423 67.1274 27.8527 67.2801 28.311C67.0051 28.1277 65.9433 28.693 65.4468 28.9985C63.9802 30.4652 62.0858 29.8388 61.3219 29.3423C60.5885 29.1589 59.7177 30.3817 59.374 31.016C59.3357 31.1796 59.2957 31.3103 59.2594 31.4048C57.6094 32.9631 57.6552 34.1929 57.8844 34.6131Z" fill="#E9D235"/>
<path d="M70.603 26.4777C70.2363 26.2027 70.1446 24.8353 70.1446 24.186C70.8755 24.5108 71.0008 21.7426 70.9669 19.8319C70.2066 19.8319 69.3982 19.7223 68.6523 19.8691C68.3522 19.9281 68.0582 20.0025 67.853 20.0611L66.478 18.8007C65.103 18.5257 66.2871 19.7555 67.051 20.4048L66.1343 21.7798C67.6926 21.5829 68.5405 22.1561 68.7697 22.4673L67.5093 23.7277C69.0676 24.0944 68.6169 25.0263 68.1968 25.4464C67.0051 24.8965 65.2558 25.4464 64.5301 25.7902C64.5301 25.5152 63.0024 25.1409 62.2385 24.9881L61.6656 23.9569C60.0156 24.7819 60.9781 26.1339 61.6656 26.7068C61.933 26.4013 62.8343 26.0423 64.301 27.0506C65.3322 26.5541 67.6697 26.0423 68.7697 27.9672C69.4838 27.6999 70.8501 27.0277 70.603 26.4777Z" fill="#F5DA58"/>
<path d="M59.3739 37.2484C59.1906 37.2484 58.9156 39.1581 58.801 40.113C59.351 41.9463 61.0163 42.3282 61.7802 42.29C65.0802 42.1067 64.301 41.297 63.4989 40.915C62.2156 41.0067 60.2142 38.5088 59.3739 37.2484Z" fill="#F5DA58"/>
<path d="M66.5926 30.3735C66.501 30.8318 63.6517 31.0992 62.2385 31.1756C62.6051 31.1756 62.8496 32.0922 62.926 32.5505C62.651 37.0422 63.6517 35.4151 64.1864 34.0401C67.1197 35.4151 67.3183 34.613 67.051 34.0401C66.6843 34.0401 65.9051 32.8943 65.5614 32.3214C66.6614 31.7714 66.7072 30.7936 66.5926 30.3735Z" fill="#F5DA58"/>
<path d="M70.0301 14.5612C70.0293 14.5569 70.0285 14.5527 70.0277 14.5484C69.9888 14.4364 69.4839 14.1076 68.8829 13.7498C67.847 13.1334 65.5928 13.3573 65.2392 12.2049C65.0613 11.625 65.735 11.723 66.3404 11.6857C67.5114 11.6136 69.0255 11.2407 69.8009 11.0091C69.6186 11.921 69.8746 13.7399 70.0277 14.5484C70.0293 14.5531 70.0301 14.5573 70.0301 14.5612Z" fill="#F5DA58"/>
<path d="M47.2687 51.2656C46.3843 52.6372 47.135 54.3469 47.6209 55.0303C47.489 58.5412 48.6445 59.0008 49.2387 58.7918C50.9984 58.9033 51.876 57.049 52.0948 56.1078C51.7159 54.0258 53.0854 52.7545 53.8175 52.3791C53.8831 52.0968 53.8141 51.1135 53.7714 50.6572C54.1595 49.8844 54.4824 48.8261 54.5954 48.3935C54.9664 47.4382 54.6104 44.8629 54.386 43.6947C56.4312 41.9383 56.3083 39.6405 55.9912 38.7111C56.8297 38.8168 56.5977 36.5829 56.3769 35.4527C58.5364 32.949 58.0021 31.503 57.4651 31.0929C56.7953 28.8539 56.8373 26.4332 56.9421 25.5028C58.5737 24.2453 58.4541 23.2131 58.1904 22.8542C57.7997 22.6145 57.581 21.2616 57.5206 20.6152C58.3761 20.9034 58.0964 17.339 57.8495 15.5208C59.0905 14.0237 58.8732 12.9315 58.6095 12.5726C57.7598 11.3632 57.2956 10.0103 57.1698 9.485C57.4239 8.26437 56.9932 6.7779 56.7462 6.18724C55.8965 4.9778 55.6463 3.45144 55.6274 2.83944C53.6201 0.081127 52.6926 0.582194 52.4798 1.17752C52.3511 2.75467 51.6558 3.44117 51.3242 3.58727C50.363 4.13753 50.2841 5.18065 50.3648 5.63343C50.55 6.62883 50.3085 7.90198 50.1647 8.41414C48.881 9.45488 48.8092 12.377 48.9337 13.708C48.0322 14.8971 47.8922 16.1071 47.9349 16.5634C48.4878 18.5371 48.2124 19.5296 48.0056 19.7791C46.2571 20.7713 46.6703 23.5483 47.0955 24.8128C47.6484 26.7865 47.4989 28.3043 47.355 28.8164C45.8574 30.5216 46.0175 31.7419 46.2848 32.1388C46.778 33.4737 46.6015 35.5233 46.4516 36.3813C45.3505 37.405 45.6427 40.4465 45.9265 41.8393C45.7749 44.1551 46.3952 45.2095 46.7243 45.4473C46.268 45.49 46.5457 47.2286 46.7417 48.0926C47.2519 49.6099 47.3056 50.8401 47.2687 51.2656Z" fill="#E8AB2E"/>
<path d="M50.2583 58.6178C50.2983 58.6455 50.2923 58.6702 50.2535 58.6921L48.4312 87.0626L47.2904 87.1693L48.8747 58.8259C48.9856 58.8422 50.0539 58.8049 50.2535 58.6921L50.2583 58.6178Z" fill="#EEBCA1"/>
<path d="M46.2846 32.1389C46.7777 33.4737 46.6012 35.5234 46.4513 36.3813C45.7396 37.043 45.61 38.5479 45.684 39.9056C46.7524 44.9613 47.9634 45.5999 48.4353 45.2872C49.7104 44.1552 51.2647 45.5979 51.8825 46.4608C50.3513 44.8548 48.7462 47.7899 48.1351 49.4583C48.2573 51.7485 49.2196 51.6201 49.6855 51.2696C49.7314 49.7923 50.8482 48.9359 51.4008 48.6924C51.3252 49.7352 51.4408 51.8419 52.5089 51.9261C52.6884 51.7943 53.0068 51.097 52.8445 49.3629C52.923 48.972 53.1628 48.0903 53.4937 47.691C53.558 47.148 53.549 45.8215 52.9987 44.8603C52.7765 44.5358 52.7523 43.4563 54.4325 41.734C54.7107 41.0175 54.5155 40.1611 51.509 42.4679C50.5547 42.5188 48.4502 42.2477 47.6662 40.7559C49.1195 41.1186 52.68 41.2075 55.2958 38.6611C55.5633 37.8305 55.682 36.3924 54.0162 37.2847C53.7952 37.3822 53.1763 37.4094 52.4691 36.739C52.1008 36.083 50.9986 34.5519 49.5356 33.676C49.1816 33.1721 48.6112 31.668 49.1621 29.6831C49.5946 29.7961 50.5152 30.6153 50.7372 32.9882C51.0045 33.3852 51.7858 34.11 52.7727 33.8335C53.2198 34.1022 54.1373 34.8883 54.2304 35.8837C54.8353 35.7888 56.1764 35.0342 56.7016 32.7755C56.877 31.9918 57.203 30.2428 57.1037 29.5155C56.8181 27.8044 56.8616 26.2159 56.9418 25.5028C58.5735 24.2454 58.4539 23.2131 58.1901 22.8542C57.7994 22.6146 57.5808 21.2617 57.5203 20.6152C58.3759 20.9034 58.0961 17.339 57.8493 15.5208C59.0902 14.0237 58.873 12.9316 58.6092 12.5727C57.7596 11.3632 57.2954 10.0103 57.1695 9.48505C57.4236 8.26442 56.993 6.77795 56.7459 6.18729C56.5387 5.56221 54.6919 4.57649 53.7945 4.16176C55.338 2.63637 54.3451 2.53746 53.6557 2.67867C51.6905 3.32285 51.2299 4.63185 51.2452 5.20583C51.6642 6.73175 54.0293 6.6716 55.1594 6.45079C54.9369 7.02401 53.4909 7.06722 52.7957 7.01718C51.5022 5.98442 50.6747 6.42799 50.4226 6.77886C50.3872 7.45371 50.256 8.08815 50.1644 8.41418C50.0499 8.507 49.9451 8.61477 49.8492 8.73505C50.4926 8.72384 50.5124 10.4939 50.4419 11.3804C51.7853 10.9785 54.5473 13.0294 55.7604 14.1051C56.8242 14.65 56.1298 15.183 55.6497 15.3814C54.7541 15.6493 52.0493 13.8001 50.8088 12.8421C48.1503 14.9321 48.8449 16.8619 49.5245 17.5655C50.7398 15.7947 51.3216 15.863 51.4606 16.1185C51.0693 18.825 53.0535 19.6138 54.0945 19.6698C53.6552 19.895 53.7616 20.6216 53.8696 20.9568C53.5216 21.1734 52.8404 21.4367 52.5433 21.5412C50.5466 22.8328 49.6321 20.3558 49.4244 18.9559L48.1924 19.3183C48.1417 19.5498 48.0702 19.701 48.0054 19.7792C47.2938 20.1829 46.9403 20.8822 46.7998 21.6549C46.9963 22.7707 47.7965 23.6976 48.1721 24.0216C49.6633 26.1837 51.3055 25.5314 51.9402 24.935C53.9625 23.9172 54.8577 24.547 55.0525 24.9891C54.7616 24.8321 53.7571 25.4939 53.2912 25.8443C51.9675 27.4412 50.023 26.994 49.2162 26.5708C48.4689 26.4566 47.7158 27.7551 47.4326 28.4187C47.4097 28.5852 47.3821 28.719 47.3548 28.8165C45.8571 30.5217 46.0173 31.7419 46.2846 32.1389Z" fill="#E9D235"/>
<path d="M58.1903 22.8541C57.7996 22.6145 57.581 21.2616 57.5205 20.6152C58.2784 20.8705 58.1454 18.1026 57.9335 16.2034C57.1766 16.2742 56.3615 16.2403 55.6325 16.456C55.3393 16.5427 55.0534 16.6441 54.8546 16.7216L53.3682 15.5948C51.9735 15.449 53.267 16.5632 54.088 17.1386L53.3034 18.5929C54.8367 18.2518 55.7342 18.7435 55.9914 19.032L54.8539 20.4043C56.4396 20.6242 56.0776 21.5941 55.6985 22.0515C54.4607 21.6149 52.7703 22.3255 52.0798 22.7353C52.0542 22.4615 50.4982 22.2312 49.7234 22.1502L49.057 21.1768C47.491 22.1519 48.5752 23.4084 49.3131 23.9148C49.5508 23.5857 50.4149 23.1443 51.9691 24.0116C52.9496 23.4212 55.2292 22.6938 56.5037 24.508C57.1898 24.1753 58.4876 23.3787 58.1903 22.8541Z" fill="#F5DA58"/>
<path d="M48.0133 34.624C47.8308 34.6411 47.7349 36.5681 47.7097 37.5295C48.4281 39.3036 50.1217 39.5287 50.8787 39.4195C54.1473 38.9296 53.2961 38.196 52.4619 37.8904C51.1927 38.1013 48.9674 35.8006 48.0133 34.624Z" fill="#F5DA58"/>
<path d="M54.5603 27.1066C54.5117 27.5714 51.6997 28.103 50.2998 28.3107C50.6648 28.2766 50.9936 29.1665 51.1124 29.6157C51.2569 34.1134 52.1017 32.4002 52.506 30.9814C55.5546 32.0772 55.6777 31.2601 55.3581 30.7146C54.9931 30.7487 54.1106 29.6804 53.7149 29.142C54.7589 28.492 54.7135 27.5142 54.5603 27.1066Z" fill="#F5DA58"/>
<path d="M56.5099 11.0428C56.5087 11.0387 56.5075 11.0345 56.5063 11.0304C56.4571 10.9224 55.9239 10.642 55.2921 10.3419C54.2033 9.82456 51.9798 10.2575 51.5204 9.14301C51.2892 8.58227 51.9691 8.61704 52.5684 8.52355C53.7276 8.34269 55.2004 7.83035 55.9509 7.52754C55.8542 8.45242 56.2786 10.2396 56.5063 11.0304C56.5083 11.0348 56.5095 11.0389 56.5099 11.0428Z" fill="#F5DA58"/>
<path d="M37.3004 52.7745C36.5201 54.2079 37.3955 55.8573 37.9307 56.5028C38.0596 60.0137 39.2459 60.3864 39.823 60.1339C41.5861 60.1147 42.3238 58.2004 42.4722 57.2456C41.94 55.1973 43.2114 53.828 43.9137 53.3994C43.9582 53.113 43.8165 52.1375 43.7401 51.6856C44.0698 50.8862 44.3134 49.8068 44.394 49.3671C44.6931 48.3869 44.1471 45.8451 43.8368 44.6968C45.7462 42.7935 45.4532 40.5111 45.0681 39.6079C45.9121 39.6511 45.5151 37.4405 45.2111 36.3298C47.179 33.6729 46.539 32.2704 45.973 31.9013C45.1391 29.7181 45.0015 27.301 45.037 26.3654C46.5709 24.9904 46.3751 23.9699 46.0855 23.6315C45.6781 23.4215 45.3598 22.0885 45.2515 21.4483C46.1261 21.6723 45.5828 18.1385 45.2019 16.3436C46.3284 14.7586 46.0308 13.6856 45.7411 13.3472C44.8041 12.2041 44.2409 10.8893 44.0765 10.3748C44.2393 9.1387 43.6997 7.68824 43.4095 7.11753C42.4725 5.97441 42.1098 4.47081 42.0456 3.8619C39.8393 1.26 38.9515 1.82846 38.7834 2.43792C38.7721 4.02028 38.1296 4.75644 37.8097 4.92672C36.8919 5.54674 36.8906 6.59283 37.0047 7.03838C37.2632 8.01731 37.1167 9.30486 37.0112 9.82628C35.8083 10.9593 35.9533 13.8788 36.1762 15.1968C35.3653 16.4495 35.3154 17.6665 35.3918 18.1185C36.0896 20.0457 35.8885 21.0559 35.7007 21.3201C34.0306 22.4391 34.6486 25.1779 35.1664 26.4074C35.8641 28.3347 35.8275 29.8593 35.722 30.3807C34.3549 32.1923 34.6051 33.3973 34.9011 33.7733C35.4919 35.068 35.4678 37.125 35.382 37.9918C34.3598 39.0942 34.8767 42.1057 35.263 43.4737C35.2835 45.7944 35.9803 46.7999 36.3262 47.0126C35.8742 47.089 36.2801 48.8022 36.5395 49.6493C37.1609 51.1247 37.3056 52.3475 37.3004 52.7745Z" fill="#E8AB2E"/>
<path d="M40.8265 59.8848C40.8684 59.9095 40.8642 59.9346 40.8272 59.9593L41.1134 88.3867L39.9836 88.5778L39.4621 60.1949C39.5739 60.203 40.6365 60.0866 40.8272 59.9593L40.8265 59.8848Z" fill="#EEBCA1"/>
<path d="M34.901 33.7734C35.4917 35.068 35.4677 37.1251 35.3818 37.9918C34.7211 38.7045 34.7034 40.2148 34.8779 41.5632C36.3182 46.5258 37.5732 47.0729 38.0207 46.7261C39.2083 45.5026 40.8653 46.8261 41.5454 47.6408C39.8993 46.1528 38.5162 49.1989 38.0305 50.9079C38.3221 53.1828 39.2723 52.9834 39.7109 52.5993C39.6472 51.1226 40.6974 50.1858 41.2304 49.902C41.2323 50.9476 41.5039 53.0399 42.5753 53.0447C42.7444 52.8999 43.0102 52.1809 42.7199 50.4637C42.7692 50.068 42.9429 49.1709 43.2433 48.7482C43.2671 48.2019 43.1598 46.8798 42.5398 45.962C42.2942 45.6549 42.19 44.5802 43.7378 42.738C43.9621 42.0028 43.704 41.1633 40.8768 43.6866C39.9289 43.8081 37.8101 43.6938 36.9176 42.2642C38.3938 42.5182 41.9511 42.3428 44.3709 39.6095C44.5762 38.7614 44.5878 37.3184 42.9928 38.3318C42.7796 38.4454 42.1644 38.5184 41.4095 37.9023C40.9936 37.2754 39.7809 35.8303 38.257 35.0653C37.8666 34.589 37.1863 33.1313 37.5884 31.111C38.0282 31.1916 39.0069 31.9403 39.4043 34.2903C39.7003 34.6663 40.5332 35.3312 41.4968 34.9823C41.9626 35.2171 42.9359 35.933 43.1025 36.9188C43.6987 36.7793 44.9802 35.9273 45.3365 33.6359C45.4533 32.8414 45.6487 31.073 45.4958 30.3551C45.0841 28.6698 45.0097 27.0825 45.0368 26.3654C46.5707 24.9905 46.375 23.9699 46.0853 23.6316C45.6779 23.4215 45.3596 22.0886 45.2514 21.4484C46.1259 21.6724 45.5827 18.1385 45.2017 16.3436C46.3282 14.7586 46.0306 13.6856 45.741 13.3472C44.8039 12.2041 44.2408 10.8894 44.0763 10.3749C44.2392 9.13875 43.6995 7.6883 43.4094 7.11758C43.1563 6.5096 41.2416 5.66351 40.3158 5.31647C41.742 3.68083 40.7445 3.65581 40.0675 3.84775C38.1555 4.63586 37.7932 5.97541 37.851 6.54667C38.382 8.03732 40.7361 7.80199 41.8468 7.49799C41.6673 8.08614 40.2285 8.23644 39.5315 8.23808C38.165 7.30406 37.3727 7.80776 37.1473 8.17637C37.162 8.85199 37.0782 9.4944 37.0111 9.82633C36.9038 9.92738 36.8072 10.0426 36.7205 10.1697C37.3613 10.1108 37.5123 11.8745 37.5077 12.7638C38.8176 12.2634 41.7241 14.1039 43.0136 15.0867C44.1148 15.5512 43.4619 16.1342 42.9978 16.3676C42.1245 16.7012 39.2901 15.0577 37.982 14.1943C35.4858 16.4757 36.3215 18.3486 37.0514 19C38.1321 17.1438 38.7174 17.1688 38.8749 17.4133C38.6854 20.1414 40.7226 20.7809 41.7649 20.7596C41.3435 21.0168 41.5034 21.7335 41.636 22.0597C41.3051 22.3016 40.6453 22.6145 40.3567 22.7408C38.4613 24.1769 37.3656 21.7746 37.0547 20.3939L35.853 20.8467C35.8196 21.0813 35.7594 21.2373 35.7006 21.3201C35.021 21.7755 34.7202 22.4991 34.6375 23.28C34.9161 24.3782 35.7829 25.2432 36.1814 25.5385C37.8288 27.5841 39.4181 26.8118 40.0069 26.17C41.9481 25.0051 42.8875 25.5667 43.1146 25.9932C42.8129 25.8583 41.8602 26.5926 41.4215 26.9767C40.2199 28.6673 38.2476 28.3655 37.4116 28.0033C36.658 27.9448 36.0032 29.2956 35.77 29.9783C35.7595 30.146 35.7419 30.2816 35.7218 30.3808C34.3547 32.1923 34.605 33.3973 34.901 33.7734Z" fill="#E9D235"/>
<path d="M46.0855 23.6316C45.6781 23.4215 45.3598 22.0886 45.2515 21.4484C46.0262 21.6468 45.6884 18.8964 45.3363 17.0181C44.5867 17.1449 43.7713 17.1715 43.0603 17.4406C42.7743 17.5489 42.4968 17.6712 42.3043 17.7632L40.7384 16.7497C39.3368 16.7078 40.7093 17.723 41.5707 18.2359L40.8961 19.7444C42.3998 19.2905 43.3314 19.7143 43.6092 19.983L42.5766 21.4358C44.1743 21.5376 43.8852 22.5316 43.541 23.0159C42.2743 22.6723 40.6412 23.5062 39.983 23.9661C39.9371 23.695 38.3684 23.5806 37.5897 23.5573L36.8529 22.636C35.3636 23.7245 36.538 24.8972 37.3114 25.3475C37.524 25.0016 38.353 24.4974 39.9672 25.2471C40.9012 24.5856 43.1206 23.6912 44.5261 25.4059C45.1857 25.0232 46.4209 24.1326 46.0855 23.6316Z" fill="#F5DA58"/>
<path d="M36.8092 36.1236C36.6284 36.1541 36.6756 38.083 36.7219 39.0435C37.5698 40.7595 39.2754 40.8585 40.0223 40.6935C43.2455 39.9625 42.3422 39.2941 41.4877 39.0512C40.2377 39.3555 37.8478 37.2263 36.8092 36.1236Z" fill="#F5DA58"/>
<path d="M42.7807 28.1414C42.7667 28.6086 40.0019 29.3472 38.6212 29.6582C38.9827 29.597 39.3766 30.4601 39.5284 30.8993C40.006 35.3739 40.7214 33.6028 41.0194 32.1579C44.1409 33.0246 44.203 32.2006 43.8439 31.6803C43.4824 31.7414 42.5231 30.7416 42.0887 30.234C43.0816 29.5083 42.9638 28.5366 42.7807 28.1414Z" fill="#F5DA58"/>
<path d="M43.534 11.9773C43.5325 11.9733 43.531 11.9693 43.5295 11.9652C43.4724 11.8612 42.9198 11.6211 42.2676 11.3686C41.1434 10.9334 38.9581 11.53 38.4173 10.4527C38.1452 9.91064 38.8258 9.8949 39.4165 9.75724C40.5592 9.49093 41.9898 8.87081 42.7158 8.51318C42.688 9.44268 43.2437 11.1934 43.5295 11.9652C43.5318 11.9695 43.5333 11.9735 43.534 11.9773Z" fill="#F5DA58"/>
</svg>
