<svg width="26" height="19" viewBox="0 0 26 19" fill="none" xmlns="http://www.w3.org/2000/svg">
<path d="M10.4857 12.9286L17.1956 9.05L10.4857 5.17143V12.9286ZM25.4311 2.8055C25.5992 3.41314 25.7155 4.22764 25.7931 5.26193C25.8836 6.29621 25.9224 7.18829 25.9224 7.964L26 9.05C26 11.8814 25.7931 13.9629 25.4311 15.2945C25.1079 16.4581 24.358 17.2079 23.1945 17.5311C22.5868 17.6992 21.475 17.8156 19.7684 17.8931C18.0877 17.9836 16.5492 18.0224 15.127 18.0224L13.0714 18.1C7.65432 18.1 4.27997 17.8931 2.94832 17.5311C1.78475 17.2079 1.03489 16.4581 0.711679 15.2945C0.543608 14.6869 0.427251 13.8724 0.34968 12.8381C0.25918 11.8038 0.220394 10.9117 0.220394 10.136L0.142822 9.05C0.142822 6.21864 0.349679 4.13714 0.711679 2.8055C1.03489 1.64193 1.78475 0.892072 2.94832 0.568857C3.55597 0.400786 4.66782 0.284428 6.37439 0.206857C8.05511 0.116357 9.59361 0.0775714 11.0158 0.0775714L13.0714 0C18.4885 0 21.8628 0.206857 23.1945 0.568857C24.358 0.892072 25.1079 1.64193 25.4311 2.8055Z" fill="#646464"/>
</svg>
