<svg width="63" height="48" viewBox="0 0 63 48" fill="none" xmlns="http://www.w3.org/2000/svg">
<path d="M8.6467 14.0716C6.43978 13.4839 4.32368 15.4461 3.34283 16.8534V16.8534C-1.89475 22.091 5.64204 29.9212 11.3049 34.6958C12.2123 35.461 13.1584 36.244 14.1215 37.0297C21.7207 43.2299 31.4016 50.022 38.8136 43.5992C39.0386 43.4043 39.2491 43.2138 39.4433 43.0306C39.9651 42.5088 40.2641 41.9897 40.4015 41.4907M8.6467 14.0716V14.0716C10.4304 14.5465 11.5989 16.2364 13.042 17.3873L34.8976 34.8181M8.6467 14.0716C7.39202 12.7176 5.63547 9.25691 8.6467 6.24568C11.2701 3.56523 17.7146 -0.598022 22.5052 4.19257C23.3263 4.77332 24.2495 5.43377 25.2427 6.1528M45.7738 23.3549C45.9537 24.2545 45.9137 25.8636 44.7472 26.5035M45.7738 23.3549C46.8389 24.5265 48.5405 27.1502 47.4238 28.8299M45.7738 23.3549C44.2027 20.3336 32.7345 11.5767 25.2427 6.1528M44.7472 26.5035C44.4347 26.6749 44.0413 26.7768 43.5496 26.7768C40.8691 26.9479 35.5424 28.4535 35.6793 33.1072C36.6104 33.7279 39.5403 33.7294 44.2645 29.4346C45.2817 28.5099 46.1201 26.5725 44.7472 26.5035V26.5035ZM34.8976 34.8181L38.759 37.8978C39.3393 38.304 40.0731 39.0586 40.3657 39.9904M34.8976 34.8181V34.8181C37.0702 35.4793 39.8616 34.7884 41.7806 33.574C43.775 32.3119 45.9289 30.3857 47.1425 29.1721C47.2513 29.0633 47.3446 28.949 47.4238 28.8299M40.4015 41.4907C41.1688 42.1301 43.1607 42.9488 45.3169 41.4907M40.4015 41.4907C40.5475 40.9609 40.5111 40.4537 40.3657 39.9904M47.4238 28.8299L50.9065 32.0806C51.3336 32.3857 51.6383 32.7361 51.8483 33.1072M45.3169 41.4907C45.4685 41.3882 45.6209 41.2744 45.7738 41.1485C47.3136 40.2931 50.667 38.2058 51.762 36.7001C51.9004 36.4388 52.0412 36.0821 52.1356 35.6736M45.3169 41.4907V41.4907C42.1353 41.7523 43.5114 37.9017 46.0954 36.0271C47.6119 34.927 49.0645 34.0901 49.7089 34.3048C50.7601 34.8581 51.2853 36.7533 45.3169 39.9904M45.3169 39.9904C45.1332 40.09 44.9434 40.1909 44.7472 40.2931L45.3169 39.9904ZM25.2427 6.1528C27.752 4.81502 33.4551 2.78961 36.1926 5.39022C39.4027 8.29879 46.1432 14.287 47.4238 14.9714C51.7214 17.5948 60.3851 23.8682 60.6588 27.9744C60.8869 28.4307 61.1379 29.6854 60.3166 31.0541C59.4612 32.054 57.1001 34.3778 54.4995 35.6736C53.9501 35.9587 52.7083 36.358 52.1356 35.6736M52.1356 35.6736C52.3134 34.9046 52.3264 33.9522 51.8483 33.1072M51.8483 33.1072C53.0742 31.1682 56.0051 27.3585 57.9213 27.6322C59.9297 27.5078 61.9709 28.4807 54.4995 33.2933M54.4995 33.2933C54.3331 33.4004 54.1621 33.5095 53.9862 33.6205L54.4995 33.2933ZM40.3657 39.9904C38.5184 39.1788 33.9684 38.7875 30.5465 43.7149C29.4369 45.4903 29.288 47.6326 37.2191 42.4556M37.2191 42.4556C37.4409 42.3108 37.669 42.1604 37.9035 42.004L37.2191 42.4556Z" stroke="#5F9837" stroke-width="3.00471"/>
<path d="M8.64672 14.0716C7.39205 12.7176 5.6355 9.2569 8.64672 6.24568C11.2701 3.56523 17.7146 -0.598021 22.5052 4.19257C23.3263 4.77332 24.2495 5.43377 25.2427 6.1528C32.7345 11.5767 44.2027 20.3336 45.7738 23.3549C46.8389 24.5265 48.5405 27.1502 47.4238 28.8299C47.3446 28.949 47.2513 29.0633 47.1425 29.1721C45.9289 30.3857 43.775 32.3119 41.7807 33.574C39.8617 34.7884 37.0702 35.4793 34.8976 34.8181L13.042 17.3873C11.5989 16.2364 10.4304 14.5465 8.64672 14.0716Z" fill="url(#paint0_radial_53_437)"/>
<path d="M45.7738 23.3549C45.9537 24.2545 45.9137 25.8636 44.7472 26.5035M45.7738 23.3549C46.8389 24.5265 48.5405 27.1502 47.4238 28.8299C47.3446 28.949 47.2513 29.0633 47.1425 29.1721C45.9289 30.3857 43.775 32.3119 41.7807 33.574C39.8617 34.7884 37.0702 35.4793 34.8976 34.8181V34.8181L13.042 17.3873C11.5989 16.2364 10.4304 14.5465 8.64672 14.0716V14.0716C7.39205 12.7176 5.6355 9.2569 8.64672 6.24568C11.2701 3.56523 17.7146 -0.598021 22.5052 4.19257C23.3263 4.77332 24.2495 5.43377 25.2427 6.1528C32.7345 11.5767 44.2027 20.3336 45.7738 23.3549ZM44.7472 26.5035C44.4347 26.6749 44.0413 26.7768 43.5496 26.7768C40.8691 26.9479 35.5425 28.4535 35.6793 33.1072C36.6104 33.7279 39.5403 33.7293 44.2646 29.4346C45.2817 28.5099 46.1202 26.5725 44.7472 26.5035V26.5035Z" stroke="#5F9837" stroke-width="3.00471"/>
<path d="M47.4238 28.83C48.5405 27.1503 46.8389 24.5266 45.7738 23.355C44.2027 20.3337 32.7345 11.5768 25.2427 6.15286C27.752 4.81508 33.4551 2.78968 36.1926 5.39028C39.4027 8.29886 46.1432 14.2871 47.4238 14.9715C51.7214 17.5949 60.3851 23.8683 60.6588 27.9745C60.8869 28.4307 61.1379 29.6854 60.3166 31.0542C59.4612 32.0541 57.1001 34.3779 54.4995 35.6737C53.9502 35.9588 52.7083 36.358 52.1357 35.6737C52.3134 34.9047 52.3265 33.9523 51.8483 33.1073C51.6383 32.7362 51.3336 32.3858 50.9065 32.0807L47.4238 28.83Z" fill="url(#paint1_radial_53_437)"/>
<path d="M51.8483 33.1073C52.3265 33.9523 52.3134 34.9047 52.1357 35.6737C52.7083 36.358 53.9502 35.9588 54.4995 35.6737C57.1001 34.3779 59.4612 32.0541 60.3166 31.0542C61.1379 29.6854 60.8869 28.4307 60.6588 27.9745C60.3851 23.8683 51.7214 17.5949 47.4238 14.9715C46.1432 14.2871 39.4027 8.29886 36.1926 5.39028C33.4551 2.78968 27.752 4.81508 25.2427 6.15286C32.7345 11.5768 44.2027 20.3337 45.7738 23.355C46.8389 24.5266 48.5405 27.1503 47.4238 28.83L50.9066 32.0807C51.3336 32.3858 51.6383 32.7362 51.8483 33.1073ZM51.8483 33.1073C53.0742 31.1682 56.0051 27.3586 57.9213 27.6323C59.9297 27.5078 61.9709 28.4807 54.4995 33.2934M54.4995 33.2934C54.3332 33.4005 54.1621 33.5096 53.9862 33.6205L54.4995 33.2934Z" stroke="#5F9837" stroke-width="3.00471"/>
<path d="M41.7806 33.5739C43.775 32.3118 45.9289 30.3856 47.1425 29.172C47.2512 29.0633 47.3446 28.9489 47.4237 28.8298L50.9065 32.0806C51.3336 32.3857 51.6383 32.736 51.8483 33.1071C52.3264 33.9522 52.3133 34.9046 52.1356 35.6735C52.0412 36.082 51.9004 36.4387 51.762 36.7001C50.667 38.2057 47.3136 40.293 45.7737 41.1485C45.6209 41.2744 45.4685 41.3882 45.3169 41.4907C43.1607 42.9487 41.1688 42.1301 40.4015 41.4907C40.5474 40.9608 40.5111 40.4537 40.3656 39.9904C40.0731 39.0586 39.3393 38.304 38.7589 37.8977L34.8975 34.8181C37.0701 35.4792 39.8616 34.7884 41.7806 33.5739Z" fill="url(#paint2_linear_53_437)"/>
<path d="M45.3169 41.4907C43.1607 42.9487 41.1688 42.1301 40.4015 41.4907C40.5474 40.9608 40.5111 40.4537 40.3656 39.9904C40.0731 39.0586 39.3393 38.304 38.7589 37.8977L34.8975 34.8181V34.8181C37.0701 35.4792 39.8616 34.7884 41.7806 33.5739C43.775 32.3118 45.9289 30.3856 47.1425 29.172C47.2512 29.0633 47.3446 28.9489 47.4238 28.8298L50.9065 32.0806C51.3336 32.3857 51.6383 32.736 51.8483 33.1071C52.3264 33.9522 52.3133 34.9046 52.1356 35.6735C52.0412 36.082 51.9004 36.4387 51.762 36.7001C50.667 38.2057 47.3136 40.293 45.7737 41.1485C45.6209 41.2744 45.4685 41.3882 45.3169 41.4907ZM45.3169 41.4907V41.4907C42.1352 41.7522 43.5114 37.9016 46.0954 36.0271C47.6119 34.9269 49.0645 34.09 49.7089 34.3048C50.7601 34.8581 51.2853 36.7533 45.3169 39.9904M45.3169 39.9904C45.1332 40.09 44.9433 40.1909 44.7472 40.293L45.3169 39.9904Z" stroke="#5F9837" stroke-width="3.00471"/>
<path d="M39.4433 43.0304C39.2491 43.2137 39.0386 43.4042 38.8136 43.5991C31.4016 50.0219 21.7207 43.2298 14.1215 37.0296C13.1584 36.2438 12.2123 35.4609 11.3049 34.6957C5.64204 29.9211 -1.89475 22.0909 3.34283 16.8533C4.32368 15.446 6.43978 13.4838 8.6467 14.0714C10.4304 14.5464 11.5989 16.2363 13.042 17.3872L34.8976 34.818L38.759 37.8977C39.3393 38.3039 40.0731 39.0585 40.3657 39.9903C40.5111 40.4536 40.5475 40.9607 40.4015 41.4906C40.2641 41.9896 39.9651 42.5087 39.4433 43.0304Z" fill="url(#paint3_radial_53_437)"/>
<path d="M40.3657 39.9903C40.0731 39.0585 39.3393 38.3039 38.759 37.8977L34.8976 34.818L13.042 17.3872C11.5989 16.2363 10.4304 14.5464 8.6467 14.0714V14.0714C6.43978 13.4838 4.32368 15.446 3.34283 16.8533V16.8533C-1.89475 22.0909 5.64204 29.9211 11.3049 34.6957C12.2123 35.4609 13.1584 36.2438 14.1215 37.0296C21.7207 43.2298 31.4016 50.0219 38.8136 43.5991C39.0386 43.4042 39.2491 43.2137 39.4433 43.0304C39.9651 42.5087 40.2641 41.9896 40.4015 41.4906C40.5475 40.9607 40.5111 40.4536 40.3657 39.9903ZM40.3657 39.9903C38.5184 39.1787 33.9684 38.7874 30.5465 43.7148C29.4369 45.4902 29.288 47.6325 37.2191 42.4555M37.2191 42.4555C37.4409 42.3107 37.669 42.1603 37.9035 42.0039L37.2191 42.4555Z" stroke="#5F9837" stroke-width="3.00471"/>
<circle cx="0.342185" cy="0.342185" r="0.342185" transform="matrix(1 0 0 -1 41.3254 23.6971)" fill="#A4BE59"/>
<circle cx="0.342185" cy="0.342185" r="0.342185" transform="matrix(1 0 0 -1 34.4817 26.4346)" fill="#A4BE59"/>
<circle cx="0.342185" cy="0.342185" r="0.342185" transform="matrix(1 0 0 -1 31.0598 16.5112)" fill="#A4BE59"/>
<circle cx="0.342185" cy="0.342185" r="0.342185" transform="matrix(1 0 0 -1 20.1099 18.9066)" fill="#A4BE59"/>
<circle cx="0.342185" cy="0.342185" r="0.342185" transform="matrix(1 0 0 -1 17.7146 36.0157)" fill="#A4BE59"/>
<circle cx="0.342185" cy="0.342185" r="0.342185" transform="matrix(1 0 0 -1 11.5552 29.1722)" fill="#A4BE59"/>
<circle cx="0.342185" cy="0.342185" r="0.342185" transform="matrix(1 0 0 -1 18.399 28.4877)" fill="#A4BE59"/>
<circle cx="0.342185" cy="0.342185" r="0.342185" transform="matrix(1 0 0 -1 33.7973 32.2517)" fill="#A4BE59"/>
<circle cx="0.342185" cy="0.342185" r="0.342185" transform="matrix(1 0 0 -1 33.1129 38.069)" fill="#A4BE59"/>
<circle cx="0.342185" cy="0.342185" r="0.342185" transform="matrix(1 0 0 -1 26.6114 40.4641)" fill="#A4BE59"/>
<circle cx="0.342185" cy="0.342185" r="0.342185" transform="matrix(1 0 0 -1 9.50214 19.933)" fill="#5F9837"/>
<circle cx="0.342185" cy="0.342185" r="0.342185" transform="matrix(1 0 0 -1 51.933 29.1722)" fill="#5F9837"/>
<circle cx="0.342185" cy="0.342185" r="0.342185" transform="matrix(1 0 0 -1 52.6174 24.0392)" fill="#5F9837"/>
<circle cx="0.342185" cy="0.342185" r="0.342185" transform="matrix(1 0 0 -1 47.8269 23.0128)" fill="#5F9837"/>
<circle cx="0.342185" cy="0.342185" r="0.342185" transform="matrix(1 0 0 -1 34.4817 7.95654)" fill="#5F9837"/>
<circle cx="0.342185" cy="0.342185" r="0.342185" transform="matrix(1 0 0 -1 9.84436 7.95654)" fill="#5F9837"/>
<circle cx="0.342185" cy="0.342185" r="0.342185" transform="matrix(1 0 0 -1 17.0302 4.1925)" fill="#5F9837"/>
<defs>
<radialGradient id="paint0_radial_53_437" cx="0" cy="0" r="1" gradientUnits="userSpaceOnUse" gradientTransform="translate(27.3866 18.598) rotate(45.0881) scale(26.2858 32.3109)">
<stop offset="0.604351" stop-color="#C1D978"/>
<stop offset="0.821556" stop-color="#83B74C"/>
</radialGradient>
<radialGradient id="paint1_radial_53_437" cx="0" cy="0" r="1" gradientUnits="userSpaceOnUse" gradientTransform="translate(43.0363 16.6824) rotate(-141.394) scale(28.2432 31.5344)">
<stop offset="0.6289" stop-color="#97C562"/>
<stop offset="1" stop-color="#7CB355"/>
</radialGradient>
<linearGradient id="paint2_linear_53_437" x1="47.998" y1="35.6735" x2="38.759" y2="35.6735" gradientUnits="userSpaceOnUse">
<stop offset="0.300565" stop-color="#8ECB51"/>
<stop offset="1" stop-color="#87B55B"/>
</linearGradient>
<radialGradient id="paint3_radial_53_437" cx="0" cy="0" r="1" gradientUnits="userSpaceOnUse" gradientTransform="translate(20.7473 30.9401) rotate(45.583) scale(28.4247 33.0657)">
<stop offset="0.531346" stop-color="#BCD96F"/>
<stop offset="1" stop-color="#539146"/>
</radialGradient>
</defs>
</svg>
