<svg width="70" height="47" viewBox="0 0 70 47" fill="none" xmlns="http://www.w3.org/2000/svg">
<path d="M7.01711 34.5275C-4.82645 23.5401 3.50923 13.718 9.15751 10.1804C34.2002 -8.22702 57.2868 5.24562 65.6998 14.2829C73.4766 24.4855 64.1837 34.1708 58.5651 37.7381C36.0909 50.7946 14.8355 41.0379 7.01711 34.5275Z" fill="#E9E3CD" stroke="#511C00" stroke-width="1.62186"/>
<path d="M58.5651 37.7381C36.0909 50.7946 14.8355 41.0379 7.01707 34.5275C4.12775 31.8471 2.4394 29.236 1.62002 26.7686C1.93264 32.1196 8.87208 43.4637 34.1288 46.0322C44.6587 45.8241 66.2429 41.3768 68.3401 25.2524C67.0205 30.892 62.0756 35.5092 58.5651 37.7381Z" fill="#C3B171"/>
<path d="M33.8613 38.6299C17.0948 38.7013 11.833 29.2657 11.2979 24.539L16.4705 14.2829C29.3129 10.0318 55.7112 5.22185 58.5651 19.9906C61.4189 34.7594 43.285 38.5705 33.8613 38.6299Z" fill="#C3B171"/>
<path d="M58.5651 37.7381C36.0909 50.7946 14.8355 41.0379 7.01707 34.5275C4.12775 31.8471 2.4394 29.236 1.62002 26.7686C1.93264 32.1196 8.87208 43.4637 34.1288 46.0322C44.6587 45.8241 66.2429 41.3768 68.3401 25.2524C67.0205 30.892 62.0756 35.5092 58.5651 37.7381Z" stroke="#53190D" stroke-width="1.62186"/>
<path d="M33.8613 38.6299C17.0948 38.7013 11.833 29.2657 11.2979 24.539L16.4705 14.2829C29.3129 10.0318 55.7112 5.22185 58.5651 19.9906C61.4189 34.7594 43.285 38.5705 33.8613 38.6299Z" stroke="#53190D" stroke-width="1.62186"/>
<path d="M10.2277 5.91767C16.4348 3.49188 21.7554 5.70199 23.6397 7.11026C24.0826 6.09576 24.8682 4.93621 26.1023 3.90697C28.103 2.23851 31.2823 0.912462 36.0909 1.10178C36.3016 1.10177 36.5408 1.11192 36.8043 1.13415C36.8319 1.13532 36.8612 1.13793 36.892 1.14192C39.2015 1.35592 43.2721 2.47773 46.4412 5.73931C49.7395 4.10815 56.0295 2.45616 60.6163 5.27815C60.676 5.28639 60.7398 5.32881 60.8062 5.39816C62.2972 6.36633 63.5975 7.82412 64.5404 9.93093C64.5484 13.1249 62.6697 18.5374 56.1571 21.04C53.6546 22.0016 50.4679 22.5335 46.4412 22.3448C47.1867 23.0738 47.7782 23.8697 48.2381 24.6462C48.5539 25.1793 48.8077 25.7034 49.0068 26.1904C49.3049 26.9195 49.4803 27.5657 49.5576 28.0352C49.7568 28.8218 49.753 29.5653 49.5881 30.2647C48.8736 33.2955 45.1351 35.4968 41.7986 36.7762C40.6674 37.21 39.5825 37.5379 38.6772 37.7561C27.3628 38.4714 22.7946 33.5122 21.6238 30.2647C21.51 29.949 21.4283 29.6495 21.3756 29.3729C21.0527 28.6195 21.0013 27.8361 21.1428 27.0541C21.2325 26.5592 21.3994 26.0649 21.6238 25.5791C22.0217 24.7181 22.6001 23.8841 23.2485 23.1217C16.6845 25.0659 10.8222 21.024 8.71156 18.7601C6.20496 16.2274 5.28616 14.0156 5.29337 12.1605C5.30236 9.84824 6.75007 8.09024 8.35483 6.95594C8.98056 6.51365 9.63017 6.16619 10.2277 5.91767Z" fill="#E7E5CC"/>
<path d="M41.0176 18.9464C36.8118 19.8043 28.4669 19.3639 23.2485 11.5362V14.3009C23.2485 14.5954 23.3036 14.8877 23.4225 15.1571C23.7192 15.8295 24.1394 16.6616 24.656 17.5115C25.2018 18.4096 25.8552 19.3276 26.5839 20.0978C26.1714 20.3835 25.6983 20.7459 25.2063 21.168C24.4051 20.6626 22.2139 19.6162 19.8595 19.4735C21.6302 19.4141 25.0685 18.9384 24.656 17.5115C24.1394 16.6616 23.7192 15.8295 23.4225 15.1571C23.3036 14.8877 23.2485 14.5954 23.2485 14.3009V11.5362V10.8227V8.3256C23.3202 7.96271 23.4477 7.5501 23.6397 7.11023C24.0826 6.09573 24.8682 4.93618 26.1023 3.90694C25.7456 4.65529 25.1391 6.24781 25.5672 6.63111C24.7289 7.43377 23.7586 9.5385 26.5839 11.5362C27.3747 11.8335 29.4378 12.8026 31.3641 14.3009C29.8778 13.7063 26.5839 12.4637 25.2997 12.2497C25.339 12.3039 25.3808 12.3619 25.4247 12.4229C26.6475 14.1224 28.945 15.8782 30.8396 16.7692C32.5991 17.5966 34.0267 18.2266 35.9563 18.466C37.6604 18.6776 39.4168 18.7437 40.1041 18.3141C41.4284 17.8823 44.0686 17.0657 44.3637 17.1442C43.8945 16.912 43.0242 16.5593 42.7062 16.6957C42.6687 16.7315 42.6335 16.7658 42.6013 16.798C42.6203 16.7504 42.6565 16.7171 42.7062 16.6957C43.1538 16.2702 43.9433 15.6429 44.2066 15.9062C43.8201 15.49 42.191 14.7111 38.7664 14.9252C40.9993 14.2712 45.6604 13.0523 46.4412 13.409C46.5287 14.2712 46.8642 15.4068 47.5063 13.0523C47.7096 12.0135 47.5937 10.1442 46.0874 9.18067C45.0902 8.54283 44.2384 8.21855 43.5244 7.27438C42.8393 6.36842 41.8697 4.9006 41.0312 4.13442C40.4334 3.58819 39.4224 3.16938 37.7854 3.24214C38.5583 3.06377 40.229 2.76055 40.7284 2.97459C39.7819 2.39598 37.7394 1.25137 36.892 1.14189C36.8625 1.13915 36.8333 1.13656 36.8043 1.13412C36.8319 1.13529 36.8612 1.1379 36.892 1.14189C39.2015 1.35589 43.2721 2.4777 46.4412 5.73928C46.7143 6.0204 46.9807 6.31741 47.2388 6.63111C48.0628 7.76648 49.0899 9.91256 49.0068 12.1605C49.0968 12.7929 49.0706 13.4194 48.9521 14.0333C48.8763 14.4256 48.7629 14.8126 48.6179 15.1927C47.9026 17.0682 46.4198 18.7745 44.9141 20.0978C46.2835 20.2635 48.2376 20.7236 45.0984 21.2382C45.5931 21.5786 46.0395 21.952 46.4412 22.3448C50.4679 22.5335 53.6546 22.0016 56.1571 21.04C57.2122 19.8935 59.5277 17.6007 60.3488 17.6007C61.0496 16.491 62.5077 14.2569 62.8296 14.0429C62.1649 14.4324 60.5338 15.1927 59.1894 15.1927C61.2703 13.528 64.7366 9.77037 61.9541 8.05804C61.7238 7.28175 61.2161 5.8264 60.8062 5.39813C60.7432 5.35726 60.6799 5.31726 60.6163 5.27812C60.676 5.28636 60.7398 5.32878 60.8062 5.39813C62.2972 6.3663 63.5975 7.82409 64.5404 9.9309C64.5484 13.1248 62.6697 18.5374 56.1571 21.04C53.6546 22.0016 50.4679 22.5335 46.4412 22.3448C47.1867 23.0738 47.7782 23.8696 48.2381 24.6462C48.5539 25.1793 48.8077 25.7033 49.0068 26.1903C49.3049 26.9195 49.4803 27.5657 49.5576 28.0351C49.7568 28.8217 49.753 29.5653 49.5881 30.2647C48.8736 33.2955 45.1351 35.4967 41.7986 36.7762C40.6674 37.21 39.5825 37.5378 38.6772 37.7561C27.3628 38.4714 22.7946 33.5122 21.6238 30.2647C21.51 29.949 21.4283 29.6495 21.3756 29.3729C21.0527 28.6195 21.0013 27.8361 21.1428 27.0541C21.2325 26.5592 21.3994 26.0648 21.6238 25.5791C22.0217 24.718 22.6001 23.884 23.2485 23.1217C16.6845 25.0659 10.8222 21.024 8.71156 18.7601C6.20496 16.2273 5.28616 14.0155 5.29337 12.1605C5.30236 9.84821 6.75007 8.09021 8.35483 6.95591C8.14674 7.47193 7.8554 8.53964 8.35483 8.68233C7.16571 9.66335 5.5723 12.1426 8.71156 14.2117C9.21693 14.5387 10.4952 15.5138 11.5654 16.798C11.0808 16.5337 10.1687 16.0833 9.52542 15.8967C9.17432 15.7949 8.86379 15.7836 8.52285 15.6517C8.3538 15.5863 7.97783 16.3859 8.07687 16.5377C8.63599 17.3948 9.24541 18.0118 10.0967 18.5796C10.7178 18.9939 11.3993 19.4686 12.0133 19.9354C13.1244 20.78 14.3351 21.541 15.6614 21.9754C16.7325 22.3263 17.7235 22.693 17.8083 22.8625C19.5879 22.9814 23.2124 23.1479 23.474 22.8625C23.6049 22.7152 23.7382 22.571 23.8727 22.4301C23.488 23.4363 22.8696 25.538 23.474 25.8947C22.7448 26.9352 21.9999 29.3907 24.8538 30.889C25.5672 31.0674 27.5293 31.7273 29.6697 32.9402C27.8204 32.3159 24.0721 31.2992 23.8727 32.2268C24.5505 32.8213 26.0417 34.1709 26.5839 34.8131C28.326 35.2984 31.9528 36.4059 32.5235 36.9535H38.7664C39.5987 36.5373 41.3705 35.7584 41.7986 35.9725L45.1876 34.278L43.1364 33.7429C44.266 33.4159 45.8475 32.6548 43.1364 32.2268C41.9472 32.2862 39.3907 32.4586 38.6772 32.6727C40.2528 31.8106 43.6536 30.1934 44.6525 30.6215C45.6929 30.0269 47.6669 29.248 47.2388 30.889C47.8928 30.3836 48.9689 29.3194 48.0414 29.1053C48.3387 27.8865 47.7739 25.3596 43.1364 25.0029C42.8709 24.0823 42.0095 22.2788 40.687 22.4301C41.5415 22.3156 42.3667 22.0269 43.0754 21.5358C43.4375 21.2849 43.8189 21.0022 44.2066 20.6915C44.4411 20.5036 44.6779 20.3054 44.9141 20.0978C46.4198 18.7745 47.9026 17.0682 48.6179 15.1927C48.7629 14.8126 48.8763 14.4256 48.9521 14.0333C49.0706 13.4194 49.0968 12.7929 49.0068 12.1605C48.9549 13.5618 48.4717 15.0027 47.2388 16.2629C46.7521 17.1011 45.1884 18.6573 42.6013 18.7711C42.0702 18.7944 41.5384 18.8401 41.0176 18.9464Z" fill="#C4C2B3"/>
<path d="M23.6944 13.2307C23.7022 13.2613 23.7103 13.2925 23.7186 13.3244C23.7028 13.2816 23.6944 13.2497 23.6944 13.2307Z" fill="#C4C2B3"/>
<path d="M23.2485 11.5362C28.4669 19.3639 36.8118 19.8043 41.0176 18.9464C41.5384 18.8401 42.0702 18.7944 42.6013 18.771C45.1884 18.6573 46.7521 17.1011 47.2388 16.2629C48.4717 15.0026 48.9549 13.5618 49.0068 12.1605C49.0968 12.7929 49.0706 13.4194 48.9521 14.0333C48.8764 14.4255 48.7629 14.8126 48.6179 15.1927C47.9026 17.0682 46.4199 18.7745 44.9141 20.0978C44.6779 20.3054 44.4411 20.5036 44.2066 20.6915C44.5199 20.8614 44.817 21.0445 45.0984 21.2382C45.5931 21.5786 46.0395 21.952 46.4412 22.3448C50.4679 22.5335 53.6546 22.0015 56.1571 21.0399C62.6697 18.5374 64.5484 13.1248 64.5404 9.93088L65.1647 16.2629C65.1647 19.8589 62.365 23.2348 59.0554 24.641C57.4033 25.3429 55.4802 25.7596 53.66 25.9854C51.9002 26.2037 50.2365 26.2436 49.0068 26.1903C48.8077 25.7033 48.5539 25.1793 48.2381 24.6461C47.7782 23.8696 47.1867 23.0737 46.4412 22.3448C46.0395 21.952 45.5931 21.5786 45.0984 21.2382C44.817 21.0445 44.5199 20.8614 44.2066 20.6915C43.8189 21.0022 43.4375 21.2849 43.0754 21.5358C42.3667 22.0269 41.5415 22.3156 40.687 22.4301C39.2024 22.629 37.8469 22.7339 36.626 22.7707C36.0619 22.7877 35.5266 22.7901 35.0207 22.7806C32.8108 22.7391 31.1602 22.4694 30.1156 22.185C29.851 22.113 29.6252 22.04 29.4392 21.9695C29.2942 21.9146 29.1481 21.8625 29.0019 21.8112C28.1407 21.509 27.3235 20.8795 26.5839 20.0978C25.8552 19.3275 25.2018 18.4096 24.656 17.5115C24.1394 16.6616 23.7192 15.8294 23.4225 15.1571C23.3036 14.8877 23.2485 14.5954 23.2485 14.3009V11.5362Z" fill="#DC880D"/>
<path d="M8.71156 18.76C6.20496 16.2273 5.28616 14.0155 5.29337 12.1605C5.06529 13.0523 4.60913 15.2819 4.60913 17.0655C4.63779 17.3465 4.69918 17.7054 4.80058 18.1203C6.01345 23.0827 11.0967 25.8476 16.1138 26.8095C18.0056 27.1722 19.8295 27.333 21.1429 27.0541C21.2325 26.5592 21.3994 26.0648 21.6238 25.5791C22.0217 24.718 22.6001 23.884 23.2485 23.1217C16.6846 25.0659 10.8222 21.024 8.71156 18.76Z" fill="#DC880D"/>
<path d="M38.6772 37.7561C27.3628 38.4714 22.7946 33.5122 21.6238 30.2647C21.7302 32.8632 23.083 38.0008 27.4145 40.6303C29.0384 41.6161 30.9806 41.8735 32.8803 41.883C34.1897 41.8895 35.6449 41.8379 37.0782 41.6896C42.1746 41.1623 47.0777 38.0265 49.0761 33.3087C49.4988 32.3107 49.7163 31.2758 49.5881 30.2647C48.8736 33.2955 45.1351 35.4967 41.7986 36.7762C40.6674 37.21 39.5825 37.5378 38.6772 37.7561Z" fill="#DC880D"/>
<path d="M44.2066 20.6915C43.8189 21.0022 43.4375 21.2849 43.0754 21.5358C42.3667 22.0269 41.5416 22.3156 40.687 22.4301C39.2024 22.629 37.8469 22.7339 36.626 22.7707C36.4119 22.0551 34.6342 21.4509 33.7721 21.2382C37.0541 21.6755 41.0257 20.898 42.6013 20.4545L40.996 20.0978C41.7094 20.0978 43.0174 19.5627 43.5823 19.2951H41.4419L42.6013 18.771C46.668 18.3518 48.5661 14.4866 49.0068 12.6064C49.351 15.7456 46.4217 18.9087 44.9141 20.0978C44.6779 20.3054 44.4411 20.5036 44.2066 20.6915Z" fill="#C27410"/>
<path d="M49.5881 30.2647C49.7163 31.2758 49.4988 32.3107 49.0761 33.3087C47.0777 38.0265 42.1746 41.1624 37.0782 41.6896C35.6853 41.8338 34.2716 41.8865 32.9912 41.8834C32.9534 41.8839 32.9164 41.8838 32.8803 41.883C32.9171 41.8832 32.9541 41.8833 32.9912 41.8834C34.1443 41.8683 35.9983 41.2724 36.8043 40.9667L33.9505 40.5208C36.3049 40.7348 41.3527 39.1236 43.5823 38.2912L41.7986 37.7561C42.9401 37.7561 44.1768 37.221 44.6525 36.9535L41.7986 36.7762C45.1351 35.4967 48.8736 33.2955 49.5881 30.2647Z" fill="#C27410"/>
<path d="M21.1429 27.0541C19.8295 27.333 18.0056 27.1722 16.1138 26.8095L13.9734 25.0921C16.4279 25.4419 21.3943 26.0292 21.6238 25.5791C21.3994 26.0648 21.2325 26.5592 21.1429 27.0541Z" fill="#C27410"/>
<path d="M48.2381 24.6461C48.5539 25.1793 48.8077 25.7033 49.0068 26.1903C50.2365 26.2436 51.9002 26.2037 53.66 25.9854C54.4448 25.9016 55.295 24.7009 55.622 24.111C54.4805 24.9347 50.2238 24.811 48.2381 24.6461Z" fill="#C27410"/>
<path d="M6.83871 20.187C5.76851 19.973 5.50096 17.4223 5.50096 16.1738C5.50096 16.6018 6.03606 17.8385 6.30361 18.4033L6.57116 17.6899C7.28463 19.8303 11.8033 22.922 13.9734 24.2003C9.4072 23.5582 7.31436 20.6032 6.83871 19.206V20.187Z" fill="#FCA95D"/>
<path d="M23.6944 13.2307C23.7022 13.2613 23.7103 13.2926 23.7186 13.3245C23.8804 13.7639 24.8121 15.3612 25.2997 16.1738L25.3889 15.3711C26.1737 17.4402 31.3047 19.6222 33.7721 20.4546C29.0632 20.954 26.5185 18.225 25.8348 16.798V17.5115C24.9974 17.4417 24.0917 14.7497 23.7186 13.3245C23.7028 13.2816 23.6944 13.2497 23.6944 13.2307Z" fill="#FCA95D"/>
<path d="M22.8917 33.7429C22.9042 33.7725 22.9171 33.8027 22.9304 33.8336C23.184 34.3437 24.2961 35.6266 24.8538 36.24V35.6157C27.1369 37.9019 32.1668 39.1844 34.3964 39.5398C30.7577 41.1808 26.8753 38.4993 25.3889 36.9535L25.8348 37.7561C24.858 37.7561 23.5174 35.1977 22.9304 33.8336C22.9136 33.7998 22.9006 33.7695 22.8917 33.7429Z" fill="#FCA95D"/>
<path d="M63.0243 19.206C64.0231 18.5639 64.2134 16.2629 64.1836 15.1927C64.1836 15.7635 63.6485 17.0359 63.381 17.6007L63.2026 16.7089C62.9886 18.4784 58.0597 21.727 55.622 23.1301C59.6888 23.4155 62.1324 20.0978 62.8459 18.4033L63.0243 19.206Z" fill="#FCA95D"/>
<path d="M12.6503 13.3442C12.2553 12.9618 11.8523 12.6779 11.5654 12.5172C10.6448 11.8038 11.5386 11.6254 12.1005 11.6254C13.6702 13.3377 18.0461 14.6576 20.0379 15.1036C22.7717 16.1474 22.4321 16.3861 21.4016 16.3444C20.5877 16.3114 19.2155 16.3654 18.4115 16.2344C18.2125 16.202 17.9969 16.102 17.835 15.9819C16.568 15.0422 15.9251 15.6977 15.757 16.1738C16.0084 18.017 13.9867 14.6382 12.6503 13.3442Z" fill="#FFFDE6"/>
<path d="M13.9734 6.63114C12.047 6.06036 12.5762 7.10678 13.0815 7.70134C13.4387 8.29766 12.7547 8.96055 12.3681 9.21746C13.1447 9.10874 13.7916 9.03749 14.3283 8.9947C15.6925 8.88593 18.7442 9.05644 17.8083 8.05807C17.3088 7.55865 15.0436 6.89869 13.9734 6.63114Z" fill="#FFFDE6"/>
<path d="M23.2485 10.8228V11.5362V14.3009C23.2485 13.8015 22.7728 12.7253 22.535 12.2497C21.1947 10.1093 22.4522 10.4066 23.2485 10.8228Z" fill="#FFFDE6"/>
<path d="M32.2518 3.32364C31.6348 3.27647 31.0202 3.25123 30.5615 3.24217C30.3195 3.2319 30.149 3.2557 30.0334 3.30235C29.4355 3.54359 30.5615 4.29192 30.5615 4.93665C29.3486 5.93551 30.0561 6.12577 30.5615 6.09604C31.8457 5.16853 33.5343 5.17448 34.218 5.29339C35.9064 5.35592 33.9364 3.45243 32.2518 3.32364Z" fill="#FFFDE6"/>
<path d="M40.996 10.0201C41.21 8.87856 40.1933 7.40406 39.6582 6.8095C39.1588 5.81065 39.9258 5.85822 40.3717 6.00685C41.715 6.21895 42.7605 8.14167 43.1265 9.10216C43.133 9.11173 43.1364 9.12046 43.1364 9.12827C43.1331 9.11965 43.1298 9.11094 43.1265 9.10216C43.0144 8.93685 41.9758 8.52233 41.4419 8.32562C41.5846 8.82505 41.204 9.66337 40.996 10.0201Z" fill="#FFFDE6"/>
<path d="M36.0017 10.7336C35.1455 10.8049 31.7209 9.33637 30.1156 8.59317C28.4033 8.37913 29.4021 9.158 30.1156 9.57419C31.3998 9.93092 31.8992 11.0309 31.9884 11.5362C32.4879 13.1772 33.6829 13.2307 34.218 13.0523C33.7899 11.8394 34.3964 11.5362 34.7531 11.5362L34.795 11.5549C36.4119 12.2716 38.9184 11.5362 40.687 11.5362C40.4399 10.8228 37.4605 10.7038 36.0017 10.7336Z" fill="#FFFDE6"/>
<path d="M29.5742 28.4906C29.4451 28.3029 29.3233 28.148 29.2237 28.0352C28.9562 27.7082 28.3141 26.9828 27.886 26.6974C27.6779 26.3407 27.6541 25.7699 29.2237 26.3407C30.0996 26.8559 31.3583 27.6077 32.5095 28.3176C34.2342 29.3812 37.3217 29.5612 38.6772 31.0674C39.0042 31.3647 39.4798 31.9592 38.7664 31.9592C38.7021 31.8338 38.4377 31.7465 38.067 31.6874C36.0872 31.3713 32.723 29.2508 32.5235 31.2458C32.5235 33.155 30.6565 30.0635 29.5742 28.4906Z" fill="#FFFDE6"/>
<path d="M42.6013 29.3729C42.1732 27.8746 40.4609 26.192 39.6582 25.538C38.8774 25.8851 39.7646 26.926 39.8725 27.7736C39.9329 28.248 39.9395 28.7618 39.9258 29.1054C39.8544 30.6036 40.2528 30.3837 40.4609 30.0864C40.6035 28.6689 40.9365 28.6634 41.0851 28.8378C42.3694 30.0507 42.631 29.6999 42.6013 29.3729Z" fill="#FFFDE6"/>
<path d="M29.0454 23.4868C30.1869 23.0587 30.2345 22.4406 30.1156 22.185C31.1602 22.4694 32.8108 22.7392 35.0207 22.7807C36.1622 23.6427 35.4369 24.0268 34.9315 24.1111C34.7888 23.469 30.948 23.4273 29.0454 23.4868Z" fill="#FFFDE6"/>
<path d="M57.5841 10.6444C54.0881 13.4983 50.3728 14.0928 48.9521 14.0334C48.8763 14.4256 48.7629 14.8126 48.6179 15.1927C48.937 15.3578 49.3015 15.4473 49.6752 15.4853C51.2641 15.6472 53.8942 13.2436 54.0167 14.836C54.0167 16.691 55.0869 15.8468 55.622 15.1927C55.8361 14.3366 56.4247 13.1713 56.6922 12.6956C59.5461 10.8406 58.4759 10.5552 57.5841 10.6444Z" fill="#FFFDE6"/>
<path d="M51.7871 7.61216C51.8358 7.56604 51.8907 7.51607 51.951 7.46332C53.555 6.06015 57.8928 4.87032 56.6922 6.63114C56.58 6.9958 56.5843 7.7522 57.4243 8.01619C57.4828 8.03035 57.5363 8.04442 57.5841 8.05807C57.5277 8.046 57.4745 8.03198 57.4243 8.01619C56.7181 7.84545 55.2685 7.66277 54.0167 8.05807C53.0654 8.41481 51.2877 8.82505 51.7871 7.61216Z" fill="#FFFDE6"/>
<path d="M38.7664 5.47174C38.1956 5.47174 38.1124 8.97962 38.1421 10.7336C37.286 10.3055 33.8018 9.78227 32.1668 9.57418L31.0074 7.16623C34.7174 9.09259 36.4773 9.21744 36.8935 9.03908C35.8975 7.89753 36.4785 4.69882 36.8935 3.24216L38.7664 5.47174Z" fill="#4C7B37"/>
<path d="M36.8935 5.82846C37.4643 6.25654 37.9883 7.61213 38.179 8.23641C38.2263 7.25413 38.3195 6.31924 38.4868 5.82846H36.8935Z" fill="#8BD77D"/>
<path d="M36.0017 9.75253C35.4666 9.48498 32.91 8.68233 31.8101 8.05805L32.5235 9.21743L36.0017 9.75253Z" fill="#8BD77D"/>
<path d="M20.8642 9.34221C20.3088 9.21052 19.4184 12.6045 19.0427 14.318C18.3084 13.704 15.039 12.391 13.4961 11.8112L12.9236 9.20076C16.089 11.9312 17.7726 12.4587 18.2188 12.3812C17.513 11.0406 18.8164 8.06226 19.5563 6.74066L20.8642 9.34221Z" fill="#4C7B37"/>
<path d="M18.9596 9.25719C19.4162 9.80542 19.6133 11.2453 19.6547 11.8968C19.9275 10.9519 20.2339 10.0638 20.5099 9.62481L18.9596 9.25719Z" fill="#8BD77D"/>
<path d="M17.1864 12.8696C16.7275 12.4858 14.425 11.1149 13.4988 10.2537L13.9256 11.5464L17.1864 12.8696Z" fill="#8BD77D"/>
<path d="M39.6567 25.0011C39.0926 24.914 38.4752 28.3681 38.237 30.1061C37.4562 29.5524 34.0927 28.5038 32.5085 28.0487L31.73 25.4921C35.1028 27.9619 36.823 28.3537 37.2615 28.2409C36.4513 26.9608 37.5135 23.8882 38.1458 22.5119L39.6567 25.0011Z" fill="#4C7B37"/>
<path d="M37.7513 25.0679C38.2501 25.5781 38.5612 26.9977 38.6544 27.6438C38.851 26.6802 39.0858 25.7705 39.3259 25.311L37.7513 25.0679Z" fill="#8BD77D"/>
<path d="M36.2713 28.81C35.7833 28.464 33.379 27.2807 32.3872 26.4959L32.9155 27.7506L36.2713 28.81Z" fill="#8BD77D"/>
<path d="M57.0664 11.677C56.6406 11.2969 54.2429 13.8588 53.0973 15.1873C52.7435 14.2979 50.4923 11.5877 49.4109 10.3439L50.1491 7.77529C51.6346 11.6828 52.8646 12.9477 53.2939 13.0917C53.3107 11.5768 55.874 9.57697 57.1535 8.76644L57.0664 11.677Z" fill="#4C7B37"/>
<path d="M55.4315 10.6962C55.5724 11.3956 55.0608 12.7559 54.7874 13.3487C55.4768 12.6473 56.1687 12.0118 56.6203 11.757L55.4315 10.6962Z" fill="#8BD77D"/>
<path d="M52.1534 13.0302C51.9323 12.4743 50.5592 10.1733 50.1541 8.97514L49.9145 10.3152L52.1534 13.0302Z" fill="#8BD77D"/>
</svg>
