<svg width="56" height="54" viewBox="0 0 56 54" fill="none" xmlns="http://www.w3.org/2000/svg">
<path d="M9.8626 53.8655L5.31059 51.0837C5.24597 49.7912 5.17865 48.5269 5.10889 47.2903L9.8626 48.5548V53.8655Z" fill="#519A6D"/>
<path d="M7.33371 18.7139H2.60754C2.88118 20.8447 3.15665 23.2028 3.42679 25.7948L8.09238 25.5419L7.33371 18.7139Z" fill="#519A6D"/>
<path d="M8.85104 33.8872L4.13929 33.3814C4.34631 35.8352 4.54553 38.4473 4.73311 41.221H9.8626L8.85104 33.8872Z" fill="#519A6D"/>
<path d="M55.6355 50.072L9.86254 53.8654V48.5547L55.6355 46.0258V50.072Z" fill="url(#paint0_radial_53_464)"/>
<path d="M55.6355 15.4262L7.33365 18.7138L8.09232 25.5418L55.6355 22.76V15.4262Z" fill="url(#paint1_radial_53_464)"/>
<path d="M55.6355 29.8409L8.85098 33.8871L9.86254 41.2209L55.6355 38.1862V29.8409Z" fill="url(#paint2_radial_53_464)"/>
<path d="M2.60757 18.7138C2.30058 16.3233 1.99589 14.2189 1.70364 12.3916C3.09145 12.2395 4.64324 12.0737 6.32218 11.8991L7.33374 18.7138H2.60757Z" fill="#BDD5F1"/>
<path d="M8.09241 25.5418L3.42682 25.7947C3.67041 28.132 3.90966 30.6593 4.13932 33.3814L8.85107 33.8872L8.09241 25.5418Z" fill="#BDD5F1"/>
<path d="M9.86263 41.221H4.73314C4.86456 43.1643 4.99026 45.187 5.10892 47.2903L9.86263 48.5547V41.221Z" fill="#BDD5F1"/>
<path d="M55.6356 8.59825V15.4263L7.33379 18.7138L6.32224 11.8991C21.395 10.3314 46.7159 8.05215 55.6356 8.59825Z" fill="url(#paint3_radial_53_464)"/>
<path d="M55.6356 22.76L8.09246 25.5418L8.85113 33.8872L55.6356 29.8409V22.76Z" fill="url(#paint4_radial_53_464)"/>
<path d="M55.6356 38.1863L9.86268 41.221V48.5547L55.6356 46.0258V38.1863Z" fill="url(#paint5_radial_53_464)"/>
<path d="M1.70369 12.3915C1.02735 8.1628 0.417617 5.41837 0 4.0462L5.10897 5.31065L6.32223 11.8991C4.64328 12.0737 3.09149 12.2395 1.70369 12.3915Z" fill="#A5373C"/>
<path d="M51.8423 0L55.6356 4.04623V8.59823C46.7159 8.05213 21.395 10.3314 6.32223 11.8991L5.10896 5.31067L0 4.04623C0.809245 1.01156 34.8987 0.0842964 51.8423 0Z" fill="#EC7068"/>
<defs>
<radialGradient id="paint0_radial_53_464" cx="0" cy="0" r="1" gradientUnits="userSpaceOnUse" gradientTransform="translate(31.4846 34.6458) rotate(-23.6171) scale(34.087 42.8329)">
<stop offset="0.51759" stop-color="#CBE5C9"/>
<stop offset="1" stop-color="#549F76"/>
</radialGradient>
<radialGradient id="paint1_radial_53_464" cx="0" cy="0" r="1" gradientUnits="userSpaceOnUse" gradientTransform="translate(31.4846 34.6458) rotate(-23.6171) scale(34.087 42.8329)">
<stop offset="0.51759" stop-color="#CBE5C9"/>
<stop offset="1" stop-color="#549F76"/>
</radialGradient>
<radialGradient id="paint2_radial_53_464" cx="0" cy="0" r="1" gradientUnits="userSpaceOnUse" gradientTransform="translate(31.4846 34.6458) rotate(-23.6171) scale(34.087 42.8329)">
<stop offset="0.51759" stop-color="#CBE5C9"/>
<stop offset="1" stop-color="#549F76"/>
</radialGradient>
<radialGradient id="paint3_radial_53_464" cx="0" cy="0" r="1" gradientUnits="userSpaceOnUse" gradientTransform="translate(30.9789 28.5352) rotate(-19.1517) scale(38.4158 47.314)">
<stop offset="0.437881" stop-color="#F8F7FB"/>
<stop offset="1" stop-color="#C6D3F3"/>
</radialGradient>
<radialGradient id="paint4_radial_53_464" cx="0" cy="0" r="1" gradientUnits="userSpaceOnUse" gradientTransform="translate(30.9789 28.5352) rotate(-19.1517) scale(38.4158 47.314)">
<stop offset="0.437881" stop-color="#F8F7FB"/>
<stop offset="1" stop-color="#C6D3F3"/>
</radialGradient>
<radialGradient id="paint5_radial_53_464" cx="0" cy="0" r="1" gradientUnits="userSpaceOnUse" gradientTransform="translate(30.9789 28.5352) rotate(-19.1517) scale(38.4158 47.314)">
<stop offset="0.437881" stop-color="#F8F7FB"/>
<stop offset="1" stop-color="#C6D3F3"/>
</radialGradient>
</defs>
</svg>
