<svg width="87" height="44" viewBox="0 0 87 44" fill="none" xmlns="http://www.w3.org/2000/svg">
<path d="M5.84453 16.2175L10.3532 24.1412C21.0602 22.3774 41.7986 19.3979 47.5077 20.1146C48.1649 20.1971 48.6229 20.3286 48.8436 20.5165L50.5969 18.072C48.7911 17.3055 41.9865 15.6713 27.7198 13.9736C22.6369 13.3688 16.6068 12.7559 9.51823 12.1713C8.29367 12.087 5.84453 12.7783 5.84453 16.2175Z" fill="#9C5B2C"/>
<path d="M71.9712 0.117142C54.0703 1.06125 32.4511 5.00626 23.8791 6.86075L26.2169 10.2325C26.6773 10.1197 27.1795 10.0225 27.7198 9.94014C38.1529 8.34923 62.7721 12.2608 74.309 14.5316L79.0681 4.75337C80.2704 0.100283 74.8378 -0.276234 71.9712 0.117142Z" fill="#9C5B2C"/>
<path d="M40.9952 39.4829C47.0735 37.6622 48.2591 35.6897 48.0921 34.931L47.2572 34.2566C46.2275 35.1558 43.8507 36.9372 42.5816 36.8698C41.3125 36.8024 39.6593 37.4599 38.9914 37.797C37.4328 38.1061 33.915 38.7074 32.3119 38.64C30.7088 38.5725 27.024 39.1739 25.382 39.4829C21.9866 40.2978 14.5779 41.8769 12.1065 41.6746L8.69236 42.349C8.71551 42.7576 8.69026 43.0805 8.59981 43.2762C7.95969 42.939 6.51247 41.9444 5.84453 40.6631C5.17658 41.6072 6.12284 43.0233 6.67946 43.6134C6.94664 44.8947 19.8157 42.6861 26.2169 41.4217C27.6196 40.6125 36.6535 39.792 40.9952 39.4829Z" fill="#9C5B2C"/>
<path d="M80.202 34.931C78.8892 36.3981 77.5416 37.5194 76.6468 38.1342C76.5568 37.9071 76.5073 37.6213 76.491 37.2913C75.1792 37.1227 72.5056 36.6843 72.3052 36.2797C72.0547 35.774 72.3887 38.0499 59.9482 34.931C56.1054 34.2004 48.1618 32.7393 47.1289 32.7393C47.1835 33.3082 47.2283 33.8583 47.2572 34.2566L48.0921 34.931C56.2745 36.2235 73.4407 38.9434 76.6468 39.4829C79.853 40.0224 80.3528 36.6731 80.202 34.931Z" fill="#9C5B2C"/>
<path d="M0 24.7313C1.53628 34.1049 4.53647 39.2581 5.84453 40.6631C6.51247 41.9444 7.95969 42.939 8.59981 43.2762C8.69026 43.0805 8.71551 42.7576 8.69236 42.349C8.62135 41.0951 8.09474 39.0341 7.59789 37.3646C7.41959 36.7655 7.24513 36.2168 7.09693 35.774C7.22337 33.8081 7.58515 31.9091 8.03731 30.2152C8.03772 30.2136 8.03814 30.212 8.03856 30.2105C8.78059 27.4321 9.76548 25.2057 10.3532 24.1412L5.84453 16.2175C5.17658 18.5103 4.00768 24.4222 3.50672 27.0916C2.90557 26.2149 2.08733 25.1528 1.75336 24.7313C1.48618 20.0782 0.473129 22.7925 0 24.7313Z" fill="#B6743D"/>
<path d="M79.0681 4.75337L74.309 14.5316C75.1327 15.9339 76.4231 18.6552 77.3351 21.8653C77.3798 21.9071 77.3903 21.9568 77.3761 22.0108C78.0137 24.2944 78.4551 26.8168 78.4002 29.2832C78.2375 29.7072 78.05 30.2262 77.8573 30.8005C77.1663 32.8609 76.409 35.6338 76.491 37.2913C76.5073 37.6213 76.5568 37.9071 76.6468 38.1342C77.5416 37.5194 78.8892 36.3981 80.202 34.931C81.8291 33.1125 83.4027 30.7627 83.9942 28.1874L87 15.4588C86.7217 13.1829 85.948 9.99652 85.0797 15.4588C84.6065 15.8803 83.51 16.993 82.9088 18.072C82.4357 14.644 81.0052 7.18107 79.0681 4.75337Z" fill="#B6743D"/>
<path d="M47.5077 20.1146C41.7986 19.3979 21.0602 22.3774 10.3532 24.1412C9.76548 25.2057 8.78059 27.4321 8.03856 30.2105L8.03731 30.2152C8.00066 30.3578 8.10418 30.4678 8.28599 30.5519C9.19955 30.9745 9.89848 29.3025 10.8933 29.4559C11.1309 29.4925 11.4217 29.7104 11.7726 30.2105C12.2785 30.9316 13.1126 31.0659 13.9927 30.9161C15.7195 30.6223 18.2054 30.7268 19.9087 30.3187C20.0497 30.2849 20.1781 30.2478 20.2889 30.2105C20.6228 29.5361 21.5969 29.9295 22.0422 30.2105C22.7172 30.6036 23.3972 30.6615 24.0156 30.5423C24.9118 30.3697 27.6251 29.7352 28.4869 29.435C28.6326 29.3843 28.7687 29.3324 28.8887 29.2832C30.4291 29.3887 31.4839 29.3945 32.1907 29.3491C32.9475 29.3004 34.5509 28.5472 34.7332 29.2832C34.8167 30.3791 37.3215 28.9461 36.9875 28.6089C36.6536 28.2717 38.9914 27.5973 38.9914 28.1874C38.9914 28.6594 39.381 28.6651 39.5758 28.6089C40.7661 27.5073 42.6312 27.3059 44.2413 27.1114C44.4441 27.0869 44.6408 27.0552 44.8267 27.0192C45.3863 26.9109 46.0705 27.4313 46.6095 27.2457C46.6652 27.2265 46.7153 27.2017 46.7562 27.1759C47.3689 26.1636 47.521 23.2144 47.5224 21.1909C47.5226 20.7879 47.5169 20.4215 47.5077 20.1146Z" fill="#FCDD66"/>
<path d="M10.6036 34.7624C9.13417 34.8298 7.98752 36.5253 7.59789 37.3646C8.09474 39.0341 8.62135 41.0951 8.69236 42.349L12.1065 41.6746C14.5779 41.8769 21.9866 40.2978 25.382 39.4829C27.024 39.1739 30.7088 38.5725 32.3119 38.64C33.915 38.7074 37.4328 38.1061 38.9914 37.797C39.6593 37.4599 41.3125 36.8024 42.5816 36.8698C43.8507 36.9372 46.2275 35.1558 47.2572 34.2566C47.2283 33.8583 47.1835 33.3082 47.1289 32.7393C47.0256 31.6629 46.8873 30.5193 46.7562 30.2105C46.5559 29.7384 46.0605 30.0138 45.8378 30.2105C45.8378 30.5196 45.604 30.9523 44.6689 30.2105C43.7338 29.4687 43.2774 30.5196 43.166 31.1377C42.6372 31.6716 41.4628 32.3516 40.9952 30.8005C40.5276 29.2495 39.8541 30.3791 39.5758 31.1377C39.3086 32.3516 38.5182 32.0931 38.1564 31.8121C37.2213 29.8564 36.9875 31.3344 36.9875 32.3179C36.7092 32.655 36.019 33.1271 35.4846 32.3179C34.9503 31.5086 34.2044 32.2617 33.8983 32.7393C33.2303 36.3809 31.9501 34.2566 31.3935 32.7393C30.8591 31.1209 30.2246 32.065 29.9741 32.7393C29.6123 33.1046 28.8052 33.616 28.4712 32.7393C28.1372 31.8627 27.4971 32.3741 27.2188 32.7393C25.8829 34.2904 24.38 34.1161 23.7956 33.8352C22.5933 32.8236 22.3484 33.6947 22.3762 34.2566C22.0979 34.5938 21.3409 35.0659 20.5393 34.2566C19.7378 33.4474 18.5912 33.9195 18.118 34.2566C17.2274 34.9029 15.4296 35.9088 15.3628 34.7624C15.296 33.616 14.5557 33.3294 14.1939 33.3294C13.9434 32.9922 13.3589 32.3179 13.025 32.3179C12.691 32.3179 11.2716 33.9476 10.6036 34.7624Z" fill="#FCDD66"/>
<path d="M46.7562 27.1759V30.2105C46.8873 30.5193 47.0256 31.6629 47.1289 32.7393C48.1618 32.7393 56.1054 34.2004 59.9482 34.931C72.3887 38.0499 72.0547 35.774 72.3052 36.2797C72.5056 36.6843 75.1792 37.1227 76.491 37.2913C76.409 35.6338 77.1663 32.8609 77.8573 30.8005C77.5373 29.789 76.3797 27.7659 74.309 27.7659C73.8916 27.6254 72.9063 26.9904 72.3052 25.5742C71.704 24.1581 70.7188 24.647 70.3013 25.0685C70.1622 25.3776 69.7169 25.9957 69.049 25.9957C68.381 25.9957 68.1583 27.1759 68.1305 27.7659C67.4069 27.9626 65.8094 28.12 65.2083 27.1759C64.6071 26.2318 62.7313 26.5015 61.8685 26.7544C61.2562 27.4568 59.8814 28.4403 59.2802 26.7544C59.3081 26.2486 59.0965 25.3888 58.0278 25.9957C56.6919 26.7544 55.4395 27.0916 53.7697 25.5742C52.4338 24.3604 51.9328 24.7313 51.8493 25.0685C51.4597 25.6304 50.4967 26.4172 49.762 25.0685C48.8436 23.3826 48.2591 24.8156 47.5077 25.9957L46.7562 27.1759Z" fill="#FCDD66"/>
<path d="M50.5969 18.072L48.8436 20.5165C48.6229 20.3286 48.1649 20.1971 47.5077 20.1146C47.5169 20.4215 47.5226 20.7879 47.5224 21.1909C48.6864 20.8537 51.0979 20.2805 51.4319 20.6851C51.8493 21.1909 53.0182 21.6967 53.7697 21.1909C54.3708 20.7863 55.3004 21.3033 55.69 21.6124C56.7198 22.2305 59.1132 23.096 60.4491 21.6124C60.9223 21.5 61.952 21.3932 62.286 21.8653C62.7035 22.4553 65.2917 22.7925 65.5422 21.8653C65.7092 21.6967 66.3939 21.5618 67.7965 22.371C69.1992 23.1803 71.3868 22.8768 72.3052 22.6239C72.6113 22.1743 73.3572 21.4438 73.8916 22.1182C74.5595 22.9611 76.6468 23.1297 76.6468 22.6239C76.9005 22.4902 77.3212 22.2184 77.3761 22.0108C77.3625 21.9622 77.3488 21.9137 77.3351 21.8653C76.4231 18.6552 75.1327 15.9339 74.309 14.5316C62.7721 12.2608 38.1529 8.34923 27.7198 9.94014V13.9736C41.9865 15.6713 48.7911 17.3055 50.5969 18.072Z" fill="#FCDD66"/>
<path d="M46.7562 27.1759C46.7153 27.2017 46.6652 27.2265 46.6095 27.2457C46.0705 27.4313 45.3863 26.9109 44.8267 27.0192C44.6408 27.0552 44.4441 27.0869 44.2413 27.1114C42.6312 27.3059 40.7661 27.5073 39.5758 28.6089C39.381 28.6651 38.9914 28.6594 38.9914 28.1874C38.9914 27.5973 36.6536 28.2717 36.9875 28.6089C37.3215 28.9461 34.8167 30.3791 34.7332 29.2832C34.5509 28.5472 32.9475 29.3004 32.1907 29.3491C31.4839 29.3945 30.4291 29.3887 28.8887 29.2832C28.7687 29.3324 28.6326 29.3843 28.4869 29.435C27.6251 29.7352 24.9118 30.3697 24.0156 30.5423C23.3972 30.6615 22.7172 30.6036 22.0422 30.2105C21.5969 29.9295 20.6228 29.5361 20.2889 30.2105C20.1781 30.2478 20.0497 30.2849 19.9087 30.3187C18.2054 30.7268 15.7195 30.6223 13.9927 30.9161C13.1126 31.0659 12.2785 30.9316 11.7726 30.2105C11.4217 29.7104 11.1309 29.4925 10.8933 29.4559C9.89848 29.3025 9.19955 30.9745 8.28599 30.5519C8.10418 30.4678 8.00066 30.3578 8.03731 30.2152C7.58515 31.9091 7.22337 33.8081 7.09693 35.774C7.24513 36.2168 7.41959 36.7655 7.59789 37.3646C7.98752 36.5253 9.13417 34.8298 10.6036 34.7624C11.2716 33.9476 12.691 32.3179 13.025 32.3179C13.3589 32.3179 13.9434 32.9922 14.1939 33.3294C14.5557 33.3294 15.296 33.616 15.3628 34.7624C15.4296 35.9088 17.2274 34.9029 18.118 34.2566C18.5912 33.9195 19.7378 33.4474 20.5393 34.2566C21.3409 35.0659 22.0979 34.5938 22.3762 34.2566C22.3484 33.6947 22.5933 32.8236 23.7956 33.8352C24.38 34.1161 25.8829 34.2904 27.2188 32.7393C27.4971 32.3741 28.1372 31.8627 28.4712 32.7393C28.8052 33.616 29.6123 33.1046 29.9741 32.7393C30.2246 32.065 30.8591 31.1209 31.3935 32.7393C31.9501 34.2566 33.2303 36.3809 33.8983 32.7393C34.2044 32.2617 34.9503 31.5086 35.4846 32.3179C36.019 33.1271 36.7092 32.655 36.9875 32.3179C36.9875 31.3344 37.2213 29.8564 38.1564 31.8121C38.5182 32.0931 39.3086 32.3516 39.5758 31.1377C39.8541 30.3791 40.5276 29.2495 40.9952 30.8005C41.4628 32.3516 42.6372 31.6716 43.166 31.1377C43.2774 30.5196 43.7338 29.4687 44.6689 30.2105C45.604 30.9523 45.8378 30.5196 45.8378 30.2105C46.0605 30.0138 46.5559 29.7384 46.7562 30.2105V27.1759Z" fill="#4D1D1D"/>
<path d="M77.8573 30.8005C78.05 30.2262 78.2375 29.7072 78.4002 29.2832C78.4551 26.8168 78.0137 24.2944 77.3761 22.0108C77.3212 22.2184 76.9005 22.4902 76.6468 22.6239C76.6468 23.1297 74.5595 22.9611 73.8916 22.1182C73.3572 21.4438 72.6113 22.1743 72.3052 22.6239C71.3868 22.8768 69.1992 23.1803 67.7965 22.371C66.3939 21.5618 65.7092 21.6967 65.5422 21.8653C65.2917 22.7925 62.7035 22.4553 62.286 21.8653C61.952 21.3932 60.9223 21.5 60.4491 21.6124C59.1132 23.096 56.7198 22.2305 55.69 21.6124C55.3004 21.3033 54.3708 20.7863 53.7697 21.1909C53.0182 21.6967 51.8493 21.1909 51.4319 20.6851C51.0979 20.2805 48.6864 20.8537 47.5224 21.1909C47.521 23.2144 47.3689 26.1636 46.7562 27.1759L47.5077 25.9957C48.2591 24.8156 48.8436 23.3826 49.762 25.0685C50.4967 26.4172 51.4597 25.6304 51.8493 25.0685C51.9328 24.7313 52.4338 24.3604 53.7697 25.5742C55.4395 27.0916 56.6919 26.7544 58.0278 25.9957C59.0965 25.3888 59.3081 26.2486 59.2802 26.7544C59.8814 28.4403 61.2562 27.4568 61.8685 26.7544C62.7313 26.5015 64.6071 26.2318 65.2083 27.1759C65.8094 28.12 67.4069 27.9626 68.1305 27.7659C68.1583 27.1759 68.381 25.9957 69.049 25.9957C69.7169 25.9957 70.1622 25.3776 70.3013 25.0685C70.7188 24.647 71.704 24.1581 72.3052 25.5742C72.9063 26.9904 73.8916 27.6254 74.309 27.7659C76.3797 27.7659 77.5373 29.789 77.8573 30.8005Z" fill="#4D1D1D"/>
</svg>
