<svg width="611" height="556" viewBox="0 0 611 556" fill="none" xmlns="http://www.w3.org/2000/svg">
<path d="M90.0334 449.126C127.765 437.407 188.122 398.099 127.697 334.626C103.95 305.937 77.7603 244.282 162.975 227.178C186.095 224.943 226.053 211.321 230.944 175.098C233.152 158.743 230.613 141.58 236.839 126.296C257.084 76.6045 306.592 24.0637 394.398 86.5781C402.834 92.5843 408.288 101.818 411.324 111.719C428.804 168.732 477.746 250.612 565.945 214.669" stroke="black" stroke-width="3" stroke-dasharray="6 6"/>
<path d="M121.813 517.432C162.147 498.932 275.313 469.632 405.313 500.432C449.647 511.765 539.613 529.532 544.813 509.932C544.662 507.067 550.022 500.793 546.308 499.622C545.806 499.556 545.308 499.493 544.813 499.432C545.424 499.432 545.916 499.498 546.308 499.622C581.297 504.192 632.438 519.137 599.313 540.432C572.109 548.609 484.429 560.94 343.247 548.869C326.011 547.395 308.684 547.44 291.46 549.041C190.657 558.409 46.9182 562.589 121.813 517.432Z" fill="#ECECEC"/>
<path fill-rule="evenodd" clip-rule="evenodd" d="M178.921 410.678L176.901 427.049L220.292 426.044L274.156 424.796L294.355 424.329L303.333 424.121C304.335 418.067 310.111 405.465 325.201 403.484C324.187 392.026 318.695 372.21 304.834 365.06C291.486 368.394 262.13 371.803 251.485 358.771C243.689 356.615 236.552 353.408 231.712 348.735C220.086 353.289 198.375 366.835 186.327 389.517C182.96 395.856 180.347 402.909 178.921 410.678ZM212.304 388.198C205.433 392.199 192.202 403.511 194.242 416.747C198.969 414.872 209.199 406.537 212.304 388.198Z" fill="#FFD05E"/>
<path d="M477.79 335.081L469.971 341.863C472.419 360.369 462.298 382.915 451.97 399.707C454.407 399.537 457.159 399.235 460.155 398.784C465.242 398.019 471.03 396.823 477.162 395.106C478.758 394.66 480.377 394.178 482.013 393.659C484.49 392.874 487.005 392.004 489.538 391.045C497.261 388.12 505.145 384.359 512.574 379.609C514.063 378.657 515.534 377.665 516.981 376.632C519.084 375.132 521.138 373.544 523.128 371.867C524.595 370.629 526.028 369.343 527.42 368.005C530.353 365.187 533.104 362.143 535.615 358.859C538.614 354.938 541.271 350.676 543.49 346.048C535.734 335.775 511.736 319.201 477.79 335.081Z" fill="#FFD05E"/>
<path d="M444.096 281.348C449.053 278.535 457.923 270.356 453.749 260.145L448.512 242.126L409.725 254.369C422.993 261.271 434.473 270.9 444.096 281.348Z" fill="#FFD05E"/>
<path d="M371.298 233.003L375.687 237.74C380.029 235.16 388.079 233.058 393.159 239.425C400.202 235.574 392.469 222.841 387.722 216.955L371.298 233.003Z" fill="#FFD05E"/>
<path fill-rule="evenodd" clip-rule="evenodd" d="M336.192 246.965L336.956 239.227C337.937 223.991 334.258 213.074 330.453 206.544C327.27 208.07 316.142 203.931 310.976 201.67C298.569 204.135 288.029 209.543 283.312 212.73L265.509 269.765C275.934 264.836 294.535 251.651 304.496 244.152L330.31 246.443L333.1 246.69L336.192 246.965ZM300.787 232.453C301.047 233.45 301.191 234.422 301.183 235.345L300.787 232.453Z" fill="#FFD05E"/>
<path d="M262.476 317.245L264.088 322.789C282.473 330.072 309.953 308.706 321.396 297.113L325.064 291.595C314.519 294.641 304.403 292.52 301.845 276.49L303.801 252.622L304.117 248.772C301.6 252.45 280.933 267.287 265.402 278.078L261.268 313.087L255.712 314.702L262.476 317.245Z" fill="#FFD05E"/>
<path d="M245.412 297.403L263.27 213.739L182.307 194.31L159.398 273.551L245.412 297.403Z" fill="#FFD05E"/>
<path d="M252.093 180.467L207.943 168.497L201.083 191.536L246.17 203.233L252.093 180.467Z" fill="#FFD05E"/>
<path d="M249.372 302.069C249.612 296.128 250.137 291.519 251.148 291.226L269.515 215.237L263.27 213.739L245.412 297.403L159.398 273.551L182.307 194.31L177.449 193.144L175.096 200.593L173.105 202.1L147.48 274.008L249.372 302.069Z" fill="#FFD05E"/>
<path d="M199.79 166.358L186.865 163.35L179.602 185.003L184.575 186.564L194.52 189.686L199.79 166.358Z" fill="#FFD05E"/>
<path d="M274.4 195.028L275.858 187.088L258.656 182.317L252.49 205.154L264.864 208.86L270.639 210.589L274.4 195.028Z" fill="#FFD05E"/>
<path fill-rule="evenodd" clip-rule="evenodd" d="M437.362 310.004C430.025 296.854 410.254 267.527 389.863 255.415L383.814 257.925C381.592 258.571 382.485 256.808 383.21 255.846C380.271 256.099 382.333 253.692 383.731 252.457C385.421 251.674 386.826 249.598 387.647 247.792C387.777 249.103 392.353 248.945 396.525 246.715C396.696 247.385 396.851 248.091 396.988 248.835C401.401 250.385 405.647 252.248 409.725 254.369C422.993 261.271 434.473 270.9 444.096 281.348C461.643 300.399 473.014 322.169 477.79 335.081L469.971 341.863C472.419 360.369 462.298 382.915 451.97 399.707C447.433 407.083 442.855 413.348 439.286 417.674L433.701 412.167C438.429 403.69 443.685 390.496 446.214 374.785C449.301 355.607 448.325 332.68 437.362 310.004Z" fill="#FFD05E"/>
<path d="M283.312 212.73C270.444 214.065 261.753 252.568 259.015 271.652C260.277 271.889 262.568 271.155 265.509 269.765L283.312 212.73Z" fill="#FF9437"/>
<path d="M249.393 324.054L252.865 323.045L264.088 322.789L262.476 317.245L255.712 314.702L261.268 313.087L265.402 278.078C261.918 280.499 258.692 282.716 255.988 284.558C255.3 286.511 253.37 290.58 251.148 291.226C250.137 291.519 249.612 296.128 249.372 302.069C249.348 302.661 249.327 303.265 249.309 303.88C249.105 310.672 249.222 318.717 249.393 324.054Z" fill="#FF9437"/>
<path d="M437.362 310.004C430.025 296.854 410.254 267.527 389.863 255.415C432.841 312.069 430.175 363.008 423.469 381.396L446.214 374.785C449.301 355.607 448.325 332.68 437.362 310.004Z" fill="#FF9437"/>
<path d="M304.496 244.152L304.117 248.772L303.801 252.622L330.31 246.443L304.496 244.152Z" fill="#FF9437"/>
<path d="M258.656 182.317L258.746 180.036L253.079 178.677L252.093 180.467L246.17 203.233L201.083 191.536L207.943 168.497L208.235 166.909L200.574 163.875L199.79 166.358L194.52 189.686L184.575 186.564L179.602 185.003L178.213 185.406L175.658 192.162L177.449 193.144L182.307 194.31L263.27 213.739L269.515 215.237L270.639 210.589L264.864 208.86L252.49 205.154L258.656 182.317Z" fill="#453540"/>
<path d="M251.148 291.226C253.37 290.58 255.3 286.511 255.988 284.558C258.692 282.716 261.918 280.499 265.402 278.078C280.933 267.287 301.6 252.45 304.117 248.772L304.496 244.152C294.535 251.651 275.934 264.836 265.509 269.765C262.568 271.155 260.277 271.889 259.015 271.652C261.753 252.568 270.444 214.065 283.312 212.73C288.029 209.543 298.569 204.135 310.976 201.67C315.679 200.736 320.651 200.224 325.675 200.417C322.694 199.346 316.804 198.395 308.674 198.93C303.488 199.272 297.392 200.219 290.558 202.125C285.938 203.413 280.982 205.14 275.742 207.415L274.4 195.028L270.639 210.589L269.515 215.237L251.148 291.226Z" fill="#453540"/>
<path d="M303.333 424.121L294.355 424.329C290.438 425.772 285.767 427.552 280.802 429.523C275.136 431.772 269.086 434.27 263.335 436.799C261.522 437.597 259.738 438.397 258.006 439.194C253.89 441.088 250.062 442.961 246.809 444.722C240.192 448.304 235.954 451.424 236.503 453.316C234.082 460.534 233.456 475.998 250.318 480.116C254.506 479.001 259.744 477.489 265.59 475.65C268.231 474.818 270.997 473.92 273.846 472.961C275.642 472.357 277.472 471.729 279.324 471.078C284.21 469.361 289.255 467.488 294.269 465.489C310.324 459.088 326.066 451.395 335.294 443.391L341.073 447.724L416.076 425.923L422.182 418.427C380.136 430.395 326.405 427.405 303.333 424.121Z" fill="#453447"/>
<path d="M220.292 426.044C208.102 440.249 191.974 475.279 224.978 501.762C241.812 510.447 279.104 516.962 293.599 473.549C294.047 470.773 294.809 465.274 294.269 465.489C289.255 467.488 284.21 469.361 279.324 471.078C275.8 496.268 251.602 496.625 239.944 493.654C208.819 479.853 218.62 452.251 227.412 440.176C242.145 428.678 257.5 433.134 263.335 436.799C269.086 434.27 275.136 431.772 280.802 429.523L274.156 424.796L220.292 426.044Z" fill="#453541"/>
<path d="M227.412 440.176C218.62 452.251 208.819 479.853 239.944 493.654C251.602 496.625 275.8 496.268 279.324 471.078C277.472 471.729 275.642 472.357 273.846 472.961C266.39 492.914 246.929 490.912 238.131 487.417C215.178 470.639 225.532 450.981 233.577 443.25C240.215 434.991 252.629 437.105 258.006 439.194C259.738 438.397 261.522 437.597 263.335 436.799C257.5 433.134 242.145 428.678 227.412 440.176Z" fill="#BFBFBF"/>
<path d="M250.318 480.116C233.456 475.998 234.082 460.534 236.503 453.316C235.954 451.424 240.192 448.304 246.809 444.722C238.498 445.496 223.865 452.33 231.817 473.469C236.843 481.259 250.634 492.601 265.59 475.65C259.744 477.489 254.506 479.001 250.318 480.116Z" fill="#BFBFBF"/>
<path d="M325.201 403.484C310.111 405.465 304.335 418.067 303.333 424.121C326.405 427.405 380.136 430.395 422.182 418.427C425.475 417.49 428.697 416.46 431.827 415.332C432.437 414.367 433.064 413.31 433.701 412.167C438.429 403.69 443.685 390.496 446.214 374.785L423.469 381.396C418.033 384.052 406.415 388.934 403.434 387.22L415.053 393.902C421.035 391.161 433.401 387.066 435.013 392.61C414.452 417.226 383.388 415.382 370.427 411.383C346.113 414.796 348.845 397.594 353.25 388.567L343.215 387.726L339.144 363.355C336.116 361.229 342.067 349.227 345.421 343.492C336.563 349.165 314.301 360.457 293.209 362.393C297.614 362.336 301.471 363.325 304.834 365.06C318.695 372.21 324.187 392.026 325.201 403.484Z" fill="#E9D3BB"/>
<path d="M460.155 398.784C464.964 416.192 484.34 447.268 523.375 432.314C535.602 426.011 557.882 406.444 549.186 378.6C547.318 371.999 541.988 358.81 535.615 358.859C533.104 362.143 530.353 365.187 527.42 368.005C537.387 379.138 548.336 405.217 512.402 420.472C500.971 422.603 477.919 420.513 477.162 395.106C471.03 396.823 465.242 398.019 460.155 398.784Z" fill="#453541"/>
<path d="M512.402 420.472C548.336 405.217 537.387 379.138 527.42 368.005C526.028 369.343 524.595 370.629 523.128 371.867C539.096 391.564 525.917 406.512 517.332 411.523C490.511 424.13 482.611 404.866 482.013 393.659C480.377 394.178 478.758 394.66 477.162 395.106C477.919 420.513 500.971 422.603 512.402 420.472Z" fill="#BFBFBF"/>
<path d="M515.116 403.9C530.621 395.184 522.82 382.09 516.981 376.632C515.534 377.665 514.063 378.657 512.574 379.609C505.145 384.359 497.261 388.12 489.538 391.045C491.523 410.312 507.417 407.643 515.116 403.9Z" fill="#BFBFBF"/>
<path d="M266.592 337.062C262.952 335.501 259.971 333.77 257.769 332.142L233.054 332.622C236.625 341.206 247.104 357.08 263.23 361.23C266.127 361.671 269.006 362.001 271.789 362.24C278.896 362.851 285.381 362.869 289.974 362.615C291.084 362.479 292.162 362.407 293.209 362.393C314.301 360.457 336.563 349.165 345.421 343.492C345.206 342.515 344.947 341.588 344.652 340.709C311.864 360.462 282.433 347.809 271.816 339.014C269.952 338.413 268.207 337.754 266.592 337.062Z" fill="#E55D5D"/>
<path d="M344.652 340.709C342.388 333.968 338.04 330.124 335.926 328.966C321.597 337.962 307.973 341.577 296.075 342.147C286.771 342.593 278.522 341.176 271.816 339.014C282.433 347.809 311.864 360.462 344.652 340.709Z" fill="#CD4640"/>
<path d="M230.058 332.68C225.542 335.797 229.279 344.682 231.712 348.735C236.552 353.408 243.689 356.615 251.485 358.771C255.306 359.827 259.285 360.631 263.23 361.23C247.104 357.08 236.625 341.206 233.054 332.622L230.058 332.68Z" fill="#CD4640"/>
<path d="M252.865 323.045L257.769 332.142C259.971 333.77 262.952 335.501 266.592 337.062C271.058 335.228 276.792 332.623 282.869 329.491C299.432 320.953 318.535 308.502 321.396 297.113C309.953 308.706 282.473 330.072 264.088 322.789L252.865 323.045Z" fill="#43334D"/>
<path d="M354.327 384.496L353.25 388.567C348.845 397.594 346.113 414.796 370.427 411.383L368.614 405.146C366.515 398.985 366.935 394.298 368.284 390.961C369.571 387.779 371.703 385.825 373.3 384.994L371.89 380.143L365.438 381.266L361.812 368.792L363.986 365.905L358.506 343.447L352.17 317.48L347.913 320.972L351.437 382.329L354.327 384.496Z" fill="#433545"/>
<path d="M368.614 405.146L370.427 411.383C383.388 415.382 414.452 417.226 435.013 392.61C430.188 395.732 422.932 399.633 414.638 402.837C405.474 406.377 395.042 409.067 385.222 408.916C384.302 408.902 383.387 408.863 382.479 408.797C377.574 408.442 372.871 407.311 368.614 405.146Z" fill="#433545"/>
<path d="M390.327 384.554C381.57 392.53 375.429 388.432 373.3 384.994C371.703 385.825 369.571 387.779 368.284 390.961C372.424 392.279 381.255 398.367 382.479 408.797C383.387 408.863 384.302 408.902 385.222 408.916C395.042 409.067 405.474 406.377 414.638 402.837C412.05 402.223 413.836 396.624 415.053 393.902L403.434 387.22L393.35 381.421C392.311 382.627 391.303 383.665 390.327 384.554Z" fill="#E55D5D"/>
<path d="M368.284 390.961C366.935 394.298 366.515 398.985 368.614 405.146C372.871 407.311 377.574 408.442 382.479 408.797C381.255 398.367 372.424 392.279 368.284 390.961Z" fill="#CD4640"/>
<path d="M435.013 392.61C433.401 387.066 421.035 391.161 415.053 393.902C413.836 396.624 412.05 402.223 414.638 402.837C422.932 399.633 430.188 395.732 435.013 392.61Z" fill="#E55D5D"/>
<path d="M251.485 358.771C262.13 371.803 291.486 368.394 304.834 365.06C301.471 363.325 297.614 362.336 293.209 362.393C292.127 362.492 291.048 362.567 289.974 362.615C285.381 362.869 278.896 362.851 271.789 362.24C268.782 362.291 265.927 361.925 263.23 361.23C259.285 360.631 255.306 359.827 251.485 358.771Z" fill="#FF9437"/>
<path fill-rule="evenodd" clip-rule="evenodd" d="M335.926 328.966L347.913 320.972L352.17 317.48L358.506 343.447C364.318 342.137 375.862 341.264 385.132 345.248C383.347 322.306 378.791 308.145 376.027 302.565C375.792 302.09 375.57 301.677 375.364 301.327C375.801 288.259 339.567 293.072 321.396 297.113C318.535 308.502 299.432 320.953 282.869 329.491C286.795 328.618 294.934 329.928 296.075 342.147C307.973 341.577 321.597 337.962 335.926 328.966Z" fill="#5C75C9"/>
<path d="M383.427 285.095C378.38 281.551 363.801 275.617 345.862 280.231C340.485 284.521 332.663 289.4 325.064 291.595L321.396 297.113C339.567 293.072 375.801 288.259 375.364 301.327C375.57 301.677 375.792 302.09 376.027 302.565C378.791 308.145 383.347 322.306 385.132 345.248C388.091 346.52 390.818 348.287 393.053 350.692C393.458 328.378 391.95 294.943 383.427 285.095Z" fill="#5C75C9"/>
<path d="M266.592 337.062C268.207 337.754 269.952 338.413 271.816 339.014C278.522 341.176 286.771 342.593 296.075 342.147C294.934 329.928 286.795 328.618 282.869 329.491C276.792 332.623 271.058 335.228 266.592 337.062Z" fill="#5C75C9"/>
<path d="M363.986 365.905C374.485 358.661 385.615 359.083 392.703 360.981C392.859 357.991 392.984 354.504 393.053 350.692C390.818 348.287 388.091 346.52 385.132 345.248C375.862 341.264 364.318 342.137 358.506 343.447L363.986 365.905Z" fill="#3656AD"/>
<path d="M363.986 365.905L361.812 368.792L365.438 381.266L371.89 380.143L389.119 380.396L396.822 380.411L397.745 362.857C396.482 362.208 394.763 361.532 392.703 360.981C385.615 359.083 374.485 358.661 363.986 365.905Z" fill="#879CE7"/>
<path d="M371.89 380.143L373.3 384.994C375.429 388.432 381.57 392.53 390.327 384.554L389.119 380.396L371.89 380.143Z" fill="#FFD05E"/>
<path d="M375.687 237.74C368.537 238.014 344.226 252.146 332.964 259.177C332.883 259.226 332.802 259.274 332.721 259.322C332.817 259.007 332.901 258.711 332.972 258.438L333.1 246.69L330.31 246.443L303.801 252.622L301.845 276.49C304.403 292.52 314.519 294.641 325.064 291.595C332.663 289.4 340.485 284.521 345.862 280.231C355.197 271.755 374.438 253.134 376.716 246.46C379.42 243.67 385.391 240.03 387.647 247.792C387.777 249.103 392.353 248.945 396.525 246.715C395.716 243.542 394.549 241.167 393.159 239.425C388.079 233.058 380.029 235.16 375.687 237.74Z" fill="#FDB6B4"/>
<path d="M387.647 247.792C385.391 240.03 379.42 243.67 376.716 246.46C379.113 252.414 381.64 253.426 383.731 252.457C385.421 251.674 386.826 249.598 387.647 247.792Z" fill="#453447"/>
<path d="M306.347 185.742L301.708 193.103C302.789 195.095 305.696 199.049 308.674 198.93C316.804 198.395 322.694 199.346 325.675 200.417C330.12 199.125 328.055 196.513 326.467 195.369C323.803 196.143 312.845 189.838 307.057 186.193C306.811 186.037 306.573 185.887 306.347 185.742Z" fill="#FFD05E"/>
<path d="M301.708 193.103C298.608 192.802 292.983 198.992 290.558 202.125C297.392 200.219 303.488 199.272 308.674 198.93C305.696 199.049 302.789 195.095 301.708 193.103Z" fill="#FFD05E"/>
<path d="M325.675 200.417C320.651 200.224 315.679 200.736 310.976 201.67C316.142 203.931 327.27 208.07 330.453 206.544C328.75 203.62 327.021 201.575 325.675 200.417Z" fill="#FFD05E"/>
<path d="M307.057 186.193C312.845 189.838 323.803 196.143 326.467 195.369L328.324 190.098C320.138 187.845 317.829 177.743 317.698 172.973C316.075 173.744 314.25 174.069 312.756 174.108L307.057 186.193Z" fill="#FDB6B4"/>
<path d="M330.181 184.827C326.853 183.74 319.697 179.849 317.698 172.973C317.829 177.743 320.138 187.845 328.324 190.098L330.181 184.827Z" fill="#FD847E"/>
<path d="M331.041 151.507C330.358 159.522 323.362 160.503 319.95 159.992C323.797 167.52 321.224 171.299 317.698 172.973C319.697 179.849 326.853 183.74 330.181 184.827C336.147 186.349 347.909 186.739 347.231 176.113L346.452 155.295L344.548 151.339C339.565 156.996 333.467 153.808 331.041 151.507Z" fill="#FDB6B4"/>
<path d="M319.95 159.992C323.362 160.503 330.358 159.522 331.041 151.507C333.467 153.808 339.565 156.996 344.548 151.339L346.452 155.295C350.051 152.996 356.252 147.035 352.257 141.582C349.205 131.947 338.867 116.763 321.928 133.111C315.409 134.004 303.656 139.174 308.796 152.711C306.1 157.253 303.116 167.891 312.756 174.108C314.25 174.069 316.075 173.744 317.698 172.973C321.224 171.299 323.797 167.52 319.95 159.992Z" fill="#433545"/>
<path d="M212.304 388.198C205.433 392.199 192.202 403.511 194.242 416.747C198.969 414.872 209.199 406.537 212.304 388.198Z" fill="#FBE582"/>
<path d="M183.486 219.162L186.497 220.937C188.348 222.032 188.827 223.297 188.395 224.572L179.877 219.24C179.742 219.149 179.692 219.027 179.748 218.864L180.22 217.467C180.271 217.318 180.389 217.237 180.552 217.247L186.769 217.454L181.713 213.816C181.577 213.725 181.533 213.589 181.583 213.44L182.056 212.043C182.111 211.88 182.225 211.813 182.388 211.823L191.782 212.69C191.972 212.709 192.062 212.845 191.998 213.035L191.474 214.581C191.419 214.744 191.301 214.824 191.129 214.797L185.22 214.081L188.253 216.241C190.017 217.503 190.235 218.333 190.167 219.337L183.486 219.162ZM182.154 228.255C182.699 228.81 182.872 229.504 182.687 230.318L176.436 228.202C176.784 227.443 177.342 226.997 178.119 226.89C177.553 226.109 177.39 225.117 177.736 224.093C178.333 222.33 180.061 221.555 181.96 222.197C183.844 222.835 184.747 224.501 184.15 226.264C183.804 227.287 183.072 227.977 182.154 228.255ZM179.152 225.267C178.872 226.094 179.321 226.911 180.243 227.223C181.165 227.536 182.018 227.159 182.298 226.332C182.578 225.505 182.129 224.688 181.207 224.376C180.285 224.064 179.432 224.44 179.152 225.267ZM180.84 235.596C180.749 235.732 180.604 235.758 180.455 235.708L179.113 235.253C178.923 235.189 178.883 235.04 179.001 234.868C179.133 234.656 179.229 234.462 179.294 234.272C179.541 233.54 179.25 232.972 178.45 232.611L175.711 231.684C175.535 231.624 175.472 231.497 175.532 231.321L176.036 229.829C176.096 229.653 176.223 229.59 176.399 229.65L182.244 231.628C181.799 232.384 181.195 232.83 180.468 232.946C181.191 233.667 181.289 234.449 181.046 235.167C180.996 235.316 180.913 235.47 180.84 235.596ZM170.792 234.16L173.349 236.341L180.236 236.087C180.449 236.084 180.543 236.206 180.474 236.41L179.97 237.901C179.919 238.05 179.815 238.136 179.647 238.14L175.143 238.096L177.105 239.577C178.441 240.588 178.82 241.744 178.347 243.141L171.943 237.815C170.672 236.749 170.301 235.611 170.792 234.16ZM176.513 248.116L176.008 249.608C175.948 249.784 175.821 249.847 175.645 249.787L169.8 247.809C170.15 247.043 170.716 246.6 171.502 246.488C170.837 245.772 170.673 244.961 170.999 243.998C171.509 242.493 172.751 241.992 174.514 242.588L177.715 243.671C177.891 243.731 177.954 243.858 177.894 244.034L177.389 245.526C177.329 245.702 177.202 245.765 177.026 245.705L173.826 244.622C173.134 244.388 172.617 244.576 172.434 245.118C172.204 245.796 172.645 246.505 173.485 246.789L176.333 247.753C176.509 247.813 176.572 247.94 176.513 248.116ZM174.389 255.106C173.847 256.706 172.528 256.985 170.901 256.434L167.701 255.351C167.525 255.291 167.462 255.164 167.522 254.988L168.026 253.496C168.086 253.32 168.213 253.257 168.389 253.317L171.59 254.4C172.295 254.639 172.78 254.501 172.996 253.863C173.191 253.287 172.895 252.665 172.176 252.332L169.078 251.283C168.902 251.223 168.839 251.096 168.898 250.92L169.403 249.428C169.463 249.252 169.59 249.189 169.766 249.249L175.611 251.227C175.177 251.972 174.573 252.417 173.857 252.545C174.557 253.47 174.655 254.319 174.389 255.106ZM170.381 263.264C170.949 263.819 171.108 264.53 170.828 265.357L164.184 263.109C162.218 262.443 161.804 260.716 162.493 258.682C163.057 257.014 164.2 255.648 166.014 256.005C166.199 256.037 166.271 256.183 166.211 256.359L165.706 257.851C165.651 258.013 165.538 258.081 165.348 258.062C164.719 258 164.264 258.405 163.989 259.219C163.686 260.114 163.923 260.753 164.886 261.079L165.971 261.446C165.643 260.761 165.597 259.96 165.877 259.133C166.474 257.37 168.202 256.594 170.101 257.237C171.985 257.875 172.888 259.54 172.291 261.303C171.956 262.293 171.265 262.974 170.381 263.264ZM167.293 260.307C167.013 261.134 167.462 261.951 168.384 262.263C169.306 262.575 170.159 262.199 170.439 261.372C170.719 260.545 170.27 259.728 169.348 259.416C168.426 259.103 167.573 259.48 167.293 260.307Z" fill="black"/>
<path d="M579.238 189.207C566.23 174.86 548.018 145.132 579.238 141C590.907 142.148 607.244 153.396 579.238 189.207Z" fill="#E55D5D"/>
<circle cx="578.664" cy="157.643" r="7.46063" fill="#FEFEFE"/>
<path d="M76.2381 442.207C63.2298 427.86 45.0182 398.132 76.2381 394C87.9073 395.148 104.244 406.396 76.2381 442.207Z" fill="#FFD05E"/>
<circle cx="75.6636" cy="410.643" r="7.46063" fill="#FEFEFE"/>
<circle cx="75.4606" cy="454.461" r="7.46063" fill="#453541"/>
<circle cx="75.4606" cy="454.461" r="7.46063" fill="#453541"/>
<circle cx="578.461" cy="207.461" r="7.46063" fill="#453541"/>
<circle cx="578.461" cy="207.461" r="7.46063" fill="#453541"/>
<path d="M212.692 504.521C213.496 493.063 236.468 502.051 247.854 507.977C230.097 519.544 201.931 519.18 190.067 517.552C172.166 510.468 185.064 507.631 193.75 507.098C187.19 495.36 203.645 500.489 212.692 504.521Z" fill="#FEFEFE"/>
</svg>
