<svg width="89" height="44" viewBox="0 0 89 44" fill="none" xmlns="http://www.w3.org/2000/svg">
<path d="M1.00949 15.5305C1.65427 21.6917 7.67225 29.7157 17.4873 34.4441C18.4143 35.1167 19.8182 35.9709 21.6425 36.8826L26.156 35.7911C15.0479 32.1083 8.38078 27.0197 4.70989 22.5514C2.47203 19.8275 1.34768 17.3342 1.00949 15.5305Z" fill="#CE965F"/>
<path d="M47.2189 43.2562C61.4901 43.8866 73.1296 39.1725 77.1655 36.7367C79.3701 35.6692 83.947 32.2384 85.0979 26.8914C81.7374 32.2508 67.723 42.1528 38.5502 38.8859C33.9086 38.0526 29.7941 36.9972 26.156 35.7911L21.6425 36.8826C27.0087 39.5643 36.0126 42.7429 47.2189 43.2562Z" fill="#CB6D3C"/>
<path d="M74.658 14.0976C68.5445 11.5185 55.3145 6.79008 44.998 5.6438C42.1323 5.1423 24.5082 3.35124 11.6842 6.43189C1.00949 8.15129 0.672104 12.3066 1.00949 15.5305C1.34768 17.3342 2.47203 19.8275 4.70989 22.5514C2.85552 17.7036 3.00116 8.22293 18.4186 9.08264C33.8361 9.94235 57.8937 12.5931 67.9953 13.811C72.982 15.1961 83.4296 19.3848 85.3262 25.0589C85.282 19.6985 78.3842 15.5749 74.658 14.0976Z" fill="#CB6D3C"/>
<path d="M85.0979 26.8914C85.1314 26.7359 85.1619 26.5789 85.1895 26.4202C85.2862 25.9584 85.3299 25.5044 85.3262 25.0589C83.4296 19.3848 72.982 15.1961 67.9953 13.811C57.8937 12.5931 33.8361 9.94235 18.4186 9.08264C3.00116 8.22293 2.85552 17.7036 4.70989 22.5514C8.38078 27.0197 15.0479 32.1083 26.156 35.7911C29.7941 36.9972 33.9086 38.0526 38.5502 38.8859C67.723 42.1528 81.7374 32.2508 85.0979 26.8914Z" fill="#CE965F"/>
<path d="M1.00949 15.5305C1.65427 21.6917 7.67225 29.7157 17.4873 34.4441C18.4143 35.1167 19.8182 35.9709 21.6425 36.8826M1.00949 15.5305C0.672104 12.3066 1.00949 8.15129 11.6842 6.43189C24.5082 3.35124 42.1323 5.1423 44.998 5.6438C55.3145 6.79008 68.5445 11.5185 74.658 14.0976C78.3842 15.5749 85.282 19.6985 85.3262 25.0589M1.00949 15.5305C1.34768 17.3342 2.47203 19.8275 4.70989 22.5514M85.0979 26.8914C83.947 32.2384 79.3701 35.6692 77.1655 36.7367C73.1296 39.1725 61.4901 43.8866 47.2189 43.2562C36.0125 42.7429 27.0087 39.5643 21.6425 36.8826M85.0979 26.8914C85.1314 26.7359 85.1619 26.5789 85.1895 26.4202C85.2862 25.9584 85.3299 25.5044 85.3262 25.0589M85.0979 26.8914C81.7373 32.2508 67.723 42.1528 38.5502 38.8859C33.9086 38.0526 29.7941 36.9972 26.156 35.7911M4.70989 22.5514C2.85552 17.7036 3.00116 8.22293 18.4186 9.08264C33.8361 9.94235 57.8937 12.5931 67.9953 13.811C72.982 15.1961 83.4296 19.3848 85.3262 25.0589M4.70989 22.5514C8.38078 27.0197 15.0479 32.1083 26.156 35.7911M21.6425 36.8826L26.156 35.7911" stroke="#6A200F" stroke-width="0.7"/>
<path d="M6.45437 14.1695C6.45437 14.8573 7.45736 16.1755 7.95886 16.7486C8.25301 16.5996 8.61677 16.4404 9.03177 16.289C8.32994 16.274 7.07233 14.9389 6.45437 14.1695Z" fill="#4BAB27"/>
<path d="M15.7679 16.1848C16.0907 16.3382 16.4027 16.5247 16.6993 16.7486C17.6813 15.8393 18.9293 13.8303 18.0004 11.6835C18.5188 13.3974 16.8447 15.3204 15.7679 16.1848Z" fill="#4BAB27"/>
<path d="M8.38872 24.0562C9.64963 25.8902 13.8336 25.298 15.7679 24.7726C15.8712 24.4719 16.0573 24.0554 16.321 23.6263C16.1367 23.6024 15.2091 23.7123 12.9738 24.3427C9.70694 24.7439 7.74393 22.5039 7.17079 21.3338C6.95587 21.692 6.89855 22.738 8.38872 24.0562Z" fill="#4BAB27"/>
<path d="M17.0575 29.4294C20.1381 32.6533 25.8217 30.4562 27.4456 28.8562L27.3334 27.7816C23.2187 32.0085 17.0575 30.0025 16.0545 26.9935C16.0784 27.6144 16.3124 28.9709 17.0575 29.4294Z" fill="#4BAB27"/>
<path d="M18.562 21.7636C18.7368 21.0425 18.6255 20.2707 18.376 19.5427C18.484 20.2064 18.572 21.614 18.0605 21.9352C18.2203 21.8613 18.3875 21.8029 18.562 21.7636Z" fill="#4BAB27"/>
<path d="M6.74094 19.3994C7.25677 19.9726 7.24244 20.9278 7.17079 21.3338C7.74393 22.5039 9.70694 24.7439 12.9738 24.3427C15.2091 23.7123 16.1367 23.6024 16.321 23.6263C16.725 22.9689 17.3111 22.2817 18.0605 21.9352C18.572 21.614 18.484 20.2064 18.376 19.5427C17.971 18.3613 17.2016 17.2953 16.6993 16.7486C16.4027 16.5247 16.0907 16.3382 15.7679 16.1848C13.6656 15.1857 11.1017 15.589 9.32007 16.188C9.2413 16.2603 9.14359 16.2914 9.03177 16.289C8.61677 16.4404 8.25301 16.5996 7.95886 16.7486C7.45736 17.2501 6.51168 18.4824 6.74094 19.3994Z" fill="#DAD89F"/>
<path d="M16.4127 9.65603C11.541 6.07391 6.97975 9.51274 6.31108 11.662L6.23944 12.0919C6.31108 12.259 6.45437 12.9086 6.45437 14.1695C7.07233 14.9389 8.32994 16.274 9.03177 16.289C9.12534 16.2549 9.22151 16.2212 9.32007 16.188C11.1017 15.589 13.6656 15.1857 15.7679 16.1848C16.8447 15.3204 18.5188 13.3974 18.0004 11.6835C17.8638 11.3678 17.6802 11.0492 17.4417 10.7307C17.1724 10.3709 16.8331 10.0112 16.4127 9.65603Z" fill="#DAD89F"/>
<path d="M24.4366 21.5487C23.4337 21.286 20.8545 20.9612 18.562 21.7636C18.3875 21.8029 18.2203 21.8613 18.0605 21.9352C17.3111 22.2817 16.725 22.9689 16.321 23.6263C16.0573 24.0554 15.8712 24.4719 15.7679 24.7726C15.8634 24.9637 16.0545 25.4174 16.0545 25.704V26.9935C17.0575 30.0025 23.2187 32.0085 27.3334 27.7816L26.9441 24.0562C26.9441 22.9099 25.2725 21.9069 24.4366 21.5487Z" fill="#DAD89F"/>
<path d="M20.7829 25.2741C20.5441 24.7249 19.8658 23.7553 19.0634 24.2711C18.4903 25.0735 19.9709 25.2741 20.7829 25.2741Z" fill="#E5D7EA" stroke="#E5D7EA"/>
<path d="M22.4808 25.0258C22.5627 24.1845 22.9105 22.6726 23.647 23.3558C24.2578 24.4889 23.1241 24.9413 22.4808 25.0258Z" fill="#E5D7EA" stroke="#E5D7EA"/>
<path d="M21.165 26.1946C21.079 26.8581 20.6781 28.0891 19.7628 27.7046C18.994 26.9495 20.3773 26.3833 21.165 26.1946Z" fill="#E5D7EA" stroke="#E5D7EA"/>
<path d="M22.574 26.1044C23.2421 26.1397 24.5 26.4458 24.1862 27.3877C23.4918 28.2117 22.8221 26.8755 22.574 26.1044Z" fill="#E5D7EA" stroke="#E5D7EA"/>
<path d="M13.547 20.2301C14.2151 20.2654 15.473 20.5715 15.1592 21.5134C14.4648 22.3374 13.795 21.0012 13.547 20.2301Z" fill="#E5D7EA" stroke="#E5D7EA"/>
<path d="M11.6843 19.3994C10.8967 19.4355 9.4383 19.2876 9.90564 18.4072C10.8117 17.5942 11.469 18.7299 11.6843 19.3994Z" fill="#E5D7EA" stroke="#E5D7EA"/>
<path d="M11.9482 20.5455C11.2764 20.7465 10.0927 21.3099 10.7322 21.9553C11.7213 22.4108 11.955 21.2052 11.9482 20.5455Z" fill="#E5D7EA" stroke="#E5D7EA"/>
<path d="M13.381 19.256C14.0142 19.029 15.1295 18.3914 14.525 17.657C13.5912 17.1376 13.3732 18.5066 13.381 19.256Z" fill="#E5D7EA" stroke="#E5D7EA"/>
<path d="M13.0729 11.662C13.7061 11.435 14.8214 10.7975 14.2169 10.063C13.2831 9.54367 13.0651 10.9126 13.0729 11.662Z" fill="#E5D7EA" stroke="#E5D7EA"/>
<path d="M11.2544 11.8053C10.446 11.8364 8.95332 11.6776 9.45006 10.7944C10.3953 9.98201 11.0468 11.1299 11.2544 11.8053Z" fill="#E5D7EA" stroke="#E5D7EA"/>
<path d="M12.9739 12.5823C13.6876 12.5957 15.0177 12.8481 14.6284 13.7499C13.8382 14.5514 13.1961 13.3055 12.9739 12.5823Z" fill="#E5D7EA" stroke="#E5D7EA"/>
<path d="M11.4277 12.8656C10.6275 13.2113 9.2534 14.0141 10.1583 14.4598C11.465 14.6467 11.549 13.4748 11.4277 12.8656Z" fill="#E5D7EA" stroke="#E5D7EA"/>
<path d="M18.4186 9.69587C18.7052 10.3168 19.5649 11.7449 20.7112 12.4899C19.3929 11.401 18.9959 10.269 18.9622 9.83916V7.83317C18.8933 7.76017 18.828 7.68843 18.7664 7.61824C18.6333 7.46679 18.5172 7.32253 18.4186 7.18838V9.69587Z" fill="#F0F8F6"/>
<path d="M39.4099 6.90181C39.4815 5.58837 38.2779 2.73222 32.8904 1.81519C27.5029 0.898168 22.7172 2.10176 20.9977 3.10476C20.2336 3.58238 18.5906 4.88149 18.4186 6.25703V7.18838C18.5172 7.32253 18.6333 7.46679 18.7664 7.61824C18.937 6.28091 20.3959 3.36267 24.8664 2.38833C29.3369 1.41399 34.4665 2.93759 36.4725 3.82118C37.4516 4.48985 39.2236 6.28569 38.4785 8.11974L38.2636 8.58855C38.554 8.30717 38.7875 8.02729 38.9698 7.76152C39.1844 7.44851 39.3281 7.15507 39.4099 6.90181Z" fill="#F0F8F6"/>
<path d="M39.4099 10.4123V6.90181C39.3281 7.15507 39.1844 7.44851 38.9698 7.76152L38.9084 12.1026C38.9798 12.0768 39.0515 12.0507 39.1233 12.0243L39.4099 10.4123Z" fill="#F0F8F6"/>
<path d="M20.7112 12.4899C21.4037 13.5407 22.9321 15.6565 23.5052 15.7138L23.3959 15.5706L21.9741 13.7079L21.3726 12.9198C21.1099 12.7758 20.8893 12.6306 20.7112 12.4899Z" fill="#F0F8F6"/>
<path d="M18.7664 7.61824C18.828 7.68843 18.8933 7.76017 18.9622 7.83317C20.544 9.50918 24.0202 11.8475 28.8068 11.3437C30.593 11.3858 32.1108 11.2333 33.3919 10.9562C34.2516 10.6462 35.4218 9.46143 35.8994 8.90781C37.3896 7.39306 36.9024 5.9841 36.4725 5.46896C35.8516 4.84806 34.6385 3.73521 34.7531 4.25104C35.3263 5.16806 35.3263 6.16151 35.2546 6.5436C35.2785 7.52272 34.4236 9.36632 30.8128 8.90781C27.3166 7.99078 26.5381 6.23315 26.5859 5.46896C26.6575 5.20627 26.3709 4.72388 24.6515 4.89582C22.9321 5.06776 22.9799 6.25703 23.2187 6.83017C23.5291 7.37943 24.9811 8.64989 28.3053 9.33766C26.5285 10.0254 23.8396 9.05109 22.7172 8.47795C22.1918 8.19138 21.1873 7.28868 21.3726 5.97046C20.1251 5.85583 19.1153 7.02122 18.7664 7.61824Z" fill="#DEB081"/>
<path d="M18.9622 9.83916C18.9959 10.269 19.3929 11.401 20.7112 12.4899C20.8893 12.6306 21.1099 12.7758 21.3726 12.9198C22.3779 13.4706 24.0007 14.0033 26.2276 14.1896C28.8068 14.2884 30.359 13.2409 30.8128 12.7049C24.8521 13.7938 20.4288 11.2481 18.9622 9.83916Z" fill="#DEB081"/>
<path d="M28.5202 14.8541C26.2276 15.1407 23.2009 14.2094 21.9741 13.7079L23.3959 15.5706C23.8144 15.8201 24.9238 16.2697 26.0127 16.0721C27.1017 15.8745 28.1381 15.1778 28.5202 14.8541Z" fill="#DEB081"/>
<path d="M24.8664 2.38833C20.3959 3.36267 18.937 6.28091 18.7664 7.61824C19.1153 7.02122 20.1251 5.85583 21.3726 5.97046C21.1873 7.28868 22.1918 8.19138 22.7172 8.47795C23.8396 9.05109 26.5285 10.0254 28.3053 9.33766C24.9811 8.64989 23.5291 7.37943 23.2187 6.83017C22.9799 6.25703 22.9321 5.06776 24.6515 4.89582C26.3709 4.72388 26.6575 5.20627 26.5859 5.46896C26.5381 6.23315 27.3166 7.99078 30.8128 8.90781C34.4236 9.36632 35.2785 7.52272 35.2546 6.5436C35.3263 6.16151 35.3263 5.16806 34.7531 4.25104C34.6385 3.73521 35.8516 4.84806 36.4725 5.46896C36.9024 5.9841 37.3896 7.39306 35.8994 8.90781C35.4218 9.46143 34.2516 10.6462 33.3919 10.9562C35.7563 10.4446 37.3141 9.50854 38.2636 8.58855L38.4785 8.11974C39.2236 6.28569 37.4516 4.48985 36.4725 3.82118C34.4665 2.93759 29.3369 1.41399 24.8664 2.38833Z" fill="#CA783A"/>
<path d="M23.5052 15.7138C24.5321 16.3586 27.0874 17.5336 29.0933 17.0751L38.8367 13.6362L39.1233 12.0243C39.0515 12.0507 38.9798 12.0768 38.9084 12.1026C33.5486 14.0418 29.3097 14.4474 26.2276 14.1896C24.0007 14.0033 22.3779 13.4706 21.3726 12.9198L21.9741 13.7079C23.2009 14.2094 26.2276 15.1407 28.5202 14.8541C28.1381 15.1778 27.1017 15.8745 26.0127 16.0721C24.9238 16.2697 23.8144 15.8201 23.3959 15.5706L23.5052 15.7138Z" fill="#CA783A"/>
<path d="M28.8068 11.3437C24.0202 11.8475 20.544 9.50918 18.9622 7.83317V9.83916C20.4288 11.2481 24.8521 13.7938 30.8128 12.7049C30.359 13.2409 28.8068 14.2884 26.2276 14.1896C29.3097 14.4474 33.5486 14.0418 38.9084 12.1026L38.9698 7.76152C38.7875 8.02729 38.554 8.30717 38.2636 8.58855C37.3141 9.50854 35.7563 10.4446 33.3919 10.9562C32.1108 11.2333 30.593 11.3858 28.8068 11.3437Z" fill="#CA783A"/>
<path d="M20.7112 12.4899C19.5649 11.7449 18.7052 10.3168 18.4186 9.69587V7.18838M20.7112 12.4899C21.4037 13.5407 22.9321 15.6565 23.5052 15.7138M20.7112 12.4899C19.3929 11.401 18.9959 10.269 18.9622 9.83916M20.7112 12.4899C20.8893 12.6306 21.1099 12.7758 21.3726 12.9198M23.5052 15.7138C24.5321 16.3586 27.0874 17.5336 29.0933 17.0751L38.8367 13.6362L39.1233 12.0243M23.5052 15.7138L23.3959 15.5706M39.4099 6.90181V10.4123L39.1233 12.0243M39.4099 6.90181C39.4815 5.58837 38.2779 2.73222 32.8904 1.81519C27.5029 0.898168 22.7172 2.10176 20.9977 3.10476C20.2336 3.58238 18.5906 4.88149 18.4186 6.25703V7.18838M39.4099 6.90181C39.3281 7.15507 39.1844 7.44851 38.9698 7.76152M18.4186 7.18838C18.5172 7.32253 18.6333 7.46679 18.7664 7.61824M39.1233 12.0243C39.0515 12.0507 38.9798 12.0768 38.9084 12.1026M18.7664 7.61824C18.937 6.28091 20.3959 3.36267 24.8664 2.38833C29.3369 1.41399 34.4665 2.93759 36.4725 3.82118C37.4516 4.48985 39.2236 6.28569 38.4785 8.11974L38.2636 8.58855M18.7664 7.61824C18.828 7.68843 18.8933 7.76017 18.9622 7.83317M18.7664 7.61824C19.1153 7.02122 20.1251 5.85583 21.3726 5.97046C21.1873 7.28868 22.1918 8.19138 22.7172 8.47795C23.8396 9.05109 26.5285 10.0254 28.3053 9.33766C24.9811 8.64989 23.5291 7.37943 23.2187 6.83017C22.9799 6.25703 22.9321 5.06776 24.6515 4.89582C26.3709 4.72388 26.6575 5.20627 26.5859 5.46896C26.5381 6.23315 27.3166 7.99078 30.8128 8.90781C34.4236 9.36632 35.2785 7.52272 35.2546 6.5436C35.3263 6.16151 35.3263 5.16806 34.7531 4.25104C34.6385 3.73521 35.8516 4.84806 36.4725 5.46896C36.9024 5.9841 37.3896 7.39306 35.8994 8.90781C35.4218 9.46143 34.2516 10.6462 33.3919 10.9562M38.2636 8.58855C37.3141 9.50854 35.7563 10.4446 33.3919 10.9562M38.2636 8.58855C38.554 8.30717 38.7875 8.02729 38.9698 7.76152M18.9622 7.83317C20.544 9.50918 24.0202 11.8475 28.8068 11.3437C30.593 11.3858 32.1108 11.2333 33.3919 10.9562M18.9622 7.83317V9.83916M18.9622 9.83916C20.4288 11.2481 24.8521 13.7938 30.8128 12.7049C30.359 13.2409 28.8068 14.2884 26.2276 14.1896M21.3726 12.9198C22.3779 13.4706 24.0007 14.0033 26.2276 14.1896M21.3726 12.9198L21.9741 13.7079M26.2276 14.1896C29.3097 14.4474 33.5486 14.0418 38.9084 12.1026M21.9741 13.7079C23.2009 14.2094 26.2276 15.1407 28.5202 14.8541C28.1381 15.1778 27.1017 15.8745 26.0127 16.0721C24.9238 16.2697 23.8144 15.8201 23.3959 15.5706M21.9741 13.7079L23.3959 15.5706M38.9698 7.76152L38.9084 12.1026" stroke="#98372C"/>
<path d="M19.9232 7.79363C19.7512 8.48139 22.2396 9.56081 23.5053 10.0145C22.4163 9.61335 21.762 9.08319 21.571 8.86826C21.1411 8.29512 20.2097 7.2778 19.9232 7.79363Z" fill="#F3DDD4" stroke="#F3DDD4"/>
<path d="M33.3919 6.64735C32.8904 7.29214 31.6725 7.4593 31.0277 7.50706C31.1471 7.65035 31.4719 7.93692 31.8157 7.93692C32.2456 7.93692 32.962 7.72199 33.3919 6.64735Z" fill="#F3DDD4" stroke="#F3DDD4"/>
<ellipse cx="34.0663" cy="6.1689" rx="0.358213" ry="0.28657" transform="rotate(-85.0927 34.0663 6.1689)" fill="#F3DDD4"/>
<path d="M67.757 12.7184L67.624 13.1991L71.814 12.9781L71.9488 12.5113L67.757 12.7184Z" fill="#E37F2D"/>
<path d="M87.4137 12.1551L87.3617 11.7496L71.9488 12.5113L71.814 12.9781L87.4137 12.1551Z" fill="#EBD7CD"/>
<path d="M36.7549 14.8025C37.6127 14.6531 38.2641 15.3212 38.4825 15.6739L60.5445 16.8918L62.1329 16.3903H63.7413L66.1242 15.2382C67.6969 15.5868 67.971 14.7195 67.9114 14.2422C68.0806 14.0494 68.1426 13.8341 68.1384 13.6198H67.9114L67.1965 14.2422L66.1242 14.0555L65.8859 13.184H63.7413L63.086 12.0014C62.6293 11.7939 61.7992 11.5034 62.1329 12.0014C62.4665 12.4993 61.9939 13.4538 61.7158 13.8688C61.2988 14.263 60.155 14.9145 58.9159 14.3667C58.5823 13.321 57.9032 13.433 57.6053 13.6198C57.5458 13.9518 57.1287 14.5659 55.9373 14.3667C55.1748 14.7651 55.421 13.0388 55.6394 12.1258C55.6196 11.7939 55.2939 11.3042 54.1501 12.0014C53.5782 13.6447 52.0055 13.765 51.2906 13.6198C51.0325 13.4745 50.5638 13.0845 50.7545 12.6861C50.9451 12.2877 50.3573 12.1466 50.0396 12.1258C49.4439 12.2088 48.0618 12.5367 47.2992 13.184C46.5367 13.8314 45.7901 13.4538 45.5121 13.184C45.3731 12.9143 44.9402 12.325 44.3206 12.1258C43.7011 11.9267 43.5065 12.7483 43.4866 13.184C42.9902 13.3708 41.9973 13.5326 41.9973 12.6861C42.1879 11.5407 41.4016 11.4204 40.9845 11.5034C40.6271 11.7939 39.805 12.3001 39.3761 12.0014C39.0425 11.2544 38.6413 11.1091 38.4825 11.1299L36.9932 12.3748C35.5634 13.072 34.9677 12.4993 34.8486 12.1258C34.789 12.1673 34.6103 12.3375 34.372 12.6861C34.1337 13.0346 34.8287 13.9518 35.206 14.3667C35.3649 14.5742 35.897 14.9518 36.7549 14.8025Z" fill="#B04C0F"/>
<path d="M34.9677 11.1299L34.8486 12.1258C34.9677 12.4993 35.5634 13.072 36.9932 12.3748L38.4825 11.1299C38.6413 11.1091 39.0425 11.2544 39.3761 12.0014C39.805 12.3001 40.6271 11.7939 40.9845 11.5034C41.4016 11.4204 42.1879 11.5407 41.9973 12.6861C41.9973 13.5326 42.9902 13.3708 43.4866 13.184C43.5065 12.7483 43.7011 11.9267 44.3206 12.1258C44.9402 12.325 45.3731 12.9143 45.5121 13.184C45.7901 13.4538 46.5367 13.8314 47.2992 13.184C48.0618 12.5367 49.4439 12.2088 50.0396 12.1258C50.3573 12.1466 50.9451 12.2877 50.7545 12.6861C50.5638 13.0845 51.0325 13.4745 51.2906 13.6198C52.0055 13.765 53.5782 13.6447 54.1501 12.0014C55.2939 11.3042 55.6196 11.7939 55.6394 12.1258C55.421 13.0388 55.1748 14.7651 55.9373 14.3667C57.1287 14.5659 57.5458 13.9518 57.6053 13.6198C57.9032 13.433 58.5823 13.321 58.9159 14.3667C60.155 14.9145 61.2988 14.263 61.7158 13.8688C61.9939 13.4538 62.4665 12.4993 62.1329 12.0014C61.7992 11.5034 62.6293 11.7939 63.086 12.0014L63.7413 13.184H65.8859L66.1242 14.0555L67.1965 14.2422L67.9114 13.6198H68.1384C68.1296 13.1699 67.8287 12.7242 67.6135 12.4993C67.6135 11.7524 66.6207 11.6071 66.1242 11.6279C65.7906 10.9805 64.7938 10.9017 64.337 10.9432L63.6222 10.1339C63.3839 10.2584 62.6094 10.3331 61.418 9.63598C61.2273 8.73962 60.2265 8.72302 59.7499 8.82676C59.3687 8.22919 58.5982 8.57778 58.2606 8.82676C58.1653 8.1794 57.1089 8.26654 56.5926 8.39104C56.1359 8.68152 55.0556 9.28739 54.3884 9.38699C53.7212 9.48658 52.7204 9.22099 52.3034 9.07575C51.5091 9.20025 49.6226 9.32474 48.4311 8.82676C47.0967 9.02595 46.4057 8.61927 46.2269 8.39104L42.8909 8.0798L41.5207 8.2043L40.3292 8.39104C39.9956 8.39104 39.6342 8.84751 39.4952 9.07575H38.7804L37.2315 10.2584C36.1353 9.90986 35.7024 10.4037 35.623 10.6942C35.0988 10.8436 34.9677 11.0469 34.9677 11.1299Z" fill="#EEB70B"/>
<path d="M41.1436 10.5845C40.9716 10.2949 40.5704 10.1211 40.3412 10.0052C40.7806 9.88937 41.4875 9.88937 41.4875 10.4107C41.4875 11.029 41.2009 10.7776 41.1436 10.5845Z" fill="#F6EFD5" stroke="#DAEDE7"/>
<path d="M47.1494 10.8701C46.8175 10.6005 46.1022 10.6455 45.7861 10.7016L46.3196 10.7578C46.4974 11.0386 47.019 11.5441 47.6829 11.3195C48.1097 10.96 47.9003 10.8327 47.7422 10.814C47.6829 10.8701 47.4814 10.96 47.1494 10.8701Z" fill="#F6EFD5" stroke="#EAE5DF"/>
<path d="M52.5826 11.6249C52.6335 11.2705 51.7982 10.9287 51.3741 10.8021C52.9515 10.9034 53.049 11.3506 52.9006 11.5616C52.7734 11.7304 52.5317 11.9793 52.5826 11.6249Z" fill="#F6EFD5" stroke="#EAD8E0"/>
<path d="M56.9624 10.5156C57.3753 11.0239 58.2382 11.9873 58.3869 11.7752C58.9815 11.2448 57.685 10.7145 56.9624 10.5156Z" fill="#F6EFD5" stroke="#F6EFD5"/>
<path d="M44.1142 8.93965C42.6491 9.38141 42.6767 10.3099 42.8736 10.719C42.9681 10.8662 43.2674 10.7803 43.4053 10.719C43.681 11.0053 44.2796 11.5288 44.4686 11.3325C44.6577 11.1362 43.8385 10.5144 43.4053 10.2281C43.2674 10.1463 43.2162 9.77408 44.1142 8.93965Z" fill="#98372C" stroke="#98372C"/>
<path d="M55.0388 9.71548C54.6949 10.3292 55.5096 10.6531 55.96 10.7383C55.8371 11.6333 58.2936 12.5922 57.7409 12.3365C57.2987 12.1319 56.7378 11.0153 56.5127 10.4826C56.4717 10.2269 56.3776 9.71548 56.3284 9.71548C56.267 9.71548 56.2056 9.97118 55.96 10.2269C55.7143 10.4826 55.5915 9.39584 55.0388 9.71548Z" fill="#98372C" stroke="#98372C"/>
<path d="M61.1451 12.0797C61.0649 12.1649 61.007 11.7822 60.9784 11.48C60.9681 11.3713 60.9333 11.266 60.8732 11.1747L60.7806 11.0342C60.648 10.833 60.6955 10.5634 60.8888 10.4197C61.0426 10.3054 61.2528 10.2983 61.4055 10.414C61.5351 10.5123 61.6579 10.6168 61.6857 10.6758C61.8991 11.1292 61.4886 11.7148 61.1451 12.0797Z" fill="#98372C" stroke="#98372C"/>
<path d="M64.6998 32.2949L64.4848 32.9397L69.1416 33.3796L69.3565 32.7545L64.6998 32.2949Z" fill="#E37F2D"/>
<path d="M86.4791 35.0173V34.4442L69.3565 32.7545L69.1416 33.3796L86.4791 35.0173Z" fill="#EBD7CD"/>
<path d="M65.7647 25.7902L65.6314 26.4567L70.3067 26.3158L70.4425 25.6689L65.7647 25.7902Z" fill="#E37F2D"/>
<path d="M87.7135 25.7915L87.6425 25.2227L70.4425 25.6689L70.3067 26.3158L87.7135 25.7915Z" fill="#EBD7CD"/>
<path d="M66.2035 20.3399L66.0426 21.0003L70.7198 21.0538L70.8823 20.413L66.2035 20.3399Z" fill="#E37F2D"/>
<path d="M88.1333 21.253L88.086 20.6818L70.8823 20.413L70.7198 21.0538L88.1333 21.253Z" fill="#EBD7CD"/>
<path d="M66.2035 20.3399L66.0426 21.0003L70.7198 21.0538L70.8823 20.413L66.2035 20.3399Z" fill="#E37F2D"/>
<path d="M88.1333 21.253L88.086 20.6818L70.8823 20.413L70.7198 21.0538L88.1333 21.253Z" fill="#EBD7CD"/>
<path d="M28.5919 22.1936C29.6235 22.0216 30.4068 22.7906 30.6695 23.1966L62.1922 23.0533L63.9117 22.6951C65.803 23.0963 66.1326 22.098 66.0609 21.5488C66.2644 21.3269 66.339 21.0791 66.3339 20.8324H66.0609L65.2012 21.5488L63.9117 21.3339L63.6251 20.3309H61.046L60.2579 18.9697C59.7086 18.7308 58.7104 18.3965 59.1116 18.9697C59.5128 19.5428 58.9445 20.6413 58.6101 21.1189C58.1086 21.5727 56.7331 22.3225 55.2429 21.6921C54.8417 20.4885 54.025 20.6174 53.6668 20.8324C53.5951 21.2145 53.0936 21.9213 51.6608 21.6921C50.7438 22.1506 51.0399 20.1637 51.3026 19.1129C51.2787 18.7308 50.8871 18.1673 49.5115 18.9697C48.8237 20.861 46.9324 20.9995 46.0727 20.8324C45.7622 20.6652 45.1986 20.2162 45.4279 19.7577C45.6571 19.2992 44.9503 19.1368 44.5682 19.1129C43.8518 19.2085 42.1896 19.5858 41.2726 20.3309C40.3556 21.0759 39.4577 20.6413 39.1233 20.3309C38.9562 20.0204 38.4356 19.3422 37.6905 19.1129C36.9454 18.8837 36.7114 19.8294 36.6875 20.3309C36.0905 20.5458 34.8964 20.7321 34.8964 19.7577C35.1257 18.4395 34.18 18.301 33.6785 18.3965C33.2487 18.7308 32.26 19.3135 31.7442 18.9697C31.343 18.1099 30.8606 17.9428 30.6695 17.9667L28.8785 19.3995C27.159 20.2019 26.4426 19.5428 26.2993 19.1129C26.2277 19.1607 26.0128 19.3565 25.7262 19.7577C25.4396 20.1589 26.2754 21.2145 26.7292 21.6921C26.9202 21.9309 27.5602 22.3655 28.5919 22.1936Z" fill="#B04C0F"/>
<path d="M26.4426 17.9667L26.2993 19.1129C26.4426 19.5428 27.159 20.2019 28.8785 19.3995L30.6695 17.9667C30.8606 17.9428 31.343 18.1099 31.7442 18.9697C32.26 19.3135 33.2487 18.7308 33.6785 18.3965C34.18 18.301 35.1257 18.4395 34.8964 19.7577C34.8964 20.7321 36.0905 20.5458 36.6875 20.3309C36.7114 19.8294 36.9454 18.8837 37.6905 19.1129C38.4356 19.3422 38.9562 20.0204 39.1233 20.3309C39.4577 20.6413 40.3556 21.0759 41.2726 20.3309C42.1896 19.5858 43.8518 19.2085 44.5682 19.1129C44.9503 19.1368 45.6571 19.2992 45.4279 19.7577C45.1986 20.2162 45.7622 20.6652 46.0727 20.8324C46.9324 20.9995 48.8237 20.861 49.5115 18.9697C50.8871 18.1673 51.2787 18.7308 51.3026 19.1129C51.0399 20.1637 50.7438 22.1506 51.6608 21.6921C53.0936 21.9213 53.5951 21.2145 53.6668 20.8324C54.025 20.6174 54.8417 20.4885 55.2429 21.6921C56.7331 22.3225 58.1086 21.5727 58.6101 21.1189C58.9445 20.6413 59.5128 19.5428 59.1116 18.9697C58.7104 18.3965 59.7086 18.7308 60.2579 18.9697L61.046 20.3309H63.6251L63.9117 21.3339L65.2012 21.5488L66.0609 20.8324H66.3339C66.3233 20.3146 65.9615 19.8016 65.7027 19.5428C65.7027 18.6831 64.5087 18.5159 63.9117 18.5398C63.5105 17.7947 62.3116 17.704 61.7624 17.7517L60.9027 16.8204C60.6161 16.9637 59.6848 17.0496 58.2519 16.2472C58.0226 15.2156 56.8191 15.1965 56.2459 15.3159C55.7874 14.6281 54.8608 15.0293 54.4548 15.3159C54.3402 14.5708 53.0698 14.6711 52.4489 14.8144C51.8996 15.1487 50.6005 15.846 49.7981 15.9607C48.9957 16.0753 47.7921 15.7696 47.2906 15.6025C46.3354 15.7457 44.0667 15.889 42.6338 15.3159C41.029 15.5451 40.198 15.0771 39.9831 14.8144L35.9711 14.4562L34.3233 14.5995L32.8904 14.8144C32.4892 14.8144 32.0546 15.3398 31.8874 15.6025H31.0277L29.165 16.9637C27.8468 16.5625 27.3262 17.1308 27.2307 17.4652C26.6002 17.6371 26.4426 17.8711 26.4426 17.9667Z" fill="#EEB70B"/>
<path d="M33.8934 17.3218C33.6784 16.9636 33.177 16.7487 32.8904 16.6054C33.4396 16.4621 34.3232 16.4621 34.3232 17.1069C34.3232 17.8716 33.965 17.5606 33.8934 17.3218Z" fill="#F6EFD5" stroke="#DAEDE7"/>
<path d="M41.1293 17.6799C40.7281 17.336 39.8637 17.3933 39.4816 17.465L40.1264 17.5366C40.3413 17.8948 40.9717 18.5396 41.7741 18.253C42.29 17.7945 42.0368 17.6321 41.8458 17.6083C41.7741 17.6799 41.5305 17.7945 41.1293 17.6799Z" fill="#F6EFD5" stroke="#EAE5DF"/>
<path d="M47.5772 18.4679C47.6345 18.0667 46.6936 17.6799 46.216 17.5366C47.9927 17.6512 48.1026 18.1575 47.9354 18.3963C47.7921 18.5873 47.5199 18.8691 47.5772 18.4679Z" fill="#F6EFD5" stroke="#EAD8E0"/>
<path d="M52.9504 17.3219C53.428 17.8712 54.4262 18.9124 54.5982 18.6831C55.2859 18.11 53.7862 17.5368 52.9504 17.3219Z" fill="#F6EFD5" stroke="#F6EFD5"/>
<path d="M37.4039 15.3873C35.6272 15.9031 35.6606 16.9873 35.8994 17.4649C36.014 17.6368 36.377 17.5365 36.5442 17.4649C36.8785 17.7992 37.6045 18.4106 37.8338 18.1813C38.063 17.9521 37.0696 17.2261 36.5442 16.8918C36.377 16.7962 36.3149 16.3616 37.4039 15.3873Z" fill="#98372C" stroke="#98372C"/>
<path d="M50.6578 16.3906C50.2566 17.0783 51.2071 17.4413 51.7324 17.5368C51.5892 18.5398 54.4549 19.6145 53.8101 19.3279C53.2942 19.0986 52.6399 17.8473 52.3772 17.2503C52.3295 16.9637 52.2196 16.3906 52.1623 16.3906C52.0907 16.3906 52.019 16.6771 51.7324 16.9637C51.4459 17.2503 51.3026 16.0323 50.6578 16.3906Z" fill="#98372C" stroke="#98372C"/>
<path d="M57.8937 19.0412C57.7983 19.1366 57.7293 18.7089 57.6951 18.3701C57.6827 18.2468 57.6412 18.1278 57.5702 18.0263L57.479 17.8961C57.3124 17.6581 57.3703 17.3299 57.6084 17.1633C57.7814 17.0422 58.0111 17.0347 58.1836 17.1565C58.3456 17.2709 58.5039 17.3958 58.5385 17.465C58.5401 17.4684 58.5414 17.4719 58.5424 17.4757C58.681 18.0236 58.2933 18.6416 57.8937 19.0412Z" fill="#98372C" stroke="#98372C"/>
<path d="M27.8141 28.9336C28.9046 28.7504 29.7325 29.5698 30.0102 30.0024L63.3305 29.8497L65.148 29.468C67.1472 29.8955 67.4956 28.8318 67.4198 28.2466C67.6349 28.0101 67.7138 27.746 67.7084 27.4831H67.4198L66.5111 28.2466L65.148 28.0175L64.8451 26.9488H62.1189L61.2859 25.4983C60.7053 25.2438 59.6502 24.8876 60.0742 25.4983C60.4983 26.109 59.8975 27.2796 59.5441 27.7885C59.014 28.272 57.5601 29.071 55.9849 28.3992C55.5608 27.1167 54.6975 27.2541 54.3189 27.4831C54.2432 27.8903 53.7131 28.6435 52.1985 28.3992C51.2292 28.8878 51.5422 26.7706 51.8199 25.651C51.7946 25.2438 51.3807 24.6433 49.9267 25.4983C49.1997 27.5137 47.2005 27.6613 46.2917 27.4831C45.9636 27.305 45.3678 26.8266 45.6102 26.338C45.8525 25.8494 45.1053 25.6764 44.7014 25.651C43.9442 25.7528 42.1873 26.1548 41.218 26.9488C40.2486 27.7427 39.2995 27.2796 38.9461 26.9488C38.7694 26.618 38.2191 25.8953 37.4316 25.651C36.644 25.4067 36.3966 26.4144 36.3714 26.9488C35.7403 27.1778 34.4782 27.3763 34.4782 26.338C34.7205 24.9334 33.7209 24.7858 33.1908 24.8876C32.7364 25.2438 31.6914 25.8647 31.1461 25.4983C30.7221 24.5822 30.2121 24.4041 30.0102 24.4295L28.117 25.9563C26.2995 26.8114 25.5423 26.109 25.3908 25.651C25.3151 25.7019 25.0879 25.9105 24.785 26.338C24.4821 26.7655 25.3656 27.8903 25.8452 28.3992C26.0471 28.6537 26.7236 29.1168 27.8141 28.9336Z" fill="#B04C0F"/>
<path d="M25.5423 24.4295L25.3908 25.651C25.5423 26.109 26.2995 26.8114 28.117 25.9563L30.0102 24.4295C30.2121 24.4041 30.7221 24.5822 31.1461 25.4983C31.6914 25.8647 32.7364 25.2438 33.1908 24.8876C33.7209 24.7858 34.7205 24.9334 34.4782 26.338C34.4782 27.3763 35.7403 27.1778 36.3714 26.9488C36.3966 26.4144 36.644 25.4067 37.4316 25.651C38.2191 25.8953 38.7694 26.618 38.9461 26.9488C39.2995 27.2796 40.2486 27.7427 41.218 26.9488C42.1873 26.1548 43.9442 25.7528 44.7014 25.651C45.1053 25.6764 45.8525 25.8494 45.6102 26.338C45.3678 26.8266 45.9636 27.305 46.2917 27.4831C47.2005 27.6613 49.1997 27.5137 49.9267 25.4983C51.3807 24.6433 51.7946 25.2438 51.8199 25.651C51.5422 26.7706 51.2292 28.8878 52.1985 28.3992C53.7131 28.6435 54.2432 27.8903 54.3189 27.4831C54.6975 27.2541 55.5608 27.1167 55.9849 28.3992C57.5601 29.071 59.014 28.272 59.5441 27.7885C59.8975 27.2796 60.4983 26.109 60.0742 25.4983C59.6502 24.8876 60.7053 25.2438 61.2859 25.4983L62.1189 26.9488H64.8451L65.148 28.0175L66.5111 28.2466L67.4198 27.4831H67.7084C67.6972 26.9314 67.3148 26.3848 67.0412 26.109C67.0412 25.1929 65.7791 25.0148 65.148 25.0403C64.7239 24.2463 63.4567 24.1496 62.8762 24.2005L61.9674 23.2081C61.6645 23.3608 60.6801 23.4524 59.1655 22.5974C58.9232 21.4981 57.6509 21.4777 57.0451 21.6049C56.5605 20.8721 55.581 21.2996 55.1519 21.6049C55.0307 20.811 53.6878 20.9179 53.0315 21.0705C52.4509 21.4268 51.0777 22.1698 50.2296 22.292C49.3814 22.4141 48.1092 22.0884 47.5791 21.9103C46.5694 22.063 44.1713 22.2157 42.6568 21.6049C40.9605 21.8492 40.082 21.3505 39.8549 21.0705L35.6141 20.6888L33.8723 20.8415L32.3578 21.0705C31.9337 21.0705 31.4743 21.6304 31.2976 21.9103H30.3888L28.4199 23.3608C27.0265 22.9332 26.4762 23.5389 26.3753 23.8951C25.7089 24.0784 25.5423 24.3277 25.5423 24.4295Z" fill="#EEB70B"/>
<path d="M33.4206 23.6937C33.1841 23.3075 32.6325 23.0758 32.3173 22.9213C32.9214 22.7668 33.8934 22.7668 33.8934 23.462C33.8934 24.2864 33.4994 23.9511 33.4206 23.6937Z" fill="#F6EFD5" stroke="#DAEDE7"/>
<path d="M41.0652 24.137C40.6447 23.7595 39.7387 23.8224 39.3382 23.9011L40.014 23.9797C40.2392 24.3728 40.9 25.0805 41.7409 24.766C42.2815 24.2628 42.0162 24.0845 41.816 24.0583C41.7409 24.1369 41.4856 24.2628 41.0652 24.137Z" fill="#F6EFD5" stroke="#EAE5DF"/>
<path d="M47.9307 24.9251C47.9908 24.52 47.0036 24.1295 46.5025 23.9848C48.3667 24.1005 48.4819 24.6117 48.3065 24.8528C48.1562 25.0457 47.8705 25.3302 47.9307 24.9251Z" fill="#F6EFD5" stroke="#EAD8E0"/>
<path d="M53.5235 23.698C54.049 24.3192 55.1473 25.4967 55.3364 25.2374C56.0932 24.5892 54.4431 23.9411 53.5235 23.698Z" fill="#F6EFD5" stroke="#F6EFD5"/>
<path d="M37.141 21.6921C35.3097 22.2378 35.3441 23.3848 35.5903 23.8901C35.7084 24.072 36.0826 23.9658 36.2549 23.8901C36.5995 24.2437 37.3478 24.8905 37.5841 24.648C37.8204 24.4054 36.7964 23.6374 36.2549 23.2837C36.0826 23.1827 36.0186 22.7229 37.141 21.6921Z" fill="#98372C" stroke="#98372C"/>
<path d="M51.1866 22.7669C50.7739 23.5098 51.7516 23.9019 52.292 24.0051C52.1446 25.0885 55.0924 26.2493 54.4291 25.9397C53.8985 25.6921 53.2255 24.3404 52.9552 23.6956C52.9061 23.386 52.7931 22.7669 52.7342 22.7669C52.6605 22.7669 52.5868 23.0765 52.292 23.386C51.9972 23.6956 51.8498 22.38 51.1866 22.7669Z" fill="#98372C" stroke="#98372C"/>
<path d="M58.7912 25.5465C58.6816 25.6442 58.6024 25.2088 58.5628 24.8613C58.548 24.7321 58.5006 24.6084 58.4203 24.5061L58.3583 24.4271C58.1484 24.1599 58.2169 23.7696 58.5052 23.5897C58.6816 23.4796 58.9048 23.4727 59.0817 23.5822C59.2829 23.7067 59.4915 23.8499 59.5345 23.9266C59.5413 23.9387 59.5429 23.9541 59.5401 23.972C59.4502 24.5457 59.2246 25.1601 58.7912 25.5465Z" fill="#98372C" stroke="#98372C"/>
<path d="M30.2172 35.2384C31.195 35.0552 31.9374 35.8746 32.1863 36.3072L62.0636 36.1545L63.6932 35.7728C65.4859 36.2003 65.7982 35.1366 65.7303 34.5513C65.9231 34.3149 65.9225 34.0508 65.9177 33.788H65.6589L64.8441 34.5514L63.6218 34.3223L63.3502 33.2536H60.9057L60.1588 31.8031C59.6382 31.5486 58.6921 31.1924 59.0723 31.8031C59.4526 32.4138 58.9139 33.5844 58.597 34.0933C58.1217 34.5768 56.818 35.3758 55.4056 34.704C55.0253 33.4215 54.2512 33.5589 53.9117 33.788C53.8438 34.1951 53.3685 34.9483 52.0105 34.704C51.1413 35.1926 51.422 33.0754 51.6709 31.9558C51.6483 31.5486 51.2771 30.9481 49.9734 31.8031C49.3215 33.8185 47.5289 33.9661 46.714 33.788C46.4198 33.6098 45.8856 33.1314 46.1029 32.6428C46.3202 32.1543 45.6502 31.9812 45.2881 31.9558C44.609 32.0576 43.0337 32.4596 42.1645 33.2536C41.2954 34.0475 40.4443 33.5844 40.1275 33.2536C39.969 32.9228 39.4756 32.2001 38.7694 31.9558C38.0632 31.7115 37.8414 32.7192 37.8188 33.2536C37.2529 33.4826 36.1212 33.6811 36.1212 32.6428C36.3385 31.2382 35.4422 31.0906 34.9669 31.1924C34.5594 31.5486 33.6224 32.1695 33.1335 31.8031C32.7532 30.887 32.296 30.7089 32.1149 30.7343L30.4174 32.2611C28.7877 33.1162 28.1087 32.4138 27.9729 31.9558C27.905 32.0067 27.7727 32.2153 27.5011 32.6428C27.2294 33.0703 28.0216 34.1951 28.4517 34.704C28.6328 34.9585 29.2394 35.4216 30.2172 35.2384Z" fill="#B04C0F"/>
<path d="M28.1087 30.7343L27.9729 31.9558C28.1087 32.4138 28.7877 33.1162 30.4174 32.2611L32.1149 30.7343C32.296 30.7089 32.7532 30.887 33.1335 31.8031C33.6224 32.1695 34.5594 31.5486 34.9669 31.1924C35.4422 31.0906 36.3385 31.2382 36.1212 32.6428C36.1212 33.6811 37.2529 33.4826 37.8188 33.2536C37.8414 32.7192 38.0632 31.7115 38.7694 31.9558C39.4756 32.2001 39.969 32.9228 40.1275 33.2536C40.4443 33.5844 41.2954 34.0475 42.1645 33.2536C43.0337 32.4596 44.609 32.0576 45.2881 31.9558C45.6502 31.9812 46.3202 32.1543 46.1029 32.6428C45.8856 33.1314 46.4198 33.6098 46.714 33.788C47.5289 33.9661 49.3215 33.8185 49.9734 31.8031C51.2771 30.9481 51.6483 31.5486 51.6709 31.9558C51.422 33.0754 51.1413 35.1926 52.0105 34.704C53.3685 34.9483 53.8438 34.1951 53.9117 33.788C54.2512 33.5589 55.0253 33.4215 55.4056 34.704C56.818 35.3758 58.1217 34.5768 58.597 34.0933C58.9139 33.5844 59.4526 32.4138 59.0723 31.8031C58.6921 31.1924 59.6382 31.5486 60.1588 31.8031L60.9057 33.2536H63.3502L63.6218 34.3223L64.8441 34.5514L65.6589 33.788H65.9177C65.9076 33.2362 65.5647 32.6896 65.3194 32.4138C65.3194 31.4977 64.1877 31.3196 63.6218 31.3451C63.2416 30.5511 62.1053 30.4544 61.5847 30.5053L60.7699 29.5129C60.4983 29.6656 59.6156 29.7572 58.2575 28.9022C58.0402 27.8029 56.8995 27.7825 56.3562 27.9097C55.9217 27.1769 55.0434 27.6044 54.6587 27.9097C54.55 27.1158 53.3459 27.2227 52.7574 27.3754C52.2368 27.7316 51.0055 28.4747 50.245 28.5968C49.4845 28.7189 48.3437 28.3932 47.8684 28.2151C46.963 28.3678 44.8128 28.5205 43.4547 27.9097C41.9337 28.154 41.146 27.6553 40.9423 27.3754L37.1397 26.9937L35.578 27.1463L34.2199 27.3754C33.8397 27.3754 33.4277 27.9352 33.2693 28.2151H32.4544L30.689 29.6656C29.4396 29.2381 28.9461 29.8437 28.8556 30.1999C28.2581 30.3832 28.1087 30.6325 28.1087 30.7343Z" fill="#EEB70B"/>
<path d="M35.226 29.5683C35.0326 29.1821 34.5812 28.9504 34.3233 28.7959C34.8177 28.6414 35.6129 28.6414 35.6129 29.3366C35.6129 30.161 35.2905 29.8257 35.226 29.5683Z" fill="#F6EFD5" stroke="#DAEDE7"/>
<path d="M42.0297 30.0116C41.6535 29.6341 40.8429 29.697 40.4846 29.7757L41.0892 29.8543C41.2908 30.2475 41.8819 30.9552 42.6344 30.6406C43.1181 30.1374 42.8807 29.9591 42.7015 29.9329C42.6344 30.0116 42.406 30.1374 42.0297 30.0116Z" fill="#F6EFD5" stroke="#EAE5DF"/>
<path d="M48.2508 30.7997C48.3063 30.3947 47.395 30.0041 46.9324 29.8594C48.6532 29.9751 48.7596 30.4863 48.5977 30.7274C48.4589 30.9203 48.1952 31.2048 48.2508 30.7997Z" fill="#F6EFD5" stroke="#EAD8E0"/>
<path d="M53.2369 29.5726C53.7249 30.1938 54.7448 31.3713 54.9204 31.112C55.6231 30.4638 54.0909 29.8157 53.2369 29.5726Z" fill="#F6EFD5" stroke="#F6EFD5"/>
<path d="M38.6057 27.5667C36.8965 28.1124 36.9286 29.2594 37.1584 29.7646C37.2686 29.9465 37.6178 29.8404 37.7787 29.7646C38.1003 30.1183 38.7987 30.7651 39.0192 30.5226C39.2398 30.28 38.2841 29.512 37.7787 29.1583C37.6178 29.0573 37.5581 28.5974 38.6057 27.5667Z" fill="#98372C" stroke="#98372C"/>
<path d="M51.1783 28.6415C50.8 29.3844 51.6962 29.7765 52.1916 29.8797C52.0565 30.9631 54.7586 32.1239 54.1507 31.8143C53.6643 31.5667 53.0473 30.215 52.7996 29.5702C52.7546 29.2606 52.651 28.6415 52.597 28.6415C52.5294 28.6415 52.4618 28.9511 52.1916 29.2606C51.9214 29.5702 51.7863 28.2546 51.1783 28.6415Z" fill="#98372C" stroke="#98372C"/>
<path d="M57.9997 31.4214C57.8998 31.5194 57.8275 31.0805 57.7917 30.7324C57.7786 30.6052 57.7352 30.4828 57.6609 30.3788L57.5721 30.2542C57.3945 30.0055 57.4556 29.6596 57.7075 29.4867C57.8852 29.3647 58.1192 29.3571 58.2967 29.4796C58.4688 29.5985 58.6387 29.7294 58.6755 29.8015C58.678 29.8064 58.6797 29.8118 58.6807 29.8177C58.7777 30.3904 58.4144 31.0148 57.9997 31.4214Z" fill="#98372C" stroke="#98372C"/>
<path d="M29.9809 33.819C29.4651 33.9909 28.9062 33.413 28.6913 33.1025C28.3474 33.5037 28.9779 34.0339 29.3361 34.2488C29.0495 35.1658 30.4107 35.9682 31.1272 36.2548C31.1272 36.7133 31.8914 36.9712 32.2734 37.0429C32.6555 36.8518 33.4627 36.5557 33.6347 36.8996C33.8066 37.2435 34.566 37.2817 34.9242 37.2578L35.7839 36.7563H36.9302L37.7183 36.2548C38.0765 36.422 38.8932 36.742 39.2944 36.6847C39.6956 36.6273 40.6795 36.6369 41.0138 36.2548C41.1571 36.4936 41.3864 36.1258 42.0168 35.8966C42.59 36.5414 43.6646 36.7563 43.9951 36.5414L44.4527 36.0399C44.7392 36.4984 46.2399 36.3264 47.0041 36.2548C47.5533 36.5891 48.9088 36.8709 50.399 36.1832C50.8575 36.1832 51.211 36.6608 51.3304 36.8996C51.8319 37.21 53.0498 37.6733 53.9095 37.0429C54.2534 37.2721 55.5334 37.425 56.1304 37.4727L58.1364 36.5414C58.5663 36.6608 59.5406 36.8709 59.9991 36.7563C60.4576 36.6417 60.8588 36.1354 61.0021 35.8966H63.0081C63.8678 35.4381 64.3693 34.3682 64.5126 33.8906L63.223 34.0339L62.435 33.6757C62.3394 33.6757 61.9621 33.8333 61.217 34.4637C60.8158 34.3491 60.4767 34.1294 60.3573 34.0339C60.1185 33.7951 59.34 33.6184 58.1364 34.822C57.5633 35.2231 57.1334 34.8458 56.9901 34.607C56.8468 34.2488 56.417 33.561 55.8438 33.6757C55.2707 33.7903 55.2229 34.6309 55.2707 35.0369C55.2229 35.3473 55.0128 35.9252 54.5543 35.7533C54.0958 35.5814 53.7901 35.204 53.6946 35.0369C53.4319 34.8936 52.7775 34.693 52.2617 35.0369C51.4736 35.1085 51.3304 34.822 51.1871 34.607C51.0438 34.3921 50.9721 33.4607 50.2557 33.8906C49.8545 34.3491 49.4199 34.1772 49.2527 34.0339C49.205 33.8428 48.9662 33.4321 48.393 33.3175C47.8199 33.2028 47.6766 34.1294 47.6766 34.607C46.473 33.4034 45.0258 33.1503 44.4527 33.1742C44.3954 31.5694 43.7124 31.3592 43.378 31.4548C43.1392 31.5503 42.6473 32.0279 42.59 33.1742C41.9595 34.0912 41.2765 34.1294 41.0138 34.0339C40.775 33.9145 40.2401 33.6757 40.0108 33.6757C39.7816 33.6757 38.9123 34.2966 38.5063 34.607C38.0765 34.7981 37.1451 35.0226 36.8586 34.3921C37.0878 33.5897 36.6198 33.4369 36.3571 33.4607C36.0944 33.4369 35.569 33.6757 35.569 34.822C35.0532 35.6243 34.3033 35.2518 33.9929 34.9652C33.9212 34.5831 33.7063 33.9049 33.4197 34.2488C33.1332 34.5927 33.5391 35.013 33.7779 35.1802C33.7302 35.5384 33.4627 36.1975 32.7749 35.9682C31.9152 35.6817 32.6317 35.3235 32.0585 35.1802C31.6 35.0655 31.1033 35.1324 30.9122 35.1802C30.9361 34.7264 30.7833 33.819 29.9809 33.819Z" fill="#B04C0F"/>
<path d="M28.6913 33.1025C28.9062 33.413 29.4651 33.9909 29.9809 33.819C30.7833 33.819 30.9361 34.7264 30.9122 35.1802C31.1033 35.1324 31.6 35.0655 32.0585 35.1802C32.6317 35.3235 31.9152 35.6817 32.7749 35.9682C33.4627 36.1975 33.7302 35.5384 33.7779 35.1802C33.5391 35.013 33.1332 34.5927 33.4197 34.2488C33.7063 33.9049 33.9212 34.5831 33.9929 34.9652C34.3033 35.2518 35.0532 35.6243 35.569 34.822C35.569 33.6757 36.0944 33.4369 36.3571 33.4607C36.6198 33.4369 37.0878 33.5897 36.8586 34.3921C37.1451 35.0226 38.0765 34.7981 38.5063 34.607C38.9123 34.2966 39.7816 33.6757 40.0108 33.6757C40.2401 33.6757 40.775 33.9145 41.0138 34.0339C41.2765 34.1294 41.9595 34.0912 42.59 33.1742C42.6473 32.0279 43.1392 31.5503 43.378 31.4548C43.7124 31.3592 44.3954 31.5694 44.4527 33.1742C45.0258 33.1503 46.473 33.4034 47.6766 34.607C47.6766 34.1294 47.8199 33.2028 48.393 33.3175C48.9662 33.4321 49.205 33.8428 49.2527 34.0339C49.4199 34.1772 49.8545 34.3491 50.2557 33.8906C50.9721 33.4607 51.0438 34.3921 51.1871 34.607C51.3304 34.822 51.4736 35.1085 52.2617 35.0369C52.7775 34.693 53.4319 34.8936 53.6946 35.0369C53.7901 35.204 54.0958 35.5814 54.5543 35.7533C55.0128 35.9252 55.2229 35.3473 55.2707 35.0369C55.2229 34.6309 55.2707 33.7903 55.8438 33.6757C56.417 33.561 56.8468 34.2488 56.9901 34.607C57.1334 34.8458 57.5633 35.2231 58.1364 34.822C59.34 33.6184 60.1185 33.7951 60.3573 34.0339C60.4767 34.1294 60.8158 34.3491 61.217 34.4637C61.9621 33.8333 62.3394 33.6757 62.435 33.6757L63.223 34.0339L64.5126 33.8906C64.3693 34.3682 63.8678 35.4381 63.0081 35.8966H61.0021C60.8588 36.1354 60.4576 36.6417 59.9991 36.7563C59.5406 36.8709 58.5663 36.6608 58.1364 36.5414L56.1304 37.4727C55.5334 37.425 54.2534 37.2721 53.9095 37.0429C53.0498 37.6733 51.8319 37.21 51.3304 36.8996C51.211 36.6608 50.8575 36.1832 50.399 36.1832C48.9088 36.8709 47.5533 36.5891 47.0041 36.2548C46.2399 36.3264 44.7392 36.4984 44.4527 36.0399L43.9951 36.5414C43.6646 36.7563 42.59 36.5414 42.0168 35.8966C41.3864 36.1258 41.1571 36.4936 41.0138 36.2548C40.6795 36.6369 39.6956 36.6273 39.2944 36.6847C38.8932 36.742 38.0765 36.422 37.7183 36.2548L36.9302 36.7563H35.7839L34.9242 37.2578C34.566 37.2817 33.8066 37.2435 33.6347 36.8996C33.4627 36.5557 32.6555 36.8518 32.2734 37.0429C31.8914 36.9712 31.1272 36.7133 31.1272 36.2548C30.4107 35.9682 29.0495 35.1658 29.3361 34.2488C28.9779 34.0339 28.3474 33.5037 28.6913 33.1025ZM28.6913 33.1025C28.763 32.9592 28.9922 32.7157 29.3361 32.8876" stroke="#B74124"/>
</svg>
