<svg width="87" height="55" viewBox="0 0 87 55" fill="none" xmlns="http://www.w3.org/2000/svg">
<path d="M9.91476 11.2189C4.72885 15.335 -3.03007 26.8334 7.42153 39.8987C11.7745 44.2844 21.2417 50.3354 34.2842 52.3871C33.9827 52.1197 33.7234 51.8039 33.5505 51.5498C33.0994 51.1638 32.8143 50.8064 32.6562 50.4789C30.3946 50.5371 25.5523 50.0163 24.2757 47.467C22.9992 44.9176 22.0817 43.8156 21.7825 43.5832C20.9182 42.9857 19.1497 41.4721 18.9901 40.1974C18.8305 38.9228 17.062 37.549 16.1977 37.0215C11.3309 34.0824 12.1624 28.7525 13.1865 26.455C13.2662 26.1493 13.3664 25.8502 13.4837 25.5588C14.0858 24.0633 15.139 22.7718 16.1977 21.8453C15.965 21.1247 15.9783 19.6237 17.8931 19.3847C18.3252 19.3183 19.2494 19.0262 19.4887 18.3888C19.7879 17.6918 20.845 16.3972 22.6801 16.7955C23.1432 16.8961 23.5399 16.9564 23.8768 16.9878C22.3609 15.867 22.9128 13.6707 23.3782 12.7126C23.2891 12.4978 23.1864 12.2008 23.1249 11.916C23.0256 11.4564 23.0334 11.0286 23.3782 11.0286C23.9366 11.0286 23.9433 10.0269 23.8768 9.52599C23.8436 9.06127 24.0164 8.11192 24.9738 8.03225C25.9312 7.95258 26.1041 6.93684 26.0708 6.43893C26.5495 4.36761 28.7303 4.44728 29.7608 4.74602C30.1597 5.17755 31.3352 5.88127 32.8458 5.24394C34.3564 4.60661 37.5353 6.15586 38.9359 7.01015C39.4209 6.53726 40.0708 6.07145 40.9305 5.64227C41.4956 5.50949 43.1644 5.40327 45.3185 6.0406C45.8308 5.98743 46.5053 6.00315 47.2134 6.15196C48.8949 6.50531 50.7659 7.60908 51.1028 10.3226L51.1594 11.0286L51.5017 15.3018C52.0602 14.9831 52.3993 13.7748 52.499 13.2105C52.4192 10.9799 54.1279 10.3558 54.9923 10.3226C55.2914 10.5218 56.2289 10.6413 57.5852 9.52599C58.9415 8.41066 60.6768 9.39321 61.3749 10.0239C61.8245 10.3708 62.4827 11.074 62.7562 11.916C62.9276 12.4436 62.948 13.0257 62.6714 13.6089C61.9533 15.1225 61.0425 14.5051 60.6768 14.0072C60.5438 13.6089 60.0186 12.852 58.9814 13.0114C57.9442 13.1707 57.9509 14.6047 58.0839 15.3018C58.1445 15.3624 58.2112 15.4257 58.2833 15.4908C59.2381 16.3523 61.1366 17.5083 62.4719 16.3972C63.908 15.2022 64.2006 16.6295 64.1673 17.4926C63.8482 18.6876 64.6327 19.5174 65.0649 19.783C65.7933 19.9556 66.8252 20.1813 67.8837 20.3805C68.4464 20.4864 69.0165 20.5848 69.5527 20.6638C70.724 20.8364 71.7328 20.9162 72.1456 20.7788C73.3424 20.3805 76.0351 23.0692 74.7386 24.1646C74.6389 25.0941 74.6788 27.0326 75.6362 27.3513C76.8329 27.7496 76.2917 32.4323 74.7386 32.481C74.8733 32.5071 75.0065 32.5322 75.1375 32.5562C75.7854 32.675 76.3785 32.7672 76.8329 32.8283C80.0242 34.0233 78.8275 34.1229 78.628 36.712C78.6161 36.8667 78.5871 37.016 78.5429 37.16C77.6612 40.9805 73.3621 41.5493 71.2481 41.3396C68.8213 42.8842 63.4493 45.8537 61.3749 45.3757C59.3005 44.8977 58.4495 46.0878 58.2833 46.7426C56.7183 47.6147 53.2507 49.1399 51.9007 48.2636C50.5506 47.3873 48.1468 47.5665 47.1137 47.7657C45.3185 49.5355 41.2297 52.8497 39.2351 51.9482C37.2405 51.0466 36.3429 52.0397 36.1435 52.6489C44.8164 53.7279 54.9625 53.0134 66.1619 48.9607C76.2678 45.6081 93.4478 34.322 81.3207 15.9989C71.3146 6.30615 43.0248 -8.21964 9.91476 11.2189Z" fill="#D4CAC0"/>
<path fill-rule="evenodd" clip-rule="evenodd" d="M62.3722 52.944C71.4475 50.2885 89.0397 41.0339 86.8058 25.26C86.141 20.9448 81.0814 10.721 66.1619 4.34768C59.2474 1.79173 42.2469 -2.32435 29.5614 1.65895C24.6746 2.5552 12.8268 6.43894 4.52938 14.8039C0.27428 19.4179 -4.7853 31.713 9.01719 43.9816C16.4304 49.5914 37.4799 59.2376 62.3722 52.944ZM7.42153 39.8987C-3.03007 26.8334 4.72885 15.335 9.91476 11.2189C43.0248 -8.21964 71.3146 6.30615 81.3207 15.9989C93.4478 34.322 76.2678 45.6081 66.1619 48.9607C54.9625 53.0134 44.8164 53.7279 36.1435 52.6489C35.5702 53.2232 34.8522 52.8909 34.2842 52.3871C21.2417 50.3354 11.7745 44.2844 7.42153 39.8987Z" fill="#CDB0A8"/>
<path d="M34.3484 48.0645C33.0973 47.886 31.3099 47.4597 29.7608 46.7426C29.7608 47.9103 27.5668 47.8653 27.467 47.467C27.3873 47.1483 26.9808 47.0686 26.7875 47.0686C25.8173 46.8031 23.8968 46.033 23.9765 45.077C23.9989 44.8092 23.9957 44.5612 23.9765 44.3378C23.9274 43.7637 23.7731 43.3522 23.6773 43.1849C21.7626 42.3882 21.4833 38.744 21.583 37.0215C13.8057 33.7148 12.3365 29.7126 13.1865 26.455C12.1624 28.7525 11.3309 34.0824 16.1977 37.0215C17.062 37.549 18.8305 38.9228 18.9901 40.1974C19.1497 41.4721 20.9182 42.9857 21.7825 43.5832C22.0817 43.8156 22.9992 44.9176 24.2757 47.467C25.5523 50.0163 30.3946 50.5371 32.6562 50.4789C32.362 49.869 32.5086 49.3625 32.8458 48.967C33.2244 48.5229 33.8432 48.2186 34.3484 48.0645Z" fill="#CA9E95"/>
<path d="M49.0085 45.3757L47.1137 47.7657C48.1468 47.5665 50.5506 47.3873 51.9007 48.2636C53.2507 49.1399 56.7183 47.6147 58.2833 46.7426C58.4495 46.0878 59.3005 44.8977 61.3749 45.3757C63.4493 45.8537 68.8213 42.8842 71.2481 41.3396C69.0804 41.9742 65.9343 42.6251 63.9679 42.9857C60.4574 44.8977 57.3857 42.5157 56.2887 41.0857C56.1454 41.3371 55.9508 41.492 55.6904 41.492C54.3939 41.492 55.2914 42.687 55.6904 42.687C56.0893 42.687 57.8844 43.5832 56.5879 45.3757C56.1343 46.0029 55.3016 46.2684 54.3939 46.286C52.7074 46.3186 50.7615 45.4954 50.5044 44.5459C50.0258 44.9485 49.4548 45.2272 49.0085 45.3757Z" fill="#CA9E95"/>
<path d="M73.6416 40.1974C73.6732 40.5132 72.6716 40.9229 71.2481 41.3396C73.3621 41.5493 77.6612 40.9805 78.5429 37.16C77.9951 38.9453 75.1181 39.921 73.6416 40.1974Z" fill="#CA9E95"/>
<path d="M20.2866 33.5254C17.3346 33.0474 14.5214 28.0152 13.4837 25.5588C13.3664 25.8502 13.2662 26.1493 13.1865 26.455C12.3365 29.7126 13.8057 33.7148 21.583 37.0215C21.8103 37.1181 22.043 37.2141 22.2811 37.3095C22.5957 37.3359 22.9299 37.3536 23.2784 37.3606C26.4057 37.4238 30.6873 36.6309 32.254 33.5785C32.4202 33.2548 32.5558 32.9057 32.6562 32.5296C32.822 31.9088 32.8921 31.2142 32.8458 30.4383C32.5214 31.952 30.5663 32.6623 29.6293 32.8283C29.2362 33.9221 28.2374 34.8615 26.0708 34.7204C24.4752 34.9859 20.7054 34.0631 18.3917 28.2475C18.0726 29.9205 19.522 32.4632 20.2866 33.5254Z" fill="#E9CEAA"/>
<path d="M13.4837 25.5588C14.5214 28.0152 17.3346 33.0474 20.2866 33.5254C19.522 32.4632 18.0726 29.9205 18.3917 28.2475C18.425 25.758 20.3663 21.5954 27.866 24.8617C28.9297 25.26 30.798 26.9729 29.7608 30.6375C29.8834 31.2358 29.9022 32.0693 29.6293 32.8283C30.5663 32.6623 32.5214 31.952 32.8458 30.4383C32.8059 29.77 32.6795 29.0413 32.4535 28.2475C32.2501 27.6964 31.9668 27.0852 31.6018 26.455C31.2598 25.8646 30.8461 25.2575 30.3592 24.6674C29.7451 23.9231 29.0147 23.2059 28.1652 22.5835C27.118 21.8162 25.8898 21.1929 24.4752 20.84C22.2504 20.2851 19.5647 20.3993 16.3971 21.6751C16.3307 21.7303 16.2642 21.7871 16.1977 21.8453C15.139 22.7718 14.0858 24.0633 13.4837 25.5588Z" fill="#F5F1F0"/>
<path fill-rule="evenodd" clip-rule="evenodd" d="M27.866 24.8617C20.3663 21.5954 18.425 25.758 18.3917 28.2475C20.7054 34.0631 24.4752 34.9859 26.0708 34.7204C28.2374 34.8615 29.2362 33.9221 29.6293 32.8283C29.9022 32.0693 29.8834 31.2358 29.7608 30.6375C30.798 26.9729 28.9297 25.26 27.866 24.8617ZM24.9738 32.8283C18.9901 31.5537 19.6217 27.2517 20.6855 25.26C21.5631 24.065 25.5722 25.2268 27.467 25.9571C29.7808 26.0368 29.4284 29.1106 28.963 30.6375C28.4843 32.0715 28.4311 31.235 28.4643 30.6375C29.342 29.0442 27.8992 27.982 27.0681 27.65C21.0046 27.172 23.4779 29.9072 25.4725 31.3346C28.4244 33.3262 26.37 33.1603 24.9738 32.8283Z" fill="#DD9729"/>
<path d="M20.6855 25.26C19.6217 27.2517 18.9901 31.5537 24.9738 32.8283C26.37 33.1603 28.4244 33.3262 25.4725 31.3346C23.4779 29.9072 21.0046 27.172 27.0681 27.65C27.8992 27.982 29.342 29.0442 28.4643 30.6375C28.4311 31.235 28.4843 32.0715 28.963 30.6375C29.4284 29.1106 29.7808 26.0368 27.467 25.9571C25.5722 25.2268 21.5631 24.065 20.6855 25.26Z" fill="#D6A13B"/>
<path fill-rule="evenodd" clip-rule="evenodd" d="M47.6123 37.3095C47.1469 37.0108 46.3757 36.0747 47.0139 34.7204C46.5818 33.7578 45.3385 31.9719 43.8226 32.5296C43.5899 32.6292 43.0447 32.6292 42.7256 31.8325C42.4065 31.0358 41.3959 31.3678 40.9305 31.6333C40.3418 31.9625 39.2762 32.255 38.5345 31.6333C38.3026 31.8657 37.5796 33.2864 36.5424 37.1104C35.9728 37.4091 34.4362 37.8672 32.8458 37.3095C31.5876 36.8684 30.8679 38.1847 30.5399 39.3456C30.5231 39.5494 30.4799 39.755 30.3994 39.9491C30.3835 40.0357 30.3701 40.1189 30.3592 40.1974C30.5586 40.8281 30.9775 42.209 31.0573 42.687C29.2289 42.355 26.0708 42.3285 28.0654 44.8778C28.3185 45.3503 28.9751 46.3405 29.6568 46.6939C29.6914 46.7103 29.726 46.7265 29.7608 46.7426C31.3099 47.4597 33.0973 47.886 34.3484 48.0645C33.8432 48.2186 33.2244 48.5229 32.8458 48.967C33.8453 49.8279 36.1834 50.9922 37.5397 48.7615C37.7724 48.2283 38.5968 47.3424 40.0329 48.0645C41.469 48.7865 43.8226 47.7678 44.8199 47.1682C45.2521 46.8031 46.1563 45.3558 46.3158 42.4878C46.8501 41.2596 48.3566 38.9427 50.109 39.5003C49.4296 38.3917 48.5345 37.358 47.6123 37.3095ZM43.8226 44.5791C43.663 46.1724 41.6286 46.6853 40.6313 46.7426C42.6259 46.9598 43.7894 46.3202 44.1218 45.9732C44.7202 45.2761 45.7972 43.643 45.3185 42.687C44.8398 41.731 46.2493 39.8323 47.0139 39.0024C46.6948 38.8431 45.7507 39.7327 45.3185 40.1974C43.6231 41.7907 44.0221 42.5874 43.8226 44.5791ZM40.0329 44.1807C39.3149 40.0381 36.21 39.3344 34.7473 39.5003C37.4599 40.1377 38.8694 42.4878 39.2351 43.5832C39.4744 44.7782 39.8667 44.4795 40.0329 44.1807ZM42.7256 36.015C41.6884 37.2099 40.7642 36.0482 40.4318 35.3179C39.7936 35.3179 39.7005 35.6498 39.7337 35.8158C40.1326 36.3137 41.11 37.3693 41.828 37.6083C42.5461 37.8473 41.9278 39.8987 41.5288 40.8945C42.0275 40.5294 42.9649 39.58 42.7256 38.7037C42.4862 37.8274 44.3545 37.2763 45.3185 37.1104C45.651 37.2763 46.3158 37.4091 46.3158 36.6125C46.3158 35.8158 45.651 35.4175 45.3185 35.3179C44.8398 36.4332 43.3904 36.2473 42.7256 36.015ZM31.6557 46.272C32.1344 46.989 33.9162 46.8845 34.7473 46.7426C34.7473 45.6851 32.6862 44.5941 31.6557 44.1807L32.8458 45.3757C33.3192 46.3317 32.2496 46.3715 31.6557 46.272Z" fill="#C8CF47"/>
<path d="M28.0654 40.1974C28.0643 39.3344 28.5216 37.4091 30.3592 36.6125C32.1968 35.8158 32.3881 34.2579 32.254 33.5785C30.6873 36.6309 26.4057 37.4238 23.2784 37.3606C22.0817 38.9055 23.8768 40.1974 24.9738 41.0937C25.8514 41.8107 25.3395 42.7202 24.9738 43.0853C24.7411 43.1185 24.3156 43.2447 24.4752 43.4837C24.6347 43.7226 24.2092 44.1526 23.9765 44.3378C23.9957 44.5612 23.9989 44.8092 23.9765 45.077C23.8968 46.033 25.8173 46.8031 26.7875 47.0686C26.9808 47.0686 27.3873 47.1483 27.467 47.467C27.5668 47.8653 29.7608 47.9103 29.7608 46.7426C29.7261 46.7281 29.6914 46.7118 29.6568 46.6939C27.7963 45.8106 26.3101 44.5003 26.5695 42.687C26.5827 42.4751 26.6457 42.1503 26.7875 41.7907C27.0012 41.2489 27.394 40.6284 28.0654 40.1974Z" fill="#F1D592"/>
<path d="M37.8389 30.3388C37.5064 29.4093 36.6022 28.128 35.6448 30.4383C35.6165 30.5067 35.5878 30.5731 35.5586 30.6375C35.8886 30.7968 35.8866 31.3678 35.8443 31.6333C35.5783 32.264 35.1661 33.8042 35.6448 34.9195C36.1235 36.0349 35.9773 36.1145 35.8443 36.015C36.0437 36.5129 32.8458 37.3095 31.6557 37.1104C30.7036 36.951 30.3946 37.7079 30.3592 38.1062C30.4724 38.3968 30.5793 38.8665 30.5399 39.3456C30.8679 38.1847 31.5876 36.8684 32.8458 37.3095C34.4362 37.8672 35.9728 37.4091 36.5424 37.1104C37.5796 33.2864 38.3026 31.8657 38.5345 31.6333C38.229 31.3773 37.9785 30.9662 37.8389 30.3388Z" fill="#F1D592"/>
<path d="M36.1435 52.6489C36.3429 52.0397 37.2405 51.0466 39.2351 51.9482C41.2297 52.8497 45.3185 49.5355 47.1137 47.7657L49.0085 45.3757C49.4548 45.2272 50.0258 44.9485 50.5044 44.5459C51.3095 43.8687 51.8533 42.8409 51.1028 41.492C50.8945 40.959 50.5465 40.2141 50.109 39.5003C48.3566 38.9427 46.8501 41.2596 46.3158 42.4878C46.1563 45.3558 45.2521 46.8031 44.8199 47.1682C43.8226 47.7678 41.469 48.7865 40.0329 48.0645C38.5968 47.3424 37.7724 48.2283 37.5397 48.7615C36.1834 50.9922 33.8453 49.8279 32.8458 48.967C32.5086 49.3625 32.362 49.869 32.6562 50.4789C32.8143 50.8064 33.0994 51.1638 33.5505 51.5498C33.7234 51.8039 33.9827 52.1197 34.2842 52.3871C34.8961 52.4834 35.516 52.5708 36.1435 52.6489Z" fill="#F1D592"/>
<path d="M32.4535 28.2475C32.6795 29.0413 32.8059 29.77 32.8458 30.4383C32.8921 31.2142 32.822 31.9088 32.6562 32.5296C33.2358 32.7873 34.6033 32.7511 35.5586 30.6375C35.5878 30.5731 35.6165 30.5067 35.6448 30.4383C36.6022 28.128 37.5064 29.4093 37.8389 30.3388C37.9785 30.9662 38.229 31.3773 38.5345 31.6333C39.2762 32.255 40.3418 31.9625 40.9305 31.6333C41.3959 31.3678 42.4065 31.0358 42.7256 31.8325C43.0447 32.6292 43.5899 32.6292 43.8226 32.5296C45.3385 31.9719 46.5818 33.7578 47.0139 34.7204C46.3757 36.0747 47.1469 37.0108 47.6123 37.3095C48.5345 37.358 49.4296 38.3917 50.109 39.5003C50.5465 40.2141 50.8945 40.959 51.1028 41.492C51.8533 42.8409 51.3095 43.8687 50.5044 44.5459C50.7615 45.4954 52.7074 46.3186 54.3939 46.286C54.4271 45.9936 54.3739 45.3226 53.8952 44.9774C53.2969 44.5459 51.8009 44.0811 53.8952 43.5832C55.5707 43.1849 54.9258 42.687 54.3939 42.4878C54.2277 41.7244 54.1346 40.1974 55.092 40.1974C55.225 40.131 55.2715 39.7991 54.3939 39.0024C53.5163 38.2058 54.0282 36.878 54.3939 36.3137C54.2277 35.8822 54.0747 34.9594 54.7928 34.7204C54.1944 34.3221 53.1373 33.4258 53.6958 33.0275C53.1627 32.4964 51.8979 31.713 51.1028 32.8283C50.5709 34.2225 49.4274 36.1942 49.1082 32.9279C48.6428 32.1644 47.4926 30.6375 46.615 30.6375C45.7374 30.6375 43.4569 29.3097 42.4264 28.6458C41.7948 27.5836 40.1127 25.738 38.4372 26.8534C37.7391 27.5504 36.1036 28.4467 35.1462 26.455C34.3789 25.9571 32.5959 25.26 31.6018 26.455C31.9668 27.0852 32.2501 27.6964 32.4535 28.2475Z" fill="#BB5C08"/>
<path d="M35.1462 24.8617C33.3112 23.5871 31.1903 24.2011 30.3592 24.6674C30.8461 25.2575 31.2598 25.8646 31.6018 26.455C32.5959 25.26 34.3789 25.9571 35.1462 26.455C36.1036 28.4467 37.7391 27.5504 38.4372 26.8534C40.1127 25.738 41.7948 27.5836 42.4264 28.6458C43.4569 29.3097 45.7374 30.6375 46.615 30.6375C47.4926 30.6375 48.6428 32.1644 49.1082 32.9279C49.4274 36.1942 50.5709 34.2225 51.1028 32.8283C51.8979 31.713 53.1627 32.4964 53.6958 33.0275C53.1373 33.4258 54.1944 34.3221 54.7928 34.7204C54.0747 34.9594 54.2277 35.8822 54.3939 36.3137C54.0282 36.878 53.5163 38.2058 54.3939 39.0024C55.2715 39.7991 55.225 40.131 55.092 40.1974C54.1346 40.1974 54.2277 41.7244 54.3939 42.4878C54.9258 42.687 55.5707 43.1849 53.8952 43.5832C51.8009 44.0811 53.2969 44.5459 53.8952 44.9774C54.3739 45.3226 54.4271 45.9936 54.3939 46.286C55.3016 46.2684 56.1343 46.0029 56.5879 45.3757C57.8844 43.5832 56.0893 42.687 55.6904 42.687C55.2914 42.687 54.3939 41.492 55.6904 41.492C55.9508 41.492 56.1454 41.3371 56.2887 41.0857C56.7162 40.3359 56.6875 38.7272 56.5879 37.8074C57.306 37.7278 58.0174 36.7784 58.2833 36.3137C58.1171 36.1477 58.024 35.7162 58.9814 35.3179C59.2467 35.2075 59.4365 35.0691 59.5693 34.9195C59.9159 34.5295 59.8754 34.0641 59.7792 33.8241C59.5659 33.5788 59.3563 33.3466 59.151 33.1271C56.8223 30.637 55.0354 29.7637 54.3939 29.6417C53.995 29.874 52.9977 30.1993 52.1998 29.6417C51.402 29.084 50.7371 29.4093 50.5044 29.6417C50.5729 30.1205 49.6661 29.9484 49.0085 29.7431C48.9002 29.7092 48.7986 29.6745 48.7093 29.6417C47.9115 28.5463 46.1164 26.3754 45.3185 26.455C44.5207 26.5347 43.058 25.6916 42.4264 25.26C40.751 24.065 39.4013 24.7621 38.9359 25.26C38.4372 25.6584 36.9812 26.1364 35.1462 24.8617Z" fill="#B54616"/>
<path d="M58.9814 35.3179C58.024 35.7162 58.1171 36.1477 58.2833 36.3137C58.0174 36.7784 57.306 37.7278 56.5879 37.8074C56.6875 38.7272 56.7162 40.3359 56.2887 41.0857C57.3857 42.5157 60.4574 44.8977 63.9679 42.9857C65.9343 42.6251 69.0804 41.9742 71.2481 41.3396C72.6716 40.9229 73.6732 40.5132 73.6416 40.1974C75.1181 39.921 77.9951 38.9453 78.5429 37.16C78.5763 37.0154 78.6047 36.8661 78.628 36.712C78.8275 34.1229 80.0242 34.0233 76.8329 32.8283C76.3785 32.7672 75.7854 32.675 75.1375 32.5562C77.2917 33.6132 76.6334 34.3066 76.0351 34.5212C74.8051 34.4216 72.1257 34.6009 71.2481 36.1145C70.3705 37.6282 67.8132 38.0066 66.6443 38.0066C66.253 38.7372 64.8853 39.0768 63.9679 38.4049C62.4719 37.3095 60.3776 40.1974 59.9787 40.5958C59.5798 40.9941 56.189 39.5003 58.782 38.0066C60.8563 36.8116 60.1712 35.4507 59.5693 34.9195C59.4365 35.0691 59.2467 35.2075 58.9814 35.3179Z" fill="#D6B053"/>
<path d="M64.8654 34.9195C64.0676 35.3975 65.1979 36.0482 65.8627 36.3137C66.7497 36.9298 66.8911 37.546 66.6443 38.0066C67.8132 38.0066 70.3705 37.6282 71.2481 36.1145C72.1257 34.6009 74.8051 34.4216 76.0351 34.5212C76.6334 34.3066 77.2917 33.6132 75.1375 32.5562C75.0065 32.5322 74.8733 32.5071 74.7386 32.481C74.1503 32.3668 73.5327 32.2328 72.9435 32.0822C73.3888 32.2023 73.129 32.8952 72.9435 33.2266C72.3783 33.3262 71.0885 33.4656 70.4502 33.2266C69.812 32.9876 68.2562 33.6582 67.5581 34.0233C66.2616 34.2225 65.8627 33.625 66.86 32.5562C67.6578 31.7012 67.6578 30.8015 67.5581 30.4586C66.3694 30.4497 65.1096 30.5996 64.3287 30.7371C63.6236 31.248 62.9512 31.7577 62.4719 32.1312C62.6315 32.6889 63.0038 33.0939 63.17 33.2266C64.6859 34.0233 64.9319 34.6872 64.8654 34.9195Z" fill="#E1C79C"/>
<path d="M59.7792 33.8241C59.8754 34.0641 59.9159 34.5295 59.5693 34.9195C60.1712 35.4507 60.8563 36.8116 58.782 38.0066C56.189 39.5003 59.5798 40.9941 59.9787 40.5958C60.3776 40.1974 62.4719 37.3095 63.9679 38.4049C64.8853 39.0768 66.253 38.7372 66.6443 38.0066C66.8911 37.546 66.7497 36.9298 65.8627 36.3137C65.1979 36.0482 64.0676 35.3975 64.8654 34.9195C64.9319 34.6872 64.6859 34.0233 63.17 33.2266C63.0038 33.0939 62.6315 32.6889 62.4719 32.1312C61.9201 32.6292 60.4834 33.5254 59.151 33.1271C59.3563 33.3466 59.5659 33.5788 59.7792 33.8241Z" fill="#BB5C08"/>
<path d="M70.9489 31.4317C70.664 31.3051 70.4254 31.1728 70.2508 31.0358C69.712 30.6131 68.6659 30.4669 67.5581 30.4586C67.6578 30.8015 67.6578 31.7012 66.86 32.5562C65.8627 33.625 66.2616 34.2225 67.5581 34.0233C68.2562 33.6582 69.812 32.9876 70.4502 33.2266C71.0885 33.4656 72.3783 33.3262 72.9435 33.2266C73.129 32.8952 73.3888 32.2023 72.9435 32.0822C72.1926 31.8902 71.4879 31.6711 70.9489 31.4317Z" fill="#BB5C08"/>
<path d="M49.0085 22.3721C49.3527 23.0818 49.786 24.5925 49.703 26.455C50.9674 26.5214 53.5163 26.2559 53.596 24.6625C53.5918 24.6028 53.5889 24.5355 53.5882 24.4634C53.5835 23.9743 53.6775 23.2684 54.0947 23.2684C54.4552 23.2684 54.8157 22.5454 54.7836 21.7746C54.7625 21.2661 54.5704 20.7368 54.0947 20.3805C53.6988 20.668 53.0301 21.0333 52.2996 21.3735C51.0059 21.9759 49.5184 22.4994 49.0085 22.3721Z" fill="#BB5C08"/>
<path d="M41.3294 17.393C41.0634 16.8951 40.3919 15.9192 39.8334 15.9989C39.5379 16.041 38.7419 16.2438 37.8389 16.4108C36.6089 16.6382 35.1804 16.7992 34.5478 16.3972C33.4508 15.7001 29.2812 14.7043 27.5264 17.393C27.8914 17.7028 28.2254 18.1509 28.4643 18.7872C28.6826 19.3684 28.7774 19.9037 28.7924 20.3805C29.1152 21.0444 30.2595 21.9738 32.254 20.3805C34.2486 18.7872 36.3429 20.4469 37.1408 21.4759C38.0051 22.3389 39.7337 23.5472 39.7337 21.4759C39.7337 19.4046 41.3294 19.3424 42.1272 19.5702C41.6087 19.153 41.1898 18.4615 41.3294 17.393Z" fill="#E1C79C"/>
<path d="M54.0947 23.2684C53.6775 23.2684 53.5835 23.9743 53.5882 24.4634C54.3222 24.0319 56.1092 23.607 57.3857 25.3596C58.6623 27.1123 60.5771 27.6832 61.3749 27.7496C61.7073 27.7164 62.5318 27.5106 63.17 26.9529C63.9679 26.2559 63.5689 24.8617 62.073 24.4634C60.5771 24.065 60.0186 23.9655 59.151 22.8701C58.2833 21.7746 55.4726 21.1772 54.7836 21.7746C54.8157 22.5454 54.4552 23.2684 54.0947 23.2684Z" fill="#E1C79C"/>
<path d="M73.9408 26.6542C73.7746 26.1895 73.7014 25.041 74.7386 24.1646C76.0351 23.0692 73.3424 20.3805 72.1456 20.7788C71.7328 20.9162 70.724 20.8364 69.5527 20.6638C69.3855 21.0729 68.9644 21.7759 68.3559 22.1394C70.9156 22.4825 75.4168 23.7066 72.9435 25.8575C72.4116 26.0899 71.4276 26.7936 71.7467 27.7496C72.0879 28.7717 72.502 30.2916 72.178 30.7776C73.3954 29.9503 74.5878 28.5337 73.9408 26.6542Z" fill="#E1C79C"/>
<path d="M29.5614 9.52599C28.3646 12.2147 28.963 10.721 27.0681 11.6172C25.7376 12.2466 24.9244 14.7739 24.5881 16.3972C25.5477 15.335 27.8859 13.3699 29.5614 14.0072C29.927 14.0404 30.5985 13.8877 30.3592 13.0114C30.06 11.916 29.7528 9.62557 31.6018 11.6172C33.4508 13.6089 33.75 14.1068 33.75 13.0114C33.4795 12.0156 33.2006 10.3426 34.2486 11.6172C35.2966 12.8919 35.7491 12.3475 35.8443 11.916C35.8775 11.1193 36.0637 9.52599 36.5424 9.52599C37.0211 9.52599 37.0743 7.73728 37.041 6.84292C36.4947 6.76667 35.9589 6.88596 35.6448 7.43475C35.0066 8.55008 33.5129 7.89947 32.8458 7.43475C32.1499 7.23559 30.5188 7.375 29.5614 9.52599Z" fill="#E1C79C"/>
<path d="M51.1028 10.3226C50.9366 10.6878 50.305 11.0396 49.1082 9.52599C47.9115 8.01233 45.4183 8.8953 44.3213 9.52599C43.171 10.1802 40.7685 11.2105 38.9359 11.0286C38.8362 12.7185 39.0955 15.5209 40.9305 13.2105C42.7655 10.9002 48.5143 10.7933 51.1594 11.0286L51.1028 10.3226Z" fill="#E1C79C"/>
<path d="M50.5044 29.6417C50.7371 29.4093 51.402 29.084 52.1998 29.6417C52.9977 30.1993 53.995 29.874 54.3939 29.6417C55.0354 29.7637 56.8223 30.637 59.151 33.1271C60.4834 33.5254 61.9201 32.6292 62.4719 32.1312C62.9512 31.7577 63.6236 31.248 64.3287 30.7371C65.6291 29.7949 67.0408 28.8487 67.5581 28.7454C68.5554 28.5463 70.9489 27.0525 68.8546 24.6625C68.5202 24.477 67.8182 24.1754 66.86 23.9175C66.1038 23.714 65.1879 23.5378 64.1673 23.4676C61.8536 23.3082 59.2806 21.6087 58.2833 20.7788C58.1883 20.7421 58.0828 20.7034 57.9687 20.6638C57.1592 20.383 55.9201 20.0597 54.9923 20.1167C54.6315 20.1389 54.3178 20.2185 54.0947 20.3805C54.5704 20.7368 54.7625 21.2661 54.7836 21.7746C55.4726 21.1772 58.2833 21.7746 59.151 22.8701C60.0186 23.9655 60.5771 24.065 62.073 24.4634C63.5689 24.8617 63.9679 26.2559 63.17 26.9529C62.5318 27.5106 61.7073 27.7164 61.3749 27.7496C60.5771 27.6832 58.6623 27.1123 57.3857 25.3596C56.1092 23.607 54.3222 24.0319 53.5882 24.4634C53.5889 24.5355 53.5918 24.6028 53.596 24.6625C53.5163 26.2559 50.9674 26.5214 49.703 26.455C49.6577 27.4707 49.459 28.591 49.0085 29.7431C49.6661 29.9484 50.5729 30.1205 50.5044 29.6417Z" fill="#D6B053"/>
<path d="M68.8546 24.6625C70.9489 27.0525 68.5554 28.5463 67.5581 28.7454C67.0408 28.8487 65.6291 29.7949 64.3287 30.7371C65.1096 30.5996 66.3694 30.4497 67.5581 30.4586C68.6659 30.4669 69.712 30.6131 70.2508 31.0358C70.4254 31.1728 70.664 31.3051 70.9489 31.4317C71.2432 31.3172 71.5908 31.1482 71.9462 30.928C72.0232 30.8803 72.1007 30.8301 72.178 30.7776C72.502 30.2916 72.0879 28.7717 71.7467 27.7496C71.4276 26.7936 72.4116 26.0899 72.9435 25.8575C75.4168 23.7066 70.9156 22.4825 68.3559 22.1394C68.1174 22.2818 67.8502 22.3721 67.5581 22.3721C66.5209 22.3721 66.6605 23.4024 66.86 23.9175C67.8182 24.1754 68.5202 24.477 68.8546 24.6625Z" fill="#D6B053"/>
<path d="M54.9923 18.3888C54.9923 17.4926 54.0947 17.1938 52.499 17.4926C52.0565 17.5754 51.729 17.4745 51.5017 17.2768C50.5443 18.8568 51.6347 20.6663 52.2996 21.3735C53.0301 21.0333 53.6988 20.668 54.0947 20.3805C54.3178 20.2185 54.6315 20.1389 54.9923 20.1167C54.4936 19.4546 54.9923 19.2851 54.9923 18.3888Z" fill="#D6B053"/>
<path d="M28.1652 22.5835C29.0147 23.2059 29.7451 23.9231 30.3592 24.6674C31.1903 24.2011 33.3112 23.5871 35.1462 24.8617C36.9812 26.1364 38.4372 25.6584 38.9359 25.26C39.4013 24.7621 40.751 24.065 42.4264 25.26C43.058 25.6916 44.5207 26.5347 45.3185 26.455C46.1164 26.3754 47.9115 28.5463 48.7093 29.6417C48.7986 29.6745 48.9002 29.7092 49.0085 29.7431C49.459 28.591 49.6577 27.4707 49.703 26.455C49.786 24.5925 49.3527 23.0818 49.0085 22.3721C48.2107 22.173 46.0166 22.7705 45.518 21.4759C45.3855 21.132 45.1541 20.8664 44.882 20.6638C44.335 20.2564 43.6239 20.1039 43.2242 20.0817C42.9194 20.0264 42.4978 19.8684 42.1272 19.5702C41.3294 19.3424 39.7337 19.4046 39.7337 21.4759C39.7337 23.5472 38.0051 22.3389 37.1408 21.4759C36.3429 20.4469 34.2486 18.7872 32.254 20.3805C30.2595 21.9738 29.1152 21.0444 28.7924 20.3805C28.8268 21.4722 28.4428 22.2572 28.1652 22.5835Z" fill="#D6B053"/>
<path d="M25.4725 16.7955C25.9382 16.7069 26.7947 16.772 27.5264 17.393C29.2812 14.7043 33.4508 15.7001 34.5478 16.3972C35.1804 16.7992 36.6089 16.6382 37.8389 16.4108C37.2072 15.51 36.323 13.111 37.8389 10.721C37.6115 10.2145 37.5074 9.32012 37.9712 8.331C38.1068 8.04194 38.2908 7.74478 38.5345 7.44685C38.1803 7.20875 37.605 6.92164 37.041 6.84292C37.0743 7.73728 37.0211 9.52599 36.5424 9.52599C36.0637 9.52599 35.8775 11.1193 35.8443 11.916C35.7491 12.3475 35.2966 12.8919 34.2486 11.6172C33.2006 10.3426 33.4795 12.0156 33.75 13.0114C33.75 14.1068 33.4508 13.6089 31.6018 11.6172C29.7528 9.62557 30.06 11.916 30.3592 13.0114C30.5985 13.8877 29.927 14.0404 29.5614 14.0072C27.8859 13.3699 25.5477 15.335 24.5881 16.3972C24.5412 16.6233 24.5036 16.8318 24.4752 17.0153C25.0709 17.0098 25.3763 16.8915 25.4725 16.7955Z" fill="#D6B053"/>
<path d="M51.5017 17.2768C50.9094 16.7616 50.9972 15.5896 51.5017 15.3018L51.1594 11.0286C48.5143 10.7933 42.7655 10.9002 40.9305 13.2105C39.0955 15.5209 38.8362 12.7185 38.9359 11.0286C38.5369 10.989 38.165 10.8919 37.8389 10.721C36.323 13.111 37.2072 15.51 37.8389 16.4108C38.7419 16.2438 39.5379 16.041 39.8334 15.9989C40.7175 15.1545 41.9867 15.0222 43.2242 15.2575C42.9583 14.5088 42.8054 13.0512 44.3213 13.2105C45.8371 13.3699 47.4793 12.945 48.111 12.7126C48.5049 12.6512 48.8343 12.6632 49.1082 12.7326C50.6098 13.1132 50.4454 15.2181 50.109 16.3972C48.3566 16.0785 47.4484 17.1938 47.2134 17.7913C47.2651 18.1491 47.4158 18.6438 47.6141 19.1855L51.5017 17.2768Z" fill="#D6B053"/>
<path d="M47.2134 17.7913C47.4484 17.1938 48.3566 16.0785 50.109 16.3972C50.4454 15.2181 50.6098 13.1132 49.1082 12.7326C48.9753 13.9746 48.2905 16.2273 46.615 15.3018C44.9396 14.3763 43.6564 14.8866 43.2242 15.2575C45.1977 15.6327 47.0908 16.9429 47.2134 17.7913Z" fill="#D6B053"/>
<path d="M27.0681 11.6172C28.963 10.721 28.3646 12.2147 29.5614 9.52599C30.5188 7.375 32.1499 7.23559 32.8458 7.43475C33.5129 7.89947 35.0066 8.55008 35.6448 7.43475C35.9589 6.88596 36.4947 6.76667 37.041 6.84292C37.605 6.92164 38.1803 7.20875 38.5345 7.44685C38.6536 7.30119 38.787 7.15534 38.9359 7.01015C37.5353 6.15586 34.3564 4.60661 32.8458 5.24394C31.3352 5.88127 30.1597 5.17755 29.7608 4.74602C29.6943 5.6463 29.2821 7.44685 28.1652 7.44685C26.7689 7.44685 27.0681 8.331 27.0681 9.52599C27.0681 10.482 24.4393 11.5176 23.1249 11.916C23.1864 12.2008 23.2891 12.4978 23.3782 12.7126C22.9128 13.6707 22.3609 15.867 23.8768 16.9878C24.1024 17.0088 24.3012 17.0169 24.4752 17.0153C24.5036 16.8318 24.5412 16.6233 24.5881 16.3972C24.9244 14.7739 25.7376 12.2466 27.0681 11.6172Z" fill="#B54616"/>
<path d="M49.1082 9.52599C50.305 11.0396 50.9366 10.6878 51.1028 10.3226C50.7659 7.60908 48.8949 6.50531 47.2134 6.15196C48.0112 6.87837 47.4128 7.31789 47.0139 7.44685C45.9502 7.44282 43.4835 7.55425 42.1272 8.03225C40.7709 8.51025 38.7914 8.43058 37.9712 8.331C37.5074 9.32012 37.6115 10.2145 37.8389 10.721C38.165 10.8919 38.5369 10.989 38.9359 11.0286C40.7685 11.2105 43.171 10.1802 44.3213 9.52599C45.4183 8.8953 47.9115 8.01233 49.1082 9.52599Z" fill="#B54616"/>
<path d="M45.518 21.4759C46.0166 22.7705 48.2107 22.173 49.0085 22.3721C48.6489 21.651 48.028 20.316 47.6141 19.1855C47.4158 18.6438 47.2651 18.1491 47.2134 17.7913C47.0908 16.9429 45.1977 15.6327 43.2242 15.2575C41.9867 15.0222 40.7175 15.1545 39.8334 15.9989C40.3919 15.9192 41.0634 16.8951 41.3294 17.393C42.4929 17.5258 45.0393 17.9108 45.9169 18.3888C47.0139 18.9863 46.5398 20.5488 44.882 20.6638C45.1541 20.8664 45.3855 21.132 45.518 21.4759Z" fill="#B54616"/>
<path d="M58.0839 15.3018C57.9509 14.6047 57.9442 13.1707 58.9814 13.0114C60.0186 12.852 60.5438 13.6089 60.6768 14.0072C61.0425 14.5051 61.9533 15.1225 62.6714 13.6089C62.948 13.0257 62.9276 12.4436 62.7562 11.916C62.4287 12.4803 61.4946 13.33 60.3776 12.2147C59.2607 11.0994 57.7847 12.0819 57.1863 12.7126C56.5879 13.6753 55.1319 15.4412 54.0947 14.8039C52.7982 14.0072 53.1971 14.7043 52.499 13.2105C52.3993 13.7748 52.0602 14.9831 51.5017 15.3018C50.9972 15.5896 50.9094 16.7616 51.5017 17.2768C51.729 17.4745 52.0565 17.5754 52.499 17.4926C54.0947 17.1938 54.9923 17.4926 54.9923 18.3888C54.9923 19.2851 54.4936 19.4546 54.9923 20.1167C55.9201 20.0597 57.1592 20.383 57.9687 20.6638C58.0545 20.6952 58.0102 20.5389 57.3359 19.783C57.186 19.615 57.005 19.4173 56.7874 19.1855C55.5906 17.9108 57.286 16.1912 58.2833 15.4908C58.2112 15.4257 58.1445 15.3624 58.0839 15.3018Z" fill="#B54616"/>
<path d="M64.1673 23.4676C65.1879 23.5378 66.1038 23.714 66.86 23.9175C66.6605 23.4024 66.5209 22.3721 67.5581 22.3721C67.8502 22.3721 68.1174 22.2818 68.3559 22.1394C68.9644 21.7759 69.3855 21.0729 69.5527 20.6638C69.0165 20.5848 68.4464 20.4864 67.8837 20.3805C67.0106 20.4801 65.2244 20.8983 65.0649 21.7746C64.9053 22.651 64.4 23.2684 64.1673 23.4676Z" fill="#B54616"/>
<path d="M22.6801 16.7955C20.845 16.3972 19.7879 17.6918 19.4887 18.3888C20.0871 18.1897 21.4833 17.8511 22.2811 18.0901C23.2784 18.3888 24.5749 19.1855 25.1733 18.9863C25.7717 18.7872 25.9711 20.9013 24.4752 20.84C25.8898 21.1929 27.118 21.8162 28.1652 22.5835C28.4428 22.2572 28.8268 21.4722 28.7924 20.3805C28.7774 19.9037 28.6826 19.3684 28.4643 18.7872C28.2254 18.1509 27.8914 17.7028 27.5264 17.393C26.7947 16.772 25.9382 16.7069 25.4725 16.7955C25.3763 16.8915 25.0709 17.0098 24.4752 17.0153C24.3012 17.0169 24.1024 17.0088 23.8768 16.9878C23.5399 16.9564 23.1432 16.8961 22.6801 16.7955Z" fill="#B54616"/>
<path d="M29.7608 4.74602C28.7303 4.44728 26.5495 4.36761 26.0708 6.43893C26.1041 6.93684 25.9312 7.95258 24.9738 8.03225C24.0164 8.11192 23.8436 9.06127 23.8768 9.52599C23.9433 10.0269 23.9366 11.0286 23.3782 11.0286C23.0334 11.0286 23.0256 11.4564 23.1249 11.916C24.4393 11.5176 27.0681 10.482 27.0681 9.52599C27.0681 8.331 26.7689 7.44685 28.1652 7.44685C29.2821 7.44685 29.6943 5.6463 29.7608 4.74602Z" fill="#BB5C08"/>
<path d="M45.3185 6.0406C43.1644 5.40327 41.4956 5.50949 40.9305 5.64227C40.0708 6.07145 39.4209 6.53726 38.9359 7.01015C38.787 7.15534 38.6536 7.30119 38.5345 7.44685C38.2908 7.74478 38.1068 8.04194 37.9712 8.331C38.7914 8.43058 40.7709 8.51025 42.1272 8.03225C43.4835 7.55425 45.9502 7.44282 47.0139 7.44685C47.4128 7.31789 48.0112 6.87837 47.2134 6.15196C46.5053 6.00315 45.8308 5.98743 45.3185 6.0406Z" fill="#BB5C08"/>
<path d="M48.111 12.7126C47.4793 12.945 45.8371 13.3699 44.3213 13.2105C42.8054 13.0512 42.9583 14.5088 43.2242 15.2575C43.6564 14.8866 44.9396 14.3763 46.615 15.3018C48.2905 16.2273 48.9753 13.9746 49.1082 12.7326C48.8343 12.6632 48.5049 12.6512 48.111 12.7126Z" fill="#BB5C08"/>
<path d="M42.1272 19.5702C42.4978 19.8684 42.9194 20.0264 43.2242 20.0817C43.6239 20.1039 44.335 20.2564 44.882 20.6638C46.5398 20.5488 47.0139 18.9863 45.9169 18.3888C45.0393 17.9108 42.4929 17.5258 41.3294 17.393C41.1898 18.4615 41.6087 19.153 42.1272 19.5702Z" fill="#BB5C08"/>
<path d="M61.3749 10.0239C60.6768 9.39321 58.9415 8.41066 57.5852 9.52599C56.2289 10.6413 55.2914 10.5218 54.9923 10.3226C54.1279 10.3558 52.4192 10.9799 52.499 13.2105C53.1971 14.7043 52.7982 14.0072 54.0947 14.8039C55.1319 15.4412 56.5879 13.6753 57.1863 12.7126C57.7847 12.0819 59.2607 11.0994 60.3776 12.2147C61.4946 13.33 62.4287 12.4803 62.7562 11.916C62.4827 11.074 61.8245 10.3708 61.3749 10.0239Z" fill="#BB5C08"/>
<path d="M62.073 20.7788C63.908 21.9738 64.8322 20.6129 65.0649 19.783C64.6327 19.5174 63.8482 18.6876 64.1673 17.4926C64.2006 16.6295 63.908 15.2022 62.4719 16.3972C61.1366 17.5083 59.2381 16.3523 58.2833 15.4908C57.286 16.1912 55.5906 17.9108 56.7874 19.1855C57.005 19.4173 57.186 19.615 57.3359 19.783C58.0102 20.5389 58.0545 20.6952 57.9687 20.6638C58.0828 20.7034 58.1883 20.7421 58.2833 20.7788C58.782 20.2809 60.238 19.5838 62.073 20.7788Z" fill="#BB5C08"/>
<path d="M58.2833 20.7788C59.2806 21.6087 61.8536 23.3082 64.1673 23.4676C64.4 23.2684 64.9053 22.651 65.0649 21.7746C65.2244 20.8983 67.0106 20.4801 67.8837 20.3805C66.8252 20.1813 65.7933 19.9556 65.0649 19.783C64.8322 20.6129 63.908 21.9738 62.073 20.7788C60.238 19.5838 58.782 20.2809 58.2833 20.7788Z" fill="#BB5C08"/>
<path d="M16.1977 21.8453C16.2642 21.7871 16.3307 21.7303 16.3971 21.6751C19.5647 20.3993 22.2504 20.2851 24.4752 20.84C25.9711 20.9013 25.7717 18.7872 25.1733 18.9863C24.5749 19.1855 23.2784 18.3888 22.2811 18.0901C21.4833 17.8511 20.0871 18.1897 19.4887 18.3888C19.2494 19.0262 18.3252 19.3183 17.8931 19.3847C15.9783 19.6237 15.965 21.1247 16.1977 21.8453Z" fill="#BB5C08"/>
<path d="M49.0085 22.3721C49.5184 22.4994 51.0059 21.9759 52.2996 21.3735C51.6347 20.6663 50.5443 18.8568 51.5017 17.2768L47.6141 19.1855C48.028 20.316 48.6489 21.651 49.0085 22.3721Z" fill="#D4CAC0"/>
<path d="M74.7386 24.1646C73.7014 25.041 73.7746 26.1895 73.9408 26.6542C74.5878 28.5337 73.3954 29.9503 72.178 30.7776C72.1232 30.8598 72.0472 30.9124 71.9462 30.928C71.5908 31.1482 71.2432 31.3172 70.9489 31.4317C71.4879 31.6711 72.1926 31.8902 72.9435 32.0822C73.5327 32.2328 74.1503 32.3668 74.7386 32.481C76.2917 32.4323 76.8329 27.7496 75.6362 27.3513C74.6788 27.0326 74.6389 25.0941 74.7386 24.1646Z" fill="#E0E1DB"/>
<path d="M30.3592 36.6125C28.5216 37.4091 28.0643 39.3344 28.0654 40.1974C27.394 40.6284 27.0012 41.2489 26.7875 41.7907C27.3465 41.6912 28.7236 41.3327 29.7608 40.6953C30.0789 40.4999 30.2801 40.237 30.3994 39.9491C30.434 39.7606 30.4805 39.5556 30.5399 39.3456C30.5793 38.8665 30.4724 38.3968 30.3592 38.1062C30.3946 37.7079 30.7036 36.951 31.6557 37.1104C32.8458 37.3095 36.0437 36.5129 35.8443 36.015C35.9773 36.1145 36.1235 36.0349 35.6448 34.9195C35.1661 33.8042 35.5783 32.264 35.8443 31.6333C35.8866 31.3678 35.8886 30.7968 35.5586 30.6375C34.6033 32.7511 33.2358 32.7873 32.6562 32.5296C32.5558 32.9057 32.4202 33.2548 32.254 33.5785C32.3881 34.2579 32.1968 35.8158 30.3592 36.6125Z" fill="#F5F1F0"/>
<path d="M22.2811 37.3095C22.043 37.2141 21.8103 37.1181 21.583 37.0215C21.4833 38.744 21.7626 42.3882 23.6773 43.1849C23.7731 43.3522 23.9274 43.7637 23.9765 44.3378C24.2092 44.1526 24.6347 43.7226 24.4752 43.4837C24.3156 43.2447 24.7411 43.1185 24.9738 43.0853C25.3395 42.7202 25.8514 41.8107 24.9738 41.0937C23.8768 40.1974 22.0817 38.9055 23.2784 37.3606C22.9299 37.3536 22.5957 37.3359 22.2811 37.3095Z" fill="#F5F1F0"/>
<path d="M31.0573 42.687C30.9775 42.209 30.5586 40.8281 30.3592 40.1974C30.3701 40.1189 30.3835 40.0357 30.3994 39.9491C30.2801 40.237 30.0789 40.4999 29.7608 40.6953C28.7236 41.3327 27.3465 41.6912 26.7875 41.7907C26.6457 42.1503 26.5827 42.4751 26.5695 42.687C26.3101 44.5003 27.7963 45.8106 29.6568 46.6939C28.9751 46.3405 28.3185 45.3503 28.0654 44.8778C26.0708 42.3285 29.2289 42.355 31.0573 42.687Z" fill="#F1D592"/>
<path d="M34.7473 46.7426C33.9162 46.8845 32.1344 46.989 31.6557 46.272C32.2496 46.3715 33.3192 46.3317 32.8458 45.3757L31.6557 44.1807C32.6862 44.5941 34.7473 45.6851 34.7473 46.7426Z" fill="#F5F1F0"/>
<path d="M34.7473 39.5003C36.21 39.3344 39.3149 40.0381 40.0329 44.1807C39.8667 44.4795 39.4744 44.7782 39.2351 43.5832C38.8694 42.4878 37.4599 40.1377 34.7473 39.5003Z" fill="#F5F1F0"/>
<path d="M40.4318 35.3179C40.7642 36.0482 41.6884 37.2099 42.7256 36.015C43.3904 36.2473 44.8398 36.4332 45.3185 35.3179C45.651 35.4175 46.3158 35.8158 46.3158 36.6125C46.3158 37.4091 45.651 37.2763 45.3185 37.1104C44.3545 37.2763 42.4862 37.8274 42.7256 38.7037C42.9649 39.58 42.0275 40.5294 41.5288 40.8945C41.9278 39.8987 42.5461 37.8473 41.828 37.6083C41.11 37.3693 40.1326 36.3137 39.7337 35.8158C39.7005 35.6498 39.7936 35.3179 40.4318 35.3179Z" fill="#F5F1F0"/>
<path d="M40.6313 46.7426C41.6286 46.6853 43.663 46.1724 43.8226 44.5791C44.0221 42.5874 43.6231 41.7907 45.3185 40.1974C45.7507 39.7327 46.6948 38.8431 47.0139 39.0024C46.2493 39.8323 44.8398 41.731 45.3185 42.687C45.7972 43.643 44.7202 45.2761 44.1218 45.9732C43.7894 46.3202 42.6259 46.9598 40.6313 46.7426Z" fill="#F5F1F0"/>
</svg>
