<svg width="181" height="46" viewBox="0 0 181 46" fill="none" xmlns="http://www.w3.org/2000/svg">
<path d="M26.2249 0L0 5.336V10.12C1.01525 12.1573 2.14483 12.4775 3.11765 12.0908C3.97238 11.7511 4.7061 10.8658 5.13495 10.12C5.25347 10.3776 5.37597 10.6078 5.50173 10.8126C7.24407 13.6495 9.61041 11.6073 10.6367 10.12C11.9571 13.9472 14.8547 11.7147 16.1384 10.12C17.899 13.9472 20.173 11.7147 21.09 10.12C22.7038 13.9472 25.1857 11.7147 26.2249 10.12C28.2789 14.6832 30.8708 12.0213 31.91 10.12C33.3772 13.9472 35.9446 11.7147 37.045 10.12C38.8055 13.9472 41.5686 11.7147 42.7301 10.12C43.7454 12.1573 44.8749 12.4775 45.8478 12.0908C46.7025 11.7511 47.4362 10.8658 47.8651 10.12C47.9858 10.3624 48.1083 10.5805 48.2318 10.776C50.0594 13.667 52.1411 11.6137 53 10.12V5.336L26.2249 0Z" fill="#FFCE1F"/>
<path fill-rule="evenodd" clip-rule="evenodd" d="M5.13495 10.12C4.7061 10.8658 3.97238 11.7511 3.11765 12.0908V27.048H0.366782V29.44H3.11765V46H48.2318V29.44H50.9827V27.232H48.2318V10.776C48.1083 10.5805 47.9858 10.3624 47.8651 10.12C47.4362 10.8658 46.7025 11.7511 45.8478 12.0908V27.232L5.50173 27.048V10.8126C5.37597 10.6078 5.25347 10.3776 5.13495 10.12ZM45.8478 29.44H5.50173V30.912H45.8478V29.44Z" fill="#FFCE1F"/>
<path d="M85.556 25.888L86.956 19.196C87.824 15.08 89.868 13.4 92.5 13.4L87.964 32.524C87.88 32.832 87.684 33 87.348 33H84.464C84.156 33 83.932 32.832 83.848 32.524L80.334 20.876L76.764 32.524C76.68 32.832 76.456 33 76.148 33H73.264C72.928 33 72.732 32.832 72.648 32.524L68.364 14.576C68.28 14.212 68.476 13.96 68.868 13.96H72.06C72.396 13.96 72.62 14.128 72.676 14.464L75.056 25.86L77.156 18.888C78.388 14.828 79.788 13.904 81.692 13.4L85.556 25.888ZM103.238 22.654C103.924 21.296 105.1 20.54 106.724 20.372V33.28C105.1 33.112 103.924 32.356 103.238 30.984C102.146 32.524 100.41 33.448 98.2962 33.448C94.6562 33.448 92.1362 30.732 92.1362 26.812C92.1362 22.92 94.6562 20.204 98.2962 20.204C100.41 20.204 102.146 21.128 103.238 22.654ZM99.5842 30.088C101.292 30.088 102.524 28.744 102.524 26.84C102.524 24.936 101.292 23.592 99.5842 23.592C97.8762 23.592 96.6442 24.936 96.6442 26.84C96.6442 28.744 97.8762 30.088 99.5842 30.088ZM117.662 20.484C117.97 20.568 118.11 20.82 118.11 21.128V23.9C118.11 24.292 117.858 24.46 117.466 24.348C116.99 24.236 116.57 24.18 116.178 24.18C114.666 24.18 113.798 25.076 113.63 26.784V32.44C113.63 32.804 113.434 33 113.07 33H109.99C109.626 33 109.43 32.804 109.43 32.44V20.372C111.11 20.722 112.314 21.562 112.986 22.836C113.868 21.044 115.254 20.372 116.738 20.372C117.046 20.372 117.382 20.428 117.662 20.484ZM121.302 40L123.738 33.896L118.95 21.296C118.81 20.904 118.978 20.652 119.398 20.652H122.478C122.786 20.652 123.01 20.792 123.122 21.1L125.866 29.472L127.378 24.908C128.414 21.8 130.318 20.372 133.202 20.372L127.35 35.576C126.174 38.6 124.298 40 121.302 40ZM143.57 20.652H146.65C147.014 20.652 147.21 20.848 147.21 21.212V33.28C145.572 33.112 144.396 32.342 143.696 30.956C142.786 32.636 141.386 33.448 139.398 33.448C136.29 33.448 134.582 31.46 134.582 27.82V21.212C134.582 20.848 134.778 20.652 135.142 20.652H138.222C138.586 20.652 138.782 20.848 138.782 21.212V27.82C138.782 29.248 139.454 30.088 140.574 30.088C141.974 30.088 143.01 28.828 143.01 27.092V21.212C143.01 20.848 143.206 20.652 143.57 20.652ZM157.851 20.204C161.155 20.204 162.499 22.472 162.499 25.832V32.44C162.499 32.804 162.303 33 161.939 33H158.859C158.495 33 158.299 32.804 158.299 32.44V25.832C158.299 24.376 157.739 23.564 156.423 23.564C155.233 23.564 154.267 24.502 154.099 26.042V32.44C154.099 32.804 153.903 33 153.539 33H150.459C150.095 33 149.899 32.804 149.899 32.44V20.372C151.551 20.708 152.755 21.548 153.441 22.794C154.715 20.918 156.227 20.204 157.851 20.204ZM175.478 22.514C176.15 21.114 177.368 20.372 179.076 20.372V34.092C179.076 38.152 176.136 40 171.936 40C168.492 40 165.244 38.74 164.768 35.156C164.712 34.792 164.936 34.568 165.3 34.568H168.38C168.716 34.568 168.912 34.736 168.996 35.1C169.276 36.304 170.312 36.892 171.992 36.892C173.84 36.892 174.876 36.052 174.876 34.064V31.824C173.812 32.86 172.356 33.448 170.648 33.448C167.008 33.448 164.488 30.732 164.488 26.812C164.488 22.92 167.008 20.204 170.648 20.204C172.692 20.204 174.386 21.058 175.478 22.514ZM171.936 30.088C173.644 30.088 174.876 28.744 174.876 26.84C174.876 24.936 173.644 23.592 171.936 23.592C170.228 23.592 168.996 24.936 168.996 26.84C168.996 28.744 170.228 30.088 171.936 30.088Z" fill="black"/>
</svg>
