<svg width="20" height="20" viewBox="0 0 20 20" fill="none" xmlns="http://www.w3.org/2000/svg">
<circle cx="10" cy="10" r="10" fill="#DEF6ED"/>
<g clip-path="url(#clip0_82_334)">
<path fill-rule="evenodd" clip-rule="evenodd" d="M14.6055 6.67636C14.7411 6.81207 14.8173 6.99611 14.8173 7.188C14.8173 7.3799 14.7411 7.56394 14.6055 7.69965L9.1812 13.1239C9.10951 13.1956 9.02441 13.2525 8.93074 13.2913C8.83708 13.3301 8.73668 13.3501 8.6353 13.3501C8.53391 13.3501 8.43352 13.3301 8.33985 13.2913C8.24619 13.2525 8.16108 13.1956 8.0894 13.1239L5.3944 10.4294C5.32528 10.3626 5.27015 10.2828 5.23222 10.1945C5.19429 10.1062 5.17433 10.0112 5.17349 9.91514C5.17266 9.81905 5.19097 9.72375 5.22736 9.63481C5.26374 9.54588 5.31748 9.46507 5.38543 9.39713C5.45338 9.32918 5.53418 9.27544 5.62312 9.23905C5.71205 9.20267 5.80735 9.18436 5.90344 9.18519C5.99953 9.18603 6.09449 9.20599 6.18278 9.24392C6.27108 9.28185 6.35093 9.33698 6.41769 9.4061L8.63506 11.6235L13.5817 6.67636C13.6489 6.60911 13.7287 6.55576 13.8165 6.51936C13.9043 6.48297 13.9985 6.46423 14.0936 6.46423C14.1886 6.46423 14.2828 6.48297 14.3706 6.51936C14.4584 6.55576 14.5382 6.60911 14.6055 6.67636Z" fill="#3ACB96"/>
</g>
<defs>
<clipPath id="clip0_82_334">
<rect width="11.5789" height="11.5789" fill="white" transform="translate(4.21045 4.21053)"/>
</clipPath>
</defs>
</svg>
