<svg width="611" height="556" viewBox="0 0 611 556" fill="none" xmlns="http://www.w3.org/2000/svg">
<path d="M90.0334 449.126C127.765 437.407 188.122 398.099 127.697 334.626C103.95 305.937 77.7603 244.282 162.975 227.178C186.095 224.943 226.053 211.321 230.944 175.098C233.152 158.743 230.613 141.58 236.839 126.296C257.084 76.6045 306.592 24.0637 394.398 86.5781C402.834 92.5843 408.288 101.818 411.324 111.719C428.804 168.732 477.746 250.612 565.945 214.669" stroke="black" stroke-width="3" stroke-dasharray="6 6"/>
<path d="M121.813 517.432C162.147 498.932 275.313 469.632 405.313 500.432C449.647 511.765 539.613 529.532 544.813 509.932C544.662 507.067 550.022 500.793 546.308 499.622C545.806 499.556 545.308 499.493 544.813 499.432C545.424 499.432 545.916 499.498 546.308 499.622C581.297 504.192 632.438 519.137 599.313 540.432C572.109 548.609 484.429 560.94 343.247 548.869C326.011 547.395 308.684 547.44 291.46 549.041C190.657 558.409 46.9182 562.589 121.813 517.432Z" fill="#ECECEC"/>
<path d="M579.238 189.207C566.23 174.86 548.018 145.132 579.238 141C590.907 142.148 607.244 153.396 579.238 189.207Z" fill="#E55D5D"/>
<circle cx="578.664" cy="157.643" r="7.46063" fill="#FEFEFE"/>
<path d="M76.2381 442.207C63.2298 427.86 45.0182 398.132 76.2381 394C87.9073 395.148 104.244 406.396 76.2381 442.207Z" fill="#FFD05E"/>
<circle cx="75.6636" cy="410.643" r="7.46063" fill="#FEFEFE"/>
<circle cx="75.4606" cy="454.461" r="7.46063" fill="#453541"/>
<circle cx="75.4606" cy="454.461" r="7.46063" fill="#453541"/>
<circle cx="578.461" cy="207.461" r="7.46063" fill="#453541"/>
<circle cx="578.461" cy="207.461" r="7.46063" fill="#453541"/>
<path d="M212.692 504.521C213.496 493.063 236.468 502.051 247.854 507.977C230.097 519.544 201.931 519.18 190.067 517.552C172.166 510.468 185.064 507.631 193.75 507.098C187.19 495.36 203.645 500.489 212.692 504.521Z" fill="#FEFEFE"/>
</svg>
