<svg width="459" height="443" viewBox="0 0 459 443" fill="none" xmlns="http://www.w3.org/2000/svg">
<path fill-rule="evenodd" clip-rule="evenodd" d="M71.9208 328.678L69.9008 345.049L113.292 344.044L167.156 342.796L187.355 342.329L196.333 342.121C197.335 336.067 203.111 323.465 218.201 321.484C217.187 310.026 211.695 290.21 197.834 283.06C184.486 286.394 155.13 289.803 144.485 276.771C136.689 274.615 129.552 271.408 124.712 266.735C113.086 271.289 91.3749 284.835 79.3268 307.517C75.9598 313.856 73.3474 320.909 71.9208 328.678ZM105.304 306.198C98.433 310.199 85.2018 321.511 87.2416 334.747C91.9686 332.872 102.199 324.537 105.304 306.198Z" fill="#FFD05E"/>
<path d="M370.79 253.081L362.971 259.863C365.419 278.369 355.298 300.915 344.97 317.707C347.407 317.537 350.159 317.235 353.155 316.784C358.242 316.019 364.03 314.823 370.162 313.106C371.758 312.66 373.377 312.178 375.013 311.659C377.49 310.874 380.005 310.004 382.538 309.045C390.261 306.12 398.145 302.359 405.574 297.609C407.063 296.657 408.534 295.665 409.981 294.632C412.084 293.132 414.138 291.544 416.128 289.867C417.595 288.629 419.028 287.343 420.42 286.005C423.353 283.187 426.104 280.143 428.615 276.859C431.614 272.938 434.271 268.676 436.49 264.048C428.734 253.775 404.736 237.201 370.79 253.081Z" fill="#FFD05E"/>
<path d="M337.096 199.348C342.053 196.535 350.923 188.356 346.749 178.145L341.512 160.126L302.725 172.369C315.993 179.271 327.473 188.9 337.096 199.348Z" fill="#FFD05E"/>
<path d="M264.298 151.003L268.687 155.74C273.029 153.16 281.079 151.058 286.159 157.425C293.202 153.574 285.469 140.841 280.722 134.955L264.298 151.003Z" fill="#FFD05E"/>
<path fill-rule="evenodd" clip-rule="evenodd" d="M229.192 164.965L229.956 157.227C230.937 141.991 227.258 131.074 223.453 124.544C220.27 126.07 209.142 121.931 203.976 119.67C191.569 122.135 181.029 127.543 176.312 130.73L158.509 187.765C168.934 182.836 187.535 169.651 197.496 162.152L223.31 164.443L226.1 164.69L229.192 164.965ZM193.787 150.453C194.047 151.45 194.191 152.422 194.183 153.345L193.787 150.453Z" fill="#FFD05E"/>
<path d="M155.476 235.245L157.088 240.789C175.473 248.072 202.953 226.706 214.396 215.113L218.064 209.595C207.519 212.641 197.403 210.52 194.845 194.49L196.801 170.622L197.117 166.772C194.6 170.45 173.933 185.287 158.402 196.078L154.268 231.087L148.712 232.702L155.476 235.245Z" fill="#FFD05E"/>
<path d="M138.412 215.403L156.27 131.739L75.3072 112.31L52.3977 191.551L138.412 215.403Z" fill="#FFD05E"/>
<path d="M145.093 98.4672L100.943 86.4974L94.0829 109.536L139.17 121.233L145.093 98.4672Z" fill="#FFD05E"/>
<path d="M142.372 220.069C142.612 214.128 143.137 209.519 144.148 209.226L162.515 133.237L156.27 131.739L138.412 215.403L52.3977 191.551L75.3072 112.31L70.4495 111.144L68.0956 118.593L66.1052 120.1L40.4801 192.008L142.372 220.069Z" fill="#FFD05E"/>
<path d="M92.7896 84.3578L79.865 81.3503L72.6019 103.003L77.5746 104.564L87.5198 107.686L92.7896 84.3578Z" fill="#FFD05E"/>
<path d="M167.4 113.028L168.858 105.088L151.656 100.317L145.49 123.154L157.864 126.86L163.639 128.589L167.4 113.028Z" fill="#FFD05E"/>
<path fill-rule="evenodd" clip-rule="evenodd" d="M330.362 228.004C323.025 214.854 303.254 185.527 282.863 173.415L276.814 175.925C274.592 176.571 275.485 174.808 276.21 173.846C273.271 174.099 275.333 171.692 276.731 170.457C278.421 169.674 279.826 167.598 280.647 165.792C280.777 167.103 285.353 166.945 289.525 164.715C289.696 165.385 289.851 166.091 289.988 166.835C294.401 168.385 298.647 170.248 302.725 172.369C315.993 179.271 327.473 188.9 337.096 199.348C354.643 218.399 366.014 240.169 370.79 253.081L362.971 259.863C365.419 278.369 355.298 300.915 344.97 317.707C340.433 325.083 335.855 331.348 332.286 335.674L326.701 330.167C331.429 321.69 336.685 308.496 339.214 292.785C342.301 273.607 341.325 250.68 330.362 228.004Z" fill="#FFD05E"/>
<path d="M176.312 130.73C163.444 132.065 154.753 170.568 152.015 189.652C153.277 189.889 155.568 189.155 158.509 187.765L176.312 130.73Z" fill="#FF9437"/>
<path d="M142.393 242.054L145.865 241.045L157.088 240.789L155.476 235.245L148.712 232.702L154.268 231.087L158.402 196.078C154.918 198.499 151.692 200.716 148.988 202.558C148.3 204.511 146.37 208.58 144.148 209.226C143.137 209.519 142.612 214.128 142.372 220.069C142.348 220.661 142.327 221.265 142.309 221.88C142.105 228.672 142.222 236.717 142.393 242.054Z" fill="#FF9437"/>
<path d="M330.362 228.004C323.025 214.854 303.254 185.527 282.863 173.415C325.841 230.069 323.175 281.008 316.469 299.396L339.214 292.785C342.301 273.607 341.325 250.68 330.362 228.004Z" fill="#FF9437"/>
<path d="M197.496 162.152L197.117 166.772L196.801 170.622L223.31 164.443L197.496 162.152Z" fill="#FF9437"/>
<path d="M151.656 100.317L151.746 98.0365L146.079 96.6774L145.093 98.4672L139.17 121.233L94.0829 109.536L100.943 86.4974L101.235 84.9095L93.5743 81.875L92.7896 84.3578L87.5198 107.686L77.5746 104.564L72.6019 103.003L71.213 103.407L68.6576 110.162L70.4495 111.144L75.3072 112.31L156.27 131.739L162.515 133.237L163.639 128.589L157.864 126.86L145.49 123.154L151.656 100.317Z" fill="#453540"/>
<path d="M144.148 209.226C146.37 208.58 148.3 204.511 148.988 202.558C151.692 200.716 154.918 198.499 158.402 196.078C173.933 185.287 194.6 170.45 197.117 166.772L197.496 162.152C187.535 169.651 168.934 182.836 158.509 187.765C155.568 189.155 153.277 189.889 152.015 189.652C154.753 170.568 163.444 132.065 176.312 130.73C181.029 127.543 191.569 122.135 203.976 119.67C208.679 118.736 213.651 118.224 218.675 118.417C215.694 117.346 209.804 116.395 201.674 116.93C196.488 117.272 190.392 118.219 183.558 120.125C178.938 121.413 173.982 123.14 168.742 125.415L167.4 113.028L163.639 128.589L162.515 133.237L144.148 209.226Z" fill="#453540"/>
<path d="M196.333 342.121L187.355 342.329C183.438 343.772 178.767 345.552 173.802 347.523C168.136 349.772 162.086 352.27 156.335 354.799C154.522 355.597 152.738 356.397 151.006 357.194C146.89 359.088 143.062 360.961 139.809 362.722C133.192 366.304 128.954 369.424 129.503 371.316C127.082 378.534 126.456 393.998 143.318 398.116C147.506 397.001 152.744 395.489 158.59 393.65C161.231 392.818 163.997 391.92 166.846 390.961C168.642 390.357 170.472 389.729 172.324 389.078C177.21 387.361 182.255 385.488 187.269 383.489C203.324 377.088 219.066 369.395 228.294 361.391L234.073 365.724L309.076 343.923L315.182 336.427C273.136 348.395 219.405 345.405 196.333 342.121Z" fill="#453447"/>
<path d="M113.292 344.044C101.102 358.249 84.9741 393.279 117.978 419.762C134.812 428.447 172.104 434.962 186.599 391.549C187.047 388.773 187.809 383.274 187.269 383.489C182.255 385.488 177.21 387.361 172.324 389.078C168.8 414.268 144.602 414.625 132.944 411.654C101.819 397.853 111.62 370.251 120.412 358.176C135.145 346.678 150.5 351.134 156.335 354.799C162.086 352.27 168.136 349.772 173.802 347.523L167.156 342.796L113.292 344.044Z" fill="#453541"/>
<path d="M120.412 358.176C111.62 370.251 101.819 397.853 132.944 411.654C144.602 414.625 168.8 414.268 172.324 389.078C170.472 389.729 168.642 390.357 166.846 390.961C159.39 410.914 139.929 408.912 131.131 405.417C108.178 388.639 118.532 368.981 126.577 361.25C133.215 352.991 145.629 355.105 151.006 357.194C152.738 356.397 154.522 355.597 156.335 354.799C150.5 351.134 135.145 346.678 120.412 358.176Z" fill="#BFBFBF"/>
<path d="M143.318 398.116C126.456 393.998 127.082 378.534 129.503 371.316C128.954 369.424 133.192 366.304 139.809 362.722C131.498 363.496 116.865 370.33 124.817 391.469C129.843 399.259 143.634 410.601 158.59 393.65C152.744 395.489 147.506 397.001 143.318 398.116Z" fill="#BFBFBF"/>
<path d="M218.201 321.484C203.111 323.465 197.335 336.067 196.333 342.121C219.405 345.405 273.136 348.395 315.182 336.427C318.475 335.49 321.697 334.46 324.827 333.332C325.437 332.367 326.064 331.31 326.701 330.167C331.429 321.69 336.685 308.496 339.214 292.785L316.469 299.396C311.033 302.052 299.415 306.934 296.434 305.22L308.053 311.902C314.035 309.161 326.401 305.066 328.013 310.61C307.452 335.226 276.388 333.382 263.427 329.383C239.113 332.796 241.845 315.594 246.25 306.567L236.215 305.726L232.144 281.355C229.116 279.229 235.067 267.227 238.421 261.492C229.563 267.165 207.301 278.457 186.209 280.393C190.614 280.336 194.471 281.325 197.834 283.06C211.695 290.21 217.187 310.026 218.201 321.484Z" fill="#E9D3BB"/>
<path d="M353.155 316.784C357.964 334.192 377.34 365.268 416.375 350.314C428.602 344.011 450.882 324.444 442.186 296.6C440.318 289.999 434.988 276.81 428.615 276.859C426.104 280.143 423.353 283.187 420.42 286.005C430.387 297.138 441.336 323.217 405.402 338.472C393.971 340.603 370.919 338.513 370.162 313.106C364.03 314.823 358.242 316.019 353.155 316.784Z" fill="#453541"/>
<path d="M405.402 338.472C441.336 323.217 430.387 297.138 420.42 286.005C419.028 287.343 417.595 288.629 416.128 289.867C432.096 309.564 418.917 324.512 410.332 329.523C383.511 342.13 375.611 322.866 375.013 311.659C373.377 312.178 371.758 312.66 370.162 313.106C370.919 338.513 393.971 340.603 405.402 338.472Z" fill="#BFBFBF"/>
<path d="M408.116 321.9C423.621 313.184 415.82 300.09 409.981 294.632C408.534 295.665 407.063 296.657 405.574 297.609C398.145 302.359 390.261 306.12 382.538 309.045C384.523 328.312 400.417 325.643 408.116 321.9Z" fill="#BFBFBF"/>
<path d="M159.592 255.062C155.952 253.501 152.971 251.77 150.769 250.142L126.054 250.622C129.625 259.206 140.104 275.08 156.23 279.23C159.127 279.671 162.006 280.001 164.789 280.24C171.896 280.851 178.381 280.869 182.974 280.615C184.084 280.479 185.162 280.407 186.209 280.393C207.301 278.457 229.563 267.165 238.421 261.492C238.206 260.515 237.947 259.588 237.652 258.709C204.864 278.462 175.433 265.809 164.816 257.014C162.952 256.413 161.207 255.754 159.592 255.062Z" fill="#E55D5D"/>
<path d="M237.652 258.709C235.388 251.968 231.04 248.124 228.926 246.966C214.597 255.962 200.973 259.577 189.075 260.147C179.771 260.593 171.522 259.176 164.816 257.014C175.433 265.809 204.864 278.462 237.652 258.709Z" fill="#CD4640"/>
<path d="M123.058 250.68C118.542 253.797 122.279 262.682 124.712 266.735C129.552 271.408 136.689 274.615 144.485 276.771C148.306 277.827 152.285 278.631 156.23 279.23C140.104 275.08 129.625 259.206 126.054 250.622L123.058 250.68Z" fill="#CD4640"/>
<path d="M145.865 241.045L150.769 250.142C152.971 251.77 155.952 253.501 159.592 255.062C164.058 253.228 169.792 250.623 175.869 247.491C192.432 238.953 211.535 226.502 214.396 215.113C202.953 226.706 175.473 248.072 157.088 240.789L145.865 241.045Z" fill="#43334D"/>
<path d="M247.327 302.496L246.25 306.567C241.845 315.594 239.113 332.796 263.427 329.383L261.614 323.146C259.515 316.985 259.935 312.298 261.284 308.961C262.571 305.779 264.703 303.825 266.3 302.994L264.89 298.143L258.438 299.266L254.812 286.792L256.986 283.905L251.506 261.447L245.17 235.48L240.913 238.972L244.437 300.329L247.327 302.496Z" fill="#433545"/>
<path d="M261.614 323.146L263.427 329.383C276.388 333.382 307.452 335.226 328.013 310.61C323.188 313.732 315.932 317.633 307.638 320.837C298.474 324.377 288.042 327.067 278.222 326.916C277.302 326.902 276.387 326.863 275.479 326.797C270.574 326.442 265.871 325.311 261.614 323.146Z" fill="#433545"/>
<path d="M283.327 302.554C274.57 310.53 268.429 306.432 266.3 302.994C264.703 303.825 262.571 305.779 261.284 308.961C265.424 310.279 274.255 316.367 275.479 326.797C276.387 326.863 277.302 326.902 278.222 326.916C288.042 327.067 298.474 324.377 307.638 320.837C305.05 320.223 306.836 314.624 308.053 311.902L296.434 305.22L286.35 299.421C285.311 300.627 284.303 301.665 283.327 302.554Z" fill="#E55D5D"/>
<path d="M261.284 308.961C259.935 312.298 259.515 316.985 261.614 323.146C265.871 325.311 270.574 326.442 275.479 326.797C274.255 316.367 265.424 310.279 261.284 308.961Z" fill="#CD4640"/>
<path d="M328.013 310.61C326.401 305.066 314.035 309.161 308.053 311.902C306.836 314.624 305.05 320.223 307.638 320.837C315.932 317.633 323.188 313.732 328.013 310.61Z" fill="#E55D5D"/>
<path d="M144.485 276.771C155.13 289.803 184.486 286.394 197.834 283.06C194.471 281.325 190.614 280.336 186.209 280.393C185.127 280.492 184.048 280.567 182.974 280.615C178.381 280.869 171.896 280.851 164.789 280.24C161.782 280.291 158.927 279.925 156.23 279.23C152.285 278.631 148.306 277.827 144.485 276.771Z" fill="#FF9437"/>
<path fill-rule="evenodd" clip-rule="evenodd" d="M228.926 246.966L240.913 238.972L245.17 235.48L251.506 261.447C257.318 260.137 268.862 259.264 278.132 263.248C276.347 240.306 271.791 226.145 269.027 220.565C268.792 220.09 268.57 219.677 268.364 219.327C268.801 206.259 232.567 211.072 214.396 215.113C211.535 226.502 192.432 238.953 175.869 247.491C179.795 246.618 187.934 247.928 189.075 260.147C200.973 259.577 214.597 255.962 228.926 246.966Z" fill="#5C75C9"/>
<path d="M276.427 203.095C271.38 199.551 256.801 193.617 238.862 198.231C233.485 202.522 225.663 207.4 218.064 209.595L214.396 215.113C232.567 211.072 268.801 206.259 268.364 219.327C268.57 219.677 268.792 220.09 269.027 220.565C271.791 226.145 276.347 240.306 278.132 263.248C281.091 264.52 283.818 266.287 286.053 268.692C286.458 246.378 284.95 212.943 276.427 203.095Z" fill="#5C75C9"/>
<path d="M159.592 255.062C161.207 255.754 162.952 256.413 164.816 257.014C171.522 259.176 179.771 260.593 189.075 260.147C187.934 247.928 179.795 246.618 175.869 247.491C169.792 250.623 164.058 253.228 159.592 255.062Z" fill="#5C75C9"/>
<path d="M256.986 283.905C267.485 276.661 278.615 277.083 285.703 278.981C285.859 275.991 285.984 272.504 286.053 268.692C283.818 266.287 281.091 264.52 278.132 263.248C268.862 259.264 257.318 260.137 251.506 261.447L256.986 283.905Z" fill="#3656AD"/>
<path d="M256.986 283.905L254.812 286.792L258.438 299.266L264.89 298.143L282.119 298.396L289.822 298.411L290.745 280.857C289.482 280.208 287.763 279.532 285.703 278.981C278.615 277.083 267.485 276.661 256.986 283.905Z" fill="#879CE7"/>
<path d="M264.89 298.143L266.3 302.994C268.429 306.432 274.57 310.53 283.327 302.554L282.119 298.396L264.89 298.143Z" fill="#FFD05E"/>
<path d="M268.687 155.74C261.537 156.014 237.226 170.146 225.964 177.177C225.883 177.226 225.802 177.274 225.721 177.322C225.817 177.007 225.901 176.711 225.972 176.438L226.1 164.69L223.31 164.443L196.801 170.622L194.845 194.49C197.403 210.52 207.519 212.641 218.064 209.595C225.663 207.4 233.485 202.522 238.862 198.231C248.197 189.755 267.438 171.134 269.716 164.46C272.42 161.67 278.391 158.03 280.647 165.792C280.777 167.103 285.353 166.945 289.525 164.715C288.716 161.542 287.549 159.167 286.159 157.425C281.079 151.058 273.029 153.16 268.687 155.74Z" fill="#FDB6B4"/>
<path d="M280.647 165.792C278.391 158.03 272.42 161.67 269.716 164.46C272.113 170.414 274.64 171.426 276.731 170.457C278.421 169.674 279.826 167.598 280.647 165.792Z" fill="#453447"/>
<path d="M199.347 103.742L194.708 111.103C195.789 113.095 198.696 117.049 201.674 116.93C209.804 116.395 215.694 117.346 218.675 118.417C223.12 117.125 221.055 114.513 219.467 113.369C216.803 114.143 205.845 107.838 200.057 104.193C199.811 104.037 199.573 103.887 199.347 103.742Z" fill="#FFD05E"/>
<path d="M194.708 111.103C191.608 110.802 185.983 116.992 183.558 120.125C190.392 118.219 196.488 117.272 201.674 116.93C198.696 117.049 195.789 113.095 194.708 111.103Z" fill="#FFD05E"/>
<path d="M218.675 118.417C213.651 118.224 208.679 118.736 203.976 119.67C209.142 121.931 220.27 126.07 223.453 124.544C221.75 121.62 220.021 119.575 218.675 118.417Z" fill="#FFD05E"/>
<path d="M200.057 104.193C205.845 107.838 216.803 114.143 219.467 113.369L221.324 108.098C213.138 105.845 210.829 95.7426 210.698 90.9733C209.075 91.744 207.25 92.0689 205.756 92.1082L200.057 104.193Z" fill="#FDB6B4"/>
<path d="M223.181 102.827C219.853 101.74 212.697 97.8489 210.698 90.9733C210.829 95.7426 213.138 105.845 221.324 108.098L223.181 102.827Z" fill="#FD847E"/>
<path d="M224.041 69.5069C223.358 77.5219 216.362 78.503 212.95 77.9916C216.797 85.52 214.224 89.2989 210.698 90.9733C212.697 97.8489 219.853 101.74 223.181 102.827C229.147 104.349 240.909 104.739 240.231 94.113L239.452 73.2949L237.548 69.3385C232.565 74.9959 226.467 71.808 224.041 69.5069Z" fill="#FDB6B4"/>
<path d="M212.95 77.9916C216.362 78.503 223.358 77.5219 224.041 69.5069C226.467 71.808 232.565 74.9959 237.548 69.3385L239.452 73.2949C243.051 70.996 249.252 65.0349 245.257 59.5821C242.205 49.9468 231.867 34.7633 214.928 51.1111C208.409 52.0038 196.656 57.1737 201.796 70.7114C199.1 75.2532 196.116 85.8911 205.756 92.1082C207.25 92.0689 209.075 91.744 210.698 90.9733C214.224 89.2989 216.797 85.52 212.95 77.9916Z" fill="#433545"/>
<path d="M105.304 306.198C98.433 310.199 85.2018 321.511 87.2416 334.747C91.9686 332.872 102.199 324.537 105.304 306.198Z" fill="#FBE582"/>
<path d="M76.4857 137.162L79.4971 138.937C81.3482 140.032 81.8268 141.297 81.3954 142.572L72.8772 137.24C72.7418 137.149 72.6925 137.027 72.7476 136.864L73.2203 135.467C73.2708 135.318 73.3889 135.237 73.5518 135.247L79.7689 135.454L74.713 131.816C74.5776 131.725 74.5329 131.589 74.5834 131.44L75.0561 130.043C75.1112 129.88 75.2247 129.813 75.3876 129.823L84.782 130.69C84.972 130.709 85.0619 130.845 84.9977 131.035L84.4745 132.581C84.4194 132.744 84.3013 132.824 84.1294 132.797L78.2203 132.081L81.2526 134.241C83.0169 135.503 83.2349 136.333 83.1669 137.337L76.4857 137.162ZM75.1536 146.255C75.6989 146.81 75.8723 147.504 75.6874 148.318L69.4361 146.202C69.7837 145.443 70.3425 144.997 71.1194 144.89C70.5526 144.109 70.3897 143.117 70.7362 142.093C71.3328 140.33 73.0612 139.555 74.9596 140.197C76.8445 140.835 77.7468 142.501 77.1502 144.264C76.8037 145.287 76.0717 145.977 75.1536 146.255ZM72.1523 143.267C71.8723 144.094 72.3213 144.911 73.2434 145.223C74.1655 145.536 75.0183 145.159 75.2983 144.332C75.5782 143.505 75.1293 142.688 74.2072 142.376C73.2851 142.064 72.4322 142.44 72.1523 143.267ZM73.8404 153.596C73.7492 153.732 73.6043 153.758 73.4551 153.708L72.1126 153.253C71.9228 153.189 71.8827 153.04 72.0012 152.868C72.1335 152.656 72.2294 152.462 72.2937 152.272C72.5415 151.54 72.2499 150.972 71.4502 150.611L68.711 149.684C68.5347 149.624 68.4719 149.497 68.5316 149.321L69.0364 147.829C69.0961 147.653 69.2231 147.59 69.3994 147.65L75.2439 149.628C74.7991 150.384 74.1949 150.83 73.4678 150.946C74.1911 151.667 74.2893 152.449 74.0461 153.167C73.9956 153.316 73.9134 153.47 73.8404 153.596ZM63.7922 152.16L66.3491 154.341L73.236 154.087C73.4488 154.084 73.5433 154.206 73.4745 154.41L72.9697 155.901C72.9192 156.05 72.8147 156.136 72.6471 156.14L68.1428 156.096L70.1053 157.577C71.4407 158.588 71.8202 159.744 71.3475 161.141L64.9434 155.815C63.6717 154.749 63.3011 153.611 63.7922 152.16ZM69.5126 166.116L69.0077 167.608C68.9481 167.784 68.821 167.847 68.6447 167.787L62.8002 165.809C63.1501 165.043 63.7157 164.6 64.5017 164.488C63.8372 163.772 63.6735 162.961 63.9993 161.998C64.5087 160.493 65.7515 159.992 67.5143 160.588L70.7146 161.671C70.8909 161.731 70.9537 161.858 70.894 162.034L70.3892 163.526C70.3295 163.702 70.2024 163.765 70.0262 163.705L66.8259 162.622C66.1343 162.388 65.6174 162.576 65.4338 163.118C65.2043 163.796 65.6447 164.505 66.4855 164.789L69.3332 165.753C69.5094 165.813 69.5722 165.94 69.5126 166.116ZM67.3888 173.106C66.8472 174.706 65.5285 174.985 63.9013 174.434L60.701 173.351C60.5247 173.291 60.462 173.164 60.5216 172.988L61.0265 171.496C61.0861 171.32 61.2132 171.257 61.3894 171.317L64.5897 172.4C65.2948 172.639 65.7799 172.501 65.9956 171.863C66.1906 171.287 65.8947 170.665 65.1764 170.332L62.0779 169.283C61.9016 169.223 61.8388 169.096 61.8984 168.92L62.4033 167.428C62.4629 167.252 62.59 167.189 62.7663 167.249L68.6108 169.227C68.1773 169.972 67.5731 170.417 66.8573 170.545C67.557 171.47 67.6549 172.319 67.3888 173.106ZM63.3808 181.264C63.9487 181.819 64.1084 182.53 63.8284 183.357L57.1839 181.109C55.2176 180.443 54.8045 178.716 55.4929 176.682C56.0574 175.014 57.2 173.648 59.0138 174.005C59.1992 174.037 59.271 174.183 59.2113 174.359L58.7065 175.851C58.6514 176.013 58.5379 176.081 58.3479 176.062C57.7189 176 57.2643 176.405 56.9889 177.219C56.686 178.114 56.923 178.753 57.8858 179.079L58.9707 179.446C58.6433 178.761 58.5972 177.96 58.8772 177.133C59.4738 175.37 61.2022 174.594 63.1006 175.237C64.9855 175.875 65.8878 177.54 65.2912 179.303C64.9562 180.293 64.2649 180.974 63.3808 181.264ZM60.2933 178.307C60.0133 179.134 60.4623 179.951 61.3844 180.263C62.3065 180.575 63.1593 180.199 63.4393 179.372C63.7192 178.545 63.2703 177.728 62.3482 177.416C61.4261 177.103 60.5732 177.48 60.2933 178.307Z" fill="black"/>
</svg>
